<svg xmlns="http://www.w3.org/2000/svg" viewBox="0 0 1170.34 318.27"><defs><style>.cls-1{fill:none;stroke:#d5896b;stroke-miterlimit:10;stroke-width:4px;}.cls-2{fill:#d5896b;}.cls-3{fill:#fff;}</style></defs><g id="Layer_2" data-name="Layer 2"><g id="Calque_1" data-name="Calque 1"><line class="cls-1" x1="504.34" y1="263.15" x2="504.34" y2="308.15"/><rect class="cls-2" x="1149.42" y="124.14" width="20.92" height="9.14" rx="4.57"/><rect class="cls-2" x="912.92" y="124.14" width="20.92" height="9.14" rx="4.57"/><rect class="cls-2" x="1037.06" width="9.14" height="20.92" rx="4.57"/><rect class="cls-2" x="1120.68" y="201.87" width="9.14" height="20.92" rx="4.57" transform="translate(179.44 857.86) rotate(-45)"/><rect class="cls-2" x="953.44" y="34.63" width="9.14" height="20.92" rx="4.57" transform="translate(248.71 690.63) rotate(-45)"/><rect class="cls-2" x="1114.79" y="40.52" width="20.92" height="9.14" rx="4.57" transform="translate(297.61 808.79) rotate(-44.99)"/><rect class="cls-2" x="947.55" y="207.76" width="20.92" height="9.14" rx="4.57" transform="translate(130.4 739.52) rotate(-44.99)"/><rect class="cls-2" x="1145.32" y="165.83" width="9.14" height="20.92" rx="4.57" transform="translate(525.86 1158.08) rotate(-66.28)"/><rect class="cls-2" x="928.8" y="70.68" width="9.14" height="20.92" rx="4.57" transform="translate(483.56 902.99) rotate(-66.28)"/><rect class="cls-2" x="1078.75" y="15.88" width="20.92" height="9.14" rx="4.57" transform="translate(632.29 1009.4) rotate(-66.28)"/><rect class="cls-2" x="994.15" y="8.06" width="9.14" height="20.92" rx="4.57" transform="translate(61.34 363.65) rotate(-21.28)"/><rect class="cls-2" x="1141.36" y="81.23" width="20.92" height="9.14" rx="4.57" transform="translate(47.35 423.73) rotate(-21.27)"/><rect class="cls-2" x="920.98" y="167.05" width="20.92" height="9.14" rx="4.57" transform="translate(1.2 349.62) rotate(-21.27)"/><path class="cls-3" d="M726.39,62.91a8.12,8.12,0,0,0,2.46,1.61,7.36,7.36,0,0,0,3,.59,7.55,7.55,0,0,0,3-.61,8.13,8.13,0,0,0,2.45-1.63,7.41,7.41,0,0,0,1.66-2.42,7.53,7.53,0,0,0,.58-3,7.4,7.4,0,0,0-.6-3,7.81,7.81,0,0,0-4.13-4.1,7.62,7.62,0,0,0-3-.59,7.5,7.5,0,0,0-3,.61,7.88,7.88,0,0,0-4.11,4.13,7.53,7.53,0,0,0-.58,3,7.4,7.4,0,0,0,.6,3A7.5,7.5,0,0,0,726.39,62.91Z"/><path class="cls-3" d="M759.64,52a7.27,7.27,0,0,0-2.43-1.65,7.79,7.79,0,0,0-10.1,4.15,7.65,7.65,0,0,0,0,5.94,7.37,7.37,0,0,0,1.68,2.41,8.1,8.1,0,0,0,2.48,1.61,7.71,7.71,0,0,0,8.39-1.65,7.3,7.3,0,0,0,2.21-5.39,7.41,7.41,0,0,0-.61-3A8,8,0,0,0,759.64,52Z"/><path class="cls-3" d="M737.55,46.68A7.19,7.19,0,0,0,740,48.33a7.44,7.44,0,0,0,3,.59,7.7,7.7,0,0,0,7.66-7.71,7.62,7.62,0,0,0-.61-3,7.85,7.85,0,0,0-1.67-2.44,7.53,7.53,0,0,0-5.43-2.24,7.37,7.37,0,0,0-3,.6,7.24,7.24,0,0,0-2.41,1.67,8,8,0,0,0-1.61,2.46,7.39,7.39,0,0,0-.59,3,7.54,7.54,0,0,0,.6,3A8.16,8.16,0,0,0,737.55,46.68Z"/><polygon class="cls-3" points="778.41 49.68 778.75 109.21 793.79 109.17 793.46 49.63 778.41 49.68"/><path class="cls-3" d="M797.85,34.17l-11.24,0a1.81,1.81,0,0,1-1.24-.55,4.41,4.41,0,0,1-1-1.45,10.2,10.2,0,0,1-.64-2,10.76,10.76,0,0,1-.24-2.28,5.18,5.18,0,0,1,1.21-3.35A5,5,0,0,1,788.63,23h-.08l6.33,0,0-7.52-6.41,0a14.87,14.87,0,0,0-5.78,1.16,10.52,10.52,0,0,0-3.83,2.81,10.9,10.9,0,0,0-2.13,3.95,15.9,15.9,0,0,0-.66,4.58,16.9,16.9,0,0,0,1.29,6.3h-3.88l0,7.52,24.39-.07Z"/><path class="cls-2" d="M461.34,206.75l16.71-71.67a15.74,15.74,0,0,1,5.51-9.12,15.32,15.32,0,0,1,9.77-3.2,16,16,0,0,1,10,3.2,15.06,15.06,0,0,1,5.51,9.12l16.46,71.67H510.86l-4-18.36H479.94l-4,18.36Zm42.89-31-8.3-37.2c-.39-1.73-1.26-2.6-2.6-2.6s-2.1.87-2.49,2.6l-8.17,37.2Z"/><path class="cls-2" d="M524.37,137.33V124.06h50.11v13.27H556.59v69.42H542.37V137.33Z"/><path class="cls-2" d="M584.31,124.06h14.21v40.4h30.33v-40.4H643v82.69h-14.1V177.49H598.52v29.26H584.31Z"/><path class="cls-2" d="M661.61,124.06h14.21L669,152.61H658.53Z"/><path class="cls-2" d="M673.63,206.75l16.7-71.67a15.79,15.79,0,0,1,5.51-9.12,15.32,15.32,0,0,1,9.77-3.2,16,16,0,0,1,10,3.2,15.06,15.06,0,0,1,5.51,9.12l16.47,71.67H723.14l-4-18.36H692.23l-4,18.36Zm42.88-31-8.29-37.2c-.4-1.73-1.27-2.6-2.61-2.6s-2.09.87-2.49,2.6L695,175.71Z"/><path class="cls-2" d="M749.44,124.06H776.1q12.9,0,20.19,7.82t7.29,21.32q0,10.67-4.68,17.24a22.28,22.28,0,0,1-13.33,8.71q.95,7.46,5.51,11.61t12,4.14v12.91q-26.07,0-30.21-25.94h-9.24v24.88H749.44Zm14.22,13.27V169h9.59q8.18,0,12.15-3.85t4-11.91q0-8.17-4-12t-12.15-3.85Z"/><path class="cls-2" d="M806.9,137.33V124.06H857v13.27H839.12v69.42H824.9V137.33Z"/><path class="cls-3" d="M750.43,70.7l-15,0,.17,13.94a9.34,9.34,0,0,1-.75,3.8,9.82,9.82,0,0,1-2,3.06,9.67,9.67,0,0,1-3,2.06,9.35,9.35,0,0,1-3.72.77L557.47,95l-.2-23.6-15,0,0,49.91h14.36V109.94l169.4-.6a23.82,23.82,0,0,0,9.55-2,25.24,25.24,0,0,0,7.81-5.29,25,25,0,0,0,5.27-7.82,23.7,23.7,0,0,0,1.92-9.63Z"/><path class="cls-3" d="M542.45,216.1a20,20,0,0,1-2.2,8.64,32,32,0,0,1-2.36,3.81,26.82,26.82,0,0,1-3.59,4,35.46,35.46,0,0,1-5.17,3.93,47.92,47.92,0,0,1-7,3.59L528,253.92a58.4,58.4,0,0,0,13-7.29,54.31,54.31,0,0,0,8.45-8.18c5.41-6.44,7.23-13.46,7.23-26.06v-2.91H542.43Z"/><path class="cls-2" d="M1115.43,71.83a115.09,115.09,0,0,0-73.8,26.7,115,115,0,0,0-73.8-26.7v9.79a105.3,105.3,0,0,1,66.47,23.56,116.92,116.92,0,0,0-16.94,21.15,78.32,78.32,0,0,0-49.53-17.6v9.79A68.55,68.55,0,0,1,1012.45,135a115,115,0,0,0-10.18,28.79,41.77,41.77,0,0,0-34.44-18.17v9.79a32,32,0,0,1,32,32v23.94h9.78V187.42a105.16,105.16,0,0,1,10.14-45.14,68.52,68.52,0,0,1,17,45.14v23.94h9.78V187.42a68.52,68.52,0,0,1,17-45.14,105.16,105.16,0,0,1,10.14,45.14v23.94h9.78V187.42a32,32,0,0,1,32-32v-9.79A41.77,41.77,0,0,0,1081,163.8,115,115,0,0,0,1070.81,135a68.55,68.55,0,0,1,44.62-16.49v-9.79a78.32,78.32,0,0,0-49.53,17.6A116.49,116.49,0,0,0,1049,105.18a105.3,105.3,0,0,1,66.47-23.56Zm-56.85,61.26a79,79,0,0,0-16.95,27,79,79,0,0,0-17-27,106.65,106.65,0,0,1,17-21.38A106.3,106.3,0,0,1,1058.58,133.09Z"/><path class="cls-3" d="M550.08,68.64h-.74a7.56,7.56,0,0,1-6.55-3.23,13.24,13.24,0,0,1-2.06-7.81q0-5.19,2.81-8.13A8.29,8.29,0,0,1,549.71,47a8.15,8.15,0,0,1,6.83,3.23,11.77,11.77,0,0,1,2.19,7.38c0,3.74-.88,6.59-2.66,8.56A7.78,7.78,0,0,1,550.08,68.64Zm-1-27.92a3,3,0,0,1-.94,2.23,3.19,3.19,0,0,1-2.29.91,3.13,3.13,0,0,1-2.27-.94,3,3,0,0,1,0-4.39,3.13,3.13,0,0,1,2.27-.94,3.19,3.19,0,0,1,2.29.91A3,3,0,0,1,549.06,40.72Zm-3,17a6.26,6.26,0,0,0,1.08,4,2.79,2.79,0,0,0,2.34,1.17H550a2.82,2.82,0,0,0,2.5-1.33,7,7,0,0,0,.87-3.81,6.08,6.08,0,0,0-1.08-3.88A3.4,3.4,0,0,0,547,54,6.28,6.28,0,0,0,546.06,57.7Zm10.2-17a3,3,0,0,1-.94,2.23,3.24,3.24,0,0,1-2.34.91,3.09,3.09,0,0,1-2.26-.94,3,3,0,0,1,0-4.39,3.09,3.09,0,0,1,2.26-.94,3.26,3.26,0,0,1,2.34.89A3,3,0,0,1,556.26,40.72Z"/><path class="cls-3" d="M568.83,47.78v18.8a6.14,6.14,0,0,1-1,3.79,3.71,3.71,0,0,1-3.18,1.45,7.69,7.69,0,0,1-2.85-.62l0,5a13.33,13.33,0,0,0,4.4.74A8.26,8.26,0,0,0,572,74.9q2.76-2.52,2.76-7.39V47.78Z"/><path class="cls-3" d="M588.94,68h-9.59v-5.8h8.42q3.4,0,3.41-2.9a7.13,7.13,0,0,0-1.4-3.9,13.31,13.31,0,0,0-3.7-3.62l3.42-4.63a18.74,18.74,0,0,1,5.84,6,12.32,12.32,0,0,1,1.82,6.36q0,4.11-2,6.26T588.94,68Z"/><path class="cls-3" d="M616.75,68h-2q-10.38,0-10.38-9.73V36.89h6V56.71q0,3.18,1.08,4.35c.71.78,2,1.17,3.88,1.17h1.49Z"/><path class="cls-3" d="M615.82,68v-5.8h1.4c1.9,0,3.23-.53,4-1.59a6.83,6.83,0,0,0,1-4.11V47.78h6v8.75c0,2.12.42,3.61,1.26,4.49a4.93,4.93,0,0,0,3.7,1.21h1.35V68h-1.82q-5.05,0-7.48-3-2.52,3-7.53,3ZM625,77.75a3.16,3.16,0,0,1-2.27-.93,3,3,0,0,1-1-2.25,3,3,0,0,1,1-2.19,3.13,3.13,0,0,1,2.27-.94,3.22,3.22,0,0,1,2.31.91,3,3,0,0,1,1,2.22,3,3,0,0,1-1,2.25A3.2,3.2,0,0,1,625,77.75Z"/><path class="cls-3" d="M633.54,62.23h1.54q3.93,0,3.93-4.35V55.5A8.31,8.31,0,0,1,641.63,49a9.41,9.41,0,0,1,13,1.27,11.28,11.28,0,0,1,2.15,7.06c0,3.61-1,6.42-2.9,8.41a8.22,8.22,0,0,1-6.17,2.53,9.41,9.41,0,0,1-6.17-1.92A7,7,0,0,1,636.72,68h-3.18Zm11.17-2.9q0,3.09,2.85,3.09A3,3,0,0,0,650.23,61a6.94,6.94,0,0,0,.93-3.9,6,6,0,0,0-1-3.79,3,3,0,0,0-2.52-1.22,2.83,2.83,0,0,0-2.22.77,3.87,3.87,0,0,0-.68,2.55Z"/><path class="cls-3" d="M716.62,244.24a5.08,5.08,0,0,1-2.7,4.37,12,12,0,0,1-6.1,1.39q-4.27,0-6.53-2.29a7,7,0,0,1-1.9-5.12,8.17,8.17,0,0,1,1.38-4.69l2.28.88a7.66,7.66,0,0,0-1,3.57,4.77,4.77,0,0,0,1.67,3.76,6.36,6.36,0,0,0,4.28,1.32,8.51,8.51,0,0,0,4.11-.89,2.85,2.85,0,0,0,1.7-2.29h-2.68v-2.74l6.28,0v2.74Z"/><path class="cls-3" d="M717.7,244.24h-.82V241.5h.57c2,0,3-1.2,3-3.57l0-12.69h2.82l0,12.69q0,3.57,3,3.55h.6v2.74H726a4.91,4.91,0,0,1-4.17-1.78A4.91,4.91,0,0,1,717.7,244.24Z"/><path class="cls-3" d="M741.83,244.16l-15.54.05v-2.74h3.88a6,6,0,0,1-1.19-3.67,5.81,5.81,0,0,1,1.82-4.49,5.44,5.44,0,0,1,3.9-1.49l4.93,0v2.68l-4.42,0a3.22,3.22,0,0,0-2.65,1.15,3.37,3.37,0,0,0-.73,2.22,3.46,3.46,0,0,0,1.06,2.6,3.54,3.54,0,0,0,2.6,1l6.33,0Z"/><path class="cls-3" d="M765,252.82a9.59,9.59,0,0,1-5.61,1.78,7.7,7.7,0,0,1-5.54-1.95,6,6,0,0,1-1.92-4.64,6.46,6.46,0,0,1,.9-3.42,5.88,5.88,0,0,1,2.27-2.29,5,5,0,0,1-2.41-4.59,5.88,5.88,0,0,1,1.78-4.48,5.57,5.57,0,0,1,3.94-1.5h4.9v2.68h-4.42a3.18,3.18,0,0,0-2.62,1.15,3.39,3.39,0,0,0-.74,2.23,3,3,0,0,0,1,2.31,3.84,3.84,0,0,0,2.62.87l5.34,0v2.71l-5.11,0A4.78,4.78,0,0,0,755.8,245a3.85,3.85,0,0,0-1,2.69,3.71,3.71,0,0,0,1.64,3.16,5.37,5.37,0,0,0,3.31,1,7.37,7.37,0,0,0,4-1.12Z"/><path class="cls-3" d="M771.94,244.07h-2.85l-.06-19h2.85Z"/><path class="cls-3" d="M780.7,244l-5.79,0v-2.74H780c1.75,0,2.62-.75,2.62-2.24a5.13,5.13,0,0,0-.92-2.76,9.19,9.19,0,0,0-2.49-2.53l1.65-2.2a11.8,11.8,0,0,1,3.4,3.52,7.69,7.69,0,0,1,1.15,3.62,2.44,2.44,0,0,0,1,2,3.28,3.28,0,0,0,2,.56h.66V244h-.91a5.11,5.11,0,0,1-3.77-1.39A4.54,4.54,0,0,1,780.7,244Z"/><path class="cls-3" d="M788.48,244v-2.74h.65q3,0,3-3.58v-5.84h2.82l0,6.36a5.1,5.1,0,0,1-5.54,5.8Zm3.3,5.38a1.64,1.64,0,0,1-1.16-.48,1.56,1.56,0,0,1,0-2.29,1.65,1.65,0,0,1,1.15-.49,1.61,1.61,0,0,1,1.16.49,1.54,1.54,0,0,1,.5,1.14,1.57,1.57,0,0,1-.5,1.14A1.61,1.61,0,0,1,791.78,249.4Z"/><path class="cls-3" d="M807.28,244l-9.07,0v-2.74h4.19l0-12.1h2.83l0,12.1h1.68a3.07,3.07,0,0,0,2.35-.73,4.08,4.08,0,0,0,.63-2.64l0-12.89h2.85l0,13.69a5.05,5.05,0,0,1-1.62,4.14A5.78,5.78,0,0,1,807.28,244Zm-1,6.85h-5v-1.28h1.08a1.92,1.92,0,0,1-.26-1,1.81,1.81,0,0,1,.6-1.39,2.08,2.08,0,0,1,1.48-.56,2.18,2.18,0,0,1,1.6.65l-.49.89a1.52,1.52,0,0,0-1-.31c-.64,0-1,.26-1,.8a1.4,1.4,0,0,0,.37.88h2.54Z"/><path class="cls-3" d="M820.4,243.92h-2.86l0-19h2.85Z"/><path class="cls-3" d="M837,243.12v.4a6.14,6.14,0,0,1-1.64,4.51,4.84,4.84,0,0,1-3.47,1.3,8.53,8.53,0,0,1-3.83-1l.74-2.23a5.57,5.57,0,0,0,2.48.68,2.64,2.64,0,0,0,2.25-1,4.08,4.08,0,0,0,.73-2.6l0-11.44h2.82l0,5.84c0,2.38,1,3.56,3,3.56h.68v2.74h-.91A5.21,5.21,0,0,1,837,243.12Z"/><path class="cls-3" d="M841.1,243.85h-.91v-2.73h.66c2,0,3-1.19,3-3.57l0-5.85h2.82l0,6.36a5.1,5.1,0,0,1-5.54,5.81Zm3.77-16.09a1.59,1.59,0,0,1-.48,1.14,1.64,1.64,0,0,1-1.17.49,1.58,1.58,0,0,1-1.15-.49,1.51,1.51,0,0,1-.51-1.13,1.58,1.58,0,0,1,.5-1.15,1.67,1.67,0,0,1,1.15-.49,1.56,1.56,0,0,1,1.17.49A1.53,1.53,0,0,1,844.87,227.76Zm1.76-3.23a1.42,1.42,0,0,1-.45,1,1.47,1.47,0,0,1-1.06.44,1.49,1.49,0,0,1-1.08-2.53,1.49,1.49,0,0,1,1.07-.43,1.43,1.43,0,0,1,1.07.44A1.4,1.4,0,0,1,846.63,224.53Zm2,3.21a1.58,1.58,0,0,1-.5,1.15,1.61,1.61,0,0,1-1.15.48,1.58,1.58,0,0,1-1.16-.48,1.54,1.54,0,0,1-.5-1.14,1.56,1.56,0,0,1,.49-1.14,1.62,1.62,0,0,1,2.31,0A1.58,1.58,0,0,1,848.67,227.74Z"/><path class="cls-3" d="M855.41,224.39h-5.19V223h1.08a2.34,2.34,0,0,1-.29-1,1.88,1.88,0,0,1,.61-1.45,2.36,2.36,0,0,1,3.24.13l-.48,1a1.63,1.63,0,0,0-1-.34c-.59,0-.88.28-.88.83a1.44,1.44,0,0,0,.34.88h2.57Zm-1.11,19.42h-2.85l-.05-17.48h2.85Z"/><path class="cls-2" d="M717.46,305.67l-19.05.06q-8.05,0-12.34-5a14.08,14.08,0,0,1-3.23-9.38,13.69,13.69,0,0,1,8.49-12.82l2.94,4.45a9.63,9.63,0,0,0-3.95,3.35A8.22,8.22,0,0,0,688.9,291a7.92,7.92,0,0,0,2.75,6.12,9.56,9.56,0,0,0,6.54,2.25l18-.06c3,0,5.1-.81,6.39-2.42,1.06-1.33,1.58-3.31,1.58-5.93l0-13.66,6.6,0,0,14.86Q730.78,305.63,717.46,305.67Zm-10-31.74a3.64,3.64,0,0,1-1.16,2.67,3.82,3.82,0,0,1-2.7,1.14,3.75,3.75,0,0,1-2.7-1.13,3.63,3.63,0,0,1,0-5.33,3.77,3.77,0,0,1,5.39,0A3.62,3.62,0,0,1,707.44,273.93Zm8.86,0a3.65,3.65,0,0,1-1.13,2.67,3.81,3.81,0,0,1-5.43,0,3.56,3.56,0,0,1-1.17-2.66,3.6,3.6,0,0,1,1.16-2.67,3.86,3.86,0,0,1,5.43-.05A3.67,3.67,0,0,1,716.3,273.9Z"/><path class="cls-2" d="M748.64,305.58l-6.66,0-.14-44.37,6.66,0Z"/><path class="cls-2" d="M771.68,303.77v.93q-.12,6.93-3.83,10.54a11.31,11.31,0,0,1-8.12,3A19.76,19.76,0,0,1,750.8,316l1.72-5.2a13.08,13.08,0,0,0,5.8,1.58,6.2,6.2,0,0,0,5.26-2.41,9.57,9.57,0,0,0,1.71-6.07l-.08-26.72,6.59,0,0,13.66q0,8.33,7,8.3h1.6l0,6.4h-2.13A12.07,12.07,0,0,1,771.68,303.77Z"/><path class="cls-2" d="M788.94,305.45l-9.86,0v-6.4l9.85,0Z"/><path class="cls-2" d="M789.74,305.45h-2.13l0-6.39h1.53q7,0,7-8.35l0-13.65,6.59,0,.05,13.65q0,8.32,7,8.31h1.6l0,6.4H809.2q-6.54,0-9.74-4.17Q796.27,305.42,789.74,305.45Zm9.08-37.61a3.59,3.59,0,0,1-1.16,2.67,3.72,3.72,0,0,1-2.69,1.14,3.76,3.76,0,0,1-2.71-1.12,3.63,3.63,0,0,1,0-5.33,3.72,3.72,0,0,1,2.69-1.14,3.78,3.78,0,0,1,2.7,1.12A3.6,3.6,0,0,1,798.82,267.84Zm4.11-7.54a3.28,3.28,0,0,1-1.06,2.44,3.5,3.5,0,0,1-5,0,3.34,3.34,0,0,1-1-2.43,3.28,3.28,0,0,1,1-2.46,3.57,3.57,0,0,1,5,0A3.34,3.34,0,0,1,802.93,260.3Zm4.75,7.52a3.56,3.56,0,0,1-1.16,2.66,3.78,3.78,0,0,1-5.39,0,3.62,3.62,0,0,1,0-5.33A3.72,3.72,0,0,1,803.8,264a3.78,3.78,0,0,1,2.7,1.12A3.61,3.61,0,0,1,807.68,267.82Z"/><path class="cls-2" d="M819.85,305.35l-9.85,0,0-6.39,9.85,0Z"/><path class="cls-2" d="M820.45,305.35h-1.93l0-6.4h1.33q7,0,7-8.35L826.71,261l6.6,0,.09,30.85q0,7.18-4,10.67C827.22,304.37,824.23,305.34,820.45,305.35Z"/><path class="cls-2" d="M851.3,305.25l-6.66,0-.14-44.36,6.66,0Z"/><path class="cls-3" d="M0,234.29H3.36v11.18a2.6,2.6,0,0,0,.56,1.92,3,3,0,0,0,2,.53H9.22v3.14H5a5.32,5.32,0,0,1-3.78-1.17A4.93,4.93,0,0,1,0,246.17Z"/><path class="cls-3" d="M11.4,232.75h3.17l-.36,5.93H11.76Z"/><path class="cls-3" d="M17.62,237.67h3.21v13.39H17.62Zm0-4.92h3.1v2.93h-3.1Z"/><path class="cls-3" d="M24.14,237.67h2.6l.45,1.44a4.07,4.07,0,0,1,3.51-1.65,3.44,3.44,0,0,1,3.38,2,4.88,4.88,0,0,1,4.27-2,4.91,4.91,0,0,1,3.89,1.35,5.9,5.9,0,0,1,1.18,3.95v8.3H40.2v-7.92a3.6,3.6,0,0,0-.58-2.29,2.21,2.21,0,0,0-1.82-.71,2.25,2.25,0,0,0-1.82.71,3.53,3.53,0,0,0-.6,2.29v7.92H32.16v-7.92a3.6,3.6,0,0,0-.58-2.29,2.18,2.18,0,0,0-1.8-.71,2.27,2.27,0,0,0-1.86.72,3.7,3.7,0,0,0-.59,2.33v7.87H24.14Z"/><path class="cls-3" d="M46.54,237.67h2.59l.48,1.49a4.4,4.4,0,0,1,3.74-1.7,4.73,4.73,0,0,1,3.82,1.34,6.05,6.05,0,0,1,1.12,4V246a6.11,6.11,0,0,1-1.11,4,4.76,4.76,0,0,1-3.83,1.34,4.5,4.5,0,0,1-3.62-1.51V256H46.54ZM49.66,243v2.71a2.92,2.92,0,0,0,.73,2.14,2.68,2.68,0,0,0,2,.74,2.8,2.8,0,0,0,2.09-.65,3,3,0,0,0,.62-2.13V243a3.1,3.1,0,0,0-.62-2.15,2.8,2.8,0,0,0-2.09-.66,2.68,2.68,0,0,0-2,.74A2.84,2.84,0,0,0,49.66,243Z"/><path class="cls-3" d="M64.34,241.82H61.13q0-4.37,5.49-4.36,5.23,0,5.24,4.51v9.09H69.33l-.57-1.68a4.46,4.46,0,0,1-3.89,1.9,4.08,4.08,0,0,1-3.05-1,3.67,3.67,0,0,1-1-2.65,3.36,3.36,0,0,1,1.06-2.7,7.81,7.81,0,0,1,2.9-1.5l3.84-1.23v-.62a1.38,1.38,0,0,0-.47-1.14,2.64,2.64,0,0,0-1.62-.37C65.08,240.05,64.34,240.64,64.34,241.82Zm4.37,2.76-2.95,1c-1.12.37-1.68,1-1.68,1.75,0,1,.54,1.51,1.61,1.51a3.15,3.15,0,0,0,2.07-.8,2.52,2.52,0,0,0,.95-2Z"/><path class="cls-3" d="M86.11,242.88H83v-.7a2.06,2.06,0,0,0-.52-1.56,3.51,3.51,0,0,0-3.82.18,3.39,3.39,0,0,0-.56,2.18v2.8a3.32,3.32,0,0,0,.55,2.15,2.54,2.54,0,0,0,2,.66,2.65,2.65,0,0,0,1.81-.48,2.06,2.06,0,0,0,.52-1.56v-.69h3.14v.69q0,4.72-5.61,4.73a5.91,5.91,0,0,1-4.27-1.34,5.55,5.55,0,0,1-1.35-4.08v-3a5.59,5.59,0,0,1,1.35-4.09,5.9,5.9,0,0,1,4.29-1.35q5.6,0,5.59,4.72Z"/><path class="cls-3" d="M87.6,240.38v-2.13l2-.58.57-2.9h2.5v2.9h2.88v2.71H92.71V246a2.12,2.12,0,0,0,.64,1.8,3.85,3.85,0,0,0,2.24.48v3c-2.29,0-3.87-.4-4.75-1.2s-1.32-2.17-1.32-4.1v-5.6Z"/><path class="cls-3" d="M110.59,232.75h3.22v18.31h-2.62l-.48-1.46a4.38,4.38,0,0,1-3.72,1.68c-1.81,0-3.08-.44-3.83-1.33a6.08,6.08,0,0,1-1.11-4v-3.22a6.11,6.11,0,0,1,1.11-4c.75-.9,2-1.34,3.83-1.34a4.45,4.45,0,0,1,3.6,1.53ZM105.24,243v2.83a3,3,0,0,0,.64,2.15,2.76,2.76,0,0,0,2.07.66,2.65,2.65,0,0,0,2-.73,2.88,2.88,0,0,0,.72-2.1V243a2.9,2.9,0,0,0-.73-2.13,2.65,2.65,0,0,0-2-.75,2.76,2.76,0,0,0-2.07.66A3,3,0,0,0,105.24,243Z"/><path class="cls-3" d="M127.92,245.28H120V246a3.81,3.81,0,0,0,.44,2.15,2.2,2.2,0,0,0,1.84.59,2.56,2.56,0,0,0,1.67-.39,2.32,2.32,0,0,0,.57-1.41h3.21a4.17,4.17,0,0,1-1.32,3.37,6.62,6.62,0,0,1-4.13,1,5.67,5.67,0,0,1-4.18-1.3,5.49,5.49,0,0,1-1.29-4v-3.14a5.52,5.52,0,0,1,1.31-4,5.77,5.77,0,0,1,4.24-1.32,5.94,5.94,0,0,1,4.21,1.27,5.11,5.11,0,0,1,1.33,3.84ZM120,243h4.68v-.68a2.34,2.34,0,0,0-.53-1.71,2.44,2.44,0,0,0-1.79-.54,2.5,2.5,0,0,0-1.83.54,2.38,2.38,0,0,0-.53,1.71Z"/><path class="cls-3" d="M135.12,232.75h3.21v18.31h-3.21Z"/><path class="cls-3" d="M144.67,241.82h-3.22c0-2.91,1.84-4.36,5.5-4.36q5.24,0,5.23,4.51v9.09h-2.52l-.57-1.68a4.48,4.48,0,0,1-3.89,1.9,4.07,4.07,0,0,1-3-1,3.63,3.63,0,0,1-1-2.65,3.39,3.39,0,0,1,1.05-2.7,7.87,7.87,0,0,1,2.91-1.5l3.84-1.23v-.62a1.38,1.38,0,0,0-.47-1.14,2.64,2.64,0,0,0-1.62-.37C145.41,240.05,144.67,240.64,144.67,241.82Zm4.37,2.76-2.95,1c-1.12.37-1.68,1-1.68,1.75,0,1,.53,1.51,1.6,1.51a3.16,3.16,0,0,0,2.08-.8,2.52,2.52,0,0,0,.95-2Z"/><path class="cls-3" d="M170.78,242.88h-3.14v-.7a2,2,0,0,0-.52-1.56,2.61,2.61,0,0,0-1.79-.48,2.55,2.55,0,0,0-2,.66,3.33,3.33,0,0,0-.57,2.18v2.8a3.38,3.38,0,0,0,.55,2.15,2.54,2.54,0,0,0,2,.66,2.65,2.65,0,0,0,1.81-.48,2,2,0,0,0,.52-1.56v-.69h3.14v.69q0,4.72-5.61,4.73a5.86,5.86,0,0,1-4.26-1.34,5.51,5.51,0,0,1-1.36-4.08v-3a5.55,5.55,0,0,1,1.36-4.09,5.86,5.86,0,0,1,4.28-1.35q5.59,0,5.59,4.72Z"/><path class="cls-3" d="M173.52,237.67h2.59l.48,1.92a3.94,3.94,0,0,1,1.66-1.53,5.1,5.1,0,0,1,2.44-.6v3.09a4.81,4.81,0,0,0-3,.76,2.83,2.83,0,0,0-.94,2.36v7.39h-3.19Z"/><path class="cls-3" d="M193.34,245.28h-7.9V246a3.81,3.81,0,0,0,.44,2.15,2.22,2.22,0,0,0,1.84.59,2.54,2.54,0,0,0,1.67-.39,2.32,2.32,0,0,0,.57-1.41h3.21a4.17,4.17,0,0,1-1.32,3.37,6.62,6.62,0,0,1-4.13,1,5.67,5.67,0,0,1-4.18-1.3,5.49,5.49,0,0,1-1.29-4v-3.14a5.52,5.52,0,0,1,1.31-4,5.77,5.77,0,0,1,4.24-1.32,5.92,5.92,0,0,1,4.21,1.27,5.07,5.07,0,0,1,1.33,3.84Zm-7.9-2.3h4.68v-.68a2.38,2.38,0,0,0-.52-1.71,2.47,2.47,0,0,0-1.8-.54,2.5,2.5,0,0,0-1.83.54,2.38,2.38,0,0,0-.53,1.71Zm5.84-10.2-1.83,2.92h-3l1.27-2.92Z"/><path class="cls-3" d="M199.22,241.82H196c0-2.91,1.84-4.36,5.5-4.36q5.24,0,5.23,4.51v9.09h-2.52l-.57-1.68a4.48,4.48,0,0,1-3.89,1.9,4.07,4.07,0,0,1-3.05-1,3.63,3.63,0,0,1-1-2.65,3.39,3.39,0,0,1,1.05-2.7,7.87,7.87,0,0,1,2.91-1.5l3.84-1.23v-.62a1.38,1.38,0,0,0-.47-1.14,2.64,2.64,0,0,0-1.62-.37C200,240.05,199.22,240.64,199.22,241.82Zm4.37,2.76-3,1c-1.12.37-1.68,1-1.68,1.75,0,1,.53,1.51,1.61,1.51a3.15,3.15,0,0,0,2.07-.8,2.52,2.52,0,0,0,1-2Z"/><path class="cls-3" d="M208.8,240.38v-2.13l2-.58.57-2.9h2.5v2.9h2.88v2.71h-2.88V246a2.15,2.15,0,0,0,.63,1.8,3.91,3.91,0,0,0,2.25.48v3c-2.29,0-3.87-.4-4.75-1.2s-1.32-2.17-1.32-4.1v-5.6Z"/><path class="cls-3" d="M219.19,237.67h3.22v13.39h-3.22Zm.05-4.92h3.09v2.93h-3.09Z"/><path class="cls-3" d="M224.4,237.67h3.33l3.05,10.25c.08.21.19.31.34.31s.27-.1.33-.31l3.05-10.25h3.34l-3.46,11.07a3.37,3.37,0,0,1-6.53,0Z"/><path class="cls-3" d="M239.83,237.67H243v13.39h-3.21Zm0-4.92H243v2.93h-3.09Z"/><path class="cls-3" d="M245.11,240.38v-2.13l2-.58.57-2.9h2.5v2.9h2.88v2.71h-2.88V246a2.12,2.12,0,0,0,.64,1.8,3.85,3.85,0,0,0,2.24.48v3c-2.29,0-3.87-.4-4.75-1.2S247,247.91,247,246v-5.6Z"/><path class="cls-3" d="M266.3,245.28h-7.9V246a3.81,3.81,0,0,0,.44,2.15,2.2,2.2,0,0,0,1.84.59,2.54,2.54,0,0,0,1.67-.39,2.32,2.32,0,0,0,.57-1.41h3.21a4.17,4.17,0,0,1-1.32,3.37,6.62,6.62,0,0,1-4.13,1,5.67,5.67,0,0,1-4.18-1.3,5.49,5.49,0,0,1-1.29-4v-3.14a5.52,5.52,0,0,1,1.31-4,5.77,5.77,0,0,1,4.24-1.32,5.92,5.92,0,0,1,4.21,1.27,5.07,5.07,0,0,1,1.33,3.84Zm-7.9-2.3h4.68v-.68a2.38,2.38,0,0,0-.52-1.71,3.32,3.32,0,0,0-3.63,0,2.38,2.38,0,0,0-.53,1.71Zm5.84-10.2-1.83,2.92h-3l1.27-2.92Z"/><path class="cls-3" d="M279.09,241.9v-.34a1.53,1.53,0,0,0-.37-1.15,1.7,1.7,0,0,0-1.21-.36q-1.47,0-1.47,1.17a1,1,0,0,0,.3.74,3.68,3.68,0,0,0,1.05.58l2.09.87a5.76,5.76,0,0,1,2.18,1.5,3.53,3.53,0,0,1,.77,2.36,3.59,3.59,0,0,1-1.31,2.94,5.53,5.53,0,0,1-3.59,1.07,5.18,5.18,0,0,1-3.63-1,4.1,4.1,0,0,1-1.1-3.12v-.67h3v.67c0,1,.58,1.56,1.75,1.56a2,2,0,0,0,1.23-.37,1.29,1.29,0,0,0,.45-1,1.27,1.27,0,0,0-.31-.91,3.18,3.18,0,0,0-1.06-.65l-2.4-1a3.69,3.69,0,0,1-2.59-3.51,3.37,3.37,0,0,1,1.2-2.8,5.42,5.42,0,0,1,3.46-1,4.9,4.9,0,0,1,3.5,1,4.08,4.08,0,0,1,1.08,3.05v.34Z"/><path class="cls-3" d="M285,237.67h3.22v8.11a3.25,3.25,0,0,0,.57,2.16,2.59,2.59,0,0,0,2,.65c1.7,0,2.54-1,2.54-3v-7.9h3.22v13.39H294l-.51-1.48a4,4,0,0,1-3.57,1.7c-1.79,0-3.06-.44-3.79-1.33a6.08,6.08,0,0,1-1.11-4Z"/><path class="cls-3" d="M299.85,237.67h2.59l.48,1.92a4.06,4.06,0,0,1,1.66-1.53,5.13,5.13,0,0,1,2.45-.6v3.09a4.82,4.82,0,0,0-3,.76,2.86,2.86,0,0,0-.94,2.36v7.39h-3.19Z"/><path class="cls-2" d="M1.93,265.22h7v39.66h-7Z"/><path class="cls-2" d="M39.46,292.35H22.36v1.46q0,3.38.93,4.65c.63.85,2,1.27,4,1.27,1.8,0,3-.28,3.62-.83a5.13,5.13,0,0,0,1.22-3.07h7c-.07,3.4-1,5.83-2.86,7.31s-4.81,2.21-8.94,2.21-7.21-.94-9.07-2.81-2.78-4.78-2.78-8.73V287q0-5.88,2.84-8.73t9.17-2.86q6.24,0,9.12,2.75c1.92,1.84,2.89,4.61,2.89,8.32Zm-17.1-5H32.49v-1.45a5.18,5.18,0,0,0-1.14-3.72,5.33,5.33,0,0,0-3.9-1.17c-1.87,0-3.19.39-3.95,1.17a5.18,5.18,0,0,0-1.14,3.72Z"/><path class="cls-2" d="M55.05,268.55H67.52q6.08,0,9.3,3.43t3.23,9.51v1.77q0,6.28-3.17,9.66t-9.36,3.38h-5.2v8.58H55.05Zm7.27,21.1h3.9q3.44,0,5-1.61a6.72,6.72,0,0,0,1.56-4.84v-1.71a6.44,6.44,0,0,0-1.56-4.73q-1.56-1.56-5-1.56h-3.9Z"/><path class="cls-2" d="M91.79,284.87h-7q0-9.47,11.9-9.46,11.33,0,11.33,9.77v19.7H102.6l-1.25-3.64a9.67,9.67,0,0,1-8.42,4.11q-4.47,0-6.6-2.21a8,8,0,0,1-2.13-5.75,7.32,7.32,0,0,1,2.29-5.84,17.1,17.1,0,0,1,6.29-3.25l8.31-2.65V284.3a2.94,2.94,0,0,0-1-2.47,5.73,5.73,0,0,0-3.51-.81Q91.79,281,91.79,284.87Zm9.46,6L94.86,293c-2.43.79-3.64,2.06-3.64,3.79q0,3.27,3.48,3.27a6.82,6.82,0,0,0,4.5-1.74,5.4,5.4,0,0,0,2-4.29Z"/><path class="cls-2" d="M112.53,281.75v-4.63l4.42-1.24,1.24-6.29h5.41v6.29h6.24v5.87H123.6v12.16q0,2.86,1.38,3.9c.91.69,2.53,1,4.86,1v6.5q-7.44,0-10.29-2.6t-2.86-8.89V281.75Z"/><path class="cls-2" d="M135,275.88h5.62l1,4.15a8.52,8.52,0,0,1,3.58-3.32,11.09,11.09,0,0,1,5.3-1.3v6.7q-4.57,0-6.6,1.64t-2,5.12v16H135Z"/><path class="cls-2" d="M154.58,275.88h7v29h-7Zm.1-10.66h6.7v6.34h-6.7Z"/><path class="cls-2" d="M168.71,275.88h5.61l1,3.11a8.78,8.78,0,0,1,7.59-3.58q5.25,0,7.33,4.31,3.06-4.31,9.25-4.31,5.86,0,8.42,2.93t2.55,8.55v18h-7V287.73c0-2.29-.41-4-1.25-5a4.79,4.79,0,0,0-3.95-1.53,4.91,4.91,0,0,0-3.95,1.53q-1.29,1.53-1.29,5v17.15h-7V287.73q0-3.44-1.25-5a4.73,4.73,0,0,0-3.9-1.53,4.89,4.89,0,0,0-4,1.56q-1.28,1.56-1.28,5v17.05h-6.91Z"/><path class="cls-2" d="M216.58,293.81V287q0-11.6,12.73-11.59T242.05,287v6.81q0,11.54-12.74,11.54T216.58,293.81Zm6.91-6.4v6q0,3.23,1.33,4.68c.88,1,2.38,1.45,4.49,1.45s3.56-.48,4.45-1.45,1.32-2.53,1.32-4.68v-6q0-3.27-1.32-4.73c-.89-1-2.37-1.45-4.45-1.45s-3.57.48-4.47,1.45S223.49,285.23,223.49,287.41Z"/><path class="cls-2" d="M248.54,275.88h7v29h-7Zm.11-10.66h6.7v6.34h-6.7Z"/><path class="cls-2" d="M262.68,275.88h5.61l1.09,3.37a9.31,9.31,0,0,1,8.06-3.84c3.88,0,6.64,1,8.26,2.91s2.45,4.8,2.45,8.57v18h-7V287.31q0-3.22-1.35-4.65c-.9-1-2.41-1.43-4.52-1.43a5.33,5.33,0,0,0-4.24,1.69,7.26,7.26,0,0,0-1.48,4.91v17.05h-6.91Z"/><path class="cls-2" d="M318.29,292.35h-17.1v1.46c0,2.25.31,3.8.94,4.65s1.95,1.27,4,1.27c1.8,0,3-.28,3.61-.83a5,5,0,0,0,1.22-3.07h7c-.07,3.4-1,5.83-2.86,7.31s-4.82,2.21-8.94,2.21-7.22-.94-9.07-2.81-2.78-4.78-2.78-8.73V287q0-5.88,2.83-8.73t9.18-2.86q6.22,0,9.12,2.75t2.88,8.32Zm-17.1-5h10.14v-1.45a5.13,5.13,0,0,0-1.15-3.72,5.31,5.31,0,0,0-3.89-1.17c-1.87,0-3.19.39-4,1.17a5.13,5.13,0,0,0-1.15,3.72Z"/></g></g></svg>