<svg xmlns="http://www.w3.org/2000/svg" viewBox="0 0 1170.34 319.09"><defs><style>.cls-1{fill:#fff;}.cls-2{fill:#a8ca59;}.cls-3{fill:none;stroke:#a8ca59;stroke-miterlimit:10;stroke-width:4px;}</style></defs><g id="Layer_2" data-name="Layer 2"><g id="Calque_1" data-name="Calque 1"><path class="cls-1" d="M0,234.29H3.36v11.18a2.6,2.6,0,0,0,.56,1.92,3,3,0,0,0,2,.53H9.22v3.14H5a5.32,5.32,0,0,1-3.78-1.17A4.93,4.93,0,0,1,0,246.17Z"/><path class="cls-1" d="M11.4,232.75h3.17l-.36,5.93H11.76Z"/><path class="cls-1" d="M17.62,237.67h3.21v13.39H17.62Zm0-4.92h3.1v2.93h-3.1Z"/><path class="cls-1" d="M24.14,237.67h2.6l.45,1.44a4.07,4.07,0,0,1,3.51-1.65,3.44,3.44,0,0,1,3.38,2,4.88,4.88,0,0,1,4.27-2,4.91,4.91,0,0,1,3.89,1.35,5.9,5.9,0,0,1,1.18,3.95v8.3H40.2v-7.92a3.6,3.6,0,0,0-.58-2.29,2.21,2.21,0,0,0-1.82-.71,2.25,2.25,0,0,0-1.82.71,3.53,3.53,0,0,0-.6,2.29v7.92H32.16v-7.92a3.6,3.6,0,0,0-.58-2.29,2.18,2.18,0,0,0-1.8-.71,2.27,2.27,0,0,0-1.86.72,3.7,3.7,0,0,0-.59,2.33v7.87H24.14Z"/><path class="cls-1" d="M46.54,237.67h2.59l.48,1.49a4.4,4.4,0,0,1,3.74-1.7,4.73,4.73,0,0,1,3.82,1.34,6.05,6.05,0,0,1,1.12,4V246a6.11,6.11,0,0,1-1.11,4,4.76,4.76,0,0,1-3.83,1.34,4.5,4.5,0,0,1-3.62-1.51V256H46.54ZM49.66,243v2.71a2.92,2.92,0,0,0,.73,2.14,2.68,2.68,0,0,0,2,.74,2.8,2.8,0,0,0,2.09-.65,3,3,0,0,0,.62-2.13V243a3.1,3.1,0,0,0-.62-2.15,2.8,2.8,0,0,0-2.09-.66,2.68,2.68,0,0,0-2,.74A2.84,2.84,0,0,0,49.66,243Z"/><path class="cls-1" d="M64.34,241.82H61.13q0-4.37,5.49-4.36,5.23,0,5.24,4.51v9.09H69.33l-.57-1.68a4.46,4.46,0,0,1-3.89,1.9,4.08,4.08,0,0,1-3.05-1,3.67,3.67,0,0,1-1-2.65,3.36,3.36,0,0,1,1.06-2.7,7.81,7.81,0,0,1,2.9-1.5l3.84-1.23v-.62a1.38,1.38,0,0,0-.47-1.14,2.64,2.64,0,0,0-1.62-.37C65.08,240.05,64.34,240.64,64.34,241.82Zm4.37,2.76-2.95,1c-1.12.37-1.68,1-1.68,1.75,0,1,.54,1.51,1.61,1.51a3.15,3.15,0,0,0,2.07-.8,2.52,2.52,0,0,0,.95-2Z"/><path class="cls-1" d="M86.11,242.88H83v-.7a2.06,2.06,0,0,0-.52-1.56,3.51,3.51,0,0,0-3.82.18,3.39,3.39,0,0,0-.56,2.18v2.8a3.32,3.32,0,0,0,.55,2.15,2.54,2.54,0,0,0,2,.66,2.65,2.65,0,0,0,1.81-.48,2.06,2.06,0,0,0,.52-1.56v-.69h3.14v.69q0,4.72-5.61,4.73a5.91,5.91,0,0,1-4.27-1.34,5.55,5.55,0,0,1-1.35-4.08v-3a5.59,5.59,0,0,1,1.35-4.09,5.9,5.9,0,0,1,4.29-1.35q5.6,0,5.59,4.72Z"/><path class="cls-1" d="M87.6,240.38v-2.13l2-.58.57-2.9h2.5v2.9h2.88v2.71H92.71V246a2.12,2.12,0,0,0,.64,1.8,3.85,3.85,0,0,0,2.24.48v3c-2.29,0-3.87-.4-4.75-1.2s-1.32-2.17-1.32-4.1v-5.6Z"/><path class="cls-1" d="M110.59,232.75h3.22v18.31h-2.62l-.48-1.46a4.38,4.38,0,0,1-3.72,1.68c-1.81,0-3.08-.44-3.83-1.33a6.08,6.08,0,0,1-1.11-4v-3.22a6.11,6.11,0,0,1,1.11-4c.75-.9,2-1.34,3.83-1.34a4.45,4.45,0,0,1,3.6,1.53ZM105.24,243v2.83a3,3,0,0,0,.64,2.15,2.76,2.76,0,0,0,2.07.66,2.65,2.65,0,0,0,2-.73,2.88,2.88,0,0,0,.72-2.1V243a2.9,2.9,0,0,0-.73-2.13,2.65,2.65,0,0,0-2-.75,2.76,2.76,0,0,0-2.07.66A3,3,0,0,0,105.24,243Z"/><path class="cls-1" d="M127.92,245.28H120V246a3.81,3.81,0,0,0,.44,2.15,2.2,2.2,0,0,0,1.84.59,2.56,2.56,0,0,0,1.67-.39,2.32,2.32,0,0,0,.57-1.41h3.21a4.17,4.17,0,0,1-1.32,3.37,6.62,6.62,0,0,1-4.13,1,5.67,5.67,0,0,1-4.18-1.3,5.49,5.49,0,0,1-1.29-4v-3.14a5.52,5.52,0,0,1,1.31-4,5.77,5.77,0,0,1,4.24-1.32,5.94,5.94,0,0,1,4.21,1.27,5.11,5.11,0,0,1,1.33,3.84ZM120,243h4.68v-.68a2.34,2.34,0,0,0-.53-1.71,2.44,2.44,0,0,0-1.79-.54,2.5,2.5,0,0,0-1.83.54,2.38,2.38,0,0,0-.53,1.71Z"/><path class="cls-1" d="M135.12,232.75h3.21v18.31h-3.21Z"/><path class="cls-1" d="M144.67,241.82h-3.22c0-2.91,1.84-4.36,5.5-4.36q5.24,0,5.23,4.51v9.09h-2.52l-.57-1.68a4.48,4.48,0,0,1-3.89,1.9,4.07,4.07,0,0,1-3-1,3.63,3.63,0,0,1-1-2.65,3.39,3.39,0,0,1,1.05-2.7,7.87,7.87,0,0,1,2.91-1.5l3.84-1.23v-.62a1.38,1.38,0,0,0-.47-1.14,2.64,2.64,0,0,0-1.62-.37C145.41,240.05,144.67,240.64,144.67,241.82Zm4.37,2.76-2.95,1c-1.12.37-1.68,1-1.68,1.75,0,1,.53,1.51,1.6,1.51a3.16,3.16,0,0,0,2.08-.8,2.52,2.52,0,0,0,.95-2Z"/><path class="cls-1" d="M170.78,242.88h-3.14v-.7a2,2,0,0,0-.52-1.56,2.61,2.61,0,0,0-1.79-.48,2.55,2.55,0,0,0-2,.66,3.33,3.33,0,0,0-.57,2.18v2.8a3.38,3.38,0,0,0,.55,2.15,2.54,2.54,0,0,0,2,.66,2.65,2.65,0,0,0,1.81-.48,2,2,0,0,0,.52-1.56v-.69h3.14v.69q0,4.72-5.61,4.73a5.86,5.86,0,0,1-4.26-1.34,5.51,5.51,0,0,1-1.36-4.08v-3a5.55,5.55,0,0,1,1.36-4.09,5.86,5.86,0,0,1,4.28-1.35q5.59,0,5.59,4.72Z"/><path class="cls-1" d="M173.52,237.67h2.59l.48,1.92a3.94,3.94,0,0,1,1.66-1.53,5.1,5.1,0,0,1,2.44-.6v3.09a4.81,4.81,0,0,0-3,.76,2.83,2.83,0,0,0-.94,2.36v7.39h-3.19Z"/><path class="cls-1" d="M193.34,245.28h-7.9V246a3.81,3.81,0,0,0,.44,2.15,2.22,2.22,0,0,0,1.84.59,2.54,2.54,0,0,0,1.67-.39,2.32,2.32,0,0,0,.57-1.41h3.21a4.17,4.17,0,0,1-1.32,3.37,6.62,6.62,0,0,1-4.13,1,5.67,5.67,0,0,1-4.18-1.3,5.49,5.49,0,0,1-1.29-4v-3.14a5.52,5.52,0,0,1,1.31-4,5.77,5.77,0,0,1,4.24-1.32,5.92,5.92,0,0,1,4.21,1.27,5.07,5.07,0,0,1,1.33,3.84Zm-7.9-2.3h4.68v-.68a2.38,2.38,0,0,0-.52-1.71,2.47,2.47,0,0,0-1.8-.54,2.5,2.5,0,0,0-1.83.54,2.38,2.38,0,0,0-.53,1.71Zm5.84-10.2-1.83,2.92h-3l1.27-2.92Z"/><path class="cls-1" d="M199.22,241.82H196c0-2.91,1.84-4.36,5.5-4.36q5.24,0,5.23,4.51v9.09h-2.52l-.57-1.68a4.48,4.48,0,0,1-3.89,1.9,4.07,4.07,0,0,1-3.05-1,3.63,3.63,0,0,1-1-2.65,3.39,3.39,0,0,1,1.05-2.7,7.87,7.87,0,0,1,2.91-1.5l3.84-1.23v-.62a1.38,1.38,0,0,0-.47-1.14,2.64,2.64,0,0,0-1.62-.37C200,240.05,199.22,240.64,199.22,241.82Zm4.37,2.76-3,1c-1.12.37-1.68,1-1.68,1.75,0,1,.53,1.51,1.61,1.51a3.15,3.15,0,0,0,2.07-.8,2.52,2.52,0,0,0,1-2Z"/><path class="cls-1" d="M208.8,240.38v-2.13l2-.58.57-2.9h2.5v2.9h2.88v2.71h-2.88V246a2.15,2.15,0,0,0,.63,1.8,3.91,3.91,0,0,0,2.25.48v3c-2.29,0-3.87-.4-4.75-1.2s-1.32-2.17-1.32-4.1v-5.6Z"/><path class="cls-1" d="M219.19,237.67h3.22v13.39h-3.22Zm.05-4.92h3.09v2.93h-3.09Z"/><path class="cls-1" d="M224.4,237.67h3.33l3.05,10.25c.08.21.19.31.34.31s.27-.1.33-.31l3.05-10.25h3.34l-3.46,11.07a3.37,3.37,0,0,1-6.53,0Z"/><path class="cls-1" d="M239.83,237.67H243v13.39h-3.21Zm0-4.92H243v2.93h-3.09Z"/><path class="cls-1" d="M245.11,240.38v-2.13l2-.58.57-2.9h2.5v2.9h2.88v2.71h-2.88V246a2.12,2.12,0,0,0,.64,1.8,3.85,3.85,0,0,0,2.24.48v3c-2.29,0-3.87-.4-4.75-1.2S247,247.91,247,246v-5.6Z"/><path class="cls-1" d="M266.3,245.28h-7.9V246a3.81,3.81,0,0,0,.44,2.15,2.2,2.2,0,0,0,1.84.59,2.54,2.54,0,0,0,1.67-.39,2.32,2.32,0,0,0,.57-1.41h3.21a4.17,4.17,0,0,1-1.32,3.37,6.62,6.62,0,0,1-4.13,1,5.67,5.67,0,0,1-4.18-1.3,5.49,5.49,0,0,1-1.29-4v-3.14a5.52,5.52,0,0,1,1.31-4,5.77,5.77,0,0,1,4.24-1.32,5.92,5.92,0,0,1,4.21,1.27,5.07,5.07,0,0,1,1.33,3.84Zm-7.9-2.3h4.68v-.68a2.38,2.38,0,0,0-.52-1.71,3.32,3.32,0,0,0-3.63,0,2.38,2.38,0,0,0-.53,1.71Zm5.84-10.2-1.83,2.92h-3l1.27-2.92Z"/><path class="cls-1" d="M279.09,241.9v-.34a1.53,1.53,0,0,0-.37-1.15,1.7,1.7,0,0,0-1.21-.36q-1.47,0-1.47,1.17a1,1,0,0,0,.3.74,3.68,3.68,0,0,0,1.05.58l2.09.87a5.76,5.76,0,0,1,2.18,1.5,3.53,3.53,0,0,1,.77,2.36,3.59,3.59,0,0,1-1.31,2.94,5.53,5.53,0,0,1-3.59,1.07,5.18,5.18,0,0,1-3.63-1,4.1,4.1,0,0,1-1.1-3.12v-.67h3v.67c0,1,.58,1.56,1.75,1.56a2,2,0,0,0,1.23-.37,1.29,1.29,0,0,0,.45-1,1.27,1.27,0,0,0-.31-.91,3.18,3.18,0,0,0-1.06-.65l-2.4-1a3.69,3.69,0,0,1-2.59-3.51,3.37,3.37,0,0,1,1.2-2.8,5.42,5.42,0,0,1,3.46-1,4.9,4.9,0,0,1,3.5,1,4.08,4.08,0,0,1,1.08,3.05v.34Z"/><path class="cls-1" d="M285,237.67h3.22v8.11a3.25,3.25,0,0,0,.57,2.16,2.59,2.59,0,0,0,2,.65c1.7,0,2.54-1,2.54-3v-7.9h3.22v13.39H294l-.51-1.48a4,4,0,0,1-3.57,1.7c-1.79,0-3.06-.44-3.79-1.33a6.08,6.08,0,0,1-1.11-4Z"/><path class="cls-1" d="M299.85,237.67h2.59l.48,1.92a4.06,4.06,0,0,1,1.66-1.53,5.13,5.13,0,0,1,2.45-.6v3.09a4.82,4.82,0,0,0-3,.76,2.86,2.86,0,0,0-.94,2.36v7.39h-3.19Z"/><path class="cls-2" d="M1.93,265.22h7v39.66h-7Z"/><path class="cls-2" d="M15.5,265.22h6.86l-.78,12.84H16.27Z"/><path class="cls-2" d="M49.28,275.36H40.39a5.47,5.47,0,0,0-3.79,1.06A4.67,4.67,0,0,0,35.45,280v2.39H48.39V289H35.45v4.46A4.54,4.54,0,0,0,36.62,297a5.62,5.62,0,0,0,3.77,1h8.89v6.81H39.92c-3.64,0-6.5-1-8.6-3s-3.14-4.74-3.14-8.24V279.77c0-3.53,1.05-6.29,3.17-8.26a12.06,12.06,0,0,1,8.57-3h9.36Z"/><path class="cls-2" d="M54.89,275.88H60.5l1.09,3.37a9.31,9.31,0,0,1,8.06-3.84c3.88,0,6.64,1,8.26,2.91s2.45,4.8,2.45,8.57v18h-7V287.31q0-3.22-1.35-4.65c-.9-1-2.41-1.43-4.52-1.43a5.33,5.33,0,0,0-4.24,1.69,7.26,7.26,0,0,0-1.48,4.91v17.05H54.89Z"/><path class="cls-2" d="M84.25,275.88h7.23l6.6,22.19c.17.45.42.67.73.67s.59-.22.73-.67l6.6-22.19h7.22l-7.48,24q-1.56,5.51-7.07,5.51t-7.07-5.51Z"/><path class="cls-2" d="M117.67,275.88h7v29h-7Zm.11-10.66h6.7v6.34h-6.7Z"/><path class="cls-2" d="M131.81,275.88h5.61l1,4.15a8.61,8.61,0,0,1,3.59-3.32,11.09,11.09,0,0,1,5.3-1.3v6.7q-4.57,0-6.6,1.64a6.2,6.2,0,0,0-2,5.12v16h-6.91Z"/><path class="cls-2" d="M150.73,293.81V287q0-11.6,12.73-11.59T176.2,287v6.81q0,11.54-12.74,11.54T150.73,293.81Zm6.91-6.4v6q0,3.23,1.33,4.68c.88,1,2.38,1.45,4.49,1.45s3.56-.48,4.45-1.45,1.32-2.53,1.32-4.68v-6q0-3.27-1.32-4.73c-.89-1-2.37-1.45-4.45-1.45s-3.57.48-4.47,1.45S157.64,285.23,157.64,287.41Z"/><path class="cls-2" d="M182.69,275.88h5.62l1.09,3.37a9.28,9.28,0,0,1,8-3.84q5.82,0,8.27,2.91t2.44,8.57v18h-7V287.31q0-3.22-1.36-4.65c-.9-1-2.4-1.43-4.52-1.43a5.31,5.31,0,0,0-4.23,1.69,7.2,7.2,0,0,0-1.48,4.91v17.05h-6.92Z"/><path class="cls-2" d="M214.92,275.88h5.61l1.09,3.37a9.29,9.29,0,0,1,8.06-3.84q5.82,0,8.26,2.91t2.44,8.57v18h-7V287.31q0-3.22-1.35-4.65c-.9-1-2.41-1.43-4.52-1.43a5.33,5.33,0,0,0-4.24,1.69,7.2,7.2,0,0,0-1.48,4.91v17.05h-6.91Z"/><path class="cls-2" d="M270.53,292.35h-17.1v1.46q0,3.38.93,4.65c.63.85,2,1.27,4,1.27,1.8,0,3-.28,3.61-.83a5.13,5.13,0,0,0,1.22-3.07h7c-.07,3.4-1,5.83-2.85,7.31s-4.82,2.21-8.94,2.21-7.22-.94-9.07-2.81-2.78-4.78-2.78-8.73V287q0-5.88,2.83-8.73t9.17-2.86q6.24,0,9.12,2.75t2.89,8.32Zm-17.1-5h10.13v-1.45a5.18,5.18,0,0,0-1.14-3.72q-1.14-1.17-3.9-1.17c-1.87,0-3.19.39-3.95,1.17a5.18,5.18,0,0,0-1.14,3.72Z"/><path class="cls-2" d="M276.71,275.88h5.62l1,3.11a8.79,8.79,0,0,1,7.59-3.58q5.25,0,7.33,4.31,3.06-4.31,9.25-4.31c3.92,0,6.72,1,8.42,2.93s2.55,4.81,2.55,8.55v18h-7V287.73q0-3.44-1.24-5a4.82,4.82,0,0,0-3.95-1.53,4.92,4.92,0,0,0-4,1.53q-1.29,1.53-1.29,5v17.15h-7V287.73c0-2.29-.41-4-1.25-5a4.73,4.73,0,0,0-3.89-1.53,4.9,4.9,0,0,0-4,1.56q-1.27,1.56-1.28,5v17.05h-6.91Z"/><path class="cls-2" d="M348.59,292.35h-17.1v1.46c0,2.25.31,3.8.94,4.65s2,1.27,4,1.27c1.8,0,3-.28,3.61-.83a5,5,0,0,0,1.22-3.07h7c-.07,3.4-1,5.83-2.86,7.31s-4.82,2.21-8.94,2.21-7.22-.94-9.07-2.81-2.78-4.78-2.78-8.73V287q0-5.88,2.83-8.73t9.18-2.86c4.15,0,7.2.92,9.12,2.75s2.88,4.61,2.88,8.32Zm-17.1-5h10.14v-1.45a5.13,5.13,0,0,0-1.15-3.72,5.31,5.31,0,0,0-3.89-1.17c-1.87,0-3.19.39-3.95,1.17a5.13,5.13,0,0,0-1.15,3.72Z"/><path class="cls-2" d="M354.78,275.88h5.61l1.09,3.37a9.29,9.29,0,0,1,8.06-3.84q5.82,0,8.26,2.91t2.44,8.57v18h-7V287.31q0-3.22-1.35-4.65c-.9-1-2.41-1.43-4.52-1.43a5.33,5.33,0,0,0-4.24,1.69,7.2,7.2,0,0,0-1.48,4.91v17.05h-6.91Z"/><path class="cls-2" d="M384.3,281.75v-4.63l4.42-1.24,1.24-6.29h5.41v6.29h6.24v5.87h-6.24v12.16q0,2.86,1.38,3.9c.91.69,2.53,1,4.86,1v6.5q-7.44,0-10.3-2.6t-2.85-8.89V281.75Z"/><path class="cls-2" d="M461.34,206.6l16.71-71.67a15.8,15.8,0,0,1,5.51-9.12,15.38,15.38,0,0,1,9.77-3.2,16.09,16.09,0,0,1,10,3.2,15.12,15.12,0,0,1,5.51,9.12l16.46,71.67H510.86l-4-18.36H479.94l-4,18.36Zm42.89-31-8.3-37.2c-.39-1.74-1.26-2.61-2.6-2.61s-2.1.87-2.49,2.61l-8.17,37.2Z"/><path class="cls-2" d="M524.37,137.19V123.92h50.11v13.27H556.59V206.6H542.37V137.19Z"/><path class="cls-2" d="M584.31,123.92h14.21v40.39h30.33V123.92H643V206.6h-14.1V177.34H598.52V206.6H584.31Z"/><path class="cls-2" d="M661.61,123.92h14.21L669,152.47H658.53Z"/><path class="cls-2" d="M673.63,206.6l16.7-71.67a15.85,15.85,0,0,1,5.51-9.12,15.38,15.38,0,0,1,9.77-3.2,16.07,16.07,0,0,1,10,3.2,15.12,15.12,0,0,1,5.51,9.12L737.6,206.6H723.14l-4-18.36H692.23l-4,18.36Zm42.88-31-8.29-37.2q-.6-2.61-2.61-2.61t-2.49,2.61L695,175.57Z"/><path class="cls-2" d="M749.44,123.92H776.1q12.9,0,20.19,7.82t7.29,21.32q0,10.66-4.68,17.24a22.23,22.23,0,0,1-13.33,8.7q.95,7.47,5.51,11.61t12,4.15v12.91q-26.07,0-30.21-25.94h-9.24V206.6H749.44Zm14.22,13.27v31.62h9.59q8.18,0,12.15-3.85t4-11.9q0-8.17-4-12t-12.15-3.85Z"/><path class="cls-2" d="M806.9,137.19V123.92H857v13.27H839.12V206.6H824.9V137.19Z"/><path class="cls-1" d="M750.43,70.55l-15,0,.17,13.94a9.39,9.39,0,0,1-.75,3.81,9.64,9.64,0,0,1-5.08,5.12,9.17,9.17,0,0,1-3.72.76l-168.53.6-.2-23.61-15,0,0,49.91h14.36V109.8l169.4-.6a23.83,23.83,0,0,0,9.55-2,24.84,24.84,0,0,0,13.08-13.1,23.7,23.7,0,0,0,1.92-9.63Z"/><path class="cls-1" d="M542.45,216a20,20,0,0,1-2.2,8.64,31.18,31.18,0,0,1-2.36,3.8,26.82,26.82,0,0,1-3.59,4,34.79,34.79,0,0,1-5.17,3.94,48.94,48.94,0,0,1-7,3.59L528,253.78a58.8,58.8,0,0,0,13-7.29,54.76,54.76,0,0,0,8.45-8.18c5.41-6.45,7.23-13.46,7.23-26.07v-2.9H542.43Z"/><rect class="cls-2" x="1149.42" y="124.14" width="20.92" height="9.14" rx="4.57"/><rect class="cls-2" x="912.92" y="124.14" width="20.92" height="9.14" rx="4.57"/><rect class="cls-2" x="1037.06" width="9.14" height="20.92" rx="4.57"/><rect class="cls-2" x="1120.68" y="201.87" width="9.14" height="20.92" rx="4.57" transform="translate(179.44 857.86) rotate(-45)"/><rect class="cls-2" x="953.44" y="34.63" width="9.14" height="20.92" rx="4.57" transform="translate(248.71 690.63) rotate(-45)"/><rect class="cls-2" x="1114.79" y="40.52" width="20.92" height="9.14" rx="4.57" transform="translate(297.61 808.79) rotate(-44.99)"/><rect class="cls-2" x="947.55" y="207.76" width="20.92" height="9.14" rx="4.57" transform="translate(130.4 739.52) rotate(-44.99)"/><rect class="cls-2" x="1145.32" y="165.83" width="9.14" height="20.92" rx="4.57" transform="translate(525.86 1158.08) rotate(-66.28)"/><rect class="cls-2" x="928.8" y="70.68" width="9.14" height="20.92" rx="4.57" transform="translate(483.56 902.99) rotate(-66.28)"/><rect class="cls-2" x="1078.75" y="15.88" width="20.92" height="9.14" rx="4.57" transform="translate(632.29 1009.4) rotate(-66.28)"/><rect class="cls-2" x="994.15" y="8.06" width="9.14" height="20.92" rx="4.57" transform="translate(61.34 363.65) rotate(-21.28)"/><rect class="cls-2" x="1141.36" y="81.23" width="20.92" height="9.14" rx="4.57" transform="translate(47.35 423.73) rotate(-21.27)"/><rect class="cls-2" x="920.98" y="167.05" width="20.92" height="9.14" rx="4.57" transform="translate(1.2 349.62) rotate(-21.27)"/><path class="cls-2" d="M1081.29,156h-4.14V108.52a35.52,35.52,0,1,0-71,0V156H1002a13.51,13.51,0,0,0-1.4,27v23.63h9.73V183.13H1073v23.49h9.73V183a13.51,13.51,0,0,0-1.4-27Zm-24.58,0V118.84h10.71V156ZM1047,118.84V156h-10.7V118.84Zm-5.35-36.11a25.82,25.82,0,0,1,25.79,25.79v.59h-51.57v-.59A25.81,25.81,0,0,1,1041.63,82.73Zm-25.78,36.11h10.7V156h-10.7Zm65.44,54.56H1002a3.82,3.82,0,0,1,0-7.64h79.32a3.82,3.82,0,0,1,0,7.64Z"/><rect class="cls-2" x="1036.77" y="43.99" width="9.73" height="21.1"/><path class="cls-1" d="M726.4,62.75a8,8,0,0,0,2.46,1.62,7.36,7.36,0,0,0,3,.59,7.55,7.55,0,0,0,3-.61,8.13,8.13,0,0,0,2.45-1.63,7.23,7.23,0,0,0,1.65-2.42,7.36,7.36,0,0,0,.59-3,7.24,7.24,0,0,0-.61-3,7.75,7.75,0,0,0-4.12-4.1,7.62,7.62,0,0,0-3-.59,7.5,7.5,0,0,0-3,.61,7.88,7.88,0,0,0-4.11,4.13,7.53,7.53,0,0,0-.58,3,7.34,7.34,0,0,0,2.27,5.37Z"/><path class="cls-1" d="M759.65,51.84a7.27,7.27,0,0,0-2.43-1.65,7.73,7.73,0,0,0-6,0,7.82,7.82,0,0,0-4.13,4.13,7.65,7.65,0,0,0,0,5.94,7.23,7.23,0,0,0,1.68,2.4,8,8,0,0,0,2.47,1.62,7.67,7.67,0,0,0,3,.59,7.63,7.63,0,0,0,7-10.6A8.16,8.16,0,0,0,759.65,51.84Z"/><path class="cls-1" d="M737.55,46.53A7.33,7.33,0,0,0,740,48.18a7.44,7.44,0,0,0,3,.59,7.53,7.53,0,0,0,3-.6,7.76,7.76,0,0,0,2.45-1.68A7.67,7.67,0,0,0,750,44a7.28,7.28,0,0,0,.59-3,7.53,7.53,0,0,0-.6-3,7.78,7.78,0,0,0-1.67-2.45A8,8,0,0,0,745.87,34a7.52,7.52,0,0,0-8.35,1.69,8.06,8.06,0,0,0-1.61,2.46,7.26,7.26,0,0,0-.59,3,7.54,7.54,0,0,0,.6,3A8.33,8.33,0,0,0,737.55,46.53Z"/><polygon class="cls-1" points="778.42 49.53 778.75 109.06 793.79 109.01 793.46 49.48 778.42 49.53"/><path class="cls-1" d="M797.85,34l-11.24,0a1.86,1.86,0,0,1-1.24-.54,4.52,4.52,0,0,1-1-1.45,10.3,10.3,0,0,1-.64-2,10.62,10.62,0,0,1-.24-2.28,5.21,5.21,0,0,1,1.21-3.34,4.92,4.92,0,0,1,3.92-1.63h-.08l6.33,0,0-7.52-6.41,0a15.06,15.06,0,0,0-5.78,1.16,10.46,10.46,0,0,0-5.95,6.76,15.62,15.62,0,0,0-.67,4.58,16.9,16.9,0,0,0,1.29,6.3h-3.88l0,7.53,24.39-.08Z"/><path class="cls-1" d="M550.08,68.49h-.74a7.55,7.55,0,0,1-6.55-3.22,13.29,13.29,0,0,1-2.06-7.81q0-5.19,2.81-8.14a8.28,8.28,0,0,1,6.17-2.47,8.14,8.14,0,0,1,6.83,3.22,11.8,11.8,0,0,1,2.19,7.39c0,3.74-.88,6.59-2.66,8.55A7.75,7.75,0,0,1,550.08,68.49Zm-1-27.91a3,3,0,0,1-.94,2.22,3.29,3.29,0,0,1-4.56,0,3,3,0,0,1,0-4.4,3.29,3.29,0,0,1,4.56,0A3,3,0,0,1,549.06,40.58Zm-3,17a6.29,6.29,0,0,0,1.08,4,2.78,2.78,0,0,0,2.34,1.16H550a2.8,2.8,0,0,0,2.5-1.33,7,7,0,0,0,.87-3.81,6.12,6.12,0,0,0-1.08-3.88,3.39,3.39,0,0,0-5.26.17A6.23,6.23,0,0,0,546.06,57.55Zm10.2-17a3,3,0,0,1-.94,2.22,3.2,3.2,0,0,1-2.34.91,3.16,3.16,0,0,1-2.27-.93,3,3,0,0,1,0-4.4,3.16,3.16,0,0,1,2.27-.93,3.26,3.26,0,0,1,2.34.89A3,3,0,0,1,556.26,40.58Z"/><path class="cls-1" d="M568.83,47.64v18.8a6.09,6.09,0,0,1-1,3.78,3.68,3.68,0,0,1-3.18,1.45,7.66,7.66,0,0,1-2.85-.61l0,5a13.32,13.32,0,0,0,4.4.73,8.26,8.26,0,0,0,5.8-2q2.76-2.54,2.76-7.39V47.64Z"/><path class="cls-1" d="M588.93,67.88h-9.58V62.09h8.42q3.4,0,3.41-2.9a7.13,7.13,0,0,0-1.4-3.91,13.59,13.59,0,0,0-3.7-3.62L589.5,47a18.76,18.76,0,0,1,5.84,6,12.26,12.26,0,0,1,1.82,6.36q0,4.11-2,6.26C593.75,67.14,591.68,67.88,588.93,67.88Z"/><path class="cls-1" d="M616.75,67.88h-2q-10.38,0-10.38-9.72V36.75h6V56.57q0,3.18,1.08,4.35c.71.78,2,1.17,3.88,1.17h1.49Z"/><path class="cls-1" d="M615.82,67.88V62.09h1.4c1.9,0,3.23-.53,4-1.59a6.86,6.86,0,0,0,1-4.12V47.64h6v8.74c0,2.12.42,3.62,1.26,4.49a4.94,4.94,0,0,0,3.7,1.22h1.35v5.79h-1.82c-3.37,0-5.86-1-7.48-3-1.68,2-4.19,3-7.53,3ZM625,77.61a3.11,3.11,0,0,1-2.27-.94,3,3,0,0,1,0-4.44A3.14,3.14,0,0,1,625,71.3a3.22,3.22,0,0,1,2.31.91,3,3,0,0,1,1,2.22,3,3,0,0,1-1,2.24A3.17,3.17,0,0,1,625,77.61Z"/><path class="cls-1" d="M633.54,62.09h1.54q3.93,0,3.93-4.35V55.35a8.3,8.3,0,0,1,2.62-6.54,9.4,9.4,0,0,1,13,1.26,11.3,11.3,0,0,1,2.15,7.06c0,3.62-1,6.42-2.9,8.42a8.21,8.21,0,0,1-6.17,2.52,9.41,9.41,0,0,1-6.17-1.92,7,7,0,0,1-4.86,1.73h-3.18Zm11.17-2.9c0,2.06.95,3.08,2.85,3.08a3,3,0,0,0,2.67-1.37,7,7,0,0,0,.93-3.91,6,6,0,0,0-1-3.79A3,3,0,0,0,647.61,52a2.83,2.83,0,0,0-2.22.77,3.84,3.84,0,0,0-.68,2.55Z"/><path class="cls-1" d="M716.81,245.3a5.07,5.07,0,0,1-2.69,4.36,12,12,0,0,1-6.1,1.39c-2.85,0-5-.75-6.53-2.29a7,7,0,0,1-1.9-5.12A8.29,8.29,0,0,1,701,239l2.29.88a7.5,7.5,0,0,0-1,3.56,4.73,4.73,0,0,0,1.66,3.76,6.41,6.41,0,0,0,4.28,1.33,8.58,8.58,0,0,0,4.1-.9,2.85,2.85,0,0,0,1.71-2.29h-2.68v-2.73l6.27,0v2.73Z"/><path class="cls-1" d="M717.89,245.29h-.82v-2.73h.57c2,0,3-1.2,3-3.57l0-12.69h2.82l0,12.68c0,2.37,1,3.56,3,3.55h.6v2.73h-.83a4.89,4.89,0,0,1-4.16-1.79A4.9,4.9,0,0,1,717.89,245.29Z"/><path class="cls-1" d="M742,245.22l-15.53.05v-2.74h3.88a6,6,0,0,1-1.18-3.68,5.73,5.73,0,0,1,1.81-4.47,5.45,5.45,0,0,1,3.9-1.5h4.93v2.67l-4.42,0a3.22,3.22,0,0,0-2.65,1.15,3.71,3.71,0,0,0,.33,4.81,3.54,3.54,0,0,0,2.6,1l6.32,0Z"/><path class="cls-1" d="M765.17,253.86a9.6,9.6,0,0,1-5.61,1.79,7.68,7.68,0,0,1-5.53-2,6.09,6.09,0,0,1-1.93-4.64,6.67,6.67,0,0,1,.9-3.42,6,6,0,0,1,2.28-2.29,5,5,0,0,1-2.41-4.58,5.85,5.85,0,0,1,1.78-4.48,5.48,5.48,0,0,1,3.93-1.49l4.9,0v2.68h-4.42a3.2,3.2,0,0,0-2.62,1.15,3.38,3.38,0,0,0-.73,2.23,2.94,2.94,0,0,0,1,2.3,3.82,3.82,0,0,0,2.63.88l5.32,0v2.71h-5.1a4.79,4.79,0,0,0-3.64,1.35,3.85,3.85,0,0,0-1,2.69,3.67,3.67,0,0,0,1.63,3.15,5.31,5.31,0,0,0,3.31,1,7.37,7.37,0,0,0,4.05-1.12Z"/><path class="cls-1" d="M772.09,245.12h-2.84l-.06-19H772Z"/><path class="cls-1" d="M780.84,245.09l-5.78,0v-2.73l5.13,0c1.75,0,2.62-.75,2.61-2.23a5.13,5.13,0,0,0-.92-2.76,9.29,9.29,0,0,0-2.48-2.53l1.64-2.2a11.68,11.68,0,0,1,3.4,3.52,7.78,7.78,0,0,1,1.16,3.62,2.42,2.42,0,0,0,1,2,3.15,3.15,0,0,0,2,.56h.65v2.74h-.91a5.11,5.11,0,0,1-3.77-1.38A4.55,4.55,0,0,1,780.84,245.09Z"/><path class="cls-1" d="M788.62,245.07v-2.74h.66c2,0,3-1.19,3-3.57l0-5.84h2.82l0,6.35a5.1,5.1,0,0,1-5.53,5.81Zm3.3,5.38a1.59,1.59,0,0,1-1.16-.49,1.53,1.53,0,0,1-.5-1.13,1.57,1.57,0,0,1,.49-1.15,1.63,1.63,0,0,1,2.31,0,1.55,1.55,0,0,1,.51,1.14,1.57,1.57,0,0,1-.5,1.14A1.67,1.67,0,0,1,791.92,250.45Z"/><path class="cls-1" d="M807.4,245l-9.06,0V242.3h4.19l0-12.08h2.82l0,12.08H807a3.05,3.05,0,0,0,2.35-.74,4,4,0,0,0,.63-2.64L810,226h2.85l.05,13.68a5.06,5.06,0,0,1-1.61,4.14A5.74,5.74,0,0,1,807.4,245Zm-1,6.84-5,0v-1.28h1.08a1.92,1.92,0,0,1-.26-1,1.84,1.84,0,0,1,.59-1.39,2.1,2.1,0,0,1,1.48-.56,2.2,2.2,0,0,1,1.6.65l-.48.89a1.52,1.52,0,0,0-1-.31c-.65,0-1,.27-1,.8a1.47,1.47,0,0,0,.38.88h2.53Z"/><path class="cls-1" d="M820.51,245h-2.85l-.06-19h2.85Z"/><path class="cls-1" d="M837.12,244.18v.4a6.13,6.13,0,0,1-1.64,4.5,4.82,4.82,0,0,1-3.47,1.3,8.49,8.49,0,0,1-3.82-1l.73-2.22a5.58,5.58,0,0,0,2.49.67,2.61,2.61,0,0,0,2.24-1,4.06,4.06,0,0,0,.74-2.6l0-11.42h2.82l0,5.84c0,2.37,1,3.56,3,3.55h.68v2.74H840A5.2,5.2,0,0,1,837.12,244.18Z"/><path class="cls-1" d="M841.2,244.91h-.91v-2.74h.65c2,0,3-1.2,3-3.57l0-5.84h2.82l0,6.35a5.11,5.11,0,0,1-5.54,5.81ZM845,228.82a1.66,1.66,0,0,1-1.65,1.63,1.6,1.6,0,0,1-1.15-.48,1.51,1.51,0,0,1-.51-1.14,1.54,1.54,0,0,1,.5-1.14,1.63,1.63,0,0,1,2.32,0A1.57,1.57,0,0,1,845,228.82Zm1.76-3.23a1.41,1.41,0,0,1-.46,1,1.47,1.47,0,0,1-1,.44,1.48,1.48,0,0,1-1.08-2.53,1.47,1.47,0,0,1,1.07-.43,1.52,1.52,0,0,1,1.52,1.47Zm2,3.22a1.54,1.54,0,0,1-.5,1.14,1.61,1.61,0,0,1-2.3,0,1.51,1.51,0,0,1-.51-1.14,1.54,1.54,0,0,1,.5-1.14,1.57,1.57,0,0,1,1.15-.49,1.64,1.64,0,0,1,1.16.48A1.54,1.54,0,0,1,848.76,228.81Z"/><path class="cls-1" d="M855.5,225.45l-5.19,0V224.1h1.08a2.32,2.32,0,0,1-.28-1,1.87,1.87,0,0,1,.6-1.45,2.25,2.25,0,0,1,1.55-.58,2.21,2.21,0,0,1,1.69.71l-.48,1a1.63,1.63,0,0,0-1-.34c-.59,0-.89.28-.88.83a1.44,1.44,0,0,0,.34.88h2.57Zm-1.11,19.41h-2.85l0-17.47h2.85Z"/><path class="cls-2" d="M727.31,306.65h-2.07q-7.32,0-10.53-5a11.33,11.33,0,0,1-8.31,3.42,10.77,10.77,0,0,1-8.73-4,14.82,14.82,0,0,1-3.16-9.77q0-6.93,4.36-10.93a14,14,0,0,1,9.7-3.43h3.93v-3l6.19,0,.06,18q0,8.32,7,8.3h1.53Zm-21.43-40.21a3.6,3.6,0,0,1-1.16,2.67,3.79,3.79,0,0,1-2.76,1.14,3.8,3.8,0,0,1,0-7.59,3.87,3.87,0,0,1,2.77,1.12A3.67,3.67,0,0,1,705.88,266.44Zm6.64,16.42-3.73,0q-4.12,0-6.18,2.48a8.4,8.4,0,0,0-1.71,5.6,9.12,9.12,0,0,0,1.81,6.05,5.24,5.24,0,0,0,4.27,1.91,8.81,8.81,0,0,0,5.85-2.54,17.06,17.06,0,0,1-.28-3.2Zm2.15-16.45a3.88,3.88,0,0,1-3.85,3.81,3.76,3.76,0,0,1-2.7-1.12,3.62,3.62,0,0,1,0-5.33,3.83,3.83,0,0,1,5.43,0A3.71,3.71,0,0,1,714.67,266.41Z"/><path class="cls-2" d="M735.83,306.62l-9.86,0v-6.39l9.85,0Z"/><path class="cls-2" d="M736.62,306.62h-2.13l0-6.39H736q7,0,7-8.34l0-13.65,6.59,0,0,13.65q0,8.33,7,8.3h1.59l0,6.39h-2.13q-6.52,0-9.73-4.16Q743.15,306.6,736.62,306.62Zm15.67-35-12.11,0v-3.2h2.59a4.7,4.7,0,0,1-.67-2.4,4.43,4.43,0,0,1,1.42-3.4,5.09,5.09,0,0,1,3.62-1.34,5.4,5.4,0,0,1,3.94,1.65l-1.13,2.27a4.24,4.24,0,0,0-2.4-.79c-1.37,0-2.06.65-2,1.93a4,4,0,0,0,.8,2.07l6,0Z"/><path class="cls-2" d="M766.71,306.53l-9.85,0,0-6.39,9.85,0Z"/><path class="cls-2" d="M765.38,306.53l0-6.39h1.53q7,0,7-8.34l-.05-13.65,6.59,0,.05,13.65q0,8.33,7,8.3h1.6l0,6.4H787q-6.53,0-9.73-4.16-3.18,4.2-9.71,4.22Zm6.17,12.56a3.72,3.72,0,0,1-2.7-1.12,3.62,3.62,0,0,1,0-5.33,3.8,3.8,0,0,1,2.69-1.14,3.75,3.75,0,0,1,2.7,1.13,3.63,3.63,0,0,1,0,5.32A3.73,3.73,0,0,1,771.55,319.09Zm8.78,0a3.74,3.74,0,0,1-2.7-1.12,3.62,3.62,0,0,1,0-5.32,3.81,3.81,0,0,1,5.42,0,3.7,3.7,0,0,1,0,5.32A3.69,3.69,0,0,1,780.33,319.06Z"/><path class="cls-2" d="M787.75,306.46l0-6.39h1.53q7,0,7-8.34l0-13.65,6.59,0,0,13.65q0,8.32,7,8.3h1.6l0,6.4h-2.13q-6.52,0-9.73-4.16-3.2,4.2-9.71,4.22ZM799.57,319a3.74,3.74,0,0,1-2.7-1.12,3.62,3.62,0,0,1,0-5.32,3.78,3.78,0,0,1,5.39,0,3.62,3.62,0,0,1,0,5.32A3.72,3.72,0,0,1,799.57,319Z"/><path class="cls-2" d="M820,306.36l-9.85,0,0-6.39,9.85,0Z"/><path class="cls-2" d="M820.57,306.36h-1.93l0-6.39H820q7,0,7-8.35L826.82,262l6.59,0,.1,30.82q0,7.2-4,10.67C827.33,305.38,824.34,306.35,820.57,306.36Z"/><path class="cls-2" d="M851.39,306.26l-6.66,0L844.59,262l6.66,0Z"/><line class="cls-3" x1="504.34" y1="263.15" x2="504.34" y2="308.15"/></g></g></svg>