<svg xmlns="http://www.w3.org/2000/svg" viewBox="0 0 841.38 511.63"><defs><style>.cls-1{fill:#fff;}.cls-2{fill:#cd69a5;}</style></defs><g id="Layer_2" data-name="Layer 2"><g id="Calque_1" data-name="Calque 1"><path class="cls-1" d="M62.08,145.65h3.48v27.58H82.89v3.21H62.08Z"/><path class="cls-1" d="M98.15,174a9.37,9.37,0,0,0,7.17-3.21l2.12,1.89A11.75,11.75,0,0,1,98.07,177c-6.25,0-11.35-4.8-11.35-11.88,0-6.6,4.61-11.88,10.91-11.88,6.73,0,10.6,5.37,10.6,12.06a8,8,0,0,1,0,1h-18C90.63,171.25,94.15,174,98.15,174Zm6.65-10.2c-.36-4.14-2.73-7.75-7.26-7.75-4,0-7,3.3-7.39,7.75Z"/><path class="cls-1" d="M136.38,177a11.88,11.88,0,1,1,9.1-19.71l-2.24,2.38c-1.8-1.89-3.83-3.43-6.91-3.43-4.62,0-8.14,3.91-8.14,8.84s3.61,8.88,8.36,8.88a9.38,9.38,0,0,0,6.95-3.38l2.16,2A11.73,11.73,0,0,1,136.38,177Z"/><path class="cls-1" d="M161,177a11.66,11.66,0,0,1-11.79-11.83A11.86,11.86,0,1,1,161,177Zm0-20.76c-4.93,0-8.32,3.91-8.32,8.84s3.61,8.88,8.41,8.88,8.35-3.91,8.35-8.79S165.8,156.21,161,156.21Z"/><path class="cls-1" d="M204.47,153.21c5.23,0,8.44,3.52,8.44,9.15v14.08h-3.38V163.16c0-4.4-2.2-6.87-5.9-6.87-3.43,0-6.29,2.55-6.29,7v13.11H194V163.07c0-4.27-2.25-6.78-5.85-6.78s-6.34,3-6.34,7.17v13h-3.38V153.7h3.38v3.83c1.5-2.25,3.52-4.32,7.35-4.32a7.72,7.72,0,0,1,7.3,4.54A9.07,9.07,0,0,1,204.47,153.21Z"/><path class="cls-1" d="M219.73,148.73V145h3.87v3.74Zm.22,27.71V153.7h3.38v22.74Z"/><path class="cls-1" d="M235.17,170c0,2.78,1.54,3.79,3.82,3.79a7.13,7.13,0,0,0,3.3-.79v2.9a8.47,8.47,0,0,1-4.09,1c-3.65,0-6.42-1.81-6.42-6.42V156.69h-3.17v-3h3.17v-6.87h3.39v6.87h7.21v3h-7.21Z"/><path class="cls-1" d="M257.78,174a9.4,9.4,0,0,0,7.17-3.21l2.11,1.89a11.75,11.75,0,0,1-9.37,4.27c-6.25,0-11.35-4.8-11.35-11.88,0-6.6,4.62-11.88,10.91-11.88,6.73,0,10.6,5.37,10.6,12.06a9.94,9.94,0,0,1,0,1h-18C250.25,171.25,253.77,174,257.78,174Zm6.64-10.2c-.35-4.14-2.73-7.75-7.26-7.75-4,0-7,3.3-7.39,7.75Zm-9.28-13.55,4.18-6.38,3.51,1.63-5,4.75Z"/><path class="cls-1" d="M293.27,176.88a15.62,15.62,0,0,1-9.41-3.34l1.71-2.42a13.29,13.29,0,0,0,7.88,2.9c2.72,0,4.7-1.41,4.7-3.6v-.09c0-2.29-2.68-3.17-5.67-4-3.56-1-7.52-2.24-7.52-6.42v-.09c0-3.91,3.25-6.51,7.74-6.51a15.54,15.54,0,0,1,8.18,2.51l-1.54,2.55a12.89,12.89,0,0,0-6.73-2.2c-2.68,0-4.4,1.41-4.4,3.3v.09c0,2.15,2.82,3,5.85,3.91,3.52,1.06,7.31,2.42,7.31,6.51v.09C301.37,174.37,297.8,176.88,293.27,176.88Z"/><path class="cls-1" d="M317.29,177a11.88,11.88,0,1,1,9.1-19.71l-2.24,2.38c-1.8-1.89-3.83-3.43-6.91-3.43-4.62,0-8.14,3.91-8.14,8.84s3.61,8.88,8.36,8.88a9.38,9.38,0,0,0,7-3.38l2.16,2A11.73,11.73,0,0,1,317.29,177Z"/><path class="cls-1" d="M331.62,148.73V145h3.88v3.74Zm.23,27.71V153.7h3.38v22.74Z"/><path class="cls-1" d="M352.52,174a9.4,9.4,0,0,0,7.17-3.21l2.11,1.89a11.75,11.75,0,0,1-9.37,4.27c-6.25,0-11.35-4.8-11.35-11.88,0-6.6,4.62-11.88,10.91-11.88,6.73,0,10.6,5.37,10.6,12.06a9.94,9.94,0,0,1,0,1h-18C345,171.25,348.52,174,352.52,174Zm6.64-10.2c-.35-4.14-2.73-7.75-7.26-7.75-4,0-6.95,3.3-7.39,7.75Z"/><path class="cls-1" d="M371.3,176.44h-3.39V153.7h3.39v4a8.61,8.61,0,0,1,7.79-4.45c5.5,0,8.71,3.7,8.71,9.11v14.12h-3.39V163.16c0-4.23-2.29-6.87-6.29-6.87s-6.82,2.86-6.82,7.13Z"/><path class="cls-1" d="M399,170c0,2.78,1.54,3.79,3.82,3.79a7.11,7.11,0,0,0,3.3-.79v2.9a8.44,8.44,0,0,1-4.09,1c-3.65,0-6.42-1.81-6.42-6.42V156.69h-3.17v-3h3.17v-6.87H399v6.87h7.21v3H399Z"/><path class="cls-1" d="M411.63,148.73V145h3.87v3.74Zm.22,27.71V153.7h3.39v22.74Z"/><path class="cls-1" d="M434.33,153.79v2.9h-7.17v19.75h-3.39V156.69h-3.12v-2.95h3.12v-2c0-5,2.51-7.61,6.87-7.61a10.44,10.44,0,0,1,3.74.57v2.95a11.45,11.45,0,0,0-3.3-.57c-2.64,0-4,1.58-4,4.84v1.85Z"/><path class="cls-1" d="M438.11,148.73V145H442v3.74Zm.22,27.71V153.7h3.39v22.74Z"/><path class="cls-1" d="M467.23,183.48V171.87c-1.85,2.72-4.53,5.06-8.71,5.06-5.45,0-10.86-4.32-10.86-11.84s5.41-11.88,10.86-11.88a10.27,10.27,0,0,1,8.71,4.84V153.7h3.39v29.78Zm-8.09-27.23c-4.4,0-8,3.25-8,8.8s3.7,8.84,8,8.84a8.84,8.84,0,0,0,0-17.64Z"/><path class="cls-1" d="M493.71,153.7h3.34v22.74h-3.34v-4a8.66,8.66,0,0,1-7.79,4.45c-5.49,0-8.71-3.7-8.71-9.11V153.7h3.39V167c0,4.23,2.29,6.87,6.29,6.87s6.82-2.86,6.82-7.13Z"/><path class="cls-1" d="M514.08,174a9.4,9.4,0,0,0,7.17-3.21l2.11,1.89A11.75,11.75,0,0,1,514,177c-6.25,0-11.35-4.8-11.35-11.88,0-6.6,4.62-11.88,10.91-11.88,6.73,0,10.6,5.37,10.6,12.06a9.94,9.94,0,0,1,0,1h-18C506.55,171.25,510.07,174,514.08,174Zm6.64-10.2c-.35-4.14-2.73-7.75-7.26-7.75-4,0-7,3.3-7.39,7.75Z"/><path class="cls-1" d="M552.08,174a9.4,9.4,0,0,0,7.17-3.21l2.11,1.89A11.75,11.75,0,0,1,552,177c-6.25,0-11.35-4.8-11.35-11.88,0-6.6,4.62-11.88,10.91-11.88,6.73,0,10.6,5.37,10.6,12.06a9.94,9.94,0,0,1,0,1h-18C544.56,171.25,548.08,174,552.08,174Zm6.64-10.2c-.35-4.14-2.73-7.75-7.26-7.75-4,0-7,3.3-7.39,7.75Z"/><path class="cls-1" d="M587.22,176.44h-3.91l-7-9.28-7.08,9.28H565.4l8.93-11.57-8.57-11.17h3.87l6.73,8.8,6.73-8.8h3.78l-8.62,11.08Z"/><path class="cls-1" d="M593.42,158.05l-1-2.77a18.84,18.84,0,0,1,8.27-1.89c6.21,0,9.68,3.17,9.68,9.15v13.9H607.1V173a10,10,0,0,1-8.22,3.92c-4.22,0-8.49-2.38-8.49-7.13s4-7.39,9.72-7.39a23.83,23.83,0,0,1,7,1v-.8c0-4.09-2.5-6.2-6.77-6.2A15.86,15.86,0,0,0,593.42,158.05Zm.4,11.62c0,2.9,2.64,4.57,5.72,4.57,4.18,0,7.61-2.55,7.61-6.16v-2.2a23.93,23.93,0,0,0-6.69-1C596.2,164.92,593.82,166.76,593.82,169.67Z"/><path class="cls-1" d="M643,153.21c5.23,0,8.45,3.52,8.45,9.15v14.08h-3.39V163.16c0-4.4-2.2-6.87-5.9-6.87-3.43,0-6.29,2.55-6.29,7v13.11h-3.34V163.07c0-4.27-2.24-6.78-5.85-6.78s-6.34,3-6.34,7.17v13H617V153.7h3.38v3.83c1.5-2.25,3.52-4.32,7.35-4.32a7.71,7.71,0,0,1,7.3,4.54A9.07,9.07,0,0,1,643,153.21Z"/><path class="cls-1" d="M658.26,148.73V145h3.87v3.74Zm.22,27.71V153.7h3.39v22.74Z"/><path class="cls-1" d="M672.51,176.44h-3.39V153.7h3.39v4a8.6,8.6,0,0,1,7.79-4.45c5.49,0,8.71,3.7,8.71,9.11v14.12h-3.39V163.16c0-4.23-2.29-6.87-6.29-6.87s-6.82,2.86-6.82,7.13Z"/><path class="cls-1" d="M705.63,174a9.4,9.4,0,0,0,7.17-3.21l2.11,1.89a11.74,11.74,0,0,1-9.37,4.27c-6.24,0-11.35-4.8-11.35-11.88,0-6.6,4.62-11.88,10.91-11.88,6.73,0,10.61,5.37,10.61,12.06a8,8,0,0,1-.05,1h-18C698.11,171.25,701.63,174,705.63,174Zm6.64-10.2c-.35-4.14-2.72-7.75-7.25-7.75-4,0-7,3.3-7.4,7.75Z"/><path class="cls-1" d="M66.09,222.76c0,2.77,1.54,3.78,3.83,3.78a7.1,7.1,0,0,0,3.29-.79v2.9a8.44,8.44,0,0,1-4.09,1c-3.65,0-6.42-1.8-6.42-6.42V209.47H59.53v-3H62.7v-6.86h3.39v6.86H73.3v3H66.09Z"/><path class="cls-1" d="M89.05,229.75a11.66,11.66,0,0,1-11.79-11.83,11.86,11.86,0,1,1,11.79,11.83Zm0-20.76c-4.93,0-8.32,3.91-8.32,8.84s3.61,8.89,8.41,8.89,8.36-3.92,8.36-8.8S93.84,209,89.05,209Z"/><path class="cls-1" d="M122.61,206.48H126v22.74h-3.34v-3.95a8.67,8.67,0,0,1-7.79,4.44c-5.49,0-8.71-3.7-8.71-9.11V206.48h3.39v13.29c0,4.22,2.29,6.86,6.29,6.86s6.82-2.86,6.82-7.13Z"/><path class="cls-1" d="M137.52,222.76c0,2.77,1.54,3.78,3.83,3.78a7.16,7.16,0,0,0,3.3-.79v2.9a8.5,8.5,0,0,1-4.09,1c-3.66,0-6.43-1.8-6.43-6.42V209.47H131v-3h3.16v-6.86h3.39v6.86h7.21v3h-7.21Z"/><path class="cls-1" d="M160.13,226.8a9.4,9.4,0,0,0,7.17-3.21l2.11,1.9a11.74,11.74,0,0,1-9.37,4.26c-6.25,0-11.35-4.79-11.35-11.87,0-6.6,4.62-11.88,10.91-11.88,6.73,0,10.6,5.36,10.6,12.05a10.22,10.22,0,0,1,0,1.06h-18C152.61,224,156.13,226.8,160.13,226.8Zm6.64-10.2c-.35-4.14-2.73-7.74-7.26-7.74-4,0-6.95,3.3-7.39,7.74Z"/><path class="cls-1" d="M183.05,229.66a15.63,15.63,0,0,1-9.42-3.34l1.72-2.42a13.26,13.26,0,0,0,7.87,2.9c2.73,0,4.71-1.4,4.71-3.6v-.09c0-2.29-2.68-3.17-5.68-4-3.56-1-7.52-2.25-7.52-6.43v-.08c0-3.92,3.26-6.52,7.74-6.52a15.57,15.57,0,0,1,8.19,2.51l-1.54,2.55a12.94,12.94,0,0,0-6.73-2.2c-2.69,0-4.4,1.41-4.4,3.3v.09c0,2.16,2.81,3,5.85,3.92,3.52,1.05,7.3,2.42,7.3,6.51v.09C191.14,227.16,187.58,229.66,183.05,229.66Z"/><path class="cls-1" d="M209.7,229.22V197.11h3.39v32.11Z"/><path class="cls-1" d="M230.37,226.8a9.37,9.37,0,0,0,7.17-3.21l2.11,1.9a11.71,11.71,0,0,1-9.37,4.26c-6.24,0-11.34-4.79-11.34-11.87,0-6.6,4.61-11.88,10.9-11.88,6.74,0,10.61,5.36,10.61,12.05a8.19,8.19,0,0,1,0,1.06h-18C222.85,224,226.37,226.8,230.37,226.8ZM237,216.6c-.36-4.14-2.73-7.74-7.26-7.74-4,0-6.95,3.3-7.39,7.74Z"/><path class="cls-1" d="M253.29,229.66a15.6,15.6,0,0,1-9.41-3.34l1.71-2.42a13.26,13.26,0,0,0,7.87,2.9c2.73,0,4.71-1.4,4.71-3.6v-.09c0-2.29-2.68-3.17-5.67-4-3.57-1-7.53-2.25-7.53-6.43v-.08c0-3.92,3.26-6.52,7.75-6.52a15.54,15.54,0,0,1,8.18,2.51l-1.54,2.55a12.89,12.89,0,0,0-6.73-2.2c-2.68,0-4.4,1.41-4.4,3.3v.09c0,2.16,2.82,3,5.85,3.92,3.52,1.05,7.3,2.42,7.3,6.51v.09C261.38,227.16,257.82,229.66,253.29,229.66Z"/><path class="cls-1" d="M289.88,229.75A11.88,11.88,0,1,1,299,210l-2.24,2.38c-1.81-1.89-3.83-3.43-6.91-3.43-4.62,0-8.14,3.91-8.14,8.84s3.61,8.89,8.36,8.89a9.37,9.37,0,0,0,6.95-3.39l2.16,2A11.71,11.71,0,0,1,289.88,229.75Z"/><path class="cls-1" d="M305.45,210.84l-1-2.78a18.84,18.84,0,0,1,8.27-1.89c6.21,0,9.68,3.17,9.68,9.15v13.9h-3.25v-3.43a10,10,0,0,1-8.23,3.92c-4.22,0-8.49-2.38-8.49-7.13s4-7.39,9.72-7.39a24.3,24.3,0,0,1,7,1v-.79c0-4.09-2.51-6.2-6.78-6.2A15.86,15.86,0,0,0,305.45,210.84Zm.4,11.61c0,2.9,2.64,4.58,5.72,4.58,4.18,0,7.61-2.56,7.61-6.16v-2.2a23.52,23.52,0,0,0-6.69-1C308.23,217.7,305.85,219.55,305.85,222.45Z"/><path class="cls-1" d="M332.37,229.22H329V206.48h3.38v4a8.63,8.63,0,0,1,7.79-4.44c5.5,0,8.71,3.69,8.71,9.1v14.12h-3.39V215.94c0-4.22-2.28-6.86-6.29-6.86s-6.82,2.86-6.82,7.12Z"/><path class="cls-1" d="M373.72,229.22v-4.57c-1.85,2.73-4.53,5.06-8.71,5.06-5.45,0-10.86-4.31-10.86-11.83S359.56,206,365,206a10.27,10.27,0,0,1,8.71,4.84V197.11h3.39v32.11ZM365.63,209c-4.4,0-8,3.26-8,8.8s3.7,8.84,8,8.84a8.84,8.84,0,0,0,0-17.64Z"/><path class="cls-1" d="M384.14,201.51v-3.74H388v3.74Zm.22,27.71V206.48h3.39v22.74Z"/><path class="cls-1" d="M413.26,229.22v-4.57c-1.84,2.73-4.53,5.06-8.71,5.06-5.45,0-10.86-4.31-10.86-11.83S399.1,206,404.55,206a10.26,10.26,0,0,1,8.71,4.84V197.11h3.39v32.11ZM405.17,209c-4.4,0-8,3.26-8,8.8s3.7,8.84,8,8.84a8.84,8.84,0,0,0,0-17.64Z"/><path class="cls-1" d="M424.92,210.84l-1-2.78a18.8,18.8,0,0,1,8.27-1.89c6.2,0,9.67,3.17,9.67,9.15v13.9H438.6v-3.43a10,10,0,0,1-8.23,3.92c-4.22,0-8.49-2.38-8.49-7.13s4-7.39,9.72-7.39a24.19,24.19,0,0,1,7,1v-.79c0-4.09-2.51-6.2-6.78-6.2A15.78,15.78,0,0,0,424.92,210.84Zm.39,11.61c0,2.9,2.64,4.58,5.72,4.58,4.18,0,7.61-2.56,7.61-6.16v-2.2a23.44,23.44,0,0,0-6.68-1C427.69,217.7,425.31,219.55,425.31,222.45Z"/><path class="cls-1" d="M453,222.76c0,2.77,1.54,3.78,3.83,3.78a7.13,7.13,0,0,0,3.3-.79v2.9a8.47,8.47,0,0,1-4.09,1c-3.65,0-6.42-1.8-6.42-6.42V209.47h-3.17v-3h3.17v-6.86H453v6.86h7.22v3H453Z"/><path class="cls-1" d="M481.75,206.48h3.34v22.74h-3.34v-3.95a8.67,8.67,0,0,1-7.79,4.44c-5.5,0-8.71-3.7-8.71-9.11V206.48h3.39v13.29c0,4.22,2.29,6.86,6.29,6.86s6.82-2.86,6.82-7.13Z"/><path class="cls-1" d="M495.47,229.22h-3.39V206.48h3.39v5.94c1.67-3.78,5-6.51,9.28-6.34v3.66h-.26c-5,0-9,3.56-9,10.42Z"/><path class="cls-1" d="M519.31,226.8a9.39,9.39,0,0,0,7.17-3.21l2.11,1.9a11.73,11.73,0,0,1-9.37,4.26c-6.24,0-11.35-4.79-11.35-11.87,0-6.6,4.62-11.88,10.91-11.88,6.73,0,10.61,5.36,10.61,12.05a8.19,8.19,0,0,1,0,1.06h-18C511.79,224,515.31,226.8,519.31,226.8ZM526,216.6c-.35-4.14-2.72-7.74-7.25-7.74-4,0-7,3.3-7.39,7.74Z"/><path class="cls-1" d="M542.23,229.66a15.63,15.63,0,0,1-9.42-3.34l1.72-2.42a13.26,13.26,0,0,0,7.87,2.9c2.73,0,4.71-1.4,4.71-3.6v-.09c0-2.29-2.68-3.17-5.67-4-3.57-1-7.53-2.25-7.53-6.43v-.08c0-3.92,3.26-6.52,7.75-6.52a15.54,15.54,0,0,1,8.18,2.51l-1.54,2.55a12.89,12.89,0,0,0-6.73-2.2c-2.69,0-4.4,1.41-4.4,3.3v.09c0,2.16,2.81,3,5.85,3.92,3.52,1.05,7.3,2.42,7.3,6.51v.09C550.32,227.16,546.76,229.66,542.23,229.66Z"/><path class="cls-1" d="M572,229.22h-3.39V206.48H572v5.94c1.67-3.78,5-6.51,9.28-6.34v3.66H581c-5,0-9,3.56-9,10.42Z"/><path class="cls-1" d="M595.8,226.8a9.4,9.4,0,0,0,7.17-3.21l2.11,1.9a11.73,11.73,0,0,1-9.37,4.26c-6.24,0-11.35-4.79-11.35-11.87,0-6.6,4.62-11.88,10.91-11.88,6.73,0,10.61,5.36,10.61,12.05a8.19,8.19,0,0,1,0,1.06h-18C588.28,224,591.8,226.8,595.8,226.8Zm6.64-10.2c-.35-4.14-2.72-7.74-7.25-7.74-4,0-7,3.3-7.4,7.74Z"/><path class="cls-1" d="M609.79,217.92A11.85,11.85,0,0,1,630.55,210l-2.24,2.38c-1.81-1.89-3.83-3.43-6.91-3.43-4.62,0-8.14,3.91-8.14,8.84s3.61,8.89,8.36,8.89a9.37,9.37,0,0,0,7-3.39l2.16,2a11.91,11.91,0,0,1-8.63,4.4L619.2,236l-3.3-1.49,3.43-5A11.65,11.65,0,0,1,609.79,217.92Z"/><path class="cls-1" d="M651.84,206.48h3.34v22.74h-3.34v-3.95a8.67,8.67,0,0,1-7.79,4.44c-5.5,0-8.71-3.7-8.71-9.11V206.48h3.39v13.29c0,4.22,2.29,6.86,6.29,6.86s6.82-2.86,6.82-7.13Z"/><path class="cls-1" d="M672.2,226.8a9.41,9.41,0,0,0,7.18-3.21l2.11,1.9a11.74,11.74,0,0,1-9.37,4.26c-6.25,0-11.35-4.79-11.35-11.87,0-6.6,4.62-11.88,10.91-11.88,6.73,0,10.6,5.36,10.6,12.05a8.19,8.19,0,0,1,0,1.06h-18C664.68,224,668.2,226.8,672.2,226.8Zm6.65-10.2c-.35-4.14-2.73-7.74-7.26-7.74-4,0-7,3.3-7.39,7.74Z"/><path class="cls-1" d="M695.12,229.66a15.62,15.62,0,0,1-9.41-3.34l1.71-2.42a13.29,13.29,0,0,0,7.88,2.9c2.72,0,4.7-1.4,4.7-3.6v-.09c0-2.29-2.68-3.17-5.67-4-3.56-1-7.52-2.25-7.52-6.43v-.08c0-3.92,3.25-6.52,7.74-6.52a15.54,15.54,0,0,1,8.18,2.51l-1.54,2.55a12.89,12.89,0,0,0-6.73-2.2c-2.68,0-4.4,1.41-4.4,3.3v.09c0,2.16,2.82,3,5.85,3.92,3.52,1.05,7.3,2.42,7.3,6.51v.09C703.21,227.16,699.65,229.66,695.12,229.66Z"/><path class="cls-1" d="M731.5,226.8a9.4,9.4,0,0,0,7.17-3.21l2.11,1.9a11.74,11.74,0,0,1-9.37,4.26c-6.25,0-11.35-4.79-11.35-11.87,0-6.6,4.62-11.88,10.91-11.88,6.73,0,10.6,5.36,10.6,12.05a10.22,10.22,0,0,1,0,1.06h-18C724,224,727.49,226.8,731.5,226.8Zm6.64-10.2c-.35-4.14-2.73-7.74-7.26-7.74-4,0-7,3.3-7.39,7.74Z"/><path class="cls-1" d="M751.47,222.76c0,2.77,1.53,3.78,3.82,3.78a7.13,7.13,0,0,0,3.3-.79v2.9a8.47,8.47,0,0,1-4.09,1c-3.65,0-6.42-1.8-6.42-6.42V209.47h-3.17v-3h3.17v-6.86h3.39v6.86h7.21v3h-7.21Z"/><path class="cls-1" d="M776.93,229.22V197.11h3.39v32.11Z"/><path class="cls-1" d="M797.6,226.8a9.41,9.41,0,0,0,7.18-3.21l2.11,1.9a11.74,11.74,0,0,1-9.37,4.26c-6.25,0-11.35-4.79-11.35-11.87,0-6.6,4.62-11.88,10.91-11.88,6.73,0,10.6,5.36,10.6,12.05a10.22,10.22,0,0,1,0,1.06h-18C790.08,224,793.6,226.8,797.6,226.8Zm6.65-10.2c-.35-4.14-2.73-7.74-7.26-7.74-4,0-7,3.3-7.39,7.74Z"/><path class="cls-1" d="M820.52,229.66a15.62,15.62,0,0,1-9.41-3.34l1.71-2.42a13.29,13.29,0,0,0,7.88,2.9c2.72,0,4.7-1.4,4.7-3.6v-.09c0-2.29-2.68-3.17-5.67-4-3.56-1-7.52-2.25-7.52-6.43v-.08c0-3.92,3.25-6.52,7.74-6.52a15.54,15.54,0,0,1,8.18,2.51l-1.54,2.55a12.89,12.89,0,0,0-6.73-2.2c-2.68,0-4.4,1.41-4.4,3.3v.09c0,2.16,2.82,3,5.85,3.92,3.52,1.05,7.31,2.42,7.31,6.51v.09C828.62,227.16,825.05,229.66,820.52,229.66Z"/><path class="cls-1" d="M73.35,259.35v2.9H66.18V282H62.79V262.25H59.67v-2.94h3.12v-2c0-5,2.51-7.61,6.86-7.61a10.22,10.22,0,0,1,3.74.57v3a11.06,11.06,0,0,0-3.3-.57c-2.64,0-4,1.58-4,4.83v1.85Z"/><path class="cls-1" d="M77.13,254.29v-3.74H81v3.74ZM77.35,282V259.26h3.38V282Z"/><path class="cls-1" d="M88.3,282V249.89h3.39V282Z"/><path class="cls-1" d="M103.52,275.54c0,2.77,1.54,3.78,3.82,3.78a7.11,7.11,0,0,0,3.3-.79v2.9a8.44,8.44,0,0,1-4.09,1c-3.65,0-6.42-1.8-6.42-6.42V262.25H97v-3h3.17V252.4h3.39v6.86h7.21v3h-7.21Z"/><path class="cls-1" d="M119.48,282H116.1V259.26h3.38v5.94c1.68-3.78,5-6.51,9.29-6.33v3.65h-.27c-5,0-9,3.56-9,10.42Z"/><path class="cls-1" d="M143.32,279.59a9.44,9.44,0,0,0,7.18-3.21l2.11,1.89a11.75,11.75,0,0,1-9.37,4.27c-6.25,0-11.35-4.8-11.35-11.88,0-6.6,4.62-11.88,10.91-11.88,6.73,0,10.6,5.37,10.6,12.05a8.19,8.19,0,0,1-.05,1.06h-18C135.8,276.82,139.32,279.59,143.32,279.59ZM150,269.38c-.35-4.13-2.73-7.74-7.26-7.74-4,0-7,3.3-7.39,7.74Z"/><path class="cls-1" d="M159.91,282h-1.59v-4.62h4.05v4c0,3.56-1.54,5.28-4.88,6l-.53-1.54C159.16,285,160.08,283.9,159.91,282Z"/><path class="cls-1" d="M184.85,282h-3.39V259.26h3.39v5.94c1.67-3.78,5-6.51,9.28-6.33v3.65h-.27c-5,0-9,3.56-9,10.42Z"/><path class="cls-1" d="M208.69,279.59a9.44,9.44,0,0,0,7.17-3.21l2.11,1.89a11.75,11.75,0,0,1-9.37,4.27c-6.25,0-11.35-4.8-11.35-11.88,0-6.6,4.62-11.88,10.91-11.88,6.73,0,10.6,5.37,10.6,12.05a10.22,10.22,0,0,1,0,1.06h-18C201.16,276.82,204.68,279.59,208.69,279.59Zm6.64-10.21c-.35-4.13-2.73-7.74-7.26-7.74-4,0-6.95,3.3-7.39,7.74Z"/><path class="cls-1" d="M227.78,259.26v24.07c0,4-2.12,5.85-5.55,5.85a8.69,8.69,0,0,1-2.11-.22v-2.77a12.33,12.33,0,0,0,1.67.13c1.54,0,2.6-.93,2.6-3v-24Zm-3.61-5v-3.74H228v3.74Z"/><path class="cls-1" d="M245.06,279.59a9.42,9.42,0,0,0,7.17-3.21l2.11,1.89a11.74,11.74,0,0,1-9.37,4.27c-6.24,0-11.35-4.8-11.35-11.88,0-6.6,4.62-11.88,10.91-11.88,6.73,0,10.61,5.37,10.61,12.05a8.19,8.19,0,0,1,0,1.06h-18C237.54,276.82,241.06,279.59,245.06,279.59Zm6.64-10.21c-.35-4.13-2.72-7.74-7.25-7.74-4,0-6.95,3.3-7.39,7.74Z"/><path class="cls-1" d="M265,275.54c0,2.77,1.54,3.78,3.83,3.78a7.16,7.16,0,0,0,3.3-.79v2.9a8.5,8.5,0,0,1-4.09,1c-3.65,0-6.43-1.8-6.43-6.42V262.25h-3.16v-3h3.16V252.4H265v6.86h7.22v3H265Z"/><path class="cls-1" d="M278.93,263.62l-1-2.77a18.7,18.7,0,0,1,8.27-1.89c6.2,0,9.68,3.16,9.68,9.15V282h-3.26v-3.43a10,10,0,0,1-8.23,3.91c-4.22,0-8.49-2.37-8.49-7.13s4-7.39,9.73-7.39a24.17,24.17,0,0,1,7,1v-.79c0-4.09-2.51-6.2-6.77-6.2A15.79,15.79,0,0,0,278.93,263.62Zm.4,11.61c0,2.91,2.63,4.58,5.71,4.58,4.18,0,7.61-2.55,7.61-6.16v-2.2a23.44,23.44,0,0,0-6.68-1C281.7,270.48,279.33,272.33,279.33,275.23Z"/><path class="cls-1" d="M305.85,282h-3.39V259.26h3.39v4a8.61,8.61,0,0,1,7.79-4.44c5.49,0,8.71,3.69,8.71,9.11V282H319V268.72c0-4.22-2.29-6.86-6.29-6.86s-6.82,2.86-6.82,7.13Z"/><path class="cls-1" d="M333.52,275.54c0,2.77,1.54,3.78,3.82,3.78a7.11,7.11,0,0,0,3.3-.79v2.9a8.44,8.44,0,0,1-4.09,1c-3.65,0-6.42-1.8-6.42-6.42V262.25H327v-3h3.17V252.4h3.39v6.86h7.21v3h-7.21Z"/><path class="cls-1" d="M368.92,282.54A11.88,11.88,0,1,1,378,262.83l-2.24,2.37c-1.81-1.89-3.83-3.43-6.91-3.43-4.62,0-8.14,3.92-8.14,8.84s3.61,8.89,8.36,8.89a9.37,9.37,0,0,0,6.95-3.39l2.16,2A11.74,11.74,0,0,1,368.92,282.54Z"/><path class="cls-1" d="M393.2,279.59a9.44,9.44,0,0,0,7.18-3.21l2.11,1.89a11.75,11.75,0,0,1-9.37,4.27c-6.25,0-11.35-4.8-11.35-11.88,0-6.6,4.62-11.88,10.91-11.88,6.73,0,10.6,5.37,10.6,12.05a8.19,8.19,0,0,1,0,1.06h-18C385.68,276.82,389.2,279.59,393.2,279.59Zm6.65-10.21c-.35-4.13-2.73-7.74-7.26-7.74-4,0-6.95,3.3-7.39,7.74Z"/><path class="cls-1" d="M408.91,282V249.89h3.38V282Z"/><path class="cls-1" d="M419.86,282V249.89h3.39V282Z"/><path class="cls-1" d="M440.53,279.59a9.42,9.42,0,0,0,7.17-3.21l2.11,1.89a11.74,11.74,0,0,1-9.37,4.27c-6.24,0-11.35-4.8-11.35-11.88,0-6.6,4.62-11.88,10.91-11.88,6.73,0,10.61,5.37,10.61,12.05a8.19,8.19,0,0,1-.05,1.06h-18C433,276.82,436.53,279.59,440.53,279.59Zm6.64-10.21c-.35-4.13-2.72-7.74-7.25-7.74-4,0-6.95,3.3-7.39,7.74Z"/><path class="cls-1" d="M463.45,282.45A15.64,15.64,0,0,1,454,279.1l1.72-2.42a13.28,13.28,0,0,0,7.87,2.91c2.73,0,4.71-1.41,4.71-3.61v-.09c0-2.29-2.68-3.17-5.67-4-3.57-1-7.53-2.24-7.53-6.42v-.09c0-3.92,3.26-6.51,7.75-6.51a15.45,15.45,0,0,1,8.18,2.51l-1.54,2.55a12.8,12.8,0,0,0-6.73-2.2c-2.69,0-4.4,1.4-4.4,3.3v.08c0,2.16,2.81,3,5.85,3.92,3.52,1.05,7.3,2.42,7.3,6.51v.09C471.54,279.94,468,282.45,463.45,282.45Z"/><path class="cls-1" d="M493.18,282h-3.39V259.26h3.39v4a8.62,8.62,0,0,1,7.79-4.44c5.5,0,8.71,3.69,8.71,9.11V282h-3.39V268.72c0-4.22-2.29-6.86-6.29-6.86s-6.82,2.86-6.82,7.13Z"/><path class="cls-1" d="M526.65,282.54a11.88,11.88,0,1,1,11.93-11.93A11.83,11.83,0,0,1,526.65,282.54Zm0-20.77c-4.92,0-8.31,3.92-8.31,8.84s3.61,8.89,8.4,8.89,8.36-3.92,8.36-8.8S531.45,261.77,526.65,261.77Z"/><path class="cls-1" d="M547.46,282h-3.39V259.26h3.39v4a8.61,8.61,0,0,1,7.79-4.44c5.49,0,8.71,3.69,8.71,9.11V282h-3.39V268.72c0-4.22-2.29-6.86-6.29-6.86s-6.82,2.86-6.82,7.13Z"/><path class="cls-1" d="M593.38,282.54a11.88,11.88,0,1,1,9.11-19.71l-2.25,2.37c-1.8-1.89-3.82-3.43-6.9-3.43-4.62,0-8.14,3.92-8.14,8.84s3.61,8.89,8.36,8.89a9.39,9.39,0,0,0,7-3.39l2.15,2A11.7,11.7,0,0,1,593.38,282.54Z"/><path class="cls-1" d="M618,282.54a11.66,11.66,0,0,1-11.79-11.84A11.86,11.86,0,1,1,618,282.54Zm0-20.77c-4.92,0-8.31,3.92-8.31,8.84s3.61,8.89,8.4,8.89,8.36-3.92,8.36-8.8S622.81,261.77,618,261.77Z"/><path class="cls-1" d="M638.82,282h-3.39V259.26h3.39v4a8.61,8.61,0,0,1,7.78-4.44c5.5,0,8.71,3.69,8.71,9.11V282h-3.38V268.72c0-4.22-2.29-6.86-6.29-6.86s-6.82,2.86-6.82,7.13Z"/><path class="cls-1" d="M673.74,259.35v2.9h-7.17V282h-3.39V262.25h-3.12v-2.94h3.12v-2c0-5,2.51-7.61,6.87-7.61a10.22,10.22,0,0,1,3.74.57v3a11.12,11.12,0,0,0-3.3-.57c-2.64,0-4,1.58-4,4.83v1.85Z"/><path class="cls-1" d="M687.82,282.54a11.88,11.88,0,1,1,11.92-11.93A11.82,11.82,0,0,1,687.82,282.54Zm0-20.77c-4.93,0-8.32,3.92-8.32,8.84s3.61,8.89,8.4,8.89,8.36-3.92,8.36-8.8S692.61,261.77,687.82,261.77Z"/><path class="cls-1" d="M708.62,282h-3.39V259.26h3.39v5.94c1.67-3.78,5-6.51,9.28-6.33v3.65h-.26c-5,0-9,3.56-9,10.42Z"/><path class="cls-1" d="M748.48,258.78c5.23,0,8.44,3.52,8.44,9.15V282h-3.39V268.72c0-4.4-2.2-6.86-5.89-6.86-3.43,0-6.29,2.55-6.29,7V282H738V268.63c0-4.26-2.24-6.77-5.85-6.77s-6.33,3-6.33,7.17v13h-3.39V259.26h3.39v3.83c1.49-2.24,3.52-4.31,7.35-4.31a7.73,7.73,0,0,1,7.3,4.53A9.07,9.07,0,0,1,748.48,258.78Z"/><path class="cls-1" d="M773.68,279.59a9.44,9.44,0,0,0,7.17-3.21l2.11,1.89a11.75,11.75,0,0,1-9.37,4.27c-6.25,0-11.35-4.8-11.35-11.88,0-6.6,4.62-11.88,10.91-11.88,6.73,0,10.6,5.37,10.6,12.05a10.22,10.22,0,0,1,0,1.06h-18C766.15,276.82,769.67,279.59,773.68,279.59Zm6.64-10.21c-.35-4.13-2.73-7.74-7.26-7.74-4,0-6.95,3.3-7.39,7.74Z"/><path class="cls-1" d="M796.59,282.45a15.63,15.63,0,0,1-9.41-3.35l1.71-2.42a13.3,13.3,0,0,0,7.88,2.91c2.73,0,4.71-1.41,4.71-3.61v-.09c0-2.29-2.69-3.17-5.68-4-3.56-1-7.52-2.24-7.52-6.42v-.09c0-3.92,3.25-6.51,7.74-6.51a15.45,15.45,0,0,1,8.18,2.51l-1.54,2.55a12.8,12.8,0,0,0-6.73-2.2c-2.68,0-4.4,1.4-4.4,3.3v.08c0,2.16,2.82,3,5.85,3.92,3.52,1.05,7.31,2.42,7.31,6.51v.09C804.69,279.94,801.12,282.45,796.59,282.45Z"/><path class="cls-1" d="M71.54,332.37a9.41,9.41,0,0,0,7.17-3.21l2.11,1.89a11.72,11.72,0,0,1-9.37,4.27c-6.24,0-11.35-4.8-11.35-11.88,0-6.6,4.62-11.88,10.91-11.88,6.74,0,10.61,5.37,10.61,12.06a8,8,0,0,1-.05,1.05h-18C64,329.6,67.54,332.37,71.54,332.37Zm6.65-10.2c-.36-4.14-2.73-7.75-7.26-7.75-4,0-7,3.3-7.39,7.75Z"/><path class="cls-1" d="M91.51,328.32c0,2.77,1.54,3.79,3.83,3.79a7.06,7.06,0,0,0,3.3-.8v2.91a8.61,8.61,0,0,1-4.09,1c-3.65,0-6.43-1.81-6.43-6.43V315H85v-3h3.16v-6.87h3.39v6.87h7.22v3H91.51Z"/><path class="cls-1" d="M133.52,312.05h3.65L127.27,335h-3l-9.85-22.92h3.74l7.65,18.87Z"/><path class="cls-1" d="M143.19,316.4l-1-2.77a18.84,18.84,0,0,1,8.27-1.89c6.2,0,9.68,3.17,9.68,9.15v13.9h-3.26v-3.43a9.94,9.94,0,0,1-8.22,3.91c-4.23,0-8.49-2.37-8.49-7.12s4-7.39,9.72-7.39a24.2,24.2,0,0,1,7,1v-.79c0-4.09-2.5-6.2-6.77-6.2A15.83,15.83,0,0,0,143.19,316.4Zm.4,11.62c0,2.9,2.64,4.57,5.72,4.57,4.18,0,7.61-2.55,7.61-6.16v-2.2a23.88,23.88,0,0,0-6.69-1C146,323.26,143.59,325.11,143.59,328Z"/><path class="cls-1" d="M167,334.79V302.68h3.39v32.11Z"/><path class="cls-1" d="M177.77,307.08v-3.74h3.87v3.74Zm.22,27.71V312.05h3.38v22.74Z"/><path class="cls-1" d="M206.89,334.79v-4.58c-1.85,2.73-4.54,5.06-8.72,5.06-5.45,0-10.86-4.31-10.86-11.83s5.41-11.88,10.86-11.88a10.27,10.27,0,0,1,8.72,4.84V302.68h3.38v32.11Zm-8.1-20.19c-4.4,0-8,3.25-8,8.8s3.7,8.84,8,8.84a8.84,8.84,0,0,0,0-17.64Z"/><path class="cls-1" d="M218.54,316.4l-1-2.77a18.8,18.8,0,0,1,8.27-1.89c6.2,0,9.68,3.17,9.68,9.15v13.9h-3.26v-3.43a10,10,0,0,1-8.23,3.91c-4.22,0-8.49-2.37-8.49-7.12s4-7.39,9.73-7.39a24.2,24.2,0,0,1,7,1v-.79c0-4.09-2.51-6.2-6.77-6.2A15.79,15.79,0,0,0,218.54,316.4Zm.4,11.62c0,2.9,2.63,4.57,5.71,4.57,4.18,0,7.61-2.55,7.61-6.16v-2.2a23.8,23.8,0,0,0-6.68-1C221.31,323.26,218.94,325.11,218.94,328Z"/><path class="cls-1" d="M245.46,334.79h-3.39V312.05h3.39v4a8.6,8.6,0,0,1,7.79-4.45c5.49,0,8.71,3.7,8.71,9.11v14.12h-3.39V321.5c0-4.22-2.29-6.86-6.29-6.86s-6.82,2.86-6.82,7.13Z"/><path class="cls-1" d="M273.13,328.32c0,2.77,1.54,3.79,3.82,3.79a7,7,0,0,0,3.3-.8v2.91a8.58,8.58,0,0,1-4.09,1c-3.65,0-6.42-1.81-6.42-6.43V315h-3.17v-3h3.17v-6.87h3.39v6.87h7.21v3h-7.21Z"/><path class="cls-1" d="M308.53,335.32a11.88,11.88,0,1,1,9.11-19.71L315.4,318c-1.81-1.9-3.83-3.44-6.91-3.44-4.62,0-8.14,3.92-8.14,8.85s3.61,8.88,8.36,8.88a9.4,9.4,0,0,0,7-3.38l2.16,2A11.74,11.74,0,0,1,308.53,335.32Z"/><path class="cls-1" d="M332.81,332.37a9.41,9.41,0,0,0,7.17-3.21l2.12,1.89a11.75,11.75,0,0,1-9.37,4.27c-6.25,0-11.35-4.8-11.35-11.88,0-6.6,4.62-11.88,10.91-11.88,6.73,0,10.6,5.37,10.6,12.06a8,8,0,0,1-.05,1.05h-18C325.29,329.6,328.81,332.37,332.81,332.37Zm6.65-10.2c-.36-4.14-2.73-7.75-7.26-7.75-4,0-6.95,3.3-7.39,7.75Z"/><path class="cls-1" d="M348.52,334.79V302.68h3.38v32.11Z"/><path class="cls-1" d="M359.47,334.79V302.68h3.38v32.11Z"/><path class="cls-1" d="M380.14,332.37a9.44,9.44,0,0,0,7.17-3.21l2.11,1.89a11.74,11.74,0,0,1-9.37,4.27c-6.24,0-11.35-4.8-11.35-11.88,0-6.6,4.62-11.88,10.91-11.88,6.73,0,10.6,5.37,10.6,12.06a10,10,0,0,1,0,1.05h-18C372.62,329.6,376.14,332.37,380.14,332.37Zm6.64-10.2c-.35-4.14-2.72-7.75-7.26-7.75-3.95,0-6.95,3.3-7.39,7.75Z"/><path class="cls-1" d="M403.06,335.23a15.69,15.69,0,0,1-9.42-3.34l1.72-2.42a13.33,13.33,0,0,0,7.87,2.9c2.73,0,4.71-1.41,4.71-3.61v-.09c0-2.28-2.68-3.16-5.67-4-3.57-1-7.53-2.24-7.53-6.42v-.09c0-3.91,3.26-6.51,7.75-6.51a15.54,15.54,0,0,1,8.18,2.51l-1.54,2.55a12.89,12.89,0,0,0-6.73-2.2c-2.69,0-4.4,1.41-4.4,3.3v.09c0,2.15,2.81,3,5.85,3.91,3.52,1.06,7.3,2.42,7.3,6.51v.09C411.15,332.72,407.59,335.23,403.06,335.23Z"/><path class="cls-1" d="M447.66,341.83V330.21c-1.85,2.73-4.53,5.06-8.71,5.06-5.46,0-10.87-4.31-10.87-11.83s5.41-11.88,10.87-11.88a10.27,10.27,0,0,1,8.71,4.84v-4.35h3.39v29.78Zm-8.1-27.23c-4.39,0-8,3.25-8,8.8s3.69,8.84,8,8.84a8.84,8.84,0,0,0,0-17.64Z"/><path class="cls-1" d="M474.14,312.05h3.34v22.74h-3.34v-4a8.67,8.67,0,0,1-7.79,4.44c-5.5,0-8.71-3.69-8.71-9.1V312.05H461v13.28c0,4.22,2.29,6.86,6.29,6.86s6.82-2.86,6.82-7.12Z"/><path class="cls-1" d="M484.56,307.08v-3.74h3.87v3.74Zm.22,27.71V312.05h3.39v22.74Z"/><path class="cls-1" d="M511.39,334.79H508V312.05h3.39V318c1.67-3.79,5-6.52,9.28-6.34v3.65h-.26c-5,0-9,3.57-9,10.43Z"/><path class="cls-1" d="M535.23,332.37a9.44,9.44,0,0,0,7.17-3.21l2.11,1.89a11.74,11.74,0,0,1-9.37,4.27c-6.24,0-11.35-4.8-11.35-11.88,0-6.6,4.62-11.88,10.91-11.88,6.73,0,10.61,5.37,10.61,12.06a8,8,0,0,1,0,1.05h-18C527.71,329.6,531.23,332.37,535.23,332.37Zm6.64-10.2c-.35-4.14-2.72-7.75-7.25-7.75-4,0-7,3.3-7.39,7.75Zm-9.28-13.55,4.18-6.38,3.52,1.62-5,4.76Z"/><path class="cls-1" d="M562.72,335.27a10.25,10.25,0,0,1-8.71-4.84v11.4h-3.38V312.05H554v4.57c1.85-2.73,4.53-5.06,8.71-5.06,5.46,0,10.87,4.31,10.87,11.84S568.22,335.27,562.72,335.27Zm-.61-20.67a8.84,8.84,0,0,0,0,17.64c4.4,0,8-3.26,8-8.8S566.42,314.6,562.11,314.6Z"/><path class="cls-1" d="M589.6,335.32a11.66,11.66,0,0,1-11.79-11.84,11.86,11.86,0,1,1,11.79,11.84Zm0-20.77c-4.93,0-8.32,3.92-8.32,8.85s3.61,8.88,8.41,8.88,8.35-3.91,8.35-8.8S594.39,314.55,589.6,314.55Z"/><path class="cls-1" d="M610.4,334.79H607V312.05h3.39v4a8.61,8.61,0,0,1,7.79-4.45c5.5,0,8.71,3.7,8.71,9.11v14.12h-3.39V321.5c0-4.22-2.29-6.86-6.29-6.86s-6.82,2.86-6.82,7.13Z"/><path class="cls-1" d="M651.75,334.79v-4.58c-1.85,2.73-4.53,5.06-8.71,5.06-5.45,0-10.87-4.31-10.87-11.83s5.42-11.88,10.87-11.88a10.27,10.27,0,0,1,8.71,4.84V302.68h3.39v32.11Zm-8.09-20.19c-4.4,0-8,3.25-8,8.8s3.7,8.84,8,8.84a8.84,8.84,0,0,0,0-17.64Z"/><path class="cls-1" d="M672.11,332.37a9.41,9.41,0,0,0,7.17-3.21l2.12,1.89a11.75,11.75,0,0,1-9.37,4.27c-6.25,0-11.35-4.8-11.35-11.88,0-6.6,4.62-11.88,10.91-11.88,6.73,0,10.6,5.37,10.6,12.06a8,8,0,0,1-.05,1.05h-18C664.59,329.6,668.11,332.37,672.11,332.37Zm6.65-10.2c-.36-4.14-2.73-7.75-7.26-7.75-4,0-7,3.3-7.39,7.75Z"/><path class="cls-1" d="M690.9,334.79h-3.39V312.05h3.39v4a8.59,8.59,0,0,1,7.78-4.45c5.5,0,8.71,3.7,8.71,9.11v14.12H704V321.5c0-4.22-2.28-6.86-6.29-6.86s-6.81,2.86-6.81,7.13Z"/><path class="cls-1" d="M718.56,328.32c0,2.77,1.54,3.79,3.83,3.79a7.06,7.06,0,0,0,3.3-.8v2.91a8.58,8.58,0,0,1-4.09,1c-3.65,0-6.42-1.81-6.42-6.43V315H712v-3h3.17v-6.87h3.38v6.87h7.22v3h-7.22Z"/><path class="cls-1" d="M745,316.4l-1-2.77a18.84,18.84,0,0,1,8.27-1.89c6.2,0,9.68,3.17,9.68,9.15v13.9h-3.26v-3.43a9.94,9.94,0,0,1-8.22,3.91c-4.23,0-8.49-2.37-8.49-7.12s4-7.39,9.72-7.39a24.2,24.2,0,0,1,7,1v-.79c0-4.09-2.51-6.2-6.77-6.2A15.79,15.79,0,0,0,745,316.4Zm.4,11.62c0,2.9,2.64,4.57,5.72,4.57,4.17,0,7.61-2.55,7.61-6.16v-2.2a23.94,23.94,0,0,0-6.69-1C747.81,323.26,745.44,325.11,745.44,328Z"/><path class="cls-1" d="M784.72,312.05h3.34v22.74h-3.34v-4a8.67,8.67,0,0,1-7.79,4.44c-5.5,0-8.71-3.69-8.71-9.1V312.05h3.39v13.28c0,4.22,2.29,6.86,6.29,6.86s6.82-2.86,6.82-7.12Z"/><path class="cls-1" d="M814.8,334.79h-3.91l-7-9.28-7.08,9.28H793l8.94-11.57-8.58-11.17h3.87l6.73,8.79,6.73-8.79h3.78l-8.62,11.08Z"/><path class="cls-1" d="M71.54,385.15a9.37,9.37,0,0,0,7.17-3.21l2.11,1.89a11.69,11.69,0,0,1-9.37,4.27c-6.24,0-11.35-4.79-11.35-11.88,0-6.6,4.62-11.87,10.91-11.87,6.74,0,10.61,5.36,10.61,12a8.19,8.19,0,0,1-.05,1.06h-18C64,382.38,67.54,385.15,71.54,385.15ZM78.19,375c-.36-4.14-2.73-7.74-7.26-7.74-4,0-7,3.29-7.39,7.74Z"/><path class="cls-1" d="M106.69,387.57h-3.92l-7-9.28-7.08,9.28H84.87L93.8,376l-8.58-11.17h3.87l6.73,8.8,6.73-8.8h3.79l-8.63,11.09Z"/><path class="cls-1" d="M111.66,359.86v-3.74h3.87v3.74Zm.22,27.71V364.83h3.38v22.74Z"/><path class="cls-1" d="M132.59,394.7a17.82,17.82,0,0,1-10.33-3.17l1.54-2.64a14.51,14.51,0,0,0,8.75,2.91c5,0,8.27-2.77,8.27-8.1V381a10.78,10.78,0,0,1-8.93,4.79,10.73,10.73,0,0,1,0-21.46,10.67,10.67,0,0,1,8.89,4.57v-4.09h3.38v18.78C144.16,391,139.59,394.7,132.59,394.7Zm0-27.36c-4.31,0-7.87,3-7.87,7.7a7.68,7.68,0,0,0,7.87,7.78c4.31,0,8.36-3.08,8.36-7.74S136.86,367.34,132.55,367.34Z"/><path class="cls-1" d="M161.14,385.15a9.4,9.4,0,0,0,7.17-3.21l2.11,1.89a11.72,11.72,0,0,1-9.37,4.27c-6.24,0-11.35-4.79-11.35-11.88,0-6.6,4.62-11.87,10.91-11.87,6.73,0,10.6,5.36,10.6,12a10.22,10.22,0,0,1,0,1.06h-18C153.62,382.38,157.14,385.15,161.14,385.15Zm6.64-10.2c-.35-4.14-2.72-7.74-7.26-7.74-4,0-7,3.29-7.39,7.74Z"/><path class="cls-1" d="M179.92,387.57h-3.39V364.83h3.39v4a8.62,8.62,0,0,1,7.79-4.44c5.5,0,8.71,3.69,8.71,9.1v14.12H193V374.29c0-4.23-2.29-6.86-6.29-6.86s-6.82,2.86-6.82,7.12Z"/><path class="cls-1" d="M213.26,388.1a11.88,11.88,0,1,1,9.11-19.71l-2.24,2.38c-1.81-1.89-3.83-3.43-6.91-3.43-4.62,0-8.14,3.91-8.14,8.84s3.61,8.89,8.36,8.89a9.4,9.4,0,0,0,6.95-3.39l2.16,2A11.74,11.74,0,0,1,213.26,388.1Z"/><path class="cls-1" d="M237.54,385.15a9.37,9.37,0,0,0,7.17-3.21l2.12,1.89a11.72,11.72,0,0,1-9.37,4.27c-6.25,0-11.35-4.79-11.35-11.88,0-6.6,4.61-11.87,10.91-11.87,6.73,0,10.6,5.36,10.6,12a8.19,8.19,0,0,1-.05,1.06h-18C230,382.38,233.54,385.15,237.54,385.15Zm6.65-10.2c-.36-4.14-2.73-7.74-7.26-7.74-4,0-7,3.29-7.39,7.74Z"/><path class="cls-1" d="M260.46,388a15.6,15.6,0,0,1-9.41-3.34l1.71-2.42a13.27,13.27,0,0,0,7.88,2.9c2.72,0,4.7-1.4,4.7-3.6v-.09c0-2.29-2.68-3.17-5.67-4-3.57-1-7.52-2.25-7.52-6.43v-.09c0-3.91,3.25-6.51,7.74-6.51a15.54,15.54,0,0,1,8.18,2.51l-1.54,2.55a12.89,12.89,0,0,0-6.73-2.2c-2.68,0-4.4,1.41-4.4,3.3v.09c0,2.16,2.82,3,5.85,3.92,3.52,1,7.3,2.42,7.3,6.51v.08C268.55,385.51,265,388,260.46,388Z"/><path class="cls-1" d="M305.06,387.57V383c-1.85,2.73-4.53,5.06-8.71,5.06-5.45,0-10.87-4.31-10.87-11.84s5.42-11.87,10.87-11.87a10.26,10.26,0,0,1,8.71,4.83V355.46h3.39v32.11ZM297,367.38c-4.4,0-8,3.26-8,8.8s3.7,8.84,8,8.84a8.84,8.84,0,0,0,0-17.64Z"/><path class="cls-1" d="M331.54,364.83h3.34v22.74h-3.34v-4a8.66,8.66,0,0,1-7.79,4.45c-5.5,0-8.71-3.7-8.71-9.11V364.83h3.39v13.29c0,4.22,2.29,6.86,6.29,6.86s6.82-2.86,6.82-7.13Z"/><path class="cls-1" d="M364.7,388.1a11.88,11.88,0,1,1,9.11-19.71l-2.24,2.38c-1.81-1.89-3.83-3.43-6.91-3.43-4.62,0-8.14,3.91-8.14,8.84s3.61,8.89,8.36,8.89a9.4,9.4,0,0,0,6.95-3.39l2.16,2A11.74,11.74,0,0,1,364.7,388.1Z"/><path class="cls-1" d="M389.34,388.1a11.88,11.88,0,1,1,11.92-11.92A11.82,11.82,0,0,1,389.34,388.1Zm0-20.76c-4.93,0-8.32,3.91-8.32,8.84s3.61,8.89,8.4,8.89,8.36-3.92,8.36-8.8S394.13,367.34,389.34,367.34Z"/><path class="cls-1" d="M410.14,387.57h-3.39V364.83h3.39v4a8.62,8.62,0,0,1,7.79-4.44c5.5,0,8.71,3.69,8.71,9.1v14.12h-3.39V374.29c0-4.23-2.29-6.86-6.29-6.86s-6.82,2.86-6.82,7.12Z"/><path class="cls-1" d="M443.48,388.1a11.88,11.88,0,1,1,9.11-19.71l-2.25,2.38c-1.8-1.89-3.82-3.43-6.9-3.43-4.62,0-8.14,3.91-8.14,8.84s3.61,8.89,8.36,8.89a9.42,9.42,0,0,0,6.95-3.39l2.15,2A11.7,11.7,0,0,1,443.48,388.1Z"/><path class="cls-1" d="M468.11,388.1A11.88,11.88,0,1,1,480,376.18,11.82,11.82,0,0,1,468.11,388.1Zm0-20.76c-4.92,0-8.31,3.91-8.31,8.84s3.61,8.89,8.4,8.89,8.36-3.92,8.36-8.8S472.91,367.34,468.11,367.34Z"/><path class="cls-1" d="M501.68,364.83H505v22.74h-3.34v-4a8.67,8.67,0,0,1-7.79,4.45c-5.5,0-8.71-3.7-8.71-9.11V364.83h3.39v13.29c0,4.22,2.28,6.86,6.29,6.86s6.82-2.86,6.82-7.13Z"/><path class="cls-1" d="M515.4,387.57H512V364.83h3.39v5.94c1.67-3.78,5-6.51,9.28-6.34v3.65h-.26c-5,0-9,3.57-9,10.43Z"/><path class="cls-1" d="M536.73,388a15.62,15.62,0,0,1-9.41-3.34l1.71-2.42a13.29,13.29,0,0,0,7.88,2.9c2.72,0,4.7-1.4,4.7-3.6v-.09c0-2.29-2.68-3.17-5.67-4-3.56-1-7.52-2.25-7.52-6.43v-.09c0-3.91,3.25-6.51,7.74-6.51a15.54,15.54,0,0,1,8.18,2.51l-1.54,2.55a12.89,12.89,0,0,0-6.73-2.2c-2.68,0-4.4,1.41-4.4,3.3v.09c0,2.16,2.82,3,5.85,3.92,3.52,1,7.31,2.42,7.31,6.51v.08C544.83,385.51,541.26,388,536.73,388Z"/><path class="cls-1" d="M551.69,387.57H550.1V383h4v4c0,3.57-1.54,5.28-4.88,6l-.53-1.54C550.94,390.61,551.86,389.46,551.69,387.57Z"/><path class="cls-1" d="M573.54,387.57V355.46h3.39v32.11Z"/><path class="cls-1" d="M594.22,385.15a9.4,9.4,0,0,0,7.17-3.21l2.11,1.89a11.72,11.72,0,0,1-9.37,4.27c-6.25,0-11.35-4.79-11.35-11.88,0-6.6,4.62-11.87,10.91-11.87,6.73,0,10.6,5.36,10.6,12a10.22,10.22,0,0,1,0,1.06h-18C586.7,382.38,590.22,385.15,594.22,385.15Zm6.64-10.2c-.35-4.14-2.73-7.74-7.26-7.74-4,0-7,3.29-7.39,7.74Z"/><path class="cls-1" d="M625.89,364.83v24.06c0,4-2.11,5.85-5.55,5.85a8.22,8.22,0,0,1-2.11-.22v-2.77a10.9,10.9,0,0,0,1.67.13c1.54,0,2.6-.92,2.6-3v-24Zm-3.61-5v-3.74h3.87v3.74Z"/><path class="cls-1" d="M649.29,364.83h3.34v22.74h-3.34v-4a8.66,8.66,0,0,1-7.79,4.45c-5.5,0-8.71-3.7-8.71-9.11V364.83h3.39v13.29c0,4.22,2.29,6.86,6.29,6.86s6.82-2.86,6.82-7.13Z"/><path class="cls-1" d="M663,387.57h-3.39V364.83H663v5.94c1.67-3.78,5-6.51,9.28-6.34v3.65H672c-5,0-9,3.57-9,10.43Z"/><path class="cls-1" d="M687.91,388.32c-1.94,4.71-4.14,6.42-7.57,6.42a10.32,10.32,0,0,1-4.84-1.14l1.15-2.68a7.1,7.1,0,0,0,3.56.83c2,0,3.3-1.05,4.66-4.26l-10.34-22.66h3.74l8.27,19,7.31-19h3.6Z"/><path class="cls-1" d="M61.6,412.64V408.9h3.87v3.74Zm.22,27.72V417.61h3.39v22.75Z"/><path class="cls-1" d="M75.85,440.36H72.46V417.61h3.39v4a8.62,8.62,0,0,1,7.79-4.44c5.5,0,8.71,3.69,8.71,9.11v14.12H89V427.07c0-4.22-2.29-6.86-6.29-6.86s-6.82,2.86-6.82,7.12Z"/><path class="cls-1" d="M103.52,433.89c0,2.77,1.54,3.78,3.83,3.78a7.16,7.16,0,0,0,3.3-.79v2.9a8.51,8.51,0,0,1-4.1,1c-3.65,0-6.42-1.8-6.42-6.42V420.6H97v-3h3.17v-6.86h3.39v6.86h7.21v3h-7.21Z"/><path class="cls-1" d="M126.13,437.94a9.44,9.44,0,0,0,7.17-3.21l2.11,1.89a11.74,11.74,0,0,1-9.37,4.26c-6.25,0-11.35-4.79-11.35-11.87,0-6.6,4.62-11.88,10.91-11.88,6.73,0,10.6,5.37,10.6,12.05a10.22,10.22,0,0,1,0,1.06h-18C118.61,435.17,122.12,437.94,126.13,437.94Zm6.64-10.21c-.35-4.13-2.73-7.74-7.26-7.74-4,0-7,3.3-7.39,7.74Z"/><path class="cls-1" d="M144.91,440.36h-3.39V417.61h3.39v5.94c1.67-3.78,5-6.51,9.28-6.33v3.65h-.26c-5,0-9,3.56-9,10.42Z"/><path class="cls-1" d="M175.57,417.61h3.65l-9.9,22.92h-3l-9.85-22.92h3.74l7.65,18.88Z"/><path class="cls-1" d="M184,412.64V408.9h3.87v3.74Zm.22,27.72V417.61h3.39v22.75Z"/><path class="cls-1" d="M204.9,437.94a9.44,9.44,0,0,0,7.18-3.21l2.11,1.89a11.74,11.74,0,0,1-9.37,4.26c-6.25,0-11.35-4.79-11.35-11.87,0-6.6,4.62-11.88,10.91-11.88,6.73,0,10.6,5.37,10.6,12.05a10.22,10.22,0,0,1,0,1.06h-18C197.38,435.17,200.9,437.94,204.9,437.94Zm6.65-10.21c-.35-4.13-2.73-7.74-7.26-7.74-4,0-6.95,3.3-7.39,7.74Z"/><path class="cls-1" d="M223.69,440.36H220.3V417.61h3.39v4a8.61,8.61,0,0,1,7.78-4.44c5.5,0,8.71,3.69,8.71,9.11v14.12H236.8V427.07c0-4.22-2.29-6.86-6.3-6.86s-6.81,2.86-6.81,7.12Z"/><path class="cls-1" d="M251.35,433.89c0,2.77,1.54,3.78,3.83,3.78a7.16,7.16,0,0,0,3.3-.79v2.9a8.47,8.47,0,0,1-4.09,1c-3.65,0-6.42-1.8-6.42-6.42V420.6H244.8v-3H248v-6.86h3.38v6.86h7.22v3h-7.22Z"/><path class="cls-1" d="M277.83,422l-1-2.77a18.7,18.7,0,0,1,8.27-1.9c6.2,0,9.68,3.17,9.68,9.16v13.9h-3.26v-3.44a10,10,0,0,1-8.22,3.92c-4.23,0-8.49-2.38-8.49-7.13s4-7.39,9.72-7.39a24.17,24.17,0,0,1,7,1v-.79c0-4.09-2.5-6.2-6.77-6.2A15.79,15.79,0,0,0,277.83,422Zm.4,11.61c0,2.91,2.64,4.58,5.72,4.58,4.18,0,7.61-2.55,7.61-6.16v-2.2a23.52,23.52,0,0,0-6.69-1C280.6,428.83,278.23,430.68,278.23,433.58Zm1-24.15,3.52-1.63,4.18,6.38h-2.73Z"/><path class="cls-1" d="M314.25,440.36V408.24h3.39v32.12Z"/><path class="cls-1" d="M326.3,414.18h-1.58v-4.62h4v4c0,3.56-1.54,5.28-4.89,6l-.52-1.54C325.55,417.22,326.48,416.07,326.3,414.18Z"/><path class="cls-1" d="M345.09,437.94a9.44,9.44,0,0,0,7.17-3.21l2.11,1.89a11.74,11.74,0,0,1-9.37,4.26c-6.25,0-11.35-4.79-11.35-11.87,0-6.6,4.62-11.88,10.91-11.88,6.73,0,10.6,5.37,10.6,12.05a10.22,10.22,0,0,1,0,1.06h-18C337.56,435.17,341.08,437.94,345.09,437.94Zm6.64-10.21c-.35-4.13-2.73-7.74-7.26-7.74-4,0-7,3.3-7.39,7.74Zm-9.28-13.55,4.18-6.38,3.51,1.63-5,4.75Z"/><path class="cls-1" d="M365.05,433.89c0,2.77,1.54,3.78,3.83,3.78a7.16,7.16,0,0,0,3.3-.79v2.9a8.47,8.47,0,0,1-4.09,1c-3.65,0-6.42-1.8-6.42-6.42V420.6H358.5v-3h3.17v-6.86h3.38v6.86h7.22v3h-7.22Z"/><path class="cls-1" d="M379,422l-1-2.77a18.7,18.7,0,0,1,8.27-1.9c6.2,0,9.68,3.17,9.68,9.16v13.9h-3.26v-3.44a10,10,0,0,1-8.22,3.92c-4.23,0-8.49-2.38-8.49-7.13s4-7.39,9.72-7.39a24.17,24.17,0,0,1,7,1v-.79c0-4.09-2.5-6.2-6.77-6.2A15.83,15.83,0,0,0,379,422Zm.4,11.61c0,2.91,2.64,4.58,5.72,4.58,4.18,0,7.61-2.55,7.61-6.16v-2.2a23.52,23.52,0,0,0-6.69-1C381.72,428.83,379.35,430.68,379.35,433.58Z"/><path class="cls-1" d="M414.58,440.84a10.27,10.27,0,0,1-8.71-4.84v11.4h-3.38V417.61h3.38v4.58c1.85-2.73,4.53-5.06,8.71-5.06,5.46,0,10.87,4.31,10.87,11.83S420.08,440.84,414.58,440.84ZM414,420.16a8.84,8.84,0,0,0,0,17.64c4.4,0,8-3.25,8-8.79S418.28,420.16,414,420.16Z"/><path class="cls-1" d="M441.11,437.94a9.44,9.44,0,0,0,7.17-3.21l2.11,1.89a11.74,11.74,0,0,1-9.37,4.26c-6.25,0-11.35-4.79-11.35-11.87,0-6.6,4.62-11.88,10.91-11.88,6.73,0,10.6,5.37,10.6,12.05a10.22,10.22,0,0,1,0,1.06h-18C433.58,435.17,437.1,437.94,441.11,437.94Zm6.64-10.21c-.35-4.13-2.73-7.74-7.26-7.74-4,0-6.95,3.3-7.39,7.74Z"/><path class="cls-1" d="M476.6,440.8a15.63,15.63,0,0,1-9.41-3.35L468.9,435a13.3,13.3,0,0,0,7.88,2.91c2.72,0,4.7-1.41,4.7-3.61v-.09c0-2.29-2.68-3.17-5.67-4-3.56-1-7.52-2.24-7.52-6.42v-.09c0-3.92,3.25-6.51,7.74-6.51a15.53,15.53,0,0,1,8.18,2.5l-1.54,2.56a12.8,12.8,0,0,0-6.73-2.2c-2.68,0-4.4,1.4-4.4,3.3v.08c0,2.16,2.82,3,5.85,3.92,3.52,1.05,7.31,2.42,7.31,6.51V434C484.7,438.29,481.13,440.8,476.6,440.8Z"/><path class="cls-1" d="M506.51,417.61h3.35v22.75h-3.35v-4a8.66,8.66,0,0,1-7.78,4.44c-5.5,0-8.71-3.69-8.71-9.11V417.61h3.38V430.9c0,4.22,2.29,6.86,6.29,6.86s6.82-2.86,6.82-7.13Z"/><path class="cls-1" d="M516.93,412.64V408.9h3.88v3.74Zm.22,27.72V417.61h3.39v22.75Z"/><path class="cls-1" d="M544.65,417.61h3.65l-9.9,22.92h-3l-9.86-22.92h3.74L537,436.49Z"/><path class="cls-1" d="M554.32,422l-1-2.77a18.7,18.7,0,0,1,8.27-1.9c6.2,0,9.68,3.17,9.68,9.16v13.9H568v-3.44a10,10,0,0,1-8.22,3.92c-4.23,0-8.49-2.38-8.49-7.13s4-7.39,9.72-7.39a24.17,24.17,0,0,1,7,1v-.79c0-4.09-2.5-6.2-6.77-6.2A15.79,15.79,0,0,0,554.32,422Zm.4,11.61c0,2.91,2.64,4.58,5.72,4.58,4.18,0,7.61-2.55,7.61-6.16v-2.2a23.52,23.52,0,0,0-6.69-1C557.09,428.83,554.72,430.68,554.72,433.58Z"/><path class="cls-1" d="M581.24,440.36h-3.39V417.61h3.39v4a8.62,8.62,0,0,1,7.79-4.44c5.5,0,8.71,3.69,8.71,9.11v14.12h-3.39V427.07c0-4.22-2.29-6.86-6.29-6.86s-6.82,2.86-6.82,7.12Z"/><path class="cls-1" d="M608.91,433.89c0,2.77,1.54,3.78,3.83,3.78a7.16,7.16,0,0,0,3.3-.79v2.9a8.51,8.51,0,0,1-4.1,1c-3.65,0-6.42-1.8-6.42-6.42V420.6h-3.17v-3h3.17v-6.86h3.39v6.86h7.21v3h-7.21Z"/><path class="cls-1" d="M631.52,437.94a9.44,9.44,0,0,0,7.17-3.21l2.11,1.89a11.74,11.74,0,0,1-9.37,4.26c-6.25,0-11.35-4.79-11.35-11.87,0-6.6,4.62-11.88,10.91-11.88,6.73,0,10.6,5.37,10.6,12.05a10.22,10.22,0,0,1,0,1.06h-18C624,435.17,627.51,437.94,631.52,437.94Zm6.64-10.21c-.35-4.13-2.73-7.74-7.26-7.74-4,0-6.95,3.3-7.39,7.74Z"/><path class="cls-1" d="M671.59,440.84a10.27,10.27,0,0,1-8.71-4.84v11.4h-3.39V417.61h3.39v4.58c1.85-2.73,4.53-5.06,8.71-5.06,5.45,0,10.86,4.31,10.86,11.83S677.09,440.84,671.59,440.84ZM671,420.16a8.84,8.84,0,0,0,0,17.64c4.4,0,8-3.25,8-8.79S675.28,420.16,671,420.16Z"/><path class="cls-1" d="M698.46,440.88a11.66,11.66,0,0,1-11.79-11.83,11.86,11.86,0,1,1,11.79,11.83Zm0-20.76c-4.92,0-8.31,3.92-8.31,8.84s3.61,8.89,8.4,8.89,8.36-3.92,8.36-8.8S703.26,420.12,698.46,420.12Z"/><path class="cls-1" d="M732,417.61h3.35v22.75H732v-4a8.66,8.66,0,0,1-7.78,4.44c-5.5,0-8.71-3.69-8.71-9.11V417.61h3.39V430.9c0,4.22,2.28,6.86,6.29,6.86s6.81-2.86,6.81-7.13Z"/><path class="cls-1" d="M745.75,440.36h-3.39V417.61h3.39v5.94c1.67-3.78,5-6.51,9.28-6.33v3.65h-.27c-5,0-9,3.56-9,10.42Z"/><path class="cls-1" d="M64.9,493.14H61.51V470.4H64.9v4a8.62,8.62,0,0,1,7.79-4.44c5.5,0,8.71,3.7,8.71,9.11v14.12H78V479.85c0-4.22-2.29-6.86-6.29-6.86s-6.82,2.86-6.82,7.13Z"/><path class="cls-1" d="M98.37,493.67a11.67,11.67,0,0,1-11.79-11.84,11.86,11.86,0,1,1,11.79,11.84Zm0-20.77c-4.92,0-8.31,3.92-8.31,8.85s3.61,8.88,8.4,8.88,8.36-3.91,8.36-8.8S103.17,472.9,98.37,472.9Z"/><path class="cls-1" d="M120.37,486.67c0,2.77,1.54,3.79,3.82,3.79a7,7,0,0,0,3.3-.8v2.91a8.58,8.58,0,0,1-4.09,1c-3.65,0-6.42-1.8-6.42-6.42V473.39h-3.17v-3H117v-6.87h3.39v6.87h7.21v3h-7.21Z"/><path class="cls-1" d="M134.27,474.75l-1-2.77a18.7,18.7,0,0,1,8.27-1.89c6.21,0,9.68,3.16,9.68,9.15v13.9H148v-3.43a10,10,0,0,1-8.23,3.91c-4.22,0-8.49-2.37-8.49-7.12s4-7.39,9.72-7.39a24.33,24.33,0,0,1,7,1v-.79c0-4.09-2.51-6.2-6.78-6.2A15.78,15.78,0,0,0,134.27,474.75Zm.39,11.61c0,2.91,2.64,4.58,5.72,4.58,4.18,0,7.61-2.55,7.61-6.16v-2.2a23.82,23.82,0,0,0-6.69-1C137,481.61,134.66,483.46,134.66,486.36Z"/><path class="cls-1" d="M162.37,486.67c0,2.77,1.54,3.79,3.83,3.79a7.06,7.06,0,0,0,3.3-.8v2.91a8.58,8.58,0,0,1-4.09,1c-3.65,0-6.43-1.8-6.43-6.42V473.39h-3.16v-3H159v-6.87h3.39v6.87h7.22v3h-7.22Z"/><path class="cls-1" d="M175,465.42v-3.74h3.87v3.74Zm.22,27.72V470.4h3.39v22.74Z"/><path class="cls-1" d="M196.28,493.67a11.66,11.66,0,0,1-11.78-11.84,11.86,11.86,0,1,1,11.78,11.84Zm0-20.77c-4.92,0-8.31,3.92-8.31,8.85s3.61,8.88,8.4,8.88,8.36-3.91,8.36-8.8S201.08,472.9,196.28,472.9Z"/><path class="cls-1" d="M217.09,493.14H213.7V470.4h3.39v4a8.61,8.61,0,0,1,7.79-4.44c5.49,0,8.71,3.7,8.71,9.11v14.12H230.2V479.85c0-4.22-2.29-6.86-6.29-6.86s-6.82,2.86-6.82,7.13Z"/><path class="cls-1" d="M262.79,490.72a9.44,9.44,0,0,0,7.17-3.21l2.11,1.89a11.74,11.74,0,0,1-9.37,4.27c-6.24,0-11.35-4.8-11.35-11.88,0-6.6,4.62-11.88,10.91-11.88,6.73,0,10.6,5.37,10.6,12a10.22,10.22,0,0,1,0,1.06h-18C255.27,488,258.79,490.72,262.79,490.72Zm6.64-10.21c-.35-4.13-2.72-7.74-7.26-7.74-3.95,0-7,3.3-7.39,7.74Z"/><path class="cls-1" d="M282.76,486.67c0,2.77,1.54,3.79,3.83,3.79a7.06,7.06,0,0,0,3.3-.8v2.91a8.62,8.62,0,0,1-4.1,1c-3.65,0-6.42-1.8-6.42-6.42V473.39H276.2v-3h3.17v-6.87h3.39v6.87H290v3h-7.21Z"/><path class="cls-1" d="M318,490.72a9.44,9.44,0,0,0,7.17-3.21l2.11,1.89a11.75,11.75,0,0,1-9.37,4.27c-6.25,0-11.35-4.8-11.35-11.88,0-6.6,4.62-11.88,10.91-11.88,6.73,0,10.6,5.37,10.6,12a10.22,10.22,0,0,1,0,1.06h-18C310.43,488,313.94,490.72,318,490.72Zm6.64-10.21c-.35-4.13-2.73-7.74-7.26-7.74-4,0-6.95,3.3-7.39,7.74ZM315.31,467l4.18-6.38,3.52,1.63L318,467Z"/><path class="cls-1" d="M350.19,470.4h3.65l-9.9,22.91h-3L331.1,470.4h3.74l7.65,18.87Z"/><path class="cls-1" d="M359.87,474.75l-1-2.77a18.7,18.7,0,0,1,8.27-1.89c6.21,0,9.68,3.16,9.68,9.15v13.9h-3.25v-3.43a10,10,0,0,1-8.23,3.91c-4.22,0-8.49-2.37-8.49-7.12s4-7.39,9.72-7.39a24.28,24.28,0,0,1,7,1v-.79c0-4.09-2.51-6.2-6.78-6.2A15.78,15.78,0,0,0,359.87,474.75Zm.39,11.61c0,2.91,2.64,4.58,5.72,4.58,4.18,0,7.61-2.55,7.61-6.16v-2.2a23.82,23.82,0,0,0-6.69-1C362.64,481.61,360.26,483.46,360.26,486.36Z"/><path class="cls-1" d="M383.71,493.14V461h3.38v32.11Z"/><path class="cls-1" d="M410.49,470.4h3.35v22.74h-3.35v-4a8.66,8.66,0,0,1-7.78,4.44c-5.5,0-8.71-3.69-8.71-9.1V470.4h3.38v13.28c0,4.22,2.29,6.86,6.29,6.86s6.82-2.86,6.82-7.12Z"/><path class="cls-1" d="M422.15,474.75l-1-2.77a18.67,18.67,0,0,1,8.27-1.89c6.2,0,9.67,3.16,9.67,9.15v13.9h-3.25v-3.43a10,10,0,0,1-8.23,3.91c-4.22,0-8.49-2.37-8.49-7.12s4-7.39,9.72-7.39a24.22,24.22,0,0,1,7,1v-.79c0-4.09-2.51-6.2-6.78-6.2A15.78,15.78,0,0,0,422.15,474.75Zm.39,11.61c0,2.91,2.64,4.58,5.72,4.58,4.18,0,7.61-2.55,7.61-6.16v-2.2a23.8,23.8,0,0,0-6.68-1C424.92,481.61,422.54,483.46,422.54,486.36Z"/><path class="cls-1" d="M450.26,486.67c0,2.77,1.53,3.79,3.82,3.79a7,7,0,0,0,3.3-.8v2.91a8.58,8.58,0,0,1-4.09,1c-3.65,0-6.42-1.8-6.42-6.42V473.39H443.7v-3h3.17v-6.87h3.39v6.87h7.21v3h-7.21Z"/><path class="cls-1" d="M462.92,465.42v-3.74h3.87v3.74Zm.22,27.72V470.4h3.39v22.74Z"/><path class="cls-1" d="M484.17,493.67a11.66,11.66,0,0,1-11.79-11.84,11.86,11.86,0,1,1,11.79,11.84Zm0-20.77c-4.93,0-8.32,3.92-8.32,8.85s3.61,8.88,8.41,8.88,8.35-3.91,8.35-8.8S489,472.9,484.17,472.9Z"/><path class="cls-1" d="M505,493.14h-3.39V470.4H505v4a8.62,8.62,0,0,1,7.79-4.44c5.5,0,8.71,3.7,8.71,9.11v14.12h-3.39V479.85c0-4.22-2.29-6.86-6.29-6.86s-6.82,2.86-6.82,7.13Z"/><path class="cls-1" d="M527.67,493.14v-4.62h4.05v4.62Z"/><path class="cls-2" d="M566.56,504.53c7.74-.79,11.56-4.73,11-11.16h-7v-18h18.19v15.22c0,14.88-7.41,20.86-20.77,21.08Zm28.52,0c7.74-.79,11.56-4.73,11-11.16h-7v-18h18.19v15.22c0,14.88-7.41,20.86-20.77,21.08Z"/><path class="cls-2" d="M52.07,128.41c-7.75.79-11.57,4.73-11,11.16h7v18H29.83V142.39c0-14.89,7.41-20.86,20.78-21.09Zm-28.53,0c-7.74.79-11.56,4.73-11,11.16h7v18H1.31V142.39c0-14.89,7.41-20.86,20.77-21.09Z"/><path class="cls-1" d="M0,26.68v-.14C0,12,11,0,26.76,0,36.43,0,42.22,3.22,47,7.92L39.8,16.2c-3.95-3.59-8-5.79-13.12-5.79-8.65,0-14.88,7.18-14.88,16v.15c0,8.79,6.09,16.12,14.88,16.12,5.87,0,9.46-2.34,13.49-6l7.18,7.26c-5.27,5.64-11.14,9.16-21,9.16C11.22,53.07,0,41.42,0,26.68Z"/><path class="cls-1" d="M53.07,26.68v-.14C53.07,12,64.58,0,80.41,0s27.2,11.8,27.2,26.39v.15c0,14.58-11.51,26.53-27.34,26.53S53.07,41.27,53.07,26.68Zm42.74,0v-.14c0-8.8-6.45-16.13-15.54-16.13s-15.4,7.18-15.4,16v.15c0,8.79,6.45,16.12,15.54,16.12S95.81,35.48,95.81,26.68Z"/><path class="cls-1" d="M116.62.88h12.17l13.49,21.7L155.77.88h12.17V52.19H156.72V18.69L142.28,40.61H142l-14.3-21.7V52.19H116.62Z"/><path class="cls-1" d="M179.74.88H191V52.19H179.74Z"/><path class="cls-1" d="M214.78,11.29H199.17V.88h42.51V11.29H226.07v40.9H214.78Z"/><path class="cls-1" d="M249.31.88H288v10H260.52V21.33h24.19v10H260.52V42.15h27.86v10H249.31Z"/><path class="cls-1" d="M314.84,44.71l6.67-8C326.13,40.54,331,43,336.83,43c4.62,0,7.4-1.84,7.4-4.84V38c0-2.86-1.76-4.32-10.33-6.52-10.34-2.64-17-5.5-17-15.69v-.15c0-9.31,7.48-15.46,18-15.46a29.7,29.7,0,0,1,19.06,6.52L348,15.17c-4.54-3.15-9-5.05-13.34-5.05s-6.59,2-6.59,4.47v.14c0,3.38,2.19,4.48,11.06,6.75,10.41,2.71,16.28,6.45,16.28,15.39V37c0,10.19-7.77,15.9-18.84,15.9A32.64,32.64,0,0,1,314.84,44.71Z"/><path class="cls-1" d="M362,26.68v-.14C362,12,373,0,388.73,0,398.4,0,404.19,3.22,409,7.92l-7.18,8.28c-4-3.59-8-5.79-13.13-5.79-8.65,0-14.88,7.18-14.88,16v.15c0,8.79,6.09,16.12,14.88,16.12,5.87,0,9.46-2.34,13.49-6l7.19,7.26c-5.28,5.64-11.15,9.16-21,9.16C373.19,53.07,362,41.42,362,26.68Z"/><path class="cls-1" d="M417.83.88h11.29V52.19H417.83Z"/><path class="cls-1" d="M440.92.88h38.7v10H452.13V21.33h24.19v10H452.13V42.15H480v10H440.92Z"/><path class="cls-1" d="M489,.88h10.41l24,31.59V.88H534.6V52.19H525L500.15,19.57V52.19H489Z"/><path class="cls-1" d="M557.84,11.29H542.22V.88h42.52V11.29H569.13v40.9H557.84Z"/><path class="cls-1" d="M592.88.88h11.29V52.19H592.88Z"/><path class="cls-1" d="M616,.88H655V11.14H627.26V22.06h24.48V32.33H627.26V52.19H616Z"/><path class="cls-1" d="M663.54.88h11.29V52.19H663.54Z"/><path class="cls-1" d="M732.45,53.73l-5.65-5.06a27.92,27.92,0,0,1-15.25,4.4c-15.83,0-27.19-11.8-27.19-26.39v-.14C684.36,12,695.87,0,711.7,0s27.2,11.8,27.2,26.39v.15a26.31,26.31,0,0,1-4.55,14.73l5.28,4.47Zm-14-12.46-8.36-7.11,7.18-8.06,8.43,7.62a18,18,0,0,0,1.4-7v-.14c0-8.8-6.46-16.13-15.55-16.13s-15.39,7.18-15.39,16v.15c0,8.79,6.45,16.12,15.54,16.12A15.5,15.5,0,0,0,718.45,41.27Z"/><path class="cls-1" d="M747.11,30.2V.88H758.4v29c0,8.35,4.17,12.68,11.06,12.68s11.07-4.18,11.07-12.32V.88h11.29v29c0,15.54-8.72,23.17-22.5,23.17S747.11,45.3,747.11,30.2Z"/><path class="cls-1" d="M802.3.88H841v10H813.52V21.33h24.19v10H813.52V42.15h27.86v10H802.3Z"/></g></g></svg>