<svg xmlns="http://www.w3.org/2000/svg" viewBox="0 0 850.63 494.22"><defs><style>.cls-1{fill:#fff;}.cls-2{fill:#cd69a5;}</style></defs><g id="Layer_2" data-name="Layer 2"><g id="Layer_1-2" data-name="Layer 1"><path class="cls-1" d="M137.12,176.6a5.93,5.93,0,0,0-1.43,4.4q0,6.78,7.3,6.78a45,45,0,0,0,8.18-1l.4,2.68-1.45.31a37.85,37.85,0,0,1-7.79,1q-5,0-7.55-2.57t-2.57-7.42a9.37,9.37,0,0,1,1.5-5.67,7.43,7.43,0,0,1,4.49-2.73,21,21,0,0,1-5.07-6,13.35,13.35,0,0,1-2-5.92l-.14-3.13a23.5,23.5,0,0,1,10.87-3,24.23,24.23,0,0,1,11,3l-.14,3.13a12.16,12.16,0,0,1-1,3.89,19.61,19.61,0,0,1-2.58,4.42,19.36,19.36,0,0,1-4,4,14.78,14.78,0,0,0,5.41,1.06h4.66v3h-4.66a19.77,19.77,0,0,1-4.44-.53,17.9,17.9,0,0,1-4.19-1.5l-.57.27A6,6,0,0,0,137.12,176.6Zm-.58-10.8a18.45,18.45,0,0,0,5.39,5.35,18.28,18.28,0,0,0,5.44-5.35,12.14,12.14,0,0,0,2-6.71,21.84,21.84,0,0,0-7.48-1.63,22.07,22.07,0,0,0-7.43,1.63A12.14,12.14,0,0,0,136.54,165.8Z"/><path class="cls-1" d="M171.72,173.83v3h-16.5v-3h6.56v-19h3.39v19ZM159,180.38h3.34v3.7H159Zm5.5,0h3.34v3.7h-3.34Z"/><path class="cls-1" d="M202.26,173.83v3h-1.41a4,4,0,0,1-1.78-.47,6.29,6.29,0,0,1-1.74-1.25v1.72H171.72v-3H179a47.9,47.9,0,0,1-.61-7.7,46.92,46.92,0,0,1,.35-5.83,42.1,42.1,0,0,1,.79-4.69,16.26,16.26,0,0,1,3.08-.81,23.39,23.39,0,0,1,4.27-.38c3.58,0,6.22.89,7.92,2.65s2.55,4.69,2.55,8.8v6.29a4.43,4.43,0,0,0,3.52,1.67ZM182,170.42c.13,1.42.27,2.56.42,3.41h11.57v-8q0-4.48-1.89-6.42t-5.76-1.94a15.22,15.22,0,0,0-3.83.44,45.46,45.46,0,0,0-.71,8.23C181.75,167.57,181.82,169,182,170.42Z"/><path class="cls-1" d="M223.29,162v14.92h-21v-3H219.9V161.91a4.48,4.48,0,0,0-1.14-3.33,4.72,4.72,0,0,0-3.43-1.12c-1.32,0-3.94.24-7.84.71l-1.23.13-.13-2.51a54.62,54.62,0,0,1,9.94-1.37Q223.29,154.42,223.29,162Zm-10.43,18.43h3.35v3.7h-3.35Z"/><path class="cls-1" d="M287.71,173.83v3H260v1.75a8.26,8.26,0,0,1-1.52,5,9.2,9.2,0,0,1-4,3.1,14.39,14.39,0,0,1-5.52,1,14.13,14.13,0,0,1-5.85-1.19,10.2,10.2,0,0,1-4.18-3.32,8.11,8.11,0,0,1-1.54-4.86,48.54,48.54,0,0,1,.53-5.59q.53-3.91,1.23-8l3.26.18a122.83,122.83,0,0,0-1.63,12.63,6.5,6.5,0,0,0,1.08,3.69,7,7,0,0,0,2.9,2.51,9,9,0,0,0,4,.88,9.34,9.34,0,0,0,3.92-.83,7.34,7.34,0,0,0,2.9-2.36,5.69,5.69,0,0,0,1.1-3.41V154.87H260v7a40.87,40.87,0,0,1,3.59-4,13.37,13.37,0,0,1,3.76-2.51,12.07,12.07,0,0,1,5-1c3.7,0,6.31,1.14,7.85,3.41a13.93,13.93,0,0,1,2.31,8v8ZM266.94,159a17.1,17.1,0,0,0-3.79,3.19c-1,1.13-2,2.47-3.12,4v7.66h19.1v-7.52A10.5,10.5,0,0,0,277.3,160a6.13,6.13,0,0,0-5.3-2.53A9.16,9.16,0,0,0,266.94,159Z"/><path class="cls-1" d="M313.75,173.83v3H287.7v-3h17.65V161.91a4.44,4.44,0,0,0-1.15-3.33,4.69,4.69,0,0,0-3.43-1.12q-2,0-7.83.71l-1.23.13-.13-2.51a54.62,54.62,0,0,1,9.94-1.37q7.22,0,7.22,7.53v11.88Z"/><path class="cls-1" d="M340.42,173.83v3H313.75v-3H320c-.79-1.56-1.19-4-1.19-7.44a20.25,20.25,0,0,1,.95-7,6,6,0,0,1,3.17-3.48,15.73,15.73,0,0,1,6.31-1,53.3,53.3,0,0,1,6.07.31l1.23.13v18.48Zm-16.64,0h9.38V158c-2-.14-3.41-.22-4.23-.22a8.55,8.55,0,0,0-4.22.84,4.35,4.35,0,0,0-2,2.64,17.81,17.81,0,0,0-.55,5Q322.16,171.89,323.78,173.83Zm2.16-26.75h3.34v3.69h-3.34Z"/><path class="cls-1" d="M350.36,154.87v22h-9.94v-3H347v-19ZM347,180.38h3.35v3.7H347Z"/><path class="cls-1" d="M390.36,173.83v3H375.7a14.27,14.27,0,0,1-6.16-1.1,6.56,6.56,0,0,1-3.23-3.5,17.56,17.56,0,0,1-1-6.54,18.41,18.41,0,0,1,.95-6.55,6.57,6.57,0,0,1,3.12-3.61,12.73,12.73,0,0,1,5.87-1.15c1.09,0,2.75.06,5,.16s3.94.21,5.08.33v18.92Zm-20.93-3.39a4.86,4.86,0,0,0,2.36,2.58,10.21,10.21,0,0,0,4.49.81H382V157.77q-3.87-.27-6-.27c-2.67,0-4.55.64-5.63,1.9s-1.63,3.34-1.63,6.25A12.94,12.94,0,0,0,369.43,170.44Zm2.71-23.36h3.34v3.69h-3.34Zm5.5,0H381v3.69h-3.34Z"/><path class="cls-1" d="M406.86,173.83v3h-16.5v-3h6.55v-19h3.39v19Zm-12.72,6.55h3.34v3.7h-3.34Zm5.5,0H403v3.7h-3.34Z"/><path class="cls-1" d="M437.39,173.83v3H436a4.08,4.08,0,0,1-1.78-.47,6.29,6.29,0,0,1-1.74-1.25v1.72h-25.6v-3h7.26a46.79,46.79,0,0,1-.62-7.7,48.93,48.93,0,0,1,.35-5.83,44.58,44.58,0,0,1,.79-4.69,16.48,16.48,0,0,1,3.08-.81,23.39,23.39,0,0,1,4.27-.38c3.58,0,6.22.89,7.92,2.65s2.55,4.69,2.55,8.8v6.29a4.43,4.43,0,0,0,3.52,1.67Zm-20.31-3.41c.14,1.42.28,2.56.42,3.41h11.57v-8q0-4.48-1.89-6.42t-5.76-1.94a15.28,15.28,0,0,0-3.83.44,45.49,45.49,0,0,0-.7,8.23C416.89,167.57,417,169,417.08,170.42Z"/><path class="cls-1" d="M451.78,173.83v3H437.39v-3h5.41V145.27h3.39v28.56Z"/><path class="cls-1" d="M478.75,173.83v3h-4.62a20.07,20.07,0,0,1-4.49-.53,17.82,17.82,0,0,1-4.18-1.5,20.58,20.58,0,0,1-4.11,1.48,18.5,18.5,0,0,1-4.38.55h-5.19v-3h5.06a15.23,15.23,0,0,0,5.37-1,20.6,20.6,0,0,1-5.42-6.12,13.9,13.9,0,0,1-2.11-6.2l-.13-3.13a23.47,23.47,0,0,1,10.87-3,24.16,24.16,0,0,1,10.95,3l-.13,3.13a12.2,12.2,0,0,1-1,3.89,19.18,19.18,0,0,1-2.57,4.42,19.91,19.91,0,0,1-4,4,14.23,14.23,0,0,0,5.37,1.06Zm-18.7-8a17.48,17.48,0,0,0,5.41,5.31,18.1,18.1,0,0,0,5.41-5.33,12.1,12.1,0,0,0,2.07-6.73,17.86,17.86,0,0,0-14.91,0A12.21,12.21,0,0,0,460.05,165.84Z"/><path class="cls-1" d="M487.55,145.27v31.6h-8.8v-3h5.41V145.27Z"/><path class="cls-1" d="M495.47,145.27h3.39v31.6h-3.39Z"/><path class="cls-1" d="M539.29,173.83v3H524.64a14.27,14.27,0,0,1-6.16-1.1,6.52,6.52,0,0,1-3.23-3.5,17.56,17.56,0,0,1-1-6.54,18.66,18.66,0,0,1,.94-6.55,6.55,6.55,0,0,1,3.13-3.61,12.73,12.73,0,0,1,5.87-1.15c1.09,0,2.75.06,5,.16s3.93.21,5.08.33v18.92Zm-20.92-3.39a4.84,4.84,0,0,0,2.35,2.58,10.27,10.27,0,0,0,4.49.81h5.68V157.77c-2.58-.18-4.58-.27-6-.27-2.67,0-4.55.64-5.64,1.9s-1.63,3.34-1.63,6.25A12.92,12.92,0,0,0,518.37,170.44Zm2.71-23.36h3.34v3.69h-3.34Zm5.5,0h3.34v3.69h-3.34Z"/><path class="cls-1" d="M555.79,173.83v3h-16.5v-3h6.56v-19h3.39v19Zm-9.94-26.75h3.34v3.69h-3.34Z"/><path class="cls-1" d="M581.84,173.83v3H555.79v-3h17.65V161.91a4.48,4.48,0,0,0-1.15-3.33,4.71,4.71,0,0,0-3.43-1.12q-2,0-7.83.71l-1.23.13-.14-2.51a54.71,54.71,0,0,1,10-1.37q7.21,0,7.21,7.53v11.88Zm-14.7,6.55h3.35v3.7h-3.35Z"/><path class="cls-1" d="M596.23,173.83v3H581.84v-3h5.41V145.27h3.39v28.56Z"/><path class="cls-1" d="M605,145.27v31.6h-8.8v-3h5.41V145.27Z"/><path class="cls-1" d="M613,145.27h3.39v31.6H613Z"/><path class="cls-1" d="M651.31,157.07q2.57,2.64,2.56,8.8v11H639.7c-3.26,0-4.89,2-4.89,6a43.38,43.38,0,0,0,1.19,8.28l-2.86.08a49.7,49.7,0,0,1-1.36-9.59,9.42,9.42,0,0,1,1.08-4.95,5.61,5.61,0,0,1,2.75-2.4,43.72,43.72,0,0,1-.71-8.18,48.93,48.93,0,0,1,.35-5.83,41.8,41.8,0,0,1,.8-4.69,16.26,16.26,0,0,1,3.08-.81,23.36,23.36,0,0,1,4.26-.38C647,154.42,649.61,155.31,651.31,157.07Zm-.83,16.76v-8q0-4.48-1.89-6.42t-5.77-1.94a15.33,15.33,0,0,0-3.83.44,46.41,46.41,0,0,0-.7,8.23c0,1.44.07,2.87.2,4.29s.27,2.56.42,3.41Z"/><path class="cls-1" d="M681.45,176.87H676q-.26,5.53-2,8.22a6.26,6.26,0,0,1-5.61,2.69,53.62,53.62,0,0,1-6.65-.66v-3a44.66,44.66,0,0,0,6.43.62,4.85,4.85,0,0,0,2.48-.55,3.88,3.88,0,0,0,1.52-2.27,17,17,0,0,0,.57-5h-6.46c-3.2,0-5.32-1-6.36-3a17.23,17.23,0,0,1-1.56-7.88,23.1,23.1,0,0,1,.79-6.66,6.92,6.92,0,0,1,2.86-3.92,10.58,10.58,0,0,1,5.76-1.34c1.18,0,2.59.09,4.25.26s3,.37,4.11.58v19h5.41Zm-18.65-5.26c.76,1.48,2.32,2.22,4.66,2.22h5.19V157.37a33.5,33.5,0,0,0-4.13-.3,7.53,7.53,0,0,0-4.18,1,5.09,5.09,0,0,0-2.09,2.9,16.76,16.76,0,0,0-.6,4.91A12.44,12.44,0,0,0,662.8,171.61Z"/><path class="cls-1" d="M708.12,173.83v3H681.45v-3h6.25c-.79-1.56-1.19-4-1.19-7.44a20.25,20.25,0,0,1,1-7,6,6,0,0,1,3.17-3.48,15.73,15.73,0,0,1,6.31-1,53.3,53.3,0,0,1,6.07.31l1.24.13v18.48Zm-16.63,0h9.37V158c-2-.14-3.41-.22-4.23-.22a8.58,8.58,0,0,0-4.22.84,4.35,4.35,0,0,0-2,2.64,17.81,17.81,0,0,0-.55,5Q689.86,171.89,691.49,173.83Zm-.58-26.75h3.35v3.69h-3.35Zm5.5,0h3.35v3.69h-3.35Z"/><path class="cls-1" d="M718.06,154.87v22h-9.94v-3h6.55v-19ZM712,147.08h3.34v3.69H712Zm5.5,0h3.34v3.69h-3.34Z"/><path class="cls-1" d="M129.13,232.83v3H101.46v1.75a8.26,8.26,0,0,1-1.52,5,9.2,9.2,0,0,1-4,3.1,14.47,14.47,0,0,1-5.52,1,14.13,14.13,0,0,1-5.85-1.19,10.13,10.13,0,0,1-4.18-3.32,8.11,8.11,0,0,1-1.54-4.86,47.91,47.91,0,0,1,.52-5.59q.54-3.91,1.24-8l3.25.18a126,126,0,0,0-1.63,12.63,6.5,6.5,0,0,0,1.08,3.69,7.11,7.11,0,0,0,2.91,2.51,9,9,0,0,0,4,.88,9.26,9.26,0,0,0,3.91-.83A7.3,7.3,0,0,0,97,240.55a5.69,5.69,0,0,0,1.1-3.41V213.87h3.39v7a42.26,42.26,0,0,1,3.58-4,13.51,13.51,0,0,1,3.76-2.51,12.15,12.15,0,0,1,5-1q5.53,0,7.85,3.41a13.93,13.93,0,0,1,2.31,8v8ZM108.37,218a17.1,17.1,0,0,0-3.79,3.19q-1.45,1.69-3.12,4v7.66h19.09v-7.52a10.57,10.57,0,0,0-1.82-6.32,6.14,6.14,0,0,0-5.31-2.53A9.15,9.15,0,0,0,108.37,218Zm1.27-11.88H113v3.69h-3.35Z"/><path class="cls-1" d="M151.92,214.35v21.52H129.13v-3h6.25c-.79-1.56-1.19-4-1.19-7.44a20.25,20.25,0,0,1,.95-7,6,6,0,0,1,3.17-3.48,15.73,15.73,0,0,1,6.31-1,53.3,53.3,0,0,1,6.07.31Zm-12.76,18.48h9.38V217c-2-.14-3.41-.22-4.23-.22a8.55,8.55,0,0,0-4.22.84,4.35,4.35,0,0,0-2,2.64,17.81,17.81,0,0,0-.55,5Q137.54,230.89,139.16,232.83Zm3.08-26.75h3.35v3.69h-3.35Z"/><path class="cls-1" d="M158.28,246.78l-1-.09-.93-.09v-3c1.47.12,2.39.18,2.78.18a3.58,3.58,0,0,0,3.27-1.74,9.21,9.21,0,0,0,1.08-4.86V213.91h3.39v22.44q0,10.47-7.26,10.47C159.11,246.82,158.68,246.81,158.28,246.78Z"/><path class="cls-1" d="M208.51,232.83v3H207.1a4,4,0,0,1-1.76-.49,7.6,7.6,0,0,1-1.81-1.27v1.76H189.37c-3.26,0-4.89,2-4.89,6a43.38,43.38,0,0,0,1.19,8.28l-2.86.08a49.7,49.7,0,0,1-1.36-9.59,9.53,9.53,0,0,1,1.07-4.95,5.7,5.7,0,0,1,2.75-2.4,44.63,44.63,0,0,1-.7-8.18,48.93,48.93,0,0,1,.35-5.83,44.58,44.58,0,0,1,.79-4.69,16.7,16.7,0,0,1,3.08-.81,23.47,23.47,0,0,1,4.27-.38c3.58,0,6.22.89,7.92,2.65s2.55,4.69,2.55,8.8v6.24a4.49,4.49,0,0,0,3.57,1.72Zm-8.36,0v-8q0-4.48-1.9-6.42t-5.76-1.94a15.28,15.28,0,0,0-3.83.44,45.49,45.49,0,0,0-.7,8.23c0,1.44.06,2.87.2,4.29s.27,2.56.41,3.41Z"/><path class="cls-1" d="M225,232.83v3h-16.5v-3h6.55v-19h3.39v19Zm-12.68-26.75h3.35v3.69h-3.35Zm5.5,0h3.35v3.69h-3.35Z"/><path class="cls-1" d="M235,213.87v22H225v-3h6.55v-19Zm-6.16,25.51h3.34v3.7h-3.34Zm5.5,0h3.34v3.7h-3.34Z"/><path class="cls-1" d="M253.74,231.16h2.73l-2,10.12h-3.65Z"/><path class="cls-1" d="M279.12,232.83v3H271.6v-31.6H275v28.56Z"/><path class="cls-1" d="M314.28,232.83v3H279.12v-3h5.06v-3.52a7.65,7.65,0,0,1,1.08-4,8.12,8.12,0,0,1,2.91-2.91,7.74,7.74,0,0,1,4-1.07,7.87,7.87,0,0,1,7.92,8v3.52h6.47v-6.07q0-6.51-3.28-9.13A12.86,12.86,0,0,0,295,215a31.66,31.66,0,0,0-4.11.28q-2.18.3-5.21.82l-.22-2.6A39.91,39.91,0,0,1,295.58,212a15.36,15.36,0,0,1,10.27,3.44q4.08,3.42,4.07,11.26v6.16Zm-25.39-7.13a4.37,4.37,0,0,0-1.32,3.21v3.92h9.11v-3.92a4.39,4.39,0,0,0-1.3-3.21,4.34,4.34,0,0,0-3.23-1.32A4.43,4.43,0,0,0,288.89,225.7Z"/><path class="cls-1" d="M330.78,232.83v3h-16.5v-3h6.56v-19h3.38v19Zm-12.67-26.75h3.34v3.69h-3.34Zm5.5,0H327v3.69h-3.34Z"/><path class="cls-1" d="M347.28,232.83v3h-16.5v-3h6.56v-19h3.38v19Zm-12.72,6.55h3.35v3.7h-3.35Zm5.5,0h3.35v3.7h-3.35Z"/><path class="cls-1" d="M373.94,232.83v3H347.28v-3h6.25c-.79-1.56-1.19-4-1.19-7.44a20.25,20.25,0,0,1,1-7,6,6,0,0,1,3.16-3.48,15.82,15.82,0,0,1,6.32-1,53.3,53.3,0,0,1,6.07.31l1.23.13v18.48Zm-16.63,0h9.37V217c-2-.14-3.4-.22-4.22-.22a8.53,8.53,0,0,0-4.22.84,4.4,4.4,0,0,0-2,2.64,18.18,18.18,0,0,0-.55,5C355.68,229,356.23,231.54,357.31,232.83Zm2.16-26.75h3.34v3.69h-3.34Z"/><path class="cls-1" d="M410.38,232.83v3H373.94v-3h6.43v-19h3.39v7a40.92,40.92,0,0,1,3.58-4,13.51,13.51,0,0,1,3.76-2.51,12.14,12.14,0,0,1,5-1q5.55,0,7.86,3.41a13.93,13.93,0,0,1,2.31,8v8ZM390.66,218a17.26,17.26,0,0,0-3.78,3.19q-1.45,1.69-3.12,4v7.66h19.09v-7.52A10.57,10.57,0,0,0,401,219a6.14,6.14,0,0,0-5.31-2.53A9.18,9.18,0,0,0,390.66,218Z"/><path class="cls-1" d="M420.32,213.87v22h-9.95v-3h6.56v-19Zm-6.12-7.79h3.35v3.69H414.2Zm5.5,0h3.35v3.69H419.7Z"/><path class="cls-1" d="M439.26,213.29c1.66.18,3,.37,4.11.58v19.27q0,7-1.73,10.32t-6,3.32a53.51,53.51,0,0,1-6.64-.66v-3a44.55,44.55,0,0,0,6.42.62,4.89,4.89,0,0,0,2.49-.55,3.92,3.92,0,0,0,1.51-2.27,16.58,16.58,0,0,0,.58-5h-6.47c-3.2,0-5.32-1-6.36-3A17.23,17.23,0,0,1,425.6,225a23.1,23.1,0,0,1,.79-6.66,6.92,6.92,0,0,1,2.86-3.92A10.58,10.58,0,0,1,435,213C436.19,213,437.6,213.12,439.26,213.29Zm-9.13,17.32c.76,1.48,2.32,2.22,4.66,2.22H440V216.37a33.78,33.78,0,0,0-4.14-.3,7.53,7.53,0,0,0-4.18,1,5.14,5.14,0,0,0-2.09,2.9,17.14,17.14,0,0,0-.59,4.91A12.58,12.58,0,0,0,430.13,230.61Z"/><path class="cls-1" d="M472.39,213.58c2.25.1,3.94.21,5.08.33v22h-9.63a14.24,14.24,0,0,1-6.16-1.1,6.54,6.54,0,0,1-3.24-3.5,17.56,17.56,0,0,1-1-6.54,18.64,18.64,0,0,1,.95-6.55,6.57,6.57,0,0,1,3.12-3.61,12.77,12.77,0,0,1,5.88-1.15C468.48,213.42,470.15,213.48,472.39,213.58Zm-10.82,15.86a4.84,4.84,0,0,0,2.35,2.58,10.24,10.24,0,0,0,4.49.81h5.68V216.77c-2.59-.18-4.58-.27-6-.27-2.67,0-4.54.64-5.63,1.9s-1.63,3.34-1.63,6.25A12.72,12.72,0,0,0,461.57,229.44Zm2-23.36h3.34v3.69h-3.34Zm5.5,0h3.34v3.69H469Z"/><path class="cls-1" d="M496.33,216.4q3.23,3.45,3.23,11.24v8.23H481.87v-3h14.3v-5.1q0-6.53-2.53-9.13a8,8,0,0,0-5.91-2.62h-3.57l-.22-2.51a8.39,8.39,0,0,1,1.78-.35,19.54,19.54,0,0,1,2.58-.18A10.55,10.55,0,0,1,496.33,216.4Z"/><path class="cls-1" d="M505.48,246.78l-1-.09-.93-.09v-3c1.47.12,2.39.18,2.77.18a3.6,3.6,0,0,0,3.28-1.74,9.21,9.21,0,0,0,1.08-4.86V213.91H514v22.44q0,10.47-7.26,10.47C506.31,246.82,505.87,246.81,505.48,246.78Z"/><path class="cls-1" d="M521.12,204.27h3.39v31.6h-3.39Z"/><path class="cls-1" d="M553.42,235.87h-5.5q-.27,5.53-2,8.22a6.26,6.26,0,0,1-5.61,2.69,53.51,53.51,0,0,1-6.64-.66v-3a44.55,44.55,0,0,0,6.42.62,4.89,4.89,0,0,0,2.49-.55,3.92,3.92,0,0,0,1.51-2.27,16.58,16.58,0,0,0,.58-5h-6.47c-3.2,0-5.32-1-6.36-3a17.23,17.23,0,0,1-1.56-7.88,23.1,23.1,0,0,1,.79-6.66,6.92,6.92,0,0,1,2.86-3.92,10.58,10.58,0,0,1,5.76-1.34c1.18,0,2.59.09,4.25.26s3,.37,4.11.58v19h5.42Zm-18.66-5.26c.76,1.48,2.32,2.22,4.66,2.22h5.2V216.37a33.78,33.78,0,0,0-4.14-.3,7.53,7.53,0,0,0-4.18,1,5.14,5.14,0,0,0-2.09,2.9,17.14,17.14,0,0,0-.59,4.91A12.58,12.58,0,0,0,534.76,230.61Z"/><path class="cls-1" d="M562.22,204.27v31.6h-8.8v-3h5.41V204.27Z"/><path class="cls-1" d="M570.14,204.27h3.38v31.6h-3.38Z"/><path class="cls-1" d="M617.3,213.87v22H600.93a25.17,25.17,0,0,1-6.68-.71,6.46,6.46,0,0,1-3.59-2.24,7.06,7.06,0,0,1-1.12-4.23,54.3,54.3,0,0,1,1.36-10l2.64.13-.44,3.52c0,.32-.12,1.13-.28,2.44a27.31,27.31,0,0,0-.25,3.1,5,5,0,0,0,.77,2.95,4.45,4.45,0,0,0,2.56,1.52,21.3,21.3,0,0,0,5,.46h13v-19Zm-17.68-3.7H603v3.7h-3.34Zm5.5,0h3.34v3.7h-3.34Z"/><path class="cls-1" d="M632.31,232.83v3h-7.53v-31.6h3.39v28.56Z"/><path class="cls-1" d="M648.81,232.83v3h-16.5v-3h6.55v-19h3.39v19Zm-9.95,6.55h3.35v3.7h-3.35Z"/><path class="cls-1" d="M663.19,232.83v3H648.81v-3h5.41V204.27h3.39v28.56Z"/><path class="cls-1" d="M697.51,232.83v3H663.19v-3h4.14V204.27h3.39v19.27a32.34,32.34,0,0,1,5.76-7.34,10.38,10.38,0,0,1,11.82-1.63,8.85,8.85,0,0,1,3.65,3.72,13.35,13.35,0,0,1,1.43,6.53v8ZM677,219.12a21.28,21.28,0,0,0-4.53,6.25,14.3,14.3,0,0,0-1.74,5.83v1.63H690v-8.05a9.47,9.47,0,0,0-1.08-4.78,6.67,6.67,0,0,0-2.7-2.7,7.16,7.16,0,0,0-3.3-.84A8.51,8.51,0,0,0,677,219.12Z"/><path class="cls-1" d="M706.31,204.27v31.6h-8.8v-3h5.42V204.27Z"/><path class="cls-1" d="M714.23,204.27h3.39v31.6h-3.39Z"/><path class="cls-1" d="M115.93,291.83v3H101.28a14.27,14.27,0,0,1-6.16-1.1,6.52,6.52,0,0,1-3.23-3.5,17.56,17.56,0,0,1-1-6.54,18.66,18.66,0,0,1,.94-6.55A6.55,6.55,0,0,1,95,273.57a12.73,12.73,0,0,1,5.87-1.15c1.08,0,2.75.06,5,.16s3.94.21,5.09.33v18.92ZM95,288.44A4.84,4.84,0,0,0,97.36,291a10.27,10.27,0,0,0,4.49.81h5.68V275.77q-3.87-.27-6-.27c-2.67,0-4.54.64-5.63,1.9s-1.63,3.34-1.63,6.25A12.92,12.92,0,0,0,95,288.44Zm2.71-23.36h3.34v3.69H97.72Zm5.5,0h3.34v3.69h-3.34Z"/><path class="cls-1" d="M142,291.83v3h-26v-3h17.65V279.91a4.48,4.48,0,0,0-1.15-3.33,4.71,4.71,0,0,0-3.43-1.12q-2,0-7.83.71l-1.23.13-.14-2.51a54.71,54.71,0,0,1,10-1.37q7.22,0,7.21,7.53v11.88Z"/><path class="cls-1" d="M172,275.83a13.93,13.93,0,0,1,2.31,8v11.05H142v-3h6.42v-19h3.39v7a42.2,42.2,0,0,1,3.59-4,13.37,13.37,0,0,1,3.76-2.51,12.11,12.11,0,0,1,5-1Q169.66,272.42,172,275.83ZM158.7,277a16.81,16.81,0,0,0-3.78,3.19q-1.46,1.69-3.13,4v7.66h19.1v-7.52a10.5,10.5,0,0,0-1.83-6.32,6.12,6.12,0,0,0-5.3-2.53A9.16,9.16,0,0,0,158.7,277Z"/><path class="cls-1" d="M216.47,294.87h-5v1.75a8.26,8.26,0,0,1-1.51,5,9.31,9.31,0,0,1-4.05,3.1,14.47,14.47,0,0,1-5.52,1,14.14,14.14,0,0,1-5.86-1.19,10.24,10.24,0,0,1-4.18-3.3,8,8,0,0,1-1.54-4.84,49.61,49.61,0,0,1,.53-5.63q.52-4,1.23-8l3.26.18q-.66,4.31-1.14,8.12a48.71,48.71,0,0,0-.49,5.08,5.66,5.66,0,0,0,1.08,3.39,7.07,7.07,0,0,0,2.93,2.31,10.05,10.05,0,0,0,4.09.81,9,9,0,0,0,5.52-1.69,5.67,5.67,0,0,0,2.27-4.82V272.87h3.38v19h5Zm-17.69-25.7h3.35v3.7h-3.35Z"/><path class="cls-1" d="M239.53,275.07q2.55,2.64,2.55,8.8v11H216.47v-3h7.26a47.9,47.9,0,0,1-.62-7.7,46.92,46.92,0,0,1,.36-5.83,39.89,39.89,0,0,1,.79-4.69,16.26,16.26,0,0,1,3.08-.81,23.39,23.39,0,0,1,4.27-.38C235.18,272.42,237.82,273.31,239.53,275.07ZM226.7,288.42c.13,1.42.27,2.56.42,3.41h11.57v-8q0-4.49-1.89-6.42T231,275.46a15.19,15.19,0,0,0-3.82.44,45.46,45.46,0,0,0-.71,8.23C226.5,285.57,226.57,287,226.7,288.42Z"/><path class="cls-1" d="M294,294.87h-5v1.62a8.84,8.84,0,0,1-2.73,6.78,10.6,10.6,0,0,1-7.53,2.55H266.41a10.6,10.6,0,0,1-7.53-2.55,8.93,8.93,0,0,1-2.72-6.82A92.2,92.2,0,0,1,257.74,284l3.21.53c-.5,3.19-.85,5.6-1.08,7.21a32.29,32.29,0,0,0-.33,4,7.37,7.37,0,0,0,1.74,5.19,6.81,6.81,0,0,0,5.26,1.9H278.6a6.87,6.87,0,0,0,5.3-1.9,7.37,7.37,0,0,0,1.74-5.19v-.83h-6.38a10.49,10.49,0,0,1-4.73-.88,5.27,5.27,0,0,1-2.47-3.08,20.1,20.1,0,0,1-.77-6.3,21.31,21.31,0,0,1,.88-6.75,6.76,6.76,0,0,1,3-3.76,11.91,11.91,0,0,1,5.95-1.23c.88,0,2,0,3.34.11s2.46.15,3.34.24l1.24.13v18.48h5ZM275.23,289a3.72,3.72,0,0,0,1.78,2.22,7.39,7.39,0,0,0,3.39.64h5.24V276.08q-3-.27-4.14-.27a7.88,7.88,0,0,0-4.11.9,4.91,4.91,0,0,0-2.09,2.78,16.19,16.19,0,0,0-.62,4.95A14.4,14.4,0,0,0,275.23,289Zm2-23.89h3.35v3.69h-3.35Zm5.5,0h3.35v3.69h-3.35Z"/><path class="cls-1" d="M320.66,291.83v3H294v-3h6.24c-.79-1.56-1.18-4-1.18-7.44a20.29,20.29,0,0,1,.94-7,6,6,0,0,1,3.17-3.48,15.79,15.79,0,0,1,6.32-1,53.43,53.43,0,0,1,6.07.31l1.23.13v18.48Zm-16.63,0h9.37V276c-2-.14-3.4-.22-4.22-.22a8.59,8.59,0,0,0-4.23.84,4.42,4.42,0,0,0-2,2.64,17.81,17.81,0,0,0-.55,5Q302.4,289.89,304,291.83Zm-.57-26.75h3.34v3.69h-3.34Zm5.5,0h3.34v3.69H309Z"/><path class="cls-1" d="M346.71,291.83v3h-26v-3H338.3V279.91a4.48,4.48,0,0,0-1.14-3.33,4.71,4.71,0,0,0-3.43-1.12q-2,0-7.83.71l-1.24.13-.13-2.51a54.71,54.71,0,0,1,10-1.37q7.22,0,7.21,7.53v11.88Z"/><path class="cls-1" d="M363.21,291.83v3h-16.5v-3h6.55v-19h3.39v19Zm-12.67-26.75h3.34v3.69h-3.34Zm5.5,0h3.34v3.69H356Z"/><path class="cls-1" d="M372,263.27v31.6h-8.8v-3h5.41V263.27Z"/><path class="cls-1" d="M379.93,263.27h3.39v31.6h-3.39Z"/><path class="cls-1" d="M402.7,272.29c1.65.18,3,.37,4.11.58v19.27q0,7-1.74,10.32t-6,3.32a53.62,53.62,0,0,1-6.65-.66v-3a44.66,44.66,0,0,0,6.43.62,4.87,4.87,0,0,0,2.48-.55,3.93,3.93,0,0,0,1.52-2.27,17,17,0,0,0,.57-5.05H397c-3.2,0-5.32-1-6.36-3A17.22,17.22,0,0,1,389,284a23.06,23.06,0,0,1,.8-6.66,6.92,6.92,0,0,1,2.86-3.92,10.58,10.58,0,0,1,5.76-1.34C399.62,272,401,272.12,402.7,272.29Zm-9.13,17.32q1.14,2.22,4.66,2.22h5.19V275.37a33.5,33.5,0,0,0-4.13-.3,7.51,7.51,0,0,0-4.18,1A5.09,5.09,0,0,0,393,279a16.76,16.76,0,0,0-.6,4.91A12.44,12.44,0,0,0,393.57,289.61Z"/><path class="cls-1" d="M445.93,291.83v3H431.27a14.27,14.27,0,0,1-6.16-1.1,6.56,6.56,0,0,1-3.23-3.5,17.56,17.56,0,0,1-1-6.54,18.41,18.41,0,0,1,.95-6.55,6.57,6.57,0,0,1,3.12-3.61,12.73,12.73,0,0,1,5.87-1.15c1.09,0,2.75.06,5,.16s3.94.21,5.08.33v18.92ZM425,288.44a4.86,4.86,0,0,0,2.36,2.58,10.21,10.21,0,0,0,4.49.81h5.67V275.77q-3.87-.27-6-.27c-2.67,0-4.55.64-5.63,1.9s-1.63,3.34-1.63,6.25A12.94,12.94,0,0,0,425,288.44Zm2.71-23.36h3.34v3.69h-3.34Zm5.5,0h3.34v3.69h-3.34Z"/><path class="cls-1" d="M472.59,291.83v3H445.93v-3h6.24c-.79-1.56-1.18-4-1.18-7.44a20.29,20.29,0,0,1,.94-7,6,6,0,0,1,3.17-3.48,15.77,15.77,0,0,1,6.31-1,53.49,53.49,0,0,1,6.08.31l1.23.13v18.48Zm-16.63,0h9.37V276c-2-.14-3.4-.22-4.22-.22a8.59,8.59,0,0,0-4.23.84,4.39,4.39,0,0,0-2,2.64,17.81,17.81,0,0,0-.55,5Q454.33,289.89,456,291.83Zm2.15-26.75h3.35v3.69h-3.35Z"/><path class="cls-1" d="M481.39,263.27v31.6h-8.8v-3H478V263.27Z"/><path class="cls-1" d="M496.83,291.83v3h-7.52v-31.6h3.39v28.56Z"/><path class="cls-1" d="M522.88,291.83v3H496.83v-3h17.65V279.91a4.44,4.44,0,0,0-1.15-3.33,4.69,4.69,0,0,0-3.43-1.12q-2,0-7.83.71l-1.23.13-.14-2.51a54.71,54.71,0,0,1,9.95-1.37q7.22,0,7.22,7.53v11.88Zm-14.69-26.75h3.34v3.69h-3.34Z"/><path class="cls-1" d="M553.42,291.83v3H552a4,4,0,0,1-1.78-.47,6.29,6.29,0,0,1-1.74-1.25v1.72H522.88v-3h7.26a47.9,47.9,0,0,1-.61-7.7,46.92,46.92,0,0,1,.35-5.83,42.1,42.1,0,0,1,.79-4.69,16.26,16.26,0,0,1,3.08-.81,23.39,23.39,0,0,1,4.27-.38c3.58,0,6.22.89,7.92,2.65s2.55,4.69,2.55,8.8v6.29a4.43,4.43,0,0,0,3.52,1.67Zm-20.31-3.41c.13,1.42.27,2.56.42,3.41H545.1v-8q0-4.49-1.89-6.42t-5.76-1.94a15.22,15.22,0,0,0-3.83.44,45.46,45.46,0,0,0-.71,8.23C532.91,285.57,533,287,533.11,288.42Z"/><path class="cls-1" d="M562.22,263.27v31.6h-8.8v-3h5.41V263.27Z"/><path class="cls-1" d="M570.14,263.27h3.38v31.6h-3.38Z"/><path class="cls-1" d="M617.3,272.87v22H600.93a25.17,25.17,0,0,1-6.68-.71,6.46,6.46,0,0,1-3.59-2.24,7.06,7.06,0,0,1-1.12-4.23,54.3,54.3,0,0,1,1.36-10l2.64.13-.44,3.52c0,.32-.12,1.13-.28,2.44a27.31,27.31,0,0,0-.25,3.1,5,5,0,0,0,.77,3,4.45,4.45,0,0,0,2.56,1.52,21.3,21.3,0,0,0,5,.46h13v-19Zm-17.68-3.7H603v3.7h-3.34Zm5.5,0h3.34v3.7h-3.34Z"/><path class="cls-1" d="M632.31,291.83v3h-7.53v-31.6h3.39v28.56Z"/><path class="cls-1" d="M648.81,291.83v3h-16.5v-3h6.55v-19h3.39v19Zm-9.95,6.55h3.35v3.7h-3.35Z"/><path class="cls-1" d="M663.19,291.83v3H648.81v-3h5.41V263.27h3.39v28.56Z"/><path class="cls-1" d="M697.51,291.83v3H663.19v-3h4.14V263.27h3.39v19.27a32.34,32.34,0,0,1,5.76-7.34,10.38,10.38,0,0,1,11.82-1.63,8.85,8.85,0,0,1,3.65,3.72,13.35,13.35,0,0,1,1.43,6.53v8ZM677,278.12a21.28,21.28,0,0,0-4.53,6.25,14.3,14.3,0,0,0-1.74,5.83v1.63H690v-8.05a9.47,9.47,0,0,0-1.08-4.78,6.67,6.67,0,0,0-2.7-2.7,7.16,7.16,0,0,0-3.3-.84A8.51,8.51,0,0,0,677,278.12Z"/><path class="cls-1" d="M706.31,263.27v31.6h-8.8v-3h5.42V263.27Z"/><path class="cls-1" d="M714.23,263.27h3.39v31.6h-3.39Z"/><path class="cls-1" d="M194.51,331.87v22H178.15a25.2,25.2,0,0,1-6.69-.71,6.46,6.46,0,0,1-3.59-2.24,7.06,7.06,0,0,1-1.12-4.23,54.3,54.3,0,0,1,1.36-10l2.64.13-.44,3.52c0,.32-.12,1.13-.28,2.44a27.31,27.31,0,0,0-.25,3.1,4.88,4.88,0,0,0,.78,3,4.39,4.39,0,0,0,2.55,1.52,21.3,21.3,0,0,0,5,.46h13v-19Zm-17.69-3.7h3.35v3.7h-3.35Zm5.5,0h3.35v3.7h-3.35Z"/><path class="cls-1" d="M209.52,350.83v3H202v-31.6h3.39v28.56Z"/><path class="cls-1" d="M226,350.83v3h-16.5v-3h6.55v-19h3.39v19Zm-10,6.55h3.35v3.7h-3.35Z"/><path class="cls-1" d="M240.41,350.83v3H226v-3h5.41V322.27h3.39v28.56Z"/><path class="cls-1" d="M274.72,350.83v3H240.4v-3h4.14V322.27h3.39v19.27a32.34,32.34,0,0,1,5.76-7.34,10.38,10.38,0,0,1,11.82-1.63,8.85,8.85,0,0,1,3.65,3.72,13.35,13.35,0,0,1,1.43,6.53v8ZM254.2,337.12a21.28,21.28,0,0,0-4.53,6.25,14.3,14.3,0,0,0-1.74,5.83v1.63H267.2v-8.05a9.47,9.47,0,0,0-1.08-4.78,6.67,6.67,0,0,0-2.7-2.7,7.16,7.16,0,0,0-3.3-.84A8.51,8.51,0,0,0,254.2,337.12Z"/><path class="cls-1" d="M291.22,350.83v3h-16.5v-3h6.56v-19h3.39v19Zm-12.67-26.75h3.35v3.69h-3.35Zm5.5,0h3.35v3.69h-3.35Z"/><path class="cls-1" d="M314.28,334.07q2.55,2.64,2.55,8.8v11H291.22v-3h7.26a47.9,47.9,0,0,1-.61-7.7,48.93,48.93,0,0,1,.35-5.83,42.1,42.1,0,0,1,.79-4.69,16.48,16.48,0,0,1,3.08-.81,23.47,23.47,0,0,1,4.27-.38C309.94,331.42,312.58,332.31,314.28,334.07Zm-12.83,13.35c.14,1.42.28,2.56.42,3.41h11.58v-8c0-3-.64-5.13-1.9-6.42s-3.18-1.94-5.76-1.94a15.22,15.22,0,0,0-3.83.44,45.49,45.49,0,0,0-.7,8.23C301.26,344.57,301.32,346,301.45,347.42Z"/><path class="cls-1" d="M369.37,353.87h-5.59v.57a10.9,10.9,0,0,1-2.51,7.52c-1.67,1.88-4.08,2.82-7.21,2.82H342.48a14.13,14.13,0,0,1-5.85-1.19,10.2,10.2,0,0,1-4.18-3.32,8.11,8.11,0,0,1-1.54-4.86,71.78,71.78,0,0,1,1.15-9.73l3.21.53a73.49,73.49,0,0,0-1,8.45,6.5,6.5,0,0,0,1.08,3.69,7.08,7.08,0,0,0,2.9,2.51,9,9,0,0,0,4,.88l11.62.05a6,6,0,0,0,4.82-2,7.58,7.58,0,0,0,1.69-5.08,5.55,5.55,0,0,0,0-.83h-1.06a9.91,9.91,0,0,1-5.41-1.28l1.41-2.51a3.85,3.85,0,0,0,1.69.64,24.19,24.19,0,0,0,2.62.11h9.77ZM342.88,368h3.34v3.69h-3.34Zm5.5,0h3.34v3.69h-3.34Z"/><path class="cls-1" d="M392.16,332.35v21.52H369.37v-3h6.25c-.8-1.56-1.19-4-1.19-7.44a20.29,20.29,0,0,1,.94-7,6,6,0,0,1,3.17-3.48,15.79,15.79,0,0,1,6.32-1,53.43,53.43,0,0,1,6.07.31ZM379.4,350.83h9.37V335c-2-.14-3.4-.22-4.22-.22a8.59,8.59,0,0,0-4.23.84,4.42,4.42,0,0,0-2,2.64,17.81,17.81,0,0,0-.55,5Q377.77,348.89,379.4,350.83Zm3.08-26.75h3.34v3.69h-3.34Z"/><path class="cls-1" d="M419.75,353.87h-5.5q-.27,5.53-2.05,8.22a6.26,6.26,0,0,1-5.61,2.69,53.51,53.51,0,0,1-6.64-.66v-3a44.55,44.55,0,0,0,6.42.62,4.89,4.89,0,0,0,2.49-.55,3.92,3.92,0,0,0,1.51-2.27,16.58,16.58,0,0,0,.58-5.05h-6.47c-3.2,0-5.32-1-6.36-3a17.23,17.23,0,0,1-1.56-7.88,23.1,23.1,0,0,1,.79-6.66,6.92,6.92,0,0,1,2.86-3.92A10.58,10.58,0,0,1,406,331c1.18,0,2.59.09,4.25.26s3,.37,4.11.58v19h5.42Zm-18.66-5.26c.76,1.48,2.32,2.22,4.66,2.22H411V334.37a33.78,33.78,0,0,0-4.14-.3,7.53,7.53,0,0,0-4.18,1,5.14,5.14,0,0,0-2.09,2.9,16.8,16.8,0,0,0-.59,4.91A12.58,12.58,0,0,0,401.09,348.61Z"/><path class="cls-1" d="M436.25,350.83v3h-16.5v-3h6.55v-19h3.39v19Zm-12.68-26.75h3.35v3.69h-3.35Zm5.5,0h3.35v3.69h-3.35Z"/><path class="cls-1" d="M473.56,350.83v3H461.24a7.44,7.44,0,0,1-4.89-1.85,5.24,5.24,0,0,1-4.18,1.85H436.25v-3h7.12V334.07h3.39v16.76h4.36a3,3,0,0,0,2.92-1.74,9.35,9.35,0,0,0,.91-4.38V334.07h3.38v10.6a15.77,15.77,0,0,1-.61,4.66,6.93,6.93,0,0,0,1.67,1,4.94,4.94,0,0,0,2,.46H466v-9.55q0-1.66-.24-4.2c-.16-1.69-.34-3.38-.55-5.08l2.77-.13q.58,2.5,1,5.32a32,32,0,0,1,.42,4.44v9.2Z"/><path class="cls-1" d="M483.5,331.87v22h-9.94v-3h6.55v-19Zm-6.11-7.79h3.34v3.69h-3.34Zm5.5,0h3.34v3.69h-3.34Z"/><path class="cls-1" d="M536.92,353.87h-5.59v.57a10.9,10.9,0,0,1-2.51,7.52c-1.67,1.88-4.08,2.82-7.21,2.82H510a14.13,14.13,0,0,1-5.85-1.19,10.2,10.2,0,0,1-4.18-3.32,8.11,8.11,0,0,1-1.54-4.86,71.78,71.78,0,0,1,1.15-9.73l3.21.53a73.49,73.49,0,0,0-1,8.45,6.5,6.5,0,0,0,1.08,3.69,7.08,7.08,0,0,0,2.9,2.51,9,9,0,0,0,4,.88l11.62.05a6,6,0,0,0,4.82-2,7.58,7.58,0,0,0,1.69-5.08,5.55,5.55,0,0,0,0-.83h-1.06a9.91,9.91,0,0,1-5.41-1.28l1.41-2.51a3.85,3.85,0,0,0,1.69.64,24.19,24.19,0,0,0,2.62.11h9.77ZM510.43,368h3.34v3.69h-3.34Zm5.5,0h3.34v3.69h-3.34Z"/><path class="cls-1" d="M553.42,350.83v3h-16.5v-3h6.55v-19h3.39v19Zm-12.68-26.75h3.35v3.69h-3.35Zm5.5,0h3.35v3.69h-3.35Z"/><path class="cls-1" d="M562.22,322.27v31.6h-8.8v-3h5.41V322.27Z"/><path class="cls-1" d="M570.14,322.27h3.38v31.6h-3.38Z"/><path class="cls-1" d="M617.3,331.87v22H600.94a25.2,25.2,0,0,1-6.69-.71,6.46,6.46,0,0,1-3.59-2.24,7.06,7.06,0,0,1-1.12-4.23,54.3,54.3,0,0,1,1.36-10l2.64.13-.44,3.52c0,.32-.12,1.13-.28,2.44a27.31,27.31,0,0,0-.25,3.1,4.88,4.88,0,0,0,.78,3,4.39,4.39,0,0,0,2.55,1.52,21.3,21.3,0,0,0,5,.46h13v-19Zm-17.68-3.7H603v3.7h-3.34Zm5.5,0h3.34v3.7h-3.34Z"/><path class="cls-1" d="M632.31,350.83v3h-7.53v-31.6h3.39v28.56Z"/><path class="cls-1" d="M648.81,350.83v3h-16.5v-3h6.55v-19h3.39v19Zm-9.95,6.55h3.35v3.7h-3.35Z"/><path class="cls-1" d="M663.19,350.83v3H648.81v-3h5.41V322.27h3.39v28.56Z"/><path class="cls-1" d="M697.51,350.83v3H663.19v-3h4.14V322.27h3.39v19.27a32.34,32.34,0,0,1,5.76-7.34,10.38,10.38,0,0,1,11.82-1.63,8.85,8.85,0,0,1,3.65,3.72,13.35,13.35,0,0,1,1.43,6.53v8ZM677,337.12a21.46,21.46,0,0,0-4.53,6.25,14.3,14.3,0,0,0-1.74,5.83v1.63H690v-8.05a9.47,9.47,0,0,0-1.08-4.78,6.67,6.67,0,0,0-2.7-2.7,7.16,7.16,0,0,0-3.3-.84A8.51,8.51,0,0,0,677,337.12Z"/><path class="cls-1" d="M706.31,322.27v31.6h-8.8v-3h5.42V322.27Z"/><path class="cls-1" d="M714.23,322.27h3.39v31.6h-3.39Z"/><path class="cls-1" d="M52.75,409.83v3H51.34a4.05,4.05,0,0,1-1.76-.49,7.55,7.55,0,0,1-1.8-1.27v1.76H33.61c-3.26,0-4.88,2-4.88,6a43.18,43.18,0,0,0,1.18,8.28l-2.86.08a49.7,49.7,0,0,1-1.36-9.59,9.42,9.42,0,0,1,1.08-5,5.66,5.66,0,0,1,2.75-2.4,43.72,43.72,0,0,1-.71-8.18,46.92,46.92,0,0,1,.36-5.83,39.89,39.89,0,0,1,.79-4.69A16.26,16.26,0,0,1,33,390.8a23.39,23.39,0,0,1,4.27-.38c3.57,0,6.21.89,7.92,2.65s2.55,4.69,2.55,8.8v6.24a4.48,4.48,0,0,0,3.56,1.72Zm-8.36,0v-8q0-4.49-1.89-6.42c-1.26-1.29-3.19-1.94-5.77-1.94a15.19,15.19,0,0,0-3.82.44,45.46,45.46,0,0,0-.71,8.23c0,1.44.07,2.87.2,4.29s.27,2.56.42,3.41Z"/><path class="cls-1" d="M69.25,409.83v3H52.75v-3h6.56v-19h3.38v19Zm-12.72,6.55h3.35v3.7H56.53Zm5.5,0h3.35v3.7H62Z"/><path class="cls-1" d="M98.69,409.83v3H69.25v-3H89v-6.38a10,10,0,0,0-1-4.58,3.5,3.5,0,0,0-3.28-2H72.81l-2.24-3,2.29-4.49a29.67,29.67,0,0,1,2.4-3.85c1.07-1.51,2.14-2.93,3.23-4.25l2.42,1.37q-2,3-3,4.68c-.67,1.1-1.29,2.2-1.84,3.28l-1.68,3.26H85a6.25,6.25,0,0,1,5.61,2.68,12.34,12.34,0,0,1,1.78,6.95v6.34Z"/><path class="cls-1" d="M124.73,409.83v3h-26v-3h17.64V397.91a4.48,4.48,0,0,0-1.14-3.33,4.73,4.73,0,0,0-3.44-1.12q-2,0-7.83.71l-1.23.13-.13-2.51a54.62,54.62,0,0,1,9.94-1.37q7.22,0,7.22,7.53v11.88Z"/><path class="cls-1" d="M141.23,409.83v3h-16.5v-3h6.56v-19h3.39v19Zm-12.67-26.75h3.35v3.69h-3.35Zm5.5,0h3.35v3.69h-3.35Z"/><path class="cls-1" d="M150,381.27v31.6h-8.8v-3h5.42V381.27Z"/><path class="cls-1" d="M158,381.27h3.39v31.6H158Z"/><path class="cls-1" d="M201.78,409.83v3H187.12a14.27,14.27,0,0,1-6.16-1.1,6.56,6.56,0,0,1-3.23-3.5,17.56,17.56,0,0,1-1-6.54,18.41,18.41,0,0,1,.95-6.55,6.57,6.57,0,0,1,3.12-3.61,12.73,12.73,0,0,1,5.87-1.15c1.09,0,2.75.06,5,.16s3.94.21,5.08.33v18.92Zm-20.93-3.39a4.86,4.86,0,0,0,2.36,2.58,10.21,10.21,0,0,0,4.49.81h5.67V393.77q-3.87-.27-6-.27c-2.67,0-4.55.64-5.63,1.9s-1.63,3.34-1.63,6.25A12.94,12.94,0,0,0,180.85,406.44Zm2.71-23.36h3.34v3.69h-3.34Zm5.5,0h3.34v3.69h-3.34Z"/><path class="cls-1" d="M218.28,409.83v3h-16.5v-3h6.55v-19h3.39v19Zm-9.95-26.75h3.35v3.69h-3.35Z"/><path class="cls-1" d="M244.32,409.83v3h-26v-3h17.64V397.91a4.48,4.48,0,0,0-1.14-3.33,4.73,4.73,0,0,0-3.44-1.12q-2,0-7.83.71l-1.23.13-.13-2.51a54.62,54.62,0,0,1,9.94-1.37q7.22,0,7.22,7.53v11.88Zm-14.69,6.55H233v3.7h-3.34Z"/><path class="cls-1" d="M253.12,381.27v31.6h-8.8v-3h5.42V381.27Z"/><path class="cls-1" d="M296.29,381.27v31.6H280.36a25.2,25.2,0,0,1-6.69-.71,6.5,6.5,0,0,1-3.59-2.24,7.13,7.13,0,0,1-1.12-4.23,47.8,47.8,0,0,1,1.15-8.71l2.72.13c-.11.82-.19,1.44-.22,1.85a46,46,0,0,0-.61,5.94,4.88,4.88,0,0,0,.77,3,4.39,4.39,0,0,0,2.55,1.52,21.35,21.35,0,0,0,5,.46H292.9V381.27Zm-9.51,14.22-9,1.76-.4-1.41,2.11-.57a3.89,3.89,0,0,1-1.49-3.13,3.84,3.84,0,0,1,1.14-2.79,3.93,3.93,0,0,1,2.95-1.17,5.53,5.53,0,0,1,3.21,1.06l-.44,1.67a3.26,3.26,0,0,0-.81-.44,3.18,3.18,0,0,0-1.21-.22A2.47,2.47,0,0,0,281,391a2.42,2.42,0,0,0-.73,1.76,2.39,2.39,0,0,0,1,2l5-1.32Z"/><path class="cls-1" d="M304,423.78l-1-.09-.92-.09v-3c1.46.12,2.39.18,2.77.18a3.61,3.61,0,0,0,3.28-1.74,9.32,9.32,0,0,0,1.07-4.86V390.91h3.39v22.44q0,10.47-7.26,10.47C304.79,423.82,304.36,423.81,304,423.78Z"/><path class="cls-1" d="M327.13,409.83v3h-7.52v-31.6H323v28.56Z"/><path class="cls-1" d="M364.44,409.83v3H352.12a7.4,7.4,0,0,1-4.88-1.85,5.25,5.25,0,0,1-4.18,1.85H327.13v-3h7.13V393.07h3.38v16.76H342a3.07,3.07,0,0,0,2.93-1.74,9.48,9.48,0,0,0,.9-4.38V393.07h3.39v10.6a15.75,15.75,0,0,1-.62,4.66,7.14,7.14,0,0,0,1.67,1,5,5,0,0,0,2,.46h4.62v-9.55c0-1.11-.08-2.51-.25-4.2s-.34-3.38-.55-5.08l2.78-.13q.57,2.5,1,5.32a33.32,33.32,0,0,1,.41,4.44v9.2Zm-22.26-26.75h3.34v3.69h-3.34Zm2.77-5.37h3.3v3.56H345Zm2.73,5.37H351v3.69h-3.34Z"/><path class="cls-1" d="M374.38,390.87v22h-9.94v-3H371v-19Zm-6.11-7.79h3.34v3.69h-3.34Zm5.5,0h3.34v3.69h-3.34Z"/><path class="cls-1" d="M423.66,409.83v3H401.18a25.2,25.2,0,0,1-6.69-.71,6.43,6.43,0,0,1-3.58-2.24,7.06,7.06,0,0,1-1.13-4.23,47.8,47.8,0,0,1,1.15-8.71l2.73.13c-.12.82-.2,1.44-.22,1.85a44.67,44.67,0,0,0-.62,5.94,5,5,0,0,0,.77,3,4.39,4.39,0,0,0,2.55,1.52,21.39,21.39,0,0,0,5,.46h12.58V381.27h3.39v28.56ZM407.6,395.49l-9,1.76-.4-1.41,2.11-.57a3.92,3.92,0,0,1-1.49-3.13,3.84,3.84,0,0,1,1.14-2.79,4,4,0,0,1,2.95-1.17,5.53,5.53,0,0,1,3.21,1.06l-.44,1.67a3.08,3.08,0,0,0-.81-.44,3.18,3.18,0,0,0-1.21-.22,2.47,2.47,0,0,0-1.87.75,2.42,2.42,0,0,0-.73,1.76,2.39,2.39,0,0,0,1,2l5-1.32Z"/><path class="cls-1" d="M432.46,381.27v31.6h-8.8v-3h5.41V381.27Z"/><path class="cls-1" d="M452.64,393.4q3.23,3.45,3.23,11.24v8.23H438.18v-3h14.3v-5.1q0-6.53-2.53-9.13A8,8,0,0,0,444,393h-3.56l-.22-2.51a8.25,8.25,0,0,1,1.78-.35,19.43,19.43,0,0,1,2.58-.18A10.55,10.55,0,0,1,452.64,393.4Zm-11.2-11.51h3.34v3.69h-3.34Z"/><path class="cls-1" d="M491.33,409.83v3H469.51v-3h14.3v-5.1q0-6.53-2.53-9.13a8,8,0,0,0-5.92-2.62H471.8l-.22-2.51a8.11,8.11,0,0,1,1.78-.35,19.28,19.28,0,0,1,2.57-.18,10.52,10.52,0,0,1,8,3.46q3.24,3.45,3.24,11.24v5.19Z"/><path class="cls-1" d="M518.31,409.83v3h-4.62a20,20,0,0,1-4.49-.53,17.66,17.66,0,0,1-4.18-1.5,20.68,20.68,0,0,1-4.12,1.48,18.49,18.49,0,0,1-4.37.55h-5.2v-3h5.06a15.23,15.23,0,0,0,5.37-1,20.56,20.56,0,0,1-5.41-6.12,13.78,13.78,0,0,1-2.11-6.2l-.13-3.13A23.44,23.44,0,0,1,505,390.42a24.2,24.2,0,0,1,11,2.95l-.13,3.13a12.2,12.2,0,0,1-1,3.89,19.93,19.93,0,0,1-2.57,4.42,19.71,19.71,0,0,1-4,4,14.23,14.23,0,0,0,5.37,1.06Zm-18.7-8a17.37,17.37,0,0,0,5.41,5.31,18.1,18.1,0,0,0,5.41-5.33,12.1,12.1,0,0,0,2.07-6.73,17.89,17.89,0,0,0-14.92,0A12.22,12.22,0,0,0,499.61,401.84Z"/><path class="cls-1" d="M528.25,390.87v22h-9.94v-3h6.55v-19Zm-3.39,25.51h3.34v3.7h-3.34Z"/><path class="cls-1" d="M547,408.16h2.72l-2,10.12h-3.65Z"/><path class="cls-1" d="M578.06,409.83v3H563.4a14.27,14.27,0,0,1-6.16-1.1,6.56,6.56,0,0,1-3.23-3.5,17.56,17.56,0,0,1-1-6.54,18.41,18.41,0,0,1,1-6.55,6.57,6.57,0,0,1,3.12-3.61,12.73,12.73,0,0,1,5.87-1.15c1.09,0,2.75.06,5,.16s3.94.21,5.08.33v18.92Zm-20.93-3.39a4.86,4.86,0,0,0,2.36,2.58,10.21,10.21,0,0,0,4.49.81h5.67V393.77q-3.87-.27-6-.27c-2.67,0-4.55.64-5.63,1.9s-1.63,3.34-1.63,6.25A12.94,12.94,0,0,0,557.13,406.44Zm2.71-23.36h3.34v3.69h-3.34Zm5.5,0h3.34v3.69h-3.34Z"/><path class="cls-1" d="M604.72,409.83v3H578.06v-3h6.24c-.79-1.56-1.18-4-1.18-7.44a20.29,20.29,0,0,1,.94-7,6,6,0,0,1,3.17-3.48,15.77,15.77,0,0,1,6.31-1,53.49,53.49,0,0,1,6.08.31l1.23.13v18.48Zm-16.63,0h9.37V394c-2-.14-3.4-.22-4.22-.22a8.59,8.59,0,0,0-4.23.84,4.39,4.39,0,0,0-2,2.64,17.81,17.81,0,0,0-.55,5Q586.46,407.89,588.09,409.83Zm-.57-26.75h3.34v3.69h-3.34Zm5.5,0h3.34v3.69H593Z"/><path class="cls-1" d="M614.66,390.87v22h-9.94v-3h6.56v-19Zm-3.38,25.51h3.34v3.7h-3.34Z"/><path class="cls-1" d="M629.67,409.83v3h-7.53v-31.6h3.39v28.56Z"/><path class="cls-1" d="M667,409.83v3H654.66a7.4,7.4,0,0,1-4.88-1.85,5.26,5.26,0,0,1-4.18,1.85H629.67v-3h7.12V393.07h3.39v16.76h4.36a3,3,0,0,0,2.92-1.74,9.35,9.35,0,0,0,.91-4.38V393.07h3.38v10.6a15.77,15.77,0,0,1-.61,4.66,7.14,7.14,0,0,0,1.67,1,5,5,0,0,0,2,.46h4.62v-9.55q0-1.66-.24-4.2c-.16-1.69-.34-3.38-.55-5.08l2.78-.13q.57,2.5,1,5.32a32,32,0,0,1,.42,4.44v9.2Z"/><path class="cls-1" d="M697.51,409.83v3h-1.4a4.09,4.09,0,0,1-1.79-.47,6.24,6.24,0,0,1-1.73-1.25v1.72H667v-3h7.26a47.9,47.9,0,0,1-.62-7.7,48.93,48.93,0,0,1,.35-5.83,41.8,41.8,0,0,1,.8-4.69,16.26,16.26,0,0,1,3.08-.81,23.39,23.39,0,0,1,4.27-.38c3.57,0,6.21.89,7.91,2.65s2.56,4.69,2.56,8.8v6.29a4.43,4.43,0,0,0,3.52,1.67Zm-20.3-3.41c.13,1.42.27,2.56.42,3.41H689.2v-8q0-4.49-1.89-6.42t-5.77-1.94a15.33,15.33,0,0,0-3.83.44,45.49,45.49,0,0,0-.7,8.23C677,403.57,677.08,405,677.21,406.42Z"/><path class="cls-1" d="M706.31,381.27v31.6h-8.8v-3h5.42V381.27Z"/><path class="cls-1" d="M714.23,381.27h3.39v31.6h-3.39Z"/><path class="cls-1" d="M60.93,466.85h3.61v5H60.93Z"/><path class="cls-1" d="M96.35,468.83v3H94.94a4.09,4.09,0,0,1-1.76-.49,7.76,7.76,0,0,1-1.8-1.27v1.76H77.21c-3.25,0-4.88,2-4.88,6a42.58,42.58,0,0,0,1.19,8.28l-2.86.08a49.89,49.89,0,0,1-1.37-9.59,9.42,9.42,0,0,1,1.08-5,5.66,5.66,0,0,1,2.75-2.4,43.77,43.77,0,0,1-.7-8.18,46.92,46.92,0,0,1,.35-5.83,42.1,42.1,0,0,1,.79-4.69,16.26,16.26,0,0,1,3.08-.81,23.39,23.39,0,0,1,4.27-.38c3.58,0,6.22.89,7.92,2.65s2.55,4.69,2.55,8.8v6.24a4.49,4.49,0,0,0,3.56,1.72Zm-8.36,0v-8q0-4.49-1.89-6.42t-5.76-1.94a15.22,15.22,0,0,0-3.83.44,45.46,45.46,0,0,0-.71,8.23c0,1.44.07,2.87.2,4.29s.27,2.56.42,3.41Z"/><path class="cls-1" d="M112.85,468.83v3H96.35v-3h6.56v-19h3.39v19Zm-12.71,6.55h3.34v3.7h-3.34Zm5.5,0H109v3.7h-3.34Z"/><path class="cls-1" d="M129.35,468.83v3h-16.5v-3h6.56v-19h3.39v19Zm-12.71,6.55H120v3.7h-3.34Zm5.5,0h3.34v3.7h-3.34Z"/><path class="cls-1" d="M156,468.83v3H129.35v-3h6.25c-.79-1.56-1.19-4-1.19-7.44a20.25,20.25,0,0,1,1-7,6,6,0,0,1,3.17-3.48,15.73,15.73,0,0,1,6.31-1,53.3,53.3,0,0,1,6.07.31l1.23.13v18.48Zm-16.64,0h9.38V453c-2-.14-3.41-.22-4.23-.22a8.55,8.55,0,0,0-4.22.84,4.35,4.35,0,0,0-2,2.64,17.81,17.81,0,0,0-.55,5Q137.76,466.89,139.38,468.83Zm-.57-26.75h3.35v3.69h-3.35Zm5.5,0h3.35v3.69h-3.35Z"/><path class="cls-1" d="M172.52,468.83v3H156v-3h6.55v-19H166v19Zm-12.68-26.75h3.35v3.69h-3.35Zm5.5,0h3.35v3.69h-3.35Z"/><path class="cls-1" d="M181.32,440.27v31.6h-8.8v-3h5.41V440.27Z"/><path class="cls-1" d="M189.24,440.27h3.38v31.6h-3.38Z"/><path class="cls-1" d="M212,449.29c1.66.18,3,.37,4.12.58v19.27q0,7-1.74,10.32t-6,3.32a53.51,53.51,0,0,1-6.64-.66v-3a44.67,44.67,0,0,0,6.42.62,4.89,4.89,0,0,0,2.49-.55,3.93,3.93,0,0,0,1.52-2.27,17,17,0,0,0,.57-5.05h-6.47c-3.2,0-5.31-1-6.36-3a17.23,17.23,0,0,1-1.56-7.88,23.46,23.46,0,0,1,.79-6.66,7,7,0,0,1,2.86-3.92,10.59,10.59,0,0,1,5.77-1.34C208.93,449,210.35,449.12,212,449.29Zm-9.13,17.32c.77,1.48,2.32,2.22,4.67,2.22h5.19V452.37a33.52,33.52,0,0,0-4.14-.3,7.53,7.53,0,0,0-4.18,1,5.18,5.18,0,0,0-2.09,2.9,17.14,17.14,0,0,0-.59,4.91A12.58,12.58,0,0,0,202.87,466.61Z"/><path class="cls-1" d="M271.91,468.83v3H241.59a25.17,25.17,0,0,1-6.68-.71,6.46,6.46,0,0,1-3.59-2.24,7.06,7.06,0,0,1-1.12-4.23,32.63,32.63,0,0,1,.42-4.62q.4-2.81,1-5.36l2.64.13c0,.2-.14.94-.31,2.2a64.08,64.08,0,0,0-.71,6.86,5,5,0,0,0,.77,3,4.45,4.45,0,0,0,2.56,1.52,21.3,21.3,0,0,0,5,.46h9.94c-.79-1.56-1.18-4-1.18-7.44a20.29,20.29,0,0,1,.94-7,6,6,0,0,1,3.17-3.48,15.77,15.77,0,0,1,6.31-1,53.49,53.49,0,0,1,6.08.31l1.23.13v18.48Zm-16.63,0h9.37V453c-2-.14-3.4-.22-4.22-.22a8.59,8.59,0,0,0-4.23.84,4.39,4.39,0,0,0-2,2.64,17.81,17.81,0,0,0-.55,5Q253.65,466.89,255.28,468.83ZM259,442.08h3.34v3.69H259Z"/><path class="cls-1" d="M288.41,468.83v3h-16.5v-3h6.56v-19h3.38v19Zm-12.72,6.55H279v3.7h-3.35Zm5.5,0h3.35v3.7h-3.35Z"/><path class="cls-1" d="M304.91,468.83v3h-16.5v-3H295v-19h3.38v19ZM295,442.08h3.34v3.69H295Z"/><path class="cls-1" d="M341.34,468.83v3H304.91v-3h6.42v-19h3.39v7a42.2,42.2,0,0,1,3.59-4,13.37,13.37,0,0,1,3.76-2.51,12.11,12.11,0,0,1,5-1q5.55,0,7.86,3.41a13.92,13.92,0,0,1,2.3,8v8ZM321.63,454a16.81,16.81,0,0,0-3.78,3.19q-1.46,1.69-3.13,4v7.66h19.1v-7.52A10.5,10.5,0,0,0,332,455a6.12,6.12,0,0,0-5.3-2.53A9.16,9.16,0,0,0,321.63,454Z"/><path class="cls-1" d="M357.84,468.83v3h-16.5v-3h6.56v-19h3.38v19Zm-12.67-26.75h3.34v3.69h-3.34Zm5.5,0H354v3.69h-3.34Z"/><path class="cls-1" d="M372.23,468.83v3H357.84v-3h5.41V440.27h3.39v28.56Z"/><path class="cls-1" d="M381,440.27v31.6h-8.8v-3h5.41V440.27Z"/><path class="cls-1" d="M421.46,468.83v3H406.81a14.27,14.27,0,0,1-6.16-1.1,6.56,6.56,0,0,1-3.23-3.5,17.56,17.56,0,0,1-1-6.54,18.66,18.66,0,0,1,.94-6.55,6.58,6.58,0,0,1,3.13-3.61,12.73,12.73,0,0,1,5.87-1.15c1.09,0,2.75.06,5,.16s3.93.21,5.08.33v18.92Zm-20.92-3.39A4.86,4.86,0,0,0,402.9,468a10.19,10.19,0,0,0,4.48.81h5.68V452.77c-2.58-.18-4.58-.27-6-.27-2.67,0-4.55.64-5.64,1.9s-1.62,3.34-1.62,6.25A12.94,12.94,0,0,0,400.54,465.44Zm2.71-23.36h3.34v3.69h-3.34Zm5.5,0h3.34v3.69h-3.34Z"/><path class="cls-1" d="M438,468.83v3h-16.5v-3H428v-19h3.39v19Zm-12.71,6.55h3.34v3.7h-3.34Zm5.5,0h3.34v3.7h-3.34Z"/><path class="cls-1" d="M446.76,440.27v31.6H438v-3h5.42V440.27Z"/><path class="cls-1" d="M462.21,468.83v3h-7.53v-31.6h3.39v28.56Z"/><path class="cls-1" d="M478.71,468.83v3h-16.5v-3h6.55v-19h3.39v19ZM466,442.08h3.35v3.69H466Zm5.5,0h3.35v3.69h-3.35Z"/><path class="cls-1" d="M487.51,440.27v31.6h-8.8v-3h5.41V440.27Z"/><path class="cls-1" d="M495.43,440.27h3.38v31.6h-3.38Z"/><path class="cls-1" d="M529.15,449.58c2.25.1,3.94.21,5.08.33v22H524.6a14.24,14.24,0,0,1-6.16-1.1,6.54,6.54,0,0,1-3.24-3.5,17.56,17.56,0,0,1-1-6.54,18.64,18.64,0,0,1,.95-6.55,6.57,6.57,0,0,1,3.12-3.61,12.77,12.77,0,0,1,5.88-1.15C525.24,449.42,526.91,449.48,529.15,449.58Zm-10.82,15.86a4.84,4.84,0,0,0,2.35,2.58,10.24,10.24,0,0,0,4.49.81h5.68V452.77c-2.59-.18-4.58-.27-6-.27-2.67,0-4.55.64-5.63,1.9s-1.63,3.34-1.63,6.25A12.72,12.72,0,0,0,518.33,465.44Zm1.95-23.36h3.35v3.69h-3.35Zm5.5,0h3.35v3.69h-3.35Z"/><path class="cls-1" d="M561.82,471.87h-5.5q-.27,5.53-2.05,8.22a6.23,6.23,0,0,1-5.61,2.69,53.68,53.68,0,0,1-6.64-.66v-3a44.67,44.67,0,0,0,6.42.62,4.89,4.89,0,0,0,2.49-.55,3.93,3.93,0,0,0,1.52-2.27,17,17,0,0,0,.57-5.05h-6.47c-3.19,0-5.31-1-6.36-3a17.23,17.23,0,0,1-1.56-7.88,23.46,23.46,0,0,1,.79-6.66,7,7,0,0,1,2.86-3.92,10.59,10.59,0,0,1,5.77-1.34c1.17,0,2.59.09,4.24.26s3,.37,4.12.58v19h5.41Zm-18.66-5.26c.77,1.48,2.32,2.22,4.67,2.22H553V452.37a33.52,33.52,0,0,0-4.14-.3,7.56,7.56,0,0,0-4.18,1,5.12,5.12,0,0,0-2.08,2.9,16.76,16.76,0,0,0-.6,4.91A12.58,12.58,0,0,0,543.16,466.61Z"/><path class="cls-1" d="M596.14,468.83v3H561.82v-3H566V440.27h3.38v19.27a32.08,32.08,0,0,1,5.77-7.34,10.37,10.37,0,0,1,11.81-1.63,8.8,8.8,0,0,1,3.65,3.72,13.24,13.24,0,0,1,1.43,6.53v8Zm-20.53-13.71a21.65,21.65,0,0,0-4.53,6.25,14.3,14.3,0,0,0-1.74,5.83v1.63h19.28v-8.05a9.47,9.47,0,0,0-1.08-4.78,6.63,6.63,0,0,0-2.71-2.7,7.1,7.1,0,0,0-3.3-.84A8.55,8.55,0,0,0,575.61,455.12Z"/><path class="cls-1" d="M622.19,468.83v3H596.14v-3h17.64V456.91a4.48,4.48,0,0,0-1.14-3.33,4.71,4.71,0,0,0-3.43-1.12q-2,0-7.83.71l-1.24.13-.13-2.51a54.71,54.71,0,0,1,10-1.37q7.21,0,7.21,7.53v11.88Zm-14.7-26.75h3.35v3.69h-3.35Z"/><path class="cls-1" d="M631,440.27v31.6h-8.8v-3h5.41V440.27Z"/><path class="cls-1" d="M638.91,440.27h3.39v31.6h-3.39Z"/><path class="cls-1" d="M696.15,471.87h-5.59v.57a10.85,10.85,0,0,1-2.51,7.52q-2.5,2.82-7.21,2.82H669.27a14.14,14.14,0,0,1-5.86-1.19,10.26,10.26,0,0,1-4.18-3.32,8.17,8.17,0,0,1-1.54-4.86,73.5,73.5,0,0,1,1.15-9.73l3.21.53a76,76,0,0,0-1,8.45,6.5,6.5,0,0,0,1.08,3.69,7.15,7.15,0,0,0,2.9,2.51,9,9,0,0,0,4,.88l11.61.05a6,6,0,0,0,4.82-2,7.58,7.58,0,0,0,1.69-5.08,5.55,5.55,0,0,0,0-.83h-1.06a9.93,9.93,0,0,1-5.41-1.28l1.41-2.51a3.85,3.85,0,0,0,1.69.64,24.32,24.32,0,0,0,2.62.11h9.77ZM669.66,486H673v3.69h-3.35Zm5.5,0h3.35v3.69h-3.35Z"/><path class="cls-1" d="M718.94,450.35v21.52H696.15v-3h6.25c-.79-1.56-1.19-4-1.19-7.44a20.25,20.25,0,0,1,.95-7,6,6,0,0,1,3.16-3.48,15.79,15.79,0,0,1,6.32-1,53.3,53.3,0,0,1,6.07.31Zm-12.76,18.48h9.37V453c-2-.14-3.4-.22-4.22-.22a8.53,8.53,0,0,0-4.22.84,4.4,4.4,0,0,0-2,2.64,18.18,18.18,0,0,0-.55,5C704.55,465,705.1,467.54,706.18,468.83Zm3.08-26.75h3.35v3.69h-3.35Z"/><path class="cls-2" d="M49.3,494.22C35.93,494,28.52,488,28.52,473.14V457.92H46.71v18h-7c-.56,6.42,3.26,10.37,11,11.16Zm-28.53,0C7.41,494,0,488,0,473.14V457.92H18.19v18h-7c-.56,6.42,3.26,10.37,11,11.16Z"/><path class="cls-2" d="M728.7,121.89c13.37.23,20.78,6.2,20.78,21.08v15.22H731.29v-18h7c.56-6.43-3.26-10.38-11-11.17Zm28.53,0c13.36.23,20.77,6.2,20.77,21.08v15.22H759.81v-18h7c.56-6.43-3.26-10.38-11-11.17Z"/><path class="cls-1" d="M435.92,43.87v8.91H410.15a34.05,34.05,0,0,1-11.39-1.53,10.88,10.88,0,0,1-6.16-5.59q-2-4-2-11.79,0-7.36,1.9-11.28a10.63,10.63,0,0,1,6.13-5.47q4.23-1.58,11.9-1.57,4.08,0,9.78.29c3.79.2,6.47.41,8,.66V43.87Zm-34.49-3.76a5.66,5.66,0,0,0,3.25,3,17.78,17.78,0,0,0,6,.8h7.89v-19c-2.44-.24-5-.36-7.67-.36a19,19,0,0,0-6.24.8,5.63,5.63,0,0,0-3.25,2.81,13.13,13.13,0,0,0-1,5.8A14.45,14.45,0,0,0,401.43,40.11ZM402.05.37h7.52V9.49h-7.52Zm11.09,0h7.52V9.49h-7.52Z"/><path class="cls-1" d="M467.53,43.87v8.91H435.92V43.87H446.8V16.28h9.78V43.87ZM442.27,58.62h7.52v9.12h-7.52Zm11.1,0h7.52v9.12h-7.52Z"/><path class="cls-1" d="M521.4,43.87v8.91h-4a3.65,3.65,0,0,1-2.34-.88,5,5,0,0,1-1.6-2.26v3.14H467.53V43.87h11.39a49.31,49.31,0,0,1-1-9.27,49.71,49.71,0,0,1,.8-8.61,66.82,66.82,0,0,1,1.82-8,25.05,25.05,0,0,1,5.84-1.68,47.23,47.23,0,0,1,8.62-.73q7.51,0,11.57,2.19A11.16,11.16,0,0,1,512,24a32,32,0,0,1,1.43,10.51v6.2a4.77,4.77,0,0,0,1.6,2.3,3.78,3.78,0,0,0,2.34.84Zm-33.69-4.19c.22,1.72.45,3.12.7,4.19h15.25V34.31c0-3.41-.66-5.91-2-7.52s-3.91-2.41-7.7-2.41a26.85,26.85,0,0,0-5.55.59,53.39,53.39,0,0,0-1,9.63A42.12,42.12,0,0,0,487.71,39.68Z"/><path class="cls-1" d="M547.83,43.87v8.91H521.4V43.87h9V1.68h9.78V43.87Z"/><path class="cls-1" d="M596.45,43.87v8.91h-9.57a34,34,0,0,1-7.41-.84,37.7,37.7,0,0,1-7-2.3,38.22,38.22,0,0,1-7,2.3,31.77,31.77,0,0,1-7.05.84H547.83V43.87H558.2a23.58,23.58,0,0,0,5-.58A59.38,59.38,0,0,1,555.31,35a12.36,12.36,0,0,1-2.66-7.52l-.22-6.42a37.78,37.78,0,0,1,9-3.94,36.14,36.14,0,0,1,11-1.76,37,37,0,0,1,11,1.76,41,41,0,0,1,9.24,3.94l-.29,6.42A12.18,12.18,0,0,1,589.62,35a65.56,65.56,0,0,1-7.85,8.25,23.86,23.86,0,0,0,5,.58Zm-16-11.24a11.39,11.39,0,0,0,2.52-6.5,32.89,32.89,0,0,0-10.51-1.82,31.39,31.39,0,0,0-10.29,1.82,11.78,11.78,0,0,0,2.62,6.72,24.87,24.87,0,0,0,7.74,6.64A27.3,27.3,0,0,0,580.42,32.63Z"/><path class="cls-1" d="M615.21,1.68v51.1H596.45V43.87h9V1.68Z"/><path class="cls-1" d="M626.89,1.68h9.78v51.1h-9.78Z"/><path class="cls-1" d="M707.55,43.87v8.91H681.78a34.05,34.05,0,0,1-11.39-1.53,10.93,10.93,0,0,1-6.17-5.59q-2-4-2-11.79,0-7.36,1.89-11.28a10.68,10.68,0,0,1,6.14-5.47q4.23-1.58,11.89-1.57,4.1,0,9.79.29c3.79.2,6.47.41,8,.66V43.87Zm-34.49-3.76a5.64,5.64,0,0,0,3.24,3,17.84,17.84,0,0,0,6,.8h7.88v-19q-3.64-.36-7.66-.36a19,19,0,0,0-6.24.8A5.6,5.6,0,0,0,673,28.07a13.13,13.13,0,0,0-1,5.8A14.45,14.45,0,0,0,673.06,40.11ZM673.68.37h7.52V9.49h-7.52Zm11.09,0h7.52V9.49h-7.52Z"/><path class="cls-1" d="M739.16,43.87v8.91H707.55V43.87h10.88V16.28h9.78V43.87ZM718.72,0h9V9.49h-9Z"/><path class="cls-1" d="M784,43.87v8.91H739.16V43.87h27.52V30.15a7.08,7.08,0,0,0-1.35-4.71q-1.35-1.57-4.64-1.57-6.72.22-11.68.44l-3.72.15L745,18a71.71,71.71,0,0,1,9.2-1.72,73.92,73.92,0,0,1,9.12-.69q6.87,0,10,2.88t3.17,9.16V43.87ZM757.19,58.62h9v9.49h-9Z"/><path class="cls-1" d="M810.41,43.87v8.91H784V43.87h9V1.68h9.78V43.87Z"/><path class="cls-1" d="M829.17,1.68v51.1H810.41V43.87h9V1.68Z"/><path class="cls-1" d="M840.85,1.68h9.78v51.1h-9.78Z"/></g></g></svg>