<svg xmlns="http://www.w3.org/2000/svg" viewBox="0 0 925.64 458.3"><defs><style>.cls-1{fill:#fff;}.cls-2{fill:#98a6d4;}.cls-3{fill:#a8ca59;}</style></defs><g id="Layer_2" data-name="Layer 2"><g id="Calque_1" data-name="Calque 1"><path class="cls-1" d="M3,112.5H5.34v18.81H17.16v2.19H3Z"/><path class="cls-1" d="M27.57,131.85a6.42,6.42,0,0,0,4.89-2.19L33.9,131a8,8,0,0,1-6.39,2.91,7.72,7.72,0,0,1-7.74-8.1c0-4.5,3.15-8.1,7.44-8.1,4.59,0,7.23,3.66,7.23,8.22a6.28,6.28,0,0,1,0,.72H22.11A5.44,5.44,0,0,0,27.57,131.85Zm4.53-7c-.24-2.82-1.86-5.28-5-5.28-2.7,0-4.74,2.25-5,5.28Z"/><path class="cls-1" d="M49.17,118V134.4c0,2.73-1.44,4-3.78,4a5.73,5.73,0,0,1-1.44-.15v-1.89a7.59,7.59,0,0,0,1.14.09c1,0,1.77-.63,1.77-2.07V118Zm-2.46-3.39v-2.55h2.64v2.55Z"/><path class="cls-1" d="M65.13,118h2.28V133.5H65.13v-2.7a5.91,5.91,0,0,1-5.31,3c-3.75,0-5.94-2.52-5.94-6.21V118h2.31v9.06c0,2.88,1.56,4.68,4.29,4.68a4.58,4.58,0,0,0,4.65-4.86Z"/><path class="cls-1" d="M74.49,133.5H72.18V118h2.31V122a6.64,6.64,0,0,1,6.33-4.32v2.49h-.18c-3.39,0-6.15,2.43-6.15,7.11Z"/><path class="cls-1" d="M91.47,134c-1.32,3.21-2.82,4.38-5.16,4.38a7,7,0,0,1-3.3-.78l.78-1.83a4.85,4.85,0,0,0,2.43.57c1.38,0,2.25-.72,3.18-2.91L82.35,118H84.9l5.64,12.93,5-12.93H98Z"/><path class="cls-1" d="M110.7,121l-.69-1.89a12.81,12.81,0,0,1,5.64-1.29c4.23,0,6.6,2.16,6.6,6.24v9.48H120v-2.34a6.8,6.8,0,0,1-5.61,2.67c-2.88,0-5.79-1.62-5.79-4.86s2.7-5,6.63-5a16.47,16.47,0,0,1,4.77.66v-.54c0-2.79-1.71-4.23-4.62-4.23A10.8,10.8,0,0,0,110.7,121Zm.27,7.92c0,2,1.8,3.12,3.9,3.12,2.85,0,5.19-1.74,5.19-4.2v-1.5a16.18,16.18,0,0,0-4.56-.66C112.59,125.64,111,126.9,111,128.88Z"/><path class="cls-1" d="M142.17,131.85a6.42,6.42,0,0,0,4.89-2.19L148.5,131a8,8,0,0,1-6.39,2.91,7.72,7.72,0,0,1-7.74-8.1c0-4.5,3.15-8.1,7.44-8.1,4.59,0,7.23,3.66,7.23,8.22a6.28,6.28,0,0,1,0,.72h-12.3A5.44,5.44,0,0,0,142.17,131.85Zm4.53-7c-.24-2.82-1.86-5.28-4.95-5.28-2.7,0-4.74,2.25-5,5.28Zm-6.33-9.24,2.85-4.35,2.4,1.11-3.39,3.24Z"/><path class="cls-1" d="M155.79,129.09a2.29,2.29,0,0,0,2.61,2.58,4.86,4.86,0,0,0,2.25-.54v2a5.81,5.81,0,0,1-2.79.66c-2.49,0-4.38-1.23-4.38-4.38V120h-2.16v-2h2.16v-4.68h2.31V118h4.92v2h-4.92Z"/><path class="cls-1" d="M171.21,131.85a6.42,6.42,0,0,0,4.89-2.19l1.44,1.29a8,8,0,0,1-6.39,2.91,7.72,7.72,0,0,1-7.74-8.1c0-4.5,3.15-8.1,7.44-8.1,4.59,0,7.23,3.66,7.23,8.22a6.28,6.28,0,0,1,0,.72h-12.3A5.44,5.44,0,0,0,171.21,131.85Zm4.53-7c-.24-2.82-1.86-5.28-5-5.28-2.7,0-4.74,2.25-5,5.28Zm-6.33-9.24,2.85-4.35,2.4,1.11-3.39,3.24Z"/><path class="cls-1" d="M195.42,133.8a10.67,10.67,0,0,1-6.42-2.28l1.17-1.65a9.07,9.07,0,0,0,5.37,2c1.86,0,3.21-1,3.21-2.46v-.06c0-1.56-1.83-2.16-3.87-2.73-2.43-.69-5.13-1.53-5.13-4.38v-.06c0-2.67,2.22-4.44,5.28-4.44a10.6,10.6,0,0,1,5.58,1.71l-1.05,1.74a8.77,8.77,0,0,0-4.59-1.5c-1.83,0-3,1-3,2.25V122c0,1.47,1.92,2,4,2.67,2.4.72,5,1.65,5,4.44v.06C200.94,132.09,198.51,133.8,195.42,133.8Z"/><path class="cls-1" d="M211.65,131.85a6.42,6.42,0,0,0,4.89-2.19L218,131a8,8,0,0,1-6.39,2.91,7.72,7.72,0,0,1-7.74-8.1c0-4.5,3.15-8.1,7.44-8.1,4.59,0,7.23,3.66,7.23,8.22a6.28,6.28,0,0,1,0,.72h-12.3A5.44,5.44,0,0,0,211.65,131.85Zm4.53-7c-.24-2.82-1.86-5.28-5-5.28-2.7,0-4.74,2.25-5,5.28Zm-6.33-9.24,2.85-4.35,2.4,1.11-3.39,3.24Z"/><path class="cls-1" d="M222.36,133.5V111.6h2.31v21.9Z"/><path class="cls-1" d="M236.46,131.85a6.42,6.42,0,0,0,4.89-2.19l1.44,1.29a8,8,0,0,1-6.39,2.91,7.72,7.72,0,0,1-7.74-8.1c0-4.5,3.15-8.1,7.44-8.1,4.59,0,7.23,3.66,7.23,8.22a6.28,6.28,0,0,1,0,.72H231A5.44,5.44,0,0,0,236.46,131.85Zm4.53-7c-.24-2.82-1.86-5.28-5-5.28-2.7,0-4.74,2.25-5,5.28Z"/><path class="cls-1" d="M254,133.86a8.1,8.1,0,1,1,6.21-13.44L258.63,122a6.26,6.26,0,0,0-4.71-2.34,5.73,5.73,0,0,0-5.55,6,5.8,5.8,0,0,0,5.7,6.06,6.4,6.4,0,0,0,4.74-2.31l1.47,1.38A8,8,0,0,1,254,133.86Z"/><path class="cls-1" d="M266.79,129.09a2.29,2.29,0,0,0,2.61,2.58,4.86,4.86,0,0,0,2.25-.54v2a5.81,5.81,0,0,1-2.79.66c-2.49,0-4.38-1.23-4.38-4.38V120h-2.16v-2h2.16v-4.68h2.31V118h4.92v2h-4.92Z"/><path class="cls-1" d="M275.43,114.6v-2.55h2.64v2.55Zm.15,18.9V118h2.31V133.5Z"/><path class="cls-1" d="M289.92,133.86a8,8,0,0,1-8-8.07,8.08,8.08,0,1,1,8,8.07Zm0-14.16a5.7,5.7,0,0,0-5.67,6,5.83,5.83,0,0,0,5.73,6.06,5.71,5.71,0,0,0,5.69-6A5.85,5.85,0,0,0,289.92,119.7Z"/><path class="cls-1" d="M304.11,133.5H301.8V118h2.31v2.7a5.87,5.87,0,0,1,5.31-3c3.75,0,5.94,2.52,5.94,6.21v9.63H313v-9.06c0-2.88-1.55-4.68-4.28-4.68a4.56,4.56,0,0,0-4.65,4.86Z"/><path class="cls-1" d="M322.17,133.5h-2.31V118h2.31v2.7a5.86,5.86,0,0,1,5.3-3c3.75,0,5.95,2.52,5.95,6.21v9.63H331.1v-9.06c0-2.88-1.56-4.68-4.28-4.68a4.56,4.56,0,0,0-4.65,4.86Z"/><path class="cls-1" d="M344.75,131.85a6.42,6.42,0,0,0,4.89-2.19l1.44,1.29a8,8,0,0,1-6.39,2.91,7.71,7.71,0,0,1-7.73-8.1c0-4.5,3.14-8.1,7.43-8.1,4.59,0,7.23,3.66,7.23,8.22a6.28,6.28,0,0,1,0,.72h-12.3A5.44,5.44,0,0,0,344.75,131.85Zm4.53-7c-.24-2.82-1.86-5.28-4.95-5.28-2.7,0-4.74,2.25-5,5.28ZM343,115.65l2.84-4.35,2.4,1.11-3.39,3.24Z"/><path class="cls-1" d="M370.67,131.85a6.42,6.42,0,0,0,4.89-2.19L377,131a8,8,0,0,1-6.39,2.91,7.71,7.71,0,0,1-7.73-8.1c0-4.5,3.14-8.1,7.43-8.1,4.59,0,7.23,3.66,7.23,8.22a6.28,6.28,0,0,1,0,.72h-12.3A5.44,5.44,0,0,0,370.67,131.85Zm4.53-7c-.24-2.82-1.86-5.28-4.95-5.28-2.7,0-4.74,2.25-5,5.28Z"/><path class="cls-1" d="M383.48,133.5h-2.31V118h2.31v2.7a5.87,5.87,0,0,1,5.31-3c3.75,0,5.94,2.52,5.94,6.21v9.63h-2.31v-9.06c0-2.88-1.56-4.68-4.29-4.68a4.56,4.56,0,0,0-4.65,4.86Z"/><path class="cls-1" d="M410.12,133.5h-2.31V118h2.31V122a6.64,6.64,0,0,1,6.33-4.32v2.49h-.18c-3.39,0-6.15,2.43-6.15,7.11Z"/><path class="cls-1" d="M426.38,131.85a6.42,6.42,0,0,0,4.89-2.19l1.44,1.29a8,8,0,0,1-6.39,2.91,7.72,7.72,0,0,1-7.74-8.1c0-4.5,3.15-8.1,7.44-8.1,4.59,0,7.23,3.66,7.23,8.22a6.28,6.28,0,0,1,0,.72h-12.3A5.44,5.44,0,0,0,426.38,131.85Zm4.53-7c-.24-2.82-1.86-5.28-5-5.28-2.7,0-4.74,2.25-5,5.28Zm-6.33-9.24,2.85-4.35,2.4,1.11-3.39,3.24Z"/><path class="cls-1" d="M445.13,133.83a7,7,0,0,1-5.94-3.3v7.77h-2.31V118h2.31v3.12a7,7,0,0,1,5.94-3.45c3.72,0,7.41,2.94,7.41,8.07S448.88,133.83,445.13,133.83Zm-.42-14.1a6,6,0,0,0,0,12c3,0,5.46-2.22,5.46-6S447.65,119.73,444.71,119.73Z"/><path class="cls-1" d="M463.46,133.86a8,8,0,0,1-8-8.07,8.09,8.09,0,1,1,8,8.07Zm0-14.16a5.7,5.7,0,0,0-5.67,6,5.83,5.83,0,0,0,5.73,6.06,5.71,5.71,0,0,0,5.7-6A5.86,5.86,0,0,0,463.46,119.7Z"/><path class="cls-1" d="M477.65,133.5h-2.31V118h2.31v2.7a5.87,5.87,0,0,1,5.31-3c3.75,0,5.94,2.52,5.94,6.21v9.63h-2.31v-9.06c0-2.88-1.56-4.68-4.29-4.68a4.56,4.56,0,0,0-4.65,4.86Z"/><path class="cls-1" d="M498.53,133.8a10.67,10.67,0,0,1-6.42-2.28l1.17-1.65a9.07,9.07,0,0,0,5.37,2c1.86,0,3.21-1,3.21-2.46v-.06c0-1.56-1.83-2.16-3.87-2.73-2.43-.69-5.13-1.53-5.13-4.38v-.06c0-2.67,2.22-4.44,5.28-4.44a10.6,10.6,0,0,1,5.58,1.71l-1.05,1.74a8.77,8.77,0,0,0-4.59-1.5c-1.83,0-3,1-3,2.25V122c0,1.47,1.92,2,4,2.67,2.4.72,5,1.65,5,4.44v.06C504.05,132.09,501.62,133.8,498.53,133.8Z"/><path class="cls-1" d="M514.76,131.85a6.42,6.42,0,0,0,4.89-2.19l1.44,1.29a8,8,0,0,1-6.39,2.91,7.72,7.72,0,0,1-7.74-8.1c0-4.5,3.15-8.1,7.44-8.1,4.59,0,7.23,3.66,7.23,8.22a6.28,6.28,0,0,1,0,.72H509.3A5.44,5.44,0,0,0,514.76,131.85Zm4.53-7c-.24-2.82-1.86-5.28-4.95-5.28-2.7,0-4.74,2.25-5,5.28Z"/><path class="cls-1" d="M534.74,121l-.69-1.89a12.81,12.81,0,0,1,5.64-1.29c4.23,0,6.6,2.16,6.6,6.24v9.48h-2.22v-2.34a6.8,6.8,0,0,1-5.61,2.67c-2.88,0-5.79-1.62-5.79-4.86s2.7-5,6.63-5a16.47,16.47,0,0,1,4.77.66v-.54c0-2.79-1.71-4.23-4.62-4.23A10.8,10.8,0,0,0,534.74,121Zm.27,7.92c0,2,1.8,3.12,3.9,3.12,2.85,0,5.19-1.74,5.19-4.2v-1.5a16.18,16.18,0,0,0-4.56-.66C536.63,125.64,535,126.9,535,128.88Zm.69-16.47,2.4-1.11,2.85,4.35h-1.86Z"/><path class="cls-1" d="M560.36,112.5h12.09v2.19h-10l-.45,6.72a9.48,9.48,0,0,1,4.14-.93c4.08,0,7.26,2.43,7.26,6.45s-3.12,6.93-7.5,6.93a10.71,10.71,0,0,1-7.5-3.33l1.56-1.71a8.79,8.79,0,0,0,6,2.88c3,0,5.07-2,5.07-4.68s-2.13-4.44-5.22-4.44a9.06,9.06,0,0,0-4.41,1.2l-1.59-1Z"/><path class="cls-1" d="M592.88,133.86a8.1,8.1,0,1,1,6.21-13.44L597.56,122a6.26,6.26,0,0,0-4.71-2.34,5.73,5.73,0,0,0-5.55,6,5.8,5.8,0,0,0,5.7,6.06,6.4,6.4,0,0,0,4.74-2.31l1.47,1.38A8,8,0,0,1,592.88,133.86Z"/><path class="cls-1" d="M604.91,133.5H602.6V118h2.31V122a6.64,6.64,0,0,1,6.33-4.32v2.49h-.18c-3.39,0-6.15,2.43-6.15,7.11Z"/><path class="cls-1" d="M614.39,114.6v-2.55H617v2.55Zm.15,18.9V118h2.31V133.5Z"/><path class="cls-1" d="M624.92,129.09a2.29,2.29,0,0,0,2.61,2.58,4.86,4.86,0,0,0,2.25-.54v2a5.81,5.81,0,0,1-2.79.66c-2.49,0-4.38-1.23-4.38-4.38V120h-2.16v-2h2.16v-4.68h2.31V118h4.92v2h-4.92Z"/><path class="cls-1" d="M640.34,131.85a6.42,6.42,0,0,0,4.89-2.19l1.44,1.29a8,8,0,0,1-6.39,2.91,7.72,7.72,0,0,1-7.74-8.1c0-4.5,3.15-8.1,7.44-8.1,4.59,0,7.23,3.66,7.23,8.22a6.28,6.28,0,0,1,0,.72h-12.3A5.44,5.44,0,0,0,640.34,131.85Zm4.53-7c-.24-2.82-1.86-5.28-5-5.28-2.7,0-4.74,2.25-5,5.28Zm-9.06-12.48,2.4-1.11,2.85,4.35H639.2Z"/><path class="cls-1" d="M653.15,133.5h-2.31V118h2.31V122a6.64,6.64,0,0,1,6.33-4.32v2.49h-.18c-3.39,0-6.15,2.43-6.15,7.11Z"/><path class="cls-1" d="M669.41,131.85a6.42,6.42,0,0,0,4.89-2.19l1.44,1.29a8,8,0,0,1-6.39,2.91,7.72,7.72,0,0,1-7.74-8.1c0-4.5,3.15-8.1,7.44-8.1,4.59,0,7.23,3.66,7.23,8.22a6.28,6.28,0,0,1,0,.72H664A5.44,5.44,0,0,0,669.41,131.85Zm4.53-7c-.24-2.82-1.86-5.28-5-5.28-2.7,0-4.74,2.25-5,5.28Z"/><path class="cls-1" d="M685,133.8a10.67,10.67,0,0,1-6.42-2.28l1.17-1.65a9.07,9.07,0,0,0,5.37,2c1.86,0,3.21-1,3.21-2.46v-.06c0-1.56-1.83-2.16-3.87-2.73-2.43-.69-5.13-1.53-5.13-4.38v-.06c0-2.67,2.22-4.44,5.28-4.44a10.6,10.6,0,0,1,5.58,1.71l-1.05,1.74a8.77,8.77,0,0,0-4.59-1.5c-1.83,0-3,1-3,2.25V122c0,1.47,1.92,2,4,2.67,2.4.72,5,1.65,5,4.44v.06C690.56,132.09,688.13,133.8,685,133.8Z"/><path class="cls-1" d="M702.89,121.14V118h2.76v3.15Zm0,12.36v-3.15h2.76v3.15Z"/><path class="cls-2" d="M8.9,186.05l-6.1,1.5-1.6-6.3,10.05-3H16.5V213.5H8.9Z"/><path class="cls-2" d="M23.5,205.5h8.1v8H23.5Z"/><path class="cls-1" d="M60.73,194.66H47.92v7.17H59.38V204H47.92v7.35h13v2.16H45.55v-21H60.73Z"/><path class="cls-1" d="M78.31,213.5H75.64l-4.8-6.33L66,213.5H63.43l6.09-7.89L63.67,198h2.64l4.59,6,4.59-6h2.58l-5.88,7.56Z"/><path class="cls-1" d="M89.89,213.83a7,7,0,0,1-5.94-3.3v7.77H81.64V198H84v3.12a7,7,0,0,1,5.94-3.45c3.72,0,7.41,2.94,7.41,8.07S93.64,213.83,89.89,213.83Zm-.42-14.1a6,6,0,0,0,0,12c3,0,5.46-2.22,5.46-6S92.41,199.73,89.47,199.73Z"/><path class="cls-1" d="M108,211.85a6.42,6.42,0,0,0,4.89-2.19l1.44,1.29a8,8,0,0,1-6.39,2.91,7.72,7.72,0,0,1-7.74-8.1c0-4.5,3.15-8.1,7.44-8.1,4.59,0,7.23,3.66,7.23,8.22a6.28,6.28,0,0,1,0,.72h-12.3A5.44,5.44,0,0,0,108,211.85Zm4.53-7c-.24-2.82-1.86-5.28-5-5.28-2.7,0-4.74,2.25-5,5.28Z"/><path class="cls-1" d="M120.79,213.5h-2.31V198h2.31v4a6.64,6.64,0,0,1,6.33-4.32v2.49h-.18c-3.39,0-6.15,2.43-6.15,7.11Z"/><path class="cls-1" d="M133.33,209.09a2.29,2.29,0,0,0,2.61,2.58,4.86,4.86,0,0,0,2.25-.54v2a5.81,5.81,0,0,1-2.79.66c-2.49,0-4.38-1.23-4.38-4.38V200h-2.16v-2H131v-4.68h2.31V198h4.92v2h-4.92Z"/><path class="cls-1" d="M142,194.6v-2.55h2.64v2.55Zm.15,18.9V198h2.31V213.5Z"/><path class="cls-1" d="M154.51,213.8a10.67,10.67,0,0,1-6.42-2.28l1.17-1.65a9.07,9.07,0,0,0,5.37,2c1.86,0,3.21-1,3.21-2.46v-.06c0-1.56-1.83-2.16-3.87-2.73-2.43-.69-5.13-1.53-5.13-4.38v-.06c0-2.67,2.22-4.44,5.28-4.44a10.6,10.6,0,0,1,5.58,1.71l-1,1.74a8.77,8.77,0,0,0-4.59-1.5c-1.83,0-3,1-3,2.25V202c0,1.47,1.92,2,4,2.67,2.4.72,5,1.65,5,4.44v.06C160,212.09,157.6,213.8,154.51,213.8Z"/><path class="cls-1" d="M170.74,211.85a6.42,6.42,0,0,0,4.89-2.19l1.44,1.29a8,8,0,0,1-6.39,2.91,7.72,7.72,0,0,1-7.74-8.1c0-4.5,3.15-8.1,7.44-8.1,4.59,0,7.23,3.66,7.23,8.22a6.28,6.28,0,0,1,0,.72h-12.3A5.44,5.44,0,0,0,170.74,211.85Zm4.53-7c-.24-2.82-1.86-5.28-5-5.28-2.7,0-4.74,2.25-5,5.28Z"/><path class="cls-1" d="M195,213.8a10.67,10.67,0,0,1-6.42-2.28l1.17-1.65a9.07,9.07,0,0,0,5.37,2c1.86,0,3.21-1,3.21-2.46v-.06c0-1.56-1.83-2.16-3.87-2.73-2.43-.69-5.13-1.53-5.13-4.38v-.06c0-2.67,2.22-4.44,5.28-4.44a10.6,10.6,0,0,1,5.58,1.71l-1,1.74a8.77,8.77,0,0,0-4.59-1.5c-1.83,0-3,1-3,2.25V202c0,1.47,1.92,2,4,2.67,2.4.72,5,1.65,5,4.44v.06C200.47,212.09,198,213.8,195,213.8Z"/><path class="cls-1" d="M211.42,213.86a8,8,0,0,1-8-8.07,8.09,8.09,0,1,1,8,8.07Zm0-14.16a5.7,5.7,0,0,0-5.67,6,5.83,5.83,0,0,0,5.73,6.06,5.71,5.71,0,0,0,5.7-6A5.86,5.86,0,0,0,211.42,199.7Z"/><path class="cls-1" d="M223.51,213.5V191.6h2.31v21.9Z"/><path class="cls-1" d="M230.83,194.6v-2.55h2.64v2.55Zm.15,18.9V198h2.31V213.5Z"/><path class="cls-1" d="M250.69,213.5v-3.12a7,7,0,0,1-5.94,3.45c-3.72,0-7.41-2.94-7.41-8.07s3.69-8.1,7.41-8.1a7,7,0,0,1,5.94,3.3V191.6H253v21.9Zm-5.52-13.77c-3,0-5.46,2.22-5.46,6s2.52,6,5.46,6a6,6,0,0,0,0-12Z"/><path class="cls-1" d="M264.58,211.85a6.42,6.42,0,0,0,4.89-2.19l1.44,1.29a8,8,0,0,1-6.39,2.91,7.72,7.72,0,0,1-7.74-8.1c0-4.5,3.15-8.1,7.44-8.1,4.59,0,7.23,3.66,7.23,8.22a6.28,6.28,0,0,1,0,.72h-12.3A5.44,5.44,0,0,0,264.58,211.85Zm4.53-7c-.24-2.82-1.86-5.28-4.95-5.28-2.7,0-4.74,2.25-5,5.28Z"/><path class="cls-1" d="M296.11,213.5v-3.12a7,7,0,0,1-5.94,3.45c-3.72,0-7.41-2.94-7.41-8.07s3.69-8.1,7.41-8.1a7,7,0,0,1,5.94,3.3V191.6h2.31v21.9Zm-5.52-13.77c-3,0-5.46,2.22-5.46,6s2.52,6,5.46,6a6,6,0,0,0,0-12Z"/><path class="cls-1" d="M304.05,201l-.68-1.89a12.76,12.76,0,0,1,5.63-1.29c4.23,0,6.6,2.16,6.6,6.24v9.48h-2.22v-2.34a6.79,6.79,0,0,1-5.6,2.67c-2.89,0-5.79-1.62-5.79-4.86s2.69-5,6.63-5a16.45,16.45,0,0,1,4.76.66v-.54c0-2.79-1.71-4.23-4.62-4.23A10.84,10.84,0,0,0,304.05,201Zm.28,7.92c0,2,1.79,3.12,3.89,3.12,2.86,0,5.2-1.74,5.2-4.2v-1.5a16.26,16.26,0,0,0-4.57-.66C306,205.64,304.33,206.9,304.33,208.88Z"/><path class="cls-1" d="M322.42,213.5h-2.31V198h2.31v2.7a5.86,5.86,0,0,1,5.3-3c3.75,0,5.95,2.52,5.95,6.21v9.63h-2.32v-9.06c0-2.88-1.56-4.68-4.28-4.68a4.56,4.56,0,0,0-4.65,4.86Z"/><path class="cls-1" d="M343.29,213.8a10.66,10.66,0,0,1-6.41-2.28l1.16-1.65a9.07,9.07,0,0,0,5.38,2c1.85,0,3.2-1,3.2-2.46v-.06c0-1.56-1.83-2.16-3.87-2.73-2.42-.69-5.13-1.53-5.13-4.38v-.06c0-2.67,2.22-4.44,5.28-4.44a10.6,10.6,0,0,1,5.58,1.71l-1.05,1.74a8.77,8.77,0,0,0-4.59-1.5c-1.83,0-3,1-3,2.25V202c0,1.47,1.92,2,4,2.67,2.4.72,5,1.65,5,4.44v.06C348.81,212.09,346.38,213.8,343.29,213.8Z"/><path class="cls-1" d="M361.47,213.5V191.6h2.31v21.9Z"/><path class="cls-1" d="M375.57,211.85a6.42,6.42,0,0,0,4.89-2.19L381.9,211a8,8,0,0,1-6.39,2.91,7.72,7.72,0,0,1-7.74-8.1c0-4.5,3.15-8.1,7.44-8.1,4.59,0,7.23,3.66,7.23,8.22a6.28,6.28,0,0,1,0,.72h-12.3A5.44,5.44,0,0,0,375.57,211.85Zm4.53-7c-.24-2.82-1.86-5.28-5-5.28-2.7,0-4.74,2.25-5,5.28Z"/><path class="cls-1" d="M397.08,198h2.28V213.5h-2.28v-2.7a5.91,5.91,0,0,1-5.31,3c-3.75,0-5.94-2.52-5.94-6.21V198h2.31v9.06c0,2.88,1.56,4.68,4.29,4.68a4.58,4.58,0,0,0,4.65-4.86Z"/><path class="cls-1" d="M406.44,213.5h-2.31V198h2.31v4a6.64,6.64,0,0,1,6.33-4.32v2.49h-.18c-3.39,0-6.15,2.43-6.15,7.11Z"/><path class="cls-1" d="M421,213.8a10.67,10.67,0,0,1-6.42-2.28l1.17-1.65a9.07,9.07,0,0,0,5.37,2c1.86,0,3.21-1,3.21-2.46v-.06c0-1.56-1.83-2.16-3.87-2.73-2.43-.69-5.13-1.53-5.13-4.38v-.06c0-2.67,2.22-4.44,5.28-4.44a10.6,10.6,0,0,1,5.58,1.71l-1.05,1.74a8.77,8.77,0,0,0-4.59-1.5c-1.83,0-3,1-3,2.25V202c0,1.47,1.92,2,4,2.67,2.4.72,5,1.65,5,4.44v.06C426.51,212.09,424.08,213.8,421,213.8Z"/><path class="cls-1" d="M451.41,213.5v-3.12a7,7,0,0,1-5.94,3.45c-3.72,0-7.41-2.94-7.41-8.07s3.69-8.1,7.41-8.1a7,7,0,0,1,5.94,3.3V191.6h2.31v21.9Zm-5.52-13.77c-3,0-5.46,2.22-5.46,6s2.52,6,5.46,6a6,6,0,0,0,0-12Z"/><path class="cls-1" d="M465.54,213.86a8,8,0,0,1-8-8.07,8.09,8.09,0,1,1,8,8.07Zm0-14.16a5.7,5.7,0,0,0-5.67,6,5.83,5.83,0,0,0,5.73,6.06,5.71,5.71,0,0,0,5.7-6A5.86,5.86,0,0,0,465.54,199.7Z"/><path class="cls-1" d="M495.18,197.66c3.57,0,5.76,2.4,5.76,6.24v9.6h-2.31v-9.06c0-3-1.5-4.68-4-4.68-2.34,0-4.29,1.74-4.29,4.8v8.94H488v-9.12c0-2.91-1.53-4.62-4-4.62s-4.32,2-4.32,4.89v8.85h-2.31V198h2.31v2.61a5.67,5.67,0,0,1,5-2.94,5.27,5.27,0,0,1,5,3.09A6.18,6.18,0,0,1,495.18,197.66Z"/><path class="cls-1" d="M506.43,201l-.69-1.89a12.81,12.81,0,0,1,5.64-1.29c4.23,0,6.6,2.16,6.6,6.24v9.48h-2.22v-2.34a6.8,6.8,0,0,1-5.61,2.67c-2.88,0-5.79-1.62-5.79-4.86s2.7-5,6.63-5a16.47,16.47,0,0,1,4.77.66v-.54c0-2.79-1.71-4.23-4.62-4.23A10.8,10.8,0,0,0,506.43,201Zm.27,7.92c0,2,1.8,3.12,3.9,3.12,2.85,0,5.19-1.74,5.19-4.2v-1.5a16.18,16.18,0,0,0-4.56-.66C508.32,205.64,506.7,206.9,506.7,208.88Z"/><path class="cls-1" d="M522.54,194.6v-2.55h2.64v2.55Zm.15,18.9V198H525V213.5Z"/><path class="cls-1" d="M532.26,213.5H530V198h2.31v2.7a5.87,5.87,0,0,1,5.31-3c3.75,0,5.94,2.52,5.94,6.21v9.63H541.2v-9.06c0-2.88-1.56-4.68-4.29-4.68a4.56,4.56,0,0,0-4.65,4.86Z"/><path class="cls-1" d="M554.85,211.85a6.42,6.42,0,0,0,4.89-2.19l1.44,1.29a8,8,0,0,1-6.39,2.91,7.72,7.72,0,0,1-7.74-8.1c0-4.5,3.15-8.1,7.44-8.1,4.59,0,7.23,3.66,7.23,8.22a6.28,6.28,0,0,1,0,.72h-12.3A5.44,5.44,0,0,0,554.85,211.85Zm4.53-7c-.24-2.82-1.86-5.28-5-5.28-2.7,0-4.74,2.25-5,5.28Z"/><path class="cls-1" d="M570.48,213.8a10.67,10.67,0,0,1-6.42-2.28l1.17-1.65a9.07,9.07,0,0,0,5.37,2c1.86,0,3.21-1,3.21-2.46v-.06c0-1.56-1.83-2.16-3.87-2.73-2.43-.69-5.13-1.53-5.13-4.38v-.06c0-2.67,2.22-4.44,5.28-4.44a10.6,10.6,0,0,1,5.58,1.71l-1,1.74a8.77,8.77,0,0,0-4.59-1.5c-1.83,0-3,1-3,2.25V202c0,1.47,1.92,2,4,2.67,2.4.72,5,1.65,5,4.44v.06C576,212.09,573.57,213.8,570.48,213.8Z"/><path class="cls-1" d="M600.9,213.5v-3.12a7,7,0,0,1-5.94,3.45c-3.72,0-7.41-2.94-7.41-8.07s3.69-8.1,7.41-8.1a7,7,0,0,1,5.94,3.3V191.6h2.31v21.9Zm-5.52-13.77c-3,0-5.46,2.22-5.46,6s2.52,6,5.46,6a6,6,0,0,0,0-12Z"/><path class="cls-1" d="M614.79,211.85a6.42,6.42,0,0,0,4.89-2.19l1.44,1.29a8,8,0,0,1-6.39,2.91,7.72,7.72,0,0,1-7.74-8.1c0-4.5,3.15-8.1,7.44-8.1,4.59,0,7.23,3.66,7.23,8.22a6.28,6.28,0,0,1,0,.72h-12.3A5.44,5.44,0,0,0,614.79,211.85Zm4.53-7c-.24-2.82-1.86-5.28-5-5.28-2.7,0-4.74,2.25-5,5.28Z"/><path class="cls-1" d="M640.86,213.86a8.1,8.1,0,1,1,6.21-13.44L645.54,202a6.26,6.26,0,0,0-4.71-2.34,5.73,5.73,0,0,0-5.55,6,5.8,5.8,0,0,0,5.7,6.06,6.4,6.4,0,0,0,4.74-2.31l1.47,1.38A8,8,0,0,1,640.86,213.86Z"/><path class="cls-1" d="M657.66,213.86a8,8,0,0,1-8-8.07,8.09,8.09,0,1,1,8,8.07Zm0-14.16a5.7,5.7,0,0,0-5.67,6,5.83,5.83,0,0,0,5.73,6.06,5.71,5.71,0,0,0,5.7-6A5.86,5.86,0,0,0,657.66,199.7Z"/><path class="cls-1" d="M687.3,197.66c3.57,0,5.76,2.4,5.76,6.24v9.6h-2.31v-9.06c0-3-1.5-4.68-4-4.68-2.34,0-4.29,1.74-4.29,4.8v8.94h-2.28v-9.12c0-2.91-1.53-4.62-4-4.62s-4.32,2-4.32,4.89v8.85h-2.31V198h2.31v2.61a5.67,5.67,0,0,1,5-2.94,5.27,5.27,0,0,1,5,3.09A6.18,6.18,0,0,1,687.3,197.66Z"/><path class="cls-1" d="M705.9,213.83a7,7,0,0,1-5.94-3.3v7.77h-2.31V198H700v3.12a7,7,0,0,1,5.94-3.45c3.72,0,7.41,2.94,7.41,8.07S709.65,213.83,705.9,213.83Zm-.42-14.1a6,6,0,0,0,0,12c3,0,5.46-2.22,5.46-6S708.42,199.73,705.48,199.73Z"/><path class="cls-1" d="M724,211.85a6.42,6.42,0,0,0,4.89-2.19l1.44,1.29a8,8,0,0,1-6.39,2.91,7.72,7.72,0,0,1-7.74-8.1c0-4.5,3.15-8.1,7.44-8.1,4.59,0,7.23,3.66,7.23,8.22a6.28,6.28,0,0,1,0,.72h-12.3A5.44,5.44,0,0,0,724,211.85Zm4.53-7c-.24-2.82-1.86-5.28-4.95-5.28-2.7,0-4.74,2.25-5,5.28Zm-6.33-9.24L725,191.3l2.4,1.11-3.39,3.24Z"/><path class="cls-1" d="M737.61,209.09a2.29,2.29,0,0,0,2.61,2.58,4.86,4.86,0,0,0,2.25-.54v2a5.81,5.81,0,0,1-2.79.66c-2.49,0-4.38-1.23-4.38-4.38V200h-2.16v-2h2.16v-4.68h2.31V198h4.92v2h-4.92Z"/><path class="cls-1" d="M753,211.85a6.42,6.42,0,0,0,4.89-2.19l1.44,1.29a8,8,0,0,1-6.39,2.91,7.72,7.72,0,0,1-7.74-8.1c0-4.5,3.15-8.1,7.44-8.1,4.59,0,7.23,3.66,7.23,8.22a6.28,6.28,0,0,1,0,.72h-12.3A5.44,5.44,0,0,0,753,211.85Zm4.53-7c-.24-2.82-1.86-5.28-4.95-5.28-2.7,0-4.74,2.25-5,5.28Z"/><path class="cls-1" d="M765.84,213.5h-2.31V198h2.31v2.7a5.87,5.87,0,0,1,5.31-3c3.75,0,5.94,2.52,5.94,6.21v9.63h-2.31v-9.06c0-2.88-1.56-4.68-4.29-4.68a4.56,4.56,0,0,0-4.65,4.86Z"/><path class="cls-1" d="M788.58,213.86a8.1,8.1,0,1,1,6.21-13.44L793.26,202a6.26,6.26,0,0,0-4.71-2.34,5.73,5.73,0,0,0-5.55,6,5.8,5.8,0,0,0,5.7,6.06,6.4,6.4,0,0,0,4.74-2.31l1.47,1.38A8,8,0,0,1,788.58,213.86Z"/><path class="cls-1" d="M805.14,211.85a6.42,6.42,0,0,0,4.89-2.19l1.44,1.29a8,8,0,0,1-6.39,2.91,7.72,7.72,0,0,1-7.74-8.1c0-4.5,3.15-8.1,7.44-8.1,4.59,0,7.23,3.66,7.23,8.22a6.28,6.28,0,0,1,0,.72h-12.3A5.44,5.44,0,0,0,805.14,211.85Zm4.53-7c-.24-2.82-1.86-5.28-4.95-5.28-2.7,0-4.74,2.25-5,5.28Z"/><path class="cls-1" d="M820.77,213.8a10.67,10.67,0,0,1-6.42-2.28l1.17-1.65a9.07,9.07,0,0,0,5.37,2c1.86,0,3.21-1,3.21-2.46v-.06c0-1.56-1.83-2.16-3.87-2.73-2.43-.69-5.13-1.53-5.13-4.38v-.06c0-2.67,2.22-4.44,5.28-4.44a10.6,10.6,0,0,1,5.58,1.71l-1.05,1.74a8.77,8.77,0,0,0-4.59-1.5c-1.83,0-3,1-3,2.25V202c0,1.47,1.92,2,4,2.67,2.4.72,5,1.65,5,4.44v.06C826.29,212.09,823.86,213.8,820.77,213.8Z"/><path class="cls-1" d="M829.89,213.5v-3.15h2.76v3.15Z"/><path class="cls-2" d="M2.45,267.4l11.65-9.55c4.35-3.6,6-5.5,6-8.4s-1.95-4.55-4.7-4.55-4.55,1.5-7.15,4.7l-5.4-4.35C6.35,240.55,9.7,238,16,238,23.2,238,28,242.25,28,248.8v.1c0,5.85-3,8.75-9.2,13.55l-5.7,4.4H28.35v6.65H2.45Z"/><path class="cls-2" d="M33.55,265.5h8.1v8h-8.1Z"/><path class="cls-1" d="M71.05,252.5h2.31v21H71.47L57.91,256.28V273.5H55.6v-21h2.22l13.23,16.83Z"/><path class="cls-1" d="M85.57,273.86a8,8,0,0,1-8-8.07,8.09,8.09,0,1,1,8,8.07Zm0-14.16a5.7,5.7,0,0,0-5.67,6,5.83,5.83,0,0,0,5.73,6.06,5.71,5.71,0,0,0,5.7-6A5.86,5.86,0,0,0,85.57,259.7Z"/><path class="cls-1" d="M100.57,269.09a2.29,2.29,0,0,0,2.61,2.58,4.86,4.86,0,0,0,2.25-.54v2a5.81,5.81,0,0,1-2.79.66c-2.49,0-4.38-1.23-4.38-4.38V260H96.1v-2h2.16v-4.68h2.31V258h4.92v2h-4.92Z"/><path class="cls-1" d="M116.23,273.86a8,8,0,0,1-8-8.07,8.09,8.09,0,1,1,8,8.07Zm0-14.16a5.7,5.7,0,0,0-5.67,6,5.83,5.83,0,0,0,5.73,6.06,5.71,5.71,0,0,0,5.7-6A5.86,5.86,0,0,0,116.23,259.7Z"/><path class="cls-1" d="M130.42,273.5h-2.31V258h2.31V262a6.64,6.64,0,0,1,6.33-4.32v2.49h-.18c-3.39,0-6.15,2.43-6.15,7.11Z"/><path class="cls-1" d="M139.9,254.6v-2.55h2.64v2.55Zm.15,18.9V258h2.31V273.5Z"/><path class="cls-1" d="M154.15,271.85a6.42,6.42,0,0,0,4.89-2.19l1.44,1.29a8,8,0,0,1-6.39,2.91,7.72,7.72,0,0,1-7.74-8.1c0-4.5,3.15-8.1,7.44-8.1,4.59,0,7.23,3.66,7.23,8.22a6.28,6.28,0,0,1,0,.72h-12.3A5.44,5.44,0,0,0,154.15,271.85Zm4.53-7c-.24-2.82-1.86-5.28-5-5.28-2.7,0-4.74,2.25-5,5.28Zm-6.33-9.24,2.85-4.35,2.4,1.11-3.39,3.24Z"/><path class="cls-1" d="M167.77,269.09a2.29,2.29,0,0,0,2.61,2.58,4.86,4.86,0,0,0,2.25-.54v2a5.81,5.81,0,0,1-2.79.66c-2.49,0-4.38-1.23-4.38-4.38V260H163.3v-2h2.16v-4.68h2.31V258h4.92v2h-4.92Z"/><path class="cls-1" d="M183.19,271.85a6.42,6.42,0,0,0,4.89-2.19l1.44,1.29a8,8,0,0,1-6.39,2.91,7.72,7.72,0,0,1-7.74-8.1c0-4.5,3.15-8.1,7.44-8.1,4.59,0,7.23,3.66,7.23,8.22a6.28,6.28,0,0,1,0,.72h-12.3A5.44,5.44,0,0,0,183.19,271.85Zm4.53-7c-.24-2.82-1.86-5.28-4.95-5.28-2.7,0-4.74,2.25-5,5.28Zm-6.33-9.24,2.85-4.35,2.4,1.11-3.39,3.24Z"/><path class="cls-2" d="M1.9,328.05,7.2,323c2.4,2.7,4.9,4.2,8.45,4.2,2.9,0,5-1.65,5-4.25v-.1c0-2.85-2.55-4.45-6.85-4.45h-3.2l-1.2-4.9,8.35-8.4H4v-6.6H27.6v5.8l-8.85,8.45c4.75.8,9.4,3.3,9.4,9.8v.1c0,6.6-4.8,11.45-12.6,11.45A17,17,0,0,1,1.9,328.05Z"/><path class="cls-2" d="M33.45,325.5h8.1v8h-8.1Z"/><path class="cls-1" d="M65.1,333.86a10.86,10.86,0,0,1,.09-21.72,10.93,10.93,0,0,1,8.19,3.33l-1.62,1.74a9.13,9.13,0,0,0-6.6-2.88c-4.65,0-8.13,3.75-8.13,8.64s3.51,8.7,8.13,8.7c2.88,0,4.77-1.11,6.78-3l1.56,1.53A10.93,10.93,0,0,1,65.1,333.86Z"/><path class="cls-1" d="M79.14,333.5H76.83V318h2.31V322a6.64,6.64,0,0,1,6.33-4.32v2.49h-.18c-3.39,0-6.15,2.43-6.15,7.11Z"/><path class="cls-1" d="M95.4,331.85a6.42,6.42,0,0,0,4.89-2.19l1.44,1.29a8,8,0,0,1-6.39,2.91,7.72,7.72,0,0,1-7.74-8.1c0-4.5,3.15-8.1,7.44-8.1,4.59,0,7.23,3.66,7.23,8.22a6.28,6.28,0,0,1,0,.72H89.94A5.44,5.44,0,0,0,95.4,331.85Zm4.53-7c-.24-2.82-1.86-5.28-5-5.28-2.7,0-4.74,2.25-5,5.28Zm-6.33-9.24,2.85-4.35,2.4,1.11-3.39,3.24Z"/><path class="cls-1" d="M118.35,333.5v-3.12a7,7,0,0,1-5.94,3.45c-3.72,0-7.41-2.94-7.41-8.07s3.69-8.1,7.41-8.1a7,7,0,0,1,5.94,3.3V311.6h2.31v21.9Zm-5.52-13.77c-3,0-5.46,2.22-5.46,6s2.52,6,5.46,6a6,6,0,0,0,0-12Z"/><path class="cls-1" d="M125.46,314.6v-2.55h2.64v2.55Zm.15,18.9V318h2.31V333.5Z"/><path class="cls-1" d="M141.12,333.83a7,7,0,0,1-5.94-3.3v3h-2.31V311.6h2.31v9.51a7,7,0,0,1,5.94-3.45c3.72,0,7.41,2.94,7.41,8.07S144.87,333.83,141.12,333.83Zm-.42-14.1a6,6,0,0,0,0,12c3,0,5.46-2.22,5.46-6S143.64,319.73,140.7,319.73Z"/><path class="cls-1" d="M152.43,314.6v-2.55h2.64v2.55Zm.15,18.9V318h2.31V333.5Z"/><path class="cls-1" d="M160.05,333.5V311.6h2.31v21.9Z"/><path class="cls-1" d="M167.37,314.6v-2.55H170v2.55Zm.15,18.9V318h2.31V333.5Z"/><path class="cls-1" d="M177.9,329.09a2.29,2.29,0,0,0,2.61,2.58,4.86,4.86,0,0,0,2.25-.54v2a5.81,5.81,0,0,1-2.79.66c-2.49,0-4.38-1.23-4.38-4.38V320h-2.16v-2h2.16v-4.68h2.31V318h4.92v2H177.9Z"/><path class="cls-1" d="M193.32,331.85a6.42,6.42,0,0,0,4.89-2.19l1.44,1.29a8,8,0,0,1-6.39,2.91,7.72,7.72,0,0,1-7.74-8.1c0-4.5,3.15-8.1,7.44-8.1,4.59,0,7.23,3.66,7.23,8.22a6.28,6.28,0,0,1,0,.72h-12.3A5.44,5.44,0,0,0,193.32,331.85Zm4.53-7c-.24-2.82-1.86-5.28-4.95-5.28-2.7,0-4.74,2.25-5,5.28Zm-6.33-9.24,2.85-4.35,2.4,1.11-3.39,3.24Z"/><path class="cls-2" d="M19.9,386H2.8L1.55,380.5l19.2-22.25h6.5V379.7H32V386h-4.7v7.55H19.9Zm0-6.25V368.8l-9.3,10.9Z"/><path class="cls-2" d="M36.85,385.5H45v8h-8.1Z"/><path class="cls-1" d="M74.08,374.66H61.27v7.17H72.73V384H61.27v7.35h13v2.16H58.9v-21H74.08Z"/><path class="cls-1" d="M91.66,393.5H89l-4.8-6.33-4.83,6.33H76.78l6.09-7.89L77,378h2.64l4.59,6,4.59-6h2.58l-5.88,7.56Z"/><path class="cls-1" d="M103.24,393.83a7,7,0,0,1-5.94-3.3v7.77H95V378H97.3v3.12a7,7,0,0,1,5.94-3.45c3.72,0,7.41,2.94,7.41,8.07S107,393.83,103.24,393.83Zm-.42-14.1a6,6,0,0,0,0,12c3,0,5.46-2.22,5.46-6S105.76,379.73,102.82,379.73Z"/><path class="cls-1" d="M121.33,391.85a6.42,6.42,0,0,0,4.89-2.19l1.44,1.29a8,8,0,0,1-6.39,2.91,7.72,7.72,0,0,1-7.74-8.1c0-4.5,3.15-8.1,7.44-8.1,4.59,0,7.23,3.66,7.23,8.22a6.28,6.28,0,0,1,0,.72h-12.3A5.44,5.44,0,0,0,121.33,391.85Zm4.53-7c-.24-2.82-1.86-5.28-5-5.28-2.7,0-4.74,2.25-5,5.28Zm-6.33-9.24,2.85-4.35,2.4,1.11-3.39,3.24Z"/><path class="cls-1" d="M134.14,393.5h-2.31V378h2.31V382a6.64,6.64,0,0,1,6.33-4.32v2.49h-.18c-3.39,0-6.15,2.43-6.15,7.11Z"/><path class="cls-1" d="M143.62,374.6v-2.55h2.64v2.55Zm.15,18.9V378h2.31V393.5Z"/><path class="cls-1" d="M157.87,391.85a6.42,6.42,0,0,0,4.89-2.19L164.2,391a8,8,0,0,1-6.39,2.91,7.72,7.72,0,0,1-7.74-8.1c0-4.5,3.15-8.1,7.44-8.1,4.59,0,7.23,3.66,7.23,8.22a6.28,6.28,0,0,1,0,.72h-12.3A5.44,5.44,0,0,0,157.87,391.85Zm4.53-7c-.24-2.82-1.86-5.28-5-5.28-2.7,0-4.74,2.25-5,5.28Z"/><path class="cls-1" d="M170.68,393.5h-2.31V378h2.31v2.7a5.87,5.87,0,0,1,5.31-3c3.75,0,5.94,2.52,5.94,6.21v9.63h-2.31v-9.06c0-2.88-1.56-4.68-4.29-4.68a4.56,4.56,0,0,0-4.65,4.86Z"/><path class="cls-1" d="M193.42,393.86a8.1,8.1,0,1,1,6.21-13.44L198.1,382a6.26,6.26,0,0,0-4.71-2.34,5.73,5.73,0,0,0-5.55,6,5.8,5.8,0,0,0,5.7,6.06,6.4,6.4,0,0,0,4.74-2.31l1.47,1.38A8,8,0,0,1,193.42,393.86Z"/><path class="cls-1" d="M210,391.85a6.42,6.42,0,0,0,4.89-2.19l1.44,1.29a8,8,0,0,1-6.39,2.91,7.72,7.72,0,0,1-7.74-8.1c0-4.5,3.15-8.1,7.44-8.1,4.59,0,7.23,3.66,7.23,8.22a6.28,6.28,0,0,1,0,.72h-12.3A5.44,5.44,0,0,0,210,391.85Zm4.53-7c-.24-2.82-1.86-5.28-4.95-5.28-2.7,0-4.74,2.25-5,5.28Z"/><path class="cls-1" d="M229.12,374.6v-2.55h2.64v2.55Zm.15,18.9V378h2.31V393.5Z"/><path class="cls-1" d="M238.84,393.5h-2.31V378h2.31v2.7a5.87,5.87,0,0,1,5.31-3c3.75,0,5.94,2.52,5.94,6.21v9.63h-2.31v-9.06c0-2.88-1.56-4.68-4.29-4.68a4.56,4.56,0,0,0-4.65,4.86Z"/><path class="cls-1" d="M257.71,389.09a2.29,2.29,0,0,0,2.61,2.58,4.86,4.86,0,0,0,2.25-.54v2a5.81,5.81,0,0,1-2.79.66c-2.49,0-4.38-1.23-4.38-4.38V380h-2.16v-2h2.16v-4.68h2.31V378h4.92v2h-4.92Z"/><path class="cls-1" d="M273.13,391.85a6.42,6.42,0,0,0,4.89-2.19l1.44,1.29a8,8,0,0,1-6.39,2.91,7.72,7.72,0,0,1-7.74-8.1c0-4.5,3.15-8.1,7.44-8.1,4.59,0,7.23,3.66,7.23,8.22a6.28,6.28,0,0,1,0,.72h-12.3A5.44,5.44,0,0,0,273.13,391.85Zm4.53-7c-.24-2.82-1.86-5.28-5-5.28-2.7,0-4.74,2.25-5,5.28Z"/><path class="cls-1" d="M285.94,393.5h-2.31V378h2.31V382a6.64,6.64,0,0,1,6.33-4.32v2.49h-.18c-3.39,0-6.15,2.43-6.15,7.11Z"/><path class="cls-1" d="M297.67,393.5h-2.31V378h2.31v2.7a5.87,5.87,0,0,1,5.31-3c3.75,0,5.94,2.52,5.94,6.21v9.63h-2.31v-9.06c0-2.88-1.56-4.68-4.29-4.68a4.56,4.56,0,0,0-4.65,4.86Z"/><path class="cls-1" d="M314.32,381l-.69-1.89a12.81,12.81,0,0,1,5.64-1.29c4.23,0,6.6,2.16,6.6,6.24v9.48h-2.22v-2.34a6.8,6.8,0,0,1-5.61,2.67c-2.88,0-5.79-1.62-5.79-4.86s2.7-5,6.63-5a16.47,16.47,0,0,1,4.77.66v-.54c0-2.79-1.71-4.23-4.62-4.23A10.8,10.8,0,0,0,314.32,381Zm.27,7.92c0,2,1.8,3.12,3.9,3.12,2.85,0,5.19-1.74,5.19-4.2v-1.5a16.18,16.18,0,0,0-4.56-.66C316.21,385.64,314.59,386.9,314.59,388.88Z"/><path class="cls-1" d="M333.49,389.09a2.29,2.29,0,0,0,2.61,2.58,4.86,4.86,0,0,0,2.25-.54v2a5.81,5.81,0,0,1-2.79.66c-2.49,0-4.38-1.23-4.38-4.38V380H329v-2h2.16v-4.68h2.31V378h4.92v2h-4.92Z"/><path class="cls-1" d="M342.13,374.6v-2.55h2.64v2.55Zm.15,18.9V378h2.31V393.5Z"/><path class="cls-1" d="M356.62,393.86a8,8,0,0,1-8-8.07,8.09,8.09,0,1,1,8,8.07Zm0-14.16a5.7,5.7,0,0,0-5.67,6,5.83,5.83,0,0,0,5.73,6.06,5.71,5.71,0,0,0,5.7-6A5.86,5.86,0,0,0,356.62,379.7Z"/><path class="cls-1" d="M370.81,393.5H368.5V378h2.31v2.7a5.87,5.87,0,0,1,5.31-3c3.75,0,5.94,2.52,5.94,6.21v9.63h-2.31v-9.06c0-2.88-1.56-4.68-4.29-4.68a4.56,4.56,0,0,0-4.65,4.86Z"/><path class="cls-1" d="M387.46,381l-.69-1.89a12.81,12.81,0,0,1,5.64-1.29c4.22,0,6.59,2.16,6.59,6.24v9.48h-2.21v-2.34a6.8,6.8,0,0,1-5.61,2.67c-2.89,0-5.79-1.62-5.79-4.86s2.69-5,6.63-5a16.47,16.47,0,0,1,4.77.66v-.54c0-2.79-1.71-4.23-4.62-4.23A10.77,10.77,0,0,0,387.46,381Zm.27,7.92c0,2,1.8,3.12,3.89,3.12,2.86,0,5.2-1.74,5.2-4.2v-1.5a16.26,16.26,0,0,0-4.57-.66C389.35,385.64,387.73,386.9,387.73,388.88Z"/><path class="cls-1" d="M403.72,393.5V371.6H406v21.9Z"/><path class="cls-1" d="M417.82,391.85a6.42,6.42,0,0,0,4.89-2.19l1.43,1.29a8,8,0,0,1-6.39,2.91,7.72,7.72,0,0,1-7.73-8.1c0-4.5,3.15-8.1,7.44-8.1,4.58,0,7.22,3.66,7.22,8.22,0,.21,0,.45,0,.72h-12.3A5.43,5.43,0,0,0,417.82,391.85Zm4.52-7c-.24-2.82-1.85-5.28-4.94-5.28-2.7,0-4.74,2.25-5,5.28Z"/><path class="cls-2" d="M2.15,448.85,6.8,443.3c2.65,2.4,5.25,3.8,8.35,3.8,3.6,0,5.85-1.75,5.85-4.85v-.1c0-3-2.55-4.75-6.2-4.75A15,15,0,0,0,9,438.7L4.5,435.75l1-17.25H27v6.75H12.1l-.4,6.05a17.12,17.12,0,0,1,4.6-.6c6.8,0,12.25,3.3,12.25,11.2v.1c0,7.4-5.25,12.1-13.3,12.1A18,18,0,0,1,2.15,448.85Z"/><path class="cls-2" d="M33.9,445.5H42v8H33.9Z"/><path class="cls-1" d="M75.51,453.5H73L70.5,448H59.07l-2.49,5.55H54.15l9.57-21.15h2.22ZM64.8,435.11,60,445.82h9.57Z"/><path class="cls-1" d="M87.09,453.83a7,7,0,0,1-5.94-3.3v7.77H78.84V438h2.31v3.12a7,7,0,0,1,5.94-3.45c3.72,0,7.41,2.94,7.41,8.07S90.84,453.83,87.09,453.83Zm-.42-14.1a6,6,0,0,0,0,12c3,0,5.46-2.22,5.46-6S89.61,439.73,86.67,439.73Z"/><path class="cls-1" d="M106.59,453.83a7,7,0,0,1-5.94-3.3v7.77H98.34V438h2.31v3.12a7,7,0,0,1,5.94-3.45c3.72,0,7.41,2.94,7.41,8.07S110.34,453.83,106.59,453.83Zm-.42-14.1a6,6,0,0,0,0,12c3,0,5.46-2.22,5.46-6S109.11,439.73,106.17,439.73Z"/><path class="cls-1" d="M120.15,453.5h-2.31V438h2.31V442a6.64,6.64,0,0,1,6.33-4.32v2.49h-.18c-3.39,0-6.15,2.43-6.15,7.11Z"/><path class="cls-1" d="M136.65,453.86a8,8,0,0,1-8-8.07,8.09,8.09,0,1,1,8,8.07Zm0-14.16a5.7,5.7,0,0,0-5.67,6,5.83,5.83,0,0,0,5.73,6.06,5.71,5.71,0,0,0,5.7-6A5.86,5.86,0,0,0,136.65,439.7Z"/><path class="cls-1" d="M155.52,453.86a8.1,8.1,0,1,1,6.21-13.44L160.2,442a6.26,6.26,0,0,0-4.71-2.34,5.73,5.73,0,0,0-5.55,6,5.8,5.8,0,0,0,5.7,6.06,6.4,6.4,0,0,0,4.74-2.31l1.47,1.38A8,8,0,0,1,155.52,453.86Z"/><path class="cls-1" d="M167.55,453.5h-2.31V431.6h2.31v9.09a5.87,5.87,0,0,1,5.31-3c3.75,0,5.94,2.52,5.94,6.21v9.63h-2.31v-9.06c0-2.88-1.56-4.68-4.29-4.68a4.56,4.56,0,0,0-4.65,4.86Z"/><path class="cls-1" d="M190.14,451.85a6.42,6.42,0,0,0,4.89-2.19l1.44,1.29a8,8,0,0,1-6.39,2.91,7.72,7.72,0,0,1-7.74-8.1c0-4.5,3.15-8.1,7.44-8.1,4.59,0,7.23,3.66,7.23,8.22a6.28,6.28,0,0,1,0,.72h-12.3A5.44,5.44,0,0,0,190.14,451.85Zm4.53-7c-.24-2.82-1.86-5.28-4.95-5.28-2.7,0-4.74,2.25-5,5.28Z"/><path class="cls-1" d="M216.06,451.85a6.42,6.42,0,0,0,4.89-2.19l1.44,1.29a8,8,0,0,1-6.39,2.91,7.72,7.72,0,0,1-7.74-8.1c0-4.5,3.15-8.1,7.44-8.1,4.59,0,7.23,3.66,7.23,8.22a6.28,6.28,0,0,1,0,.72H210.6A5.44,5.44,0,0,0,216.06,451.85Zm4.53-7c-.24-2.82-1.86-5.28-5-5.28-2.7,0-4.74,2.25-5,5.28Z"/><path class="cls-1" d="M228.87,453.5h-2.31V438h2.31v2.7a5.87,5.87,0,0,1,5.31-3c3.75,0,5.94,2.52,5.94,6.21v9.63h-2.31v-9.06c0-2.88-1.56-4.68-4.29-4.68a4.56,4.56,0,0,0-4.65,4.86Z"/><path class="cls-1" d="M247.74,449.09a2.29,2.29,0,0,0,2.61,2.58,4.86,4.86,0,0,0,2.25-.54v2a5.81,5.81,0,0,1-2.79.66c-2.49,0-4.38-1.23-4.38-4.38V440h-2.16v-2h2.16v-4.68h2.31V438h4.92v2h-4.92Z"/><path class="cls-1" d="M258.63,453.5h-2.31V438h2.31V442a6.64,6.64,0,0,1,6.33-4.32v2.49h-.18c-3.39,0-6.15,2.43-6.15,7.11Z"/><path class="cls-1" d="M274.89,451.85a6.42,6.42,0,0,0,4.89-2.19l1.44,1.29a8,8,0,0,1-6.39,2.91,7.72,7.72,0,0,1-7.74-8.1c0-4.5,3.15-8.1,7.44-8.1,4.59,0,7.23,3.66,7.23,8.22a6.28,6.28,0,0,1,0,.72h-12.3A5.44,5.44,0,0,0,274.89,451.85Zm4.53-7c-.24-2.82-1.86-5.28-4.95-5.28-2.7,0-4.74,2.25-5,5.28Z"/><path class="cls-1" d="M293.64,453.83a7,7,0,0,1-5.94-3.3v7.77h-2.31V438h2.31v3.12a7,7,0,0,1,5.94-3.45c3.72,0,7.41,2.94,7.41,8.07S297.39,453.83,293.64,453.83Zm-.42-14.1a6,6,0,0,0,0,12c3,0,5.46-2.22,5.46-6S296.16,439.73,293.22,439.73Z"/><path class="cls-1" d="M307.2,453.5h-2.31V438h2.31V442a6.64,6.64,0,0,1,6.33-4.32v2.49h-.18c-3.39,0-6.15,2.43-6.15,7.11Z"/><path class="cls-1" d="M323.46,451.85a6.42,6.42,0,0,0,4.89-2.19l1.44,1.29a8,8,0,0,1-6.39,2.91,7.72,7.72,0,0,1-7.74-8.1c0-4.5,3.15-8.1,7.44-8.1,4.59,0,7.23,3.66,7.23,8.22a6.28,6.28,0,0,1,0,.72H318A5.44,5.44,0,0,0,323.46,451.85Zm4.53-7c-.24-2.82-1.86-5.28-4.95-5.28-2.7,0-4.74,2.25-5,5.28Z"/><path class="cls-1" d="M336.27,453.5H334V438h2.31v2.7a5.87,5.87,0,0,1,5.31-3c3.75,0,5.94,2.52,5.94,6.21v9.63h-2.31v-9.06c0-2.88-1.56-4.68-4.29-4.68a4.56,4.56,0,0,0-4.65,4.86Z"/><path class="cls-1" d="M358.86,451.85a6.42,6.42,0,0,0,4.89-2.19l1.44,1.29a8,8,0,0,1-6.39,2.91,7.72,7.72,0,0,1-7.74-8.1c0-4.5,3.15-8.1,7.44-8.1,4.59,0,7.23,3.66,7.23,8.22a6.28,6.28,0,0,1,0,.72H353.4A5.44,5.44,0,0,0,358.86,451.85Zm4.53-7c-.24-2.82-1.86-5.28-4.95-5.28-2.7,0-4.74,2.25-5,5.28Z"/><path class="cls-1" d="M380.37,438h2.28V453.5h-2.28v-2.7a5.91,5.91,0,0,1-5.31,3c-3.75,0-5.94-2.52-5.94-6.21V438h2.31v9.06c0,2.88,1.56,4.68,4.29,4.68a4.58,4.58,0,0,0,4.65-4.86Z"/><path class="cls-1" d="M389.73,453.5h-2.31V438h2.31V442a6.64,6.64,0,0,1,6.33-4.32v2.49h-.18c-3.39,0-6.15,2.43-6.15,7.11Z"/><path class="cls-1" d="M399.21,434.6v-2.55h2.64v2.55Zm.15,18.9V438h2.31V453.5Z"/><path class="cls-1" d="M407.52,441l-.69-1.89a12.81,12.81,0,0,1,5.64-1.29c4.23,0,6.6,2.16,6.6,6.24v9.48h-2.22v-2.34a6.8,6.8,0,0,1-5.61,2.67c-2.88,0-5.79-1.62-5.79-4.86s2.7-5,6.63-5a16.47,16.47,0,0,1,4.77.66v-.54c0-2.79-1.71-4.23-4.62-4.23A10.8,10.8,0,0,0,407.52,441Zm.27,7.92c0,2,1.8,3.12,3.9,3.12,2.85,0,5.19-1.74,5.19-4.2v-1.5a16.18,16.18,0,0,0-4.56-.66C409.41,445.64,407.79,446.9,407.79,448.88Z"/><path class="cls-1" d="M423.78,453.5V431.6h2.31v21.9Z"/><path class="cls-1" d="M437.88,451.85a6.42,6.42,0,0,0,4.89-2.19l1.44,1.29a8,8,0,0,1-6.39,2.91,7.72,7.72,0,0,1-7.74-8.1c0-4.5,3.15-8.1,7.44-8.1,4.59,0,7.23,3.66,7.23,8.22a6.28,6.28,0,0,1,0,.72h-12.3A5.44,5.44,0,0,0,437.88,451.85Zm4.53-7c-.24-2.82-1.86-5.28-5-5.28-2.7,0-4.74,2.25-5,5.28Z"/><path class="cls-1" d="M469.41,453.5v-3.12a7,7,0,0,1-5.94,3.45c-3.72,0-7.41-2.94-7.41-8.07s3.69-8.1,7.41-8.1a7,7,0,0,1,5.94,3.3V431.6h2.3v21.9Zm-5.52-13.77c-3,0-5.46,2.22-5.46,6s2.52,6,5.46,6a6,6,0,0,0,0-12Z"/><path class="cls-1" d="M477.36,441l-.69-1.89a12.81,12.81,0,0,1,5.64-1.29c4.23,0,6.6,2.16,6.6,6.24v9.48h-2.22v-2.34a6.8,6.8,0,0,1-5.61,2.67c-2.88,0-5.79-1.62-5.79-4.86s2.7-5,6.63-5a16.47,16.47,0,0,1,4.77.66v-.54c0-2.79-1.71-4.23-4.62-4.23A10.8,10.8,0,0,0,477.36,441Zm.27,7.92c0,2,1.8,3.12,3.9,3.12,2.85,0,5.19-1.74,5.19-4.2v-1.5a16.18,16.18,0,0,0-4.56-.66C479.25,445.64,477.63,446.9,477.63,448.88Z"/><path class="cls-1" d="M495.72,453.5h-2.31V438h2.31v2.7a5.87,5.87,0,0,1,5.31-3c3.75,0,5.94,2.52,5.94,6.21v9.63h-2.31v-9.06c0-2.88-1.56-4.68-4.29-4.68a4.56,4.56,0,0,0-4.65,4.86Z"/><path class="cls-1" d="M516.6,453.8a10.67,10.67,0,0,1-6.42-2.28l1.17-1.65a9.07,9.07,0,0,0,5.37,2c1.86,0,3.21-1,3.21-2.46v-.06c0-1.56-1.83-2.16-3.87-2.73-2.43-.69-5.13-1.53-5.13-4.38v-.06c0-2.67,2.22-4.44,5.28-4.44a10.6,10.6,0,0,1,5.58,1.71l-1,1.74a8.8,8.8,0,0,0-4.59-1.5c-1.83,0-3,1-3,2.25V442c0,1.47,1.92,2,4,2.67,2.4.72,5,1.65,5,4.44v.06C522.12,452.09,519.69,453.8,516.6,453.8Z"/><path class="cls-1" d="M534.77,453.5V431.6h2.31v21.9Z"/><path class="cls-1" d="M543,435.65h-1.08V432.5h2.76v2.7c0,2.43-1,3.6-3.33,4.11l-.36-1.05C542.48,437.72,543.11,436.94,543,435.65Z"/><path class="cls-1" d="M555.8,451.85a6.42,6.42,0,0,0,4.89-2.19l1.44,1.29a8,8,0,0,1-6.39,2.91,7.72,7.72,0,0,1-7.74-8.1c0-4.5,3.15-8.1,7.44-8.1,4.59,0,7.23,3.66,7.23,8.22a6.28,6.28,0,0,1,0,.72h-12.3A5.44,5.44,0,0,0,555.8,451.85Zm4.53-7c-.24-2.82-1.86-5.28-5-5.28-2.7,0-4.74,2.25-5,5.28Z"/><path class="cls-1" d="M579.77,453.5H577.1l-4.8-6.33-4.83,6.33h-2.58l6.09-7.89L565.13,438h2.64l4.59,6,4.59-6h2.58l-5.88,7.56Z"/><path class="cls-1" d="M589.94,451.85a6.42,6.42,0,0,0,4.89-2.19l1.44,1.29a8,8,0,0,1-6.39,2.91,7.72,7.72,0,0,1-7.74-8.1c0-4.5,3.15-8.1,7.44-8.1,4.59,0,7.23,3.66,7.23,8.22a6.28,6.28,0,0,1,0,.72h-12.3A5.44,5.44,0,0,0,589.94,451.85Zm4.53-7c-.24-2.82-1.86-5.28-5-5.28-2.7,0-4.74,2.25-5,5.28Z"/><path class="cls-1" d="M602.75,453.5h-2.31V438h2.31V442a6.64,6.64,0,0,1,6.33-4.32v2.49h-.18c-3.39,0-6.15,2.43-6.15,7.11Z"/><path class="cls-1" d="M619.16,453.86a8.1,8.1,0,1,1,6.21-13.44L623.84,442a6.26,6.26,0,0,0-4.71-2.34,5.73,5.73,0,0,0-5.55,6,5.8,5.8,0,0,0,5.7,6.06,6.4,6.4,0,0,0,4.74-2.31l1.47,1.38A8,8,0,0,1,619.16,453.86Z"/><path class="cls-1" d="M628.94,434.6v-2.55h2.64v2.55Zm.15,18.9V438h2.31V453.5Z"/><path class="cls-1" d="M643.34,453.86a8.1,8.1,0,1,1,6.21-13.44L648,442a6.26,6.26,0,0,0-4.71-2.34,5.73,5.73,0,0,0-5.55,6,5.8,5.8,0,0,0,5.7,6.06,6.4,6.4,0,0,0,4.74-2.31l1.47,1.38A8,8,0,0,1,643.34,453.86Z"/><path class="cls-1" d="M659.9,451.85a6.42,6.42,0,0,0,4.89-2.19l1.44,1.29a8,8,0,0,1-6.39,2.91,7.72,7.72,0,0,1-7.74-8.1c0-4.5,3.15-8.1,7.44-8.1,4.59,0,7.23,3.66,7.23,8.22a6.28,6.28,0,0,1,0,.72h-12.3A5.44,5.44,0,0,0,659.9,451.85Zm4.53-7c-.24-2.82-1.86-5.28-4.95-5.28-2.7,0-4.74,2.25-5,5.28Z"/><path class="cls-1" d="M691.43,453.5v-3.12a7,7,0,0,1-5.94,3.45c-3.72,0-7.41-2.94-7.41-8.07s3.69-8.1,7.41-8.1a7,7,0,0,1,5.94,3.3V431.6h2.31v21.9Zm-5.52-13.77c-3,0-5.46,2.22-5.46,6s2.52,6,5.46,6a6,6,0,0,0,0-12Z"/><path class="cls-1" d="M705.32,451.85a6.42,6.42,0,0,0,4.89-2.19l1.44,1.29a8,8,0,0,1-6.39,2.91,7.72,7.72,0,0,1-7.74-8.1c0-4.5,3.15-8.1,7.44-8.1,4.59,0,7.23,3.66,7.23,8.22a6.28,6.28,0,0,1,0,.72h-12.3A5.44,5.44,0,0,0,705.32,451.85Zm4.53-7c-.24-2.82-1.86-5.28-5-5.28-2.7,0-4.74,2.25-5,5.28Z"/><path class="cls-1" d="M724.61,453.5V431.6h2.31v21.9Z"/><path class="cls-1" d="M738.71,451.85a6.42,6.42,0,0,0,4.89-2.19L745,451a8,8,0,0,1-6.39,2.91,7.72,7.72,0,0,1-7.74-8.1c0-4.5,3.15-8.1,7.44-8.1,4.59,0,7.23,3.66,7.23,8.22a6.28,6.28,0,0,1,0,.72h-12.3A5.44,5.44,0,0,0,738.71,451.85Zm4.53-7c-.24-2.82-1.86-5.28-5-5.28-2.7,0-4.74,2.25-5,5.28Z"/><path class="cls-1" d="M760.22,438h2.28V453.5h-2.28v-2.7a5.91,5.91,0,0,1-5.31,3c-3.75,0-5.94-2.52-5.94-6.21V438h2.31v9.06c0,2.88,1.56,4.68,4.29,4.68a4.58,4.58,0,0,0,4.65-4.86Z"/><path class="cls-1" d="M769.58,453.5h-2.31V438h2.31V442a6.64,6.64,0,0,1,6.33-4.32v2.49h-.18c-3.39,0-6.15,2.43-6.15,7.11Z"/><path class="cls-1" d="M784.13,453.8a10.67,10.67,0,0,1-6.42-2.28l1.17-1.65a9.07,9.07,0,0,0,5.37,2c1.86,0,3.21-1,3.21-2.46v-.06c0-1.56-1.83-2.16-3.87-2.73-2.43-.69-5.13-1.53-5.13-4.38v-.06c0-2.67,2.22-4.44,5.28-4.44a10.6,10.6,0,0,1,5.58,1.71l-1.05,1.74a8.77,8.77,0,0,0-4.59-1.5c-1.83,0-3,1-3,2.25V442c0,1.47,1.92,2,4,2.67,2.4.72,5,1.65,5,4.44v.06C789.65,452.09,787.22,453.8,784.13,453.8Z"/><path class="cls-1" d="M803,441l-.69-1.89a12.81,12.81,0,0,1,5.64-1.29c4.23,0,6.6,2.16,6.6,6.24v9.48h-2.22v-2.34a6.8,6.8,0,0,1-5.61,2.67c-2.88,0-5.79-1.62-5.79-4.86s2.7-5,6.63-5a16.47,16.47,0,0,1,4.77.66v-.54c0-2.79-1.71-4.23-4.62-4.23A10.8,10.8,0,0,0,803,441Zm.27,7.92c0,2,1.8,3.12,3.9,3.12,2.85,0,5.19-1.74,5.19-4.2v-1.5a16.18,16.18,0,0,0-4.56-.66C804.89,445.64,803.27,446.9,803.27,448.88Z"/><path class="cls-1" d="M826,453.86a8.1,8.1,0,1,1,6.21-13.44L830.72,442A6.26,6.26,0,0,0,826,439.7a5.73,5.73,0,0,0-5.55,6,5.8,5.8,0,0,0,5.7,6.06,6.4,6.4,0,0,0,4.74-2.31l1.47,1.38A8,8,0,0,1,826,453.86Z"/><path class="cls-1" d="M838.88,449.09a2.29,2.29,0,0,0,2.61,2.58,4.86,4.86,0,0,0,2.25-.54v2a5.81,5.81,0,0,1-2.79.66c-2.49,0-4.38-1.23-4.38-4.38V440h-2.16v-2h2.16v-4.68h2.31V438h4.92v2h-4.92Z"/><path class="cls-1" d="M847.52,434.6v-2.55h2.64v2.55Zm.15,18.9V438H850V453.5Z"/><path class="cls-1" d="M866.42,438h2.49l-6.75,15.63h-2L853.4,438H856l5.22,12.87Z"/><path class="cls-1" d="M872.18,434.6v-2.55h2.64v2.55Zm.15,18.9V438h2.31V453.5Z"/><path class="cls-1" d="M882.71,449.09a2.29,2.29,0,0,0,2.61,2.58,4.86,4.86,0,0,0,2.25-.54v2a5.81,5.81,0,0,1-2.79.66c-2.49,0-4.38-1.23-4.38-4.38V440h-2.16v-2h2.16v-4.68h2.31V438h4.92v2h-4.92Z"/><path class="cls-1" d="M898.13,451.85a6.42,6.42,0,0,0,4.89-2.19l1.44,1.29a8,8,0,0,1-6.39,2.91,7.72,7.72,0,0,1-7.74-8.1c0-4.5,3.15-8.1,7.44-8.1,4.59,0,7.23,3.66,7.23,8.22a6.28,6.28,0,0,1,0,.72h-12.3A5.44,5.44,0,0,0,898.13,451.85Zm4.53-7c-.24-2.82-1.86-5.28-4.95-5.28-2.7,0-4.74,2.25-5,5.28Zm-6.33-9.24,2.85-4.35,2.4,1.11-3.39,3.24Z"/><path class="cls-1" d="M913.76,453.8a10.67,10.67,0,0,1-6.42-2.28l1.17-1.65a9.07,9.07,0,0,0,5.37,2c1.86,0,3.21-1,3.21-2.46v-.06c0-1.56-1.83-2.16-3.87-2.73-2.43-.69-5.13-1.53-5.13-4.38v-.06c0-2.67,2.22-4.44,5.28-4.44a10.6,10.6,0,0,1,5.58,1.71l-1.05,1.74a8.77,8.77,0,0,0-4.59-1.5c-1.83,0-3,1-3,2.25V442c0,1.47,1.92,2,4,2.67,2.4.72,5,1.65,5,4.44v.06C919.28,452.09,916.85,453.8,913.76,453.8Z"/><path class="cls-1" d="M922.88,453.5v-3.15h2.76v3.15Z"/><rect class="cls-3" width="606.89" height="61.17" rx="30.58"/><path class="cls-1" d="M26.1,19.27h5.74V40.15h13v5.22H26.1Z"/><path class="cls-1" d="M48.66,19.27H68.35v5.11h-14v5.29H66.68v5.11H54.37v5.48H68.54v5.11H48.66Z"/><path class="cls-1" d="M71.34,41.57l3.39-4.07a12,12,0,0,0,7.8,3.17c2.35,0,3.77-.93,3.77-2.46v-.07c0-1.46-.9-2.2-5.26-3.32-5.26-1.34-8.65-2.8-8.65-8v-.08c0-4.73,3.8-7.86,9.13-7.86a15.09,15.09,0,0,1,9.7,3.32l-3,4.32A12.24,12.24,0,0,0,81.45,24c-2.2,0-3.36,1-3.36,2.27v.08c0,1.71,1.12,2.27,5.63,3.43C89,31.13,92,33,92,37.58v.07c0,5.19-4,8.1-9.58,8.1A16.59,16.59,0,0,1,71.34,41.57Z"/><path class="cls-1" d="M106,32.4v-.08a13.27,13.27,0,0,1,13.61-13.5,13.49,13.49,0,0,1,10.3,4l-3.66,4.21a9.64,9.64,0,0,0-6.68-2.94c-4.4,0-7.57,3.65-7.57,8.13v.07c0,4.48,3.1,8.21,7.57,8.21,3,0,4.82-1.2,6.87-3.06l3.65,3.69a13.34,13.34,0,0,1-10.7,4.66A13.18,13.18,0,0,1,106,32.4Z"/><path class="cls-1" d="M134.15,19.27h11.93c3.32,0,5.9.93,7.61,2.65a8.15,8.15,0,0,1,2.24,6V28a8.11,8.11,0,0,1-5.59,8.09l6.37,9.32H150L144.41,37h-4.52v8.35h-5.74ZM145.71,32c2.8,0,4.4-1.49,4.4-3.69v-.08c0-2.46-1.71-3.73-4.51-3.73h-5.71V32Z"/><path class="cls-1" d="M160.86,19.27h5.74v26.1h-5.74Z"/><path class="cls-1" d="M178.68,24.56h-7.94V19.27h21.63v5.29h-7.94V45.37h-5.75Z"/><path class="cls-1" d="M196.25,19.27h19.69v5.11H202v5.29h12.3v5.11H202v5.48h14.17v5.11H196.25Z"/><path class="cls-1" d="M220.72,19.27h11.93c3.32,0,5.89.93,7.61,2.65a8.19,8.19,0,0,1,2.24,6V28a8.11,8.11,0,0,1-5.6,8.09l6.38,9.32h-6.71L231,37h-4.51v8.35h-5.74ZM232.28,32c2.8,0,4.4-1.49,4.4-3.69v-.08c0-2.46-1.72-3.73-4.51-3.73h-5.71V32Z"/><path class="cls-1" d="M247.16,19.27h19.69v5.11h-14v5.29h12.31v5.11H252.87v5.48H267v5.11H247.16Z"/><path class="cls-1" d="M269.84,41.57l3.39-4.07a12,12,0,0,0,7.8,3.17c2.35,0,3.76-.93,3.76-2.46v-.07c0-1.46-.89-2.2-5.25-3.32-5.26-1.34-8.66-2.8-8.66-8v-.08c0-4.73,3.81-7.86,9.14-7.86a15.09,15.09,0,0,1,9.7,3.32l-3,4.32A12.24,12.24,0,0,0,280,24c-2.2,0-3.36,1-3.36,2.27v.08c0,1.71,1.12,2.27,5.63,3.43,5.3,1.38,8.28,3.28,8.28,7.83v.07c0,5.19-3.95,8.1-9.58,8.1A16.59,16.59,0,0,1,269.84,41.57Z"/><path class="cls-1" d="M305.65,19.27h10.18c8.2,0,13.87,5.63,13.87,13v.07c0,7.35-5.67,13-13.87,13H305.65Zm5.74,5.18V40.19h4.44c4.7,0,7.87-3.17,7.87-7.79v-.08a7.5,7.5,0,0,0-7.87-7.87Z"/><path class="cls-1" d="M334.29,19.27H354v5.11H340v5.29h12.3v5.11H340v5.48h14.17v5.11H334.29Z"/><path class="cls-1" d="M367.64,41.57,371,37.5a12,12,0,0,0,7.79,3.17c2.35,0,3.77-.93,3.77-2.46v-.07c0-1.46-.9-2.2-5.26-3.32-5.26-1.34-8.65-2.8-8.65-8v-.08c0-4.73,3.8-7.86,9.14-7.86a15.08,15.08,0,0,1,9.69,3.32l-3,4.32A12.27,12.27,0,0,0,377.74,24c-2.2,0-3.35,1-3.35,2.27v.08c0,1.71,1.11,2.27,5.63,3.43,5.29,1.38,8.28,3.28,8.28,7.83v.07c0,5.19-4,8.1-9.59,8.1A16.59,16.59,0,0,1,367.64,41.57Z"/><path class="cls-1" d="M392.77,19.27h19.69v5.11h-14v5.29h12.31v5.11H398.48v5.48h14.17v5.11H392.77Z"/><path class="cls-1" d="M417.24,19.27H423V40.15h13v5.22H417.24Z"/><path class="cls-1" d="M439.81,19.27H459.5v5.11h-14v5.29h12.31v5.11H445.51v5.48h14.17v5.11H439.81Z"/><path class="cls-1" d="M463.12,32.4v-.08a13.27,13.27,0,0,1,13.61-13.5,13.45,13.45,0,0,1,10.29,4l-3.65,4.21a9.68,9.68,0,0,0-6.68-2.94c-4.4,0-7.57,3.65-7.57,8.13v.07c0,4.48,3.1,8.21,7.57,8.21,3,0,4.81-1.2,6.86-3.06l3.66,3.69a13.35,13.35,0,0,1-10.7,4.66A13.17,13.17,0,0,1,463.12,32.4Z"/><path class="cls-1" d="M497.36,24.56h-7.95V19.27H511v5.29H503.1V45.37h-5.74Z"/><path class="cls-1" d="M515.19,19.27h5.74v26.1h-5.74Z"/><path class="cls-1" d="M525.78,32.4v-.08a13.5,13.5,0,0,1,13.91-13.5c8,0,13.83,6,13.83,13.43v.07a13.5,13.5,0,0,1-13.91,13.5C531.56,45.82,525.78,39.82,525.78,32.4Zm21.74,0v-.08a7.93,7.93,0,0,0-7.91-8.2,7.81,7.81,0,0,0-7.83,8.13v.07a7.93,7.93,0,0,0,7.91,8.21A7.81,7.81,0,0,0,547.52,32.4Z"/><path class="cls-1" d="M558.12,19.27h5.29l12.23,16.07V19.27h5.67v26.1h-4.88L563.79,28.78V45.37h-5.67Z"/></g></g></svg>