<svg xmlns="http://www.w3.org/2000/svg" viewBox="0 0 628.01 463.19"><defs><style>.cls-1{fill:#fff;}.cls-2{fill:#98a6d4;}.cls-3{fill:#a8ca59;}</style></defs><g id="Layer_2" data-name="Layer 2"><g id="Layer_1-2" data-name="Layer 1"><path class="cls-1" d="M130.5,120.3H133v3.42H130.5Zm0,9.66H133v3.42H130.5Z"/><path class="cls-1" d="M147.12,133.38h-3.75v.33q0,7.14-5,7.14c-.32,0-.62,0-.89,0l-.7-.06-.63-.06v-2q1.5.12,1.89.12a2.45,2.45,0,0,0,2.23-1.19,6.27,6.27,0,0,0,.74-3.31V118.41h2.31v12.9h3.75Z"/><path class="cls-1" d="M158.37,131.31v2.07H147.12v-2.07h4.47V118.38h2.31v12.93Zm-8.67,4.47H152v2.52H149.7Zm3.75,0h2.28v2.52h-2.28Z"/><path class="cls-1" d="M165.15,118.38v15h-6.78v-2.07h4.47V118.38Zm-4.2,17.4h2.28v2.52H161Zm3.75,0H167v2.52H164.7Z"/><path class="cls-1" d="M175.38,131.31v2.07h-5.13V111.84h2.31v19.47Z"/><path class="cls-1" d="M193.77,131.31v2.07h-3.15a13.58,13.58,0,0,1-3.06-.36,12.31,12.31,0,0,1-2.85-1,14.14,14.14,0,0,1-2.81,1,12.34,12.34,0,0,1-3,.37h-3.54v-2.07h3.45a10.31,10.31,0,0,0,3.66-.69,14.05,14.05,0,0,1-3.69-4.17,9.39,9.39,0,0,1-1.44-4.23l-.09-2.13a16,16,0,0,1,7.41-2,16.44,16.44,0,0,1,7.47,2l-.09,2.13a8.45,8.45,0,0,1-.66,2.66,13.35,13.35,0,0,1-1.76,3,13.6,13.6,0,0,1-2.71,2.7,9.78,9.78,0,0,0,3.66.72ZM181,125.87a11.9,11.9,0,0,0,3.69,3.61,12.29,12.29,0,0,0,3.69-3.63,8.25,8.25,0,0,0,1.41-4.59,12.2,12.2,0,0,0-10.17,0A8.37,8.37,0,0,0,181,125.87Z"/><path class="cls-1" d="M209.49,119.88q1.74,1.8,1.74,6v7.5H193.77v-2.07h4.95a33,33,0,0,1-.18-9.22,28.69,28.69,0,0,1,.54-3.2,11,11,0,0,1,2.1-.55,16,16,0,0,1,2.91-.26Q207.75,118.08,209.49,119.88ZM200.74,129c.09,1,.19,1.74.29,2.32h7.89v-5.46q0-3.06-1.29-4.38a5.27,5.27,0,0,0-3.93-1.32,10.29,10.29,0,0,0-2.61.3,31,31,0,0,0-.48,5.61C200.61,127,200.65,128,200.74,129Z"/><path class="cls-1" d="M222.51,133l-1-.21.27-1.83a31.15,31.15,0,0,0,5.82.66,4.8,4.8,0,0,0,3.52-1.2,4.6,4.6,0,0,0,1.22-3.42,3.91,3.91,0,0,0-1.07-3.07,4.58,4.58,0,0,0-3.13-1,9.42,9.42,0,0,0-2.18.29,10.66,10.66,0,0,0-1.9.61l-.63.3-1.59-.3.54-10.29h11.55v2.1h-9.63l-.54,6.45a9.81,9.81,0,0,1,4.65-1.23q6.3,0,6.3,5.85a7.1,7.1,0,0,1-1.73,5.12,6.53,6.53,0,0,1-4.9,1.78A26.07,26.07,0,0,1,222.51,133Z"/><path class="cls-1" d="M270.45,133.38h-3.81v.39a7.43,7.43,0,0,1-1.71,5.13,6.24,6.24,0,0,1-4.92,1.92h-7.89a9.69,9.69,0,0,1-4-.81,7,7,0,0,1-2.84-2.26,5.56,5.56,0,0,1-1.05-3.32,49.46,49.46,0,0,1,.78-6.63l2.19.36a48.43,48.43,0,0,0-.66,5.76,4.46,4.46,0,0,0,.73,2.52,4.85,4.85,0,0,0,2,1.71,6.19,6.19,0,0,0,2.72.6l7.92,0a4.05,4.05,0,0,0,3.28-1.36,5.19,5.19,0,0,0,1.16-3.47,2.66,2.66,0,0,0,0-.57h-.71a6.76,6.76,0,0,1-3.69-.87l1-1.71a2.62,2.62,0,0,0,1.15.44,16.22,16.22,0,0,0,1.79.07h6.66Z"/><path class="cls-1" d="M280.25,131.31v2.07h-9.8v-2.07h3.69V111.84h2.31v19.47Z"/><path class="cls-1" d="M296.06,131.31v2.07H280.25v-2.07h5.62a7.49,7.49,0,0,1-1.41-2.58,10.79,10.79,0,0,1-.58-3.6,7.67,7.67,0,0,1,1.64-5.1,5.77,5.77,0,0,1,4.69-2,11.41,11.41,0,0,1,5,1.2l-.09,2a7.31,7.31,0,0,0-1.92-.75,9.92,9.92,0,0,0-2.67-.42,3.85,3.85,0,0,0-3.19,1.38,5.82,5.82,0,0,0-1.1,3.75,8.48,8.48,0,0,0,.7,3.52,7.13,7.13,0,0,0,1.76,2.51Z"/><path class="cls-1" d="M306.26,111.84h2.31v21.54h-2.31Z"/><path class="cls-1" d="M326.12,130.56l-12.93,2.82-.48-1.8,3-.78a6.83,6.83,0,0,1-1.57-2.26,6.64,6.64,0,0,1-.53-2.6,6.5,6.5,0,0,1,.77-3.07,5.93,5.93,0,0,1,5.44-3.23,9.87,9.87,0,0,1,4,1l-.42,1.92a6.74,6.74,0,0,0-2.7-.6,4.37,4.37,0,0,0-4,2.34,4.82,4.82,0,0,0-.11,4.29,4.7,4.7,0,0,0,1.35,1.68l7.56-1.92Z"/><path class="cls-1" d="M335.24,131.31v2.07h-5.13V111.84h2.31v19.47Z"/><path class="cls-1" d="M346.49,131.31v2.07H335.24v-2.07h4.47V118.38H342v12.93Zm-6.78-18.24H342v2.52h-2.28Z"/><path class="cls-1" d="M353.27,118.38v15h-6.78v-2.07H351V118.38ZM351,135.78h2.28v2.52H351Z"/><path class="cls-1" d="M382,131.31v2.07h-1a2.72,2.72,0,0,1-1.2-.33,5.11,5.11,0,0,1-1.23-.87v1.2H368.9q-3.33,0-3.33,4.11a29.39,29.39,0,0,0,.81,5.64l-1.95.06a34,34,0,0,1-.93-6.54,6.45,6.45,0,0,1,.74-3.38,3.9,3.9,0,0,1,1.87-1.63,29.91,29.91,0,0,1-.48-5.58,32.68,32.68,0,0,1,.24-4,28.69,28.69,0,0,1,.54-3.2,11,11,0,0,1,2.1-.55,16,16,0,0,1,2.91-.26q3.66,0,5.4,1.8t1.74,6v4.26a3.07,3.07,0,0,0,2.43,1.17Zm-5.7,0v-5.46q0-3.06-1.29-4.38a5.27,5.27,0,0,0-3.93-1.32,10.29,10.29,0,0,0-2.61.3,31,31,0,0,0-.48,5.61c0,1,.05,1.95.14,2.93s.18,1.74.28,2.32Z"/><path class="cls-1" d="M393.2,131.31v2.07H382v-2.07h4.47V118.38h2.31v12.93Zm-8.67,4.47h2.28v2.52h-2.28Zm3.75,0h2.28v2.52h-2.28Z"/><path class="cls-1" d="M413.27,131.31v2.07H393.2v-2.07h13.47V127a6.77,6.77,0,0,0-.67-3.12,2.38,2.38,0,0,0-2.24-1.35h-8.13l-1.53-2.07,1.56-3.06a21.12,21.12,0,0,1,1.64-2.62c.73-1,1.46-2,2.2-2.9l1.65.93c-.92,1.38-1.61,2.44-2.07,3.19s-.88,1.5-1.26,2.24l-1.14,2.22h7.26a4.27,4.27,0,0,1,3.83,1.83A8.42,8.42,0,0,1,409,127v4.32Z"/><path class="cls-1" d="M431,131.31v2.07H413.27v-2.07h12v-8.13a3,3,0,0,0-.78-2.26,3.22,3.22,0,0,0-2.34-.77q-1.35,0-5.34.48l-.84.09-.09-1.71a37.21,37.21,0,0,1,6.78-.93q4.92,0,4.92,5.13v8.1Z"/><path class="cls-1" d="M442.28,131.31v2.07H431v-2.07h4.47V118.38h2.31v12.93Zm-8.64-18.24h2.28v2.52h-2.28Zm3.75,0h2.28v2.52h-2.28Z"/><path class="cls-1" d="M448.28,111.84v21.54h-6v-2.07H446V111.84Z"/><path class="cls-1" d="M453.68,111.84H456v21.54h-2.31Z"/><path class="cls-1" d="M483.56,131.31v2.07h-10a9.69,9.69,0,0,1-4.2-.75,4.43,4.43,0,0,1-2.2-2.38,12,12,0,0,1-.68-4.46,12.73,12.73,0,0,1,.65-4.47,4.48,4.48,0,0,1,2.13-2.46,8.64,8.64,0,0,1,4-.78c.74,0,1.88,0,3.41.1s2.68.15,3.46.23v12.9ZM469.3,129a3.33,3.33,0,0,0,1.6,1.76,7,7,0,0,0,3.06.55h3.87v-11q-2.64-.18-4.08-.18-2.73,0-3.84,1.29a6.51,6.51,0,0,0-1.11,4.26A8.77,8.77,0,0,0,469.3,129Zm1.84-15.93h2.28v2.52h-2.28Zm3.75,0h2.28v2.52h-2.28Z"/><path class="cls-1" d="M494.81,131.31v2.07H483.56v-2.07H488V118.38h2.31v12.93ZM488,113.07h2.28v2.52H488Z"/><path class="cls-1" d="M512.57,131.31v2.07H494.81v-2.07h12v-8.13a3,3,0,0,0-.78-2.26,3.22,3.22,0,0,0-2.34-.77q-1.35,0-5.34.48l-.84.09-.09-1.71a37.21,37.21,0,0,1,6.78-.93q4.92,0,4.92,5.13v8.1Zm-10,4.47h2.28v2.52h-2.28Z"/><path class="cls-1" d="M518.57,111.84v21.54h-6v-2.07h3.69V111.84Z"/><path class="cls-1" d="M530.41,140.82l-.71-.06-.63-.06v-2q1.5.12,1.89.12a2.46,2.46,0,0,0,2.24-1.19,6.37,6.37,0,0,0,.73-3.31V118.41h2.31v15.3q0,7.14-5,7.14C531,140.85,530.67,140.84,530.41,140.82Z"/><path class="cls-1" d="M546.2,131.31v2.07h-5.13V111.84h2.31v19.47Z"/><path class="cls-1" d="M557.45,131.31v2.07H546.2v-2.07h4.47V118.38H553v12.93Zm-8.67,4.47h2.28v2.52h-2.28Zm3.75,0h2.28v2.52h-2.28Z"/><path class="cls-1" d="M568.7,131.31v2.07H557.45v-2.07h4.47V118.38h2.31v12.93Zm-8.64-18.24h2.28v2.52h-2.28Zm3.75,0h2.28v2.52h-2.28Z"/><path class="cls-1" d="M583,123.21v10.17H568.7v-2.07h12v-8.13a3,3,0,0,0-.78-2.26,3.22,3.22,0,0,0-2.34-.77q-1.35,0-5.34.48l-.84.09-.09-1.71a37.21,37.21,0,0,1,6.78-.93Q583,118.08,583,123.21Zm-7.11-10.14h2.28v2.52h-2.28Z"/><path class="cls-1" d="M587.54,111.84h2.31v21.54h-2.31Z"/><path class="cls-1" d="M618.83,131.31v2.07h-1a2.72,2.72,0,0,1-1.2-.33,5.11,5.11,0,0,1-1.23-.87v1.2h-9.66q-3.33,0-3.33,4.11a29.39,29.39,0,0,0,.81,5.64l-2,.06a34,34,0,0,1-.93-6.54,6.45,6.45,0,0,1,.73-3.38,3.92,3.92,0,0,1,1.88-1.63,29.91,29.91,0,0,1-.48-5.58,32.68,32.68,0,0,1,.24-4,28.69,28.69,0,0,1,.54-3.2,11,11,0,0,1,2.1-.55,16,16,0,0,1,2.91-.26q3.66,0,5.4,1.8t1.74,6v4.26a3.07,3.07,0,0,0,2.43,1.17Zm-5.7,0v-5.46q0-3.06-1.29-4.38a5.27,5.27,0,0,0-3.93-1.32,10.29,10.29,0,0,0-2.61.3,31,31,0,0,0-.48,5.61c0,1,0,1.95.13,2.93s.19,1.74.29,2.32Z"/><path class="cls-1" d="M625.61,118.38v15h-6.78v-2.07h4.47V118.38Zm-4.17-5.31h2.28v2.52h-2.28Zm3.75,0h2.28v2.52h-2.28Z"/><path class="cls-1" d="M125.46,210h2.46v3.42h-2.46Z"/><path class="cls-1" d="M149.61,211.31v2.07h-1a2.72,2.72,0,0,1-1.2-.33,5.11,5.11,0,0,1-1.23-.87v1.2h-9.66q-3.33,0-3.33,4.11a29.39,29.39,0,0,0,.81,5.64l-1.95.06a34,34,0,0,1-.93-6.54,6.45,6.45,0,0,1,.73-3.38,3.92,3.92,0,0,1,1.88-1.63,29.91,29.91,0,0,1-.48-5.58,32.68,32.68,0,0,1,.24-4,28.69,28.69,0,0,1,.54-3.2,11,11,0,0,1,2.1-.55,16,16,0,0,1,2.91-.26q3.66,0,5.4,1.8t1.74,6v4.26a3.07,3.07,0,0,0,2.43,1.17Zm-5.7,0v-5.46q0-3.06-1.29-4.38a5.27,5.27,0,0,0-3.93-1.32,10.29,10.29,0,0,0-2.61.3,31,31,0,0,0-.48,5.61c0,1,0,1.95.13,2.93s.19,1.74.29,2.32Z"/><path class="cls-1" d="M173.58,211.31v2.07h-24v-2.07h3.45v-2.4a5.22,5.22,0,0,1,.73-2.71,5.63,5.63,0,0,1,2-2,5.26,5.26,0,0,1,2.72-.73,5.34,5.34,0,0,1,2.68.7,5.44,5.44,0,0,1,2,1.95,5.38,5.38,0,0,1,.74,2.78v2.4h4.41v-4.14c0-3-.75-5-2.24-6.22a8.77,8.77,0,0,0-5.65-1.79,21.62,21.62,0,0,0-2.81.19c-1,.14-2.17.32-3.55.56l-.15-1.77a27,27,0,0,1,6.93-1,10.48,10.48,0,0,1,7,2.34q2.78,2.34,2.78,7.68v4.2Zm-17.31-4.86a3,3,0,0,0-.9,2.19v2.67h6.21v-2.67a3,3,0,0,0-.89-2.19,3,3,0,0,0-2.2-.9A3,3,0,0,0,156.27,206.45Z"/><path class="cls-1" d="M180.36,198.38v15h-6.78v-2.07h4.47V198.38Zm-4.17-5.31h2.28v2.52h-2.28Zm3.75,0h2.28v2.52h-2.28Z"/><path class="cls-1" d="M190.59,211.31v2.07h-5.13V191.84h2.31v19.47Z"/><path class="cls-1" d="M211,200.41a9.46,9.46,0,0,1,1.58,5.44v7.53h-22v-2.07H195V198.38h2.31v4.8a29,29,0,0,1,2.44-2.73,9,9,0,0,1,2.57-1.71,8.2,8.2,0,0,1,3.39-.66Q209.46,198.08,211,200.41Zm-9,.76a11.91,11.91,0,0,0-2.58,2.17c-.66.78-1.37,1.69-2.13,2.75v5.22h13v-5.13a7.15,7.15,0,0,0-1.25-4.3,4.15,4.15,0,0,0-3.61-1.73A6.27,6.27,0,0,0,202,201.17Z"/><path class="cls-1" d="M222.54,211.31v2.07h-5.13V191.84h2.31v19.47Z"/><path class="cls-1" d="M247.38,211.31v2.07H222.54v-2.07h4.38V198.38h2.31v4.8a27.65,27.65,0,0,1,2.44-2.73,8.88,8.88,0,0,1,2.57-1.71,8.12,8.12,0,0,1,3.38-.66c2.53,0,4.31.78,5.36,2.33a9.46,9.46,0,0,1,1.57,5.44v5.46Zm-13.44-10.14a11.91,11.91,0,0,0-2.58,2.17c-.66.78-1.37,1.69-2.13,2.75v5.22h13v-5.13a7.15,7.15,0,0,0-1.25-4.3,4.17,4.17,0,0,0-3.62-1.73A6.24,6.24,0,0,0,233.94,201.17Z"/><path class="cls-1" d="M258.62,211.31v2.07H247.38v-2.07h4.46V198.38h2.32v12.93ZM250,193.07h2.27v2.52H250Zm3.75,0H256v2.52h-2.27Z"/><path class="cls-1" d="M273,203.21v10.17H258.62v-2.07h12v-8.13a3,3,0,0,0-.78-2.26,3.25,3.25,0,0,0-2.34-.77q-1.37,0-5.34.48l-.84.09-.1-1.71a37.32,37.32,0,0,1,6.78-.93C271.33,198.08,273,199.79,273,203.21Zm-7.1-10.14h2.27v2.52h-2.27Z"/><path class="cls-1" d="M277.46,191.84h2.31v21.54h-2.31Z"/><path class="cls-1" d="M309.62,198.38v15H298.46a17.24,17.24,0,0,1-4.56-.48,4.37,4.37,0,0,1-2.44-1.53,4.8,4.8,0,0,1-.77-2.88,37.24,37.24,0,0,1,.93-6.81l1.8.09-.3,2.4c0,.22-.08.78-.19,1.67a18.2,18.2,0,0,0-.17,2.11,3.36,3.36,0,0,0,.53,2,3,3,0,0,0,1.74,1,14.27,14.27,0,0,0,3.4.31h8.88V198.38Zm-12.06-2.52h2.28v2.52h-2.28Zm3.75,0h2.28v2.52h-2.28Z"/><path class="cls-1" d="M327.41,191.84v21.54H313.22v-2.07h3.84V195.89h2.31v15.42h5.76V191.84Z"/><path class="cls-1" d="M337.64,211.31v2.07h-5.13V191.84h2.31v19.47Z"/><path class="cls-1" d="M355.4,211.31v2.07H337.64v-2.07h12v-8.13a3,3,0,0,0-.78-2.26,3.22,3.22,0,0,0-2.34-.77q-1.35,0-5.34.48l-.84.09-.09-1.71a37.21,37.21,0,0,1,6.78-.93q4.92,0,4.92,5.13v8.1Zm-10,4.47h2.28v2.52h-2.28Z"/><path class="cls-1" d="M371.12,199.88q1.74,1.8,1.74,6v7.5H355.4v-2.07h5a33,33,0,0,1-.18-9.22,28.69,28.69,0,0,1,.54-3.2,11,11,0,0,1,2.1-.55,16,16,0,0,1,2.91-.26Q369.38,198.08,371.12,199.88ZM362.38,209c.09,1,.18,1.74.28,2.32h7.89v-5.46q0-3.06-1.29-4.38a5.27,5.27,0,0,0-3.93-1.32,10.29,10.29,0,0,0-2.61.3,31,31,0,0,0-.48,5.61C362.24,207,362.29,208,362.38,209Z"/><path class="cls-1" d="M408.68,213.38h-3.81v.39a7.43,7.43,0,0,1-1.71,5.13,6.24,6.24,0,0,1-4.92,1.92h-7.89a9.61,9.61,0,0,1-4-.81,7,7,0,0,1-2.85-2.26,5.56,5.56,0,0,1-1.05-3.32,49.46,49.46,0,0,1,.78-6.63l2.19.36a50.78,50.78,0,0,0-.66,5.76,4.46,4.46,0,0,0,.74,2.52,4.85,4.85,0,0,0,2,1.71,6.15,6.15,0,0,0,2.71.6l7.92,0a4.07,4.07,0,0,0,3.29-1.36,5.19,5.19,0,0,0,1.15-3.47,3.85,3.85,0,0,0,0-.57h-.72a6.76,6.76,0,0,1-3.69-.87l1-1.71a2.66,2.66,0,0,0,1.16.44,16,16,0,0,0,1.78.07h6.66ZM390.62,223h2.28v2.52h-2.28Zm3.75,0h2.28v2.52h-2.28Z"/><path class="cls-1" d="M424.22,198.71v14.67H408.68v-2.07h4.26a11.8,11.8,0,0,1-.81-5.07,13.82,13.82,0,0,1,.65-4.77,4.09,4.09,0,0,1,2.16-2.37,10.66,10.66,0,0,1,4.3-.69,37.13,37.13,0,0,1,4.14.21Zm-8.7,12.6h6.39V200.54q-2-.15-2.88-.15a5.87,5.87,0,0,0-2.88.57,3,3,0,0,0-1.36,1.8,12.21,12.21,0,0,0-.38,3.42Q414.41,210,415.52,211.31Zm2.1-18.24h2.28v2.52h-2.28Z"/><path class="cls-1" d="M450.89,211.31v2.07h-10a9.69,9.69,0,0,1-4.2-.75,4.43,4.43,0,0,1-2.2-2.38,12,12,0,0,1-.68-4.46,12.73,12.73,0,0,1,.65-4.47,4.48,4.48,0,0,1,2.13-2.46,8.64,8.64,0,0,1,4-.78c.74,0,1.88,0,3.41.1s2.68.15,3.46.23v12.9ZM436.63,209a3.33,3.33,0,0,0,1.6,1.76,7,7,0,0,0,3.06.55h3.87V200.36q-2.64-.18-4.08-.18-2.73,0-3.84,1.29a6.51,6.51,0,0,0-1.11,4.26A8.77,8.77,0,0,0,436.63,209Zm1.84-15.93h2.28v2.52h-2.28Zm3.75,0h2.28v2.52h-2.28Z"/><path class="cls-1" d="M469.07,211.31v2.07H450.89v-2.07h4.26a11.8,11.8,0,0,1-.81-5.07,13.82,13.82,0,0,1,.65-4.77,4.09,4.09,0,0,1,2.16-2.37,10.66,10.66,0,0,1,4.3-.69,37.13,37.13,0,0,1,4.14.21l.84.09v12.6Zm-11.34,0h6.39V200.54q-2-.15-2.88-.15a5.87,5.87,0,0,0-2.88.57,3,3,0,0,0-1.36,1.8,12.21,12.21,0,0,0-.38,3.42Q456.62,210,457.73,211.31Zm-.39-18.24h2.28v2.52h-2.28Zm3.75,0h2.28v2.52h-2.28Z"/><path class="cls-1" d="M480.32,211.31v2.07H469.07v-2.07h4.47V198.38h2.31v12.93Zm-8.67,4.47h2.28v2.52h-2.28Zm3.75,0h2.28v2.52H475.4Z"/><path class="cls-1" d="M501.14,211.31v2.07h-1a2.85,2.85,0,0,1-1.22-.32,4.52,4.52,0,0,1-1.18-.85v1.17H480.32v-2.07h4.95a33,33,0,0,1-.18-9.22,28.69,28.69,0,0,1,.54-3.2,11,11,0,0,1,2.1-.55,16,16,0,0,1,2.91-.26q3.66,0,5.4,1.8t1.74,6v4.29a3,3,0,0,0,2.4,1.14ZM487.29,209c.1,1,.19,1.74.29,2.32h7.89v-5.46q0-3.06-1.29-4.38a5.27,5.27,0,0,0-3.93-1.32,10.29,10.29,0,0,0-2.61.3,31,31,0,0,0-.48,5.61C487.16,207,487.21,208,487.29,209Z"/><path class="cls-1" d="M517,211.31v2.07H501.14v-2.07h5.61a7.83,7.83,0,0,1-1.41-2.58,10.79,10.79,0,0,1-.57-3.6,7.67,7.67,0,0,1,1.64-5.1,5.77,5.77,0,0,1,4.69-1.95,11,11,0,0,1,2.51.31,10.68,10.68,0,0,1,2.44.89l-.09,2a7,7,0,0,0-1.92-.75,9.8,9.8,0,0,0-2.67-.42,3.84,3.84,0,0,0-3.18,1.38,5.82,5.82,0,0,0-1.11,3.75,8.48,8.48,0,0,0,.71,3.52,7.11,7.11,0,0,0,1.75,2.51Z"/><path class="cls-1" d="M535.83,198.18c1.53.08,2.69.15,3.47.23v15h-6.57a9.69,9.69,0,0,1-4.2-.75,4.45,4.45,0,0,1-2.21-2.38,12,12,0,0,1-.67-4.46,12.75,12.75,0,0,1,.64-4.47,4.48,4.48,0,0,1,2.13-2.46,8.69,8.69,0,0,1,4-.78C533.17,198.08,534.3,198.12,535.83,198.18ZM528.45,209a3.35,3.35,0,0,0,1.61,1.76,7,7,0,0,0,3.06.55H537V200.36q-2.64-.18-4.08-.18-2.73,0-3.84,1.29a6.51,6.51,0,0,0-1.11,4.26A8.79,8.79,0,0,0,528.45,209Zm1.34-15.93h2.28v2.52h-2.28Zm3.75,0h2.28v2.52h-2.28Z"/><path class="cls-1" d="M553.22,213.38h-3.75v.33q0,7.14-5,7.14c-.32,0-.62,0-.89,0l-.7-.06-.63-.06v-2q1.5.12,1.89.12a2.45,2.45,0,0,0,2.23-1.19,6.27,6.27,0,0,0,.74-3.31V198.41h2.31v12.9h3.75Z"/><path class="cls-1" d="M564.47,211.31v2.07H553.22v-2.07h4.47V198.38H560v12.93Zm-6.78,4.47H560v2.52h-2.28Z"/><path class="cls-1" d="M578.81,203.21v10.17H564.47v-2.07h12v-8.13a3,3,0,0,0-.78-2.26,3.22,3.22,0,0,0-2.34-.77q-1.35,0-5.34.48l-.84.09-.09-1.71a37.21,37.21,0,0,1,6.78-.93Q578.81,198.08,578.81,203.21Zm-7.11-10.14H574v2.52H571.7Z"/><path class="cls-2" d="M590,205.08h7.2v8.3H590Z"/><path class="cls-2" d="M614,188.18l-7.15,4.6-3.15-5.15,10.9-7.25h6.3v33H614Z"/><path class="cls-1" d="M499.55,271.31v2.07h-10a9.69,9.69,0,0,1-4.2-.75,4.43,4.43,0,0,1-2.2-2.38,12,12,0,0,1-.68-4.46,13,13,0,0,1,.64-4.47,4.51,4.51,0,0,1,2.13-2.46,8.72,8.72,0,0,1,4-.78c.74,0,1.88,0,3.41.1s2.68.15,3.46.23v12.9ZM485.29,269a3.33,3.33,0,0,0,1.6,1.76,7,7,0,0,0,3.06.55h3.87V260.36q-2.64-.18-4.08-.18-2.73,0-3.84,1.29a6.51,6.51,0,0,0-1.11,4.26A8.77,8.77,0,0,0,485.29,269Zm1.84-15.93h2.28v2.52h-2.28Zm3.75,0h2.28v2.52h-2.28Z"/><path class="cls-1" d="M517.94,271.31v2.07h-3.15a13.58,13.58,0,0,1-3.06-.36,12.31,12.31,0,0,1-2.85-1,14.27,14.27,0,0,1-2.8,1,12.48,12.48,0,0,1-3,.37h-3.54v-2.07H503a10.31,10.31,0,0,0,3.66-.69,14.05,14.05,0,0,1-3.69-4.17,9.39,9.39,0,0,1-1.44-4.23l-.09-2.13a16,16,0,0,1,7.41-2,16.44,16.44,0,0,1,7.47,2l-.09,2.13a8.45,8.45,0,0,1-.66,2.66,13.35,13.35,0,0,1-1.76,3,13.6,13.6,0,0,1-2.71,2.7,9.78,9.78,0,0,0,3.66.72Zm-12.75-5.44a11.9,11.9,0,0,0,3.69,3.61,12.29,12.29,0,0,0,3.69-3.63,8.25,8.25,0,0,0,1.41-4.59,12.2,12.2,0,0,0-10.17,0A8.37,8.37,0,0,0,505.19,265.87Z"/><path class="cls-1" d="M538.76,271.31v2.07h-1a2.81,2.81,0,0,1-1.22-.32,4.36,4.36,0,0,1-1.18-.85v1.17H517.94v-2.07h4.95a33,33,0,0,1-.18-9.22,28.69,28.69,0,0,1,.54-3.2,11,11,0,0,1,2.1-.55,16,16,0,0,1,2.91-.26q3.66,0,5.4,1.8t1.74,6v4.29a3,3,0,0,0,2.4,1.14ZM524.91,269c.09,1,.19,1.74.29,2.32h7.89v-5.46q0-3.06-1.29-4.38a5.27,5.27,0,0,0-3.93-1.32,10.29,10.29,0,0,0-2.61.3,31,31,0,0,0-.48,5.61C524.78,267,524.82,268,524.91,269Z"/><path class="cls-1" d="M564.2,271.31v2.07h-8.4a5.05,5.05,0,0,1-3.33-1.26,3.57,3.57,0,0,1-2.85,1.26H538.76v-2.07h4.86V259.88h2.31v11.43h3a2.07,2.07,0,0,0,2-1.18,6.47,6.47,0,0,0,.62-3v-7.26h2.31v7.23a10.75,10.75,0,0,1-.42,3.18,4.74,4.74,0,0,0,1.14.71,3.29,3.29,0,0,0,1.38.31h3.15V264.8c0-.76-.06-1.71-.17-2.87s-.23-2.3-.37-3.46l1.89-.09c.26,1.14.48,2.35.67,3.63a22,22,0,0,1,.29,3v6.27Z"/><path class="cls-1" d="M570.2,251.84v21.54h-6v-2.07h3.69V251.84Z"/><path class="cls-1" d="M575.6,251.84h2.31v21.54H575.6Z"/><path class="cls-2" d="M590,265.08h7.2v8.3H590Z"/><path class="cls-2" d="M603.26,267.53l7-7.15q2.75-2.85,4.1-4.45a13.35,13.35,0,0,0,2-3,6.78,6.78,0,0,0,.63-2.9,4,4,0,0,0-1.18-3.23,5.47,5.47,0,0,0-3.52-1,49.48,49.48,0,0,0-7.3.6l-1.2.15-.35-5.35a34.45,34.45,0,0,1,10.15-1.5q10.5,0,10.5,9.45a12.13,12.13,0,0,1-2.93,8.32,42.62,42.62,0,0,1-4.47,4.63l-5.75,5.2h13.7v6h-21.4Z"/><path class="cls-1" d="M466.16,331.31v2.07h-10a9.69,9.69,0,0,1-4.2-.75,4.43,4.43,0,0,1-2.2-2.38,12,12,0,0,1-.68-4.46,12.73,12.73,0,0,1,.65-4.47,4.48,4.48,0,0,1,2.13-2.46,8.64,8.64,0,0,1,4-.78c.74,0,1.88,0,3.41.1s2.68.15,3.46.23v12.9ZM451.9,329a3.33,3.33,0,0,0,1.6,1.76,7,7,0,0,0,3.06.55h3.87V320.36q-2.64-.18-4.08-.18-2.73,0-3.84,1.29a6.51,6.51,0,0,0-1.11,4.26A8.77,8.77,0,0,0,451.9,329Zm1.84-15.93H456v2.52h-2.28Zm3.75,0h2.28v2.52h-2.28Z"/><path class="cls-1" d="M477.41,331.31v2.07H466.16v-2.07h4.47V318.38h2.31v12.93Zm-8.67,4.47H471v2.52h-2.28Zm3.75,0h2.28v2.52h-2.28Z"/><path class="cls-1" d="M493,318.71v14.67H477.41v-2.07h4.26a11.8,11.8,0,0,1-.81-5.07,14.1,14.1,0,0,1,.64-4.77,4.1,4.1,0,0,1,2.17-2.37,10.63,10.63,0,0,1,4.3-.69,37.13,37.13,0,0,1,4.14.21Zm-8.7,12.6h6.39V320.54q-2-.15-2.88-.15a5.87,5.87,0,0,0-2.88.57,2.94,2.94,0,0,0-1.36,1.8,11.85,11.85,0,0,0-.38,3.42Q483.14,330,484.25,331.31Zm.24-18.24h2.28v2.52h-2.28Zm3.75,0h2.28v2.52h-2.28Z"/><path class="cls-1" d="M497.45,311.84h2.31v21.54h-2.31Z"/><path class="cls-1" d="M518.54,331.31v2.07H503.66v-2.07h9.75v-3.48c0-3-.58-5-1.73-6.23a5.46,5.46,0,0,0-4-1.78h-2.43l-.15-1.71a6,6,0,0,1,1.22-.24,13.32,13.32,0,0,1,1.75-.12,7.22,7.22,0,0,1,5.47,2.35c1.48,1.57,2.21,4.13,2.21,7.67v3.54Z"/><path class="cls-1" d="M543.38,331.31v2.07H518.54v-2.07h4.38V318.38h2.31v4.8a29,29,0,0,1,2.44-2.73,9,9,0,0,1,2.57-1.71,8.2,8.2,0,0,1,3.39-.66q3.78,0,5.35,2.33a9.46,9.46,0,0,1,1.58,5.44v5.46Zm-13.44-10.14a11.91,11.91,0,0,0-2.58,2.17c-.66.78-1.37,1.69-2.13,2.75v5.22h13v-5.13a7.15,7.15,0,0,0-1.25-4.3,4.15,4.15,0,0,0-3.61-1.73A6.27,6.27,0,0,0,529.94,321.17Z"/><path class="cls-1" d="M564.2,331.31v2.07h-1a2.81,2.81,0,0,1-1.22-.32,4.36,4.36,0,0,1-1.18-.85v1.17H543.38v-2.07h5a33,33,0,0,1-.18-9.22,28.69,28.69,0,0,1,.54-3.2,11,11,0,0,1,2.1-.55,16,16,0,0,1,2.91-.26q3.66,0,5.4,1.8t1.74,6v4.29a3,3,0,0,0,2.4,1.14ZM550.35,329c.09,1,.19,1.74.29,2.32h7.89v-5.46q0-3.06-1.29-4.38a5.27,5.27,0,0,0-3.93-1.32,10.29,10.29,0,0,0-2.61.3,31,31,0,0,0-.48,5.61C550.22,327,550.26,328,550.35,329Z"/><path class="cls-1" d="M570.2,311.84v21.54h-6v-2.07h3.69V311.84Z"/><path class="cls-1" d="M575.6,311.84h2.31v21.54H575.6Z"/><path class="cls-2" d="M590,325.08h7.2v8.3H590Z"/><path class="cls-2" d="M604.46,332.68l-1.6-.4.35-5.25a55,55,0,0,0,8.9,1,7.18,7.18,0,0,0,4.27-1,3.6,3.6,0,0,0,1.38-3.08,4,4,0,0,0-1.3-3.22,5.18,5.18,0,0,0-3.5-1.13h-6.65v-5.7H613a3.86,3.86,0,0,0,2.92-1.4,4.68,4.68,0,0,0,1.28-3.25,2.82,2.82,0,0,0-1.33-2.58,8.12,8.12,0,0,0-4.17-.82,46.78,46.78,0,0,0-6.8.7l-1.3.2-.45-5.1a27.45,27.45,0,0,1,10.1-1.8q5.74,0,8.4,2.13c1.76,1.41,2.65,3.65,2.65,6.72a9.56,9.56,0,0,1-.93,4.47,8.91,8.91,0,0,1-2.92,3.18,13.29,13.29,0,0,1,2.67,1.8,4.87,4.87,0,0,1,1.35,2.13,10.66,10.66,0,0,1,.43,3.37q0,5.3-2.73,7.85c-1.81,1.7-4.71,2.55-8.67,2.55A36.84,36.84,0,0,1,604.46,332.68Z"/><path class="cls-1" d="M432.26,391.31v2.07h-10a9.69,9.69,0,0,1-4.2-.75,4.43,4.43,0,0,1-2.2-2.38,12,12,0,0,1-.68-4.46,12.73,12.73,0,0,1,.65-4.47,4.48,4.48,0,0,1,2.13-2.46,8.64,8.64,0,0,1,4-.78c.74,0,1.88,0,3.41.1s2.68.15,3.46.23v12.9ZM418,389a3.33,3.33,0,0,0,1.6,1.76,7,7,0,0,0,3.06.55h3.87V380.36q-2.64-.18-4.08-.18-2.73,0-3.84,1.29a6.51,6.51,0,0,0-1.11,4.26A8.77,8.77,0,0,0,418,389Zm1.84-15.93h2.28v2.52h-2.28Zm3.75,0h2.28v2.52h-2.28Z"/><path class="cls-1" d="M443.51,391.31v2.07H432.26v-2.07h4.47V378.38H439v12.93Zm-8.67,4.47h2.28v2.52h-2.28Zm3.75,0h2.28v2.52h-2.28Z"/><path class="cls-1" d="M449.51,371.84v21.54h-6v-2.07h3.69V371.84Z"/><path class="cls-1" d="M462.73,378c1.13.12,2.06.25,2.8.39v13.14c0,3.18-.39,5.53-1.18,7a4.24,4.24,0,0,1-4.1,2.27,36.52,36.52,0,0,1-4.53-.45v-2a31.3,31.3,0,0,0,4.38.42,3.37,3.37,0,0,0,1.7-.37,2.69,2.69,0,0,0,1-1.55,11.56,11.56,0,0,0,.39-3.45h-4.41q-3.27,0-4.33-2.07a11.73,11.73,0,0,1-1.07-5.37,15.86,15.86,0,0,1,.54-4.55,4.74,4.74,0,0,1,1.95-2.67,7.28,7.28,0,0,1,3.93-.91A28.14,28.14,0,0,1,462.73,378ZM456.5,389.8c.52,1,1.58,1.51,3.18,1.51h3.54V380.09a22.32,22.32,0,0,0-2.82-.21,5.14,5.14,0,0,0-2.85.67,3.59,3.59,0,0,0-1.42,2,11.46,11.46,0,0,0-.41,3.34A8.57,8.57,0,0,0,456.5,389.8Z"/><path class="cls-1" d="M483.41,391.31v2.07H468.53v-2.07h9.75v-3.48c0-3-.57-5-1.72-6.23a5.48,5.48,0,0,0-4-1.78h-2.43l-.15-1.71a6.15,6.15,0,0,1,1.22-.24,13.43,13.43,0,0,1,1.75-.12,7.24,7.24,0,0,1,5.48,2.35q2.21,2.36,2.2,7.67v3.54Z"/><path class="cls-1" d="M489.41,371.84v21.54h-6v-2.07h3.69V371.84Z"/><path class="cls-1" d="M494.81,371.84h2.31v21.54h-2.31Z"/><path class="cls-1" d="M517.8,378.18c1.53.08,2.69.15,3.47.23v15H514.7a9.69,9.69,0,0,1-4.2-.75,4.48,4.48,0,0,1-2.21-2.38,12,12,0,0,1-.67-4.46,12.75,12.75,0,0,1,.64-4.47,4.51,4.51,0,0,1,2.13-2.46,8.69,8.69,0,0,1,4-.78C515.14,378.08,516.28,378.12,517.8,378.18ZM510.42,389a3.35,3.35,0,0,0,1.61,1.76,7,7,0,0,0,3.06.55H519V380.36q-2.64-.18-4.08-.18-2.73,0-3.84,1.29a6.51,6.51,0,0,0-1.11,4.26A8.79,8.79,0,0,0,510.42,389Zm1.34-15.93H514v2.52h-2.28Zm3.75,0h2.28v2.52h-2.28Z"/><path class="cls-1" d="M535.19,393.38h-3.75v.33q0,7.14-5,7.14c-.32,0-.62,0-.89,0l-.7-.06-.63-.06v-2q1.5.12,1.89.12a2.45,2.45,0,0,0,2.23-1.19,6.27,6.27,0,0,0,.74-3.31V378.41h2.31v12.9h3.75Z"/><path class="cls-1" d="M546.44,391.31v2.07H535.19v-2.07h4.47V378.38H542v12.93Zm-6.78,4.47h2.28v2.52h-2.28Z"/><path class="cls-1" d="M564.2,391.31v2.07H546.44v-2.07h12v-8.13a3,3,0,0,0-.78-2.26,3.22,3.22,0,0,0-2.34-.77q-1.35,0-5.34.48l-.84.09-.09-1.71a37.21,37.21,0,0,1,6.78-.93q4.92,0,4.92,5.13v8.1Zm-10-18.24h2.28v2.52h-2.28Z"/><path class="cls-1" d="M570.2,371.84v21.54h-6v-2.07h3.69V371.84Z"/><path class="cls-1" d="M575.6,371.84h2.31v21.54H575.6Z"/><path class="cls-2" d="M590,385.08h7.2v8.3H590Z"/><path class="cls-2" d="M616,387.93H602v-5.25l8.15-22.3h7.6l-8.85,21.55H616v-9.25h6.9v9.25h3.15v6h-3.15v5.45H616Z"/><path class="cls-1" d="M3.9,460a7,7,0,0,1-2.85-2.25,5.46,5.46,0,0,1-1-3.3,33.5,33.5,0,0,1,.36-3.84q.36-2.7.84-5.43l2.22.12c-.3,2-.56,3.81-.78,5.53a34.74,34.74,0,0,0-.33,3.47A3.85,3.85,0,0,0,3,456.62a4.87,4.87,0,0,0,2,1.58,7,7,0,0,0,2.79.55,6.1,6.1,0,0,0,3.76-1.16,3.84,3.84,0,0,0,1.55-3.28V431.84h2.31v22.74a5.68,5.68,0,0,1-1,3.42,6.5,6.5,0,0,1-2.76,2.12,9.92,9.92,0,0,1-3.77.7A9.61,9.61,0,0,1,3.9,460Z"/><path class="cls-1" d="M26,451.31v2.07H20.85V431.84h2.31v19.47Z"/><path class="cls-1" d="M46.8,451.31v2.07h-1a2.81,2.81,0,0,1-1.22-.32,4.36,4.36,0,0,1-1.18-.85v1.17H26v-2.07h4.95a33,33,0,0,1-.18-9.22,28.69,28.69,0,0,1,.54-3.2,11,11,0,0,1,2.1-.55,16,16,0,0,1,2.91-.26q3.66,0,5.4,1.8t1.74,6v4.29a3,3,0,0,0,2.4,1.14ZM33,449c.09,1,.19,1.74.29,2.32h7.89v-5.46q0-3.06-1.29-4.38a5.27,5.27,0,0,0-3.93-1.32,10.29,10.29,0,0,0-2.61.3,31,31,0,0,0-.48,5.61C32.82,447,32.86,448,33,449Z"/><path class="cls-1" d="M62.61,451.31v2.07H46.8v-2.07h5.61A7.83,7.83,0,0,1,51,448.73a10.79,10.79,0,0,1-.57-3.6,7.67,7.67,0,0,1,1.63-5.1,5.79,5.79,0,0,1,4.7-1.95,11.41,11.41,0,0,1,5,1.2l-.09,2a7,7,0,0,0-1.92-.75,9.8,9.8,0,0,0-2.67-.42,3.84,3.84,0,0,0-3.18,1.38,5.82,5.82,0,0,0-1.11,3.75,8.48,8.48,0,0,0,.7,3.52,7.26,7.26,0,0,0,1.76,2.51Z"/><path class="cls-1" d="M78.9,431.84v21.54H64.71v-2.07h3.84V435.89h2.31v15.42h5.76V431.84Zm-6.54,1.47-6.12,1.2-.27-1,1.44-.39a2.64,2.64,0,0,1-1-2.13,2.61,2.61,0,0,1,.78-1.9,2.66,2.66,0,0,1,2-.8,3.44,3.44,0,0,1,1.29.24,3.64,3.64,0,0,1,.9.48l-.3,1.14a2.37,2.37,0,0,0-1.38-.45,1.71,1.71,0,0,0-1.28.51,1.66,1.66,0,0,0-.49,1.2,1.63,1.63,0,0,0,.69,1.38l3.42-.9Z"/><path class="cls-1" d="M84,431.84h2.31v21.54H84Z"/><path class="cls-1" d="M107,438.18c1.53.08,2.69.15,3.47.23v15h-6.57a9.69,9.69,0,0,1-4.2-.75,4.45,4.45,0,0,1-2.21-2.38,12,12,0,0,1-.67-4.46,12.75,12.75,0,0,1,.64-4.47,4.48,4.48,0,0,1,2.13-2.46,8.69,8.69,0,0,1,4-.78C104.33,438.08,105.46,438.12,107,438.18ZM99.61,449a3.35,3.35,0,0,0,1.61,1.76,7,7,0,0,0,3.06.55h3.87V440.36q-2.64-.18-4.08-.18-2.73,0-3.84,1.29a6.51,6.51,0,0,0-1.11,4.26A8.79,8.79,0,0,0,99.61,449ZM101,433.07h2.28v2.52H101Zm3.75,0H107v2.52H104.7Z"/><path class="cls-1" d="M123.31,440.1q2.2,2.36,2.21,7.67v5.61H113.46v-2.07h9.75v-3.48c0-3-.58-5-1.73-6.23a5.46,5.46,0,0,0-4-1.78H115l-.15-1.71a6,6,0,0,1,1.21-.24,13.58,13.58,0,0,1,1.76-.12A7.22,7.22,0,0,1,123.31,440.1Z"/><path class="cls-1" d="M134.85,451.31v2.07h-5.13V431.84H132v19.47Z"/><path class="cls-1" d="M141.63,438.38v15h-6.78v-2.07h4.47V438.38Zm-4.2,17.4h2.28v2.52h-2.28Zm3.75,0h2.28v2.52h-2.28Z"/><path class="cls-1" d="M146.56,460.82l-.7-.06-.63-.06v-2q1.5.12,1.89.12a2.45,2.45,0,0,0,2.23-1.19,6.27,6.27,0,0,0,.74-3.31V438.41h2.31v15.3q0,7.14-5,7.14C147.13,460.85,146.83,460.84,146.56,460.82Z"/><path class="cls-1" d="M188.54,453.38h-3.8v.39A7.43,7.43,0,0,1,183,458.9a6.26,6.26,0,0,1-4.92,1.92h-7.9a9.61,9.61,0,0,1-4-.81,7,7,0,0,1-2.84-2.26,5.49,5.49,0,0,1-1-3.32,47.8,47.8,0,0,1,.78-6.63l2.18.36a50.78,50.78,0,0,0-.66,5.76,4.46,4.46,0,0,0,.74,2.52,4.85,4.85,0,0,0,2,1.71,6.16,6.16,0,0,0,2.72.6l7.92,0a4.05,4.05,0,0,0,3.28-1.36,5.19,5.19,0,0,0,1.15-3.47,2.82,2.82,0,0,0,0-.57h-.72a6.72,6.72,0,0,1-3.68-.87l1-1.71a2.58,2.58,0,0,0,1.15.44,16.14,16.14,0,0,0,1.78.07h6.66Z"/><path class="cls-1" d="M198.35,451.31v2.07h-9.81v-2.07h3.7V431.84h2.3v19.47Z"/><path class="cls-1" d="M214.16,451.31v2.07H198.35v-2.07H204a7.83,7.83,0,0,1-1.41-2.58,10.79,10.79,0,0,1-.57-3.6,7.67,7.67,0,0,1,1.64-5.1,5.77,5.77,0,0,1,4.69-1.95,11,11,0,0,1,2.51.31,10.68,10.68,0,0,1,2.44.89l-.09,2a7,7,0,0,0-1.92-.75,9.8,9.8,0,0,0-2.67-.42,3.84,3.84,0,0,0-3.18,1.38,5.82,5.82,0,0,0-1.11,3.75,8.48,8.48,0,0,0,.71,3.52,7.24,7.24,0,0,0,1.75,2.51Z"/><path class="cls-1" d="M241.34,451.31v2.07h-1a2.72,2.72,0,0,1-1.2-.33,5.11,5.11,0,0,1-1.23-.87v1.2h-9.66q-3.33,0-3.33,4.11a29.39,29.39,0,0,0,.81,5.64l-2,.06a34,34,0,0,1-.93-6.54,6.45,6.45,0,0,1,.74-3.38,3.9,3.9,0,0,1,1.87-1.63,29.91,29.91,0,0,1-.48-5.58,32.68,32.68,0,0,1,.24-4,28.69,28.69,0,0,1,.54-3.2,11,11,0,0,1,2.1-.55,16,16,0,0,1,2.91-.26q3.66,0,5.4,1.8t1.74,6v4.26a3.07,3.07,0,0,0,2.43,1.17Zm-5.7,0v-5.46q0-3.06-1.29-4.38a5.27,5.27,0,0,0-3.93-1.32,10.29,10.29,0,0,0-2.61.3,31,31,0,0,0-.48,5.61c0,1,0,1.95.14,2.93s.18,1.74.28,2.32Z"/><path class="cls-1" d="M248.12,438.38v15h-6.78v-2.07h4.47V438.38Zm1.92-4.14-6.12,1.2-.27-1,1.44-.39a2.73,2.73,0,0,1-.24-4,2.73,2.73,0,0,1,2-.79,3.44,3.44,0,0,1,1.29.24,3.64,3.64,0,0,1,.9.48l-.3,1.14a2.07,2.07,0,0,0-.55-.3,2.23,2.23,0,0,0-.83-.15,1.73,1.73,0,0,0-1.77,1.71,1.63,1.63,0,0,0,.69,1.38l3.42-.9Z"/><path class="cls-1" d="M258.35,451.31v2.07h-5.13V431.84h2.31v19.47Z"/><path class="cls-1" d="M273.89,438.71v14.67H258.35v-2.07h4.26a11.8,11.8,0,0,1-.81-5.07,13.82,13.82,0,0,1,.65-4.77,4.09,4.09,0,0,1,2.16-2.37,10.66,10.66,0,0,1,4.3-.69,37.13,37.13,0,0,1,4.14.21Zm-8.7,12.6h6.39V440.54q-2-.15-2.88-.15a5.87,5.87,0,0,0-2.88.57,3,3,0,0,0-1.36,1.8,12.21,12.21,0,0,0-.38,3.42Q264.08,450,265.19,451.31Zm.24-18.24h2.28v2.52h-2.28Zm3.75,0h2.28v2.52h-2.28Z"/><path class="cls-1" d="M300.5,451.31v2.07h-5.73a9.35,9.35,0,0,0-2.14-.84,10,10,0,0,0-2.66-.36,4.39,4.39,0,0,0-3.06,1,4,4,0,0,0-1.05,3.09,4.5,4.5,0,0,0,1.23,3.4,5.27,5.27,0,0,0,3.78,1.19,30.27,30.27,0,0,0,5.55-.66l.27,1.83a29.72,29.72,0,0,1-6.3.87,7,7,0,0,1-5.14-1.74,6.75,6.75,0,0,1-1.76-5q0-6,6.15-6a11.41,11.41,0,0,1,3,.38,8.69,8.69,0,0,1,2.13.82v-8.13a3,3,0,0,0-.78-2.26,3.22,3.22,0,0,0-2.34-.77q-1.35,0-5.34.48l-.84.09-.09-1.71a37.21,37.21,0,0,1,6.78-.93q4.92,0,4.92,5.13v8.1Zm-9.72,4.62h2.28v2.52h-2.28Z"/><path class="cls-1" d="M324.47,451.31v2.07h-24v-2.07H304v-2.4a5.23,5.23,0,0,1,.74-2.71,5.63,5.63,0,0,1,2-2,5.22,5.22,0,0,1,2.71-.73,5.37,5.37,0,0,1,2.69.7,5.44,5.44,0,0,1,2,1.95,5.37,5.37,0,0,1,.73,2.78v2.4h4.41v-4.14c0-3-.74-5-2.23-6.22a8.79,8.79,0,0,0-5.66-1.79,21.48,21.48,0,0,0-2.8.19c-1,.14-2.18.32-3.56.56l-.15-1.77a27,27,0,0,1,6.93-1.05,10.51,10.51,0,0,1,7,2.34q2.77,2.34,2.77,7.68v4.2Zm-17.31-4.86a3,3,0,0,0-.9,2.19v2.67h6.21v-2.67a3.12,3.12,0,0,0-5.31-2.19Z"/><path class="cls-1" d="M335.72,451.31v2.07H324.47v-2.07h4.47V438.38h2.31v12.93Zm-6.78-18.24h2.28v2.52h-2.28Z"/><path class="cls-1" d="M356.54,451.31v2.07h-1a2.77,2.77,0,0,1-1.21-.32,4.41,4.41,0,0,1-1.19-.85v1.17H335.72v-2.07h4.95a33,33,0,0,1-.18-9.22,28.69,28.69,0,0,1,.54-3.2,11,11,0,0,1,2.1-.55,16,16,0,0,1,2.91-.26q3.66,0,5.4,1.8t1.74,6v4.29a3,3,0,0,0,2.4,1.14ZM342.7,449c.09,1,.18,1.74.28,2.32h7.89v-5.46q0-3.06-1.29-4.38a5.27,5.27,0,0,0-3.93-1.32,10.29,10.29,0,0,0-2.61.3,31,31,0,0,0-.48,5.61C342.56,447,342.61,448,342.7,449Z"/><path class="cls-1" d="M363.32,438.38v15h-6.78v-2.07H361V438.38ZM361,455.78h2.28v2.52H361Z"/><path class="cls-1" d="M392,451.31v2.07h-1a2.72,2.72,0,0,1-1.2-.33,5.11,5.11,0,0,1-1.23-.87v1.2H379q-3.33,0-3.33,4.11a29.39,29.39,0,0,0,.81,5.64l-1.95.06a34,34,0,0,1-.93-6.54,6.45,6.45,0,0,1,.74-3.38,3.9,3.9,0,0,1,1.87-1.63,29.91,29.91,0,0,1-.48-5.58,32.68,32.68,0,0,1,.24-4,28.69,28.69,0,0,1,.54-3.2,11,11,0,0,1,2.1-.55,16,16,0,0,1,2.91-.26q3.66,0,5.4,1.8t1.74,6v4.26a3.07,3.07,0,0,0,2.43,1.17Zm-5.7,0v-5.46q0-3.06-1.29-4.38a5.27,5.27,0,0,0-3.93-1.32,10.29,10.29,0,0,0-2.61.3,31,31,0,0,0-.48,5.61c0,1,.05,1.95.14,2.93s.18,1.74.28,2.32Z"/><path class="cls-1" d="M416,451.31v2.07H392v-2.07h3.45v-2.4a5.23,5.23,0,0,1,.74-2.71,5.63,5.63,0,0,1,2-2,5.22,5.22,0,0,1,2.71-.73,5.37,5.37,0,0,1,2.69.7,5.44,5.44,0,0,1,2,1.95,5.37,5.37,0,0,1,.73,2.78v2.4h4.41v-4.14c0-3-.74-5-2.23-6.22a8.79,8.79,0,0,0-5.66-1.79,21.48,21.48,0,0,0-2.8.19c-1,.14-2.18.32-3.56.56l-.15-1.77a27,27,0,0,1,6.93-1.05,10.51,10.51,0,0,1,7,2.34q2.77,2.34,2.77,7.68v4.2Zm-17.31-4.86a3,3,0,0,0-.9,2.19v2.67H404v-2.67a3.12,3.12,0,0,0-5.31-2.19Z"/><path class="cls-1" d="M427.22,451.31v2.07H416v-2.07h4.47V438.38h2.31v12.93Zm-8.64-18.24h2.28v2.52h-2.28Zm3.75,0h2.28v2.52h-2.28Z"/><path class="cls-1" d="M450.62,451.31v2.07h-23.4v-2.07H430V431.84h2.31V445a22,22,0,0,1,3.93-5,7.1,7.1,0,0,1,8.06-1.11,6,6,0,0,1,2.49,2.53,9.12,9.12,0,0,1,1,4.46v5.46Zm-14-9.35a14.65,14.65,0,0,0-3.09,4.26,9.83,9.83,0,0,0-1.19,4v1.11h13.14v-5.49a6.5,6.5,0,0,0-.73-3.26,4.54,4.54,0,0,0-1.85-1.84,4.88,4.88,0,0,0-2.25-.57A5.83,5.83,0,0,0,436.63,442Z"/><path class="cls-1" d="M476.06,451.31v2.07h-8.4a5.05,5.05,0,0,1-3.33-1.26,3.57,3.57,0,0,1-2.85,1.26H450.62v-2.07h4.86V439.88h2.31v11.43h3a2.09,2.09,0,0,0,2-1.18,6.47,6.47,0,0,0,.61-3v-7.26h2.31v7.23a10.75,10.75,0,0,1-.42,3.18,4.74,4.74,0,0,0,1.14.71,3.29,3.29,0,0,0,1.38.31h3.15V444.8c0-.76-.05-1.71-.16-2.87s-.24-2.3-.38-3.46l1.89-.09c.26,1.14.49,2.35.68,3.63a21.74,21.74,0,0,1,.28,3v6.27Zm-15.18-18.24h2.28v2.52h-2.28Zm1.89-3.66H465v2.43h-2.25Zm1.86,3.66h2.28v2.52h-2.28Z"/><path class="cls-1" d="M482.84,438.38v15h-6.78v-2.07h4.47V438.38Zm-2.31-5.31h2.28v2.52h-2.28Z"/><path class="cls-1" d="M492.17,432.11l-6.12,1.2-.27-1,1.44-.39a2.73,2.73,0,0,1-.24-4,2.73,2.73,0,0,1,2-.79,3.44,3.44,0,0,1,1.29.24,3.64,3.64,0,0,1,.9.48l-.3,1.14a2.07,2.07,0,0,0-.55-.3,2.23,2.23,0,0,0-.83-.15,1.73,1.73,0,0,0-1.77,1.71,1.63,1.63,0,0,0,.69,1.38l3.42-.9Zm.9,19.2v2.07h-5.13v-19h2.31v16.89Z"/><path class="cls-1" d="M499.85,438.38v15h-6.78v-2.07h4.47V438.38Zm-2.31,17.4h2.28v2.52h-2.28Z"/><path class="cls-1" d="M523.4,439.88q1.74,1.8,1.74,6v7.5h-9.66q-3.33,0-3.33,4.11a29.39,29.39,0,0,0,.81,5.64l-2,.06a34,34,0,0,1-.93-6.54,6.45,6.45,0,0,1,.73-3.38,3.92,3.92,0,0,1,1.88-1.63,29.91,29.91,0,0,1-.48-5.58,32.68,32.68,0,0,1,.24-4,28.69,28.69,0,0,1,.54-3.2,11,11,0,0,1,2.1-.55,16,16,0,0,1,2.91-.26Q521.66,438.08,523.4,439.88Zm-.57,11.43v-5.46q0-3.06-1.29-4.38a5.27,5.27,0,0,0-3.93-1.32,10.29,10.29,0,0,0-2.61.3,31,31,0,0,0-.48,5.61c0,1,0,1.95.13,2.93s.19,1.74.29,2.32Z"/><path class="cls-1" d="M534.77,451.31v2.07h-5.13V431.84H532v19.47Z"/><path class="cls-1" d="M546,451.31v2.07H534.77v-2.07h4.47V438.38h2.31v12.93Zm-8.67,4.47h2.28v2.52h-2.28Zm3.75,0h2.28v2.52H541.1Z"/><path class="cls-1" d="M564.2,451.31v2.07H546v-2.07h4.26a11.8,11.8,0,0,1-.81-5.07,13.85,13.85,0,0,1,.64-4.77,4.09,4.09,0,0,1,2.16-2.37,10.72,10.72,0,0,1,4.31-.69,37.13,37.13,0,0,1,4.14.21l.84.09v12.6Zm-11.34,0h6.39V440.54q-2-.15-2.88-.15a5.87,5.87,0,0,0-2.88.57,3,3,0,0,0-1.37,1.8,12.27,12.27,0,0,0-.37,3.42Q551.75,450,552.86,451.31Zm-.39-18.24h2.28v2.52h-2.28Zm3.75,0h2.28v2.52h-2.28Z"/><path class="cls-1" d="M570.2,431.84v21.54h-6v-2.07h3.69V431.84Z"/><path class="cls-1" d="M575.6,431.84h2.31v21.54H575.6Z"/><path class="cls-2" d="M590,445.08h7.2v8.3H590Z"/><path class="cls-2" d="M609.13,453.55a35.59,35.59,0,0,1-4.82-1l-1.8-.45.75-5.1a65.39,65.39,0,0,0,10.1,1,4.55,4.55,0,0,0,5-5.05q0-4.6-4.2-4.6a23.4,23.4,0,0,0-5.9.65l-.75.2-4.1-.95.9-17.85h20.15v6H609.76l-.85,7.15a16.31,16.31,0,0,1,5.9-1.2q10.7,0,10.7,9.95c0,3.73-1,6.62-3,8.65s-4.75,3.05-8.35,3.05A35.06,35.06,0,0,1,609.13,453.55Z"/><rect class="cls-3" x="21.11" width="606.89" height="61.17" rx="30.58"/><path class="cls-1" d="M304.53,25.35h6.34v7.31h-6.34Zm0,12.72h6.34v7.3h-6.34Z"/><path class="cls-1" d="M324.77,56.11V50.83l1.5.09a2.61,2.61,0,0,0,2.37-1.26,6.58,6.58,0,0,0,.8-3.54V23.37h5.89V45.11q0,5.28-1.82,8.23A6.08,6.08,0,0,1,328,56.29Q327.41,56.29,324.77,56.11Z"/><path class="cls-1" d="M351.7,40v5.36H341.49V14.57h5.9V40Z"/><path class="cls-1" d="M370.75,40v5.36H351.7V40h6.56V23.37h5.89V40Zm-15.22,8.88h4.53v5.5h-4.53Zm6.69,0h4.53v5.5h-4.53Z"/><path class="cls-1" d="M389.8,40v5.36H370.75V40h6.56V23.37h5.89V40ZM374.58,13.78h4.53v5.5h-4.53Zm6.69,0h4.53v5.5h-4.53Z"/><path class="cls-1" d="M410.33,24.67c1.25,1.16,1.88,3,1.91,5.52V45.37H389.76V40h16.59V31.73a4.19,4.19,0,0,0-.82-2.83,3.48,3.48,0,0,0-2.79-.95l-7,.26-2.25.09-.17-3.92a42.68,42.68,0,0,1,5.54-1,44.24,44.24,0,0,1,5.5-.42Q408.46,22.93,410.33,24.67Zm-10-11.11h5.41v5.72h-5.41Z"/><path class="cls-1" d="M439.92,14.57v30.8H416.64V40h5.55V20.51h5.89V40H434V14.57Z"/><path class="cls-1" d="M446.47,14.57h5.9v30.8h-5.9Z"/><path class="cls-1" d="M485.59,45.37h-7.26c0,3.46-.65,6.15-1.87,8.05A6.07,6.07,0,0,1,471,56.29q-.57,0-3.21-.18V50.83l1.5.09a2.62,2.62,0,0,0,2.37-1.26,6.59,6.59,0,0,0,.79-3.54V23.37h5.9V40h7.26Z"/><path class="cls-1" d="M504.64,40v5.36H485.59V40h6.56V23.37H498V40Zm-15.22,8.88H494v5.5h-4.53Zm6.68,0h4.54v5.5H496.1Z"/><path class="cls-1" d="M517.09,23.37v22H504.64V40h6.56V23.37ZM508.6,48.89h4.53v5.5H508.6Zm6.69,0h4.53v5.5h-4.53Z"/><path class="cls-1" d="M533.9,40v5.36H523.69V14.57h5.9V40Z"/><path class="cls-1" d="M563.2,40v5.36h-5.76a20.28,20.28,0,0,1-4.47-.5,22.41,22.41,0,0,1-4.24-1.39,22.73,22.73,0,0,1-4.2,1.39,19,19,0,0,1-4.25.5H533.9V40h6.25a14,14,0,0,0,3-.36,35.7,35.7,0,0,1-4.73-5,7.49,7.49,0,0,1-1.61-4.53l-.13-3.87a23.29,23.29,0,0,1,5.41-2.38,22,22,0,0,1,6.6-1.06,22.51,22.51,0,0,1,6.63,1.06,25,25,0,0,1,5.56,2.38l-.17,3.87a7.36,7.36,0,0,1-1.61,4.53,39.39,39.39,0,0,1-4.73,5,14.17,14.17,0,0,0,3,.36Zm-9.65-6.78a6.86,6.86,0,0,0,1.51-3.92,19.81,19.81,0,0,0-6.33-1.1,19,19,0,0,0-6.21,1.1,7.09,7.09,0,0,0,1.59,4.05,14.92,14.92,0,0,0,4.66,4A16.69,16.69,0,0,0,553.55,33.23Z"/><path class="cls-1" d="M586.72,24.3A6.69,6.69,0,0,1,590,28a19.36,19.36,0,0,1,.86,6.33v11H563.2V40h6.87a29.92,29.92,0,0,1-.62-5.59,29.64,29.64,0,0,1,.49-5.2,38.72,38.72,0,0,1,1.1-4.79,14.69,14.69,0,0,1,3.52-1,27.46,27.46,0,0,1,5.19-.44A14.91,14.91,0,0,1,586.72,24.3ZM575.37,37.47a25.67,25.67,0,0,0,.42,2.54H585V34.24a7,7,0,0,0-1.21-4.53q-1.2-1.46-4.64-1.45a16.48,16.48,0,0,0-3.34.35,32.27,32.27,0,0,0-.62,5.81A24.52,24.52,0,0,0,575.37,37.47Z"/></g></g></svg>