<svg xmlns="http://www.w3.org/2000/svg" viewBox="0 0 397 154.21"><defs><style>.cls-1{fill:#98a6d4;}.cls-2{fill:#fff;}</style></defs><g id="Layer_2" data-name="Layer 2"><g id="Calque_1" data-name="Calque 1"><path class="cls-1" d="M378.46,72.51A53.49,53.49,0,0,0,286,35.88l-.1.08h0a53.54,53.54,0,0,0-12.4,21.86c-.08.26-.15.52-.22.78s-.16.59-.23.88-.09.3-.12.45h0a53.58,53.58,0,0,0-1.5,12.56v2.83H378.46ZM277.15,69.68a47.17,47.17,0,0,1,1.39-9c0-.16.08-.31.12-.46.08-.3.16-.59.25-.89,2.4-7.51,8.53-11,13.48-10.48,5.66.62,11.69,6.45,12.39,20.78Zm33.28,0c-.81-18.07-9.37-25.53-17.43-26.41a15.9,15.9,0,0,0-6.41.63,49.22,49.22,0,0,1,3.21-3.85c7.73-6.49,20.28-7.73,30.68-3a31.56,31.56,0,0,1,7.26,4.64c-7.24,5.82-11.24,16.9-12.72,28Zm10.3,0c1.61-11.53,5.57-19.88,11-23.86,4.18,5.15,7.62,12.75,8.13,23.86Zm24.85,0c-.46-10.35-3.43-19.29-8.54-26.21a12.42,12.42,0,0,1,2.45-.27h.17c9.09.12,19.17,10,21.41,26.48Zm21.18,0c-2.48-20.69-15.49-32-27-32.14h-.27a18.37,18.37,0,0,0-6.57,1.21,36.41,36.41,0,0,0-10.06-6.83,37.9,37.9,0,0,0-16.9-3.33,47.84,47.84,0,0,1,66.77,41.09Z"/><path class="cls-1" d="M278.72,99.45a53.91,53.91,0,0,0,4,5.91H322v44.42h5.91V105.36h39.25a55.27,55.27,0,0,0,4-5.91Z"/><path class="cls-1" d="M342.12,123.17a9.67,9.67,0,0,0-9.66,9.66v16.95h5.91V132.83a3.75,3.75,0,1,1,3.75,3.74v5.9a9.67,9.67,0,0,0,9.66-9.64h0A9.68,9.68,0,0,0,342.12,123.17Z"/><path class="cls-1" d="M307.74,123.17a9.66,9.66,0,0,0-9.66,9.65h0a9.66,9.66,0,0,0,9.66,9.65v-5.9a3.75,3.75,0,1,1,3.75-3.74v16.95h5.91V132.83A9.67,9.67,0,0,0,307.74,123.17Z"/><path class="cls-1" d="M332.44,117.65h21.15a54.17,54.17,0,0,0,7.65-5.91h-28.8Z"/><path class="cls-1" d="M296.23,117.65h21.18v-5.91h-28.8A53.9,53.9,0,0,0,296.23,117.65Z"/><path class="cls-1" d="M377,85.08a50.88,50.88,0,0,0,1-5.4h-106A52.85,52.85,0,0,0,273,85.34H376.89C376.92,85.19,377,85.08,377,85.08Z"/><path class="cls-1" d="M276.47,95.12h96.94a53.61,53.61,0,0,0,2.27-5.67H274.19A53.67,53.67,0,0,0,276.47,95.12Z"/><rect class="cls-2" x="385.29" y="69.51" width="11.71" height="5.12" rx="2.56"/><rect class="cls-2" x="252.86" y="69.51" width="11.71" height="5.12" rx="2.56"/><rect class="cls-2" x="322.37" width="5.12" height="11.71" rx="2.56"/><rect class="cls-2" x="369.19" y="113.04" width="5.12" height="11.71" rx="2.56" transform="translate(24.81 297.69) rotate(-45)"/><rect class="cls-2" x="275.55" y="19.39" width="5.12" height="11.71" rx="2.56" transform="translate(63.6 204.05) rotate(-45)"/><rect class="cls-2" x="365.89" y="22.69" width="11.71" height="5.12" rx="2.56" transform="translate(91 270.23) rotate(-44.99)"/><rect class="cls-2" x="272.25" y="116.33" width="11.71" height="5.12" rx="2.56" transform="translate(-2.63 231.44) rotate(-44.99)"/><rect class="cls-2" x="382.99" y="92.85" width="5.12" height="11.71" rx="2.56" transform="translate(140.06 411.96) rotate(-66.28)"/><rect class="cls-2" x="261.75" y="39.58" width="5.12" height="11.71" rx="2.56" transform="translate(116.38 269.13) rotate(-66.28)"/><rect class="cls-2" x="345.71" y="8.89" width="11.71" height="5.12" rx="2.56" transform="translate(199.65 328.71) rotate(-66.28)"/><rect class="cls-2" x="298.34" y="4.51" width="5.12" height="11.71" rx="2.56" transform="translate(16.74 109.89) rotate(-21.28)"/><rect class="cls-2" x="380.77" y="45.48" width="11.71" height="5.12" rx="2.56" transform="translate(8.91 143.54) rotate(-21.27)"/><rect class="cls-2" x="257.37" y="93.54" width="11.71" height="5.12" rx="2.56" transform="translate(-16.93 102.05) rotate(-21.27)"/><path class="cls-2" d="M148.41,44.34a4.42,4.42,0,0,0,1.38.91,4.2,4.2,0,0,0,1.66.33,4.45,4.45,0,0,0,1.67-.34,4.71,4.71,0,0,0,1.37-.92,4,4,0,0,0,.92-1.35,4.2,4.2,0,0,0,.33-1.66,4.06,4.06,0,0,0-.34-1.67,4.38,4.38,0,0,0-.93-1.37,4.12,4.12,0,0,0-1.38-.92,4.2,4.2,0,0,0-1.66-.33,4,4,0,0,0-1.66.34,4.31,4.31,0,0,0-1.38.93,4.66,4.66,0,0,0-.93,1.38,4.38,4.38,0,0,0-.32,1.66,4.18,4.18,0,0,0,1.27,3Z"/><path class="cls-2" d="M167,38.23A4.21,4.21,0,0,0,164,37a4.06,4.06,0,0,0-1.67.34,4.31,4.31,0,0,0-1.38.93,4.51,4.51,0,0,0-.94,1.38,4.2,4.2,0,0,0-.32,1.66,4.18,4.18,0,0,0,1.27,3,4.58,4.58,0,0,0,1.39.91,4.25,4.25,0,0,0,1.67.33,4.14,4.14,0,0,0,3-1.26,4.07,4.07,0,0,0,1.24-3A4.22,4.22,0,0,0,168,39.6,4.71,4.71,0,0,0,167,38.23Z"/><path class="cls-2" d="M154.66,35.26a4.1,4.1,0,0,0,1.35.92,4.25,4.25,0,0,0,1.67.33,4,4,0,0,0,1.66-.34,4.38,4.38,0,0,0,1.37-.93,4.31,4.31,0,0,0,.93-1.38,4,4,0,0,0,.32-1.67,4.2,4.2,0,0,0-.33-1.66,4.58,4.58,0,0,0-.94-1.37,4.28,4.28,0,0,0-1.38-.92,4.2,4.2,0,0,0-1.66-.33,4.18,4.18,0,0,0-3,1.27,4.22,4.22,0,0,0-.9,1.38,3.88,3.88,0,0,0-.33,1.66,4.25,4.25,0,0,0,.33,1.67A4.71,4.71,0,0,0,154.66,35.26Z"/><polygon class="cls-2" points="177.54 36.94 177.73 70.27 186.15 70.25 185.97 36.91 177.54 36.94"/><path class="cls-2" d="M188.42,28.26h-6.29a1,1,0,0,1-.69-.3,2.59,2.59,0,0,1-.56-.81,5.76,5.76,0,0,1-.36-1.13,5.88,5.88,0,0,1-.13-1.27,2.89,2.89,0,0,1,.68-1.88,2.79,2.79,0,0,1,2.19-.91h3.5V17.75h-3.59a8.55,8.55,0,0,0-3.24.65,5.91,5.91,0,0,0-3.33,3.79,8.76,8.76,0,0,0-.37,2.56,9.25,9.25,0,0,0,.72,3.53h-2.17v4.21l13.66,0Z"/><path class="cls-1" d="M0,124.89,9.35,84.76a8.8,8.8,0,0,1,3.09-5.11,8.56,8.56,0,0,1,5.47-1.79,8.93,8.93,0,0,1,5.6,1.79,8.42,8.42,0,0,1,3.09,5.11l9.22,40.13H27.73L25.47,114.6H10.41L8.16,124.89Zm24-17.38L19.37,86.68c-.22-1-.71-1.46-1.46-1.46s-1.17.49-1.39,1.46l-4.58,20.83Z"/><path class="cls-1" d="M35.29,86V78.59H63.35V86h-10v38.87h-8V86Z"/><path class="cls-1" d="M68.85,78.59h8v22.62h17V78.59h7.9v46.3h-7.9V108.5h-17v16.39h-8Z"/><path class="cls-1" d="M112.14,78.59h8l-3.85,16h-5.84Z"/><path class="cls-1" d="M118.87,124.89l9.35-40.13a8.84,8.84,0,0,1,3.08-5.11,8.59,8.59,0,0,1,5.48-1.79,9,9,0,0,1,5.6,1.79,8.42,8.42,0,0,1,3.09,5.11l9.22,40.13h-8.1l-2.25-10.29H129.28L127,124.89Zm24-17.38-4.64-20.83c-.23-1-.71-1.46-1.46-1.46s-1.18.49-1.4,1.46l-4.57,20.83Z"/><path class="cls-1" d="M161.32,78.59h14.92q7.23,0,11.31,4.37t4.08,11.94q0,6-2.62,9.66a12.45,12.45,0,0,1-7.46,4.87,10.15,10.15,0,0,0,3.08,6.5,9.64,9.64,0,0,0,6.74,2.32v7.23q-14.6,0-16.92-14.52h-5.17v13.93h-8Zm8,7.43v17.71h5.37q4.57,0,6.8-2.16t2.22-6.67q0-4.58-2.22-6.73T174.65,86Z"/><path class="cls-1" d="M193.49,86V78.59h28.06V86h-10v38.87h-8V86Z"/><path class="cls-2" d="M161.87,48.71l-8.42,0,.09,7.81a5.33,5.33,0,0,1-.42,2.13A5.57,5.57,0,0,1,152,60.38a5.45,5.45,0,0,1-1.71,1.16,5.37,5.37,0,0,1-2.08.43l-94.37.33-.1-13.22-8.43,0,0,27.94h8V70.68l94.86-.33a13.37,13.37,0,0,0,5.34-1.11,13.85,13.85,0,0,0,7.33-7.34A13.3,13.3,0,0,0,162,56.51Z"/><path class="cls-2" d="M45.41,133a11.15,11.15,0,0,1-1.22,4.84A18.69,18.69,0,0,1,42.86,140a15.52,15.52,0,0,1-2,2.25,20.15,20.15,0,0,1-2.9,2.2,27.56,27.56,0,0,1-3.89,2l3.26,7.75a32.82,32.82,0,0,0,7.26-4.08,30.54,30.54,0,0,0,4.73-4.58c3-3.61,4-7.54,4-14.6v-4.53h-8Z"/><path class="cls-2" d="M68.17,139.33H67.8a2.08,2.08,0,0,1-1.94-1,2.25,2.25,0,0,1-1.67.7,2.08,2.08,0,0,1-1.69-.78,2.93,2.93,0,0,1-.59-1.9,2.67,2.67,0,0,1,.86-2.14,2.73,2.73,0,0,1,1.9-.66h.81V133h1v3.67a1.89,1.89,0,0,0,.41,1.3,1.3,1.3,0,0,0,1,.36h.26ZM64,131.56a.65.65,0,0,1-.2.47.66.66,0,0,1-.48.21.69.69,0,0,1-.48-.2.67.67,0,0,1-.2-.48.65.65,0,0,1,.2-.46.62.62,0,0,1,.48-.2.61.61,0,0,1,.47.2A.6.6,0,0,1,64,131.56Zm1.44,3h-.77a1.68,1.68,0,0,0-1.35.52A1.78,1.78,0,0,0,63,136.3a2,2,0,0,0,.38,1.29,1.07,1.07,0,0,0,.88.4,2,2,0,0,0,1.3-.58,3.58,3.58,0,0,1-.05-.61Zm.13-3a.6.6,0,0,1-.2.48.61.61,0,0,1-.47.2.68.68,0,0,1-.68-.67.63.63,0,0,1,.2-.47.68.68,0,0,1,1,0A.61.61,0,0,1,65.61,131.55Z"/><path class="cls-2" d="M68.5,141.67a.65.65,0,0,1-.47-.2.64.64,0,0,1-.21-.47.65.65,0,0,1,.2-.47.66.66,0,0,1,.48-.21.65.65,0,0,1,.46.2.66.66,0,0,1,.21.48.7.7,0,0,1-.67.67Zm-.59-2.34v-1.05h.26a1.22,1.22,0,0,0,1-.49,2,2,0,0,0,.31-1.17v-2.78H70.6v2.95a2.5,2.5,0,0,1-.75,2,2.29,2.29,0,0,1-1.59.54Zm2.17,2.33a.68.68,0,0,1-.68-.66.69.69,0,0,1,.2-.48.67.67,0,0,1,.48-.2.65.65,0,0,1,.47.2.62.62,0,0,1,.21.47.67.67,0,0,1-.2.47A.69.69,0,0,1,70.08,141.66Z"/><path class="cls-2" d="M76.19,138.92a2.3,2.3,0,0,1-1.12.3,2.22,2.22,0,0,1-1.88-.86,3.46,3.46,0,0,1,.14-4,2.24,2.24,0,0,1,1.7-.68,2.12,2.12,0,0,1,1.69.69,2.21,2.21,0,0,1,.53,1.53V139a2.83,2.83,0,0,1-.77,2.17,2.37,2.37,0,0,1-1.66.59,3.63,3.63,0,0,1-1.75-.47l.3-.9a2.81,2.81,0,0,0,1.3.36,1.38,1.38,0,0,0,1.14-.48,2,2,0,0,0,.37-1.24Zm0-1V136c0-.87-.39-1.31-1.16-1.31a1.2,1.2,0,0,0-1.06.56,2.09,2.09,0,0,0-.29,1.21,1.84,1.84,0,0,0,.52,1.43,1.47,1.47,0,0,0,1,.38A1.71,1.71,0,0,0,76.19,137.89Z"/><path class="cls-2" d="M82.17,139.29h-.49a2.33,2.33,0,0,1-1.75-.63,2.42,2.42,0,0,1-.54-1.63l0-6.42h1.1l0,6.09a1.85,1.85,0,0,0,.29,1.18,1.34,1.34,0,0,0,1.08.35h.3Z"/><path class="cls-2" d="M82.15,139.29h-.24v-1.06h.15a1.23,1.23,0,0,0,1-.48,1.93,1.93,0,0,0,.31-1.18V135h1.08v1.59a1.83,1.83,0,0,0,.39,1.26,1.14,1.14,0,0,0,.88.39,8.41,8.41,0,0,1,2.6-3.67,4.26,4.26,0,0,1,2.57-.94,2.76,2.76,0,0,1,2.19.88,3.1,3.1,0,0,1,.71,2.13,1.71,1.71,0,0,0,.42,1.22,1.26,1.26,0,0,0,.94.35h.15v1.06h-.26a2.13,2.13,0,0,1-1.78-.8,2.79,2.79,0,0,1-2.32.81l-5.25,0a2.14,2.14,0,0,1-1.77-.82A2.1,2.1,0,0,1,82.15,139.29Zm4.7-1.07H90.9a2,2,0,0,0,1.49-.45,1.85,1.85,0,0,0,.35-1.24,1.88,1.88,0,0,0-.52-1.44,1.77,1.77,0,0,0-1.24-.41,3.56,3.56,0,0,0-2.42,1.08A7.42,7.42,0,0,0,86.85,138.22Zm4.59-6.4a.62.62,0,0,1-.2.48.61.61,0,0,1-.47.2.59.59,0,0,1-.47-.2.65.65,0,0,1-.2-.47.7.7,0,0,1,.66-.67.66.66,0,0,1,.48.2A.62.62,0,0,1,91.44,131.82Z"/><path class="cls-2" d="M95.08,139.25v-1.06h.26a1.2,1.2,0,0,0,1-.48,2,2,0,0,0,.31-1.18v-2.78h1.1v2.78a1.83,1.83,0,0,0,.4,1.29,1.3,1.3,0,0,0,1,.36h.26v1.06h-.36a2.11,2.11,0,0,1-1.81-.82,2.1,2.1,0,0,1-1.79.83Zm1.2,2.33a.66.66,0,0,1-.48-.2.68.68,0,0,1-.21-.46.68.68,0,0,1,1.36,0,.67.67,0,0,1-.2.47A.65.65,0,0,1,96.28,141.58Zm1.57,0a.62.62,0,0,1-.47-.21.6.6,0,0,1-.21-.46.65.65,0,0,1,.2-.47.66.66,0,0,1,.48-.21.68.68,0,0,1,.68.68.65.65,0,0,1-.2.47A.72.72,0,0,1,97.85,141.58Z"/><path class="cls-2" d="M99.15,139.24v-1.06h.26a1.18,1.18,0,0,0,1-.49,1.93,1.93,0,0,0,.31-1.17v-2.78h1.1v2.77a1.8,1.8,0,0,0,.4,1.29,1.27,1.27,0,0,0,1,.37h.26v1.05h-.36a2.1,2.1,0,0,1-1.81-.81,2.1,2.1,0,0,1-1.79.83Zm2.17,2.32a.7.7,0,0,1-.68-.66.68.68,0,0,1,1.16-.48.67.67,0,0,1,.2.48.65.65,0,0,1-.2.46A.63.63,0,0,1,101.32,141.56Z"/><path class="cls-2" d="M103.57,139.22h-.35v-1.05h.23a1.3,1.3,0,0,0,1.06-.49,1.93,1.93,0,0,0,.31-1.18l0-6h1.08l0,6.14a2.56,2.56,0,0,1-.74,2A2.29,2.29,0,0,1,103.57,139.22Z"/><path class="cls-2" d="M109.29,139.2h-1.1l0-8.69h1.1Z"/><path class="cls-2" d="M120.69,139.17h-.37a2.1,2.1,0,0,1-1.94-1,2.33,2.33,0,0,1-1.67.7,2.08,2.08,0,0,1-1.69-.78,3,3,0,0,1-.59-1.91,2.72,2.72,0,0,1,.85-2.14,2.87,2.87,0,0,1,1.91-.66H118v-.58h1.06v3.68a1.83,1.83,0,0,0,.41,1.29,1.27,1.27,0,0,0,1,.36h.26Zm-4.14-7.78a.63.63,0,0,1-.2.48.66.66,0,0,1-.95,0,.65.65,0,0,1-.2-.47.63.63,0,0,1,.2-.47.66.66,0,0,1,.95,0A.62.62,0,0,1,116.55,131.39Zm1.45,3h-.77a1.72,1.72,0,0,0-1.36.53,1.8,1.8,0,0,0-.37,1.21,2,2,0,0,0,.38,1.29,1,1,0,0,0,.88.4,2,2,0,0,0,1.3-.57,2.88,2.88,0,0,1,0-.62Zm.13-3a.61.61,0,0,1-.2.47.62.62,0,0,1-.47.21.66.66,0,0,1-.48-.2.63.63,0,0,1-.2-.48.68.68,0,0,1,.67-.66.68.68,0,0,1,.48.19A.65.65,0,0,1,118.13,131.39Z"/><path class="cls-2" d="M120.43,139.17v-1.06h.26a1.22,1.22,0,0,0,1-.48,2,2,0,0,0,.31-1.18v-2.78h1.09v2.78a1.83,1.83,0,0,0,.41,1.29,1.27,1.27,0,0,0,.95.36h.26v1.06h-.37a2.1,2.1,0,0,1-1.8-.82,2.11,2.11,0,0,1-1.8.83Zm1.19,2.33a.69.69,0,0,1-.48-.2.66.66,0,0,1-.2-.46.69.69,0,0,1,.2-.48.63.63,0,0,1,.48-.2.61.61,0,0,1,.47.2.62.62,0,0,1,.21.47.67.67,0,0,1-.2.47A.69.69,0,0,1,121.62,141.5Zm1.58,0a.66.66,0,0,1-.48-.21.63.63,0,0,1-.2-.46.65.65,0,0,1,.2-.47.63.63,0,0,1,.48-.21.65.65,0,0,1,.47.2.66.66,0,0,1,.21.48.65.65,0,0,1-.2.47A.69.69,0,0,1,123.2,141.5Z"/><path class="cls-2" d="M130.63,138.39a2.4,2.4,0,0,1-3.81,0,2,2,0,0,1-1.64.74h-.68V138.1h.5c.87,0,1.3-.58,1.3-1.74a3.74,3.74,0,0,1,.2-1.32,2.23,2.23,0,0,1,2.22-1.57,2.27,2.27,0,0,1,1.46.48,2.35,2.35,0,0,1,.77,1.08,4,4,0,0,1,.2,1.31c0,1.16.44,1.74,1.31,1.73H133v1.06h-.69A2,2,0,0,1,130.63,138.39Zm-3.27-2a2.2,2.2,0,0,0,.49,1.56,1.18,1.18,0,0,0,1.85-.14,2.38,2.38,0,0,0,.37-1.43,2.15,2.15,0,0,0-.41-1.42,1.12,1.12,0,0,0-.95-.43,1.14,1.14,0,0,0-1,.55A2.37,2.37,0,0,0,127.36,136.36Z"/><path class="cls-2" d="M133.07,139.13h-.37v-1.06H133a1.2,1.2,0,0,0,1-.48,2,2,0,0,0,.31-1.18v-2.78h1.1v2.78a1.79,1.79,0,0,0,.41,1.29,1.26,1.26,0,0,0,1,.36H137v1.06h-.36a2.1,2.1,0,0,1-1.8-.82A2.11,2.11,0,0,1,133.07,139.13Zm2.47-7.18a.68.68,0,0,1-.68.66.61.61,0,0,1-.48-.2.63.63,0,0,1-.2-.46.69.69,0,0,1,.2-.48.66.66,0,0,1,1,0A.64.64,0,0,1,135.54,132Z"/><path class="cls-2" d="M137.14,139.12h-.37v-1.06H137a1.18,1.18,0,0,0,1-.49,1.91,1.91,0,0,0,.31-1.17v-2.78h1.1v2.78a1.79,1.79,0,0,0,.41,1.29,1.26,1.26,0,0,0,1,.36h.26v1h-.36a2.1,2.1,0,0,1-1.8-.82A2.13,2.13,0,0,1,137.14,139.12Zm1.67-7.23a.65.65,0,0,1-.2.47.67.67,0,0,1-.48.21.72.72,0,0,1-.68-.68.65.65,0,0,1,.2-.47.68.68,0,0,1,1,0A.63.63,0,0,1,138.81,131.89Zm1.58,0a.69.69,0,0,1-.2.48.67.67,0,0,1-.48.2.67.67,0,0,1-.48-1.15.7.7,0,0,1,1,0A.65.65,0,0,1,140.39,131.88Z"/><path class="cls-2" d="M141.19,139.1h-.35v-1h.23a1.26,1.26,0,0,0,1.06-.49,1.91,1.91,0,0,0,.31-1.17l0-6h1.08l0,6.14a2.56,2.56,0,0,1-.74,2A2.29,2.29,0,0,1,141.19,139.1Z"/><path class="cls-2" d="M146.91,139.09h-1.1l0-8.69h1.1Z"/><path class="cls-2" d="M159.77,139.05a2.28,2.28,0,0,1-1.21,2,5.24,5.24,0,0,1-2.7.62,3.89,3.89,0,0,1-2.91-1,3.33,3.33,0,0,1-.87-2.38,3.66,3.66,0,0,1,.61-2.09l.89.38a3.57,3.57,0,0,0-.43,1.66,2.32,2.32,0,0,0,.77,1.8,2.84,2.84,0,0,0,2,.64,4,4,0,0,0,2-.45,1.36,1.36,0,0,0,.78-1.16h-1.18V138h2.58v1Z"/><path class="cls-2" d="M160.19,139h-.35V138h.24a1.24,1.24,0,0,0,1.05-.49,1.91,1.91,0,0,0,.31-1.17l0-6h1.09v6a1.84,1.84,0,0,0,.41,1.29,1.27,1.27,0,0,0,1,.37h.23V139h-.34a2,2,0,0,1-1.8-.81A2.1,2.1,0,0,1,160.19,139Z"/><path class="cls-2" d="M171,139l-7.09,0V138h1.89a2.84,2.84,0,0,1-.59-1.8,2.73,2.73,0,0,1,.8-2,2.49,2.49,0,0,1,1.79-.68h2.19v1.05h-2a1.62,1.62,0,0,0-1.3.58,1.73,1.73,0,0,0-.36,1.1,1.79,1.79,0,0,0,.51,1.3,1.73,1.73,0,0,0,1.28.49H171Z"/><path class="cls-2" d="M181.55,143a4.56,4.56,0,0,1-2.54.78,3.46,3.46,0,0,1-2.45-.87,2.74,2.74,0,0,1-.87-2.1,3.13,3.13,0,0,1,.41-1.58,2.91,2.91,0,0,1,1-1,2.31,2.31,0,0,1-1.09-2.08,2.69,2.69,0,0,1,.81-2,2.45,2.45,0,0,1,1.78-.68h2.19v1h-2a1.57,1.57,0,0,0-1.31.58,1.7,1.7,0,0,0-.36,1.09,1.38,1.38,0,0,0,.52,1.12,1.84,1.84,0,0,0,1.27.43h2.42v1.06H179a2.24,2.24,0,0,0-1.75.66,1.87,1.87,0,0,0-.47,1.3,1.83,1.83,0,0,0,.81,1.56,2.57,2.57,0,0,0,1.58.47,3.35,3.35,0,0,0,1.87-.54Z"/><path class="cls-2" d="M184.56,139h-1.1l0-8.69h1.1Z"/><path class="cls-2" d="M188.59,139H186v-1.05h2.36c.88,0,1.32-.38,1.31-1.14a2.52,2.52,0,0,0-.43-1.35,4.44,4.44,0,0,0-1.18-1.24l.64-.86A5.37,5.37,0,0,1,190.2,135a3.45,3.45,0,0,1,.51,1.68,1.17,1.17,0,0,0,.44,1,1.43,1.43,0,0,0,.89.27h.26v1.05h-.36a2,2,0,0,1-1.66-.66A2.1,2.1,0,0,1,188.59,139Z"/><path class="cls-2" d="M192,138.94v-1.05h.26a1.21,1.21,0,0,0,1-.49,2,2,0,0,0,.31-1.17v-2.78h1.1v2.95a2.57,2.57,0,0,1-.75,2,2.29,2.29,0,0,1-1.59.54Zm1.37,2.34a.64.64,0,0,1-.47-.21.63.63,0,0,1-.2-.46.65.65,0,0,1,.2-.47.62.62,0,0,1,.46-.21.67.67,0,0,1,.48.2.69.69,0,0,1,.2.48.61.61,0,0,1-.2.46A.66.66,0,0,1,193.41,141.28Z"/><path class="cls-2" d="M200.23,138.92h-4v-1.06h1.93l0-5.68h1.1l0,5.68h.78a1.37,1.37,0,0,0,1.07-.34,1.79,1.79,0,0,0,.29-1.2l0-6.09h1.1l0,6.42a2.2,2.2,0,0,1-.7,1.78A2.36,2.36,0,0,1,200.23,138.92Zm-.47,3h-2.11v-.49h.44A1.09,1.09,0,0,1,198,141a.79.79,0,0,1,.26-.6.89.89,0,0,1,.64-.24,1,1,0,0,1,.69.25l-.19.36a.71.71,0,0,0-.44-.15q-.45,0-.45.39a.73.73,0,0,0,.16.41h1.11Z"/><path class="cls-2" d="M205.88,138.9h-1.09l0-8.68h1.1Z"/><path class="cls-2" d="M213.54,138.52v.17a2.8,2.8,0,0,1-.74,2.08,2.22,2.22,0,0,1-1.61.59,3.73,3.73,0,0,1-1.66-.41l.3-.9a2.73,2.73,0,0,0,1.18.31,1.33,1.33,0,0,0,1.11-.49,2,2,0,0,0,.35-1.26l0-5.22h1.1v2.77a1.8,1.8,0,0,0,.41,1.29,1.23,1.23,0,0,0,.95.37h.26v1.05h-.36A2.28,2.28,0,0,1,213.54,138.52Z"/><path class="cls-2" d="M215.29,138.87h-.37v-1.05h.26a1.23,1.23,0,0,0,1-.49,2,2,0,0,0,.31-1.18v-2.77h1.1v2.95a2.57,2.57,0,0,1-.75,2A2.29,2.29,0,0,1,215.29,138.87Zm1.62-7.23a.69.69,0,0,1-.2.48.65.65,0,0,1-.94,0,.63.63,0,0,1-.2-.48.58.58,0,0,1,.2-.47.68.68,0,0,1,.94,0A.65.65,0,0,1,216.91,131.64Zm.74-1.37a.6.6,0,0,1-.18.43.63.63,0,0,1-.88,0,.58.58,0,0,1-.18-.43.61.61,0,0,1,.61-.61.62.62,0,0,1,.44.18A.59.59,0,0,1,217.65,130.27Zm.85,1.36a.66.66,0,0,1-.2.48.62.62,0,0,1-.48.2.58.58,0,0,1-.47-.2.62.62,0,0,1-.21-.47.65.65,0,0,1,.2-.47.68.68,0,0,1,1,0A.66.66,0,0,1,218.5,131.63Z"/><path class="cls-2" d="M221.55,130H219.3v-.56h.49a1,1,0,0,1-.12-.45.79.79,0,0,1,.26-.62.93.93,0,0,1,.67-.25.91.91,0,0,1,.72.28l-.19.41a.69.69,0,0,0-.46-.17q-.42,0-.42.39a.66.66,0,0,0,.16.4h1.14Zm-.55,8.87h-1.09l0-8H221Z"/><path class="cls-2" d="M76.5,52.28h-.42a4.2,4.2,0,0,1-3.66-1.81,7.4,7.4,0,0,1-1.15-4.37,6.33,6.33,0,0,1,1.57-4.56,4.63,4.63,0,0,1,3.45-1.38A4.57,4.57,0,0,1,80.12,42a6.62,6.62,0,0,1,1.23,4.14,6.89,6.89,0,0,1-1.5,4.79A4.32,4.32,0,0,1,76.5,52.28Zm-.57-15.63a1.66,1.66,0,0,1-.53,1.24,1.84,1.84,0,0,1-2.55,0,1.67,1.67,0,0,1,0-2.46,1.82,1.82,0,0,1,2.55,0A1.69,1.69,0,0,1,75.93,36.65Zm-1.68,9.5a3.55,3.55,0,0,0,.6,2.23,1.58,1.58,0,0,0,1.31.65h.29a1.58,1.58,0,0,0,1.4-.74,4,4,0,0,0,.48-2.14,3.42,3.42,0,0,0-.6-2.17,1.89,1.89,0,0,0-2.94.09A3.5,3.5,0,0,0,74.25,46.15ZM80,36.65a1.66,1.66,0,0,1-.53,1.24,1.77,1.77,0,0,1-1.3.51,1.74,1.74,0,0,1-1.27-.52,1.67,1.67,0,0,1,0-2.46,1.75,1.75,0,0,1,1.27-.53,1.8,1.8,0,0,1,1.3.5A1.66,1.66,0,0,1,80,36.65Z"/><path class="cls-2" d="M90.33,40.6v11a5.36,5.36,0,0,1-1.55,4.14,4.66,4.66,0,0,1-3.25,1.15,7.51,7.51,0,0,1-3.79-1l.78-2.44a4.75,4.75,0,0,0,2.12.58,2.1,2.1,0,0,0,1.79-.81A3.49,3.49,0,0,0,87,51.13V40.6Z"/><path class="cls-2" d="M98.26,51.94H92.89V48.69h4.72c1.27,0,1.91-.54,1.91-1.62a4,4,0,0,0-.79-2.19,7.56,7.56,0,0,0-2.07-2l1.91-2.59a10.54,10.54,0,0,1,3.28,3.35,6.92,6.92,0,0,1,1,3.56,5,5,0,0,1-1.13,3.51A4.52,4.52,0,0,1,98.26,51.94Z"/><path class="cls-2" d="M113.84,51.94h-1.15q-5.82,0-5.82-5.45v-12h3.36V45.6a3.69,3.69,0,0,0,.6,2.44,2.9,2.9,0,0,0,2.17.65h.84Z"/><path class="cls-2" d="M113.31,51.94V48.69h.79a2.56,2.56,0,0,0,2.23-.89,3.91,3.91,0,0,0,.55-2.3V40.6h3.35v4.9a3.59,3.59,0,0,0,.7,2.51,2.79,2.79,0,0,0,2.07.68h.76v3.25h-1a5.08,5.08,0,0,1-4.19-1.68,5.19,5.19,0,0,1-4.21,1.68Zm5.16,5.44a1.75,1.75,0,0,1-1.27-.52,1.69,1.69,0,0,1-.53-1.26,1.65,1.65,0,0,1,.53-1.23,1.75,1.75,0,0,1,1.27-.52,1.82,1.82,0,0,1,1.3.51,1.64,1.64,0,0,1,.54,1.24,1.69,1.69,0,0,1-.54,1.26A1.79,1.79,0,0,1,118.47,57.38Z"/><path class="cls-2" d="M123.24,48.69h.86c1.47,0,2.2-.81,2.2-2.43V44.92a4.64,4.64,0,0,1,1.47-3.66,5.25,5.25,0,0,1,7.3.7,6.35,6.35,0,0,1,1.21,4,6.47,6.47,0,0,1-1.63,4.71A4.58,4.58,0,0,1,131.2,52,5.26,5.26,0,0,1,127.74,51a3.92,3.92,0,0,1-2.72,1h-1.78Zm6.26-1.62c0,1.15.53,1.73,1.59,1.73a1.67,1.67,0,0,0,1.49-.78,3.84,3.84,0,0,0,.53-2.18,3.33,3.33,0,0,0-.58-2.12,1.67,1.67,0,0,0-1.41-.68,1.59,1.59,0,0,0-1.25.43,2.16,2.16,0,0,0-.37,1.42Z"/></g></g></svg>