<svg xmlns="http://www.w3.org/2000/svg" viewBox="0 0 454.79 516.36"><defs><style>.cls-1{fill:#fff;}.cls-2{fill:#d5896b;}.cls-3{fill:none;stroke:#fff;stroke-miterlimit:10;stroke-width:0.5px;}</style></defs><g id="Layer_2" data-name="Layer 2"><g id="Calque_1" data-name="Calque 1"><path class="cls-1" d="M12.79,171.61a125.11,125.11,0,0,0,9.36,13.75H218.5a124.94,124.94,0,0,0,9.34-13.75Z"/><path class="cls-1" d="M7.57,161.53H233.12a123.54,123.54,0,0,0,5.27-13.18H2.26A123.78,123.78,0,0,0,7.57,161.53Z"/><path class="cls-2" d="M3.1,84.52H19.46q8,0,12.2,4.49t4.22,12.48v2.31q0,8.25-4.15,12.68t-12.27,4.43H12.64v11.24H3.1Zm9.54,27.67h5.11q4.5,0,6.55-2.12c1.36-1.4,2-3.52,2-6.33v-2.25q0-4.15-2-6.21t-6.55-2H12.64Z"/><path class="cls-2" d="M42.7,80.16h9.13V98q3.48-4.5,10.22-4.5,7.64,0,10.84,3.82t3.2,11.24v23.58H67v-23q0-4.23-1.77-6.1t-5.93-1.87a7,7,0,0,0-5.56,2.21c-1.29,1.48-1.94,3.62-1.94,6.44v22.35H42.7Z"/><path class="cls-2" d="M93.54,105.92H84.41q0-12.4,15.6-12.41,14.86,0,14.86,12.82v25.82h-7.16l-1.63-4.77q-3.83,5.38-11,5.39c-3.91,0-6.79-1-8.66-2.9a10.4,10.4,0,0,1-2.79-7.53q0-5,3-7.67a22.89,22.89,0,0,1,8.24-4.26l10.91-3.47v-1.77a3.89,3.89,0,0,0-1.33-3.24c-.89-.7-2.42-1.06-4.6-1.06Q93.54,100.87,93.54,105.92Zm12.4,7.83-8.38,2.8q-4.77,1.56-4.77,5c0,2.86,1.52,4.3,4.57,4.3a8.88,8.88,0,0,0,5.89-2.29,7.09,7.09,0,0,0,2.69-5.62Z"/><path class="cls-2" d="M140.15,106.12v-1a4.4,4.4,0,0,0-1.05-3.27,4.8,4.8,0,0,0-3.44-1c-2.78,0-4.16,1.12-4.16,3.34a2.67,2.67,0,0,0,.85,2.08,10.79,10.79,0,0,0,3,1.67l5.92,2.45a16.55,16.55,0,0,1,6.21,4.26,10,10,0,0,1,2.18,6.72,10.2,10.2,0,0,1-3.72,8.35q-3.71,3-10.19,3-7.22,0-10.32-2.93T122.3,121v-1.91h8.45V121q0,4.42,5,4.43a5.3,5.3,0,0,0,3.48-1.06,3.61,3.61,0,0,0,1.3-3,3.65,3.65,0,0,0-.89-2.59,8.67,8.67,0,0,0-3-1.84l-6.82-2.8q-7.35-3.14-7.36-10c0-3.5,1.14-6.15,3.41-8s5.54-2.73,9.82-2.73q6.87,0,10,3t3.06,8.66v1Z"/><path class="cls-2" d="M187.72,115.73H165.3v1.91c0,3,.41,5,1.23,6.1s2.56,1.67,5.25,1.67c2.36,0,3.94-.37,4.73-1.09a6.62,6.62,0,0,0,1.6-4h9.14c-.1,4.45-1.34,7.64-3.75,9.57s-6.32,2.9-11.72,2.9-9.47-1.23-11.9-3.68-3.64-6.27-3.64-11.45v-8.93q0-7.69,3.71-11.45t12-3.75q8.18,0,12,3.62t3.78,10.9Zm-22.42-6.54h13.29v-1.91q0-3.34-1.5-4.87T172,100.87q-3.67,0-5.18,1.54t-1.5,4.87Z"/><path class="cls-2" d="M238.36,104v28.14h-9.07v-7H214.71a8.73,8.73,0,0,1-6.24-2,6.84,6.84,0,0,1-2.14-5.18,17.19,17.19,0,0,1,2-7.63l12.75-25.76h10.49l-14.92,29.91a3.08,3.08,0,0,0-.41,1.3c0,.55.38.82,1.16.82h11.85V104Z"/><rect class="cls-1" x="114.37" width="11.91" height="27.26" rx="5.96"/><rect class="cls-1" x="215.64" y="52.8" width="27.26" height="11.91" rx="5.96" transform="translate(25.59 179.3) rotate(-44.99)"/><rect class="cls-1" x="168.68" y="20.69" width="27.26" height="11.91" rx="5.96" transform="translate(84.57 182.83) rotate(-66.28)"/><rect class="cls-1" x="5.43" y="45.13" width="11.91" height="27.26" rx="5.96" transform="translate(-38.22 25.26) rotate(-45.01)"/><rect class="cls-1" x="52.38" y="13.02" width="11.91" height="27.26" rx="5.96" transform="translate(-5.79 25.72) rotate(-23.72)"/><path class="cls-1" d="M26.85,229.49v-.06c0-5.37,3.51-8.31,7.32-8.31a6.18,6.18,0,0,1,5,2.4V215.6h4.56v21.9H39.18v-2.31a5.91,5.91,0,0,1-5,2.61C30.42,237.8,26.85,234.86,26.85,229.49Zm12.39,0v-.06c0-2.67-1.77-4.44-3.9-4.44s-3.93,1.74-3.93,4.44v.06c0,2.67,1.8,4.44,3.93,4.44S39.24,232.16,39.24,229.49Z"/><path class="cls-1" d="M47.28,231.83V221.42h4.56v9c0,2.16,1,3.27,2.76,3.27s2.85-1.11,2.85-3.27v-9H62V237.5H57.45v-2.28a5.69,5.69,0,0,1-4.71,2.58C49.29,237.8,47.28,235.52,47.28,231.83Z"/><path class="cls-1" d="M73.83,227.06V227c0-6.09,3.78-10.86,9.36-10.86s9.3,4.71,9.3,10.8V227c0,6.09-3.75,10.86-9.36,10.86S73.83,233.15,73.83,227.06Zm13.92,0V227c0-3.81-1.86-6.69-4.62-6.69s-4.56,2.79-4.56,6.63V227c0,3.84,1.83,6.69,4.62,6.69S87.75,230.87,87.75,227.06Z"/><path class="cls-1" d="M95.16,233.84l7-5.73c2.61-2.16,3.63-3.3,3.63-5a2.58,2.58,0,0,0-2.82-2.73c-1.62,0-2.73.9-4.29,2.82l-3.24-2.61c2.07-2.82,4.08-4.35,7.83-4.35,4.35,0,7.23,2.55,7.23,6.48v.06c0,3.51-1.8,5.25-5.52,8.13l-3.42,2.64h9.15v4H95.16Z"/><path class="cls-1" d="M113.46,226h9.24v4.38h-9.24Z"/><path class="cls-1" d="M125.4,227.06V227c0-6.09,3.77-10.86,9.35-10.86s9.3,4.71,9.3,10.8V227c0,6.09-3.75,10.86-9.35,10.86S125.4,233.15,125.4,227.06Zm13.91,0V227c0-3.81-1.85-6.69-4.61-6.69s-4.57,2.79-4.57,6.63V227c0,3.84,1.83,6.69,4.62,6.69S139.31,230.87,139.31,227.06Z"/><path class="cls-1" d="M149.36,235.61c-1.53-1.53-2.48-3.78-2.48-8v-.06c0-6.48,2.93-11.46,9.2-11.46a9.73,9.73,0,0,1,6.57,2.31L160.22,222a6.47,6.47,0,0,0-4.29-1.68c-3.15,0-4.08,3-4.22,4.86a7.3,7.3,0,0,1,4.34-1.35c4.17,0,7.38,2.31,7.38,6.69v.06c0,4.29-3.45,7.26-8,7.26A8,8,0,0,1,149.36,235.61Zm9.48-4.8v-.06c0-1.77-1.38-3.06-3.66-3.06s-3.6,1.26-3.6,3v.06c0,1.77,1.38,3.12,3.66,3.12S158.84,232.61,158.84,230.81Z"/><path class="cls-1" d="M175.31,221.42h4.56v2.28a5.74,5.74,0,0,1,4.74-2.58,4.81,4.81,0,0,1,4.53,2.55,6.62,6.62,0,0,1,5.28-2.55c3.39,0,5.43,2,5.43,5.91V237.5h-4.56v-9c0-2.16-1-3.27-2.67-3.27s-2.76,1.11-2.76,3.27v9H185.3v-9c0-2.16-1-3.27-2.67-3.27s-2.76,1.11-2.76,3.27v9h-4.56Z"/><path class="cls-1" d="M202.43,232.88v-.06c0-3.51,2.67-5.13,6.48-5.13a11.43,11.43,0,0,1,3.93.66v-.27c0-1.89-1.17-2.94-3.45-2.94A11.83,11.83,0,0,0,205,226l-1.14-3.48a14.19,14.19,0,0,1,6.24-1.29,7.42,7.42,0,0,1,5.43,1.8,7,7,0,0,1,1.74,5.13v9.33h-4.41v-1.74a6.18,6.18,0,0,1-4.86,2C204.92,237.8,202.43,236.06,202.43,232.88Zm10.47-1V231a7.07,7.07,0,0,0-2.91-.6c-2,0-3.15.78-3.15,2.22v.06c0,1.23,1,2,2.49,2C211.46,234.65,212.9,233.48,212.9,231.83Z"/><path class="cls-1" d="M220.82,215.6h4.8v4.05h-4.8Zm.12,5.82h4.56V237.5h-4.56Z"/><path class="cls-1" d="M237.38,233.84l7-5.73c2.61-2.16,3.63-3.3,3.63-5a2.58,2.58,0,0,0-2.82-2.73c-1.62,0-2.73.9-4.29,2.82l-3.24-2.61c2.07-2.82,4.08-4.35,7.83-4.35,4.35,0,7.23,2.55,7.23,6.48v.06c0,3.51-1.8,5.25-5.52,8.13l-3.42,2.64h9.15v4H237.38Z"/><path class="cls-1" d="M255.8,227.06V227c0-6.09,3.78-10.86,9.36-10.86s9.3,4.71,9.3,10.8V227c0,6.09-3.75,10.86-9.36,10.86S255.8,233.15,255.8,227.06Zm13.92,0V227c0-3.81-1.86-6.69-4.62-6.69s-4.56,2.79-4.56,6.63V227c0,3.84,1.83,6.69,4.62,6.69S269.72,230.87,269.72,227.06Z"/><path class="cls-1" d="M277.13,233.84l7-5.73c2.61-2.16,3.63-3.3,3.63-5a2.58,2.58,0,0,0-2.82-2.73c-1.62,0-2.73.9-4.29,2.82l-3.24-2.61c2.07-2.82,4.08-4.35,7.83-4.35,4.35,0,7.23,2.55,7.23,6.48v.06c0,3.51-1.8,5.25-5.52,8.13l-3.42,2.64h9.15v4H277.13Z"/><path class="cls-1" d="M295.4,233.84l7-5.73c2.61-2.16,3.63-3.3,3.63-5a2.58,2.58,0,0,0-2.82-2.73c-1.62,0-2.73.9-4.29,2.82l-3.24-2.61c2.07-2.82,4.08-4.35,7.83-4.35,4.35,0,7.23,2.55,7.23,6.48v.06c0,3.51-1.8,5.25-5.52,8.13l-3.42,2.64h9.15v4H295.4Z"/><line class="cls-3" x1="22.79" y1="250.5" x2="454.79" y2="250.5"/><path class="cls-2" d="M33.29,283.86c4.68,1,6.84,2.73,6.84,6,0,3.63-3,6-7.17,6a12.29,12.29,0,0,1-8.58-3.36l1.47-1.74a10,10,0,0,0,7.2,3c2.82,0,4.68-1.47,4.68-3.6s-1-3.09-5.46-4c-4.83-1.05-7.05-2.61-7.05-6.09s2.91-5.76,6.9-5.76a11,11,0,0,1,7.38,2.58l-1.38,1.83a9.22,9.22,0,0,0-6.06-2.28c-2.73,0-4.47,1.5-4.47,3.42S28.67,282.87,33.29,283.86Z"/><path class="cls-2" d="M59.72,276.66H46.91v7.17H58.37V286H46.91v7.35h13v2.16H44.54v-21H59.72Zm-9.24-4,2.85-4.35,2.4,1.11-3.39,3.24Z"/><path class="cls-2" d="M64.22,274.5h2.37v18.81H78.41v2.19H64.22Z"/><path class="cls-2" d="M97.55,276.66H84.74v7.17H96.2V286H84.74v7.35h13v2.16H82.37v-21H97.55Z"/><path class="cls-2" d="M111.65,295.86a10.86,10.86,0,0,1,.09-21.72,10.93,10.93,0,0,1,8.19,3.33l-1.62,1.74a9.13,9.13,0,0,0-6.6-2.88c-4.65,0-8.13,3.75-8.13,8.64s3.51,8.7,8.13,8.7c2.88,0,4.77-1.11,6.78-3l1.56,1.53A10.93,10.93,0,0,1,111.65,295.86Z"/><path class="cls-2" d="M131.72,295.5h-2.4V276.69h-7V274.5h16.5v2.19h-7.05Z"/><path class="cls-2" d="M145.37,274.5v21H143v-21Z"/><path class="cls-2" d="M160.85,295.86A10.86,10.86,0,1,1,171.59,285,10.55,10.55,0,0,1,160.85,295.86Zm0-19.53c-4.8,0-8.22,3.84-8.22,8.64s3.48,8.7,8.28,8.7,8.22-3.84,8.22-8.64S165.65,276.33,160.85,276.33Z"/><path class="cls-2" d="M191.63,274.5h2.31v21h-1.89l-13.56-17.22V295.5h-2.31v-21h2.22l13.23,16.83Z"/><path class="cls-2" d="M215.33,295.5H208v-21h7.29c6.6,0,11.16,4.53,11.16,10.47S221.93,295.5,215.33,295.5Zm0-18.81h-4.92v16.62h4.92c5.31,0,8.7-3.6,8.7-8.28S220.64,276.69,215.33,276.69Z"/><path class="cls-2" d="M246.26,276.66H233.45v7.17h11.46V286H233.45v7.35h13v2.16H231.08v-21h15.18Z"/><path class="cls-2" d="M258.29,283.86c4.68,1,6.84,2.73,6.84,6,0,3.63-3,6-7.17,6a12.29,12.29,0,0,1-8.58-3.36l1.47-1.74a10,10,0,0,0,7.2,3c2.82,0,4.68-1.47,4.68-3.6s-1.05-3.09-5.46-4c-4.83-1.05-7-2.61-7-6.09s2.91-5.76,6.9-5.76a11,11,0,0,1,7.38,2.58l-1.38,1.83a9.22,9.22,0,0,0-6.06-2.28c-2.73,0-4.47,1.5-4.47,3.42S253.67,282.87,258.29,283.86Z"/><path class="cls-2" d="M287.87,295.86c-6.6,0-10.68-4.8-10.68-10.83,0-5.79,4.23-10.89,10.53-10.89a11.07,11.07,0,0,1,7.83,2.79l-1.53,1.8a8.93,8.93,0,0,0-6.39-2.4c-4.65,0-8,3.93-8,8.64,0,5,3.21,8.76,8.31,8.76a9.89,9.89,0,0,0,6.06-2.1v-5.22h-6.39v-2.13h8.67v8.37A12.72,12.72,0,0,1,287.87,295.86Z"/><path class="cls-2" d="M320.78,295.5h-2.55L315.77,290H304.34l-2.49,5.55h-2.43L309,274.35h2.22Zm-10.71-18.39-4.8,10.71h9.57Z"/><path class="cls-2" d="M334.25,295.86c-6.6,0-10.68-4.8-10.68-10.83,0-5.79,4.23-10.89,10.53-10.89a11.07,11.07,0,0,1,7.83,2.79l-1.53,1.8a8.93,8.93,0,0,0-6.39-2.4c-4.65,0-8,3.93-8,8.64,0,5,3.21,8.76,8.31,8.76a9.89,9.89,0,0,0,6.06-2.1v-5.22H334v-2.13h8.67v8.37A12.72,12.72,0,0,1,334.25,295.86Z"/><path class="cls-2" d="M363.05,274.5h2.31v21h-1.89l-13.56-17.22V295.5H347.6v-21h2.22l13.23,16.83Z"/><path class="cls-2" d="M390.44,295.5h-2.55L385.43,290H374l-2.49,5.55h-2.43l9.57-21.15h2.22Zm-10.71-18.39-4.8,10.71h9.57Z"/><path class="cls-2" d="M409.61,274.5h2.31v21H410l-13.56-17.22V295.5h-2.31v-21h2.22l13.23,16.83Z"/><path class="cls-2" d="M425.39,295.5H423V276.69h-7.05V274.5h16.5v2.19h-7.05Z"/><path class="cls-2" d="M444,283.86c4.68,1,6.84,2.73,6.84,6,0,3.63-3,6-7.17,6a12.29,12.29,0,0,1-8.58-3.36l1.47-1.74a10,10,0,0,0,7.2,3c2.82,0,4.68-1.47,4.68-3.6s-1.05-3.09-5.46-4c-4.83-1.05-7.05-2.61-7.05-6.09s2.91-5.76,6.9-5.76a11,11,0,0,1,7.38,2.58l-1.38,1.83a9.22,9.22,0,0,0-6.06-2.28c-2.73,0-4.47,1.5-4.47,3.42S439.37,282.87,444,283.86Z"/><path class="cls-2" d="M33.23,324.09h-5.1v7.41H25.76v-21h7.86c4.74,0,7.86,2.52,7.86,6.69C41.48,321.75,37.7,324.09,33.23,324.09Zm.21-11.4H28.13v9.24h5.19c3.48,0,5.76-1.86,5.76-4.65C39.08,314.25,36.83,312.69,33.44,312.69Z"/><path class="cls-2" d="M64.94,331.5H62.39L59.93,326H48.5L46,331.5H43.58l9.57-21.15h2.22ZM54.23,313.11l-4.8,10.71H59Z"/><path class="cls-2" d="M83.12,331.5,77,323.34H71v8.16H68.66v-21h9c4.62,0,7.59,2.49,7.59,6.27,0,3.51-2.4,5.55-5.7,6.15L86,331.5Zm-5.61-18.81H71v8.52h6.45c3.15,0,5.4-1.62,5.4-4.35S80.9,312.69,77.51,312.69Z"/><path class="cls-2" d="M98.51,310.5h2.37v18.81H112.7v2.19H98.51Z"/><path class="cls-2" d="M131.84,312.66H119v7.17h11.46V322H119v7.35h13v2.16H116.66v-21h15.18Z"/><path class="cls-2" d="M149.36,331.8a7.19,7.19,0,0,1-6.48-3.72l1.71-1.47c1.29,1.95,2.61,3,4.8,3,2.37,0,4.11-1.71,4.11-5V310.5h2.4v14C155.9,329.37,153.11,331.8,149.36,331.8Z"/><path class="cls-2" d="M178.25,322.53c0,6.12-3.51,9.3-8.76,9.3s-8.73-3.18-8.73-9.12V310.5h2.37v12.06c0,4.53,2.4,7.08,6.42,7.08,3.87,0,6.33-2.34,6.33-6.93V310.5h2.37Z"/><path class="cls-2" d="M197.9,331.5l-6.09-8.16h-6v8.16h-2.37v-21h9c4.62,0,7.59,2.49,7.59,6.27,0,3.51-2.4,5.55-5.7,6.15l6.45,8.58Zm-5.61-18.81h-6.48v8.52h6.45c3.15,0,5.4-1.62,5.4-4.35S195.68,312.69,192.29,312.69Z"/><path class="cls-2" d="M213.68,331.5h-2.4v-8.31l-8.73-12.69h2.88l7.08,10.5,7.14-10.5h2.76l-8.73,12.66Z"/><path class="cls-1" d="M25.76,346.5h2.37v18.81H40v2.19H25.76Z"/><path class="cls-1" d="M44.42,355l-.69-1.89a12.81,12.81,0,0,1,5.64-1.29c4.23,0,6.6,2.16,6.6,6.24v9.48H53.75v-2.34a6.8,6.8,0,0,1-5.61,2.67c-2.88,0-5.79-1.62-5.79-4.86s2.7-5,6.63-5a16.47,16.47,0,0,1,4.77.66v-.54c0-2.79-1.71-4.23-4.62-4.23A10.8,10.8,0,0,0,44.42,355Zm.27,7.92c0,2,1.8,3.12,3.9,3.12,2.85,0,5.19-1.74,5.19-4.2v-1.5a16.18,16.18,0,0,0-4.56-.66C46.31,359.64,44.69,360.9,44.69,362.88Z"/><path class="cls-1" d="M74.18,367.8a10.67,10.67,0,0,1-6.42-2.28l1.17-1.65a9.07,9.07,0,0,0,5.37,2c1.86,0,3.21-1,3.21-2.46v-.06c0-1.56-1.83-2.16-3.87-2.73-2.43-.69-5.13-1.53-5.13-4.38v-.06c0-2.67,2.22-4.44,5.28-4.44a10.6,10.6,0,0,1,5.58,1.71l-1.05,1.74a8.77,8.77,0,0,0-4.59-1.5c-1.83,0-3,1-3,2.25V356c0,1.47,1.92,2,4,2.67,2.4.72,5,1.65,5,4.44v.06C79.7,366.09,77.27,367.8,74.18,367.8Z"/><path class="cls-1" d="M90.41,365.85a6.42,6.42,0,0,0,4.89-2.19L96.74,365a8,8,0,0,1-6.39,2.91,7.72,7.72,0,0,1-7.74-8.1c0-4.5,3.15-8.1,7.44-8.1,4.59,0,7.23,3.66,7.23,8.22a6.28,6.28,0,0,1,0,.72H85A5.44,5.44,0,0,0,90.41,365.85Zm4.53-7c-.24-2.82-1.86-5.28-5-5.28-2.7,0-4.74,2.25-5,5.28Zm-6.33-9.24,2.85-4.35,2.4,1.11-3.39,3.24Z"/><path class="cls-1" d="M101.12,367.5V345.6h2.31v21.9Z"/><path class="cls-1" d="M115.22,365.85a6.42,6.42,0,0,0,4.89-2.19l1.44,1.29a8,8,0,0,1-6.39,2.91,7.72,7.72,0,0,1-7.74-8.1c0-4.5,3.15-8.1,7.44-8.1,4.59,0,7.23,3.66,7.23,8.22a6.28,6.28,0,0,1,0,.72h-12.3A5.44,5.44,0,0,0,115.22,365.85Zm4.53-7c-.24-2.82-1.86-5.28-5-5.28-2.7,0-4.74,2.25-5,5.28Z"/><path class="cls-1" d="M132.71,367.86a8.1,8.1,0,1,1,6.21-13.44L137.39,356a6.26,6.26,0,0,0-4.71-2.34,5.73,5.73,0,0,0-5.55,6,5.8,5.8,0,0,0,5.7,6.06,6.4,6.4,0,0,0,4.74-2.31l1.47,1.38A8,8,0,0,1,132.71,367.86Z"/><path class="cls-1" d="M145.55,363.09a2.29,2.29,0,0,0,2.61,2.58,4.86,4.86,0,0,0,2.25-.54v2a5.81,5.81,0,0,1-2.79.66c-2.49,0-4.38-1.23-4.38-4.38V354h-2.16v-2h2.16v-4.68h2.31V352h4.92v2h-4.92Z"/><path class="cls-1" d="M154.19,348.6v-2.55h2.64v2.55Zm.15,18.9V352h2.31V367.5Z"/><path class="cls-1" d="M168.68,367.86a8,8,0,0,1-8-8.07,8.09,8.09,0,1,1,8,8.07Zm0-14.16a5.7,5.7,0,0,0-5.67,6,5.83,5.83,0,0,0,5.73,6.06,5.71,5.71,0,0,0,5.7-6A5.86,5.86,0,0,0,168.68,353.7Z"/><path class="cls-1" d="M182.87,367.5h-2.31V352h2.31v2.7a5.87,5.87,0,0,1,5.31-3c3.75,0,5.94,2.52,5.94,6.21v9.63h-2.31v-9.06c0-2.88-1.56-4.68-4.29-4.68a4.56,4.56,0,0,0-4.65,4.86Z"/><path class="cls-1" d="M215.45,367.83a7,7,0,0,1-5.94-3.3v7.77H207.2V352h2.31v3.12a7,7,0,0,1,5.94-3.45c3.72,0,7.41,2.94,7.41,8.07S219.2,367.83,215.45,367.83Zm-.42-14.1a6,6,0,0,0,0,12c3,0,5.46-2.22,5.46-6S218,353.73,215,353.73Z"/><path class="cls-1" d="M227.6,355l-.69-1.89a12.81,12.81,0,0,1,5.64-1.29c4.23,0,6.6,2.16,6.6,6.24v9.48h-2.22v-2.34a6.8,6.8,0,0,1-5.61,2.67c-2.88,0-5.79-1.62-5.79-4.86s2.7-5,6.63-5a16.47,16.47,0,0,1,4.77.66v-.54c0-2.79-1.71-4.23-4.62-4.23A10.8,10.8,0,0,0,227.6,355Zm.27,7.92c0,2,1.8,3.12,3.9,3.12,2.85,0,5.19-1.74,5.19-4.2v-1.5a16.18,16.18,0,0,0-4.56-.66C229.49,359.64,227.87,360.9,227.87,362.88Z"/><path class="cls-1" d="M246,367.5h-2.31V352H246V356a6.64,6.64,0,0,1,6.33-4.32v2.49h-.18c-3.39,0-6.15,2.43-6.15,7.11Z"/><path class="cls-1" d="M275,352h2.28V367.5H275v-2.7a5.91,5.91,0,0,1-5.31,3c-3.75,0-5.94-2.52-5.94-6.21V352H266v9.06c0,2.88,1.56,4.68,4.29,4.68a4.58,4.58,0,0,0,4.65-4.86Z"/><path class="cls-1" d="M284.33,367.5H282V352h2.31v2.7a5.87,5.87,0,0,1,5.31-3c3.75,0,5.94,2.52,5.94,6.21v9.63h-2.31v-9.06c0-2.88-1.56-4.68-4.29-4.68a4.56,4.56,0,0,0-4.65,4.86Z"/><path class="cls-1" d="M311.18,352V368.4c0,2.73-1.44,4-3.78,4a5.73,5.73,0,0,1-1.44-.15v-1.89a7.59,7.59,0,0,0,1.14.09c1,0,1.77-.63,1.77-2.07V352Zm-2.46-3.39v-2.55h2.64v2.55Z"/><path class="cls-1" d="M327.14,352h2.28V367.5h-2.28v-2.7a5.92,5.92,0,0,1-5.31,3c-3.75,0-5.94-2.52-5.94-6.21V352h2.31v9.06c0,2.88,1.56,4.68,4.29,4.68a4.59,4.59,0,0,0,4.65-4.86Z"/><path class="cls-1" d="M336.5,367.5h-2.31V352h2.31V356a6.62,6.62,0,0,1,6.33-4.32v2.49h-.18c-3.4,0-6.15,2.43-6.15,7.11Z"/><path class="cls-1" d="M353.48,368c-1.32,3.21-2.82,4.38-5.16,4.38a7,7,0,0,1-3.3-.78l.78-1.83a4.85,4.85,0,0,0,2.43.57c1.38,0,2.25-.72,3.18-2.91L344.36,352h2.55l5.64,12.93,5-12.93H360Z"/><path class="cls-1" d="M379.88,352.05v2H375V367.5h-2.31V354h-2.13v-2h2.13v-1.35c0-3.39,1.71-5.19,4.68-5.19a7,7,0,0,1,2.55.39v2a7.72,7.72,0,0,0-2.25-.39c-1.8,0-2.7,1.08-2.7,3.3v1.26Z"/><path class="cls-1" d="M382.46,348.6v-2.55h2.63v2.55Zm.15,18.9V352h2.31V367.5Z"/><path class="cls-1" d="M392.17,367.5h-2.3V352h2.3v2.7a5.89,5.89,0,0,1,5.31-3c3.75,0,5.94,2.52,5.94,6.21v9.63h-2.31v-9.06c0-2.88-1.56-4.68-4.28-4.68a4.57,4.57,0,0,0-4.66,4.86Z"/><path class="cls-1" d="M408.82,355l-.69-1.89a12.81,12.81,0,0,1,5.64-1.29c4.23,0,6.6,2.16,6.6,6.24v9.48h-2.22v-2.34a6.8,6.8,0,0,1-5.61,2.67c-2.87,0-5.79-1.62-5.79-4.86s2.7-5,6.63-5a16.47,16.47,0,0,1,4.77.66v-.54c0-2.79-1.71-4.23-4.62-4.23A10.8,10.8,0,0,0,408.82,355Zm.27,7.92c0,2,1.8,3.12,3.9,3.12,2.85,0,5.19-1.74,5.19-4.2v-1.5a16.18,16.18,0,0,0-4.56-.66C410.71,359.64,409.09,360.9,409.09,362.88Z"/><path class="cls-1" d="M425.08,367.5V345.6h2.31v21.9Z"/><path class="cls-1" d="M37.82,403.5v-3.12a7,7,0,0,1-5.94,3.45c-3.72,0-7.41-2.94-7.41-8.07s3.69-8.1,7.41-8.1a7,7,0,0,1,5.94,3.3V381.6h2.31v21.9ZM32.3,389.73c-3,0-5.46,2.22-5.46,6s2.52,6,5.46,6a6,6,0,0,0,0-12Z"/><path class="cls-1" d="M51.71,401.85a6.42,6.42,0,0,0,4.89-2.19L58,401a8,8,0,0,1-6.39,2.91,7.72,7.72,0,0,1-7.74-8.1c0-4.5,3.15-8.1,7.44-8.1,4.59,0,7.23,3.66,7.23,8.22a6.28,6.28,0,0,1,0,.72H46.25A5.44,5.44,0,0,0,51.71,401.85Zm4.53-7c-.24-2.82-1.86-5.28-5-5.28-2.7,0-4.74,2.25-5,5.28Z"/><path class="cls-1" d="M67.34,403.8a10.67,10.67,0,0,1-6.42-2.28l1.17-1.65a9.07,9.07,0,0,0,5.37,2c1.86,0,3.21-1,3.21-2.46v-.06c0-1.56-1.83-2.16-3.87-2.73-2.43-.69-5.13-1.53-5.13-4.38v-.06c0-2.67,2.22-4.44,5.28-4.44a10.6,10.6,0,0,1,5.58,1.71l-1,1.74a8.77,8.77,0,0,0-4.59-1.5c-1.83,0-3,1-3,2.25V392c0,1.47,1.92,2,4,2.67,2.4.72,5,1.65,5,4.44v.06C72.86,402.09,70.43,403.8,67.34,403.8Z"/><path class="cls-1" d="M85.34,384.63V382.5H98.75v1.74l-6.6,7.32c3.69.3,6.93,2.07,6.93,5.94s-3.12,6.36-7,6.36a9.53,9.53,0,0,1-7.83-3.75l1.71-1.53a7.62,7.62,0,0,0,6.15,3.12c2.55,0,4.59-1.62,4.59-4.11s-2.4-4.08-5.88-4.08H89.45L89,392.1l6.63-7.47Z"/><path class="cls-1" d="M129.62,387.66c3.57,0,5.76,2.4,5.76,6.24v9.6h-2.31v-9.06c0-3-1.5-4.68-4-4.68-2.34,0-4.29,1.74-4.29,4.8v8.94h-2.28v-9.12c0-2.91-1.53-4.62-4-4.62s-4.32,2-4.32,4.89v8.85h-2.31V388h2.31v2.61a5.67,5.67,0,0,1,5-2.94,5.27,5.27,0,0,1,5,3.09A6.18,6.18,0,0,1,129.62,387.66Z"/><path class="cls-1" d="M146.81,401.85a6.42,6.42,0,0,0,4.89-2.19l1.44,1.29a8,8,0,0,1-6.39,2.91,7.72,7.72,0,0,1-7.74-8.1c0-4.5,3.15-8.1,7.44-8.1,4.59,0,7.23,3.66,7.23,8.22a6.28,6.28,0,0,1,0,.72h-12.3A5.44,5.44,0,0,0,146.81,401.85Zm4.53-7c-.24-2.82-1.86-5.28-5-5.28-2.7,0-4.74,2.25-5,5.28Z"/><path class="cls-1" d="M157.37,384.6v-2.55H160v2.55Zm.15,18.9V388h2.31V403.5Z"/><path class="cls-1" d="M165,403.5V381.6h2.31v21.9Z"/><path class="cls-1" d="M172.46,403.5V381.6h2.31v21.9Z"/><path class="cls-1" d="M186.56,401.85a6.42,6.42,0,0,0,4.89-2.19l1.44,1.29a8,8,0,0,1-6.39,2.91,7.72,7.72,0,0,1-7.74-8.1c0-4.5,3.15-8.1,7.44-8.1,4.59,0,7.23,3.66,7.23,8.22a6.28,6.28,0,0,1,0,.72H181.1A5.44,5.44,0,0,0,186.56,401.85Zm4.53-7c-.24-2.82-1.86-5.28-5-5.28-2.7,0-4.74,2.25-5,5.28Z"/><path class="cls-1" d="M208.07,388h2.28V403.5h-2.28v-2.7a5.91,5.91,0,0,1-5.31,3c-3.75,0-5.94-2.52-5.94-6.21V388h2.31v9.06c0,2.88,1.56,4.68,4.29,4.68a4.58,4.58,0,0,0,4.65-4.86Z"/><path class="cls-1" d="M217.43,403.5h-2.31V388h2.31V392a6.64,6.64,0,0,1,6.33-4.32v2.49h-.18c-3.39,0-6.15,2.43-6.15,7.11Z"/><path class="cls-1" d="M233.69,401.85a6.42,6.42,0,0,0,4.89-2.19L240,401a8,8,0,0,1-6.39,2.91,7.72,7.72,0,0,1-7.74-8.1c0-4.5,3.15-8.1,7.44-8.1,4.59,0,7.23,3.66,7.23,8.22a6.28,6.28,0,0,1,0,.72h-12.3A5.44,5.44,0,0,0,233.69,401.85Zm4.53-7c-.24-2.82-1.86-5.28-4.95-5.28-2.7,0-4.74,2.25-5,5.28Z"/><path class="cls-1" d="M249.32,403.8a10.67,10.67,0,0,1-6.42-2.28l1.17-1.65a9.07,9.07,0,0,0,5.37,2c1.86,0,3.21-1,3.21-2.46v-.06c0-1.56-1.83-2.16-3.87-2.73-2.43-.69-5.13-1.53-5.13-4.38v-.06c0-2.67,2.22-4.44,5.28-4.44a10.6,10.6,0,0,1,5.58,1.71l-1,1.74a8.77,8.77,0,0,0-4.59-1.5c-1.83,0-3,1-3,2.25V392c0,1.47,1.92,2,4,2.67,2.4.72,5,1.65,5,4.44v.06C254.84,402.09,252.41,403.8,249.32,403.8Z"/><path class="cls-1" d="M274.28,403.86a8.1,8.1,0,1,1,6.21-13.44L279,392a6.26,6.26,0,0,0-4.71-2.34,5.73,5.73,0,0,0-5.55,6,5.8,5.8,0,0,0,5.7,6.06,6.4,6.4,0,0,0,4.74-2.31l1.47,1.38A8,8,0,0,1,274.28,403.86Z"/><path class="cls-1" d="M286.31,403.5H284V388h2.31V392a6.64,6.64,0,0,1,6.33-4.32v2.49h-.18c-3.39,0-6.15,2.43-6.15,7.11Z"/><path class="cls-1" d="M302.57,401.85a6.42,6.42,0,0,0,4.89-2.19l1.43,1.29a8,8,0,0,1-6.39,2.91,7.72,7.72,0,0,1-7.73-8.1c0-4.5,3.15-8.1,7.44-8.1,4.58,0,7.22,3.66,7.22,8.22,0,.21,0,.45,0,.72h-12.3A5.43,5.43,0,0,0,302.57,401.85Zm4.52-7c-.24-2.82-1.85-5.28-4.94-5.28-2.7,0-4.74,2.25-5,5.28Zm-6.32-9.24,2.85-4.35,2.39,1.11-3.39,3.24Z"/><path class="cls-1" d="M314,391l-.68-1.89a12.81,12.81,0,0,1,5.64-1.29c4.22,0,6.59,2.16,6.59,6.24v9.48h-2.22v-2.34a6.78,6.78,0,0,1-5.61,2.67c-2.87,0-5.78-1.62-5.78-4.86s2.69-5,6.63-5a16.4,16.4,0,0,1,4.76.66v-.54c0-2.79-1.71-4.23-4.62-4.23A10.84,10.84,0,0,0,314,391Zm.28,7.92c0,2,1.8,3.12,3.89,3.12,2.86,0,5.2-1.74,5.2-4.2v-1.5a16.26,16.26,0,0,0-4.57-.66C315.86,395.64,314.24,396.9,314.24,398.88Z"/><path class="cls-1" d="M333.14,399.09a2.29,2.29,0,0,0,2.61,2.58,4.86,4.86,0,0,0,2.25-.54v2a5.81,5.81,0,0,1-2.79.66c-2.49,0-4.38-1.23-4.38-4.38V390h-2.16v-2h2.16v-4.68h2.31V388h4.91v2h-4.91Z"/><path class="cls-1" d="M341.78,384.6v-2.55h2.64v2.55Zm.15,18.9V388h2.31V403.5Z"/><path class="cls-1" d="M356.26,403.86a8,8,0,0,1-8-8.07,8.08,8.08,0,1,1,8,8.07Zm0-14.16c-3.35,0-5.66,2.67-5.66,6a5.83,5.83,0,0,0,5.73,6.06,5.71,5.71,0,0,0,5.69-6A5.85,5.85,0,0,0,356.26,389.7Z"/><path class="cls-1" d="M370.46,403.5h-2.31V388h2.31v2.7a5.86,5.86,0,0,1,5.3-3c3.75,0,5.95,2.52,5.95,6.21v9.63h-2.32v-9.06c0-2.88-1.56-4.68-4.28-4.68a4.56,4.56,0,0,0-4.65,4.86Z"/><path class="cls-1" d="M391.33,403.8a10.66,10.66,0,0,1-6.41-2.28l1.16-1.65a9.07,9.07,0,0,0,5.38,2c1.85,0,3.21-1,3.21-2.46v-.06c0-1.56-1.84-2.16-3.88-2.73-2.42-.69-5.12-1.53-5.12-4.38v-.06c0-2.67,2.21-4.44,5.27-4.44a10.6,10.6,0,0,1,5.58,1.71l-1,1.74a8.77,8.77,0,0,0-4.59-1.5c-1.83,0-3,1-3,2.25V392c0,1.47,1.92,2,4,2.67,2.39.72,5,1.65,5,4.44v.06C396.85,402.09,394.42,403.8,391.33,403.8Z"/><path class="cls-1" d="M33.62,439.83a7,7,0,0,1-5.94-3.3v7.77H25.37V424h2.31v3.12a7,7,0,0,1,5.94-3.45c3.72,0,7.41,2.94,7.41,8.07S37.37,439.83,33.62,439.83Zm-.42-14.1a6,6,0,0,0,0,12c3,0,5.46-2.22,5.46-6S36.14,425.73,33.2,425.73Z"/><path class="cls-1" d="M45.77,427l-.69-1.89a12.81,12.81,0,0,1,5.64-1.29c4.23,0,6.6,2.16,6.6,6.24v9.48H55.1v-2.34a6.8,6.8,0,0,1-5.61,2.67c-2.88,0-5.79-1.62-5.79-4.86s2.7-5,6.63-5a16.47,16.47,0,0,1,4.77.66v-.54c0-2.79-1.71-4.23-4.62-4.23A10.8,10.8,0,0,0,45.77,427Zm.27,7.92c0,2,1.8,3.12,3.9,3.12,2.85,0,5.19-1.74,5.19-4.2v-1.5a16.18,16.18,0,0,0-4.56-.66C47.66,431.64,46,432.9,46,434.88Z"/><path class="cls-1" d="M64.13,439.5H61.82V424h2.31V428a6.64,6.64,0,0,1,6.33-4.32v2.49h-.18c-3.39,0-6.15,2.43-6.15,7.11Z"/><path class="cls-1" d="M89.12,439.86a8.1,8.1,0,1,1,6.21-13.44L93.8,428a6.26,6.26,0,0,0-4.71-2.34,5.73,5.73,0,0,0-5.55,6,5.8,5.8,0,0,0,5.7,6.06A6.4,6.4,0,0,0,94,435.48l1.47,1.38A8,8,0,0,1,89.12,439.86Z"/><path class="cls-1" d="M99.74,427l-.69-1.89a12.81,12.81,0,0,1,5.64-1.29c4.23,0,6.6,2.16,6.6,6.24v9.48h-2.22v-2.34a6.8,6.8,0,0,1-5.61,2.67c-2.88,0-5.79-1.62-5.79-4.86s2.7-5,6.63-5a16.47,16.47,0,0,1,4.77.66v-.54c0-2.79-1.71-4.23-4.62-4.23A10.8,10.8,0,0,0,99.74,427Zm.27,7.92c0,2,1.8,3.12,3.9,3.12,2.85,0,5.19-1.74,5.19-4.2v-1.5a16.18,16.18,0,0,0-4.56-.66C101.63,431.64,100,432.9,100,434.88Z"/><path class="cls-1" d="M118.91,435.09a2.29,2.29,0,0,0,2.61,2.58,4.86,4.86,0,0,0,2.25-.54v2a5.81,5.81,0,0,1-2.79.66c-2.49,0-4.38-1.23-4.38-4.38V426h-2.16v-2h2.16v-4.68h2.31V424h4.92v2h-4.92Z"/><path class="cls-1" d="M134.33,437.85a6.42,6.42,0,0,0,4.89-2.19l1.44,1.29a8,8,0,0,1-6.39,2.91,7.72,7.72,0,0,1-7.74-8.1c0-4.5,3.15-8.1,7.44-8.1,4.59,0,7.23,3.66,7.23,8.22a6.28,6.28,0,0,1,0,.72h-12.3A5.44,5.44,0,0,0,134.33,437.85Zm4.53-7c-.24-2.82-1.86-5.28-5-5.28-2.7,0-4.74,2.25-5,5.28Zm-6.33-9.24,2.85-4.35,2.4,1.11-3.39,3.24Z"/><path class="cls-1" d="M151.7,444.36a12.16,12.16,0,0,1-7-2.16l1-1.8a9.91,9.91,0,0,0,6,2c3.42,0,5.64-1.89,5.64-5.52V435a7.35,7.35,0,0,1-6.09,3.27,7.32,7.32,0,0,1,0-14.64,7.27,7.27,0,0,1,6.06,3.12V424h2.31V436.8C159.59,441.81,156.47,444.36,151.7,444.36Zm0-18.66A5.12,5.12,0,0,0,146.3,431a5.24,5.24,0,0,0,5.37,5.31,5.3,5.3,0,1,0,0-10.56Z"/><path class="cls-1" d="M171.41,439.86a8,8,0,0,1-8-8.07,8.09,8.09,0,1,1,8,8.07Zm0-14.16a5.7,5.7,0,0,0-5.67,6,5.83,5.83,0,0,0,5.73,6.06,5.71,5.71,0,0,0,5.7-6A5.86,5.86,0,0,0,171.41,425.7Z"/><path class="cls-1" d="M185.6,439.5h-2.31V424h2.31V428a6.64,6.64,0,0,1,6.33-4.32v2.49h-.18c-3.39,0-6.15,2.43-6.15,7.11Z"/><path class="cls-1" d="M195.08,420.6v-2.55h2.64v2.55Zm.15,18.9V424h2.31V439.5Z"/><path class="cls-1" d="M209.33,437.85a6.42,6.42,0,0,0,4.89-2.19l1.44,1.29a8,8,0,0,1-6.39,2.91,7.72,7.72,0,0,1-7.74-8.1c0-4.5,3.15-8.1,7.44-8.1,4.59,0,7.23,3.66,7.23,8.22a6.28,6.28,0,0,1,0,.72h-12.3A5.44,5.44,0,0,0,209.33,437.85Zm4.53-7c-.24-2.82-1.86-5.28-5-5.28-2.7,0-4.74,2.25-5,5.28Z"/><path class="cls-1" d="M235.25,437.85a6.42,6.42,0,0,0,4.89-2.19l1.44,1.29a8,8,0,0,1-6.39,2.91,7.72,7.72,0,0,1-7.74-8.1c0-4.5,3.15-8.1,7.44-8.1,4.59,0,7.23,3.66,7.23,8.22a6.28,6.28,0,0,1,0,.72h-12.3A5.44,5.44,0,0,0,235.25,437.85Zm4.53-7c-.24-2.82-1.86-5.28-4.95-5.28-2.7,0-4.74,2.25-5,5.28Z"/><path class="cls-1" d="M248.87,435.09a2.29,2.29,0,0,0,2.61,2.58,4.86,4.86,0,0,0,2.25-.54v2a5.81,5.81,0,0,1-2.79.66c-2.49,0-4.38-1.23-4.38-4.38V426H244.4v-2h2.16v-4.68h2.31V424h4.92v2h-4.92Z"/><path class="cls-1" d="M278.48,439.5v-3.12a7,7,0,0,1-5.94,3.45c-3.72,0-7.41-2.94-7.41-8.07s3.69-8.1,7.41-8.1a7,7,0,0,1,5.94,3.3V417.6h2.31v21.9ZM273,425.73c-3,0-5.46,2.22-5.46,6s2.52,6,5.46,6a6,6,0,0,0,0-12Z"/><path class="cls-1" d="M292.37,437.85a6.42,6.42,0,0,0,4.89-2.19L298.7,437a8,8,0,0,1-6.39,2.91,7.72,7.72,0,0,1-7.74-8.1c0-4.5,3.15-8.1,7.44-8.1,4.59,0,7.23,3.66,7.23,8.22a6.28,6.28,0,0,1,0,.72h-12.3A5.44,5.44,0,0,0,292.37,437.85Zm4.53-7c-.24-2.82-1.86-5.28-4.95-5.28-2.7,0-4.74,2.25-5,5.28Z"/><path class="cls-1" d="M308,439.8a10.67,10.67,0,0,1-6.42-2.28l1.17-1.65a9.07,9.07,0,0,0,5.37,2c1.86,0,3.21-1,3.21-2.46v-.06c0-1.56-1.83-2.16-3.87-2.73-2.43-.69-5.13-1.53-5.13-4.38v-.06c0-2.67,2.22-4.44,5.28-4.44a10.6,10.6,0,0,1,5.58,1.71l-1.05,1.74a8.77,8.77,0,0,0-4.59-1.5c-1.83,0-3,1-3,2.25V428c0,1.47,1.92,2,4,2.67,2.4.72,5,1.65,5,4.44v.06C313.52,438.09,311.09,439.8,308,439.8Z"/><path class="cls-1" d="M326,420.63V418.5h13.41v1.74l-6.6,7.32c3.69.3,6.93,2.07,6.93,5.94s-3.12,6.36-7,6.36a9.53,9.53,0,0,1-7.83-3.75l1.71-1.53a7.62,7.62,0,0,0,6.15,3.12c2.55,0,4.59-1.62,4.59-4.11s-2.4-4.08-5.88-4.08h-1.35l-.48-1.41,6.63-7.47Z"/><path class="cls-1" d="M43.13,459.66c3.57,0,5.76,2.4,5.76,6.24v9.6H46.58v-9.06c0-3-1.5-4.68-4-4.68-2.34,0-4.29,1.74-4.29,4.8v8.94H36v-9.12c0-2.91-1.53-4.62-4-4.62s-4.32,2-4.32,4.89v8.85H25.37V460h2.31v2.61a5.67,5.67,0,0,1,5-2.94,5.27,5.27,0,0,1,5,3.09A6.18,6.18,0,0,1,43.13,459.66Z"/><path class="cls-1" d="M60.32,473.85a6.42,6.42,0,0,0,4.89-2.19L66.65,473a8,8,0,0,1-6.39,2.91,7.72,7.72,0,0,1-7.74-8.1c0-4.5,3.15-8.1,7.44-8.1,4.59,0,7.23,3.66,7.23,8.22a6.28,6.28,0,0,1,0,.72H54.86A5.44,5.44,0,0,0,60.32,473.85Zm4.53-7c-.24-2.82-1.86-5.28-4.95-5.28-2.7,0-4.74,2.25-5,5.28Z"/><path class="cls-1" d="M70.88,456.6v-2.55h2.64v2.55ZM71,475.5V460h2.31V475.5Z"/><path class="cls-1" d="M78.5,475.5V453.6h2.31v21.9Z"/><path class="cls-1" d="M86,475.5V453.6h2.31v21.9Z"/><path class="cls-1" d="M100.07,473.85a6.42,6.42,0,0,0,4.89-2.19L106.4,473a8,8,0,0,1-6.39,2.91,7.72,7.72,0,0,1-7.74-8.1c0-4.5,3.15-8.1,7.44-8.1,4.59,0,7.23,3.66,7.23,8.22a6.28,6.28,0,0,1,0,.72H94.61A5.44,5.44,0,0,0,100.07,473.85Zm4.53-7c-.24-2.82-1.86-5.28-4.95-5.28-2.7,0-4.74,2.25-5,5.28Z"/><path class="cls-1" d="M121.58,460h2.28V475.5h-2.28v-2.7a5.91,5.91,0,0,1-5.31,3c-3.75,0-5.94-2.52-5.94-6.21V460h2.31v9.06c0,2.88,1.56,4.68,4.29,4.68a4.58,4.58,0,0,0,4.65-4.86Z"/><path class="cls-1" d="M130.94,475.5h-2.31V460h2.31V464a6.64,6.64,0,0,1,6.33-4.32v2.49h-.18c-3.39,0-6.15,2.43-6.15,7.11Z"/><path class="cls-1" d="M147.2,473.85a6.42,6.42,0,0,0,4.89-2.19l1.44,1.29a8,8,0,0,1-6.39,2.91,7.72,7.72,0,0,1-7.74-8.1c0-4.5,3.15-8.1,7.44-8.1,4.59,0,7.23,3.66,7.23,8.22a6.28,6.28,0,0,1,0,.72h-12.3A5.44,5.44,0,0,0,147.2,473.85Zm4.53-7c-.24-2.82-1.86-5.28-4.95-5.28-2.7,0-4.74,2.25-5,5.28Z"/><path class="cls-1" d="M162.83,475.8a10.67,10.67,0,0,1-6.42-2.28l1.17-1.65a9.07,9.07,0,0,0,5.37,2c1.86,0,3.21-1,3.21-2.46v-.06c0-1.56-1.83-2.16-3.87-2.73-2.43-.69-5.13-1.53-5.13-4.38v-.06c0-2.67,2.22-4.44,5.28-4.44a10.6,10.6,0,0,1,5.58,1.71L167,463.17a8.77,8.77,0,0,0-4.59-1.5c-1.83,0-3,1-3,2.25V464c0,1.47,1.92,2,4,2.67,2.4.72,5,1.65,5,4.44v.06C168.35,474.09,165.92,475.8,162.83,475.8Z"/><path class="cls-1" d="M187.79,475.86a8,8,0,0,1-7.95-8.07,8.06,8.06,0,0,1,8-8.13,7.56,7.56,0,0,1,6.81,4.17,7,7,0,0,1,6.36-4.17c4.53,0,7.17,3.66,7.17,8.22a6.28,6.28,0,0,1,0,.72H195.92a5.41,5.41,0,0,0,5.43,5.25,6.42,6.42,0,0,0,4.89-2.19l1.44,1.29a7.94,7.94,0,0,1-6.36,2.91,7.27,7.27,0,0,1-6.66-4.2A7.65,7.65,0,0,1,187.79,475.86Zm.06-14.16c-3.33,0-5.64,2.67-5.64,6a5.82,5.82,0,0,0,5.7,6.06,5.68,5.68,0,0,0,5.64-6A5.83,5.83,0,0,0,187.85,461.7Zm18,5.19c-.24-2.82-1.86-5.28-4.92-5.28-2.73,0-4.77,2.25-5.07,5.28Z"/><path class="cls-1" d="M222.86,460h2.28V475.5h-2.28v-2.7a5.91,5.91,0,0,1-5.31,3c-3.75,0-5.94-2.52-5.94-6.21V460h2.31v9.06c0,2.88,1.56,4.68,4.29,4.68a4.58,4.58,0,0,0,4.65-4.86Z"/><path class="cls-1" d="M241.4,460h2.49l-6.75,15.63h-2L228.38,460h2.55l5.22,12.87Z"/><path class="cls-1" d="M249.41,475.5H247.1V460h2.31V464a6.62,6.62,0,0,1,6.33-4.32v2.49h-.18c-3.39,0-6.15,2.43-6.15,7.11Z"/><path class="cls-1" d="M265.67,473.85a6.42,6.42,0,0,0,4.89-2.19L272,473a8,8,0,0,1-6.39,2.91,7.72,7.72,0,0,1-7.74-8.1c0-4.5,3.15-8.1,7.44-8.1,4.59,0,7.23,3.66,7.23,8.22a6.28,6.28,0,0,1,0,.72h-12.3A5.44,5.44,0,0,0,265.67,473.85Zm4.53-7c-.24-2.82-1.86-5.28-4.95-5.28-2.7,0-4.74,2.25-5,5.28Z"/><path class="cls-1" d="M281.3,475.8a10.67,10.67,0,0,1-6.42-2.28l1.17-1.65a9.07,9.07,0,0,0,5.37,2c1.86,0,3.21-1,3.21-2.46v-.06c0-1.56-1.83-2.16-3.87-2.73-2.43-.69-5.13-1.53-5.13-4.38v-.06c0-2.67,2.22-4.44,5.28-4.44a10.6,10.6,0,0,1,5.58,1.71l-1.05,1.74a8.77,8.77,0,0,0-4.59-1.5c-1.83,0-3,1-3,2.25V464c0,1.47,1.92,2,4,2.67,2.4.72,5,1.65,5,4.44v.06C286.82,474.09,284.39,475.8,281.3,475.8Z"/><path class="cls-1" d="M302.39,471.09a2.29,2.29,0,0,0,2.61,2.58,4.86,4.86,0,0,0,2.25-.54v2a5.81,5.81,0,0,1-2.79.66c-2.49,0-4.38-1.23-4.38-4.38V462h-2.16v-2h2.16v-4.68h2.31V460h4.91v2h-4.91Z"/><path class="cls-1" d="M318,475.86a8,8,0,0,1-8-8.07,8.09,8.09,0,1,1,8,8.07Zm0-14.16c-3.36,0-5.66,2.67-5.66,6a5.82,5.82,0,0,0,5.72,6.06,5.71,5.71,0,0,0,5.7-6A5.86,5.86,0,0,0,318,461.7Z"/><path class="cls-1" d="M340.93,460h2.28V475.5h-2.28v-2.7a5.91,5.91,0,0,1-5.31,3c-3.74,0-5.94-2.52-5.94-6.21V460H332v9.06c0,2.88,1.56,4.68,4.29,4.68a4.58,4.58,0,0,0,4.65-4.86Z"/><path class="cls-1" d="M351.1,471.09a2.29,2.29,0,0,0,2.61,2.58,4.86,4.86,0,0,0,2.25-.54v2a5.81,5.81,0,0,1-2.79.66c-2.49,0-4.38-1.23-4.38-4.38V462h-2.16v-2h2.16v-4.68h2.31V460H356v2H351.1Z"/><path class="cls-1" d="M366.52,473.85a6.42,6.42,0,0,0,4.89-2.19l1.44,1.29a8,8,0,0,1-6.39,2.91,7.72,7.72,0,0,1-7.74-8.1c0-4.5,3.15-8.1,7.44-8.1,4.59,0,7.23,3.66,7.23,8.22a6.28,6.28,0,0,1,0,.72h-12.3A5.44,5.44,0,0,0,366.52,473.85Zm4.53-7c-.24-2.82-1.86-5.28-4.95-5.28-2.7,0-4.74,2.25-5,5.28Z"/><path class="cls-1" d="M382.15,475.8a10.67,10.67,0,0,1-6.42-2.28l1.17-1.65a9.07,9.07,0,0,0,5.37,2c1.86,0,3.21-1,3.21-2.46v-.06c0-1.56-1.83-2.16-3.87-2.73-2.43-.69-5.13-1.53-5.13-4.38v-.06c0-2.67,2.22-4.44,5.28-4.44a10.6,10.6,0,0,1,5.58,1.71l-1,1.74a8.77,8.77,0,0,0-4.59-1.5c-1.83,0-3,1-3,2.25V464c0,1.47,1.92,2,4,2.67,2.4.72,5,1.65,5,4.44v.06C387.67,474.09,385.24,475.8,382.15,475.8Z"/><path class="cls-1" d="M32.36,511.86a8.1,8.1,0,1,1,6.21-13.44L37,500a6.26,6.26,0,0,0-4.71-2.34,5.73,5.73,0,0,0-5.55,6,5.8,5.8,0,0,0,5.7,6.06,6.4,6.4,0,0,0,4.74-2.31l1.47,1.38A8,8,0,0,1,32.36,511.86Z"/><path class="cls-1" d="M43,499l-.69-1.89a12.81,12.81,0,0,1,5.64-1.29c4.23,0,6.6,2.16,6.6,6.24v9.48H52.31v-2.34a6.8,6.8,0,0,1-5.61,2.67c-2.88,0-5.79-1.62-5.79-4.86s2.7-5,6.63-5a16.47,16.47,0,0,1,4.77.66v-.54c0-2.79-1.71-4.23-4.62-4.23A10.8,10.8,0,0,0,43,499Zm.27,7.92c0,2,1.8,3.12,3.9,3.12,2.85,0,5.19-1.74,5.19-4.2v-1.5a16.18,16.18,0,0,0-4.56-.66C44.87,503.64,43.25,504.9,43.25,506.88Z"/><path class="cls-1" d="M62.15,507.09a2.29,2.29,0,0,0,2.61,2.58,4.86,4.86,0,0,0,2.25-.54v2a5.81,5.81,0,0,1-2.79.66c-2.49,0-4.38-1.23-4.38-4.38V498H57.68v-2h2.16v-4.68h2.31V496h4.92v2H62.15Z"/><path class="cls-1" d="M77.57,509.85a6.42,6.42,0,0,0,4.89-2.19L83.9,509a8,8,0,0,1-6.39,2.91,7.72,7.72,0,0,1-7.74-8.1c0-4.5,3.15-8.1,7.44-8.1,4.59,0,7.23,3.66,7.23,8.22a6.28,6.28,0,0,1,0,.72H72.11A5.44,5.44,0,0,0,77.57,509.85Zm4.53-7c-.24-2.82-1.86-5.28-4.95-5.28-2.7,0-4.74,2.25-5,5.28Zm-6.33-9.24,2.85-4.35,2.4,1.11-3.39,3.24Z"/><path class="cls-1" d="M94.94,516.36a12.16,12.16,0,0,1-7-2.16l1-1.8a9.91,9.91,0,0,0,6,2c3.42,0,5.64-1.89,5.64-5.52V507a7.35,7.35,0,0,1-6.09,3.27,7.32,7.32,0,0,1,0-14.64,7.27,7.27,0,0,1,6.06,3.12V496h2.31V508.8C102.83,513.81,99.71,516.36,94.94,516.36Zm0-18.66A5.12,5.12,0,0,0,89.54,503a5.24,5.24,0,0,0,5.37,5.31,5.3,5.3,0,1,0,0-10.56Z"/><path class="cls-1" d="M114.65,511.86a8,8,0,0,1-8-8.07,8.09,8.09,0,1,1,8,8.07Zm0-14.16a5.7,5.7,0,0,0-5.67,6,5.83,5.83,0,0,0,5.73,6.06,5.71,5.71,0,0,0,5.7-6A5.86,5.86,0,0,0,114.65,497.7Z"/><path class="cls-1" d="M128.84,511.5h-2.31V496h2.31V500a6.64,6.64,0,0,1,6.33-4.32v2.49H135c-3.39,0-6.15,2.43-6.15,7.11Z"/><path class="cls-1" d="M138.32,492.6v-2.55H141v2.55Zm.15,18.9V496h2.31V511.5Z"/><path class="cls-1" d="M152.57,509.85a6.42,6.42,0,0,0,4.89-2.19L158.9,509a8,8,0,0,1-6.39,2.91,7.72,7.72,0,0,1-7.74-8.1c0-4.5,3.15-8.1,7.44-8.1,4.59,0,7.23,3.66,7.23,8.22a6.28,6.28,0,0,1,0,.72h-12.3A5.44,5.44,0,0,0,152.57,509.85Zm4.53-7c-.24-2.82-1.86-5.28-4.95-5.28-2.7,0-4.74,2.25-5,5.28Z"/><path class="cls-1" d="M168.2,511.8a10.67,10.67,0,0,1-6.42-2.28l1.17-1.65a9.07,9.07,0,0,0,5.37,2c1.86,0,3.21-1,3.21-2.46v-.06c0-1.56-1.83-2.16-3.87-2.73-2.43-.69-5.13-1.53-5.13-4.38v-.06c0-2.67,2.22-4.44,5.28-4.44a10.6,10.6,0,0,1,5.58,1.71l-1,1.74a8.77,8.77,0,0,0-4.59-1.5c-1.83,0-3,1-3,2.25V500c0,1.47,1.92,2,4,2.67,2.4.72,5,1.65,5,4.44v.06C173.72,510.09,171.29,511.8,168.2,511.8Z"/><path class="cls-1" d="M193.16,511.86a8.1,8.1,0,1,1,6.21-13.44L197.84,500a6.26,6.26,0,0,0-4.71-2.34,5.73,5.73,0,0,0-5.55,6,5.8,5.8,0,0,0,5.7,6.06,6.4,6.4,0,0,0,4.74-2.31l1.47,1.38A8,8,0,0,1,193.16,511.86Z"/><path class="cls-1" d="M210,511.86a8,8,0,0,1-8-8.07,8.09,8.09,0,1,1,8,8.07Zm0-14.16a5.7,5.7,0,0,0-5.67,6,5.83,5.83,0,0,0,5.73,6.06,5.71,5.71,0,0,0,5.7-6A5.86,5.86,0,0,0,210,497.7Z"/><path class="cls-1" d="M224.15,511.5h-2.31V496h2.31v2.7a5.87,5.87,0,0,1,5.31-3c3.75,0,5.94,2.52,5.94,6.21v9.63h-2.31v-9.06c0-2.88-1.56-4.68-4.29-4.68a4.56,4.56,0,0,0-4.65,4.86Z"/><path class="cls-1" d="M248,496.05v2h-4.89V511.5h-2.31V498h-2.13v-2h2.13v-1.35c0-3.39,1.71-5.19,4.68-5.19a7,7,0,0,1,2.55.39v2a7.72,7.72,0,0,0-2.25-.39c-1.8,0-2.7,1.08-2.7,3.3v1.26Z"/><path class="cls-1" d="M257.57,511.86a8,8,0,0,1-8-8.07,8.09,8.09,0,1,1,8,8.07Zm0-14.16a5.7,5.7,0,0,0-5.67,6,5.83,5.83,0,0,0,5.73,6.06,5.71,5.71,0,0,0,5.7-6A5.86,5.86,0,0,0,257.57,497.7Z"/><path class="cls-1" d="M271.76,511.5h-2.31V496h2.31v2.7a5.87,5.87,0,0,1,5.31-3c3.75,0,5.94,2.52,5.94,6.21v9.63H280.7v-9.06c0-2.88-1.56-4.68-4.29-4.68a4.56,4.56,0,0,0-4.65,4.86Z"/><path class="cls-1" d="M300,511.5v-3.12a7,7,0,0,1-5.94,3.45c-3.72,0-7.41-2.94-7.41-8.07s3.69-8.1,7.41-8.1A7,7,0,0,1,300,499V489.6h2.31v21.9Zm-5.52-13.77c-3,0-5.46,2.22-5.46,6s2.52,6,5.46,6a6,6,0,0,0,0-12Z"/><path class="cls-1" d="M318,496h2.28V511.5H318v-2.7a5.91,5.91,0,0,1-5.31,3c-3.75,0-5.94-2.52-5.94-6.21V496h2.31v9.06c0,2.88,1.56,4.68,4.29,4.68a4.58,4.58,0,0,0,4.65-4.86Z"/><path class="cls-1" d="M331.91,509.85a6.42,6.42,0,0,0,4.89-2.19l1.44,1.29a8,8,0,0,1-6.39,2.91,7.72,7.72,0,0,1-7.74-8.1c0-4.5,3.15-8.1,7.44-8.1,4.59,0,7.23,3.66,7.23,8.22a6.28,6.28,0,0,1,0,.72h-12.3A5.44,5.44,0,0,0,331.91,509.85Zm4.53-7c-.24-2.82-1.86-5.28-4.95-5.28-2.7,0-4.74,2.25-5,5.28Z"/><path class="cls-1" d="M347.54,511.8a10.67,10.67,0,0,1-6.42-2.28l1.17-1.65a9.07,9.07,0,0,0,5.37,2c1.86,0,3.21-1,3.21-2.46v-.06c0-1.56-1.83-2.16-3.87-2.73-2.43-.69-5.13-1.53-5.13-4.38v-.06c0-2.67,2.22-4.44,5.28-4.44a10.6,10.6,0,0,1,5.58,1.71l-1.05,1.74a8.77,8.77,0,0,0-4.59-1.5c-1.83,0-3,1-3,2.25V500c0,1.47,1.92,2,4,2.67,2.4.72,5,1.65,5,4.44v.06C353.06,510.09,350.63,511.8,347.54,511.8Z"/><path class="cls-1" d="M356.66,511.5v-3.15h2.76v3.15Z"/></g></g></svg>