<svg xmlns="http://www.w3.org/2000/svg" viewBox="0 0 454.79 516.46"><defs><style>.cls-1{fill:#fff;}.cls-2{fill:#a8ca59;}.cls-3{fill:none;stroke:#fff;stroke-miterlimit:10;stroke-width:0.5px;}</style></defs><g id="Layer_2" data-name="Layer 2"><g id="Calque_1" data-name="Calque 1"><path class="cls-1" d="M12.79,171.61a125.11,125.11,0,0,0,9.36,13.75H218.5a124.94,124.94,0,0,0,9.34-13.75Z"/><path class="cls-1" d="M7.57,161.53H233.12a123.54,123.54,0,0,0,5.27-13.18H2.26A123.78,123.78,0,0,0,7.57,161.53Z"/><path class="cls-2" d="M1.4,84.52H17.75q8,0,12.2,4.49t4.23,12.48v2.31q0,8.25-4.16,12.68t-12.27,4.43H10.94v11.24H1.4Zm9.54,27.67h5.11q4.5,0,6.54-2.12c1.37-1.4,2.05-3.52,2.05-6.33v-2.25q0-4.15-2.05-6.21t-6.54-2H10.94Z"/><path class="cls-2" d="M41,80.16h9.14V98q3.46-4.5,10.22-4.5,7.63,0,10.83,3.82t3.21,11.24v23.58H65.25v-23q0-4.23-1.77-6.1c-1.18-1.25-3.15-1.87-5.93-1.87A7,7,0,0,0,52,103.36c-1.29,1.48-1.94,3.62-1.94,6.44v22.35H41Z"/><path class="cls-2" d="M91.83,105.92H82.7q0-12.4,15.61-12.41,14.85,0,14.86,12.82v25.82H106l-1.64-4.77q-3.81,5.38-11,5.39c-3.9,0-6.79-1-8.65-2.9a10.4,10.4,0,0,1-2.8-7.53q0-5,3-7.67a22.94,22.94,0,0,1,8.25-4.26l10.9-3.47v-1.77a3.87,3.87,0,0,0-1.33-3.24c-.88-.7-2.41-1.06-4.6-1.06Q91.83,100.87,91.83,105.92Zm12.41,7.83-8.38,2.8q-4.78,1.56-4.78,5c0,2.86,1.53,4.3,4.57,4.3a8.9,8.9,0,0,0,5.9-2.29,7.09,7.09,0,0,0,2.69-5.62Z"/><path class="cls-2" d="M138.45,106.12v-1a4.36,4.36,0,0,0-1.06-3.27,4.78,4.78,0,0,0-3.44-1c-2.77,0-4.16,1.12-4.16,3.34a2.68,2.68,0,0,0,.86,2.08,10.55,10.55,0,0,0,3,1.67l5.93,2.45a16.43,16.43,0,0,1,6.2,4.26,10,10,0,0,1,2.18,6.72,10.23,10.23,0,0,1-3.71,8.35q-3.72,3-10.19,3-7.23,0-10.32-2.93T120.59,121v-1.91H129V121q0,4.42,5,4.43a5.33,5.33,0,0,0,3.48-1.06,3.61,3.61,0,0,0,1.29-3,3.65,3.65,0,0,0-.89-2.59,8.71,8.71,0,0,0-3-1.84l-6.82-2.8q-7.36-3.14-7.36-10c0-3.5,1.14-6.15,3.41-8s5.54-2.73,9.81-2.73q6.88,0,10,3t3.07,8.66v1Z"/><path class="cls-2" d="M186,115.73H163.6v1.91c0,3,.41,5,1.22,6.1s2.57,1.67,5.25,1.67c2.36,0,3.94-.37,4.74-1.09a6.69,6.69,0,0,0,1.6-4h9.13q-.14,6.67-3.75,9.57t-11.72,2.9q-8.25,0-11.89-3.68t-3.65-11.45v-8.93q0-7.69,3.72-11.45t12-3.75q8.17,0,12,3.62T186,108Zm-22.42-6.54h13.29v-1.91q0-3.34-1.5-4.87c-1-1-2.71-1.54-5.11-1.54s-4.18.51-5.18,1.54-1.5,2.64-1.5,4.87Z"/><path class="cls-2" d="M239.52,123.23v8.92H211.64a5,5,0,0,1-3.88-1.56,5.36,5.36,0,0,1-1.43-3.75,7,7,0,0,1,2.31-5l17.72-17.52a9.56,9.56,0,0,0,3.21-6.81A5,5,0,0,0,228,93.58a6.89,6.89,0,0,0-4.73-1.43q-4.15,0-6,2c-1.23,1.37-1.84,3.75-1.84,7.16h-9.47q0-8.58,3.92-13.26t13.32-4.66q8.25,0,12.23,3.71a12.65,12.65,0,0,1,4,9.71q0,7.37-7,14.11l-12.68,12.27Z"/><rect class="cls-1" x="114.37" width="11.91" height="27.26" rx="5.96"/><rect class="cls-1" x="215.64" y="52.8" width="27.26" height="11.91" rx="5.96" transform="translate(25.59 179.3) rotate(-44.99)"/><rect class="cls-1" x="168.68" y="20.69" width="27.26" height="11.91" rx="5.96" transform="translate(84.57 182.83) rotate(-66.28)"/><rect class="cls-1" x="5.43" y="45.13" width="11.91" height="27.26" rx="5.96" transform="translate(-38.22 25.26) rotate(-45.01)"/><rect class="cls-1" x="52.38" y="13.02" width="11.91" height="27.26" rx="5.96" transform="translate(-5.79 25.72) rotate(-23.72)"/><path class="cls-1" d="M26.85,229.49v-.06c0-5.37,3.51-8.31,7.32-8.31a6.18,6.18,0,0,1,5,2.4V215.6h4.56v21.9H39.18v-2.31a5.91,5.91,0,0,1-5,2.61C30.42,237.8,26.85,234.86,26.85,229.49Zm12.39,0v-.06c0-2.67-1.77-4.44-3.9-4.44s-3.93,1.74-3.93,4.44v.06c0,2.67,1.8,4.44,3.93,4.44S39.24,232.16,39.24,229.49Z"/><path class="cls-1" d="M47.28,231.83V221.42h4.56v9c0,2.16,1,3.27,2.76,3.27s2.85-1.11,2.85-3.27v-9H62V237.5H57.45v-2.28a5.69,5.69,0,0,1-4.71,2.58C49.29,237.8,47.28,235.52,47.28,231.83Z"/><path class="cls-1" d="M77.55,221l-3.66.9-1-3.78,6-1.8h3.15V237.5H77.55Z"/><path class="cls-1" d="M85.74,234.71l2.79-3.33a7.35,7.35,0,0,0,5,2.28c2.16,0,3.51-1,3.51-2.91v-.06c0-1.8-1.53-2.85-3.72-2.85a9,9,0,0,0-3.51.78l-2.67-1.77.6-10.35h12.9v4.05H91.71l-.24,3.63a10.27,10.27,0,0,1,2.76-.36c4.08,0,7.35,2,7.35,6.72v.06c0,4.44-3.15,7.26-8,7.26A10.8,10.8,0,0,1,85.74,234.71Z"/><path class="cls-1" d="M112.59,232.88v-.06c0-3.51,2.67-5.13,6.48-5.13a11.43,11.43,0,0,1,3.93.66v-.27c0-1.89-1.17-2.94-3.45-2.94a11.83,11.83,0,0,0-4.44.87L114,222.53a14.19,14.19,0,0,1,6.24-1.29,7.42,7.42,0,0,1,5.43,1.8,7,7,0,0,1,1.74,5.13v9.33H123v-1.74a6.18,6.18,0,0,1-4.86,2C115.08,237.8,112.59,236.06,112.59,232.88Zm10.47-1V231a7.07,7.07,0,0,0-2.91-.6c-2,0-3.15.78-3.15,2.22v.06c0,1.23,1,2,2.49,2C121.62,234.65,123.06,233.48,123.06,231.83Z"/><path class="cls-1" d="M129.45,221.42h4.83l3.59,10.77,3.63-10.77h4.75l-6.33,16.2h-4.14Z"/><path class="cls-1" d="M148.47,221.42H153v3.24c.93-2.22,2.43-3.66,5.13-3.54v4.77h-.24c-3,0-4.89,1.83-4.89,5.67v5.94h-4.56Z"/><path class="cls-1" d="M160.68,215.6h4.8v4.05h-4.8Zm.12,5.82h4.56V237.5H160.8Z"/><path class="cls-1" d="M169.44,215.6H174v21.9h-4.56Z"/><path class="cls-1" d="M185.91,226h9.23v4.38h-9.23Z"/><path class="cls-1" d="M206.27,233.84l7-5.73c2.61-2.16,3.63-3.3,3.63-5a2.58,2.58,0,0,0-2.82-2.73c-1.62,0-2.73.9-4.29,2.82l-3.24-2.61c2.07-2.82,4.08-4.35,7.83-4.35,4.35,0,7.23,2.55,7.23,6.48v.06c0,3.51-1.8,5.25-5.52,8.13l-3.42,2.64h9.15v4H206.27Z"/><path class="cls-1" d="M224.54,233.84l7-5.73c2.61-2.16,3.63-3.3,3.63-5a2.58,2.58,0,0,0-2.82-2.73c-1.62,0-2.73.9-4.29,2.82l-3.24-2.61c2.07-2.82,4.08-4.35,7.83-4.35,4.35,0,7.23,2.55,7.23,6.48v.06c0,3.51-1.8,5.25-5.52,8.13l-3.42,2.64h9.15v4H224.54Z"/><path class="cls-1" d="M251,232.88v-.06c0-3.51,2.67-5.13,6.48-5.13a11.43,11.43,0,0,1,3.93.66v-.27c0-1.89-1.17-2.94-3.45-2.94a11.83,11.83,0,0,0-4.44.87l-1.14-3.48a14.19,14.19,0,0,1,6.24-1.29,7.42,7.42,0,0,1,5.43,1.8,7,7,0,0,1,1.74,5.13v9.33h-4.41v-1.74a6.18,6.18,0,0,1-4.86,2C253.49,237.8,251,236.06,251,232.88Zm10.47-1V231a7.07,7.07,0,0,0-2.91-.6c-1.95,0-3.15.78-3.15,2.22v.06c0,1.23,1,2,2.49,2C260,234.65,261.47,233.48,261.47,231.83Z"/><path class="cls-1" d="M267.86,221.42h4.83l3.6,10.77,3.63-10.77h4.74l-6.33,16.2h-4.14Z"/><path class="cls-1" d="M286.88,221.42h4.56v3.24c.93-2.22,2.43-3.66,5.13-3.54v4.77h-.24c-3,0-4.89,1.83-4.89,5.67v5.94h-4.56Z"/><path class="cls-1" d="M299.09,215.6h4.8v4.05h-4.8Zm.12,5.82h4.56V237.5h-4.56Z"/><path class="cls-1" d="M307.85,215.6h4.56v21.9h-4.56Z"/><path class="cls-1" d="M324.29,233.84l7-5.73c2.61-2.16,3.63-3.3,3.63-5a2.58,2.58,0,0,0-2.82-2.73c-1.62,0-2.73.9-4.29,2.82l-3.24-2.61c2.07-2.82,4.08-4.35,7.83-4.35,4.35,0,7.23,2.55,7.23,6.48v.06c0,3.51-1.8,5.25-5.52,8.13l-3.42,2.64h9.15v4H324.29Z"/><path class="cls-1" d="M342.71,227.06V227c0-6.09,3.78-10.86,9.36-10.86s9.3,4.71,9.3,10.8V227c0,6.09-3.75,10.86-9.36,10.86S342.71,233.15,342.71,227.06Zm13.92,0V227c0-3.81-1.86-6.69-4.62-6.69s-4.56,2.79-4.56,6.63V227c0,3.84,1.83,6.69,4.62,6.69S356.63,230.87,356.63,227.06Z"/><path class="cls-1" d="M364,233.84l7-5.73c2.61-2.16,3.63-3.3,3.63-5a2.58,2.58,0,0,0-2.82-2.73c-1.62,0-2.73.9-4.29,2.82l-3.24-2.61c2.07-2.82,4.08-4.35,7.83-4.35,4.35,0,7.23,2.55,7.23,6.48v.06c0,3.51-1.8,5.25-5.52,8.13l-3.42,2.64h9.15v4H364Z"/><path class="cls-1" d="M382.31,233.84l7-5.73c2.61-2.16,3.63-3.3,3.63-5a2.58,2.58,0,0,0-2.82-2.73c-1.62,0-2.73.9-4.29,2.82l-3.24-2.61c2.07-2.82,4.08-4.35,7.83-4.35,4.35,0,7.23,2.55,7.23,6.48v.06c0,3.51-1.8,5.25-5.52,8.13l-3.42,2.64h9.15v4H382.31Z"/><line class="cls-3" x1="22.79" y1="250.5" x2="454.79" y2="250.5"/><path class="cls-2" d="M40.94,276.66H28.13v7.17H39.59V286H28.13v7.35h13v2.16H25.76v-21H40.94Zm-9.24-4,2.85-4.35L37,269.4l-3.39,3.24Z"/><path class="cls-2" d="M61.25,274.5H63.8l-9,21.15h-2.1l-9-21.15h2.64l7.47,18.09Z"/><path class="cls-2" d="M87.08,295.5H84.53L82.07,290H70.64l-2.49,5.55H65.72l9.57-21.15h2.22ZM76.37,277.11l-4.8,10.71h9.57Z"/><path class="cls-2" d="M90.8,274.5h2.37v18.81H105v2.19H90.8Z"/><path class="cls-2" d="M126.11,286.53c0,6.12-3.51,9.3-8.76,9.3s-8.73-3.18-8.73-9.12V274.5H111v12.06c0,4.53,2.4,7.08,6.42,7.08s6.33-2.34,6.33-6.93V274.5h2.37Z"/><path class="cls-2" d="M150.86,295.5h-2.55L145.85,290H134.42l-2.49,5.55H129.5l9.57-21.15h2.22Zm-10.71-18.39-4.8,10.71h9.57Z"/><path class="cls-2" d="M162.53,295.5h-2.4V276.69h-7V274.5h16.5v2.19h-7.05Z"/><path class="cls-2" d="M176.18,274.5v21h-2.37v-21Z"/><path class="cls-2" d="M191.66,295.86A10.86,10.86,0,1,1,202.4,285,10.55,10.55,0,0,1,191.66,295.86Zm0-19.53c-4.8,0-8.22,3.84-8.22,8.64s3.48,8.7,8.28,8.7,8.22-3.84,8.22-8.64S196.46,276.33,191.66,276.33Z"/><path class="cls-2" d="M222.44,274.5h2.31v21h-1.89L209.3,278.28V295.5H207v-21h2.22l13.23,16.83Z"/><path class="cls-2" d="M246.32,288.09h-5.1v7.41h-2.37v-21h7.86c4.74,0,7.86,2.52,7.86,6.69C254.57,285.75,250.79,288.09,246.32,288.09Zm.21-11.4h-5.31v9.24h5.19c3.48,0,5.76-1.86,5.76-4.65C252.17,278.25,249.92,276.69,246.53,276.69Z"/><path class="cls-2" d="M272.93,295.5l-6.09-8.16h-6v8.16h-2.37v-21h9c4.62,0,7.59,2.49,7.59,6.27,0,3.51-2.4,5.55-5.7,6.15l6.45,8.58Zm-5.61-18.81h-6.48v8.52h6.45c3.15,0,5.4-1.62,5.4-4.35S270.71,276.69,267.32,276.69Z"/><path class="cls-2" d="M294.92,276.66H282.11v7.17h11.46V286H282.11v7.35h13v2.16H279.74v-21h15.18Zm-9.24-4,2.85-4.35,2.4,1.11-3.39,3.24Z"/><path class="cls-2" d="M299.42,274.5h2.37v18.81h11.82v2.19H299.42Z"/><path class="cls-2" d="M320.15,274.5v21h-2.37v-21Z"/><path class="cls-2" d="M336,289.74h-.12l-7.65-11.22v17h-2.31v-21h2.4L335.93,286l7.65-11.46H346v21h-2.37v-17Z"/><path class="cls-2" d="M354.08,274.5v21h-2.37v-21Z"/><path class="cls-2" d="M375.25,274.5h2.32v21h-1.9l-13.55-17.22V295.5h-2.31v-21H362l13.22,16.83Z"/><path class="cls-2" d="M402.64,295.5h-2.55L397.63,290H386.21l-2.5,5.55h-2.42l9.56-21.15h2.23Zm-10.71-18.39-4.8,10.71h9.57Z"/><path class="cls-2" d="M409,274.5v21h-2.37v-21Z"/><path class="cls-2" d="M429.13,295.5,423,287.34h-6v8.16h-2.37v-21h9c4.62,0,7.59,2.49,7.59,6.27,0,3.51-2.4,5.55-5.7,6.15L432,295.5Zm-5.61-18.81H417v8.52h6.45c3.15,0,5.4-1.62,5.4-4.35S426.91,276.69,423.52,276.69Z"/><path class="cls-2" d="M451.12,276.66H438.31v7.17h11.46V286H438.31v7.35h13v2.16H435.94v-21h15.18Z"/><path class="cls-1" d="M42.92,322.63c0,6.12-3.51,9.3-8.76,9.3s-8.73-3.18-8.73-9.12V310.6H27.8v12.06c0,4.53,2.4,7.08,6.42,7.08s6.33-2.34,6.33-6.93V310.6h2.37Z"/><path class="cls-1" d="M50,331.6H47.72V316.09H50v2.7a5.87,5.87,0,0,1,5.31-3c3.75,0,5.94,2.52,5.94,6.21v9.63H59v-9.06c0-2.88-1.56-4.68-4.29-4.68A4.56,4.56,0,0,0,50,322.72Z"/><path class="cls-1" d="M77.75,310.45h1.74V331.6H77.15V312.91l-4,1.23-.57-1.92Z"/><path class="cls-1" d="M87.59,320.65a3.74,3.74,0,0,0,2.85-1.28l.84.75a4.65,4.65,0,0,1-3.73,1.7,4.73,4.73,0,0,1-.17-9.44c2.67,0,4.21,2.13,4.21,4.79,0,.12,0,.26,0,.42H84.41A3.16,3.16,0,0,0,87.59,320.65Zm2.64-4.06c-.14-1.64-1.08-3.08-2.89-3.08a3.12,3.12,0,0,0-2.93,3.08Z"/><path class="cls-1" d="M95.06,321.61H93.71v-9h1.35v2.36a3.87,3.87,0,0,1,3.69-2.52v1.45h-.11c-2,0-3.58,1.42-3.58,4.15Z"/><path class="cls-1" d="M113.33,327.19a2.29,2.29,0,0,0,2.61,2.58,4.86,4.86,0,0,0,2.25-.54v2a5.81,5.81,0,0,1-2.79.66c-2.49,0-4.38-1.23-4.38-4.38v-9.36h-2.16v-2H111v-4.68h2.31v4.68h4.92v2h-4.92Z"/><path class="cls-1" d="M124.22,331.6h-2.31V316.09h2.31v4.05a6.64,6.64,0,0,1,6.33-4.32v2.49h-.18c-3.39,0-6.15,2.43-6.15,7.11Z"/><path class="cls-1" d="M133.7,312.7v-2.55h2.64v2.55Zm.15,18.9V316.09h2.31V331.6Z"/><path class="cls-1" d="M154.82,331.9a10.67,10.67,0,0,1-6.42-2.28l1.17-1.65a9.07,9.07,0,0,0,5.37,2c1.86,0,3.21-1,3.21-2.46v-.06c0-1.56-1.83-2.16-3.87-2.73-2.43-.69-5.13-1.53-5.13-4.38v-.06c0-2.67,2.22-4.44,5.28-4.44a10.6,10.6,0,0,1,5.58,1.71l-1,1.74a8.77,8.77,0,0,0-4.59-1.5c-1.83,0-3,1-3,2.25v.06c0,1.47,1.92,2,4,2.67,2.4.72,5,1.65,5,4.44v.06C160.34,330.19,157.91,331.9,154.82,331.9Z"/><path class="cls-1" d="M171.05,330a6.42,6.42,0,0,0,4.89-2.19l1.43,1.29A8,8,0,0,1,171,332a7.72,7.72,0,0,1-7.74-8.1c0-4.5,3.15-8.1,7.44-8.1,4.59,0,7.23,3.66,7.23,8.22a6.28,6.28,0,0,1,0,.72h-12.3A5.44,5.44,0,0,0,171.05,330Zm4.53-7c-.25-2.82-1.86-5.28-5-5.28-2.7,0-4.74,2.25-5,5.28Z"/><path class="cls-1" d="M183.85,331.6h-2.31V316.09h2.31v4.05a6.64,6.64,0,0,1,6.33-4.32v2.49H190c-3.39,0-6.15,2.43-6.15,7.11Z"/><path class="cls-1" d="M194.17,319.06l-.68-1.89a12.76,12.76,0,0,1,5.63-1.29c4.23,0,6.6,2.16,6.6,6.24v9.48H203.5v-2.34a6.79,6.79,0,0,1-5.6,2.67c-2.89,0-5.79-1.62-5.79-4.86s2.69-5,6.63-5a16.45,16.45,0,0,1,4.76.66v-.54c0-2.79-1.71-4.23-4.62-4.23A10.84,10.84,0,0,0,194.17,319.06Zm.28,7.92c0,2,1.8,3.12,3.89,3.12,2.86,0,5.2-1.74,5.2-4.2v-1.5a16.26,16.26,0,0,0-4.57-.66C196.07,323.74,194.45,325,194.45,327Z"/><path class="cls-1" d="M226.87,316.15v2H222V331.6h-2.31V318.13h-2.13v-2h2.13v-1.35c0-3.39,1.71-5.19,4.68-5.19a7,7,0,0,1,2.55.39v2a7.72,7.72,0,0,0-2.25-.39c-1.8,0-2.7,1.08-2.7,3.3v1.26Z"/><path class="cls-1" d="M230.29,319.06l-.68-1.89a12.81,12.81,0,0,1,5.64-1.29c4.22,0,6.59,2.16,6.59,6.24v9.48h-2.22v-2.34a6.78,6.78,0,0,1-5.61,2.67c-2.87,0-5.78-1.62-5.78-4.86s2.69-5,6.63-5a16.4,16.4,0,0,1,4.76.66v-.54c0-2.79-1.7-4.23-4.62-4.23A10.84,10.84,0,0,0,230.29,319.06Zm.28,7.92c0,2,1.8,3.12,3.89,3.12,2.86,0,5.2-1.74,5.2-4.2v-1.5a16.26,16.26,0,0,0-4.57-.66C232.19,323.74,230.57,325,230.57,327Z"/><path class="cls-1" d="M246.41,312.7v-2.55h2.64v2.55Zm.15,18.9V316.09h2.31V331.6Z"/><path class="cls-1" d="M256.94,327.19a2.29,2.29,0,0,0,2.6,2.58,4.8,4.8,0,0,0,2.25-.54v2a5.75,5.75,0,0,1-2.79.66c-2.49,0-4.38-1.23-4.38-4.38v-9.36h-2.16v-2h2.16v-4.68h2.32v4.68h4.91v2h-4.91Z"/><path class="cls-1" d="M282.34,331.93a7,7,0,0,1-5.93-3.3v7.77H274.1V316.09h2.31v3.12a7,7,0,0,1,5.93-3.45c3.73,0,7.41,2.94,7.41,8.07S286.09,331.93,282.34,331.93Zm-.42-14.1a6,6,0,0,0,0,12c3,0,5.46-2.22,5.46-6S284.87,317.83,281.92,317.83Z"/><path class="cls-1" d="M294.5,319.06l-.69-1.89a12.81,12.81,0,0,1,5.64-1.29c4.22,0,6.59,2.16,6.59,6.24v9.48h-2.21v-2.34a6.8,6.8,0,0,1-5.61,2.67c-2.89,0-5.79-1.62-5.79-4.86s2.69-5,6.63-5a16.47,16.47,0,0,1,4.77.66v-.54c0-2.79-1.71-4.23-4.62-4.23A10.77,10.77,0,0,0,294.5,319.06Zm.27,7.92c0,2,1.8,3.12,3.9,3.12,2.85,0,5.19-1.74,5.19-4.2v-1.5a16.26,16.26,0,0,0-4.57-.66C296.39,323.74,294.77,325,294.77,327Z"/><path class="cls-1" d="M312.86,331.6h-2.31V316.09h2.31v4.05a6.64,6.64,0,0,1,6.33-4.32v2.49H319c-3.38,0-6.14,2.43-6.14,7.11Z"/><path class="cls-1" d="M331.07,331.6V309.7h2.3v21.9Z"/><path class="cls-1" d="M339.29,313.75h-1.08V310.6H341v2.7c0,2.43-1,3.6-3.33,4.11l-.35-1.05C338.78,315.82,339.41,315,339.29,313.75Z"/><path class="cls-1" d="M352.09,330a6.42,6.42,0,0,0,4.89-2.19l1.44,1.29A8,8,0,0,1,352,332a7.72,7.72,0,0,1-7.74-8.1c0-4.5,3.15-8.1,7.44-8.1,4.59,0,7.23,3.66,7.23,8.22a6.28,6.28,0,0,1,0,.72h-12.3A5.44,5.44,0,0,0,352.09,330Zm4.53-7c-.24-2.82-1.86-5.28-4.95-5.28-2.7,0-4.74,2.25-5,5.28Zm-6.33-9.24,2.85-4.35,2.4,1.11-3.39,3.24Z"/><path class="cls-1" d="M375,336.4v-7.92a7,7,0,0,1-5.94,3.45c-3.72,0-7.41-2.94-7.41-8.07s3.69-8.1,7.41-8.1a7,7,0,0,1,5.94,3.3v-3h2.31V336.4Zm-5.52-18.57c-3,0-5.46,2.22-5.46,6s2.52,6,5.46,6a6,6,0,0,0,0-12Z"/><path class="cls-1" d="M393.1,316.09h2.28V331.6H393.1v-2.7a5.91,5.91,0,0,1-5.31,3c-3.75,0-5.94-2.52-5.94-6.21v-9.63h2.31v9.06c0,2.88,1.56,4.68,4.29,4.68A4.58,4.58,0,0,0,393.1,325Z"/><path class="cls-1" d="M400.21,312.7v-2.55h2.64v2.55Zm.15,18.9V316.09h2.31V331.6Z"/><path class="cls-1" d="M415.87,331.93a7,7,0,0,1-5.94-3.3v7.77h-2.31V316.09h2.31v3.12a7,7,0,0,1,5.94-3.45c3.72,0,7.41,2.94,7.41,8.07S419.62,331.93,415.87,331.93Zm-.42-14.1a6,6,0,0,0,0,12c3,0,5.46-2.22,5.46-6S418.39,317.83,415.45,317.83Z"/><path class="cls-1" d="M434,330a6.42,6.42,0,0,0,4.89-2.19l1.44,1.29A8,8,0,0,1,433.9,332a7.72,7.72,0,0,1-7.74-8.1c0-4.5,3.15-8.1,7.44-8.1,4.59,0,7.23,3.66,7.23,8.22a6.28,6.28,0,0,1,0,.72H428.5A5.44,5.44,0,0,0,434,330Zm4.53-7c-.24-2.82-1.86-5.28-4.95-5.28-2.7,0-4.74,2.25-5,5.28Z"/><path class="cls-1" d="M33.62,367.93a7,7,0,0,1-5.94-3.3v7.77H25.37V352.09h2.31v3.12a7,7,0,0,1,5.94-3.45c3.72,0,7.41,2.94,7.41,8.07S37.37,367.93,33.62,367.93Zm-.42-14.1a6,6,0,0,0,0,12c3,0,5.46-2.22,5.46-6S36.14,353.83,33.2,353.83Z"/><path class="cls-1" d="M47.18,367.6H44.87V352.09h2.31v4.05a6.64,6.64,0,0,1,6.33-4.32v2.49h-.18c-3.39,0-6.15,2.43-6.15,7.11Z"/><path class="cls-1" d="M63.68,368a8,8,0,0,1-8-8.07,8.09,8.09,0,1,1,8,8.07Zm0-14.16a5.7,5.7,0,0,0-5.67,6,5.83,5.83,0,0,0,5.73,6.06,5.71,5.71,0,0,0,5.7-6A5.86,5.86,0,0,0,63.68,353.8Z"/><path class="cls-1" d="M78.08,352.09V368.5c0,2.73-1.44,4-3.78,4a5.73,5.73,0,0,1-1.44-.15v-1.89a7.59,7.59,0,0,0,1.14.09c1,0,1.77-.63,1.77-2.07V352.09Zm-2.46-3.39v-2.55h2.64v2.55Z"/><path class="cls-1" d="M89.87,366a6.42,6.42,0,0,0,4.89-2.19l1.44,1.29A8,8,0,0,1,89.81,368a7.72,7.72,0,0,1-7.74-8.1c0-4.5,3.15-8.1,7.44-8.1,4.59,0,7.23,3.66,7.23,8.22a6.28,6.28,0,0,1,0,.72H84.41A5.44,5.44,0,0,0,89.87,366Zm4.53-7c-.24-2.82-1.86-5.28-5-5.28-2.7,0-4.74,2.25-5,5.28Z"/><path class="cls-1" d="M103.49,363.19a2.29,2.29,0,0,0,2.61,2.58,4.86,4.86,0,0,0,2.25-.54v2a5.81,5.81,0,0,1-2.79.66c-2.49,0-4.38-1.23-4.38-4.38v-9.36H99v-2h2.16v-4.68h2.31v4.68h4.92v2h-4.92Z"/><path class="cls-1" d="M123.77,363.19a2.29,2.29,0,0,0,2.61,2.58,4.86,4.86,0,0,0,2.25-.54v2a5.81,5.81,0,0,1-2.79.66c-2.49,0-4.38-1.23-4.38-4.38v-9.36H119.3v-2h2.16v-4.68h2.31v4.68h4.92v2h-4.92Z"/><path class="cls-1" d="M139.19,366a6.42,6.42,0,0,0,4.89-2.19l1.44,1.29a8,8,0,0,1-6.39,2.91,7.72,7.72,0,0,1-7.74-8.1c0-4.5,3.15-8.1,7.44-8.1,4.59,0,7.23,3.66,7.23,8.22a6.28,6.28,0,0,1,0,.72h-12.3A5.44,5.44,0,0,0,139.19,366Zm4.53-7c-.24-2.82-1.86-5.28-4.95-5.28-2.7,0-4.74,2.25-5,5.28Z"/><path class="cls-1" d="M156.68,368a8.1,8.1,0,1,1,6.21-13.44l-1.53,1.62a6.26,6.26,0,0,0-4.71-2.34,5.73,5.73,0,0,0-5.55,6,5.8,5.8,0,0,0,5.7,6.06,6.4,6.4,0,0,0,4.74-2.31L163,365A8,8,0,0,1,156.68,368Z"/><path class="cls-1" d="M168.71,367.6H166.4V345.7h2.31v9.09a5.87,5.87,0,0,1,5.31-3c3.75,0,5.94,2.52,5.94,6.21v9.63h-2.31v-9.06c0-2.88-1.56-4.68-4.29-4.68a4.56,4.56,0,0,0-4.65,4.86Z"/><path class="cls-1" d="M186.77,367.6h-2.31V352.09h2.31v2.7a5.87,5.87,0,0,1,5.31-3c3.75,0,5.94,2.52,5.94,6.21v9.63h-2.31v-9.06c0-2.88-1.56-4.68-4.29-4.68a4.56,4.56,0,0,0-4.65,4.86Z"/><path class="cls-1" d="M202.58,348.7v-2.55h2.64v2.55Zm.15,18.9V352.09H205V367.6Z"/><path class="cls-1" d="M222.44,372.4v-7.92a7,7,0,0,1-5.94,3.45c-3.72,0-7.41-2.94-7.41-8.07s3.69-8.1,7.41-8.1a7,7,0,0,1,5.94,3.3v-3h2.31V372.4Zm-5.52-18.57c-3,0-5.46,2.22-5.46,6s2.52,6,5.46,6a6,6,0,0,0,0-12Z"/><path class="cls-1" d="M240.5,352.09h2.28V367.6H240.5v-2.7a5.91,5.91,0,0,1-5.31,3c-3.75,0-5.94-2.52-5.94-6.21v-9.63h2.31v9.06c0,2.88,1.56,4.68,4.29,4.68A4.58,4.58,0,0,0,240.5,361Z"/><path class="cls-1" d="M254.39,366a6.42,6.42,0,0,0,4.89-2.19l1.44,1.29a8,8,0,0,1-6.39,2.91,7.72,7.72,0,0,1-7.74-8.1c0-4.5,3.15-8.1,7.44-8.1,4.59,0,7.23,3.66,7.23,8.22a6.28,6.28,0,0,1,0,.72h-12.3A5.44,5.44,0,0,0,254.39,366Zm4.53-7c-.24-2.82-1.86-5.28-5-5.28-2.7,0-4.74,2.25-5,5.28Z"/><path class="cls-1" d="M281.72,367.93a7,7,0,0,1-5.94-3.3v7.77h-2.31V352.09h2.31v3.12a7,7,0,0,1,5.94-3.45c3.72,0,7.41,2.94,7.41,8.07S285.47,367.93,281.72,367.93Zm-.42-14.1a6,6,0,0,0,0,12c3,0,5.46-2.22,5.46-6S284.24,353.83,281.3,353.83Z"/><path class="cls-1" d="M300.05,368a8,8,0,0,1-8-8.07,8.09,8.09,0,1,1,8,8.07Zm0-14.16a5.7,5.7,0,0,0-5.67,6,5.83,5.83,0,0,0,5.73,6.06,5.71,5.71,0,0,0,5.7-6A5.86,5.86,0,0,0,300.05,353.8Z"/><path class="cls-1" d="M322.94,352.09h2.28V367.6h-2.28v-2.7a5.91,5.91,0,0,1-5.31,3c-3.75,0-5.94-2.52-5.94-6.21v-9.63H314v9.06c0,2.88,1.56,4.68,4.29,4.68a4.58,4.58,0,0,0,4.65-4.86Z"/><path class="cls-1" d="M332.3,367.6H330V352.09h2.31v4.05a6.64,6.64,0,0,1,6.33-4.32v2.49h-.18c-3.39,0-6.15,2.43-6.15,7.11Z"/><path class="cls-1" d="M352.61,367.6H350.3V352.09h2.31v2.7a5.87,5.87,0,0,1,5.31-3c3.75,0,5.94,2.52,5.94,6.21v9.63h-2.31v-9.06c0-2.88-1.56-4.68-4.29-4.68a4.56,4.56,0,0,0-4.65,4.86Z"/><path class="cls-1" d="M375.2,366a6.42,6.42,0,0,0,4.89-2.19l1.44,1.29a8,8,0,0,1-6.39,2.91,7.72,7.72,0,0,1-7.74-8.1c0-4.5,3.15-8.1,7.44-8.1,4.59,0,7.23,3.66,7.23,8.22a6.28,6.28,0,0,1,0,.72h-12.3A5.44,5.44,0,0,0,375.2,366Zm4.53-7c-.24-2.82-1.86-5.28-5-5.28-2.7,0-4.74,2.25-5,5.28Z"/><path class="cls-1" d="M27.68,403.6H25.37V388.09h2.31v4.05A6.64,6.64,0,0,1,34,387.82v2.49h-.18c-3.39,0-6.15,2.43-6.15,7.11Z"/><path class="cls-1" d="M43.94,402a6.42,6.42,0,0,0,4.89-2.19l1.44,1.29A8,8,0,0,1,43.88,404a7.72,7.72,0,0,1-7.74-8.1c0-4.5,3.15-8.1,7.44-8.1,4.59,0,7.23,3.66,7.23,8.22a6.28,6.28,0,0,1,0,.72H38.48A5.44,5.44,0,0,0,43.94,402Zm4.53-7c-.24-2.82-1.86-5.28-4.95-5.28-2.7,0-4.74,2.25-5,5.28Z"/><path class="cls-1" d="M57.56,399.19a2.29,2.29,0,0,0,2.61,2.58,4.86,4.86,0,0,0,2.25-.54v2a5.81,5.81,0,0,1-2.79.66c-2.49,0-4.38-1.23-4.38-4.38v-9.36H53.09v-2h2.16v-4.68h2.31v4.68h4.92v2H57.56Z"/><path class="cls-1" d="M73,402a6.42,6.42,0,0,0,4.89-2.19l1.44,1.29A8,8,0,0,1,72.92,404a7.72,7.72,0,0,1-7.74-8.1c0-4.5,3.15-8.1,7.44-8.1,4.59,0,7.23,3.66,7.23,8.22a6.28,6.28,0,0,1,0,.72H67.52A5.44,5.44,0,0,0,73,402Zm4.53-7c-.24-2.82-1.86-5.28-5-5.28-2.7,0-4.74,2.25-5,5.28Z"/><path class="cls-1" d="M85.79,403.6H83.48V388.09h2.31v2.7a5.87,5.87,0,0,1,5.31-3c3.75,0,5.94,2.52,5.94,6.21v9.63H94.73v-9.06c0-2.88-1.56-4.68-4.29-4.68a4.56,4.56,0,0,0-4.65,4.86Z"/><path class="cls-1" d="M101.6,384.7v-2.55h2.64v2.55Zm.15,18.9V388.09h2.31V403.6Z"/><path class="cls-1" d="M111.32,403.6H109V388.09h2.31v4.05a6.64,6.64,0,0,1,6.33-4.32v2.49h-.18c-3.39,0-6.15,2.43-6.15,7.11Z"/><path class="cls-1" d="M141.77,408.4v-7.92a7,7,0,0,1-5.94,3.45c-3.72,0-7.41-2.94-7.41-8.07s3.69-8.1,7.41-8.1a7,7,0,0,1,5.94,3.3v-3h2.31V408.4Zm-5.52-18.57c-3,0-5.46,2.22-5.46,6s2.52,6,5.46,6a6,6,0,0,0,0-12Z"/><path class="cls-1" d="M159.83,388.09h2.28V403.6h-2.28v-2.7a5.91,5.91,0,0,1-5.31,3c-3.75,0-5.94-2.52-5.94-6.21v-9.63h2.31v9.06c0,2.88,1.56,4.68,4.29,4.68a4.58,4.58,0,0,0,4.65-4.86Z"/><path class="cls-1" d="M173.72,402a6.42,6.42,0,0,0,4.89-2.19l1.44,1.29a8,8,0,0,1-6.39,2.91,7.72,7.72,0,0,1-7.74-8.1c0-4.5,3.15-8.1,7.44-8.1,4.59,0,7.23,3.66,7.23,8.22a6.28,6.28,0,0,1,0,.72h-12.3A5.44,5.44,0,0,0,173.72,402Zm4.53-7c-.24-2.82-1.86-5.28-4.95-5.28-2.7,0-4.74,2.25-5,5.28Z"/><path class="cls-1" d="M193,403.6V381.7h2.31v21.9Z"/><path class="cls-1" d="M207.11,402a6.42,6.42,0,0,0,4.89-2.19l1.44,1.29a8,8,0,0,1-6.39,2.91,7.72,7.72,0,0,1-7.74-8.1c0-4.5,3.15-8.1,7.44-8.1,4.59,0,7.23,3.66,7.23,8.22a6.28,6.28,0,0,1,0,.72h-12.3A5.44,5.44,0,0,0,207.11,402Zm4.53-7c-.24-2.82-1.86-5.28-4.95-5.28-2.7,0-4.74,2.25-5,5.28Z"/><path class="cls-1" d="M222.74,403.9a10.67,10.67,0,0,1-6.42-2.28l1.17-1.65a9.07,9.07,0,0,0,5.37,2c1.86,0,3.21-1,3.21-2.46v-.06c0-1.56-1.83-2.16-3.87-2.73-2.43-.69-5.13-1.53-5.13-4.38v-.06c0-2.67,2.22-4.44,5.28-4.44a10.6,10.6,0,0,1,5.58,1.71l-1.05,1.74a8.77,8.77,0,0,0-4.59-1.5c-1.83,0-3,1-3,2.25v.06c0,1.47,1.92,2,4,2.67,2.4.72,5,1.65,5,4.44v.06C228.26,402.19,225.83,403.9,222.74,403.9Z"/><path class="cls-1" d="M249,403.93a7,7,0,0,1-5.94-3.3v7.77h-2.31V388.09H243v3.12a7,7,0,0,1,5.94-3.45c3.72,0,7.41,2.94,7.41,8.07S252.71,403.93,249,403.93Zm-.42-14.1a6,6,0,0,0,0,12c3,0,5.46-2.22,5.46-6S251.48,389.83,248.54,389.83Z"/><path class="cls-1" d="M262.52,403.6h-2.31V388.09h2.31v4.05a6.64,6.64,0,0,1,6.33-4.32v2.49h-.18c-3.39,0-6.15,2.43-6.15,7.11Z"/><path class="cls-1" d="M279,404a8,8,0,0,1-8-8.07,8.09,8.09,0,1,1,8,8.07Zm0-14.16a5.7,5.7,0,0,0-5.67,6,5.83,5.83,0,0,0,5.73,6.06,5.71,5.71,0,0,0,5.7-6A5.86,5.86,0,0,0,279,389.8Z"/><path class="cls-1" d="M299.15,403.93a7,7,0,0,1-5.94-3.3v7.77H290.9V388.09h2.31v3.12a7,7,0,0,1,5.94-3.45c3.72,0,7.41,2.94,7.41,8.07S302.9,403.93,299.15,403.93Zm-.42-14.1a6,6,0,0,0,0,12c3,0,5.46-2.22,5.46-6S301.67,389.83,298.73,389.83Z"/><path class="cls-1" d="M317.48,404a8,8,0,0,1-8-8.07,8.09,8.09,0,1,1,8,8.07Zm0-14.16a5.7,5.7,0,0,0-5.67,6,5.83,5.83,0,0,0,5.73,6.06,5.71,5.71,0,0,0,5.7-6A5.86,5.86,0,0,0,317.48,389.8Z"/><path class="cls-1" d="M334.49,403.9a10.67,10.67,0,0,1-6.42-2.28l1.17-1.65a9.07,9.07,0,0,0,5.37,2c1.86,0,3.21-1,3.21-2.46v-.06c0-1.56-1.83-2.16-3.87-2.73-2.43-.69-5.13-1.53-5.13-4.38v-.06c0-2.67,2.22-4.44,5.28-4.44a10.6,10.6,0,0,1,5.58,1.71l-1.05,1.74a8.77,8.77,0,0,0-4.59-1.5c-1.83,0-3,1-3,2.25v.06c0,1.47,1.92,2,4,2.67,2.4.72,5,1.65,5,4.44v.06C340,402.19,337.58,403.9,334.49,403.9Z"/><path class="cls-1" d="M343.94,384.7v-2.55h2.64v2.55Zm.15,18.9V388.09h2.31V403.6Z"/><path class="cls-1" d="M354.47,399.19a2.29,2.29,0,0,0,2.61,2.58,4.86,4.86,0,0,0,2.25-.54v2a5.81,5.81,0,0,1-2.79.66c-2.49,0-4.38-1.23-4.38-4.38v-9.36H350v-2h2.16v-4.68h2.31v4.68h4.92v2h-4.92Z"/><path class="cls-1" d="M363.11,384.7v-2.55h2.64v2.55Zm.15,18.9V388.09h2.31V403.6Z"/><path class="cls-1" d="M377.6,404a8,8,0,0,1-8-8.07,8.09,8.09,0,1,1,8,8.07Zm0-14.16a5.7,5.7,0,0,0-5.67,6,5.83,5.83,0,0,0,5.73,6.06,5.71,5.71,0,0,0,5.7-6A5.86,5.86,0,0,0,377.6,389.8Z"/><path class="cls-1" d="M391.79,403.6h-2.31V388.09h2.31v2.7a5.87,5.87,0,0,1,5.31-3c3.75,0,5.94,2.52,5.94,6.21v9.63h-2.31v-9.06c0-2.88-1.56-4.68-4.29-4.68a4.56,4.56,0,0,0-4.65,4.86Z"/><path class="cls-1" d="M412.67,403.9a10.67,10.67,0,0,1-6.42-2.28l1.17-1.65a9.07,9.07,0,0,0,5.37,2c1.86,0,3.21-1,3.21-2.46v-.06c0-1.56-1.83-2.16-3.87-2.73-2.43-.69-5.13-1.53-5.13-4.38v-.06c0-2.67,2.22-4.44,5.28-4.44a10.6,10.6,0,0,1,5.58,1.71l-1.05,1.74a8.77,8.77,0,0,0-4.59-1.5c-1.83,0-3,1-3,2.25v.06c0,1.47,1.92,2,4,2.67,2.4.72,5,1.65,5,4.44v.06C418.19,402.19,415.76,403.9,412.67,403.9Z"/><path class="cls-1" d="M27.68,439.6H25.37V424.09h2.31v4.05A6.64,6.64,0,0,1,34,423.82v2.49h-.18c-3.39,0-6.15,2.43-6.15,7.11Z"/><path class="cls-1" d="M43.94,438a6.42,6.42,0,0,0,4.89-2.19l1.44,1.29A8,8,0,0,1,43.88,440a7.72,7.72,0,0,1-7.74-8.1c0-4.5,3.15-8.1,7.44-8.1,4.59,0,7.23,3.66,7.23,8.22a6.28,6.28,0,0,1,0,.72H38.48A5.44,5.44,0,0,0,43.94,438Zm4.53-7c-.24-2.82-1.86-5.28-4.95-5.28-2.7,0-4.74,2.25-5,5.28Zm-6.33-9.24L45,417.4l2.4,1.11L44,421.75Z"/><path class="cls-1" d="M62.69,439.93a7,7,0,0,1-5.94-3.3v7.77H54.44V424.09h2.31v3.12a7,7,0,0,1,5.94-3.45c3.72,0,7.41,2.94,7.41,8.07S66.44,439.93,62.69,439.93Zm-.42-14.1a6,6,0,0,0,0,12c3,0,5.46-2.22,5.46-6S65.21,425.83,62.27,425.83Z"/><path class="cls-1" d="M81,440a8,8,0,0,1-8-8.07A8.09,8.09,0,1,1,81,440Zm0-14.16a5.7,5.7,0,0,0-5.67,6,5.83,5.83,0,0,0,5.73,6.06,5.71,5.71,0,0,0,5.7-6A5.86,5.86,0,0,0,81,425.8Z"/><path class="cls-1" d="M95.21,439.6H92.9V424.09h2.31v2.7a5.87,5.87,0,0,1,5.31-3c3.75,0,5.94,2.52,5.94,6.21v9.63h-2.31v-9.06c0-2.88-1.56-4.68-4.29-4.68a4.56,4.56,0,0,0-4.65,4.86Z"/><path class="cls-1" d="M123.41,439.6v-3.12a7,7,0,0,1-5.94,3.45c-3.72,0-7.41-2.94-7.41-8.07s3.69-8.1,7.41-8.1a7,7,0,0,1,5.94,3.3V417.7h2.31v21.9Zm-5.52-13.77c-3,0-5.46,2.22-5.46,6s2.52,6,5.46,6a6,6,0,0,0,0-12Z"/><path class="cls-1" d="M131.36,427.06l-.69-1.89a12.81,12.81,0,0,1,5.64-1.29c4.23,0,6.6,2.16,6.6,6.24v9.48h-2.22v-2.34a6.8,6.8,0,0,1-5.61,2.67c-2.88,0-5.79-1.62-5.79-4.86s2.7-5,6.63-5a16.47,16.47,0,0,1,4.77.66v-.54c0-2.79-1.71-4.23-4.62-4.23A10.8,10.8,0,0,0,131.36,427.06Zm.27,7.92c0,2,1.8,3.12,3.9,3.12,2.85,0,5.19-1.74,5.19-4.2v-1.5a16.18,16.18,0,0,0-4.56-.66C133.25,431.74,131.63,433,131.63,435Z"/><path class="cls-1" d="M149.72,439.6h-2.31V424.09h2.31v2.7a5.87,5.87,0,0,1,5.31-3c3.75,0,5.94,2.52,5.94,6.21v9.63h-2.31v-9.06c0-2.88-1.56-4.68-4.29-4.68a4.56,4.56,0,0,0-4.65,4.86Z"/><path class="cls-1" d="M168.59,435.19a2.29,2.29,0,0,0,2.61,2.58,4.86,4.86,0,0,0,2.25-.54v2a5.81,5.81,0,0,1-2.79.66c-2.49,0-4.38-1.23-4.38-4.38v-9.36h-2.16v-2h2.16v-4.68h2.31v4.68h4.92v2h-4.92Z"/><path class="cls-1" d="M186.65,427.06l-.69-1.89a12.81,12.81,0,0,1,5.64-1.29c4.23,0,6.6,2.16,6.6,6.24v9.48H196v-2.34a6.8,6.8,0,0,1-5.61,2.67c-2.88,0-5.79-1.62-5.79-4.86s2.7-5,6.63-5a16.47,16.47,0,0,1,4.77.66v-.54c0-2.79-1.71-4.23-4.62-4.23A10.8,10.8,0,0,0,186.65,427.06Zm.27,7.92c0,2,1.8,3.12,3.9,3.12,2.85,0,5.19-1.74,5.19-4.2v-1.5a16.18,16.18,0,0,0-4.56-.66C188.54,431.74,186.92,433,186.92,435Zm.69-16.47,2.4-1.11,2.85,4.35H191Z"/><path class="cls-1" d="M211.49,439.6V417.7h2.31v21.9Z"/><path class="cls-1" d="M219.65,427.06l-.69-1.89a12.81,12.81,0,0,1,5.64-1.29c4.23,0,6.6,2.16,6.6,6.24v9.48H229v-2.34a6.8,6.8,0,0,1-5.61,2.67c-2.88,0-5.79-1.62-5.79-4.86s2.7-5,6.63-5a16.47,16.47,0,0,1,4.77.66v-.54c0-2.79-1.71-4.23-4.62-4.23A10.8,10.8,0,0,0,219.65,427.06Zm.27,7.92c0,2,1.8,3.12,3.9,3.12,2.85,0,5.19-1.74,5.19-4.2v-1.5a16.18,16.18,0,0,0-4.56-.66C221.54,431.74,219.92,433,219.92,435Z"/><path class="cls-1" d="M251.27,440a8.1,8.1,0,1,1,6.21-13.44L256,428.14a6.26,6.26,0,0,0-4.71-2.34,5.73,5.73,0,0,0-5.55,6,5.8,5.8,0,0,0,5.7,6.06,6.4,6.4,0,0,0,4.74-2.31L257.6,437A8,8,0,0,1,251.27,440Z"/><path class="cls-1" d="M263.3,439.6H261V417.7h2.31v9.09a5.87,5.87,0,0,1,5.31-3c3.75,0,5.94,2.52,5.94,6.21v9.63h-2.31v-9.06c0-2.88-1.56-4.68-4.29-4.68a4.56,4.56,0,0,0-4.65,4.86Z"/><path class="cls-1" d="M280,427.06l-.69-1.89a12.81,12.81,0,0,1,5.64-1.29c4.23,0,6.6,2.16,6.6,6.24v9.48h-2.22v-2.34a6.8,6.8,0,0,1-5.61,2.67c-2.88,0-5.79-1.62-5.79-4.86s2.7-5,6.63-5a16.47,16.47,0,0,1,4.77.66v-.54c0-2.79-1.71-4.23-4.62-4.23A10.8,10.8,0,0,0,280,427.06Zm.27,7.92c0,2,1.8,3.12,3.9,3.12,2.85,0,5.19-1.74,5.19-4.2v-1.5a16.18,16.18,0,0,0-4.56-.66C281.84,431.74,280.22,433,280.22,435Z"/><path class="cls-1" d="M298.31,439.6H296V424.09h2.31v4.05a6.64,6.64,0,0,1,6.33-4.32v2.49h-.18c-3.39,0-6.15,2.43-6.15,7.11Z"/><path class="cls-1" d="M310.85,435.19a2.29,2.29,0,0,0,2.61,2.58,4.86,4.86,0,0,0,2.25-.54v2a5.81,5.81,0,0,1-2.79.66c-2.49,0-4.38-1.23-4.38-4.38v-9.36h-2.16v-2h2.16v-4.68h2.31v4.68h4.92v2h-4.92Z"/><path class="cls-1" d="M326.27,438a6.42,6.42,0,0,0,4.89-2.19l1.44,1.29a8,8,0,0,1-6.39,2.91,7.72,7.72,0,0,1-7.74-8.1c0-4.5,3.15-8.1,7.44-8.1,4.59,0,7.23,3.66,7.23,8.22a6.28,6.28,0,0,1,0,.72h-12.3A5.44,5.44,0,0,0,326.27,438Zm4.53-7c-.24-2.82-1.86-5.28-4.95-5.28-2.7,0-4.74,2.25-5,5.28Z"/><path class="cls-1" d="M357.8,439.6v-3.12a7,7,0,0,1-5.94,3.45c-3.72,0-7.41-2.94-7.41-8.07s3.69-8.1,7.41-8.1a7,7,0,0,1,5.94,3.3V417.7h2.31v21.9Zm-5.52-13.77c-3,0-5.46,2.22-5.46,6s2.52,6,5.46,6a6,6,0,0,0,0-12Z"/><path class="cls-1" d="M371.69,438a6.42,6.42,0,0,0,4.89-2.19l1.44,1.29a8,8,0,0,1-6.39,2.91,7.72,7.72,0,0,1-7.74-8.1c0-4.5,3.15-8.1,7.44-8.1,4.59,0,7.23,3.66,7.23,8.22a6.28,6.28,0,0,1,0,.72h-12.3A5.44,5.44,0,0,0,371.69,438Zm4.53-7c-.24-2.82-1.86-5.28-5-5.28-2.7,0-4.74,2.25-5,5.28Z"/><path class="cls-1" d="M25.58,475.6V453.7h2.31v21.9Z"/><path class="cls-1" d="M33.8,457.75H32.72V454.6h2.76v2.7c0,2.43-1,3.6-3.33,4.11l-.36-1.05C33.29,459.82,33.92,459,33.8,457.75Z"/><path class="cls-1" d="M39.83,456.7v-2.55h2.64v2.55ZM40,475.6V460.09h2.31V475.6Z"/><path class="cls-1" d="M49.55,475.6H47.24V460.09h2.31v2.7a5.87,5.87,0,0,1,5.31-3c3.75,0,5.94,2.52,5.94,6.21v9.63H58.49v-9.06c0-2.88-1.56-4.68-4.29-4.68a4.56,4.56,0,0,0-4.65,4.86Z"/><path class="cls-1" d="M65.36,456.7v-2.55H68v2.55Zm.15,18.9V460.09h2.31V475.6Z"/><path class="cls-1" d="M75.89,471.19a2.29,2.29,0,0,0,2.61,2.58,4.86,4.86,0,0,0,2.25-.54v2a5.81,5.81,0,0,1-2.79.66c-2.49,0-4.38-1.23-4.38-4.38v-9.36H71.42v-2h2.16v-4.68h2.31v4.68h4.92v2H75.89Z"/><path class="cls-1" d="M84.53,456.7v-2.55h2.64v2.55Zm.15,18.9V460.09H87V475.6Z"/><path class="cls-1" d="M92.84,463.06l-.69-1.89a12.81,12.81,0,0,1,5.64-1.29c4.23,0,6.6,2.16,6.6,6.24v9.48h-2.22v-2.34a6.8,6.8,0,0,1-5.61,2.67c-2.88,0-5.79-1.62-5.79-4.86s2.7-5,6.63-5a16.47,16.47,0,0,1,4.77.66v-.54c0-2.79-1.71-4.23-4.62-4.23A10.8,10.8,0,0,0,92.84,463.06Zm.27,7.92c0,2,1.8,3.12,3.9,3.12,2.85,0,5.19-1.74,5.19-4.2v-1.5a16.18,16.18,0,0,0-4.56-.66C94.73,467.74,93.11,469,93.11,471Z"/><path class="cls-1" d="M112,471.19a2.29,2.29,0,0,0,2.61,2.58,4.86,4.86,0,0,0,2.25-.54v2a5.81,5.81,0,0,1-2.79.66c-2.49,0-4.38-1.23-4.38-4.38v-9.36h-2.16v-2h2.16v-4.68H112v4.68h4.92v2H112Z"/><path class="cls-1" d="M120.65,456.7v-2.55h2.64v2.55Zm.15,18.9V460.09h2.31V475.6Z"/><path class="cls-1" d="M139.55,460.09H142l-6.75,15.63h-2l-6.72-15.63h2.55L134.3,473Z"/><path class="cls-1" d="M152.09,474a6.42,6.42,0,0,0,4.89-2.19l1.44,1.29A8,8,0,0,1,152,476a7.72,7.72,0,0,1-7.74-8.1c0-4.5,3.15-8.1,7.44-8.1,4.59,0,7.23,3.66,7.23,8.22a6.28,6.28,0,0,1,0,.72h-12.3A5.44,5.44,0,0,0,152.09,474Zm4.53-7c-.24-2.82-1.86-5.28-5-5.28-2.7,0-4.74,2.25-5,5.28Z"/><path class="cls-1" d="M183.62,475.6v-3.12a7,7,0,0,1-5.94,3.45c-3.72,0-7.41-2.94-7.41-8.07s3.69-8.1,7.41-8.1a7,7,0,0,1,5.94,3.3V453.7h2.31v21.9Zm-5.52-13.77c-3,0-5.46,2.22-5.46,6s2.52,6,5.46,6a6,6,0,0,0,0-12Z"/><path class="cls-1" d="M197.51,474a6.42,6.42,0,0,0,4.89-2.19l1.44,1.29a8,8,0,0,1-6.39,2.91,7.72,7.72,0,0,1-7.74-8.1c0-4.5,3.15-8.1,7.44-8.1,4.59,0,7.23,3.66,7.23,8.22a6.28,6.28,0,0,1,0,.72h-12.3A5.44,5.44,0,0,0,197.51,474Zm4.53-7c-.24-2.82-1.86-5.28-4.95-5.28-2.7,0-4.74,2.25-5,5.28Zm-6.33-9.24,2.85-4.35,2.4,1.11-3.39,3.24Z"/><path class="cls-1" d="M211.13,471.19a2.29,2.29,0,0,0,2.61,2.58,4.86,4.86,0,0,0,2.25-.54v2a5.81,5.81,0,0,1-2.79.66c-2.49,0-4.38-1.23-4.38-4.38v-9.36h-2.16v-2h2.16v-4.68h2.31v4.68h4.92v2h-4.92Z"/><path class="cls-1" d="M220.61,463.06l-.69-1.89a12.81,12.81,0,0,1,5.64-1.29c4.23,0,6.6,2.16,6.6,6.24v9.48h-2.22v-2.34a6.8,6.8,0,0,1-5.61,2.67c-2.88,0-5.79-1.62-5.79-4.86s2.7-5,6.63-5a16.47,16.47,0,0,1,4.77.66v-.54c0-2.79-1.71-4.23-4.62-4.23A10.8,10.8,0,0,0,220.61,463.06Zm.27,7.92c0,2,1.8,3.12,3.9,3.12,2.85,0,5.19-1.74,5.19-4.2v-1.5a16.18,16.18,0,0,0-4.56-.66C222.5,467.74,220.88,469,220.88,471Z"/><path class="cls-1" d="M236.72,456.7v-2.55h2.64v2.55Zm.15,18.9V460.09h2.31V475.6Z"/><path class="cls-1" d="M244.34,475.6V453.7h2.31v21.9Z"/><path class="cls-1" d="M251.81,475.6V453.7h2.31v21.9Z"/><path class="cls-1" d="M265.91,474a6.38,6.38,0,0,0,4.88-2.19l1.44,1.29a8,8,0,0,1-6.39,2.91,7.71,7.71,0,0,1-7.73-8.1c0-4.5,3.14-8.1,7.43-8.1,4.59,0,7.23,3.66,7.23,8.22,0,.21,0,.45,0,.72h-12.3A5.43,5.43,0,0,0,265.91,474Zm4.52-7c-.24-2.82-1.85-5.28-4.94-5.28-2.7,0-4.74,2.25-5,5.28Zm-6.32-9.24L267,453.4l2.39,1.11L266,457.75Z"/><path class="cls-1" d="M283.25,474a6.41,6.41,0,0,0,4.88-2.19l1.44,1.29a8,8,0,0,1-6.39,2.91,7.71,7.71,0,0,1-7.73-8.1c0-4.5,3.14-8.1,7.43-8.1,4.59,0,7.23,3.66,7.23,8.22a6.28,6.28,0,0,1,0,.72H277.79A5.43,5.43,0,0,0,283.25,474Zm4.52-7c-.24-2.82-1.85-5.28-4.94-5.28-2.71,0-4.75,2.25-5,5.28Z"/><path class="cls-1" d="M314.77,475.6v-3.12a7,7,0,0,1-5.94,3.45c-3.71,0-7.41-2.94-7.41-8.07s3.7-8.1,7.41-8.1a7,7,0,0,1,5.94,3.3V453.7h2.31v21.9Zm-5.52-13.77c-3,0-5.46,2.22-5.46,6s2.52,6,5.46,6a6,6,0,0,0,0-12Z"/><path class="cls-1" d="M322.72,463.06l-.68-1.89a12.76,12.76,0,0,1,5.63-1.29c4.23,0,6.6,2.16,6.6,6.24v9.48h-2.22v-2.34a6.8,6.8,0,0,1-5.61,2.67c-2.87,0-5.78-1.62-5.78-4.86s2.69-5,6.63-5a16.45,16.45,0,0,1,4.76.66v-.54c0-2.79-1.71-4.23-4.62-4.23A10.84,10.84,0,0,0,322.72,463.06ZM323,471c0,2,1.79,3.12,3.89,3.12,2.86,0,5.19-1.74,5.19-4.2v-1.5a16.12,16.12,0,0,0-4.56-.66C324.62,467.74,323,469,323,471Z"/><path class="cls-1" d="M341.08,475.6h-2.3V460.09h2.3v2.7a5.89,5.89,0,0,1,5.31-3c3.75,0,5.94,2.52,5.94,6.21v9.63H350v-9.06c0-2.88-1.56-4.68-4.28-4.68a4.57,4.57,0,0,0-4.66,4.86Z"/><path class="cls-1" d="M362,475.9a10.71,10.71,0,0,1-6.42-2.28l1.17-1.65a9.07,9.07,0,0,0,5.37,2c1.86,0,3.21-1,3.21-2.46v-.06c0-1.56-1.83-2.16-3.87-2.73-2.42-.69-5.13-1.53-5.13-4.38v-.06c0-2.67,2.22-4.44,5.28-4.44a10.6,10.6,0,0,1,5.58,1.71l-1,1.74a8.77,8.77,0,0,0-4.59-1.5c-1.83,0-3,1-3,2.25v.06c0,1.47,1.92,2,4,2.67,2.4.72,5,1.65,5,4.44v.06C367.48,474.19,365.05,475.9,362,475.9Z"/><path class="cls-1" d="M380.14,475.6V453.7h2.31v21.9Z"/><path class="cls-1" d="M394.24,474a6.42,6.42,0,0,0,4.89-2.19l1.44,1.29a8,8,0,0,1-6.39,2.91,7.72,7.72,0,0,1-7.74-8.1c0-4.5,3.15-8.1,7.44-8.1,4.59,0,7.23,3.66,7.23,8.22a6.28,6.28,0,0,1,0,.72h-12.3A5.44,5.44,0,0,0,394.24,474Zm4.53-7c-.24-2.82-1.86-5.28-4.95-5.28-2.7,0-4.74,2.25-5,5.28Z"/><path class="cls-1" d="M27.68,511.6H25.37V496.09h2.31v4.05A6.64,6.64,0,0,1,34,495.82v2.49h-.18c-3.39,0-6.15,2.43-6.15,7.11Z"/><path class="cls-1" d="M43.94,510a6.42,6.42,0,0,0,4.89-2.19l1.44,1.29A8,8,0,0,1,43.88,512a7.72,7.72,0,0,1-7.74-8.1c0-4.5,3.15-8.1,7.44-8.1,4.59,0,7.23,3.66,7.23,8.22a6.28,6.28,0,0,1,0,.72H38.48A5.44,5.44,0,0,0,43.94,510Zm4.53-7c-.24-2.82-1.86-5.28-4.95-5.28-2.7,0-4.74,2.25-5,5.28Zm-9.06-12.48,2.4-1.11,2.85,4.35H42.8Z"/><path class="cls-1" d="M61.31,516.46a12.16,12.16,0,0,1-7.05-2.16l1.05-1.8a9.91,9.91,0,0,0,6,2c3.42,0,5.64-1.89,5.64-5.52v-1.83a7.35,7.35,0,0,1-6.09,3.27,7.32,7.32,0,0,1,0-14.64,7.27,7.27,0,0,1,6.06,3.12v-2.79H69.2V508.9C69.2,513.91,66.08,516.46,61.31,516.46Zm0-18.66a5.12,5.12,0,0,0-5.37,5.25,5.24,5.24,0,0,0,5.37,5.31,5.3,5.3,0,1,0,0-10.56Z"/><path class="cls-1" d="M74.15,511.6V489.7h2.31v21.9Z"/><path class="cls-1" d="M88.25,510a6.42,6.42,0,0,0,4.89-2.19l1.44,1.29A8,8,0,0,1,88.19,512a7.72,7.72,0,0,1-7.74-8.1c0-4.5,3.15-8.1,7.44-8.1,4.59,0,7.23,3.66,7.23,8.22a6.28,6.28,0,0,1,0,.72H82.79A5.44,5.44,0,0,0,88.25,510Zm4.53-7c-.24-2.82-1.86-5.28-5-5.28-2.7,0-4.74,2.25-5,5.28Z"/><path class="cls-1" d="M116.51,495.76c3.57,0,5.76,2.4,5.76,6.24v9.6H120v-9.06c0-3-1.5-4.68-4-4.68-2.34,0-4.29,1.74-4.29,4.8v8.94h-2.28v-9.12c0-2.91-1.53-4.62-4-4.62s-4.32,2-4.32,4.89v8.85H98.75V496.09h2.31v2.61a5.67,5.67,0,0,1,5-2.94,5.27,5.27,0,0,1,5,3.09A6.18,6.18,0,0,1,116.51,495.76Z"/><path class="cls-1" d="M133.7,510a6.42,6.42,0,0,0,4.89-2.19l1.44,1.29a8,8,0,0,1-6.39,2.91,7.72,7.72,0,0,1-7.74-8.1c0-4.5,3.15-8.1,7.44-8.1,4.59,0,7.23,3.66,7.23,8.22a6.28,6.28,0,0,1,0,.72h-12.3A5.44,5.44,0,0,0,133.7,510Zm4.53-7c-.24-2.82-1.86-5.28-4.95-5.28-2.7,0-4.74,2.25-5,5.28Z"/><path class="cls-1" d="M146.51,511.6H144.2V496.09h2.31v2.7a5.87,5.87,0,0,1,5.31-3c3.75,0,5.94,2.52,5.94,6.21v9.63h-2.31v-9.06c0-2.88-1.56-4.68-4.29-4.68a4.56,4.56,0,0,0-4.65,4.86Z"/><path class="cls-1" d="M165.38,507.19a2.29,2.29,0,0,0,2.61,2.58,4.86,4.86,0,0,0,2.25-.54v2a5.81,5.81,0,0,1-2.79.66c-2.49,0-4.38-1.23-4.38-4.38v-9.36h-2.16v-2h2.16v-4.68h2.31v4.68h4.92v2h-4.92Z"/><path class="cls-1" d="M195,511.6v-3.12a7,7,0,0,1-5.94,3.45c-3.72,0-7.41-2.94-7.41-8.07s3.69-8.1,7.41-8.1a7,7,0,0,1,5.94,3.3V489.7h2.31v21.9Zm-5.52-13.77c-3,0-5.46,2.22-5.46,6s2.52,6,5.46,6a6,6,0,0,0,0-12Z"/><path class="cls-1" d="M213.05,496.09h2.28V511.6h-2.28v-2.7a5.91,5.91,0,0,1-5.31,3c-3.75,0-5.94-2.52-5.94-6.21v-9.63h2.31v9.06c0,2.88,1.56,4.68,4.29,4.68a4.58,4.58,0,0,0,4.65-4.86Z"/><path class="cls-1" d="M235.67,512a8.1,8.1,0,1,1,6.21-13.44l-1.53,1.62a6.26,6.26,0,0,0-4.71-2.34,5.73,5.73,0,0,0-5.55,6,5.8,5.8,0,0,0,5.7,6.06,6.4,6.4,0,0,0,4.74-2.31L242,509A8,8,0,0,1,235.67,512Z"/><path class="cls-1" d="M252.47,512a8,8,0,0,1-8-8.07,8.09,8.09,0,1,1,8,8.07Zm0-14.16a5.7,5.7,0,0,0-5.67,6,5.83,5.83,0,0,0,5.73,6.06,5.71,5.71,0,0,0,5.7-6A5.86,5.86,0,0,0,252.47,497.8Z"/><path class="cls-1" d="M266.66,511.6h-2.31V496.09h2.31v2.7a5.87,5.87,0,0,1,5.31-3c3.75,0,5.94,2.52,5.94,6.21v9.63H275.6v-9.06c0-2.88-1.56-4.68-4.29-4.68a4.56,4.56,0,0,0-4.65,4.86Z"/><path class="cls-1" d="M289.4,512a8.1,8.1,0,1,1,6.21-13.44l-1.53,1.62a6.26,6.26,0,0,0-4.71-2.34,5.73,5.73,0,0,0-5.55,6,5.8,5.8,0,0,0,5.7,6.06,6.4,6.4,0,0,0,4.74-2.31l1.47,1.38A8,8,0,0,1,289.4,512Z"/><path class="cls-1" d="M306.2,512a8,8,0,0,1-8-8.07,8.09,8.09,0,1,1,8,8.07Zm0-14.16a5.7,5.7,0,0,0-5.67,6,5.83,5.83,0,0,0,5.73,6.06,5.71,5.71,0,0,0,5.7-6A5.86,5.86,0,0,0,306.2,497.8Z"/><path class="cls-1" d="M329.09,496.09h2.28V511.6h-2.28v-2.7a5.91,5.91,0,0,1-5.31,3c-3.75,0-5.94-2.52-5.94-6.21v-9.63h2.31v9.06c0,2.88,1.56,4.68,4.29,4.68a4.58,4.58,0,0,0,4.65-4.86Z"/><path class="cls-1" d="M338.45,511.6h-2.31V496.09h2.31v4.05a6.62,6.62,0,0,1,6.33-4.32v2.49h-.19c-3.38,0-6.14,2.43-6.14,7.11Z"/><path class="cls-1" d="M353,511.9a10.67,10.67,0,0,1-6.42-2.28l1.17-1.65a9.07,9.07,0,0,0,5.37,2c1.86,0,3.21-1,3.21-2.46v-.06c0-1.56-1.83-2.16-3.87-2.73-2.43-.69-5.13-1.53-5.13-4.38v-.06c0-2.67,2.22-4.44,5.28-4.44a10.6,10.6,0,0,1,5.58,1.71l-1.05,1.74a8.77,8.77,0,0,0-4.59-1.5c-1.83,0-3,1-3,2.25v.06c0,1.47,1.92,2,4,2.67,2.4.72,5,1.65,5,4.44v.06C358.52,510.19,356.09,511.9,353,511.9Z"/><path class="cls-1" d="M362.12,511.6v-3.15h2.75v3.15Z"/></g></g></svg>