<svg xmlns="http://www.w3.org/2000/svg" viewBox="0 0 454.79 480.3"><defs><style>.cls-1{fill:#fff;}.cls-2{fill:#4f9ec8;}.cls-3{fill:none;stroke:#fff;stroke-miterlimit:10;stroke-width:0.5px;}</style></defs><g id="Layer_2" data-name="Layer 2"><g id="Calque_1" data-name="Calque 1"><path class="cls-1" d="M12.79,171.61a125.11,125.11,0,0,0,9.36,13.75H218.5a124.94,124.94,0,0,0,9.34-13.75Z"/><path class="cls-1" d="M7.57,161.53H233.12a123.54,123.54,0,0,0,5.27-13.18H2.26A123.78,123.78,0,0,0,7.57,161.53Z"/><path class="cls-2" d="M1.23,84.52H17.58q8,0,12.2,4.49T34,101.49v2.31q0,8.25-4.16,12.68t-12.27,4.43H10.77v11.24H1.23Zm9.54,27.67h5.11q4.5,0,6.54-2.12c1.37-1.4,2-3.52,2-6.33v-2.25q0-4.15-2-6.21t-6.54-2H10.77Z"/><path class="cls-2" d="M40.82,80.16H50V98q3.47-4.5,10.22-4.5,7.63,0,10.83,3.82t3.21,11.24v23.58H65.08v-23q0-4.23-1.77-6.1c-1.18-1.25-3.15-1.87-5.93-1.87a7,7,0,0,0-5.55,2.21c-1.29,1.48-1.94,3.62-1.94,6.44v22.35H40.82Z"/><path class="cls-2" d="M91.66,105.92H82.53q0-12.4,15.61-12.41,14.85,0,14.86,12.82v25.82h-7.16l-1.64-4.77q-3.81,5.38-11,5.39c-3.9,0-6.79-1-8.65-2.9a10.4,10.4,0,0,1-2.8-7.53q0-5,3-7.67A22.94,22.94,0,0,1,93,110.41l10.9-3.47v-1.77a3.87,3.87,0,0,0-1.33-3.24c-.88-.7-2.41-1.06-4.6-1.06Q91.66,100.87,91.66,105.92Zm12.41,7.83-8.38,2.8c-3.19,1-4.77,2.7-4.77,5,0,2.86,1.52,4.3,4.56,4.3a8.9,8.9,0,0,0,5.9-2.29,7.09,7.09,0,0,0,2.69-5.62Z"/><path class="cls-2" d="M138.28,106.12v-1a4.36,4.36,0,0,0-1.06-3.27,4.78,4.78,0,0,0-3.44-1c-2.77,0-4.16,1.12-4.16,3.34a2.68,2.68,0,0,0,.86,2.08,10.55,10.55,0,0,0,3,1.67l5.93,2.45a16.43,16.43,0,0,1,6.2,4.26,10,10,0,0,1,2.18,6.72,10.23,10.23,0,0,1-3.71,8.35q-3.72,3-10.19,3-7.23,0-10.32-2.93T120.42,121v-1.91h8.45V121q0,4.42,5,4.43a5.33,5.33,0,0,0,3.48-1.06,3.61,3.61,0,0,0,1.29-3,3.65,3.65,0,0,0-.89-2.59,8.71,8.71,0,0,0-3-1.84l-6.82-2.8q-7.36-3.14-7.36-10c0-3.5,1.14-6.15,3.41-8s5.54-2.73,9.81-2.73q6.89,0,9.95,3t3.07,8.66v1Z"/><path class="cls-2" d="M185.85,115.73H163.43v1.91c0,3,.41,5,1.22,6.1s2.57,1.67,5.25,1.67c2.36,0,3.94-.37,4.74-1.09a6.69,6.69,0,0,0,1.6-4h9.13q-.13,6.67-3.75,9.57t-11.72,2.9q-8.25,0-11.89-3.68t-3.65-11.45v-8.93q0-7.69,3.72-11.45t12-3.75q8.17,0,12,3.62t3.78,10.9Zm-22.42-6.54h13.29v-1.91q0-3.34-1.5-4.87c-1-1-2.71-1.54-5.11-1.54s-4.18.51-5.18,1.54-1.5,2.64-1.5,4.87Z"/><path class="cls-2" d="M217.61,111.57V103.8h5.65q6.13,0,6.14-5.65a6.07,6.07,0,0,0-1.57-4.57q-1.58-1.5-5.59-1.5c-2.91,0-5,.54-6.2,1.6s-1.77,3.29-1.64,6.65h-9.54c-.13-5.73,1.11-10,3.75-12.75s7.25-4.15,13.84-4.15q8.79,0,12.77,3.3t4,10.12q0,6.89-5.79,9.88,7.08,2.86,7.08,11.52,0,14.52-17.85,14.52-9.94,0-14-4.09T204.79,116h9.54q-.2,5,2,6.55c1.45,1,3.73,1.56,6.82,1.56,2.81,0,4.85-.53,6.1-1.6a6.14,6.14,0,0,0,1.87-4.94q0-6-7.29-6Z"/><rect class="cls-1" x="114.37" width="11.91" height="27.26" rx="5.96"/><rect class="cls-1" x="215.64" y="52.8" width="27.26" height="11.91" rx="5.96" transform="translate(25.59 179.3) rotate(-44.99)"/><rect class="cls-1" x="168.68" y="20.69" width="27.26" height="11.91" rx="5.96" transform="translate(84.57 182.83) rotate(-66.28)"/><rect class="cls-1" x="5.43" y="45.13" width="11.91" height="27.26" rx="5.96" transform="translate(-38.22 25.26) rotate(-45.01)"/><rect class="cls-1" x="52.38" y="13.02" width="11.91" height="27.26" rx="5.96" transform="translate(-5.79 25.72) rotate(-23.72)"/><path class="cls-1" d="M26.85,229.49v-.06c0-5.37,3.51-8.31,7.32-8.31a6.18,6.18,0,0,1,5,2.4V215.6h4.56v21.9H39.18v-2.31a5.91,5.91,0,0,1-5,2.61C30.42,237.8,26.85,234.86,26.85,229.49Zm12.39,0v-.06c0-2.67-1.77-4.44-3.9-4.44s-3.93,1.74-3.93,4.44v.06c0,2.67,1.8,4.44,3.93,4.44S39.24,232.16,39.24,229.49Z"/><path class="cls-1" d="M47.28,231.83V221.42h4.56v9c0,2.16,1,3.27,2.76,3.27s2.85-1.11,2.85-3.27v-9H62V237.5H57.45v-2.28a5.69,5.69,0,0,1-4.71,2.58C49.29,237.8,47.28,235.52,47.28,231.83Z"/><path class="cls-1" d="M73.68,233.84l7-5.73c2.61-2.16,3.63-3.3,3.63-5a2.58,2.58,0,0,0-2.82-2.73c-1.62,0-2.73.9-4.29,2.82L74,220.55c2.07-2.82,4.08-4.35,7.83-4.35,4.35,0,7.23,2.55,7.23,6.48v.06c0,3.51-1.8,5.25-5.52,8.13l-3.42,2.64h9.15v4H73.68Z"/><path class="cls-1" d="M91.77,234.71l2.79-3.33a7.35,7.35,0,0,0,5,2.28c2.16,0,3.51-1,3.51-2.91v-.06c0-1.8-1.53-2.85-3.72-2.85a9,9,0,0,0-3.51.78l-2.67-1.77.6-10.35h12.9v4.05H97.74l-.24,3.63a10.27,10.27,0,0,1,2.76-.36c4.08,0,7.35,2,7.35,6.72v.06c0,4.44-3.15,7.26-8,7.26A10.8,10.8,0,0,1,91.77,234.71Z"/><path class="cls-1" d="M118.62,232.88v-.06c0-3.51,2.67-5.13,6.48-5.13a11.43,11.43,0,0,1,3.93.66v-.27c0-1.89-1.17-2.94-3.45-2.94a11.83,11.83,0,0,0-4.44.87L120,222.53a14.19,14.19,0,0,1,6.24-1.29,7.42,7.42,0,0,1,5.43,1.8,7,7,0,0,1,1.74,5.13v9.33H129v-1.74a6.18,6.18,0,0,1-4.86,2C121.11,237.8,118.62,236.06,118.62,232.88Zm10.47-1V231a7.07,7.07,0,0,0-2.91-.6c-2,0-3.15.78-3.15,2.22v.06c0,1.23,1,2,2.49,2C127.65,234.65,129.09,233.48,129.09,231.83Z"/><path class="cls-1" d="M135.47,221.42h4.83l3.6,10.77,3.63-10.77h4.74l-6.33,16.2H141.8Z"/><path class="cls-1" d="M154.5,221.42h4.55v3.24c.93-2.22,2.43-3.66,5.13-3.54v4.77h-.24c-3,0-4.89,1.83-4.89,5.67v5.94H154.5Z"/><path class="cls-1" d="M166.71,215.6h4.79v4.05h-4.79Zm.12,5.82h4.55V237.5h-4.55Z"/><path class="cls-1" d="M175.46,215.6H180v21.9h-4.56Z"/><path class="cls-1" d="M183.35,226h9.24v4.38h-9.24Z"/><path class="cls-1" d="M203.72,233.84l7-5.73c2.61-2.16,3.63-3.3,3.63-5a2.58,2.58,0,0,0-2.82-2.73c-1.62,0-2.73.9-4.29,2.82L204,220.55c2.07-2.82,4.08-4.35,7.83-4.35,4.35,0,7.23,2.55,7.23,6.48v.06c0,3.51-1.8,5.25-5.52,8.13l-3.42,2.64h9.15v4H203.72Z"/><path class="cls-1" d="M234,228.89a6.4,6.4,0,0,1-4.26,1.44c-4.56,0-7.5-2.52-7.5-6.78v-.06c0-4.23,3.27-7.35,8-7.35a7.6,7.6,0,0,1,6.06,2.28c1.5,1.5,2.49,3.78,2.49,7.92v.06c0,6.81-3.21,11.46-9.18,11.46a10.14,10.14,0,0,1-6.9-2.49l2.43-3.51a6.8,6.8,0,0,0,4.59,1.8C232.88,233.66,233.78,230.69,234,228.89Zm.09-5.52v-.06c0-1.86-1.38-3.21-3.69-3.21s-3.57,1.32-3.57,3.18v.06c0,1.86,1.38,3.15,3.66,3.15S234.05,225.17,234.05,223.37Z"/><path class="cls-1" d="M258.26,216.35h4.26l9,21.15h-4.83l-1.92-4.71h-8.88L254,237.5h-4.71Zm4.86,12.36-2.79-6.81-2.79,6.81Z"/><path class="cls-1" d="M272.42,221.42h4.83l3.6,10.77,3.63-10.77h4.74l-6.33,16.2h-4.14Z"/><path class="cls-1" d="M291.44,221.42H296v3.24c.93-2.22,2.43-3.66,5.13-3.54v4.77h-.24c-3,0-4.89,1.83-4.89,5.67v5.94h-4.56Z"/><path class="cls-1" d="M303.65,215.6h4.8v4.05h-4.8Zm.12,5.82h4.56V237.5h-4.56Z"/><path class="cls-1" d="M312.41,215.6H317v21.9h-4.56Z"/><path class="cls-1" d="M328.85,233.84l7-5.73c2.61-2.16,3.63-3.3,3.63-5a2.58,2.58,0,0,0-2.82-2.73c-1.62,0-2.73.9-4.29,2.82l-3.24-2.61c2.07-2.82,4.08-4.35,7.83-4.35,4.35,0,7.23,2.55,7.23,6.48v.06c0,3.51-1.8,5.25-5.52,8.13l-3.42,2.64h9.15v4H328.85Z"/><path class="cls-1" d="M347.27,227.06V227c0-6.09,3.78-10.86,9.36-10.86s9.3,4.71,9.3,10.8V227c0,6.09-3.75,10.86-9.36,10.86S347.27,233.15,347.27,227.06Zm13.92,0V227c0-3.81-1.86-6.69-4.62-6.69S352,223.1,352,226.94V227c0,3.84,1.83,6.69,4.62,6.69S361.19,230.87,361.19,227.06Z"/><path class="cls-1" d="M368.6,233.84l7-5.73c2.61-2.16,3.63-3.3,3.63-5a2.58,2.58,0,0,0-2.82-2.73c-1.62,0-2.73.9-4.29,2.82l-3.24-2.61c2.07-2.82,4.08-4.35,7.83-4.35,4.35,0,7.23,2.55,7.23,6.48v.06c0,3.51-1.8,5.25-5.52,8.13L375,233.51h9.15v4H368.6Z"/><path class="cls-1" d="M386.87,233.84l7-5.73c2.61-2.16,3.63-3.3,3.63-5a2.58,2.58,0,0,0-2.82-2.73c-1.62,0-2.73.9-4.29,2.82l-3.24-2.61c2.07-2.82,4.08-4.35,7.83-4.35,4.35,0,7.23,2.55,7.23,6.48v.06c0,3.51-1.8,5.25-5.52,8.13l-3.42,2.64h9.15v4H386.87Z"/><line class="cls-3" x1="22.79" y1="250.5" x2="454.79" y2="250.5"/><path class="cls-2" d="M33.23,288.09h-5.1v7.41H25.76v-21h7.86c4.74,0,7.86,2.52,7.86,6.69C41.48,285.75,37.7,288.09,33.23,288.09Zm.21-11.4H28.13v9.24h5.19c3.48,0,5.76-1.86,5.76-4.65C39.08,278.25,36.83,276.69,33.44,276.69Z"/><path class="cls-2" d="M59.84,295.5l-6.09-8.16h-6v8.16H45.38v-21h9C59,274.5,62,277,62,280.77c0,3.51-2.4,5.55-5.7,6.15l6.45,8.58Zm-5.61-18.81H47.75v8.52H54.2c3.15,0,5.4-1.62,5.4-4.35S57.62,276.69,54.23,276.69Z"/><path class="cls-2" d="M81.83,276.66H69v7.17H80.48V286H69v7.35H82v2.16H66.65v-21H81.83Zm-9.24-4,2.85-4.35,2.4,1.11-3.39,3.24Z"/><path class="cls-2" d="M93.86,283.86c4.68,1,6.84,2.73,6.84,6,0,3.63-3,6-7.17,6A12.29,12.29,0,0,1,85,292.44l1.47-1.74a10,10,0,0,0,7.2,3c2.82,0,4.68-1.47,4.68-3.6s-1-3.09-5.46-4c-4.83-1.05-7-2.61-7-6.09s2.91-5.76,6.9-5.76a11,11,0,0,1,7.38,2.58l-1.38,1.83a9.22,9.22,0,0,0-6.06-2.28c-2.73,0-4.47,1.5-4.47,3.42S89.24,282.87,93.86,283.86Z"/><path class="cls-2" d="M120.29,276.66H107.48v7.17h11.46V286H107.48v7.35h13v2.16H105.11v-21h15.18Zm-9.24-4,2.85-4.35,2.4,1.11-3.39,3.24Z"/><path class="cls-2" d="M124.79,274.5h2.37v18.81H139v2.19H124.79Z"/><path class="cls-2" d="M158.12,276.66H145.31v7.17h11.46V286H145.31v7.35h13v2.16H142.94v-21h15.18Z"/><path class="cls-2" d="M172.22,295.86a10.86,10.86,0,0,1,.09-21.72,10.93,10.93,0,0,1,8.19,3.33l-1.62,1.74a9.13,9.13,0,0,0-6.6-2.88c-4.65,0-8.13,3.75-8.13,8.64s3.51,8.7,8.13,8.7c2.88,0,4.77-1.11,6.78-3l1.56,1.53A10.93,10.93,0,0,1,172.22,295.86Z"/><path class="cls-2" d="M192.29,295.5h-2.4V276.69h-7V274.5h16.5v2.19h-7.05Z"/><path class="cls-2" d="M205.94,274.5v21h-2.37v-21Z"/><path class="cls-2" d="M221.42,295.86A10.86,10.86,0,1,1,232.16,285,10.55,10.55,0,0,1,221.42,295.86Zm0-19.53c-4.8,0-8.22,3.84-8.22,8.64s3.48,8.7,8.28,8.7,8.22-3.84,8.22-8.64S226.22,276.33,221.42,276.33Z"/><path class="cls-2" d="M252.2,274.5h2.31v21h-1.89l-13.56-17.22V295.5h-2.31v-21H239l13.23,16.83Z"/><path class="cls-2" d="M275.9,295.5h-7.29v-21h7.29c6.6,0,11.16,4.53,11.16,10.47S282.5,295.5,275.9,295.5Zm0-18.81H271v16.62h4.92c5.31,0,8.7-3.6,8.7-8.28S281.21,276.69,275.9,276.69Z"/><path class="cls-2" d="M306.83,276.66H294v7.17h11.46V286H294v7.35h13v2.16H291.65v-21h15.18Z"/><path class="cls-2" d="M318.86,283.86c4.68,1,6.84,2.73,6.84,6,0,3.63-3,6-7.17,6a12.29,12.29,0,0,1-8.58-3.36l1.47-1.74a10,10,0,0,0,7.2,3c2.82,0,4.68-1.47,4.68-3.6s-1.05-3.09-5.46-4c-4.83-1.05-7-2.61-7-6.09s2.91-5.76,6.9-5.76a11,11,0,0,1,7.38,2.58l-1.38,1.83a9.22,9.22,0,0,0-6.06-2.28c-2.73,0-4.47,1.5-4.47,3.42S314.24,282.87,318.86,283.86Z"/><path class="cls-2" d="M35.36,331.86a10.86,10.86,0,0,1,.09-21.72,10.93,10.93,0,0,1,8.19,3.33L42,315.21a9.13,9.13,0,0,0-6.6-2.88c-4.65,0-8.13,3.75-8.13,8.64s3.51,8.7,8.13,8.7c2.88,0,4.77-1.11,6.78-3l1.56,1.53A10.93,10.93,0,0,1,35.36,331.86Z"/><path class="cls-2" d="M67,331.5H64.49L62,326H50.6l-2.49,5.55H45.68l9.57-21.15h2.22ZM56.33,313.11l-4.8,10.71H61.1Z"/><path class="cls-2" d="M86.21,310.5h2.31v21H86.63L73.07,314.28V331.5H70.76v-21H73l13.23,16.83Z"/><path class="cls-2" d="M101.33,331.5H94v-21h7.29c6.6,0,11.16,4.53,11.16,10.47S107.93,331.5,101.33,331.5Zm0-18.81H96.41v16.62h4.92c5.31,0,8.7-3.6,8.7-8.28S106.64,312.69,101.33,312.69Z"/><path class="cls-2" d="M119.66,310.5v21h-2.37v-21Z"/><path class="cls-2" d="M132.68,331.5h-7.29v-21h7.29c6.6,0,11.16,4.53,11.16,10.47S139.28,331.5,132.68,331.5Zm0-18.81h-4.92v16.62h4.92c5.31,0,8.7-3.6,8.7-8.28S138,312.69,132.68,312.69Z"/><path class="cls-2" d="M168,331.5h-2.55L163,326H151.55l-2.49,5.55h-2.43l9.57-21.15h2.22Zm-10.71-18.39-4.8,10.71h9.57Z"/><path class="cls-2" d="M179.66,331.5h-2.4V312.69h-7V310.5h16.5v2.19h-7.05Z"/><path class="cls-2" d="M207.89,322.53c0,6.12-3.51,9.3-8.76,9.3s-8.73-3.18-8.73-9.12V310.5h2.37v12.06c0,4.53,2.4,7.08,6.42,7.08,3.87,0,6.33-2.34,6.33-6.93V310.5h2.37Z"/><path class="cls-2" d="M227.54,331.5l-6.09-8.16h-6v8.16h-2.37v-21h9c4.62,0,7.59,2.49,7.59,6.27,0,3.51-2.4,5.55-5.7,6.15l6.45,8.58Zm-5.61-18.81h-6.48v8.52h6.45c3.15,0,5.4-1.62,5.4-4.35S225.32,312.69,221.93,312.69Z"/><path class="cls-2" d="M249.53,312.66H236.72v7.17h11.46V322H236.72v7.35h13v2.16H234.35v-21h15.18Z"/><path class="cls-2" d="M261.56,319.86c4.68,1,6.84,2.73,6.84,6,0,3.63-3,6-7.17,6a12.29,12.29,0,0,1-8.58-3.36l1.47-1.74a10,10,0,0,0,7.2,3c2.82,0,4.68-1.47,4.68-3.6s-1.05-3.09-5.46-4c-4.83-1.05-7.05-2.61-7.05-6.09s2.91-5.76,6.9-5.76a11,11,0,0,1,7.38,2.58l-1.38,1.83a9.22,9.22,0,0,0-6.06-2.28c-2.73,0-4.47,1.5-4.47,3.42S256.94,318.87,261.56,319.86Z"/><path class="cls-1" d="M42.92,358.53c0,6.12-3.51,9.3-8.76,9.3s-8.73-3.18-8.73-9.12V346.5H27.8v12.06c0,4.53,2.4,7.08,6.42,7.08s6.33-2.34,6.33-6.93V346.5h2.37Z"/><path class="cls-1" d="M50,367.5H47.72V352H50v2.7a5.87,5.87,0,0,1,5.31-3c3.75,0,5.94,2.52,5.94,6.21v9.63H59v-9.06c0-2.88-1.56-4.68-4.29-4.68A4.56,4.56,0,0,0,50,358.62Z"/><path class="cls-1" d="M75.35,351.93l-1.74-1.26c1.89-2.82,3.87-4.47,7.56-4.47s6.51,2.52,6.51,6c0,3.09-1.62,5-5.31,8.19l-5.61,5H87.89v2.16H73.22v-1.83L80.84,359c3.21-2.88,4.38-4.5,4.38-6.6a4,4,0,0,0-4.23-4C78.59,348.33,77,349.59,75.35,351.93Z"/><path class="cls-1" d="M94.82,356.55a3.74,3.74,0,0,0,2.85-1.28l.84.75a4.65,4.65,0,0,1-3.72,1.7,4.73,4.73,0,0,1-.18-9.44c2.68,0,4.21,2.13,4.21,4.79,0,.12,0,.26,0,.42H91.64A3.16,3.16,0,0,0,94.82,356.55Zm2.64-4.06c-.14-1.64-1.08-3.08-2.88-3.08a3.12,3.12,0,0,0-2.94,3.08Zm-5.28-7.27,1.4-.65,1.66,2.54H94.16Z"/><path class="cls-1" d="M111.29,348.28c2.08,0,3.36,1.4,3.36,3.64v5.59H113.3v-5.28c0-1.75-.87-2.73-2.34-2.73a2.54,2.54,0,0,0-2.5,2.8v5.21h-1.33v-5.32c0-1.69-.89-2.69-2.32-2.69a2.62,2.62,0,0,0-2.52,2.85v5.16h-1.35v-9h1.35V350a3.3,3.3,0,0,1,2.92-1.71,3.06,3.06,0,0,1,2.9,1.8A3.6,3.6,0,0,1,111.29,348.28Z"/><path class="cls-1" d="M121.32,356.55a3.75,3.75,0,0,0,2.85-1.28l.84.75a4.65,4.65,0,0,1-3.73,1.7,4.73,4.73,0,0,1-.17-9.44c2.67,0,4.21,2.13,4.21,4.79a3.25,3.25,0,0,1,0,.42h-7.17A3.18,3.18,0,0,0,121.32,356.55Zm2.64-4.06c-.14-1.64-1.09-3.08-2.89-3.08a3.13,3.13,0,0,0-2.94,3.08Z"/><path class="cls-1" d="M140.21,363.09a2.29,2.29,0,0,0,2.61,2.58,4.86,4.86,0,0,0,2.25-.54v2a5.81,5.81,0,0,1-2.79.66c-2.49,0-4.38-1.23-4.38-4.38V354h-2.16v-2h2.16v-4.68h2.31V352h4.92v2h-4.92Z"/><path class="cls-1" d="M151.1,367.5h-2.31V352h2.31V356a6.64,6.64,0,0,1,6.33-4.32v2.49h-.18c-3.39,0-6.15,2.43-6.15,7.11Z"/><path class="cls-1" d="M160.58,348.6v-2.55h2.65v2.55Zm.16,18.9V352H163V367.5Z"/><path class="cls-1" d="M181.71,367.8a10.67,10.67,0,0,1-6.42-2.28l1.17-1.65a9,9,0,0,0,5.37,2c1.85,0,3.2-1,3.2-2.46v-.06c0-1.56-1.82-2.16-3.86-2.73-2.43-.69-5.13-1.53-5.13-4.38v-.06c0-2.67,2.21-4.44,5.27-4.44a10.58,10.58,0,0,1,5.58,1.71l-1,1.74a8.77,8.77,0,0,0-4.59-1.5c-1.83,0-3,1-3,2.25V356c0,1.47,1.92,2,4,2.67,2.39.72,5,1.65,5,4.44v.06C187.22,366.09,184.79,367.8,181.71,367.8Z"/><path class="cls-1" d="M197.93,365.85a6.42,6.42,0,0,0,4.89-2.19l1.44,1.29a8,8,0,0,1-6.39,2.91,7.72,7.72,0,0,1-7.74-8.1c0-4.5,3.15-8.1,7.44-8.1,4.59,0,7.23,3.66,7.23,8.22a6.28,6.28,0,0,1,0,.72h-12.3A5.44,5.44,0,0,0,197.93,365.85Zm4.53-7c-.24-2.82-1.86-5.28-5-5.28-2.7,0-4.74,2.25-5,5.28Z"/><path class="cls-1" d="M210.74,367.5h-2.31V352h2.31V356a6.64,6.64,0,0,1,6.33-4.32v2.49h-.18c-3.39,0-6.15,2.43-6.15,7.11Z"/><path class="cls-1" d="M221.06,355l-.69-1.89a12.81,12.81,0,0,1,5.64-1.29c4.23,0,6.6,2.16,6.6,6.24v9.48h-2.22v-2.34a6.8,6.8,0,0,1-5.61,2.67c-2.88,0-5.79-1.62-5.79-4.86s2.7-5,6.63-5a16.47,16.47,0,0,1,4.77.66v-.54c0-2.79-1.71-4.23-4.62-4.23A10.8,10.8,0,0,0,221.06,355Zm.27,7.92c0,2,1.8,3.12,3.9,3.12,2.85,0,5.19-1.74,5.19-4.2v-1.5a16.18,16.18,0,0,0-4.56-.66C223,359.64,221.33,360.9,221.33,362.88Z"/><path class="cls-1" d="M253.76,352.05v2h-4.89V367.5h-2.31V354h-2.13v-2h2.13v-1.35c0-3.39,1.71-5.19,4.68-5.19a7,7,0,0,1,2.55.39v2a7.72,7.72,0,0,0-2.25-.39c-1.8,0-2.7,1.08-2.7,3.3v1.26Z"/><path class="cls-1" d="M257.18,355l-.69-1.89a12.81,12.81,0,0,1,5.64-1.29c4.23,0,6.6,2.16,6.6,6.24v9.48h-2.22v-2.34a6.8,6.8,0,0,1-5.61,2.67c-2.88,0-5.79-1.62-5.79-4.86s2.7-5,6.63-5a16.47,16.47,0,0,1,4.77.66v-.54c0-2.79-1.71-4.23-4.62-4.23A10.8,10.8,0,0,0,257.18,355Zm.27,7.92c0,2,1.8,3.12,3.9,3.12,2.85,0,5.19-1.74,5.19-4.2v-1.5a16.18,16.18,0,0,0-4.56-.66C259.07,359.64,257.45,360.9,257.45,362.88Z"/><path class="cls-1" d="M273.29,348.6v-2.55h2.64v2.55Zm.15,18.9V352h2.31V367.5Z"/><path class="cls-1" d="M283.82,363.09a2.29,2.29,0,0,0,2.61,2.58,4.86,4.86,0,0,0,2.25-.54v2a5.81,5.81,0,0,1-2.79.66c-2.49,0-4.38-1.23-4.38-4.38V354h-2.16v-2h2.16v-4.68h2.31V352h4.92v2h-4.92Z"/><path class="cls-1" d="M309.23,367.83a7,7,0,0,1-5.94-3.3v7.77H301V352h2.31v3.12a7,7,0,0,1,5.94-3.45c3.72,0,7.41,2.94,7.41,8.07S313,367.83,309.23,367.83Zm-.42-14.1a6,6,0,0,0,0,12c3,0,5.46-2.22,5.46-6S311.75,353.73,308.81,353.73Z"/><path class="cls-1" d="M321.38,355l-.69-1.89a12.81,12.81,0,0,1,5.64-1.29c4.23,0,6.6,2.16,6.6,6.24v9.48h-2.22v-2.34a6.8,6.8,0,0,1-5.61,2.67c-2.88,0-5.79-1.62-5.79-4.86s2.7-5,6.63-5a16.47,16.47,0,0,1,4.77.66v-.54c0-2.79-1.71-4.23-4.62-4.23A10.8,10.8,0,0,0,321.38,355Zm.27,7.92c0,2,1.8,3.12,3.9,3.12,2.85,0,5.19-1.74,5.19-4.2v-1.5a16.18,16.18,0,0,0-4.56-.66C323.27,359.64,321.65,360.9,321.65,362.88Z"/><path class="cls-1" d="M339.74,367.5h-2.31V352h2.31V356a6.64,6.64,0,0,1,6.33-4.32v2.49h-.18c-3.39,0-6.15,2.43-6.15,7.11Z"/><path class="cls-1" d="M358,367.5V345.6h2.31v21.9Z"/><path class="cls-1" d="M372.05,365.85a6.42,6.42,0,0,0,4.89-2.19l1.44,1.29a8,8,0,0,1-6.39,2.91,7.72,7.72,0,0,1-7.74-8.1c0-4.5,3.15-8.1,7.44-8.1,4.59,0,7.23,3.66,7.23,8.22a6.28,6.28,0,0,1,0,.72h-12.3A5.44,5.44,0,0,0,372.05,365.85Zm4.53-7c-.24-2.82-1.86-5.28-4.95-5.28-2.7,0-4.74,2.25-5,5.28Z"/><path class="cls-1" d="M32.36,403.86a8.1,8.1,0,1,1,6.21-13.44L37,392a6.26,6.26,0,0,0-4.71-2.34,5.73,5.73,0,0,0-5.55,6,5.8,5.8,0,0,0,5.7,6.06,6.4,6.4,0,0,0,4.74-2.31l1.47,1.38A8,8,0,0,1,32.36,403.86Z"/><path class="cls-1" d="M49.16,403.86a8,8,0,0,1-8-8.07,8.09,8.09,0,1,1,8,8.07Zm0-14.16a5.7,5.7,0,0,0-5.67,6,5.83,5.83,0,0,0,5.73,6.06,5.71,5.71,0,0,0,5.7-6A5.86,5.86,0,0,0,49.16,389.7Z"/><path class="cls-1" d="M78.8,387.66c3.57,0,5.76,2.4,5.76,6.24v9.6H82.25v-9.06c0-3-1.5-4.68-4-4.68-2.34,0-4.29,1.74-4.29,4.8v8.94H71.66v-9.12c0-2.91-1.53-4.62-4-4.62s-4.32,2-4.32,4.89v8.85H61V388h2.31v2.61a5.67,5.67,0,0,1,5-2.94,5.27,5.27,0,0,1,5,3.09A6.18,6.18,0,0,1,78.8,387.66Z"/><path class="cls-1" d="M89.21,384.6v-2.55h2.64v2.55Zm.15,18.9V388h2.31V403.5Z"/><path class="cls-1" d="M99.74,399.09a2.29,2.29,0,0,0,2.61,2.58,4.86,4.86,0,0,0,2.25-.54v2a5.81,5.81,0,0,1-2.79.66c-2.49,0-4.38-1.23-4.38-4.38V390H95.27v-2h2.16v-4.68h2.31V388h4.92v2H99.74Z"/><path class="cls-1" d="M115.16,401.85a6.42,6.42,0,0,0,4.89-2.19l1.44,1.29a8,8,0,0,1-6.39,2.91,7.72,7.72,0,0,1-7.74-8.1c0-4.5,3.15-8.1,7.44-8.1,4.59,0,7.23,3.66,7.23,8.22a6.28,6.28,0,0,1,0,.72H109.7A5.44,5.44,0,0,0,115.16,401.85Zm4.53-7c-.24-2.82-1.86-5.28-5-5.28-2.7,0-4.74,2.25-5,5.28Zm-6.33-9.24,2.85-4.35,2.4,1.11-3.39,3.24Z"/><path class="cls-1" d="M139.37,403.8a10.67,10.67,0,0,1-6.42-2.28l1.17-1.65a9.07,9.07,0,0,0,5.37,2c1.86,0,3.21-1,3.21-2.46v-.06c0-1.56-1.83-2.16-3.87-2.73-2.43-.69-5.13-1.53-5.13-4.38v-.06c0-2.67,2.22-4.44,5.28-4.44a10.6,10.6,0,0,1,5.58,1.71l-1.05,1.74a8.77,8.77,0,0,0-4.59-1.5c-1.83,0-3,1-3,2.25V392c0,1.47,1.92,2,4,2.67,2.4.72,5,1.65,5,4.44v.06C144.89,402.09,142.46,403.8,139.37,403.8Z"/><path class="cls-1" d="M155.75,403.86A8.1,8.1,0,1,1,162,390.42L160.43,392a6.26,6.26,0,0,0-4.71-2.34,5.73,5.73,0,0,0-5.55,6,5.8,5.8,0,0,0,5.7,6.06,6.4,6.4,0,0,0,4.74-2.31l1.47,1.38A8,8,0,0,1,155.75,403.86Z"/><path class="cls-1" d="M165.53,384.6v-2.55h2.64v2.55Zm.15,18.9V388H168V403.5Z"/><path class="cls-1" d="M179.78,401.85a6.42,6.42,0,0,0,4.89-2.19l1.44,1.29a8,8,0,0,1-6.39,2.91,7.72,7.72,0,0,1-7.74-8.1c0-4.5,3.15-8.1,7.44-8.1,4.59,0,7.23,3.66,7.23,8.22a6.28,6.28,0,0,1,0,.72h-12.3A5.44,5.44,0,0,0,179.78,401.85Zm4.53-7c-.24-2.82-1.86-5.28-4.95-5.28-2.7,0-4.74,2.25-5,5.28Z"/><path class="cls-1" d="M192.59,403.5h-2.31V388h2.31v2.7a5.87,5.87,0,0,1,5.31-3c3.75,0,5.94,2.52,5.94,6.21v9.63h-2.31v-9.06c0-2.88-1.56-4.68-4.29-4.68a4.56,4.56,0,0,0-4.65,4.86Z"/><path class="cls-1" d="M211.46,399.09a2.29,2.29,0,0,0,2.61,2.58,4.86,4.86,0,0,0,2.25-.54v2a5.81,5.81,0,0,1-2.79.66c-2.49,0-4.38-1.23-4.38-4.38V390H207v-2h2.16v-4.68h2.31V388h4.92v2h-4.92Z"/><path class="cls-1" d="M220.1,384.6v-2.55h2.64v2.55Zm.15,18.9V388h2.31V403.5Z"/><path class="cls-1" d="M235.58,388.05v2h-4.89V403.5h-2.31V390h-2.13v-2h2.13v-1.35c0-3.39,1.71-5.19,4.68-5.19a7,7,0,0,1,2.55.39v2a7.72,7.72,0,0,0-2.25-.39c-1.8,0-2.7,1.08-2.7,3.3v1.26Z"/><path class="cls-1" d="M238.16,384.6v-2.55h2.64v2.55Zm.15,18.9V388h2.31V403.5Z"/><path class="cls-1" d="M258,408.3v-7.92a7,7,0,0,1-5.94,3.45c-3.72,0-7.41-2.94-7.41-8.07s3.69-8.1,7.41-8.1A7,7,0,0,1,258,391v-3h2.31V408.3Zm-5.52-18.57c-3,0-5.46,2.22-5.46,6s2.52,6,5.46,6a6,6,0,0,0,0-12Z"/><path class="cls-1" d="M276.08,388h2.28V403.5h-2.28v-2.7a5.91,5.91,0,0,1-5.31,3c-3.75,0-5.94-2.52-5.94-6.21V388h2.31v9.06c0,2.88,1.56,4.68,4.29,4.68a4.58,4.58,0,0,0,4.65-4.86Z"/><path class="cls-1" d="M290,401.85a6.42,6.42,0,0,0,4.89-2.19l1.43,1.29a8,8,0,0,1-6.38,2.91,7.72,7.72,0,0,1-7.74-8.1c0-4.5,3.15-8.1,7.44-8.1,4.59,0,7.22,3.66,7.22,8.22,0,.21,0,.45,0,.72h-12.3A5.44,5.44,0,0,0,290,401.85Zm4.53-7c-.25-2.82-1.86-5.28-4.95-5.28-2.7,0-4.74,2.25-5,5.28Z"/><path class="cls-1" d="M317.29,403.83a7,7,0,0,1-5.94-3.3v7.77H309V388h2.31v3.12a7,7,0,0,1,5.94-3.45c3.72,0,7.41,2.94,7.41,8.07S321,403.83,317.29,403.83Zm-.42-14.1a6,6,0,0,0,0,12c3,0,5.46-2.22,5.46-6S319.81,389.73,316.87,389.73Z"/><path class="cls-1" d="M335.62,403.86a8,8,0,0,1-8-8.07,8.09,8.09,0,1,1,8,8.07Zm0-14.16c-3.36,0-5.66,2.67-5.66,6a5.82,5.82,0,0,0,5.72,6.06,5.71,5.71,0,0,0,5.7-6A5.86,5.86,0,0,0,335.62,389.7Z"/><path class="cls-1" d="M358.51,388h2.28V403.5h-2.28v-2.7a5.91,5.91,0,0,1-5.31,3c-3.74,0-5.94-2.52-5.94-6.21V388h2.31v9.06c0,2.88,1.56,4.68,4.29,4.68a4.58,4.58,0,0,0,4.65-4.86Z"/><path class="cls-1" d="M367.87,403.5h-2.31V388h2.31V392a6.64,6.64,0,0,1,6.33-4.32v2.49H374c-3.39,0-6.15,2.43-6.15,7.11Z"/><path class="cls-1" d="M27.68,439.5H25.37V424h2.31V428A6.64,6.64,0,0,1,34,423.72v2.49h-.18c-3.39,0-6.15,2.43-6.15,7.11Z"/><path class="cls-1" d="M43.94,437.85a6.42,6.42,0,0,0,4.89-2.19L50.27,437a8,8,0,0,1-6.39,2.91,7.72,7.72,0,0,1-7.74-8.1c0-4.5,3.15-8.1,7.44-8.1,4.59,0,7.23,3.66,7.23,8.22a6.28,6.28,0,0,1,0,.72H38.48A5.44,5.44,0,0,0,43.94,437.85Zm4.53-7c-.24-2.82-1.86-5.28-4.95-5.28-2.7,0-4.74,2.25-5,5.28Z"/><path class="cls-1" d="M57.56,435.09a2.29,2.29,0,0,0,2.61,2.58,4.86,4.86,0,0,0,2.25-.54v2a5.81,5.81,0,0,1-2.79.66c-2.49,0-4.38-1.23-4.38-4.38V426H53.09v-2h2.16v-4.68h2.31V424h4.92v2H57.56Z"/><path class="cls-1" d="M73,437.85a6.42,6.42,0,0,0,4.89-2.19L79.31,437a8,8,0,0,1-6.39,2.91,7.72,7.72,0,0,1-7.74-8.1c0-4.5,3.15-8.1,7.44-8.1,4.59,0,7.23,3.66,7.23,8.22a6.28,6.28,0,0,1,0,.72H67.52A5.44,5.44,0,0,0,73,437.85Zm4.53-7c-.24-2.82-1.86-5.28-5-5.28-2.7,0-4.74,2.25-5,5.28Z"/><path class="cls-1" d="M85.79,439.5H83.48V424h2.31v2.7a5.87,5.87,0,0,1,5.31-3c3.75,0,5.94,2.52,5.94,6.21v9.63H94.73v-9.06c0-2.88-1.56-4.68-4.29-4.68a4.56,4.56,0,0,0-4.65,4.86Z"/><path class="cls-1" d="M101.6,420.6v-2.55h2.64v2.55Zm.15,18.9V424h2.31V439.5Z"/><path class="cls-1" d="M111.32,439.5H109V424h2.31V428a6.64,6.64,0,0,1,6.33-4.32v2.49h-.18c-3.39,0-6.15,2.43-6.15,7.11Z"/><path class="cls-1" d="M129.53,439.5V417.6h2.31v21.9Z"/><path class="cls-1" d="M143.63,437.85a6.42,6.42,0,0,0,4.89-2.19L150,437a8,8,0,0,1-6.39,2.91,7.72,7.72,0,0,1-7.74-8.1c0-4.5,3.15-8.1,7.44-8.1,4.59,0,7.23,3.66,7.23,8.22a6.28,6.28,0,0,1,0,.72h-12.3A5.44,5.44,0,0,0,143.63,437.85Zm4.53-7c-.24-2.82-1.86-5.28-4.95-5.28-2.7,0-4.74,2.25-5,5.28Z"/><path class="cls-1" d="M159.26,439.8a10.67,10.67,0,0,1-6.42-2.28l1.17-1.65a9.07,9.07,0,0,0,5.37,2c1.86,0,3.21-1,3.21-2.46v-.06c0-1.56-1.83-2.16-3.87-2.73-2.43-.69-5.13-1.53-5.13-4.38v-.06c0-2.67,2.22-4.44,5.28-4.44a10.6,10.6,0,0,1,5.58,1.71l-1,1.74a8.77,8.77,0,0,0-4.59-1.5c-1.83,0-3,1-3,2.25V428c0,1.47,1.92,2,4,2.67,2.4.72,5,1.65,5,4.44v.06C164.78,438.09,162.35,439.8,159.26,439.8Z"/><path class="cls-1" d="M180.62,418.35h1.74V439.5H180V420.81l-4,1.23-.57-1.92Z"/><path class="cls-1" d="M195.68,439.86c-5.43,0-8.85-4.92-8.85-10.83s3.48-10.89,8.91-10.89,8.82,4.92,8.82,10.83S201.08,439.86,195.68,439.86Zm0-19.56c-3.93,0-6.39,4-6.39,8.67s2.52,8.73,6.45,8.73,6.36-4.05,6.36-8.67S199.61,420.3,195.68,420.3Z"/><path class="cls-1" d="M216.71,439.86c-5.43,0-8.85-4.92-8.85-10.83s3.48-10.89,8.91-10.89,8.82,4.92,8.82,10.83S222.11,439.86,216.71,439.86Zm0-19.56c-3.93,0-6.39,4-6.39,8.67s2.52,8.73,6.45,8.73,6.36-4.05,6.36-8.67S220.64,420.3,216.71,420.3Z"/><path class="cls-1" d="M256,423.66c3.57,0,5.76,2.4,5.76,6.24v9.6H259.4v-9.06c0-3-1.5-4.68-4-4.68-2.34,0-4.29,1.74-4.29,4.8v8.94h-2.28v-9.12c0-2.91-1.53-4.62-4-4.62s-4.32,2-4.32,4.89v8.85h-2.31V424h2.31v2.61a5.67,5.67,0,0,1,5-2.94,5.27,5.27,0,0,1,5,3.09A6.18,6.18,0,0,1,256,423.66Z"/><path class="cls-1" d="M273.14,437.85a6.42,6.42,0,0,0,4.89-2.19l1.44,1.29a8,8,0,0,1-6.39,2.91,7.72,7.72,0,0,1-7.74-8.1c0-4.5,3.15-8.1,7.44-8.1,4.59,0,7.23,3.66,7.23,8.22a6.28,6.28,0,0,1,0,.72h-12.3A5.44,5.44,0,0,0,273.14,437.85Zm4.53-7c-.24-2.82-1.86-5.28-4.95-5.28-2.7,0-4.74,2.25-5,5.28Z"/><path class="cls-1" d="M283.7,420.6v-2.55h2.64v2.55Zm.15,18.9V424h2.31V439.5Z"/><path class="cls-1" d="M291.32,439.5V417.6h2.31v21.9Z"/><path class="cls-1" d="M298.79,439.5V417.6h2.31v21.9Z"/><path class="cls-1" d="M312.89,437.85a6.42,6.42,0,0,0,4.89-2.19l1.43,1.29a8,8,0,0,1-6.38,2.91,7.72,7.72,0,0,1-7.74-8.1c0-4.5,3.15-8.1,7.44-8.1,4.59,0,7.22,3.66,7.22,8.22,0,.21,0,.45,0,.72h-12.3A5.44,5.44,0,0,0,312.89,437.85Zm4.53-7c-.25-2.82-1.86-5.28-4.95-5.28-2.7,0-4.74,2.25-5,5.28Z"/><path class="cls-1" d="M334.4,424h2.27V439.5H334.4v-2.7a5.94,5.94,0,0,1-5.32,3c-3.74,0-5.93-2.52-5.93-6.21V424h2.31v9.06c0,2.88,1.56,4.68,4.29,4.68a4.59,4.59,0,0,0,4.65-4.86Z"/><path class="cls-1" d="M343.75,439.5h-2.3V424h2.3V428a6.64,6.64,0,0,1,6.33-4.32v2.49h-.17c-3.4,0-6.16,2.43-6.16,7.11Z"/><path class="cls-1" d="M360,437.85a6.42,6.42,0,0,0,4.89-2.19l1.43,1.29a8,8,0,0,1-6.38,2.91,7.72,7.72,0,0,1-7.74-8.1c0-4.5,3.15-8.1,7.44-8.1,4.59,0,7.22,3.66,7.22,8.22,0,.21,0,.45,0,.72h-12.3A5.44,5.44,0,0,0,360,437.85Zm4.52-7c-.24-2.82-1.85-5.28-4.94-5.28-2.7,0-4.74,2.25-5,5.28Z"/><path class="cls-1" d="M375.65,439.8a10.67,10.67,0,0,1-6.42-2.28l1.17-1.65a9.07,9.07,0,0,0,5.37,2c1.85,0,3.21-1,3.21-2.46v-.06c0-1.56-1.83-2.16-3.87-2.73-2.43-.69-5.13-1.53-5.13-4.38v-.06c0-2.67,2.22-4.44,5.27-4.44a10.55,10.55,0,0,1,5.58,1.71l-1,1.74a8.8,8.8,0,0,0-4.59-1.5c-1.83,0-3,1-3,2.25V428c0,1.47,1.92,2,4,2.67,2.39.72,5,1.65,5,4.44v.06C381.17,438.09,378.74,439.8,375.65,439.8Z"/><path class="cls-1" d="M33.62,475.83a7,7,0,0,1-5.94-3.3v7.77H25.37V460h2.31v3.12a7,7,0,0,1,5.94-3.45c3.72,0,7.41,2.94,7.41,8.07S37.37,475.83,33.62,475.83Zm-.42-14.1a6,6,0,0,0,0,12c3,0,5.46-2.22,5.46-6S36.14,461.73,33.2,461.73Z"/><path class="cls-1" d="M47.18,475.5H44.87V460h2.31V464a6.64,6.64,0,0,1,6.33-4.32v2.49h-.18c-3.39,0-6.15,2.43-6.15,7.11Z"/><path class="cls-1" d="M63.68,475.86a8,8,0,0,1-8-8.07,8.09,8.09,0,1,1,8,8.07Zm0-14.16a5.7,5.7,0,0,0-5.67,6,5.83,5.83,0,0,0,5.73,6.06,5.71,5.71,0,0,0,5.7-6A5.86,5.86,0,0,0,63.68,461.7Z"/><path class="cls-1" d="M83.81,475.83a7,7,0,0,1-5.94-3.3v7.77H75.56V460h2.31v3.12a7,7,0,0,1,5.94-3.45c3.72,0,7.41,2.94,7.41,8.07S87.56,475.83,83.81,475.83Zm-.42-14.1a6,6,0,0,0,0,12c3,0,5.46-2.22,5.46-6S86.33,461.73,83.39,461.73Z"/><path class="cls-1" d="M102.14,475.86a8,8,0,0,1-8-8.07,8.09,8.09,0,1,1,8,8.07Zm0-14.16a5.7,5.7,0,0,0-5.67,6,5.83,5.83,0,0,0,5.73,6.06,5.71,5.71,0,0,0,5.7-6A5.86,5.86,0,0,0,102.14,461.7Z"/><path class="cls-1" d="M119.15,475.8a10.67,10.67,0,0,1-6.42-2.28l1.17-1.65a9.07,9.07,0,0,0,5.37,2c1.86,0,3.21-1,3.21-2.46v-.06c0-1.56-1.83-2.16-3.87-2.73-2.43-.69-5.13-1.53-5.13-4.38v-.06c0-2.67,2.22-4.44,5.28-4.44a10.6,10.6,0,0,1,5.58,1.71l-1,1.74a8.77,8.77,0,0,0-4.59-1.5c-1.83,0-3,1-3,2.25V464c0,1.47,1.92,2,4,2.67,2.4.72,5,1.65,5,4.44v.06C124.67,474.09,122.24,475.8,119.15,475.8Z"/><path class="cls-1" d="M128.6,456.6v-2.55h2.64v2.55Zm.15,18.9V460h2.31V475.5Z"/><path class="cls-1" d="M139.13,471.09a2.29,2.29,0,0,0,2.61,2.58,4.86,4.86,0,0,0,2.25-.54v2a5.81,5.81,0,0,1-2.79.66c-2.49,0-4.38-1.23-4.38-4.38V462h-2.16v-2h2.16v-4.68h2.31V460h4.92v2h-4.92Z"/><path class="cls-1" d="M147.77,456.6v-2.55h2.64v2.55Zm.15,18.9V460h2.31V475.5Z"/><path class="cls-1" d="M162.26,475.86a8,8,0,0,1-8-8.07,8.09,8.09,0,1,1,8,8.07Zm0-14.16a5.7,5.7,0,0,0-5.67,6,5.83,5.83,0,0,0,5.73,6.06,5.71,5.71,0,0,0,5.7-6A5.86,5.86,0,0,0,162.26,461.7Z"/><path class="cls-1" d="M176.45,475.5h-2.31V460h2.31v2.7a5.87,5.87,0,0,1,5.31-3c3.75,0,5.94,2.52,5.94,6.21v9.63h-2.31v-9.06c0-2.88-1.56-4.68-4.29-4.68a4.56,4.56,0,0,0-4.65,4.86Z"/><path class="cls-1" d="M197.33,475.8a10.67,10.67,0,0,1-6.42-2.28l1.17-1.65a9.07,9.07,0,0,0,5.37,2c1.86,0,3.21-1,3.21-2.46v-.06c0-1.56-1.83-2.16-3.87-2.73-2.43-.69-5.13-1.53-5.13-4.38v-.06c0-2.67,2.22-4.44,5.28-4.44a10.6,10.6,0,0,1,5.58,1.71l-1.05,1.74a8.77,8.77,0,0,0-4.59-1.5c-1.83,0-3,1-3,2.25V464c0,1.47,1.92,2,4,2.67,2.4.72,5,1.65,5,4.44v.06C202.85,474.09,200.42,475.8,197.33,475.8Z"/><path class="cls-1" d="M206.45,475.5v-3.15h2.76v3.15Z"/></g></g></svg>