<svg xmlns="http://www.w3.org/2000/svg" viewBox="0 0 386.56 383.94"><defs><style>.cls-1{opacity:0.2;}.cls-2{fill:#26a7a1;}.cls-3{fill:#fff;}</style></defs><g id="Layer_2" data-name="Layer 2"><g id="Calque_1" data-name="Calque 1"><g class="cls-1"><path class="cls-2" d="M382.8,189.52h-18a3.76,3.76,0,0,0,0,7.51h18a3.76,3.76,0,1,0,0-7.51Z"/><path class="cls-2" d="M21.74,189.52h-18a3.76,3.76,0,0,0,0,7.51h18a3.76,3.76,0,0,0,0-7.51Z"/><path class="cls-2" d="M193.28,0a3.75,3.75,0,0,0-3.75,3.75v18a3.75,3.75,0,1,0,7.5,0v-18A3.75,3.75,0,0,0,193.28,0Z"/><path class="cls-2" d="M324.64,330a3.75,3.75,0,0,0,5.31,0,3.77,3.77,0,0,0,0-5.31l-12.72-12.72a3.75,3.75,0,0,0-5.31,5.31Z"/><path class="cls-2" d="M56.61,61.92,69.33,74.63a3.74,3.74,0,0,0,5.3,0,3.75,3.75,0,0,0,0-5.31L61.92,56.61a3.75,3.75,0,0,0-5.31,0A3.77,3.77,0,0,0,56.61,61.92Z"/><path class="cls-2" d="M311.92,69.32a3.77,3.77,0,0,0,0,5.31,3.75,3.75,0,0,0,5.31,0L330,61.92a3.76,3.76,0,0,0-2.66-6.41,3.72,3.72,0,0,0-2.65,1.1Z"/><path class="cls-2" d="M56.61,324.64a3.77,3.77,0,0,0,0,5.31,3.75,3.75,0,0,0,5.31,0l12.71-12.72a3.75,3.75,0,1,0-5.3-5.31Z"/><path class="cls-2" d="M370.29,268.16a3.74,3.74,0,0,0-2-2.07l-16.46-7.24a3.78,3.78,0,0,0-4.94,1.91v0a3.76,3.76,0,0,0-.06,2.87,3.7,3.7,0,0,0,2,2.08L365.28,273a3.75,3.75,0,0,0,4.94-1.91h0A3.78,3.78,0,0,0,370.29,268.16Z"/><path class="cls-2" d="M16.27,118.39a3.73,3.73,0,0,0,2,2.08l16.46,7.23a3.75,3.75,0,1,0,3-6.87l-16.46-7.24a3.75,3.75,0,0,0-4.94,1.91v0A3.76,3.76,0,0,0,16.27,118.39Z"/><path class="cls-2" d="M265.73,37.74,273,21.28a3.76,3.76,0,0,0-1.92-5h0a3.74,3.74,0,0,0-4.92,1.94l-7.23,16.46a3.76,3.76,0,0,0,1.9,4.94h0a3.78,3.78,0,0,0,5-1.93Z"/><path class="cls-2" d="M121.07,15.16A3.67,3.67,0,0,0,121,18l6.52,16.76a3.74,3.74,0,0,0,3.5,2.39,3.57,3.57,0,0,0,1.36-.26,3.76,3.76,0,0,0,2.14-4.85L128,15.31a3.75,3.75,0,0,0-6.93-.15Z"/><path class="cls-2" d="M354.49,134.53,371.25,128a3.76,3.76,0,0,0-2.73-7l-16.75,6.53a3.75,3.75,0,0,0,2.72,7Z"/><path class="cls-2" d="M36.92,254.17a3.72,3.72,0,0,0-3.5-2.4,3.77,3.77,0,0,0-1.36.26l-16.75,6.53a3.75,3.75,0,1,0,2.72,7L34.79,259A3.75,3.75,0,0,0,36.92,254.17Z"/></g><path class="cls-3" d="M68.72,120.16h5.82L86.83,149h-6.6l-2.62-6.43H65.49L62.86,149H56.43ZM75.36,137l-3.81-9.3L67.74,137Z"/><path class="cls-3" d="M90,127.08h6.23v3.12c1.44-1.84,3.28-3.52,6.43-3.52,4.72,0,7.46,3.11,7.46,8.15V149h-6.23V136.79c0-2.95-1.39-4.46-3.77-4.46s-3.89,1.51-3.89,4.46V149H90Z"/><path class="cls-3" d="M115,127.08h6.23v3.12c1.43-1.84,3.28-3.52,6.43-3.52,4.71,0,7.46,3.11,7.46,8.15V149h-6.23V136.79c0-2.95-1.39-4.46-3.77-4.46s-3.89,1.51-3.89,4.46V149H115Z"/><path class="cls-3" d="M138.85,138.19v-.08c0-6.31,5.08-11.43,11.93-11.43s11.84,5,11.84,11.34v.09c0,6.3-5.08,11.43-11.93,11.43S138.85,144.5,138.85,138.19Zm17.62,0v-.08a5.84,5.84,0,0,0-5.78-6.07c-3.56,0-5.69,2.75-5.69,6v.09a5.84,5.84,0,0,0,5.78,6.06C154.34,144.17,156.47,141.42,156.47,138.19Z"/><path class="cls-3" d="M166.55,127.08h6.23v3.12c1.43-1.84,3.27-3.52,6.43-3.52,4.71,0,7.45,3.11,7.45,8.15V149h-6.22V136.79c0-2.95-1.4-4.46-3.77-4.46s-3.89,1.51-3.89,4.46V149h-6.23Z"/><path class="cls-3" d="M190.43,138.19v-.08a11.27,11.27,0,0,1,11.51-11.43,10.81,10.81,0,0,1,8.77,3.68l-3.81,4.1a6.4,6.4,0,0,0-5-2.42c-3.11,0-5.32,2.75-5.32,6v.09c0,3.36,2.17,6.06,5.57,6.06a7,7,0,0,0,5-2.34l3.64,3.69a11,11,0,0,1-9,4A11.21,11.21,0,0,1,190.43,138.19Z"/><path class="cls-3" d="M213.25,138.19v-.08c0-6.27,4.46-11.43,10.86-11.43,7.33,0,10.69,5.69,10.69,11.92,0,.49,0,1.06-.08,1.64H219.44a5.09,5.09,0,0,0,5.36,4.3,7.2,7.2,0,0,0,5.33-2.26l3.56,3.16a11,11,0,0,1-9,4.1C218.12,149.54,213.25,144.91,213.25,138.19Zm15.49-1.85c-.37-2.78-2-4.67-4.63-4.67s-4.27,1.85-4.76,4.67Z"/><path class="cls-3" d="M249.59,138.11V138c0-7.33,4.79-11.34,10-11.34a8.42,8.42,0,0,1,6.84,3.27V119.14h6.23V149h-6.23v-3.15a8,8,0,0,1-6.84,3.56C254.46,149.45,249.59,145.44,249.59,138.11Zm16.92,0V138c0-3.64-2.42-6.06-5.33-6.06s-5.37,2.38-5.37,6.06v.09c0,3.64,2.46,6.06,5.37,6.06S266.51,141.75,266.51,138.11Z"/><path class="cls-3" d="M276.58,138.19v-.08c0-6.27,4.47-11.43,10.86-11.43,7.33,0,10.69,5.69,10.69,11.92,0,.49,0,1.06-.08,1.64H282.77a5.09,5.09,0,0,0,5.37,4.3,7.2,7.2,0,0,0,5.32-2.26l3.57,3.16a11,11,0,0,1-9,4.1C281.46,149.54,276.58,144.91,276.58,138.19Zm15.49-1.85c-.37-2.78-2-4.67-4.63-4.67s-4.26,1.85-4.75,4.67Z"/><path class="cls-3" d="M300.46,146.14l2.67-4.1a12.39,12.39,0,0,0,6.92,2.62c1.8,0,2.62-.65,2.62-1.64v-.08c0-1.35-2.13-1.8-4.54-2.54-3.08-.9-6.56-2.34-6.56-6.6v-.08c0-4.46,3.61-7,8-7a15.2,15.2,0,0,1,8.2,2.54l-2.38,4.3a13,13,0,0,0-5.94-2c-1.52,0-2.3.66-2.3,1.52v.08c0,1.23,2.09,1.8,4.47,2.62,3.07,1,6.64,2.5,6.64,6.51v.09c0,4.87-3.65,7.08-8.4,7.08A15.43,15.43,0,0,1,300.46,146.14Z"/><path class="cls-3" d="M42.07,206.55l2.13-4.67a14.36,14.36,0,0,0,7.42,2c4.26,0,6.27-2,6.27-6v-1.06a8.6,8.6,0,0,1-7.17,3.56c-5.12,0-9.75-3.73-9.75-10.24v-.08c0-6.56,4.71-10.24,9.75-10.24a8.9,8.9,0,0,1,7.09,3.27v-2.87H64v17c0,3.93-.94,6.8-2.78,8.64-2,2.05-5.21,3-9.47,3A20.92,20.92,0,0,1,42.07,206.55Zm15.82-16.39v-.08A5.08,5.08,0,0,0,52.52,185a5,5,0,0,0-5.33,5.08v.08a5,5,0,0,0,5.33,5.08A5.08,5.08,0,0,0,57.89,190.16Z"/><path class="cls-3" d="M67.72,195.9v-.09c0-4.79,3.64-7,8.85-7a15.61,15.61,0,0,1,5.36.9v-.37c0-2.58-1.59-4-4.71-4a16.32,16.32,0,0,0-6.06,1.19l-1.56-4.75A19.48,19.48,0,0,1,78.12,180c3.4,0,5.86.9,7.42,2.46s2.38,4,2.38,7V202.2h-6v-2.37a8.42,8.42,0,0,1-6.63,2.78C71.12,202.61,67.72,200.24,67.72,195.9ZM82,194.46v-1.1a9.55,9.55,0,0,0-4-.82c-2.66,0-4.3,1.06-4.3,3v.08c0,1.68,1.39,2.66,3.4,2.66C80.05,198.31,82,196.71,82,194.46Z"/><path class="cls-3" d="M92.83,206.55,95,201.88a14.33,14.33,0,0,0,7.42,2c4.26,0,6.26-2,6.26-6v-1.06a8.58,8.58,0,0,1-7.16,3.56c-5.13,0-9.76-3.73-9.76-10.24v-.08c0-6.56,4.72-10.24,9.76-10.24a8.88,8.88,0,0,1,7.08,3.27v-2.87h6.23v17c0,3.93-.94,6.8-2.79,8.64-2,2.05-5.2,3-9.46,3A20.92,20.92,0,0,1,92.83,206.55Zm15.81-16.39v-.08a5.35,5.35,0,0,0-10.69,0v.08a5.35,5.35,0,0,0,10.69,0Z"/><path class="cls-3" d="M119.79,180.24H126v3.12c1.44-1.84,3.28-3.52,6.44-3.52,4.71,0,7.45,3.11,7.45,8.15V202.2h-6.23V190c0-2.95-1.39-4.46-3.77-4.46S126,187,126,190V202.2h-6.22Z"/><path class="cls-3" d="M143.42,195.9v-.09c0-4.79,3.65-7,8.85-7a15.71,15.71,0,0,1,5.37.9v-.37c0-2.58-1.6-4-4.71-4a16.33,16.33,0,0,0-6.07,1.19l-1.55-4.75a19.41,19.41,0,0,1,8.52-1.76c3.4,0,5.86.9,7.41,2.46s2.38,4,2.38,7V202.2h-6v-2.37a8.45,8.45,0,0,1-6.64,2.78C146.82,202.61,143.42,200.24,143.42,195.9Zm14.3-1.44v-1.1a9.51,9.51,0,0,0-4-.82c-2.67,0-4.3,1.06-4.3,3v.08c0,1.68,1.39,2.66,3.4,2.66C155.75,198.31,157.72,196.71,157.72,194.46Z"/><path class="cls-3" d="M168.41,180.24h6.23v3.12c1.43-1.84,3.28-3.52,6.43-3.52,4.71,0,7.46,3.11,7.46,8.15V202.2H182.3V190c0-2.95-1.39-4.46-3.77-4.46s-3.89,1.51-3.89,4.46V202.2h-6.23Z"/><path class="cls-3" d="M194.38,196V185.57h-2.62v-5.33h2.62v-5.61h6.23v5.61h5.16v5.33h-5.16V195c0,1.44.62,2.13,2,2.13a6.32,6.32,0,0,0,3.07-.77v5a9.14,9.14,0,0,1-4.91,1.27C197,202.57,194.38,201.06,194.38,196Z"/><path class="cls-3" d="M208.07,199.3l2.66-4.1a12.44,12.44,0,0,0,6.92,2.62c1.81,0,2.63-.65,2.63-1.64v-.08c0-1.35-2.13-1.8-4.55-2.54-3.07-.9-6.56-2.33-6.56-6.6v-.08c0-4.46,3.61-7,8-7a15.2,15.2,0,0,1,8.2,2.54l-2.38,4.3a13,13,0,0,0-5.94-2c-1.52,0-2.29.66-2.29,1.52v.08c0,1.23,2.09,1.8,4.46,2.62,3.07,1,6.64,2.5,6.64,6.51v.09c0,4.87-3.65,7.08-8.4,7.08A15.4,15.4,0,0,1,208.07,199.3Z"/><path class="cls-3" d="M239.77,199.3l2.67-4.1a12.39,12.39,0,0,0,6.92,2.62c1.8,0,2.62-.65,2.62-1.64v-.08c0-1.35-2.13-1.8-4.54-2.54-3.08-.9-6.56-2.33-6.56-6.6v-.08c0-4.46,3.61-7,8-7a15.14,15.14,0,0,1,8.19,2.54l-2.37,4.3a13,13,0,0,0-5.94-2c-1.52,0-2.3.66-2.3,1.52v.08c0,1.23,2.09,1.8,4.47,2.62,3.07,1,6.64,2.5,6.64,6.51v.09c0,4.87-3.65,7.08-8.4,7.08A15.4,15.4,0,0,1,239.77,199.3Z"/><path class="cls-3" d="M261.32,194.46V180.24h6.23v12.25c0,2.95,1.39,4.47,3.77,4.47s3.89-1.52,3.89-4.47V180.24h6.23v22h-6.23v-3.11c-1.43,1.84-3.28,3.52-6.43,3.52C264.07,202.61,261.32,199.5,261.32,194.46Z"/><path class="cls-3" d="M286.43,180.24h6.23v4.43c1.27-3,3.32-5,7-4.83v6.51h-.33c-4.14,0-6.68,2.5-6.68,7.74v8.11h-6.23Z"/><path class="cls-3" d="M315,172.3h6.22v29.9H315Z"/><path class="cls-3" d="M325.19,195.9v-.09c0-4.79,3.64-7,8.85-7a15.61,15.61,0,0,1,5.36.9v-.37c0-2.58-1.59-4-4.71-4a16.32,16.32,0,0,0-6.06,1.19l-1.56-4.75a19.48,19.48,0,0,1,8.52-1.76c3.4,0,5.86.9,7.42,2.46s2.38,4,2.38,7V202.2h-6v-2.37a8.42,8.42,0,0,1-6.63,2.78C328.59,202.61,325.19,200.24,325.19,195.9Zm14.3-1.44v-1.1a9.55,9.55,0,0,0-4-.82c-2.66,0-4.3,1.06-4.3,3v.08c0,1.68,1.39,2.66,3.4,2.66C337.52,198.31,339.49,196.71,339.49,194.46Z"/><path class="cls-3" d="M83.74,233.4H90v3.16A8.08,8.08,0,0,1,96.8,233c5.13,0,10,4,10,11.35v.09c0,7.33-4.79,11.34-10,11.34A8.45,8.45,0,0,1,90,252.5v9.42H83.74Zm16.83,11v-.09c0-3.64-2.45-6.06-5.36-6.06s-5.33,2.42-5.33,6.06v.09c0,3.64,2.42,6.06,5.33,6.06S100.57,248.11,100.57,244.43Z"/><path class="cls-3" d="M111.1,225.46h6.23v29.9H111.1Z"/><path class="cls-3" d="M121.3,249.05V249c0-4.79,3.65-7,8.85-7a15.71,15.71,0,0,1,5.37.9v-.37c0-2.58-1.6-4-4.71-4a16.33,16.33,0,0,0-6.07,1.19l-1.56-4.75a19.49,19.49,0,0,1,8.53-1.76c3.4,0,5.86.9,7.41,2.46s2.38,4,2.38,7v12.74h-6V253a8.45,8.45,0,0,1-6.64,2.78C124.7,255.77,121.3,253.4,121.3,249.05Zm14.3-1.43v-1.11a9.71,9.71,0,0,0-4-.82c-2.66,0-4.3,1.07-4.3,3v.08c0,1.68,1.4,2.66,3.4,2.66C133.63,251.47,135.6,249.87,135.6,247.62Z"/><path class="cls-3" d="M147.31,249.14V238.73h-2.62V233.4h2.62v-5.61h6.23v5.61h5.16v5.33h-5.16v9.38c0,1.44.62,2.13,2,2.13a6.22,6.22,0,0,0,3.07-.78v5a9.14,9.14,0,0,1-4.91,1.27C149.9,255.73,147.31,254.22,147.31,249.14Z"/><path class="cls-3" d="M161.65,244.51v-.08c0-6.27,4.47-11.44,10.86-11.44,7.33,0,10.69,5.7,10.69,11.93,0,.49,0,1.06-.08,1.64H167.84a5.09,5.09,0,0,0,5.37,4.3,7.18,7.18,0,0,0,5.32-2.26l3.57,3.16a11,11,0,0,1-9,4.1C166.53,255.86,161.65,251.23,161.65,244.51Zm15.49-1.85c-.37-2.78-2-4.67-4.63-4.67s-4.26,1.85-4.75,4.67Z"/><path class="cls-3" d="M188.32,238.73h-2.58v-5.12h2.58v-1.39a7.29,7.29,0,0,1,1.76-5.33,6.83,6.83,0,0,1,5-1.72,13.8,13.8,0,0,1,4.43.61V231a7.83,7.83,0,0,0-2.83-.54c-1.43,0-2.25.74-2.25,2.38v.86h5v5.08h-5v16.63h-6.23Z"/><path class="cls-3" d="M201.27,244.51v-.08c0-6.31,5.08-11.44,11.92-11.44S225,238,225,244.34v.09c0,6.3-5.08,11.43-11.92,11.43S201.27,250.82,201.27,244.51Zm17.61,0v-.08a5.83,5.83,0,0,0-5.77-6.07c-3.57,0-5.7,2.75-5.7,6v.09a5.84,5.84,0,0,0,5.78,6.06C216.75,250.49,218.88,247.74,218.88,244.51Z"/><path class="cls-3" d="M229,233.4h6.23v4.43c1.27-3,3.31-5,7-4.84v6.52h-.33c-4.13,0-6.67,2.5-6.67,7.74v8.11H229Z"/><path class="cls-3" d="M245.51,233.4h6.23v3.12a7.82,7.82,0,0,1,6.47-3.53,6.57,6.57,0,0,1,6.19,3.49,9,9,0,0,1,7.21-3.49c4.63,0,7.41,2.79,7.41,8.07v14.3h-6.23V243.11c0-3-1.31-4.46-3.64-4.46s-3.77,1.51-3.77,4.46v12.25h-6.23V243.11c0-3-1.31-4.46-3.64-4.46s-3.77,1.51-3.77,4.46v12.25h-6.23Z"/><path class="cls-3" d="M282.79,244.51v-.08c0-6.27,4.46-11.44,10.86-11.44,7.33,0,10.69,5.7,10.69,11.93,0,.49,0,1.06-.08,1.64H289a5.11,5.11,0,0,0,5.37,4.3,7.2,7.2,0,0,0,5.33-2.26l3.56,3.16a11,11,0,0,1-9,4.1C287.66,255.86,282.79,251.23,282.79,244.51Zm15.49-1.85c-.37-2.78-2-4.67-4.63-4.67s-4.27,1.85-4.76,4.67Z"/><path class="cls-3" d="M65.17,383.51v-26h2.75v26Z"/><path class="cls-3" d="M81.91,381.56a7.66,7.66,0,0,0,5.81-2.6l1.71,1.53a9.54,9.54,0,0,1-7.59,3.45c-5.06,0-9.19-3.88-9.19-9.61,0-5.35,3.74-9.62,8.83-9.62,5.45,0,8.59,4.35,8.59,9.76a6.56,6.56,0,0,1,0,.85H75.43C75.82,379.31,78.67,381.56,81.91,381.56Zm5.38-8.27C87,369.94,85.08,367,81.41,367c-3.2,0-5.62,2.68-6,6.27Z"/><path class="cls-3" d="M105.73,365l-2.06-1.5c2.24-3.34,4.59-5.3,9-5.3,4.53,0,7.73,3,7.73,7.08,0,3.67-1.92,5.92-6.3,9.73L107.41,381h13.21v2.56H103.2v-2.17l9-8c3.81-3.42,5.2-5.34,5.2-7.83a4.76,4.76,0,0,0-5-4.77C109.58,360.76,107.73,362.25,105.73,365Z"/><path class="cls-3" d="M135,383.94c-6.45,0-10.51-5.84-10.51-12.86s4.14-12.92,10.58-12.92S145.58,364,145.58,371,141.45,383.94,135,383.94Zm0-23.22c-4.66,0-7.58,4.77-7.58,10.29s3,10.37,7.65,10.37,7.55-4.81,7.55-10.3S139.71,360.72,135,360.72Z"/><path class="cls-3" d="M183.15,376.68H183l-9.09-13.32v20.15h-2.74V358.58H174l9.08,13.61,9.08-13.61H195v24.93h-2.81V363.32Z"/><path class="cls-3" d="M202.2,368.63l-.82-2.25a15.27,15.27,0,0,1,6.69-1.53c5,0,7.84,2.57,7.84,7.41v11.25h-2.64v-2.77a8.06,8.06,0,0,1-6.66,3.17c-3.41,0-6.87-1.93-6.87-5.77s3.21-6,7.87-6a19.24,19.24,0,0,1,5.66.79v-.64c0-3.32-2-5-5.48-5A12.74,12.74,0,0,0,202.2,368.63Zm.32,9.4c0,2.35,2.14,3.7,4.63,3.7,3.38,0,6.16-2.06,6.16-5V375a18.86,18.86,0,0,0-5.41-.79C204.44,374.18,202.52,375.68,202.52,378Z"/><path class="cls-3" d="M221.32,361.08v-3h3.13v3Zm.18,22.43V365.1h2.74v18.41Z"/><path class="cls-3" d="M241.47,365l-2.06-1.5c2.24-3.34,4.59-5.3,9-5.3,4.53,0,7.73,3,7.73,7.08,0,3.67-1.92,5.92-6.3,9.73L243.15,381h13.21v2.56H239v-2.17l9-8c3.81-3.42,5.2-5.34,5.2-7.83a4.76,4.76,0,0,0-5-4.77C245.32,360.76,243.47,362.25,241.47,365Z"/><path class="cls-3" d="M270.78,383.94c-6.44,0-10.5-5.84-10.5-12.86s4.13-12.92,10.57-12.92S281.32,364,281.32,371,277.19,383.94,270.78,383.94Zm0-23.22c-4.66,0-7.58,4.77-7.58,10.29s3,10.37,7.65,10.37,7.55-4.81,7.55-10.3S275.45,360.72,270.78,360.72Z"/><path class="cls-3" d="M287.27,365l-2.07-1.5c2.25-3.34,4.6-5.3,9-5.3s7.73,3,7.73,7.08c0,3.67-1.93,5.92-6.31,9.73L288.94,381h13.21v2.56H284.74v-2.17l9.05-8c3.81-3.42,5.19-5.34,5.19-7.83a4.76,4.76,0,0,0-5-4.77C291.11,360.76,289.26,362.25,287.27,365Z"/><path class="cls-3" d="M308.1,365l-2.07-1.5c2.25-3.34,4.6-5.3,9-5.3s7.73,3,7.73,7.08c0,3.67-1.93,5.92-6.31,9.73L309.77,381H323v2.56H305.57v-2.17l9.05-8c3.81-3.42,5.2-5.34,5.2-7.83a4.77,4.77,0,0,0-5-4.77C312,360.76,310.09,362.25,308.1,365Z"/></g></g></svg>