<svg xmlns="http://www.w3.org/2000/svg" viewBox="0 0 454.79 443.34"><defs><style>.cls-1{fill:#fff;}.cls-2{fill:#ff6d00;}.cls-3{fill:none;stroke:#fff;stroke-miterlimit:10;stroke-width:0.5px;}.cls-4{fill:#26a7a1;}</style></defs><g id="Layer_2" data-name="Layer 2"><g id="Calque_1" data-name="Calque 1"><path class="cls-1" d="M12.79,171.61a125.11,125.11,0,0,0,9.36,13.75H218.5a124.94,124.94,0,0,0,9.34-13.75Z"/><path class="cls-1" d="M7.57,161.53H233.12a123.54,123.54,0,0,0,5.27-13.18H2.26A123.78,123.78,0,0,0,7.57,161.53Z"/><path class="cls-2" d="M12.51,84.52H28.86q8,0,12.2,4.49t4.23,12.48v2.31q0,8.25-4.16,12.68t-12.27,4.43H22.05v11.24H12.51Zm9.54,27.67h5.11q4.5,0,6.54-2.12c1.37-1.4,2-3.52,2-6.33v-2.25q0-4.15-2-6.21t-6.54-2H22.05Z"/><path class="cls-2" d="M52.1,80.16h9.14V98q3.46-4.5,10.22-4.5,7.64,0,10.83,3.82t3.21,11.24v23.58H76.36v-23q0-4.23-1.77-6.1t-5.93-1.87a7,7,0,0,0-5.55,2.21c-1.3,1.48-1.94,3.62-1.94,6.44v22.35H52.1Z"/><path class="cls-2" d="M102.94,105.92H93.81q0-12.4,15.61-12.41,14.85,0,14.85,12.82v25.82h-7.15l-1.64-4.77q-3.81,5.38-11,5.39-5.86,0-8.65-2.9a10.36,10.36,0,0,1-2.8-7.53q0-5,3-7.67a22.94,22.94,0,0,1,8.25-4.26l10.9-3.47v-1.77a3.87,3.87,0,0,0-1.33-3.24c-.88-.7-2.42-1.06-4.6-1.06Q102.94,100.87,102.94,105.92Zm12.41,7.83-8.39,2.8q-4.77,1.56-4.77,5c0,2.86,1.52,4.3,4.57,4.3a8.88,8.88,0,0,0,5.89-2.29,7.07,7.07,0,0,0,2.7-5.62Z"/><path class="cls-2" d="M149.56,106.12v-1a4.36,4.36,0,0,0-1.06-3.27,4.78,4.78,0,0,0-3.44-1c-2.77,0-4.16,1.12-4.16,3.34a2.7,2.7,0,0,0,.85,2.08,10.79,10.79,0,0,0,3,1.67l5.93,2.45a16.43,16.43,0,0,1,6.2,4.26,10,10,0,0,1,2.18,6.72,10.23,10.23,0,0,1-3.71,8.35q-3.72,3-10.19,3-7.23,0-10.33-2.93c-2.06-2-3.1-4.91-3.1-8.86v-1.91h8.45V121q0,4.42,5,4.43a5.29,5.29,0,0,0,3.47-1.06,3.58,3.58,0,0,0,1.3-3,3.65,3.65,0,0,0-.89-2.59,8.67,8.67,0,0,0-3-1.84l-6.81-2.8q-7.37-3.14-7.36-10c0-3.5,1.13-6.15,3.41-8s5.54-2.73,9.81-2.73q6.88,0,9.95,3c2,2,3.07,4.89,3.07,8.66v1Z"/><path class="cls-2" d="M197.13,115.73H174.71v1.91c0,3,.4,5,1.22,6.1s2.57,1.67,5.25,1.67c2.36,0,3.94-.37,4.74-1.09a6.69,6.69,0,0,0,1.6-4h9.13q-.14,6.67-3.75,9.57t-11.72,2.9q-8.25,0-11.89-3.68t-3.65-11.45v-8.93q0-7.69,3.72-11.45t12-3.75q8.19,0,12,3.62t3.79,10.9Zm-22.42-6.54H188v-1.91c0-2.23-.51-3.85-1.5-4.87s-2.71-1.54-5.12-1.54-4.18.51-5.17,1.54-1.5,2.64-1.5,4.87Z"/><path class="cls-2" d="M214.64,84.24h8a6,6,0,0,1,4.23,1.44A5.53,5.53,0,0,1,228.48,90v42.18h-9.14v-39h-4.7Z"/><rect class="cls-1" x="114.37" width="11.91" height="27.26" rx="5.96"/><rect class="cls-1" x="215.64" y="52.8" width="27.26" height="11.91" rx="5.96" transform="translate(25.59 179.3) rotate(-44.99)"/><rect class="cls-1" x="168.68" y="20.69" width="27.26" height="11.91" rx="5.96" transform="translate(84.57 182.83) rotate(-66.28)"/><rect class="cls-1" x="5.43" y="45.13" width="11.91" height="27.26" rx="5.96" transform="translate(-38.22 25.26) rotate(-45.01)"/><rect class="cls-1" x="52.38" y="13.02" width="11.91" height="27.26" rx="5.96" transform="translate(-5.79 25.72) rotate(-23.72)"/><path class="cls-1" d="M26.85,229.49v-.06c0-5.37,3.51-8.31,7.32-8.31a6.18,6.18,0,0,1,5,2.4V215.6h4.56v21.9H39.18v-2.31a5.91,5.91,0,0,1-5,2.61C30.42,237.8,26.85,234.86,26.85,229.49Zm12.39,0v-.06c0-2.67-1.77-4.44-3.9-4.44s-3.93,1.74-3.93,4.44v.06c0,2.67,1.8,4.44,3.93,4.44S39.24,232.16,39.24,229.49Z"/><path class="cls-1" d="M47.28,231.83V221.42h4.56v9c0,2.16,1,3.27,2.76,3.27s2.85-1.11,2.85-3.27v-9H62V237.5H57.45v-2.28a5.69,5.69,0,0,1-4.71,2.58C49.29,237.8,47.28,235.52,47.28,231.83Z"/><path class="cls-1" d="M73.83,227.06V227c0-6.09,3.78-10.86,9.36-10.86s9.3,4.71,9.3,10.8V227c0,6.09-3.75,10.86-9.36,10.86S73.83,233.15,73.83,227.06Zm13.92,0V227c0-3.81-1.86-6.69-4.62-6.69s-4.56,2.79-4.56,6.63V227c0,3.84,1.83,6.69,4.62,6.69S87.75,230.87,87.75,227.06Z"/><path class="cls-1" d="M95,231.74v-.06a5.1,5.1,0,0,1,3.39-5.07A5,5,0,0,1,95.76,222V222c0-3.21,2.94-5.76,7.38-5.76s7.38,2.52,7.38,5.76V222a5,5,0,0,1-2.67,4.59c2.13,1.11,3.39,2.46,3.39,4.95v.06c0,3.9-3.45,6.18-8.1,6.18S95,235.4,95,231.74Zm11.73-.36v-.06c0-1.62-1.53-2.58-3.63-2.58s-3.63,1-3.63,2.58v.06c0,1.44,1.35,2.61,3.63,2.61S106.77,232.85,106.77,231.38Zm-.63-8.85v-.06c0-1.29-1.11-2.46-3-2.46s-3,1.14-3,2.43v.06c0,1.47,1.17,2.58,3,2.58S106.14,224,106.14,222.53Z"/><path class="cls-1" d="M122.79,221.42h4.55v2.28a5.74,5.74,0,0,1,4.74-2.58,4.81,4.81,0,0,1,4.53,2.55,6.62,6.62,0,0,1,5.28-2.55c3.39,0,5.43,2,5.43,5.91V237.5h-4.56v-9c0-2.16-1-3.27-2.67-3.27s-2.76,1.11-2.76,3.27v9h-4.56v-9c0-2.16-1-3.27-2.67-3.27s-2.76,1.11-2.76,3.27v9h-4.55Z"/><path class="cls-1" d="M149.91,232.88v-.06c0-3.51,2.67-5.13,6.47-5.13a11.43,11.43,0,0,1,3.93.66v-.27c0-1.89-1.17-2.94-3.44-2.94a11.84,11.84,0,0,0-4.45.87l-1.13-3.48a14.11,14.11,0,0,1,6.23-1.29A7.47,7.47,0,0,1,163,223a7,7,0,0,1,1.73,5.13v9.33h-4.4v-1.74a6.22,6.22,0,0,1-4.87,2C152.4,237.8,149.91,236.06,149.91,232.88Zm10.46-1V231a7,7,0,0,0-2.91-.6c-2,0-3.14.78-3.14,2.22v.06c0,1.23,1,2,2.48,2C158.93,234.65,160.37,233.48,160.37,231.83Z"/><path class="cls-1" d="M168.21,221.42h4.55v3.24c.93-2.22,2.43-3.66,5.13-3.54v4.77h-.24c-3,0-4.89,1.83-4.89,5.67v5.94h-4.55Z"/><path class="cls-1" d="M179.07,235.37l1.94-3a9.09,9.09,0,0,0,5.07,1.92c1.33,0,1.92-.48,1.92-1.2V233c0-1-1.56-1.32-3.33-1.86-2.25-.66-4.8-1.71-4.8-4.83v-.06c0-3.27,2.64-5.1,5.88-5.1a11.13,11.13,0,0,1,6,1.86L190,226.19a9.53,9.53,0,0,0-4.34-1.5c-1.12,0-1.68.48-1.68,1.11v.06c0,.9,1.52,1.32,3.26,1.92,2.25.75,4.86,1.83,4.86,4.77v.06c0,3.57-2.67,5.19-6.15,5.19A11.24,11.24,0,0,1,179.07,235.37Z"/><path class="cls-1" d="M203,226h9.24v4.38H203Z"/><path class="cls-1" d="M218.66,221l-3.66.9-1-3.78,6-1.8h3.15V237.5h-4.56Z"/><path class="cls-1" d="M226.85,234.71l2.79-3.33a7.35,7.35,0,0,0,5,2.28c2.16,0,3.51-1,3.51-2.91v-.06c0-1.8-1.53-2.85-3.72-2.85a9,9,0,0,0-3.51.78l-2.67-1.77.6-10.35h12.9v4.05h-8.94l-.24,3.63a10.27,10.27,0,0,1,2.76-.36c4.08,0,7.35,2,7.35,6.72v.06c0,4.44-3.15,7.26-8,7.26A10.8,10.8,0,0,1,226.85,234.71Z"/><path class="cls-1" d="M253.7,232.88v-.06c0-3.51,2.67-5.13,6.48-5.13a11.43,11.43,0,0,1,3.93.66v-.27c0-1.89-1.17-2.94-3.45-2.94a11.83,11.83,0,0,0-4.44.87l-1.14-3.48a14.19,14.19,0,0,1,6.24-1.29,7.42,7.42,0,0,1,5.43,1.8,7,7,0,0,1,1.74,5.13v9.33h-4.41v-1.74a6.18,6.18,0,0,1-4.86,2C256.19,237.8,253.7,236.06,253.7,232.88Zm10.47-1V231a7.07,7.07,0,0,0-2.91-.6c-1.95,0-3.15.78-3.15,2.22v.06c0,1.23,1,2,2.49,2C262.73,234.65,264.17,233.48,264.17,231.83Z"/><path class="cls-1" d="M270.56,221.42h4.83l3.6,10.77,3.63-10.77h4.74L281,237.62h-4.14Z"/><path class="cls-1" d="M289.58,221.42h4.56v3.24c.93-2.22,2.43-3.66,5.13-3.54v4.77H299c-3,0-4.89,1.83-4.89,5.67v5.94h-4.56Z"/><path class="cls-1" d="M301.79,215.6h4.8v4.05h-4.8Zm.12,5.82h4.56V237.5h-4.56Z"/><path class="cls-1" d="M310.55,215.6h4.56v21.9h-4.56Z"/><path class="cls-1" d="M327,233.84l7-5.73c2.61-2.16,3.63-3.3,3.63-5a2.58,2.58,0,0,0-2.82-2.73c-1.62,0-2.73.9-4.29,2.82l-3.24-2.61c2.07-2.82,4.08-4.35,7.83-4.35,4.35,0,7.23,2.55,7.23,6.48v.06c0,3.51-1.8,5.25-5.52,8.13l-3.42,2.64h9.15v4H327Z"/><path class="cls-1" d="M345.41,227.06V227c0-6.09,3.78-10.86,9.36-10.86s9.3,4.71,9.3,10.8V227c0,6.09-3.75,10.86-9.36,10.86S345.41,233.15,345.41,227.06Zm13.92,0V227c0-3.81-1.86-6.69-4.62-6.69s-4.56,2.79-4.56,6.63V227c0,3.84,1.83,6.69,4.62,6.69S359.33,230.87,359.33,227.06Z"/><path class="cls-1" d="M366.74,233.84l7-5.73c2.61-2.16,3.63-3.3,3.63-5a2.58,2.58,0,0,0-2.82-2.73c-1.62,0-2.73.9-4.29,2.82L367,220.55c2.07-2.82,4.08-4.35,7.83-4.35,4.35,0,7.23,2.55,7.23,6.48v.06c0,3.51-1.8,5.25-5.52,8.13l-3.42,2.64h9.15v4H366.74Z"/><path class="cls-1" d="M385,233.84l7-5.73c2.61-2.16,3.63-3.3,3.63-5a2.58,2.58,0,0,0-2.82-2.73c-1.62,0-2.73.9-4.29,2.82l-3.24-2.61c2.07-2.82,4.08-4.35,7.83-4.35,4.35,0,7.23,2.55,7.23,6.48v.06c0,3.51-1.8,5.25-5.52,8.13l-3.42,2.64h9.15v4H385Z"/><line class="cls-3" x1="22.79" y1="250.5" x2="454.79" y2="250.5"/><path class="cls-2" d="M45.32,295.5H42.77L40.31,290H28.88l-2.49,5.55H24l9.57-21.15h2.22ZM34.61,277.11l-4.8,10.71h9.57Z"/><path class="cls-2" d="M56.51,288.09h-5.1v7.41H49v-21H56.9c4.74,0,7.86,2.52,7.86,6.69C64.76,285.75,61,288.09,56.51,288.09Zm.21-11.4H51.41v9.24H56.6c3.48,0,5.76-1.86,5.76-4.65C62.36,278.25,60.11,276.69,56.72,276.69Z"/><path class="cls-2" d="M76.13,288.09H71v7.41H68.66v-21h7.86c4.74,0,7.86,2.52,7.86,6.69C84.38,285.75,80.6,288.09,76.13,288.09Zm.21-11.4H71v9.24h5.19c3.48,0,5.76-1.86,5.76-4.65C82,278.25,79.73,276.69,76.34,276.69Z"/><path class="cls-2" d="M103.46,276.66H90.65v7.17h11.46V286H90.65v7.35h13v2.16H88.28v-21h15.18Z"/><path class="cls-2" d="M108,274.5h2.37v18.81h11.82v2.19H108Z"/><path class="cls-2" d="M154.25,295.5H151.7L149.24,290H137.81l-2.49,5.55h-2.43l9.57-21.15h2.22Zm-10.71-18.39-4.8,10.71h9.57Zm-4.32-7.71,2.4-1.11,2.85,4.35h-1.86Z"/><path class="cls-2" d="M176.15,295.86a10.86,10.86,0,0,1,.09-21.72,10.93,10.93,0,0,1,8.19,3.33l-1.62,1.74a9.13,9.13,0,0,0-6.6-2.88c-4.65,0-8.13,3.75-8.13,8.64s3.51,8.7,8.13,8.7c2.88,0,4.77-1.11,6.78-3l1.56,1.53A10.93,10.93,0,0,1,176.15,295.86Z"/><path class="cls-2" d="M207.83,295.5h-2.55L202.82,290H191.39l-2.49,5.55h-2.43L196,274.35h2.22Zm-10.71-18.39-4.8,10.71h9.57Z"/><path class="cls-2" d="M227,274.5h2.31v21h-1.89l-13.56-17.22V295.5h-2.31v-21h2.22L227,291.33Z"/><path class="cls-2" d="M242.12,295.5h-7.29v-21h7.29c6.6,0,11.16,4.53,11.16,10.47S248.72,295.5,242.12,295.5Zm0-18.81H237.2v16.62h4.92c5.31,0,8.7-3.6,8.7-8.28S247.43,276.69,242.12,276.69Z"/><path class="cls-2" d="M260.45,274.5v21h-2.37v-21Z"/><path class="cls-2" d="M273.47,295.5h-7.29v-21h7.29c6.6,0,11.16,4.53,11.16,10.47S280.07,295.5,273.47,295.5Zm0-18.81h-4.92v16.62h4.92c5.31,0,8.7-3.6,8.7-8.28S278.78,276.69,273.47,276.69Z"/><path class="cls-2" d="M308.78,295.5h-2.55L303.77,290H292.34l-2.49,5.55h-2.43L297,274.35h2.22Zm-10.71-18.39-4.8,10.71h9.57Z"/><path class="cls-2" d="M320.45,295.5h-2.4V276.69H311V274.5h16.5v2.19h-7.05Z"/><path class="cls-2" d="M348.68,286.53c0,6.12-3.51,9.3-8.76,9.3s-8.73-3.18-8.73-9.12V274.5h2.37v12.06c0,4.53,2.4,7.08,6.42,7.08,3.87,0,6.33-2.34,6.33-6.93V274.5h2.37Z"/><path class="cls-2" d="M368.33,295.5l-6.09-8.16h-6v8.16h-2.37v-21h9c4.62,0,7.59,2.49,7.59,6.27,0,3.51-2.4,5.55-5.7,6.15l6.45,8.58Zm-5.61-18.81h-6.48v8.52h6.45c3.15,0,5.4-1.62,5.4-4.35S366.11,276.69,362.72,276.69Z"/><path class="cls-2" d="M390.32,276.66H377.51v7.17H389V286H377.51v7.35h13v2.16H375.14v-21h15.18Z"/><path class="cls-1" d="M40.94,312.66H28.13v7.17H39.59V322H28.13v7.35h13v2.16H25.76v-21H40.94Z"/><path class="cls-1" d="M47.36,331.5H45.05V316h2.31v2.7a5.87,5.87,0,0,1,5.31-3c3.75,0,5.94,2.52,5.94,6.21v9.63H56.3v-9.06c0-2.88-1.56-4.68-4.29-4.68a4.56,4.56,0,0,0-4.65,4.86Z"/><path class="cls-1" d="M74.6,316h2.49l-6.75,15.63h-2L61.58,316h2.55l5.22,12.87Z"/><path class="cls-1" d="M87.38,331.86a8,8,0,0,1-8-8.07,8.09,8.09,0,1,1,8,8.07Zm0-14.16a5.7,5.7,0,0,0-5.67,6,5.83,5.83,0,0,0,5.73,6.06,5.71,5.71,0,0,0,5.7-6A5.86,5.86,0,0,0,87.38,317.7Z"/><path class="cls-1" d="M106.82,332c-1.32,3.21-2.82,4.38-5.16,4.38a7,7,0,0,1-3.3-.78l.78-1.83a4.85,4.85,0,0,0,2.43.57c1.38,0,2.25-.72,3.18-2.91L97.7,316h2.55l5.64,12.93,5-12.93h2.46Z"/><path class="cls-1" d="M123.41,329.85a6.42,6.42,0,0,0,4.89-2.19l1.44,1.29a8,8,0,0,1-6.39,2.91,7.72,7.72,0,0,1-7.74-8.1c0-4.5,3.15-8.1,7.44-8.1,4.59,0,7.23,3.66,7.23,8.22a6.28,6.28,0,0,1,0,.72H118A5.44,5.44,0,0,0,123.41,329.85Zm4.53-7c-.24-2.82-1.86-5.28-5-5.28-2.7,0-4.74,2.25-5,5.28Z"/><path class="cls-1" d="M133.37,317.94V316h13.08v1.47l-10.32,12.09h10.32v1.95H133V330l10.29-12.09Z"/><path class="cls-1" d="M170.24,316h2.49L166,331.62h-2L157.22,316h2.55L165,328.86Z"/><path class="cls-1" d="M183,331.86a8,8,0,0,1-8-8.07,8.09,8.09,0,1,1,8,8.07Zm0-14.16a5.7,5.7,0,0,0-5.67,6,5.83,5.83,0,0,0,5.73,6.06,5.71,5.71,0,0,0,5.7-6A5.86,5.86,0,0,0,183,317.7Z"/><path class="cls-1" d="M200,331.8a10.67,10.67,0,0,1-6.42-2.28l1.17-1.65a9.07,9.07,0,0,0,5.37,2c1.86,0,3.21-1,3.21-2.46v-.06c0-1.56-1.83-2.16-3.87-2.73-2.43-.69-5.13-1.53-5.13-4.38v-.06c0-2.67,2.22-4.44,5.28-4.44a10.6,10.6,0,0,1,5.58,1.71l-1.05,1.74a8.77,8.77,0,0,0-4.59-1.5c-1.83,0-3,1-3,2.25V320c0,1.47,1.92,2,4,2.67,2.4.72,5,1.65,5,4.44v.06C205.55,330.09,203.12,331.8,200,331.8Z"/><path class="cls-1" d="M226.25,331.83a7,7,0,0,1-5.94-3.3v7.77H218V316h2.31v3.12a7,7,0,0,1,5.94-3.45c3.72,0,7.41,2.94,7.41,8.07S230,331.83,226.25,331.83Zm-.42-14.1a6,6,0,0,0,0,12c3,0,5.46-2.22,5.46-6S228.77,317.73,225.83,317.73Z"/><path class="cls-1" d="M239.81,331.5H237.5V316h2.31V320a6.64,6.64,0,0,1,6.33-4.32v2.49H246c-3.39,0-6.15,2.43-6.15,7.11Z"/><path class="cls-1" d="M256.31,331.86a8,8,0,0,1-8-8.07,8.09,8.09,0,1,1,8,8.07Zm0-14.16a5.7,5.7,0,0,0-5.67,6,5.83,5.83,0,0,0,5.73,6.06,5.71,5.71,0,0,0,5.7-6A5.86,5.86,0,0,0,256.31,317.7Z"/><path class="cls-1" d="M276.44,331.83a7,7,0,0,1-5.94-3.3v7.77h-2.31V316h2.31v3.12a7,7,0,0,1,5.94-3.45c3.72,0,7.41,2.94,7.41,8.07S280.19,331.83,276.44,331.83Zm-.42-14.1a6,6,0,0,0,0,12c3,0,5.46-2.22,5.46-6S279,317.73,276,317.73Z"/><path class="cls-1" d="M294.77,331.86a8,8,0,0,1-8-8.07,8.09,8.09,0,1,1,8,8.07Zm0-14.16a5.7,5.7,0,0,0-5.67,6,5.83,5.83,0,0,0,5.73,6.06,5.71,5.71,0,0,0,5.7-6A5.86,5.86,0,0,0,294.77,317.7Z"/><path class="cls-1" d="M311.78,331.8a10.67,10.67,0,0,1-6.42-2.28l1.17-1.65a9.07,9.07,0,0,0,5.37,2c1.86,0,3.21-1,3.21-2.46v-.06c0-1.56-1.83-2.16-3.87-2.73-2.43-.69-5.13-1.53-5.13-4.38v-.06c0-2.67,2.22-4.44,5.28-4.44a10.6,10.6,0,0,1,5.58,1.71l-1.05,1.74a8.77,8.77,0,0,0-4.59-1.5c-1.83,0-3,1-3,2.25V320c0,1.47,1.92,2,4,2.67,2.4.72,5,1.65,5,4.44v.06C317.3,330.09,314.87,331.8,311.78,331.8Z"/><path class="cls-1" d="M321.23,312.6v-2.55h2.64v2.55Zm.15,18.9V316h2.31V331.5Z"/><path class="cls-1" d="M331.75,327.09a2.29,2.29,0,0,0,2.61,2.58,4.86,4.86,0,0,0,2.25-.54v2a5.81,5.81,0,0,1-2.79.66c-2.49,0-4.38-1.23-4.38-4.38V318h-2.16v-2h2.16v-4.68h2.31V316h4.92v2h-4.92Z"/><path class="cls-1" d="M340.39,312.6v-2.55H343v2.55Zm.15,18.9V316h2.31V331.5Z"/><path class="cls-1" d="M354.88,331.86a8,8,0,0,1-8-8.07,8.09,8.09,0,1,1,8,8.07Zm0-14.16a5.7,5.7,0,0,0-5.67,6,5.83,5.83,0,0,0,5.73,6.06,5.71,5.71,0,0,0,5.7-6A5.86,5.86,0,0,0,354.88,317.7Z"/><path class="cls-1" d="M369.07,331.5h-2.31V316h2.31v2.7a5.87,5.87,0,0,1,5.31-3c3.75,0,5.94,2.52,5.94,6.21v9.63H378v-9.06c0-2.88-1.56-4.68-4.29-4.68a4.56,4.56,0,0,0-4.65,4.86Z"/><path class="cls-1" d="M390,331.8a10.67,10.67,0,0,1-6.42-2.28l1.17-1.65a9.07,9.07,0,0,0,5.37,2c1.86,0,3.21-1,3.21-2.46v-.06c0-1.56-1.83-2.16-3.87-2.73-2.43-.69-5.13-1.53-5.13-4.38v-.06c0-2.67,2.22-4.44,5.28-4.44a10.6,10.6,0,0,1,5.58,1.71l-1.05,1.74a8.77,8.77,0,0,0-4.59-1.5c-1.83,0-3,1-3,2.25V320c0,1.47,1.92,2,4,2.67,2.4.72,5,1.65,5,4.44v.06C395.47,330.09,393,331.8,390,331.8Z"/><path class="cls-1" d="M420.37,331.5v-3.12a7,7,0,0,1-5.94,3.45c-3.72,0-7.41-2.94-7.41-8.07s3.69-8.1,7.41-8.1a7,7,0,0,1,5.94,3.3V309.6h2.31v21.9Zm-5.52-13.77c-3,0-5.46,2.22-5.46,6s2.52,6,5.46,6a6,6,0,0,0,0-12Z"/><path class="cls-1" d="M434.26,329.85a6.42,6.42,0,0,0,4.89-2.19l1.44,1.29a8,8,0,0,1-6.39,2.91,7.72,7.72,0,0,1-7.74-8.1c0-4.5,3.15-8.1,7.44-8.1,4.59,0,7.23,3.66,7.23,8.22a6.28,6.28,0,0,1,0,.72H428.8A5.44,5.44,0,0,0,434.26,329.85Zm4.53-7c-.24-2.82-1.86-5.28-5-5.28-2.7,0-4.74,2.25-5,5.28Z"/><path class="cls-1" d="M33.23,360.09h-5.1v7.41H25.76v-21h7.86c4.74,0,7.86,2.52,7.86,6.69C41.48,357.75,37.7,360.09,33.23,360.09Zm.21-11.4H28.13v9.24h5.19c3.48,0,5.76-1.86,5.76-4.65C39.08,350.25,36.83,348.69,33.44,348.69Z"/><path class="cls-1" d="M47.3,367.5H45V352H47.3V356a6.64,6.64,0,0,1,6.33-4.32v2.49h-.18c-3.39,0-6.15,2.43-6.15,7.11Z"/><path class="cls-1" d="M63.8,367.86a8,8,0,0,1-8-8.07,8.09,8.09,0,1,1,8,8.07Zm0-14.16a5.7,5.7,0,0,0-5.67,6,5.83,5.83,0,0,0,5.73,6.06,5.71,5.71,0,0,0,5.7-6A5.86,5.86,0,0,0,63.8,353.7Z"/><path class="cls-1" d="M78.2,352V368.4c0,2.73-1.44,4-3.78,4a5.73,5.73,0,0,1-1.44-.15v-1.89a7.59,7.59,0,0,0,1.14.09c1,0,1.77-.63,1.77-2.07V352Zm-2.46-3.39v-2.55h2.64v2.55Z"/><path class="cls-1" d="M90,365.85a6.42,6.42,0,0,0,4.89-2.19L96.32,365a8,8,0,0,1-6.39,2.91,7.72,7.72,0,0,1-7.74-8.1c0-4.5,3.15-8.1,7.44-8.1,4.59,0,7.23,3.66,7.23,8.22a6.28,6.28,0,0,1,0,.72H84.53A5.44,5.44,0,0,0,90,365.85Zm4.53-7c-.24-2.82-1.86-5.28-5-5.28-2.7,0-4.74,2.25-5,5.28Z"/><path class="cls-1" d="M103.61,363.09a2.29,2.29,0,0,0,2.61,2.58,4.86,4.86,0,0,0,2.25-.54v2a5.81,5.81,0,0,1-2.79.66c-2.49,0-4.38-1.23-4.38-4.38V354H99.14v-2h2.16v-4.68h2.31V352h4.92v2h-4.92Z"/><path class="cls-1" d="M117.32,367.8a10.67,10.67,0,0,1-6.42-2.28l1.17-1.65a9.07,9.07,0,0,0,5.37,2c1.86,0,3.21-1,3.21-2.46v-.06c0-1.56-1.83-2.16-3.87-2.73-2.43-.69-5.13-1.53-5.13-4.38v-.06c0-2.67,2.22-4.44,5.28-4.44a10.6,10.6,0,0,1,5.58,1.71l-1.05,1.74a8.77,8.77,0,0,0-4.59-1.5c-1.83,0-3,1-3,2.25V356c0,1.47,1.92,2,4,2.67,2.4.72,5,1.65,5,4.44v.06C122.84,366.09,120.41,367.8,117.32,367.8Z"/><path class="cls-1" d="M142.28,367.86a8.1,8.1,0,1,1,6.21-13.44L147,356a6.26,6.26,0,0,0-4.71-2.34,5.73,5.73,0,0,0-5.55,6,5.8,5.8,0,0,0,5.7,6.06,6.4,6.4,0,0,0,4.74-2.31l1.47,1.38A8,8,0,0,1,142.28,367.86Z"/><path class="cls-1" d="M154.31,367.5H152V352h2.31V356a6.64,6.64,0,0,1,6.33-4.32v2.49h-.18c-3.39,0-6.15,2.43-6.15,7.11Z"/><path class="cls-1" d="M170.57,365.85a6.42,6.42,0,0,0,4.89-2.19L176.9,365a8,8,0,0,1-6.39,2.91,7.72,7.72,0,0,1-7.74-8.1c0-4.5,3.15-8.1,7.44-8.1,4.59,0,7.23,3.66,7.23,8.22a6.28,6.28,0,0,1,0,.72h-12.3A5.44,5.44,0,0,0,170.57,365.85Zm4.53-7c-.24-2.82-1.86-5.28-4.95-5.28-2.7,0-4.74,2.25-5,5.28Zm-6.33-9.24,2.85-4.35,2.4,1.11-3.39,3.24Z"/><path class="cls-1" d="M182,355l-.69-1.89a12.81,12.81,0,0,1,5.64-1.29c4.23,0,6.6,2.16,6.6,6.24v9.48H191.3v-2.34a6.8,6.8,0,0,1-5.61,2.67c-2.88,0-5.79-1.62-5.79-4.86s2.7-5,6.63-5a16.47,16.47,0,0,1,4.77.66v-.54c0-2.79-1.71-4.23-4.62-4.23A10.8,10.8,0,0,0,182,355Zm.27,7.92c0,2,1.8,3.12,3.9,3.12,2.85,0,5.19-1.74,5.19-4.2v-1.5a16.18,16.18,0,0,0-4.56-.66C183.86,359.64,182.24,360.9,182.24,362.88Z"/><path class="cls-1" d="M201.14,363.09a2.29,2.29,0,0,0,2.61,2.58,4.86,4.86,0,0,0,2.25-.54v2a5.81,5.81,0,0,1-2.79.66c-2.49,0-4.38-1.23-4.38-4.38V354h-2.16v-2h2.16v-4.68h2.31V352h4.92v2h-4.92Z"/><path class="cls-1" d="M209.78,348.6v-2.55h2.64v2.55Zm.15,18.9V352h2.31V367.5Z"/><path class="cls-1" d="M225.26,352.05v2h-4.89V367.5h-2.31V354h-2.13v-2h2.13v-1.35c0-3.39,1.71-5.19,4.68-5.19a7,7,0,0,1,2.55.39v2a7.72,7.72,0,0,0-2.25-.39c-1.8,0-2.7,1.08-2.7,3.3v1.26Z"/><path class="cls-1" d="M232.91,367.8a10.67,10.67,0,0,1-6.42-2.28l1.17-1.65a9.07,9.07,0,0,0,5.37,2c1.86,0,3.21-1,3.21-2.46v-.06c0-1.56-1.83-2.16-3.87-2.73-2.43-.69-5.13-1.53-5.13-4.38v-.06c0-2.67,2.22-4.44,5.28-4.44a10.6,10.6,0,0,1,5.58,1.71l-1,1.74a8.77,8.77,0,0,0-4.59-1.5c-1.83,0-3,1-3,2.25V356c0,1.47,1.92,2,4,2.67,2.4.72,5,1.65,5,4.44v.06C238.43,366.09,236,367.8,232.91,367.8Z"/><path class="cls-1" d="M256,367.8a10.67,10.67,0,0,1-6.42-2.28l1.17-1.65a9.07,9.07,0,0,0,5.37,2c1.86,0,3.21-1,3.21-2.46v-.06c0-1.56-1.83-2.16-3.87-2.73-2.43-.69-5.13-1.53-5.13-4.38v-.06c0-2.67,2.22-4.44,5.28-4.44a10.6,10.6,0,0,1,5.58,1.71l-1.05,1.74a8.77,8.77,0,0,0-4.59-1.5c-1.83,0-3,1-3,2.25V356c0,1.47,1.92,2,4,2.67,2.4.72,5,1.65,5,4.44v.06C261.53,366.09,259.1,367.8,256,367.8Z"/><path class="cls-1" d="M276.41,352h2.28V367.5h-2.28v-2.7a5.91,5.91,0,0,1-5.31,3c-3.75,0-5.94-2.52-5.94-6.21V352h2.31v9.06c0,2.88,1.56,4.68,4.29,4.68a4.58,4.58,0,0,0,4.65-4.86Z"/><path class="cls-1" d="M285.77,367.5h-2.31V352h2.31V356a6.64,6.64,0,0,1,6.33-4.32v2.49h-.18c-3.39,0-6.15,2.43-6.15,7.11Z"/><path class="cls-1" d="M304,367.5V345.6h2.31v21.9Z"/><path class="cls-1" d="M312.14,355l-.69-1.89a12.81,12.81,0,0,1,5.64-1.29c4.23,0,6.6,2.16,6.6,6.24v9.48h-2.22v-2.34a6.8,6.8,0,0,1-5.61,2.67c-2.88,0-5.79-1.62-5.79-4.86s2.7-5,6.63-5a16.47,16.47,0,0,1,4.77.66v-.54c0-2.79-1.71-4.23-4.62-4.23A10.8,10.8,0,0,0,312.14,355Zm.27,7.92c0,2,1.8,3.12,3.9,3.12,2.85,0,5.19-1.74,5.19-4.2v-1.5a16.18,16.18,0,0,0-4.56-.66C314,359.64,312.41,360.9,312.41,362.88Z"/><path class="cls-1" d="M33.62,403.83a7,7,0,0,1-5.94-3.3v7.77H25.37V388h2.31v3.12a7,7,0,0,1,5.94-3.45c3.72,0,7.41,2.94,7.41,8.07S37.37,403.83,33.62,403.83Zm-.42-14.1a6,6,0,0,0,0,12c3,0,5.46-2.22,5.46-6S36.14,389.73,33.2,389.73Z"/><path class="cls-1" d="M45.08,403.5V381.6h2.31v21.9Z"/><path class="cls-1" d="M53.24,391l-.69-1.89a12.81,12.81,0,0,1,5.64-1.29c4.23,0,6.6,2.16,6.6,6.24v9.48H62.57v-2.34A6.8,6.8,0,0,1,57,403.83c-2.88,0-5.79-1.62-5.79-4.86s2.7-5,6.63-5a16.47,16.47,0,0,1,4.77.66v-.54c0-2.79-1.71-4.23-4.62-4.23A10.8,10.8,0,0,0,53.24,391Zm.27,7.92c0,2,1.8,3.12,3.9,3.12,2.85,0,5.19-1.74,5.19-4.2v-1.5a16.18,16.18,0,0,0-4.56-.66C55.13,395.64,53.51,396.9,53.51,398.88Z"/><path class="cls-1" d="M72.41,399.09A2.29,2.29,0,0,0,75,401.67a4.86,4.86,0,0,0,2.25-.54v2a5.81,5.81,0,0,1-2.79.66c-2.49,0-4.38-1.23-4.38-4.38V390H67.94v-2H70.1v-4.68h2.31V388h4.92v2H72.41Z"/><path class="cls-1" d="M87.83,401.85a6.42,6.42,0,0,0,4.89-2.19L94.16,401a8,8,0,0,1-6.39,2.91,7.72,7.72,0,0,1-7.74-8.1c0-4.5,3.15-8.1,7.44-8.1,4.59,0,7.23,3.66,7.23,8.22a6.28,6.28,0,0,1,0,.72H82.37A5.44,5.44,0,0,0,87.83,401.85Zm4.53-7c-.24-2.82-1.86-5.28-5-5.28-2.7,0-4.74,2.25-5,5.28Z"/><path class="cls-1" d="M106.4,388.05v2h-4.89V403.5H99.2V390H97.07v-2H99.2v-1.35c0-3.39,1.71-5.19,4.68-5.19a7,7,0,0,1,2.55.39v2a7.72,7.72,0,0,0-2.25-.39c-1.8,0-2.7,1.08-2.7,3.3v1.26Z"/><path class="cls-1" d="M116,403.86a8,8,0,0,1-8-8.07,8.09,8.09,0,1,1,8,8.07Zm0-14.16a5.7,5.7,0,0,0-5.67,6,5.83,5.83,0,0,0,5.73,6.06,5.71,5.71,0,0,0,5.7-6A5.86,5.86,0,0,0,116,389.7Z"/><path class="cls-1" d="M130.19,403.5h-2.31V388h2.31V392a6.64,6.64,0,0,1,6.33-4.32v2.49h-.18c-3.39,0-6.15,2.43-6.15,7.11Z"/><path class="cls-1" d="M157.37,387.66c3.57,0,5.76,2.4,5.76,6.24v9.6h-2.31v-9.06c0-3-1.5-4.68-4-4.68-2.34,0-4.29,1.74-4.29,4.8v8.94h-2.28v-9.12c0-2.91-1.53-4.62-4-4.62s-4.32,2-4.32,4.89v8.85h-2.31V388h2.31v2.61a5.67,5.67,0,0,1,5-2.94,5.27,5.27,0,0,1,5,3.09A6.18,6.18,0,0,1,157.37,387.66Z"/><path class="cls-1" d="M174.56,401.85a6.42,6.42,0,0,0,4.89-2.19l1.44,1.29a8,8,0,0,1-6.39,2.91,7.72,7.72,0,0,1-7.74-8.1c0-4.5,3.15-8.1,7.44-8.1,4.59,0,7.23,3.66,7.23,8.22a6.28,6.28,0,0,1,0,.72H169.1A5.44,5.44,0,0,0,174.56,401.85Zm4.53-7c-.24-2.82-1.86-5.28-5-5.28-2.7,0-4.74,2.25-5,5.28Z"/><path class="cls-1" d="M206.09,403.5v-3.12a7,7,0,0,1-5.94,3.45c-3.72,0-7.41-2.94-7.41-8.07s3.69-8.1,7.41-8.1a7,7,0,0,1,5.94,3.3V381.6h2.31v21.9Zm-5.52-13.77c-3,0-5.46,2.22-5.46,6s2.52,6,5.46,6a6,6,0,0,0,0-12Z"/><path class="cls-1" d="M220,401.85a6.42,6.42,0,0,0,4.89-2.19l1.44,1.29a8,8,0,0,1-6.39,2.91,7.72,7.72,0,0,1-7.74-8.1c0-4.5,3.15-8.1,7.44-8.1,4.59,0,7.23,3.66,7.23,8.22a6.28,6.28,0,0,1,0,.72h-12.3A5.44,5.44,0,0,0,220,401.85Zm4.53-7c-.24-2.82-1.86-5.28-4.95-5.28-2.7,0-4.74,2.25-5,5.28Z"/><path class="cls-1" d="M247.31,403.83a7,7,0,0,1-5.94-3.3v7.77h-2.31V388h2.31v3.12a7,7,0,0,1,5.94-3.45c3.72,0,7.41,2.94,7.41,8.07S251.06,403.83,247.31,403.83Zm-.42-14.1a6,6,0,0,0,0,12c3,0,5.46-2.22,5.46-6S249.83,389.73,246.89,389.73Z"/><path class="cls-1" d="M259.46,391l-.69-1.89a12.81,12.81,0,0,1,5.64-1.29c4.23,0,6.6,2.16,6.6,6.24v9.48h-2.22v-2.34a6.8,6.8,0,0,1-5.61,2.67c-2.88,0-5.79-1.62-5.79-4.86s2.7-5,6.63-5a16.47,16.47,0,0,1,4.77.66v-.54c0-2.79-1.71-4.23-4.62-4.23A10.8,10.8,0,0,0,259.46,391Zm.27,7.92c0,2,1.8,3.12,3.9,3.12,2.85,0,5.19-1.74,5.19-4.2v-1.5a16.18,16.18,0,0,0-4.56-.66C261.35,395.64,259.73,396.9,259.73,398.88Z"/><path class="cls-1" d="M277.82,403.5h-2.31V388h2.31V392a6.64,6.64,0,0,1,6.33-4.32v2.49H284c-3.39,0-6.15,2.43-6.15,7.11Z"/><path class="cls-1" d="M290.36,399.09a2.29,2.29,0,0,0,2.61,2.58,4.86,4.86,0,0,0,2.25-.54v2a5.81,5.81,0,0,1-2.79.66c-2.49,0-4.38-1.23-4.38-4.38V390h-2.16v-2h2.16v-4.68h2.31V388h4.92v2h-4.92Z"/><path class="cls-1" d="M299,384.6v-2.55h2.64v2.55Zm.15,18.9V388h2.31V403.5Z"/><path class="cls-1" d="M313.4,403.86a8.1,8.1,0,1,1,6.21-13.44L318.08,392a6.26,6.26,0,0,0-4.71-2.34,5.73,5.73,0,0,0-5.55,6,5.8,5.8,0,0,0,5.7,6.06,6.4,6.4,0,0,0,4.74-2.31l1.47,1.38A8,8,0,0,1,313.4,403.86Z"/><path class="cls-1" d="M323.18,384.6v-2.55h2.64v2.55Zm.15,18.9V388h2.31V403.5Z"/><path class="cls-1" d="M338.84,403.83a7,7,0,0,1-5.94-3.3v7.77h-2.31V388h2.31v3.12a7,7,0,0,1,5.94-3.45c3.72,0,7.41,2.94,7.41,8.07S342.59,403.83,338.84,403.83Zm-.42-14.1a6,6,0,0,0,0,12c3,0,5.46-2.22,5.46-6S341.36,389.73,338.42,389.73Z"/><path class="cls-1" d="M351,391l-.69-1.89a12.81,12.81,0,0,1,5.64-1.29c4.23,0,6.6,2.16,6.6,6.24v9.48h-2.22v-2.34a6.8,6.8,0,0,1-5.61,2.67c-2.88,0-5.79-1.62-5.79-4.86s2.7-5,6.63-5a16.47,16.47,0,0,1,4.77.66v-.54c0-2.79-1.71-4.23-4.62-4.23A10.8,10.8,0,0,0,351,391Zm.27,7.92c0,2,1.8,3.12,3.9,3.12,2.85,0,5.19-1.74,5.19-4.2v-1.5a16.18,16.18,0,0,0-4.56-.66C352.88,395.64,351.26,396.9,351.26,398.88Z"/><path class="cls-1" d="M370.16,399.09a2.29,2.29,0,0,0,2.61,2.58,4.86,4.86,0,0,0,2.25-.54v2a5.81,5.81,0,0,1-2.79.66c-2.49,0-4.38-1.23-4.38-4.38V390h-2.16v-2h2.16v-4.68h2.31V388h4.92v2h-4.92Z"/><path class="cls-1" d="M378.8,384.6v-2.55h2.64v2.55Zm.15,18.9V388h2.31V403.5Z"/><path class="cls-1" d="M393.29,403.86a8,8,0,0,1-8-8.07,8.09,8.09,0,1,1,8,8.07Zm0-14.16a5.7,5.7,0,0,0-5.67,6,5.83,5.83,0,0,0,5.73,6.06,5.71,5.71,0,0,0,5.7-6A5.86,5.86,0,0,0,393.29,389.7Z"/><path class="cls-1" d="M407.48,403.5h-2.31V388h2.31v2.7a5.87,5.87,0,0,1,5.31-3c3.75,0,5.94,2.52,5.94,6.21v9.63h-2.31v-9.06c0-2.88-1.56-4.68-4.29-4.68a4.56,4.56,0,0,0-4.65,4.86Z"/><path class="cls-1" d="M431.69,391.14V388h2.76v3.15Zm0,12.36v-3.15h2.76v3.15Z"/><path class="cls-4" d="M23.51,423.42h4.62l2.58,9.75,3-9.81h3.93l3.06,9.84,2.64-9.78H47.9l-5,16.2H38.78l-3.09-9.87-3.15,9.87H28.46Z"/><path class="cls-4" d="M48.92,423.42h4.62l2.58,9.75,3-9.81h3.93l3.06,9.84,2.64-9.78h4.53l-5,16.2H64.19l-3.09-9.87L58,439.62H53.87Z"/><path class="cls-4" d="M74.33,423.42H79l2.58,9.75,3-9.81h3.93l3.06,9.84,2.64-9.78h4.53l-5,16.2H89.6l-3.09-9.87-3.15,9.87H79.28Z"/><path class="cls-4" d="M100.88,434.7h4.86v4.8h-4.86Z"/><path class="cls-4" d="M108.26,434.88v-.06c0-3.51,2.67-5.13,6.48-5.13a11.43,11.43,0,0,1,3.93.66v-.27c0-1.89-1.17-2.94-3.45-2.94a11.83,11.83,0,0,0-4.44.87l-1.14-3.48a14.19,14.19,0,0,1,6.24-1.29,7.42,7.42,0,0,1,5.43,1.8,7,7,0,0,1,1.74,5.13v9.33h-4.41v-1.74a6.18,6.18,0,0,1-4.86,2C110.75,439.8,108.26,438.06,108.26,434.88Zm10.47-1.05V433a7.07,7.07,0,0,0-2.91-.6c-1.95,0-3.15.78-3.15,2.22v.06c0,1.23,1,1.95,2.49,1.95C117.29,436.65,118.73,435.48,118.73,433.83Z"/><path class="cls-4" d="M127.31,434.94v-7.62h-1.92v-3.9h1.92v-4.11h4.56v4.11h3.78v3.9h-3.78v6.87c0,1.05.45,1.56,1.47,1.56a4.64,4.64,0,0,0,2.25-.57v3.66a6.72,6.72,0,0,1-3.6.93C129.2,439.77,127.31,438.66,127.31,434.94Z"/><path class="cls-4" d="M138.59,417.6h4.56v8.1a5.69,5.69,0,0,1,4.71-2.58c3.45,0,5.46,2.28,5.46,6V439.5h-4.56v-9c0-2.16-1-3.27-2.76-3.27s-2.85,1.11-2.85,3.27v9h-4.56Z"/><path class="cls-4" d="M155.9,434.88v-.06c0-3.51,2.67-5.13,6.48-5.13a11.43,11.43,0,0,1,3.93.66v-.27c0-1.89-1.17-2.94-3.45-2.94a11.83,11.83,0,0,0-4.44.87l-1.14-3.48a14.19,14.19,0,0,1,6.24-1.29A7.42,7.42,0,0,1,169,425a7,7,0,0,1,1.74,5.13v9.33h-4.41v-1.74a6.18,6.18,0,0,1-4.86,2C158.39,439.8,155.9,438.06,155.9,434.88Zm10.47-1.05V433a7.07,7.07,0,0,0-2.91-.6c-2,0-3.15.78-3.15,2.22v.06c0,1.23,1,1.95,2.49,1.95C164.93,436.65,166.37,435.48,166.37,433.83Z"/><path class="cls-4" d="M174.2,423.42h4.56v3.24c.93-2.22,2.43-3.66,5.13-3.54v4.77h-.24c-3,0-4.89,1.83-4.89,5.67v5.94H174.2Z"/><path class="cls-4" d="M187.07,434.94v-7.62h-1.92v-3.9h1.92v-4.11h4.56v4.11h3.78v3.9h-3.78v6.87c0,1.05.45,1.56,1.47,1.56a4.64,4.64,0,0,0,2.25-.57v3.66a6.72,6.72,0,0,1-3.6.93C189,439.77,187.07,438.66,187.07,434.94Z"/><path class="cls-4" d="M198.17,434.7H203v4.8h-4.86Z"/><path class="cls-4" d="M206.51,423.42h4.56v2.28a5.74,5.74,0,0,1,4.74-2.58,4.81,4.81,0,0,1,4.53,2.55,6.62,6.62,0,0,1,5.28-2.55c3.39,0,5.43,2,5.43,5.91V439.5h-4.56v-9c0-2.16-1-3.27-2.67-3.27s-2.76,1.11-2.76,3.27v9H216.5v-9c0-2.16-1-3.27-2.67-3.27s-2.76,1.11-2.76,3.27v9h-4.56Z"/><path class="cls-4" d="M233.63,434.88v-.06c0-3.51,2.67-5.13,6.48-5.13a11.43,11.43,0,0,1,3.93.66v-.27c0-1.89-1.17-2.94-3.45-2.94a11.83,11.83,0,0,0-4.44.87L235,424.53a14.19,14.19,0,0,1,6.24-1.29,7.42,7.42,0,0,1,5.43,1.8,7,7,0,0,1,1.74,5.13v9.33H244v-1.74a6.18,6.18,0,0,1-4.86,2C236.12,439.8,233.63,438.06,233.63,434.88Zm10.47-1.05V433a7.07,7.07,0,0,0-2.91-.6c-1.95,0-3.15.78-3.15,2.22v.06c0,1.23,1,1.95,2.49,1.95C242.66,436.65,244.1,435.48,244.1,433.83Z"/><path class="cls-4" d="M262.34,415.56h3.87l-13.29,27.78h-3.87Z"/><path class="cls-4" d="M266.63,431.55v-.06a8.26,8.26,0,0,1,8.43-8.37,7.91,7.91,0,0,1,6.42,2.7l-2.79,3a4.7,4.7,0,0,0-3.66-1.77,4.11,4.11,0,0,0-3.9,4.38v.06c0,2.46,1.59,4.44,4.08,4.44a5.09,5.09,0,0,0,3.69-1.71l2.67,2.7a8.1,8.1,0,0,1-6.57,2.94A8.21,8.21,0,0,1,266.63,431.55Z"/><path class="cls-4" d="M283.16,434.88v-.06c0-3.51,2.67-5.13,6.48-5.13a11.43,11.43,0,0,1,3.93.66v-.27c0-1.89-1.17-2.94-3.45-2.94a11.83,11.83,0,0,0-4.44.87l-1.14-3.48a14.19,14.19,0,0,1,6.24-1.29,7.42,7.42,0,0,1,5.43,1.8,7,7,0,0,1,1.74,5.13v9.33h-4.41v-1.74a6.18,6.18,0,0,1-4.86,2C285.65,439.8,283.16,438.06,283.16,434.88Zm10.47-1.05V433a7.07,7.07,0,0,0-2.91-.6c-2,0-3.15.78-3.15,2.22v.06c0,1.23,1,1.95,2.49,1.95C292.19,436.65,293.63,435.48,293.63,433.83Z"/><path class="cls-4" d="M301.46,423.42H306v2.28a5.69,5.69,0,0,1,4.71-2.58c3.45,0,5.46,2.28,5.46,6V439.5h-4.56v-9c0-2.16-1-3.27-2.76-3.27s-2.85,1.11-2.85,3.27v9h-4.56Z"/><path class="cls-4" d="M319,431.49v-.06c0-5.37,3.51-8.31,7.32-8.31a6.18,6.18,0,0,1,5,2.4V417.6h4.56v21.9h-4.56v-2.31a5.91,5.91,0,0,1-5,2.61C322.58,439.8,319,436.86,319,431.49Zm12.39,0v-.06c0-2.67-1.77-4.44-3.9-4.44s-3.93,1.74-3.93,4.44v.06c0,2.67,1.8,4.44,3.93,4.44S331.4,434.16,331.4,431.49Z"/><path class="cls-4" d="M339.65,417.6h4.8v4h-4.8Zm.12,5.82h4.56V439.5h-4.56Z"/><path class="cls-4" d="M347.48,431.49v-.06c0-5.37,3.51-8.31,7.32-8.31a6.18,6.18,0,0,1,5,2.4V417.6h4.56v21.9h-4.56v-2.31a5.91,5.91,0,0,1-5,2.61C351.05,439.8,347.48,436.86,347.48,431.49Zm12.39,0v-.06c0-2.67-1.77-4.44-3.9-4.44s-3.93,1.74-3.93,4.44v.06c0,2.67,1.8,4.44,3.93,4.44S359.87,434.16,359.87,431.49Z"/><path class="cls-4" d="M367.07,434.88v-.06c0-3.51,2.67-5.13,6.48-5.13a11.43,11.43,0,0,1,3.93.66v-.27c0-1.89-1.17-2.94-3.45-2.94a11.83,11.83,0,0,0-4.44.87l-1.14-3.48a14.19,14.19,0,0,1,6.24-1.29,7.42,7.42,0,0,1,5.43,1.8,7,7,0,0,1,1.74,5.13v9.33h-4.41v-1.74a6.18,6.18,0,0,1-4.86,2C369.56,439.8,367.07,438.06,367.07,434.88Zm10.47-1.05V433a7.07,7.07,0,0,0-2.91-.6c-1.95,0-3.15.78-3.15,2.22v.06c0,1.23,1,1.95,2.49,1.95C376.1,436.65,377.54,435.48,377.54,433.83Z"/><path class="cls-4" d="M386.12,434.94v-7.62H384.2v-3.9h1.92v-4.11h4.56v4.11h3.78v3.9h-3.78v6.87c0,1.05.45,1.56,1.47,1.56a4.64,4.64,0,0,0,2.25-.57v3.66a6.72,6.72,0,0,1-3.6.93C388,439.77,386.12,438.66,386.12,434.94Z"/><path class="cls-4" d="M397.28,433.83V423.42h4.56v9c0,2.16,1,3.27,2.76,3.27s2.85-1.11,2.85-3.27v-9H412V439.5h-4.56v-2.28a5.69,5.69,0,0,1-4.71,2.58C399.29,439.8,397.28,437.52,397.28,433.83Z"/><path class="cls-4" d="M415.67,423.42h4.56v3.24c.93-2.22,2.43-3.66,5.13-3.54v4.77h-.24c-3,0-4.89,1.83-4.89,5.67v5.94h-4.56Z"/><path class="cls-4" d="M427,431.55v-.06c0-4.59,3.27-8.37,7.95-8.37,5.37,0,7.83,4.17,7.83,8.73,0,.36,0,.78-.06,1.2H431.54a3.73,3.73,0,0,0,3.93,3.15,5.27,5.27,0,0,0,3.9-1.65l2.61,2.31a8.49,8.49,0,0,1-15-5.31Zm11.34-1.35c-.27-2-1.47-3.42-3.39-3.42s-3.12,1.35-3.48,3.42Z"/></g></g></svg>