<svg xmlns="http://www.w3.org/2000/svg" viewBox="0 0 643.65 239.86"><defs><style>.cls-1{fill:#ffb000;}.cls-2{fill:#fff;}</style></defs><g id="Layer_2" data-name="Layer 2"><g id="Calque_1" data-name="Calque 1"><path class="cls-1" d="M15,58.68c6.44-6.22,21.65-21.47,38.92-31.3,29.66-16.89,71.53-28.61,123.68-7.83,15.66,6.25,32.31,21,49.57,38.5l1.56-5C215,34.68,203.6,26.74,188.53,17.81,164.28,3.44,140.08-.4,118.65,0A136.3,136.3,0,0,0,49.2,20.41C24,36.14,10.69,56.28,12.94,54.67Z"/><path class="cls-1" d="M245.05,81.83l-39.84-.1-6.94,11.12,32.32-1a144.92,144.92,0,0,1-22.77,31.45C206,120.76,182.52,76,148.31,76.68v0c-2.26-.12-7.88-.21-10.28.31a24.85,24.85,0,0,0-7.72,3.07A15.62,15.62,0,0,0,125,85.39a14.68,14.68,0,0,0-1.94,7.7,14.28,14.28,0,0,0,3.55,9.75c2.37,2.7,6,5,10.79,6.84,1.9.71,3.66,1.42,5.3,2.12A30.3,30.3,0,0,1,147,114a10.94,10.94,0,0,1,2.82,2.44,4.81,4.81,0,0,1,1,3,4.41,4.41,0,0,1-.64,2.3,5.55,5.55,0,0,1-2,1.84,11.19,11.19,0,0,1-3.28,1.21,20,20,0,0,1-4.59.45,27.74,27.74,0,0,1-8.86-1.46c-2.93-1-9.49-3.76-12-5.7h0c-12.15-9.67-31.16-30.41-32.9-39.36L76.29,81.33c-1,.2-21.71,29.79-35,44a25.2,25.2,0,0,1-3.82,2.19,10.5,10.5,0,0,1-6.05.9c-5.33-1-10.68-2.76-14.14-7.68A22.55,22.55,0,0,1,13,106.1c.4-9,3.49-14.56,7.44-18,3-2.65,6.37-3.8,11.37-3.65s12.06,6.1,14.88,7.5l7.37-7.15c-5.86-6.27-15.48-10.48-22.8-10.48C12.87,74.33,0,87.54,0,106.24c0,19.59,15.16,32,31.91,32a25.21,25.21,0,0,0,9.93-1.94A29.91,29.91,0,0,0,47,133.25h0l.28-.2a6.81,6.81,0,0,0,1.6-1.56l.06,0c7.31-10.22,29.66-38.71,31.47-41,0,0,4.24,11.22,20.16,28.91h-26l-6.52,9.31h50.11c4.35,2.17,10.94,5.38,13.13,5.77a56.58,56.58,0,0,0,9.67.8,49.06,49.06,0,0,0,9.41-.87,24,24,0,0,0,7.81-2.91,15.29,15.29,0,0,0,5.33-5.27,17.47,17.47,0,0,0,.84-14.15,14.19,14.19,0,0,0-3.24-4.66,23.33,23.33,0,0,0-5.05-3.66,54.08,54.08,0,0,0-6.66-3c-1.81-.69-3.43-1.37-4.86-2a25.3,25.3,0,0,1-3.66-2,9.09,9.09,0,0,1-2.33-2.16,4.35,4.35,0,0,1-.81-2.59,4.06,4.06,0,0,1,.72-2.37,6.39,6.39,0,0,1,2.07-1.82,11.46,11.46,0,0,1,3.27-1.18c1-.22,2.77-.33,4.11-.49,26.45-.48,51.44,47.7,52.55,47.94l13,2.43c8.75-19.32,16.16-24.78,31.84-44.83Z"/><path class="cls-2" d="M264.67,231.48a7.06,7.06,0,0,1-2.58-.4,4.17,4.17,0,0,1-1.62-1.09,3.76,3.76,0,0,1-.88-1.57,7,7,0,0,1-.26-1.91v-5.86h3v5.08a3,3,0,0,0,.63,2.25,3.16,3.16,0,0,0,2,.53h19V217.39h3v14.09Zm5-21.17a1.64,1.64,0,0,1,.5-1.2,1.6,1.6,0,0,1,1.2-.5,1.7,1.7,0,1,1-1.7,1.7Zm2.48-3.89a1.71,1.71,0,0,1,1.71-1.7,1.71,1.71,0,0,1,0,3.41,1.72,1.72,0,0,1-1.71-1.71Zm2.45,3.89a1.72,1.72,0,1,1,.5,1.2A1.64,1.64,0,0,1,274.57,210.31Z"/><path class="cls-2" d="M290.59,204.9h2.85v26.58h-2.85Z"/><path class="cls-2" d="M308.46,228.51c.56,0,.85.23.85.66v1.43a.77.77,0,0,1-.85.88h-.71c-.42,0-.84,0-1.26-.07a3.79,3.79,0,0,1-1.22-.35,3.48,3.48,0,0,1-1.1-.81,4,4,0,0,1-.8-1.41v2.79a9.89,9.89,0,0,1-.43,3,7.21,7.21,0,0,1-1.27,2.43,6.07,6.07,0,0,1-2.09,1.63,6.5,6.5,0,0,1-2.84.59,15.24,15.24,0,0,1-1.57-.07c-.49-.05-.86-.1-1.14-.15l.34-2.92.85.14a4.77,4.77,0,0,0,.78.09l.74,0a3.12,3.12,0,0,0,2.91-1.27,7.61,7.61,0,0,0,.76-3.81V217.39h3v6.74a7.17,7.17,0,0,0,.21,1.72,3.32,3.32,0,0,0,.71,1.4,3.25,3.25,0,0,0,1.31.93,5.44,5.44,0,0,0,2,.33Z"/><path class="cls-2" d="M307.89,231.48c-.56,0-.85-.22-.85-.66V229.4c0-.59.29-.89.85-.89h5.05c.57,0,.85.24.85.7v1.39c0,.59-.28.88-.85.88Z"/><path class="cls-2" d="M312.41,231.48q-.84,0-.84-.66V229.4c0-.59.28-.89.84-.89h5c.57,0,.86.24.86.7v1.39a.77.77,0,0,1-.86.88Z"/><path class="cls-2" d="M316.94,231.48c-.57,0-.85-.22-.85-.66V229.4c0-.59.28-.89.85-.89h5c.57,0,.86.24.86.7v1.39a.77.77,0,0,1-.86.88Z"/><path class="cls-2" d="M321.47,231.48c-.57,0-.86-.22-.86-.66V229.4a.78.78,0,0,1,.86-.89h5c.57,0,.85.24.85.7v1.39c0,.59-.28.88-.85.88Z"/><path class="cls-2" d="M326,231.48c-.57,0-.85-.22-.85-.66V229.4c0-.59.28-.89.85-.89h5c.57,0,.85.24.85.7v1.39c0,.59-.28.88-.85.88Z"/><path class="cls-2" d="M330.51,231.48c-.57,0-.85-.22-.85-.66V229.4c0-.59.28-.89.85-.89h5c.57,0,.86.24.86.7v1.39a.77.77,0,0,1-.86.88Z"/><path class="cls-2" d="M335,231.48c-.57,0-.86-.22-.86-.66V229.4a.78.78,0,0,1,.86-.89h5c.57,0,.85.24.85.7v1.39c0,.59-.28.88-.85.88Z"/><path class="cls-2" d="M339.56,231.48c-.57,0-.86-.22-.86-.66V229.4a.78.78,0,0,1,.86-.89h5c.57,0,.86.24.86.7v1.39a.77.77,0,0,1-.86.88Z"/><path class="cls-2" d="M344.08,231.48c-.57,0-.85-.22-.85-.66V229.4c0-.59.28-.89.85-.89h5c.57,0,.85.24.85.7v1.39c0,.59-.28.88-.85.88Z"/><path class="cls-2" d="M348.61,231.48c-.57,0-.86-.22-.86-.66V229.4a.78.78,0,0,1,.86-.89h3.18a1.91,1.91,0,0,0,1.8-.76,3.91,3.91,0,0,0,.46-2.06v-8.3h3v6.74a7.18,7.18,0,0,0,.2,1.72,3.44,3.44,0,0,0,.71,1.4,3.22,3.22,0,0,0,1.32.93,5.29,5.29,0,0,0,2,.33h.81c.57,0,.86.23.86.66v1.43a.77.77,0,0,1-.86.88h-.93a5.8,5.8,0,0,1-2.85-.66,3.48,3.48,0,0,1-1.64-2.19,5.86,5.86,0,0,1-.9,1.48,3.59,3.59,0,0,1-1.07.86,4.26,4.26,0,0,1-1.25.4,8.93,8.93,0,0,1-1.4.11Zm2.74-21.17a1.71,1.71,0,0,1,1.7-1.7,1.71,1.71,0,1,1-1.2,2.9A1.6,1.6,0,0,1,351.35,210.31Zm4.93,0a1.71,1.71,0,0,1,1.7-1.7,1.71,1.71,0,0,1,0,3.41,1.72,1.72,0,0,1-1.7-1.71Z"/><path class="cls-2" d="M361.5,231.48c-.56,0-.85-.22-.85-.66V229.4c0-.59.29-.89.85-.89h3.2a1.93,1.93,0,0,0,1.79-.76,3.9,3.9,0,0,0,.47-2.06V204.9h3v19.23a6.78,6.78,0,0,0,.21,1.73,3.45,3.45,0,0,0,.7,1.39,3.22,3.22,0,0,0,1.32.93,5.31,5.31,0,0,0,2,.33H375c.57,0,.86.23.86.66v1.43a.77.77,0,0,1-.86.88H374a5.72,5.72,0,0,1-2.85-.66,3.44,3.44,0,0,1-1.64-2.19,6.17,6.17,0,0,1-.91,1.48,3.59,3.59,0,0,1-1.07.86,4.26,4.26,0,0,1-1.25.4,8.83,8.83,0,0,1-1.4.11Z"/><path class="cls-2" d="M374.41,231.48c-.57,0-.86-.22-.86-.66V229.4a.78.78,0,0,1,.86-.89h4.78V204.9h3v26.58Z"/><path class="cls-2" d="M411.84,228.81v2.67H401.1v-2.67h3.74A5.25,5.25,0,0,1,403.3,227a4.89,4.89,0,0,1-.57-2.26,4.83,4.83,0,0,1,1.45-3.56,6,6,0,0,1,4.44-1.44,12.57,12.57,0,0,1,1.34.06,6.38,6.38,0,0,1,1.33.23c-.07.5-.14.93-.22,1.29s-.16.77-.26,1.27a14.91,14.91,0,0,0-1.93-.11,4.83,4.83,0,0,0-2.43.59,2.14,2.14,0,0,0-1,2,3,3,0,0,0,.32,1.33,3.54,3.54,0,0,0,.93,1.2,4.36,4.36,0,0,0,1.55.87,6.5,6.5,0,0,0,2.21.34Z"/><path class="cls-2" d="M414.81,204.9h3v23.61h2.89c.57,0,.85.23.85.66v1.43c0,.59-.28.88-.85.88h-5.86Z"/><path class="cls-2" d="M420.12,231.48c-.57,0-.85-.22-.85-.66V229.4c0-.59.28-.89.85-.89h5c.57,0,.85.24.85.7v1.39c0,.59-.28.88-.85.88Z"/><path class="cls-2" d="M424.63,231.48c-.56,0-.85-.22-.85-.66V229.4c0-.59.29-.89.85-.89h5.05c.56,0,.85.24.85.7v1.39a.77.77,0,0,1-.85.88Z"/><path class="cls-2" d="M429.16,231.48c-.57,0-.86-.22-.86-.66V229.4a.78.78,0,0,1,.86-.89h5c.57,0,.85.24.85.7v1.39c0,.59-.28.88-.85.88Z"/><path class="cls-2" d="M433.68,231.48c-.57,0-.85-.22-.85-.66V229.4c0-.59.28-.89.85-.89h5.05c.56,0,.84.24.84.7v1.39c0,.59-.28.88-.84.88Z"/><path class="cls-2" d="M438.21,231.48c-.57,0-.86-.22-.86-.66V229.4a.78.78,0,0,1,.86-.89h5c.57,0,.85.24.85.7v1.39c0,.59-.28.88-.85.88Z"/><path class="cls-2" d="M442.72,231.48c-.56,0-.85-.22-.85-.66V229.4c0-.59.29-.89.85-.89h5c.57,0,.85.24.85.7v1.39c0,.59-.28.88-.85.88Z"/><path class="cls-2" d="M447.25,231.48c-.57,0-.85-.22-.85-.66V229.4c0-.59.28-.89.85-.89h5c.57,0,.85.24.85.7v1.39c0,.59-.28.88-.85.88Z"/><path class="cls-2" d="M451.78,231.48c-.58,0-.86-.22-.86-.66V229.4c0-.59.28-.89.86-.89h5c.57,0,.85.24.85.7v1.39c0,.59-.28.88-.85.88Z"/><path class="cls-2" d="M456.29,231.48c-.56,0-.85-.22-.85-.66V229.4c0-.59.29-.89.85-.89h5c.56,0,.86.24.86.7v1.39a.77.77,0,0,1-.86.88Z"/><path class="cls-2" d="M460.82,231.48c-.57,0-.85-.22-.85-.66V229.4c0-.59.28-.89.85-.89h5.55V217.43h2.9v5.34a17.87,17.87,0,0,1,2.21-3.45,10.9,10.9,0,0,1,2.41-2.21,8.52,8.52,0,0,1,2.53-1.18,9.69,9.69,0,0,1,2.6-.35,8.1,8.1,0,0,1,3.56.74,7.71,7.71,0,0,1,2.63,2.06,9.23,9.23,0,0,1,1.65,3.05,11.86,11.86,0,0,1,.58,3.77,2.92,2.92,0,0,0,1.06,2.55,5.57,5.57,0,0,0,3.27.76h.34c.57,0,.85.23.85.66v1.43c0,.59-.28.88-.85.88h-.41a7,7,0,0,1-2.95-.57,3.63,3.63,0,0,1-1.83-2.25,5.23,5.23,0,0,1-1.95,2.1,4.92,4.92,0,0,1-2.61.72Zm21.57-3c.89,0,1.46-.23,1.71-.7a5.13,5.13,0,0,0,.37-2.27,7.74,7.74,0,0,0-1.58-5.07,5.37,5.37,0,0,0-4.39-1.93,7.45,7.45,0,0,0-3.45.84,10,10,0,0,0-2.87,2.23,11.82,11.82,0,0,0-2,3.2,10.77,10.77,0,0,0-.89,3.7Zm-5-18.2a1.7,1.7,0,0,1,2.91-1.2,1.67,1.67,0,0,1,0,2.4,1.71,1.71,0,0,1-2.91-1.2Z"/><path class="cls-2" d="M491.59,231.48c-.57,0-.86-.22-.86-.66V229.4a.78.78,0,0,1,.86-.89h5c.57,0,.85.24.85.7v1.39c0,.59-.28.88-.85.88Z"/><path class="cls-2" d="M496.11,231.48c-.56,0-.85-.22-.85-.66V229.4c0-.59.29-.89.85-.89h3.19a1.9,1.9,0,0,0,1.79-.76,3.9,3.9,0,0,0,.47-2.06v-8.3h3v6.74a6.7,6.7,0,0,0,.21,1.72,3.57,3.57,0,0,0,.71,1.4,3.19,3.19,0,0,0,1.31.93,5.33,5.33,0,0,0,2,.33h.82c.57,0,.86.23.86.66v1.43a.77.77,0,0,1-.86.88h-.93a5.77,5.77,0,0,1-2.85-.66,3.44,3.44,0,0,1-1.64-2.19,6.16,6.16,0,0,1-.9,1.48,3.72,3.72,0,0,1-1.07.86,4.36,4.36,0,0,1-1.25.4,9,9,0,0,1-1.41.11Zm2.86,6a1.69,1.69,0,0,1,1.7-1.71,1.62,1.62,0,0,1,1.2.5,1.65,1.65,0,0,1,.51,1.21,1.74,1.74,0,0,1-1.71,1.71,1.65,1.65,0,0,1-1.21-.51A1.63,1.63,0,0,1,499,237.45Zm4.93,0a1.71,1.71,0,0,1,1.7-1.71,1.71,1.71,0,0,1,1.71,1.71,1.72,1.72,0,0,1-1.71,1.71,1.72,1.72,0,0,1-1.7-1.71Z"/><path class="cls-2" d="M509,231.48q-.87,0-.87-.66V229.4a.78.78,0,0,1,.87-.89h3.18a1.94,1.94,0,0,0,1.8-.76,3.91,3.91,0,0,0,.46-2.06v-8.3h3v6.74a6.7,6.7,0,0,0,.21,1.72,3.32,3.32,0,0,0,.71,1.4,3.25,3.25,0,0,0,1.31.93,5.33,5.33,0,0,0,2,.33h.82c.56,0,.85.23.85.66v1.43a.77.77,0,0,1-.85.88h-.93a5.75,5.75,0,0,1-2.85-.66,3.44,3.44,0,0,1-1.64-2.19,6.16,6.16,0,0,1-.9,1.48,3.72,3.72,0,0,1-1.07.86,4.46,4.46,0,0,1-1.25.4,9.06,9.06,0,0,1-1.41.11Zm5.21,6a1.69,1.69,0,0,1,.51-1.21,1.7,1.7,0,0,1,2.41,0,1.68,1.68,0,0,1,.5,1.21,1.71,1.71,0,0,1-3.42,0Z"/><path class="cls-2" d="M521.91,231.48c-.57,0-.85-.22-.85-.66V229.4c0-.59.28-.89.85-.89h4.79V204.9h3v26.58Z"/><path class="cls-2" d="M533.33,204.9h2.86v26.58h-2.86Z"/><path class="cls-2" d="M560.76,231.63a9.89,9.89,0,0,1-.43,3,6.87,6.87,0,0,1-1.27,2.43,6.07,6.07,0,0,1-2.09,1.63,6.52,6.52,0,0,1-2.85.59,15.24,15.24,0,0,1-1.57-.07c-.48-.05-.86-.1-1.13-.15.05-.52.11-1,.19-1.49s.13-1,.18-1.43l.85.14a4.92,4.92,0,0,0,.76.09l.72,0a3.14,3.14,0,0,0,2.92-1.27,7.61,7.61,0,0,0,.76-3.81V217.39h3Z"/><path class="cls-2" d="M564.47,204.9h2.85v26.58h-2.85Z"/><path class="cls-2" d="M588.15,228.51c.57,0,.87.23.87.66v1.43a.78.78,0,0,1-.87.88h-.92a7.74,7.74,0,0,1-1.45-.13,4.31,4.31,0,0,1-1.29-.46,3.22,3.22,0,0,1-1-.95,4.21,4.21,0,0,1-.67-1.57,3.89,3.89,0,0,1-.7,1.41,4.39,4.39,0,0,1-1.11,1,5.4,5.4,0,0,1-1.38.56,6,6,0,0,1-1.44.18h-8.49v-3h8.16a2.15,2.15,0,0,0,1.83-.67,3.5,3.5,0,0,0,.5-2.08c0-1.19,0-2.23-.13-3.12a4.76,4.76,0,0,0-.68-2.2,3.36,3.36,0,0,0-1.64-1.29,8.38,8.38,0,0,0-3-.42h-3v-2.86h3.85a9.23,9.23,0,0,1,3.53.59,5.83,5.83,0,0,1,2.26,1.64,6.32,6.32,0,0,1,1.22,2.46,11.93,11.93,0,0,1,.37,3.08,5.6,5.6,0,0,0,1,3.67,4.05,4.05,0,0,0,3.27,1.2Z"/><path class="cls-2" d="M587.64,231.48c-.57,0-.85-.22-.85-.66V229.4c0-.59.28-.89.85-.89h5c.57,0,.85.24.85.7v1.39c0,.59-.28.88-.85.88Z"/><path class="cls-2" d="M592.16,231.48c-.57,0-.86-.22-.86-.66V229.4a.78.78,0,0,1,.86-.89h5c.58,0,.86.24.86.7v1.39a.77.77,0,0,1-.86.88Z"/><path class="cls-2" d="M596.68,231.48c-.56,0-.85-.22-.85-.66V229.4c0-.59.29-.89.85-.89h5.05c.56,0,.85.24.85.7v1.39a.77.77,0,0,1-.85.88Z"/><path class="cls-2" d="M601.21,231.48c-.58,0-.86-.22-.86-.66V229.4c0-.59.28-.89.86-.89h5c.57,0,.85.24.85.7v1.39c0,.59-.28.88-.85.88Z"/><path class="cls-2" d="M605.73,231.48c-.57,0-.86-.22-.86-.66V229.4a.78.78,0,0,1,.86-.89h5c.57,0,.85.24.85.7v1.39c0,.59-.28.88-.85.88Z"/><path class="cls-2" d="M610.25,231.48c-.56,0-.85-.22-.85-.66V229.4c0-.59.29-.89.85-.89h5c.56,0,.85.24.85.7v1.39a.77.77,0,0,1-.85.88Z"/><path class="cls-2" d="M614.77,231.48c-.57,0-.85-.22-.85-.66V229.4c0-.59.28-.89.85-.89h5.05c.56,0,.84.24.84.7v1.39c0,.59-.28.88-.84.88Z"/><path class="cls-2" d="M619.3,231.48c-.57,0-.85-.22-.85-.66V229.4c0-.59.28-.89.85-.89h5c.57,0,.85.24.85.7v1.39c0,.59-.28.88-.85.88Z"/><path class="cls-2" d="M623.81,231.48c-.56,0-.85-.22-.85-.66V229.4c0-.59.29-.89.85-.89h5.05c.57,0,.85.24.85.7v1.39c0,.59-.28.88-.85.88Z"/><path class="cls-2" d="M628.34,231.48c-.57,0-.85-.22-.85-.66V229.4c0-.59.28-.89.85-.89h4.79V204.9h3v26.58Z"/><path class="cls-2" d="M639.76,204.9h2.86v26.58h-2.86Z"/><path class="cls-1" d="M275.61,178.92c-.65,0-1.29,0-1.91,0s-1.22-.06-1.77-.12v15.38h-7.21V154.8h11.36a45.17,45.17,0,0,1,5,.24,24.66,24.66,0,0,1,3.81.76,12.35,12.35,0,0,1,6.2,3.94,10.65,10.65,0,0,1,2.18,6.88,10.9,10.9,0,0,1-1.18,5.13,10.68,10.68,0,0,1-3.44,3.88,17,17,0,0,1-5.53,2.44A30.24,30.24,0,0,1,275.61,178.92Zm-3.68-6.21c.41.06.94.1,1.58.14s1.3,0,2,0a21.6,21.6,0,0,0,4.88-.47,9.2,9.2,0,0,0,3.18-1.31,4.94,4.94,0,0,0,1.74-2,6.36,6.36,0,0,0,.53-2.6,5.51,5.51,0,0,0-.8-3,5.13,5.13,0,0,0-2.76-2,11.76,11.76,0,0,0-2.55-.52,35.24,35.24,0,0,0-3.72-.16h-4.06Z"/><path class="cls-1" d="M323.25,184.13H308.43l-3.86,10H296.9l15.61-39.35h6.59l15.63,39.35H327.1Zm-7.47-19.86c-1.37,4.12-2.61,7.56-3.68,10.33l-1.35,3.5h10.18l-1.36-3.5q-1.59-4.2-3.67-10.33Z"/><path class="cls-1" d="M357.69,194.15h-7.21V160.83H337.77v-6h32.59v6H357.69Z"/><path class="cls-1" d="M409.59,166.62a10.92,10.92,0,0,1-2.27,7,13.51,13.51,0,0,1-7.06,4.25V178L412,194.15h-8.65l-10.71-15.23h-4.94v15.23h-7.21V154.8h12a41.68,41.68,0,0,1,5.53.34,20.11,20.11,0,0,1,4.38,1,11.35,11.35,0,0,1,5.35,3.93A10.84,10.84,0,0,1,409.59,166.62Zm-18.35,6.27a35.1,35.1,0,0,0,4.19-.22,13.72,13.72,0,0,0,2.9-.66,5.64,5.64,0,0,0,3-2.26,6.32,6.32,0,0,0,.84-3.27,5.8,5.8,0,0,0-.66-2.81,4.49,4.49,0,0,0-2.25-1.93,9.87,9.87,0,0,0-2.59-.69,27.68,27.68,0,0,0-3.85-.22h-5.15v12.06Z"/><path class="cls-1" d="M422.82,194.15V154.8H430v39.35Z"/><path class="cls-1" d="M464.19,183.6q1.31-4.65,3.21-10l6.79-18.83h10.12v39.35h-7.2V174.21q0-4.38.35-10.18h-.26c-.33,1.12-.73,2.38-1.18,3.77s-.92,2.77-1.41,4.12l-8.15,22.23h-4.65l-8.14-22.23c-.5-1.35-1-2.73-1.41-4.12s-.85-2.65-1.18-3.77h-.27q.35,5.44.35,10.16v20H444V154.8H454l6.79,18.74q1.71,4.67,3.21,10.06Z"/><path class="cls-1" d="M534.84,174.48a25.49,25.49,0,0,1-1.28,8.25,18.14,18.14,0,0,1-3.74,6.46,16.79,16.79,0,0,1-6,4.2,22.78,22.78,0,0,1-16.26,0,16.79,16.79,0,0,1-6-4.2,18.29,18.29,0,0,1-3.74-6.46,27.26,27.26,0,0,1,0-16.51,18.33,18.33,0,0,1,3.74-6.45,16.94,16.94,0,0,1,6-4.21,22.78,22.78,0,0,1,16.26,0,16.94,16.94,0,0,1,6,4.21,18.18,18.18,0,0,1,3.74,6.45A25.6,25.6,0,0,1,534.84,174.48Zm-7.45,0a20.15,20.15,0,0,0-.87-6.28,12.72,12.72,0,0,0-2.45-4.49,9.74,9.74,0,0,0-3.7-2.67,12.91,12.91,0,0,0-9.42,0,9.74,9.74,0,0,0-3.7,2.67,12.88,12.88,0,0,0-2.45,4.49,23.1,23.1,0,0,0,0,12.56,12.78,12.78,0,0,0,2.45,4.47,10,10,0,0,0,3.7,2.68,12.77,12.77,0,0,0,9.42,0,10,10,0,0,0,3.7-2.68,12.63,12.63,0,0,0,2.45-4.47A20.15,20.15,0,0,0,527.39,174.48Z"/><path class="cls-1" d="M547,194.15V154.8h7.2v39.35Z"/><path class="cls-1" d="M588.64,173.09q4.25,6,6.89,10.71h.17c-.23-5.12-.35-8.84-.35-11.18V154.8h7.2v39.35H595L582.17,176c-2.25-3.14-4.59-6.78-7-10.92H575c.24,4.83.35,8.56.35,11.21v17.82h-7.2V154.8h7.56Z"/><path class="cls-1" d="M623.7,188.13h19.35v6H616.5V154.8H642v6H623.7V171h15.7v6H623.7Z"/><path class="cls-2" d="M381.58,88.27A27.8,27.8,0,0,1,392.19,82a39.68,39.68,0,0,1,12.48-2q13,0,18.68,5.68T429,102.87v23.28a47.38,47.38,0,0,0,.26,4.81c.16,1.66.37,3.19.61,4.57h-9.3a16.73,16.73,0,0,1-.56-4.11c-.05-1.5-.07-2.84-.07-4h-.24a22.2,22.2,0,0,1-7.64,6.84,23.21,23.21,0,0,1-11.49,2.67,32.72,32.72,0,0,1-8.38-1,21.82,21.82,0,0,1-6.82-3.06,15.54,15.54,0,0,1-4.66-5,13.56,13.56,0,0,1-1.74-6.93q0-6.69,3.73-10.5a22.8,22.8,0,0,1,9.25-5.66,48.27,48.27,0,0,1,11.92-2.31c4.26-.31,8.16-.47,11.73-.47h3.72V100.3q0-6-3.78-9t-10.62-3a30.1,30.1,0,0,0-9.25,1.45,22.46,22.46,0,0,0-8,4.46Zm28.06,21.2q-9.31,0-14.78,2.45c-3.63,1.63-5.46,4.31-5.46,8,0,3.42,1.22,5.84,3.67,7.28a17.68,17.68,0,0,0,9.11,2.15,19,19,0,0,0,7.4-1.33,15.65,15.65,0,0,0,5.27-3.56,15.11,15.11,0,0,0,3.23-5.19,19.69,19.69,0,0,0,1.24-6.35v-3.49Z"/><path class="cls-2" d="M452.29,93.57q0-3.7-.24-6.95c-.18-2.16-.26-4.13-.26-5.91H461c0,1.47,0,2.94.13,4.4s.12,3,.12,4.53h.25a15.34,15.34,0,0,1,2.8-3.83,19.52,19.52,0,0,1,4.28-3.3,23.43,23.43,0,0,1,5.58-2.32,24.81,24.81,0,0,1,6.71-.87A27,27,0,0,1,490.72,81a18.53,18.53,0,0,1,6.89,4.51,18.12,18.12,0,0,1,4,7,29.87,29.87,0,0,1,1.3,9v33.49h-9.68V102.38q0-7-3.24-10.84t-10-3.88a20.07,20.07,0,0,0-8.13,1.51,14.26,14.26,0,0,0-5.6,4.29,18.66,18.66,0,0,0-3.22,6.6,31.9,31.9,0,0,0-1,8.45v26.42h-9.69Z"/><path class="cls-2" d="M570.79,95.47a18.55,18.55,0,0,0-14.66-6.6,21.82,21.82,0,0,0-8.56,1.57,16.22,16.22,0,0,0-6.14,4.34,19,19,0,0,0-3.67,6.43,24,24,0,0,0-1.24,7.82,21.1,21.1,0,0,0,1.43,7.82,20.36,20.36,0,0,0,4,6.43,17.79,17.79,0,0,0,6.14,4.34,20.13,20.13,0,0,0,8.07,1.57q9.55,0,14.77-6.72l7.21,6.37a25.41,25.41,0,0,1-9.93,6.6,36.47,36.47,0,0,1-24.34,0,26.44,26.44,0,0,1-15.58-14.94A29.7,29.7,0,0,1,526.09,109a29.31,29.31,0,0,1,2.17-11.35,26.58,26.58,0,0,1,6.15-9,28.22,28.22,0,0,1,9.5-6,33.43,33.43,0,0,1,12.22-2.14,35.71,35.71,0,0,1,12.23,2.09,26.94,26.94,0,0,1,10.12,6.48Z"/><path class="cls-2" d="M595.36,88.87A27.59,27.59,0,0,1,606,82.56a39.61,39.61,0,0,1,12.47-2q13,0,18.69,5.67t5.65,17.27v23.28c0,1.55.08,3.15.24,4.81s.38,3.19.62,4.58h-9.31a17.84,17.84,0,0,1-.55-4.11c0-1.51-.07-2.84-.07-4h-.25a22,22,0,0,1-7.63,6.83,23.17,23.17,0,0,1-11.48,2.67,32.61,32.61,0,0,1-8.38-1,21.83,21.83,0,0,1-6.84-3.06,15.58,15.58,0,0,1-4.65-5,13.59,13.59,0,0,1-1.74-6.93q0-6.7,3.72-10.51a22.94,22.94,0,0,1,9.26-5.66A48.55,48.55,0,0,1,617.65,103q6.39-.45,11.72-.46h3.73V100.9q0-6-3.78-9c-2.54-2-6.07-3-10.62-3a30,30,0,0,0-9.25,1.45,22.66,22.66,0,0,0-8,4.46Zm28.06,21.2q-9.31,0-14.77,2.45t-5.47,8c0,3.42,1.22,5.84,3.66,7.28A17.75,17.75,0,0,0,616,130a18.84,18.84,0,0,0,7.38-1.34,15.53,15.53,0,0,0,5.28-3.55,15.26,15.26,0,0,0,3.23-5.19,20.07,20.07,0,0,0,1.24-6.35v-3.5Z"/><rect class="cls-2" x="344.41" y="23.29" width="11.01" height="110.23"/><rect class="cls-2" x="263.83" y="4.1" width="9.66" height="42.93"/><path class="cls-2" d="M263.82,46.74h9.68V88h.25A28.28,28.28,0,0,1,283,81.15a27.39,27.39,0,0,1,11.6-2.43,34.89,34.89,0,0,1,12.48,2.15,28,28,0,0,1,9.62,6,27.47,27.47,0,0,1,6.21,9,29.88,29.88,0,0,1,0,22.7,27.59,27.59,0,0,1-15.4,15,30.52,30.52,0,0,1-11.42,2.14,28.51,28.51,0,0,1-13.72-3.19,21.53,21.53,0,0,1-8.62-7.82h-.25v9.62h-9.68Zm9.68,60.48a21.88,21.88,0,0,0,1.42,7.94,18.25,18.25,0,0,0,4.17,6.37,19.87,19.87,0,0,0,6.51,4.28,23.82,23.82,0,0,0,17,0,19.81,19.81,0,0,0,6.52-4.28,18.51,18.51,0,0,0,4.16-6.37,22.88,22.88,0,0,0,0-15.87,18.46,18.46,0,0,0-4.16-6.38,19.81,19.81,0,0,0-6.52-4.28,23.82,23.82,0,0,0-17,0,19.87,19.87,0,0,0-6.51,4.28,18.2,18.2,0,0,0-4.17,6.38A21.79,21.79,0,0,0,273.5,107.22Z"/><path class="cls-2" d="M193.76,209.69l6.46-6.23.63.57v-9.6l-.63.58-6.46-6.24v-6.53h7.09v-5.56h-7.09V165.94h7.09v-8.06H33.55v8h7.69v10.75H33.55v5.54h7.69v6.53l-6.46,6.23-1.23-1.11v10.57l1.23-1.12,6.46,6.24V216H33.55v5.55h7.69v10.75H33.55v7.54h167.3V232.4h-7.09V221.65h7.09v-5.43h-7.09ZM178,165.87h9.38v10.2h-5.86l-6.75-6.58Zm-23.52,0h9.39l3.24,3.61-6.75,6.58h-5.88Zm0,16.28h7.06l8.74-9.08,6.74,6.18v9.07l-5.65,6L164.38,188h-9.95Zm7.3,12.54,4.89,4.61-8.13,8.9v7.89h-4v-7.89l-9.16-9,3.78-4.5Zm-24.47-28.92H148v10.75H137.26Zm-6.34-.08v16.2h17.22v6.55l-6.47,6.22-8-7.27h-6.46v-6.61l-6.59-6.74,7.86-8.35Zm5.38,33.45-4.67,5.25h-4.44V193.57h4.3Zm-13,11.43v4.27l-5.59,4.83L112.49,215v-4.44Zm-10.5-6.15V193.3H123v11.13Zm-.32-16.93V183l5.23-4.64,5.59,4.81v4.29Zm9.34-21.72-4,4.55-4.06-4.55Zm-34.44,0H98.14v10.75H87.39Zm0,16.12h17.23V165.7h2.43l7.88,8.35-6.6,6.74v6.61h-6.45l-8,7.27-6.48-6.22Zm21,11.56v10.82H103.9L99.25,199l4.81-5.58ZM71.48,165.87h9.38v10.21H75l-6.73-6.59Zm-23.58,0h9.38l3.23,3.63-6.73,6.56H47.9Zm0,16.07h9.93l7-6.34,5.66,6v9.05l-6.75,6.19L55,187.8H47.9Zm-9.24,17,3.81-4.5H55.09L60,199l-8.16,8.91v7.89h-4v-7.89ZM57.11,232.4H47.72V222.2H53.6l6.74,6.59Zm23.77,0H71.5l-3.24-3.6L75,222.2h5.87Zm0-16.5h-7L65.11,225l-6.75-6.19v-9L64,203.69l7,6.36h9.93ZM73.76,203.3l-4.9-4.62L77,189.79v-7.91h4v7.91l9.16,9-3.8,4.5Zm24.38,28.94H87.4V221.51H98.14Zm6.48-.07V216H87.39v-6.55l6.48-6.22,8,7.28h6.45v6.61l6.6,6.74-7.88,8.35Zm9,.21,4.06-4.52,4,4.52Zm34.42-.07H137.31V221.58h10.75Zm.08-16.24H130.92v16.2h-2.44l-7.86-8.33,6.59-6.76v-6.6h6.46l8-7.28,6.47,6.23Zm15.68,16.24h-9.39V222.12h5.88l6.75,6.56Zm23.51,0H178l-3.23-3.63,6.75-6.56h5.86Zm0-16.3H177.4l-6.94,6.34-5.66-6v-9.06l6.74-6.17,8.75,9.06h7Zm5.58-12.42H180.3l-4.91-4.6,8.15-8.91v-7.89h4v7.89l9.21,9Z"/></g></g></svg>