<svg xmlns="http://www.w3.org/2000/svg" viewBox="0 0 824.12 390.5"><defs><style>.cls-1{fill:#fff;}.cls-2{fill:#98a6d4;}</style></defs><g id="Layer_2" data-name="Layer 2"><g id="Calque_1" data-name="Calque 1"><path class="cls-1" d="M117.77,40.21h10.41l22,51.68h-11.8l-4.69-11.51H112l-4.69,11.51H95.78Zm11.88,30.2-6.82-16.64L116,70.41Z"/><path class="cls-1" d="M169,51H153.4V40.57h42.51V51H180.3V91.89H169Z"/><path class="cls-1" d="M203.54,40.57h11.29V60.88h20.82V40.57h11.28V91.89H235.65V71.29H214.83v20.6H203.54Z"/><path class="cls-1" d="M254.34,59.56c5.06-.51,7.55-3.08,7.18-7.26H257V40.57h11.87v9.9c0,9.68-4.84,13.56-13.56,13.71Z"/><path class="cls-1" d="M295.75,40.21h10.41l22,51.68H316.35l-4.69-11.51H290l-4.69,11.51H273.76Zm11.88,30.2-6.82-16.64L294,70.41Z"/><path class="cls-1" d="M335,40.57H358.5c6.53,0,11.58,1.84,15,5.21,2.85,2.86,4.39,6.89,4.39,11.73v.14c0,8.29-4.47,13.49-11,15.91l12.53,18.33H366.2l-11-16.42h-8.87V91.89H335ZM357.77,65.5c5.5,0,8.65-2.93,8.65-7.26v-.15c0-4.83-3.37-7.33-8.87-7.33H346.33V65.5Z"/><path class="cls-1" d="M399,51H383.35V40.57h42.52V51H410.25V91.89H399Z"/><path class="cls-1" d="M429.24,99.14c5.06-.51,7.55-3.07,7.18-7.25h-4.54V80.16h11.87v9.89c0,9.68-4.83,13.57-13.56,13.71Z"/><path class="cls-1" d="M473.73,38.38h11.15V91.89H473.73Z"/><path class="cls-1" d="M491.62,59.56c5.06-.51,7.55-3.08,7.18-7.26h-4.54V40.57h11.87v9.9c0,9.68-4.84,13.56-13.56,13.71Z"/><path class="cls-1" d="M514.49,38.38h11.73v9.89H514.49Zm.29,14.22h11.14V91.89H514.78Z"/><path class="cls-1" d="M535.38,52.6h11.14v5.57c2.57-3.3,5.87-6.31,11.51-6.31,8.43,0,13.34,5.57,13.34,14.59V91.89H560.23V70c0-5.28-2.49-8-6.74-8s-7,2.71-7,8V91.89H535.38Z"/><path class="cls-1" d="M580.24,38.38H592v9.89H580.24Zm.29,14.22h11.15V91.89H580.53Z"/><path class="cls-1" d="M603,80.74V62.13h-4.69V52.6H603V42.55h11.15V52.6h9.23v9.53h-9.23V78.91c0,2.57,1.1,3.81,3.59,3.81a11.36,11.36,0,0,0,5.5-1.39v8.94a16.38,16.38,0,0,1-8.8,2.28C607.58,92.55,603,89.83,603,80.74Z"/><path class="cls-1" d="M630.74,38.38h11.73v9.89H630.74ZM631,52.6h11.14V91.89H631Z"/><path class="cls-1" d="M649.29,80.6v-.15c0-8.57,6.53-12.53,15.83-12.53a28.05,28.05,0,0,1,9.61,1.61v-.66c0-4.62-2.86-7.18-8.43-7.18a28.89,28.89,0,0,0-10.85,2.12l-2.79-8.5a34.64,34.64,0,0,1,15.25-3.15c6.08,0,10.48,1.61,13.27,4.39,2.93,2.94,4.25,7.26,4.25,12.54v22.8H674.65V87.63a15.09,15.09,0,0,1-11.87,5C655.37,92.62,649.29,88.37,649.29,80.6ZM674.87,78v-2a17.22,17.22,0,0,0-7.11-1.46c-4.76,0-7.69,1.9-7.69,5.42v.15c0,3,2.49,4.76,6.08,4.76C671.36,84.92,674.87,82.06,674.87,78Z"/><path class="cls-1" d="M695.84,80.74V62.13h-4.69V52.6h4.69V42.55H707V52.6h9.24v9.53H707V78.91c0,2.57,1.1,3.81,3.59,3.81a11.33,11.33,0,0,0,5.5-1.39v8.94a16.38,16.38,0,0,1-8.8,2.28C700.46,92.55,695.84,89.83,695.84,80.74Z"/><path class="cls-1" d="M723.62,38.38h11.73v9.89H723.62Zm.29,14.22h11.14V91.89H723.91Z"/><path class="cls-1" d="M741,52.6h11.8l8.8,26.31,8.87-26.31H782L766.58,92.18H756.46Z"/><path class="cls-1" d="M785.56,72.46v-.15c0-11.21,8-20.45,19.43-20.45,13.12,0,19.13,10.19,19.13,21.33,0,.88-.08,1.91-.15,2.94H796.63c1.1,5.05,4.62,7.69,9.6,7.69,3.74,0,6.45-1.17,9.53-4l6.38,5.65c-3.67,4.54-8.94,7.33-16.06,7.33C794.28,92.77,785.56,84.48,785.56,72.46Zm27.71-3.3c-.66-5-3.59-8.35-8.28-8.35s-7.63,3.29-8.51,8.35Z"/><path class="cls-1" d="M97.25,160.28v-.15c0-13.12,8.58-20.3,17.89-20.3a15.1,15.1,0,0,1,12.24,5.86V126.34h11.14v53.51H127.38v-5.64a14.44,14.44,0,0,1-12.24,6.37C106,180.58,97.25,173.4,97.25,160.28Zm30.27,0v-.15c0-6.52-4.32-10.85-9.53-10.85s-9.6,4.26-9.6,10.85v.15c0,6.52,4.4,10.85,9.6,10.85S127.52,166.8,127.52,160.28Z"/><path class="cls-1" d="M145.56,160.43v-.15c0-11.22,8-20.45,19.42-20.45,13.12,0,19.13,10.19,19.13,21.33,0,.88-.07,1.91-.14,2.93H156.62c1.1,5.06,4.62,7.7,9.61,7.7,3.74,0,6.45-1.17,9.53-4l6.37,5.64c-3.66,4.55-8.94,7.33-16,7.33C154.28,180.73,145.56,172.45,145.56,160.43Zm27.7-3.3c-.65-5-3.59-8.36-8.28-8.36s-7.62,3.3-8.5,8.36Z"/><path class="cls-1" d="M210.58,160.28v-.15c0-13.12,8.57-20.3,17.88-20.3a15.09,15.09,0,0,1,12.24,5.86V126.34h11.14v53.51H240.7v-5.64a14.43,14.43,0,0,1-12.24,6.37C219.3,180.58,210.58,173.4,210.58,160.28Zm30.27,0v-.15c0-6.52-4.33-10.85-9.53-10.85s-9.6,4.26-9.6,10.85v.15c0,6.52,4.4,10.85,9.6,10.85S240.85,166.8,240.85,160.28Z"/><path class="cls-1" d="M258.88,160.43v-.15c0-11.22,8-20.45,19.43-20.45,13.12,0,19.13,10.19,19.13,21.33,0,.88-.07,1.91-.15,2.93H270c1.1,5.06,4.62,7.7,9.6,7.7,3.74,0,6.45-1.17,9.53-4l6.38,5.64c-3.67,4.55-8.94,7.33-16,7.33C267.6,180.73,258.88,172.45,258.88,160.43Zm27.71-3.3c-.66-5-3.59-8.36-8.28-8.36s-7.63,3.3-8.51,8.36Zm-4.69-33.87,9.6,4.18-9.53,8.8h-8.21Z"/><path class="cls-1" d="M301.18,140.56H313l8.8,26.32,8.86-26.32h11.59l-15.47,39.58H316.64Z"/><path class="cls-1" d="M345.74,160.43v-.15c0-11.22,8-20.45,19.43-20.45,13.12,0,19.13,10.19,19.13,21.33,0,.88-.07,1.91-.14,2.93H356.81c1.1,5.06,4.62,7.7,9.61,7.7,3.73,0,6.45-1.17,9.53-4l6.37,5.64c-3.66,4.55-8.94,7.33-16.05,7.33C354.47,180.73,345.74,172.45,345.74,160.43Zm27.71-3.3c-.66-5-3.59-8.36-8.28-8.36s-7.62,3.3-8.5,8.36Z"/><path class="cls-1" d="M392.07,126.34h11.14v53.51H392.07Z"/><path class="cls-1" d="M410.76,160.43v-.15c0-11.29,9.09-20.45,21.34-20.45s21.18,9,21.18,20.3v.15c0,11.29-9.09,20.45-21.33,20.45S410.76,171.71,410.76,160.43Zm31.52,0v-.15c0-5.79-4.17-10.85-10.33-10.85-6.38,0-10.19,4.91-10.19,10.7v.15c0,5.79,4.18,10.85,10.34,10.85C438.47,171.13,442.28,166.22,442.28,160.43Z"/><path class="cls-1" d="M460.32,140.56h11.14v5.65a14.41,14.41,0,0,1,12.24-6.38c9.16,0,17.89,7.18,17.89,20.3v.15c0,13.12-8.58,20.3-17.89,20.3a15.09,15.09,0,0,1-12.24-5.86v16.86H460.32Zm30.12,19.72v-.15c0-6.52-4.39-10.85-9.6-10.85s-9.53,4.33-9.53,10.85v.15c0,6.52,4.33,10.85,9.53,10.85S490.44,166.88,490.44,160.28Z"/><path class="cls-1" d="M508.77,140.56h11.14v5.65a14.41,14.41,0,0,1,12.24-6.38c9.17,0,17.89,7.18,17.89,20.3v.15c0,13.12-8.58,20.3-17.89,20.3a15.09,15.09,0,0,1-12.24-5.86v16.86H508.77Zm30.13,19.72v-.15c0-6.52-4.4-10.85-9.61-10.85s-9.53,4.33-9.53,10.85v.15c0,6.52,4.33,10.85,9.53,10.85S538.9,166.88,538.9,160.28Z"/><path class="cls-1" d="M555.32,160.43v-.15c0-11.22,8-20.45,19.42-20.45,13.12,0,19.13,10.19,19.13,21.33,0,.88-.07,1.91-.14,2.93H566.38c1.1,5.06,4.62,7.7,9.61,7.7,3.74,0,6.45-1.17,9.53-4l6.37,5.64c-3.66,4.55-8.94,7.33-16,7.33C564,180.73,555.32,172.45,555.32,160.43Zm27.7-3.3c-.65-5-3.59-8.36-8.28-8.36s-7.62,3.3-8.5,8.36Z"/><path class="cls-1" d="M601.13,140.56h11.14v5.57c2.57-3.3,5.94-6.3,11.58-6.3,5.14,0,9,2.27,11.07,6.23,3.45-4,7.55-6.23,12.9-6.23,8.29,0,13.27,5,13.27,14.44v25.58H650V157.93c0-5.27-2.35-8-6.52-8s-6.75,2.72-6.75,8v21.92H625.54V157.93c0-5.27-2.35-8-6.52-8s-6.75,2.72-6.75,8v21.92H601.13Z"/><path class="cls-1" d="M667.84,160.43v-.15c0-11.22,8-20.45,19.42-20.45,13.12,0,19.13,10.19,19.13,21.33,0,.88-.07,1.91-.14,2.93H678.91c1.09,5.06,4.61,7.7,9.6,7.7,3.74,0,6.45-1.17,9.53-4l6.37,5.64c-3.66,4.55-8.94,7.33-16,7.33C676.56,180.73,667.84,172.45,667.84,160.43Zm27.7-3.3c-.65-5-3.59-8.36-8.28-8.36s-7.62,3.3-8.5,8.36Z"/><path class="cls-1" d="M713.65,140.56h11.14v5.57c2.57-3.3,5.87-6.3,11.51-6.3,8.43,0,13.34,5.57,13.34,14.59v25.43H738.5V157.93c0-5.27-2.49-8-6.74-8s-7,2.72-7,8v21.92H713.65Z"/><path class="cls-1" d="M760.12,168.71V150.09h-4.69v-9.53h4.69v-10h11.15v10h9.23v9.53h-9.23v16.79c0,2.56,1.1,3.81,3.59,3.81a11.36,11.36,0,0,0,5.5-1.39v8.94a16.47,16.47,0,0,1-8.8,2.27C764.74,180.51,760.12,177.8,760.12,168.71Z"/><path class="cls-1" d="M97.25,248.24v-.14c0-13.12,8.58-20.31,17.89-20.31a15.08,15.08,0,0,1,12.24,5.87V214.3h11.14v53.52H127.38v-5.65c-2.72,3.67-6.45,6.38-12.24,6.38C106,268.55,97.25,261.37,97.25,248.24Zm30.27,0v-.14c0-6.53-4.32-10.85-9.53-10.85s-9.6,4.25-9.6,10.85v.14c0,6.53,4.4,10.85,9.6,10.85S127.52,254.77,127.52,248.24Z"/><path class="cls-1" d="M147.17,254V228.53h11.14v21.91c0,5.28,2.49,8,6.74,8s7-2.71,7-8V228.53h11.14v39.29H172v-5.57c-2.57,3.29-5.87,6.3-11.51,6.3C152.08,268.55,147.17,263,147.17,254Z"/><path class="cls-1" d="M214.24,216.5h21c12.25,0,19.65,7.26,19.65,17.74v.15c0,11.88-9.24,18-20.75,18h-8.57v15.4H214.24Zm20.23,25.88c5.65,0,8.94-3.37,8.94-7.77v-.15c0-5.05-3.51-7.77-9.16-7.77h-8.72v15.69Z"/><path class="cls-1" d="M258.66,256.53v-.15c0-8.58,6.53-12.53,15.84-12.53a28,28,0,0,1,9.6,1.61v-.66c0-4.62-2.86-7.18-8.43-7.18a28.89,28.89,0,0,0-10.85,2.12l-2.79-8.5a34.64,34.64,0,0,1,15.25-3.15c6.09,0,10.48,1.61,13.27,4.39,2.93,2.94,4.25,7.26,4.25,12.54v22.8H284v-4.26a15.12,15.12,0,0,1-11.88,5C264.75,268.55,258.66,264.3,258.66,256.53ZM284.24,254v-2a17.22,17.22,0,0,0-7.11-1.46c-4.76,0-7.69,1.9-7.69,5.42v.15c0,3,2.49,4.76,6.08,4.76C280.73,260.85,284.24,258,284.24,254Z"/><path class="cls-1" d="M305.21,256.67V238.06h-4.69v-9.53h4.69V218.48h11.14v10.05h9.24v9.53h-9.24v16.78c0,2.57,1.1,3.81,3.59,3.81a11.31,11.31,0,0,0,5.5-1.39v8.94a16.34,16.34,0,0,1-8.79,2.28C309.83,268.48,305.21,265.76,305.21,256.67Z"/><path class="cls-1" d="M332.77,228.53h11.14v7.91c2.28-5.42,5.94-8.94,12.54-8.65v11.66h-.59c-7.4,0-11.95,4.47-11.95,13.85v14.52H332.77Z"/><path class="cls-1" d="M362.61,214.3h11.72v9.9H362.61Zm.29,14.23H374v39.29H362.9Z"/><path class="cls-1" d="M383.5,228.53h11.14v5.57c2.56-3.3,5.94-6.31,11.58-6.31,5.13,0,9,2.28,11.07,6.23,3.44-4,7.55-6.23,12.9-6.23,8.28,0,13.27,5,13.27,14.44v25.59H432.32V245.9c0-5.28-2.35-8-6.53-8s-6.74,2.71-6.74,8v21.92H407.91V245.9c0-5.28-2.35-8-6.53-8s-6.74,2.71-6.74,8v21.92H383.5Z"/><path class="cls-1" d="M450.2,248.39v-.15c0-11.28,9.09-20.45,21.33-20.45s21.19,9,21.19,20.31v.14c0,11.29-9.09,20.46-21.33,20.46S450.2,259.68,450.2,248.39Zm31.52,0v-.15c0-5.79-4.18-10.84-10.33-10.84-6.38,0-10.19,4.91-10.19,10.7v.14c0,5.8,4.18,10.85,10.33,10.85C477.91,259.09,481.72,254.18,481.72,248.39Z"/><path class="cls-1" d="M500,214.3H511.7v9.9H500Zm.3,14.23h11.14v39.29H500.27Z"/><path class="cls-1" d="M520.87,228.53H532v5.57c2.56-3.3,5.86-6.31,11.51-6.31,8.43,0,13.34,5.57,13.34,14.59v25.44H545.71V245.9c0-5.28-2.49-8-6.74-8s-7,2.71-7,8v21.92H520.87Z"/><path class="cls-1" d="M563.6,248.39v-.15c0-11.21,8-20.45,19.43-20.45,13.12,0,19.13,10.19,19.13,21.33,0,.88-.08,1.91-.15,2.94H574.67c1.1,5.05,4.62,7.69,9.6,7.69,3.74,0,6.45-1.17,9.53-4l6.38,5.65c-3.67,4.54-8.94,7.33-16.06,7.33C572.32,268.7,563.6,260.41,563.6,248.39Zm27.71-3.3c-.66-5-3.59-8.35-8.28-8.35s-7.63,3.29-8.51,8.35Z"/><path class="cls-1" d="M630.38,228.53h11.14v5.64a14.41,14.41,0,0,1,12.24-6.38c9.17,0,17.89,7.19,17.89,20.31v.14c0,13.13-8.58,20.31-17.89,20.31a15.1,15.1,0,0,1-12.24-5.86v16.85H630.38Zm30.13,19.71v-.14c0-6.53-4.4-10.85-9.61-10.85s-9.53,4.32-9.53,10.85v.14c0,6.53,4.33,10.85,9.53,10.85S660.51,254.84,660.51,248.24Z"/><path class="cls-1" d="M676.49,256.53v-.15c0-8.58,6.52-12.53,15.83-12.53a28,28,0,0,1,9.6,1.61v-.66c0-4.62-2.86-7.18-8.43-7.18a28.93,28.93,0,0,0-10.85,2.12l-2.78-8.5a34.58,34.58,0,0,1,15.25-3.15c6.08,0,10.48,1.61,13.26,4.39,2.94,2.94,4.25,7.26,4.25,12.54v22.8H701.85v-4.26c-2.71,3-6.45,5-11.88,5C682.57,268.55,676.49,264.3,676.49,256.53ZM702.07,254v-2a17.29,17.29,0,0,0-7.11-1.46c-4.77,0-7.7,1.9-7.7,5.42v.15c0,3,2.49,4.76,6.09,4.76C698.55,260.85,702.07,258,702.07,254Z"/><path class="cls-1" d="M721.2,228.53h11.14v7.91c2.28-5.42,5.94-8.94,12.54-8.65v11.66h-.59c-7.4,0-11.95,4.47-11.95,13.85v14.52H721.2Z"/><path class="cls-1" d="M99.52,302.27h11.14v53.51H99.52Z"/><path class="cls-1" d="M117.77,344.49v-.15c0-8.57,6.53-12.53,15.84-12.53a28,28,0,0,1,9.6,1.61v-.66c0-4.62-2.86-7.18-8.43-7.18a28.9,28.9,0,0,0-10.85,2.13l-2.78-8.51a34.7,34.7,0,0,1,15.24-3.15c6.09,0,10.48,1.61,13.27,4.4s4.25,7.26,4.25,12.53v22.8H143.14v-4.25a15.14,15.14,0,0,1-11.88,5C123.86,356.51,117.77,352.26,117.77,344.49Zm25.59-2.56v-2a17.29,17.29,0,0,0-7.11-1.47c-4.77,0-7.7,1.91-7.7,5.43v.14c0,3,2.49,4.77,6.08,4.77C139.84,348.82,143.36,346,143.36,341.93Z"/><path class="cls-1" d="M181.55,336.35v-.14a20.16,20.16,0,0,1,20.59-20.45c7.41,0,12,2.49,15.69,6.59L211,329.68c-2.49-2.64-5-4.32-8.94-4.32-5.57,0-9.53,4.91-9.53,10.7v.15c0,6,3.89,10.85,10,10.85,3.74,0,6.31-1.62,9-4.18l6.52,6.6c-3.81,4.17-8.21,7.18-16.05,7.18A20.06,20.06,0,0,1,181.55,336.35Z"/><path class="cls-1" d="M224.28,316.49h11.15v7.92c2.27-5.43,5.93-9,12.53-8.65v11.65h-.59c-7.4,0-11.94,4.47-11.94,13.86v14.51H224.28Z"/><path class="cls-1" d="M252,336.35v-.14c0-11.22,8-20.45,19.43-20.45,13.12,0,19.13,10.19,19.13,21.33,0,.88-.07,1.9-.15,2.93H263.06c1.1,5.06,4.62,7.7,9.6,7.7,3.74,0,6.45-1.18,9.53-4l6.38,5.64c-3.66,4.54-8.94,7.33-16.05,7.33C260.71,356.66,252,348.38,252,336.35Zm27.71-3.29c-.66-5-3.59-8.36-8.28-8.36s-7.63,3.3-8.51,8.36ZM275,299.19l9.6,4.18-9.53,8.8h-8.21Z"/><path class="cls-1" d="M295.46,344.49v-.15c0-8.57,6.52-12.53,15.83-12.53a28.05,28.05,0,0,1,9.61,1.61v-.66c0-4.62-2.86-7.18-8.43-7.18a28.86,28.86,0,0,0-10.85,2.13l-2.79-8.51a34.78,34.78,0,0,1,15.25-3.15c6.08,0,10.48,1.61,13.27,4.4s4.25,7.26,4.25,12.53v22.8H320.82v-4.25a15.11,15.11,0,0,1-11.87,5C301.54,356.51,295.46,352.26,295.46,344.49ZM321,341.93v-2a17.25,17.25,0,0,0-7.11-1.47c-4.76,0-7.69,1.91-7.69,5.43v.14c0,3,2.49,4.77,6.08,4.77C317.52,348.82,321,346,321,341.93Z"/><path class="cls-1" d="M342,344.64V326h-4.69v-9.53H342v-10h11.14v10h9.24V326h-9.24v16.79c0,2.56,1.1,3.81,3.59,3.81a11.34,11.34,0,0,0,5.5-1.4v8.95a16.47,16.47,0,0,1-8.8,2.27C346.63,356.44,342,353.73,342,344.64Z"/><path class="cls-1" d="M369.79,302.27h11.73v9.9H369.79Zm.29,14.22h11.14v39.29H370.08Z"/><path class="cls-1" d="M387.16,316.49H399l8.8,26.32,8.87-26.32h11.58l-15.47,39.58H402.63Z"/><path class="cls-1" d="M433.86,302.27h11.72v9.9H433.86Zm.29,14.22h11.14v39.29H434.15Z"/><path class="cls-1" d="M456.58,344.64V326h-4.69v-9.53h4.69v-10h11.14v10H477V326h-9.24v16.79c0,2.56,1.1,3.81,3.59,3.81a11.31,11.31,0,0,0,5.5-1.4v8.95a16.47,16.47,0,0,1-8.8,2.27C461.2,356.44,456.58,353.73,456.58,344.64Z"/><path class="cls-1" d="M482.24,336.35v-.14c0-11.22,8-20.45,19.42-20.45,13.12,0,19.13,10.19,19.13,21.33,0,.88-.07,1.9-.14,2.93H493.3c1.1,5.06,4.62,7.7,9.61,7.7,3.73,0,6.45-1.18,9.53-4l6.37,5.64c-3.66,4.54-8.94,7.33-16,7.33C491,356.66,482.24,348.38,482.24,336.35Zm27.7-3.29c-.66-5-3.59-8.36-8.28-8.36s-7.62,3.3-8.5,8.36Zm-4.69-33.87,9.6,4.18-9.52,8.8h-8.21Z"/><path class="cls-2" d="M549,378.66c12.91-1.31,19.28-7.89,18.34-18.6h-11.6V330h30.31v25.36c0,24.8-12.35,34.76-34.62,35.14Zm47.53,0c12.91-1.31,19.28-7.89,18.34-18.6h-11.6V330h30.31v25.36c0,24.8-12.35,34.76-34.62,35.14Z"/><path class="cls-2" d="M84.58,11.84c-12.91,1.31-19.27,7.89-18.33,18.6h11.6V60.5H47.53V35.13C47.53,10.33,59.88.38,82.15,0Zm-47.53,0c-12.91,1.31-19.27,7.89-18.34,18.6H30.32V60.5H0V35.13C0,10.33,12.35.38,34.62,0Z"/></g></g></svg>