<svg xmlns="http://www.w3.org/2000/svg" viewBox="0 0 801.29 32.98"><defs><style>.cls-1{fill:#f2f2f2;}.cls-2{fill:#fff;}.cls-3{fill:none;stroke:#fff;stroke-miterlimit:10;stroke-width:0.31px;}</style></defs><g id="Layer_2" data-name="Layer 2"><g id="Calque_1" data-name="Calque 1"><path class="cls-1" d="M7.09,16.23a1.68,1.68,0,0,0-.56-1.29,5.25,5.25,0,0,0-2-.9,8.3,8.3,0,0,1-3.13-1.47A3,3,0,0,1,.31,10.18,3.13,3.13,0,0,1,1.52,7.67a4.83,4.83,0,0,1,3.12-1A4.73,4.73,0,0,1,7.91,7.78a3.37,3.37,0,0,1,1.18,2.71l0,0h-2A2,2,0,0,0,6.39,9a2.59,2.59,0,0,0-1.77-.58A2.4,2.4,0,0,0,3,8.87a1.63,1.63,0,0,0-.57,1.3A1.45,1.45,0,0,0,3,11.37a6.94,6.94,0,0,0,2.09.89,7.23,7.23,0,0,1,3,1.51,3.15,3.15,0,0,1,1,2.45A3,3,0,0,1,8,18.72a5.19,5.19,0,0,1-3.22.93,5.61,5.61,0,0,1-3.35-1A3.22,3.22,0,0,1,0,15.75l0-.05H2a2,2,0,0,0,.79,1.71A3.16,3.16,0,0,0,4.74,18a2.76,2.76,0,0,0,1.73-.47A1.52,1.52,0,0,0,7.09,16.23Z"/><path class="cls-1" d="M17,18.09a3.1,3.1,0,0,1-1.11,1.16,3,3,0,0,1-1.57.4,2.92,2.92,0,0,1-2.35-1,4.64,4.64,0,0,1-.85-3.08V10.11h2.09V15.6a3.11,3.11,0,0,0,.39,1.84,1.46,1.46,0,0,0,1.22.5,2.71,2.71,0,0,0,1.27-.27,2,2,0,0,0,.81-.8V10.11H19v9.36h-1.8Z"/><path class="cls-1" d="M23.41,7.81h-2.1V6h2.1Zm0,11.66h-2.1V10.11h2.1Z"/><path class="cls-1" d="M29,16.3l.16.76h.05l.16-.76,1.87-6.19h2.17L30.1,19.47H28.28l-3.34-9.36h2.17Z"/><path class="cls-1" d="M38.61,19.65a4.08,4.08,0,0,1-3.2-1.29A4.85,4.85,0,0,1,34.25,15v-.34a5,5,0,0,1,1.16-3.4,3.75,3.75,0,0,1,3-1.33,3.47,3.47,0,0,1,2.85,1.17,4.67,4.67,0,0,1,1,3.11v1.13H36.42v.05a3,3,0,0,0,.6,1.86,2.07,2.07,0,0,0,1.72.72,5,5,0,0,0,1.49-.2,4.12,4.12,0,0,0,1.16-.6l.69,1.37a4.25,4.25,0,0,1-1.42.79A5.83,5.83,0,0,1,38.61,19.65Zm-.22-8a1.65,1.65,0,0,0-1.32.59,2.94,2.94,0,0,0-.61,1.55l0,0h3.66v-.16a2.36,2.36,0,0,0-.42-1.46A1.57,1.57,0,0,0,38.39,11.62Z"/><path class="cls-1" d="M46.15,17.79h5v1.68h-7.6V18.09l4.72-6.29H43.64V10.11h7.29v1.33Z"/><path class="cls-1" d="M59.22,10.11l.12,1.35a3.27,3.27,0,0,1,1.16-1.12,3.06,3.06,0,0,1,1.57-.41,2.94,2.94,0,0,1,2.28.9,4.13,4.13,0,0,1,.82,2.82v5.82H63.06V13.66a2.3,2.3,0,0,0-.42-1.55,1.68,1.68,0,0,0-1.28-.46,2.52,2.52,0,0,0-1.17.26,2.08,2.08,0,0,0-.79.71v6.85H57.3V10.11Z"/><path class="cls-1" d="M67,14.7a5.09,5.09,0,0,1,1.14-3.43,4.38,4.38,0,0,1,6.31,0,5.09,5.09,0,0,1,1.14,3.43v.18a5.08,5.08,0,0,1-1.14,3.44,4.41,4.41,0,0,1-6.31,0A5.1,5.1,0,0,1,67,14.88Zm2.1.18a4.17,4.17,0,0,0,.54,2.24,2,2,0,0,0,3.31,0,4.14,4.14,0,0,0,.55-2.23V14.7a4.14,4.14,0,0,0-.55-2.21,1.84,1.84,0,0,0-1.67-.87,1.8,1.8,0,0,0-1.64.87,4.14,4.14,0,0,0-.54,2.21Z"/><path class="cls-1" d="M83.24,18.09a3.26,3.26,0,0,1-1.11,1.16,3,3,0,0,1-1.57.4,2.94,2.94,0,0,1-2.36-1,4.7,4.7,0,0,1-.85-3.08V10.11h2.1V15.6a3.11,3.11,0,0,0,.39,1.84,1.44,1.44,0,0,0,1.21.5,2.75,2.75,0,0,0,1.28-.27,2.08,2.08,0,0,0,.81-.8V10.11h2.1v9.36H83.43Z"/><path class="cls-1" d="M92.7,16.91a1,1,0,0,0-.41-.8,4.33,4.33,0,0,0-1.56-.57,6.33,6.33,0,0,1-2.52-1,2.09,2.09,0,0,1-.88-1.77,2.55,2.55,0,0,1,1-2A3.92,3.92,0,0,1,91,9.93a4.11,4.11,0,0,1,2.71.86,2.52,2.52,0,0,1,1,2.08l0,.05h-2a1.31,1.31,0,0,0-.45-1,1.69,1.69,0,0,0-1.2-.42,1.73,1.73,0,0,0-1.16.34,1.13,1.13,0,0,0-.4.85.91.91,0,0,0,.38.76A4,4,0,0,0,91.3,14a6.37,6.37,0,0,1,2.59,1,2.15,2.15,0,0,1,.88,1.8,2.49,2.49,0,0,1-1,2.06,4.38,4.38,0,0,1-2.75.8,4.24,4.24,0,0,1-2.89-.93,2.67,2.67,0,0,1-1-2.15l0-.05h2a1.43,1.43,0,0,0,.59,1.19,2.43,2.43,0,0,0,1.35.37,2.12,2.12,0,0,0,1.25-.32A1,1,0,0,0,92.7,16.91Z"/><path class="cls-1" d="M106.33,16.91a1,1,0,0,0-.41-.8,4.26,4.26,0,0,0-1.55-.57,6.32,6.32,0,0,1-2.53-1,2.11,2.11,0,0,1-.87-1.77,2.54,2.54,0,0,1,1-2,3.92,3.92,0,0,1,2.62-.84,4.11,4.11,0,0,1,2.71.86,2.52,2.52,0,0,1,1,2.08l0,.05h-2a1.31,1.31,0,0,0-.45-1,1.7,1.7,0,0,0-1.21-.42,1.75,1.75,0,0,0-1.16.34,1.12,1.12,0,0,0-.39.85.9.9,0,0,0,.37.76,4.11,4.11,0,0,0,1.53.51,6.48,6.48,0,0,1,2.6,1,2.16,2.16,0,0,1,.87,1.8,2.49,2.49,0,0,1-1,2.06,4.36,4.36,0,0,1-2.75.8,4.19,4.19,0,0,1-2.88-.93,2.65,2.65,0,0,1-1-2.15l0-.05h2a1.43,1.43,0,0,0,.58,1.19,2.44,2.44,0,0,0,1.36.37,2.16,2.16,0,0,0,1.25-.32A1,1,0,0,0,106.33,16.91Z"/><path class="cls-1" d="M116.13,18.09A3.26,3.26,0,0,1,115,19.25a3,3,0,0,1-1.57.4,2.94,2.94,0,0,1-2.36-1,4.7,4.7,0,0,1-.85-3.08V10.11h2.1V15.6a3.11,3.11,0,0,0,.39,1.84,1.44,1.44,0,0,0,1.21.5,2.75,2.75,0,0,0,1.28-.27,2.08,2.08,0,0,0,.81-.8V10.11h2.1v9.36h-1.81Z"/><path class="cls-1" d="M125,12l-.9,0a1.8,1.8,0,0,0-1,.26,1.63,1.63,0,0,0-.64.73v6.51h-2.1V10.11h1.92l.14,1.35a3,3,0,0,1,.91-1.12,2.13,2.13,0,0,1,1.29-.41,2,2,0,0,1,.35,0l.3.08Z"/><path class="cls-2" d="M325.79,0A16.76,16.76,0,0,1,337,4.34a15.71,15.71,0,0,1,5.08,9,15.79,15.79,0,0,1-3,13,16.19,16.19,0,0,1-8.81,6A16.55,16.55,0,0,1,317.3,30.7a15.87,15.87,0,0,1-6.57-6.76,15.73,15.73,0,0,1-1.79-8.8A16.53,16.53,0,0,1,321.72.48,18.91,18.91,0,0,1,325.79,0Zm15.35,17.14a15.37,15.37,0,0,0-6.09-12.78,15.72,15.72,0,0,0-22.69,4.21,14.22,14.22,0,0,0-2.08,10A14.75,14.75,0,0,0,318,29.7a15.76,15.76,0,0,0,19.45-3.4A14.59,14.59,0,0,0,341.14,17.14Z"/><path class="cls-2" d="M323.41,22.16V17.81c0-.41,0-.42-.41-.42h-2.5c-.36,0-.37,0-.37-.37,0-1,0-2,0-3,0-.37,0-.38.37-.38H323c.41,0,.42,0,.42-.42V10.62a5.44,5.44,0,0,1,.15-1.27,4.33,4.33,0,0,1,4.13-3.42,19.75,19.75,0,0,1,3.17.08c.27,0,.34.12.34.38,0,.89,0,1.77,0,2.66,0,.26-.08.36-.35.36-.56,0-1.12,0-1.69,0-1.37,0-1.84.51-1.84,1.87,0,.65,0,1.3,0,1.94,0,.35,0,.36.37.36l3,0c.34,0,.34,0,.3.33-.13,1-.25,2-.39,3-.06.38-.07.39-.44.39-.75,0-1.5,0-2.25,0s-.61-.07-.62.59v8.39c0,.7.07.63-.62.64h-2.92c-.35,0-.36,0-.36-.37V22.16Z"/><path class="cls-2" d="M432.51,15.59a15.81,15.81,0,0,1,3.94-9.76,16.93,16.93,0,0,1,25.2-.37,15.62,15.62,0,0,1,3.79,7,15.77,15.77,0,0,1,.38,6.23A16.47,16.47,0,0,1,455.4,31.72a16.47,16.47,0,0,1-6.65,1.16,17,17,0,0,1-9.92-3.6,16.09,16.09,0,0,1-5.34-7.34A17.65,17.65,0,0,1,432.51,15.59Zm32.25,1.31a15.2,15.2,0,0,0-6.07-12.5,15.38,15.38,0,0,0-12.82-2.82,14.94,14.94,0,0,0-7.41,3.9,14.37,14.37,0,0,0-4.67,9.82,14.69,14.69,0,0,0,6.13,13.27,15,15,0,0,0,10.62,3,15.21,15.21,0,0,0,10.51-5.26A14.55,14.55,0,0,0,464.76,16.9Z"/><path class="cls-2" d="M450.29,14.26a4.67,4.67,0,0,1,3.29-1.87,5.59,5.59,0,0,1,3,.48,3.34,3.34,0,0,1,1.59,1.6,7,7,0,0,1,.65,3.12c0,2.41,0,4.81,0,7.21,0,.44,0,.44-.46.45h-2.86c-.67,0-.67,0-.67-.64,0-1.91,0-3.82,0-5.72a6.5,6.5,0,0,0-.12-1.53A1.78,1.78,0,0,0,453,15.83a3.19,3.19,0,0,0-.87.06,1.82,1.82,0,0,0-1.48,1.38,5.15,5.15,0,0,0-.21,1.51v5.88c0,.1,0,.21,0,.31s-.08.26-.28.26h-3.42c-.23,0-.29-.11-.29-.31V23q0-4.8,0-9.61c0-.12,0-.24,0-.36s.06-.34.31-.34H450c.23,0,.29.11.29.31Z"/><path class="cls-2" d="M444,19c0,1.93,0,3.86,0,5.78,0,.46,0,.46-.44.46h-3.12c-.41,0-.42,0-.42-.43,0-2.71,0-5.42,0-8.13,0-1.19,0-2.38,0-3.58,0-.42,0-.43.41-.43h3.16c.41,0,.41,0,.41.43,0,2,0,3.92,0,5.88Z"/><path class="cls-2" d="M439.68,8.72a2.31,2.31,0,0,1,4.62,0A2.35,2.35,0,0,1,442,11,2.32,2.32,0,0,1,439.68,8.72Z"/><path class="cls-2" d="M589.49,14a15.87,15.87,0,0,0-5.81-10.13,16.88,16.88,0,0,0-20.8-.46,16,16,0,0,0-5.06,6.18,16,16,0,0,0-1.51,8.25A16.39,16.39,0,0,0,563,29.73,17.23,17.23,0,0,0,573,33a16.34,16.34,0,0,0,2.1-.14c.6-.09,1.2-.21,1.8-.34a16,16,0,0,0,8.2-4.63A15.83,15.83,0,0,0,589.49,14Zm-2.6,9.29a15.14,15.14,0,0,1-11.66,8.33,15,15,0,0,1-1.87.17,16,16,0,0,1-7.55-1.73,14.94,14.94,0,0,1-7.44-8.46,14.71,14.71,0,0,1,.46-11.35A14.93,14.93,0,0,1,565.66,3a15.72,15.72,0,0,1,16.12.9,14.93,14.93,0,0,1,6.43,9.65A14.34,14.34,0,0,1,586.89,23.28Z"/><path class="cls-2" d="M575.46,15.11h-6.18c-.41,0-.42,0-.43.43,0,.69,0,1.39,0,2.09,0,.25.09.33.33.33.48,0,1,0,1.43,0h2.11a3.45,3.45,0,0,1-2,2.47,4.57,4.57,0,0,1-2.66.24,3.94,3.94,0,0,1-3.24-3,4,4,0,0,1,1.25-4.27,4.15,4.15,0,0,1,5.28-.21c.23.18.36.15.53-.05a21.13,21.13,0,0,1,1.74-1.8l0-.1-.15-.14a6.87,6.87,0,0,0-3.65-1.58,7,7,0,0,0-6.16,2.18,6.75,6.75,0,0,0-1.86,6,6.82,6.82,0,0,0,3,4.74,7.37,7.37,0,0,0,5.66,1.14A6,6,0,0,0,575,20.2a8.49,8.49,0,0,0,.83-4.81C575.77,15.17,575.67,15.11,575.46,15.11Z"/><path class="cls-2" d="M584.28,15.64c0-.37,0-.37-.36-.38h-1.79c-.24,0-.33-.07-.32-.32,0-.56,0-1.12,0-1.68s0-.47-.43-.47h-1c-.39,0-.4,0-.4.41,0,.59,0,1.19,0,1.78,0,.2-.06.28-.26.28h-2c-.18,0-.28.06-.28.26,0,.41,0,.82,0,1.23s.12.31.34.3c.57,0,1.13,0,1.69,0s.5,0,.5.48,0,1.13,0,1.69c0,.24.08.33.33.32s.75,0,1.12,0,.36,0,.37-.37c0-.61,0-1.23,0-1.84,0-.22.07-.29.29-.29.61,0,1.22,0,1.84,0,.26,0,.36-.08.35-.35S584.29,16,584.28,15.64Z"/><path class="cls-2" d="M387.64,32.9a17.36,17.36,0,0,1-10.25-3.36,16.4,16.4,0,0,1-4.6-5.21,15.7,15.7,0,0,1-2-6.8,15.9,15.9,0,0,1,4.47-12.32A16.42,16.42,0,0,1,384.55.26a16.86,16.86,0,0,1,6.6.15,16.41,16.41,0,0,1,7.56,3.86,15.83,15.83,0,0,1,4.91,7.92,15.49,15.49,0,0,1,.52,5.67A16.18,16.18,0,0,1,399,28.31,17.14,17.14,0,0,1,387.64,32.9Zm-15.7-16.54a12.47,12.47,0,0,0,.2,2.45,15,15,0,0,0,10.13,12,15.68,15.68,0,0,0,17.08-4.54,14.63,14.63,0,0,0,3.35-12.59,14.64,14.64,0,0,0-6.17-9.54,15.75,15.75,0,0,0-20.11,1.64A14.81,14.81,0,0,0,371.94,16.36Z"/><path class="cls-2" d="M397,9.9a4.67,4.67,0,0,1-.8.86l-.11,0c-.08,0-.16.06-.11.16s.11,0,.16,0l.16-.06.46-.06c.09.13.15.09.2,0a.2.2,0,0,1,.21,0,.6.6,0,0,0,.24.61,4.32,4.32,0,0,1-.89.87l-.37.34a1.33,1.33,0,0,0,0,1.12,10.77,10.77,0,0,1-.89,3.91A11.82,11.82,0,0,1,389.11,24a12.31,12.31,0,0,1-5.68,1,12.46,12.46,0,0,1-5.81-1.75s-.05,0,0-.12a8.89,8.89,0,0,0,6.07-1.72,5.23,5.23,0,0,1-2.41-.89,4.43,4.43,0,0,1-1.5-2.05,7,7,0,0,0,1.7-.11,4.41,4.41,0,0,1-3.23-4.16,6,6,0,0,0,1.79.47,4.32,4.32,0,0,1-1.24-5.51c.2,0,.24.1.31.19a12.34,12.34,0,0,0,8,4.06h.16c.45,0,.46,0,.4-.41a4.3,4.3,0,0,1,7.13-3.64.59.59,0,0,0,.68.15c.36-.11.72-.2,1.08-.3a.4.4,0,0,1,.27.28C396.81,9.68,396.85,9.83,397,9.9Z"/><path class="cls-2" d="M397,9.9c-.16-.07-.2-.22-.24-.37a.4.4,0,0,0-.27-.28l1.2-.59A3.16,3.16,0,0,1,397,9.9Z"/><path class="cls-2" d="M397.42,11.34a.6.6,0,0,1-.24-.61l1.07-.4A3.3,3.3,0,0,1,397.42,11.34Z"/><path class="cls-2" d="M396.14,13.67a1.33,1.33,0,0,1,0-1.12A4.67,4.67,0,0,1,396.14,13.67Z"/><path class="cls-2" d="M397,10.78c-.05.13-.11.17-.2,0A.21.21,0,0,1,397,10.78Z"/><path class="cls-2" d="M396.15,10.94c0,.06-.12.09-.16,0s0-.14.11-.16Z"/><path class="cls-2" d="M527.79,15.7A16.77,16.77,0,0,0,509.48.12a16.86,16.86,0,0,0-4.85,1.17,16.52,16.52,0,0,0-7.36,5.88,15.94,15.94,0,0,0-2.93,9A16,16,0,0,0,497.42,26a16,16,0,0,0,5.76,5,16.79,16.79,0,0,0,10.56,1.73,16.34,16.34,0,0,0,8.49-4,16.12,16.12,0,0,0,5.56-12.28C527.79,16.24,527.8,16,527.79,15.7ZM523,26.31a15.19,15.19,0,0,1-10.24,5.38,7.68,7.68,0,0,1-1.42.06,14.62,14.62,0,0,1-6.65-1.37,15,15,0,0,1-8.79-10.91A14.44,14.44,0,0,1,497.3,9.41a14.88,14.88,0,0,1,6.93-6.62,15.71,15.71,0,0,1,17,2.2,14.65,14.65,0,0,1,4.88,7.68A14.65,14.65,0,0,1,523,26.31Z"/><path class="cls-2" d="M518.37,7.06a12.07,12.07,0,0,0-8.81-2.22,11.62,11.62,0,0,0-8.5,4.93,9.82,9.82,0,0,0-1.67,7.91,10.33,10.33,0,0,0,3.84,6.16,1,1,0,0,1,.39.86c0,1,0,2,0,3a1,1,0,0,0,.05.5.86.86,0,0,0,.46-.19c.95-.5,1.91-1,2.83-1.54a1.9,1.9,0,0,1,1.44-.21c4.72.87,8.81-.27,12.08-3.9a9.4,9.4,0,0,0,2.37-4.95A10.23,10.23,0,0,0,518.37,7.06Zm-8.85,9.46c-.29-.3-.29-.29-.64-.1-1.61.86-3.21,1.73-4.82,2.58-.14.08-.28.28-.49.11.65-.56,1.21-1.23,1.81-1.86,1.36-1.4,2.7-2.83,4.06-4.24a1.08,1.08,0,0,1,.39-.34c.59.51,1.11,1.1,1.66,1.65.39.4.79.8,1.16,1.22a.41.41,0,0,0,.6.1q1.82-1,3.63-2a8.94,8.94,0,0,1,1.65-.79l-6.25,6.56-1.68-1.76Zm-5.95,2.59v0l0,0Zm0,0,0,0S503.58,19.19,503.6,19.14Z"/><path class="cls-2" d="M247.06,16.46A16.27,16.27,0,0,1,250.8,6.14a16.92,16.92,0,0,1,21.62-3.77,16,16,0,0,1,6.9,7.9A15.81,15.81,0,0,1,280,20.54a16.32,16.32,0,0,1-7.16,9.78,16.26,16.26,0,0,1-7.93,2.57,16.54,16.54,0,0,1-10-2.49,16.28,16.28,0,0,1-6.49-7.48,16.45,16.45,0,0,1-1.22-4.52A14.05,14.05,0,0,1,247.06,16.46ZM263.84,1.2c-.74,0-1.44.06-2.13.15a15.15,15.15,0,0,0-9.56,5,14.61,14.61,0,0,0-3.71,12.06,14.62,14.62,0,0,0,6,10.2,15.18,15.18,0,0,0,12.34,2.79,15,15,0,0,0,10.92-8.11,14.39,14.39,0,0,0,1.5-9,14.87,14.87,0,0,0-5.57-9.69A15.57,15.57,0,0,0,263.84,1.2Z"/><path class="cls-2" d="M263.82,6.49c1.55,0,3.1,0,4.65.1A5.54,5.54,0,0,1,273,9.14a5.66,5.66,0,0,1,.81,2.4,26.42,26.42,0,0,1,.12,3.21c0,1.81,0,3.62,0,5.42a8.29,8.29,0,0,1-.31,2.27,5.18,5.18,0,0,1-3.91,3.72,11.79,11.79,0,0,1-2.84.27q-3.23,0-6.45,0a9.75,9.75,0,0,1-2.63-.3,5.21,5.21,0,0,1-3.92-4.43,18.42,18.42,0,0,1-.17-3.06c0-2.16-.06-4.33.07-6.49a6.06,6.06,0,0,1,1-3.27,5.33,5.33,0,0,1,3.77-2.2,33.5,33.5,0,0,1,4.48-.18Zm-8.3,9.93c0,1.42,0,2.78.07,4.14a5.75,5.75,0,0,0,.4,1.89,3.15,3.15,0,0,0,1.73,1.71,6.85,6.85,0,0,0,2.61.43c2.11.05,4.22,0,6.33,0a16.17,16.17,0,0,0,2.09-.11A3.48,3.48,0,0,0,272,21.27a14.71,14.71,0,0,0,.11-1.63c0-2.18,0-4.36,0-6.54a9.86,9.86,0,0,0-.12-1.53,3.41,3.41,0,0,0-2.58-3A9.51,9.51,0,0,0,267,8.35c-1.86,0-3.71,0-5.57,0a16.26,16.26,0,0,0-2.7.17,3.39,3.39,0,0,0-3,3.09,8.08,8.08,0,0,0-.09.86C255.48,13.78,255.54,15.13,255.52,16.42Z"/><path class="cls-2" d="M269,16.48a5.22,5.22,0,1,1-5.15-5.14A5.21,5.21,0,0,1,269,16.48Zm-1.85.05a3.34,3.34,0,0,0-3.43-3.35,3.3,3.3,0,0,0-3.3,3.27,3.37,3.37,0,0,0,6.73.08Z"/><path class="cls-2" d="M269.22,12.36A1.18,1.18,0,0,1,268,11.12,1.22,1.22,0,0,1,269.2,10a1.21,1.21,0,1,1,0,2.41Z"/><line class="cls-3" x1="147.3" y1="16.36" x2="226.11" y2="16.36"/><line class="cls-3" x1="610.3" y1="16.36" x2="689.11" y2="16.36"/><path class="cls-2" d="M722,19.61a3.7,3.7,0,0,1-2,3.23,8.49,8.49,0,0,1-4.35,1A6.17,6.17,0,0,1,711,22.15a5.23,5.23,0,0,1-1.39-3.82,5.87,5.87,0,0,1,1-3.36l1.42.61a5.76,5.76,0,0,0-.69,2.66,3.71,3.71,0,0,0,1.22,2.9,4.63,4.63,0,0,0,3.21,1.05,6.64,6.64,0,0,0,3.22-.71,2.2,2.2,0,0,0,1.26-1.87h-1.89v-1.7h4.15v1.7Z"/><path class="cls-2" d="M722.65,19.61h-.57v-1.7h.38a2,2,0,0,0,1.7-.78,3.08,3.08,0,0,0,.51-1.89V5.62h1.74v9.62a3,3,0,0,0,.65,2.08,2.07,2.07,0,0,0,1.55.59H729v1.7h-.54a3.3,3.3,0,0,1-2.9-1.33A3.39,3.39,0,0,1,722.65,19.61Z"/><path class="cls-2" d="M740,19.61H728.57v-1.7h3a4.61,4.61,0,0,1-1-2.9,4.35,4.35,0,0,1,1.3-3.28,4,4,0,0,1,2.88-1.09h3.53v1.68h-3.24a2.51,2.51,0,0,0-2.09.92,2.7,2.7,0,0,0-.59,1.77,2.87,2.87,0,0,0,.82,2.1,2.77,2.77,0,0,0,2.05.8H740Z"/><path class="cls-2" d="M752.43,19.61h-.78a3.68,3.68,0,0,1-2.81-1A3.74,3.74,0,0,1,748,16V5.62h1.76v9.81a3,3,0,0,0,.46,1.91,2.25,2.25,0,0,0,1.74.57h.49Z"/><path class="cls-2" d="M752.6,19.61H752v-1.7h.42a2,2,0,0,0,1.68-.78,3.19,3.19,0,0,0,.5-1.89V10.77h1.77v4.74a4.14,4.14,0,0,1-1.22,3.24A3.74,3.74,0,0,1,752.6,19.61Zm3.92-11.55a1,1,0,0,1-.32.74,1.06,1.06,0,0,1-.77.33,1.11,1.11,0,0,1-1.07-1.07,1.07,1.07,0,0,1,.32-.77,1,1,0,0,1,.75-.32,1.05,1.05,0,0,1,.77.32A1.07,1.07,0,0,1,756.52,8.06Z"/><path class="cls-2" d="M767,19.61a4.24,4.24,0,0,1-1.32,3.15,3.85,3.85,0,0,1-2.58.86,6,6,0,0,1-2.82-.78l.49-1.45a4.53,4.53,0,0,0,2.1.59,2.32,2.32,0,0,0,1.76-.67,2.64,2.64,0,0,0,.65-1.74c-.64,0-1.13,0-1.45,0a4.11,4.11,0,0,1-3.32-1.4,4.93,4.93,0,0,1-1-3.17,4.66,4.66,0,0,1,1.17-3.38,3.59,3.59,0,0,1,2.73-1.1,3.39,3.39,0,0,1,2.73,1.12,3.57,3.57,0,0,1,.84,2.47v3.83h2.25v1.7Zm-1.7-1.7v-3.7c0-1.4-.62-2.1-1.87-2.1a1.89,1.89,0,0,0-1.7.88,3.53,3.53,0,0,0-.48,2,3,3,0,0,0,.86,2.33,2.68,2.68,0,0,0,1.83.63Z"/><path class="cls-2" d="M774.06,19.61h-5.17v-1.7h4.66a3.06,3.06,0,0,0,1.39-.32,21.16,21.16,0,0,0-2.16-2.32,4,4,0,0,0-1.62-.93v-.86a6.62,6.62,0,0,1,2.58-2.5,5.51,5.51,0,0,1,2.63-.65,5.57,5.57,0,0,1,3,.86,7.09,7.09,0,0,1,2.23,2.29v.86a2.59,2.59,0,0,0-1.22.58,18.42,18.42,0,0,0-1.77,1.87c-.3.37-.55.65-.73.84a3.21,3.21,0,0,0,1.3.28h4.7v1.7h-5.18a4,4,0,0,1-2.27-.74A4.21,4.21,0,0,1,774.06,19.61Zm-1-6.09a12.56,12.56,0,0,1,2.25,2.12,14.15,14.15,0,0,0,1.07,1.09c.26-.24.69-.69,1.28-1.34a10.46,10.46,0,0,1,2.06-1.85A4.44,4.44,0,0,0,776.28,12a4,4,0,0,0-1.74.37A5.06,5.06,0,0,0,773.05,13.52Z"/><path class="cls-2" d="M783.44,19.61v-1.7h.42a1.92,1.92,0,0,0,1.68-.78,3.12,3.12,0,0,0,.51-1.89V10.77h1.76v4.74a4.11,4.11,0,0,1-1.22,3.24,3.7,3.7,0,0,1-2.56.86Zm2.19,3.76a1.11,1.11,0,0,1-1.07-1.07,1.07,1.07,0,0,1,.32-.77,1,1,0,0,1,.75-.33,1,1,0,0,1,.76.33,1,1,0,0,1,.33.77,1,1,0,0,1-.33.74A1,1,0,0,1,785.63,23.37Z"/><path class="cls-2" d="M795.92,19.61h-.78a3.68,3.68,0,0,1-2.81-1,3.74,3.74,0,0,1-.86-2.63V5.62h1.76v9.81a3,3,0,0,0,.46,1.91,2.25,2.25,0,0,0,1.74.57h.49Z"/><path class="cls-2" d="M796.09,19.61h-.59v-1.7h.42a2,2,0,0,0,1.68-.78,3.19,3.19,0,0,0,.5-1.89V10.77h1.77v4.74a4.14,4.14,0,0,1-1.22,3.24A3.74,3.74,0,0,1,796.09,19.61ZM798.73,8a1.07,1.07,0,0,1-.32.77,1,1,0,0,1-.75.33,1.06,1.06,0,0,1-.77-.33,1.07,1.07,0,0,1-.32-.77,1,1,0,0,1,.32-.75,1.09,1.09,0,0,1,.77-.32,1.05,1.05,0,0,1,.76.32A1,1,0,0,1,798.73,8Zm2.56,0a1.11,1.11,0,0,1-1.09,1.1,1,1,0,0,1-.76-.33,1,1,0,0,1-.33-.77,1,1,0,0,1,.33-.75,1.06,1.06,0,0,1,1.53,0A1,1,0,0,1,801.29,8Z"/></g></g></svg>