<svg xmlns="http://www.w3.org/2000/svg" xmlns:xlink="http://www.w3.org/1999/xlink" width="1220" height="1220" viewBox="0 0 1220 1220"><defs><linearGradient id="a" x1="192.8" y1="503.66" x2="1027.2" y2="503.66" gradientUnits="userSpaceOnUse"><stop offset="0" stop-color="#fff" stop-opacity="0.4"/><stop offset="1" stop-color="#fff" stop-opacity="0"/></linearGradient><linearGradient id="b" x1="204.1" y1="791.43" x2="1016.1" y2="791.43" xlink:href="#a"/><linearGradient id="c" x1="227.1" y1="871.04" x2="993.1" y2="871.04" xlink:href="#a"/><linearGradient id="d" x1="410.7" y1="528.72" x2="760.03" y2="528.72" xlink:href="#a"/><linearGradient id="e" x1="-1358.54" y1="2372.07" x2="-1201.41" y2="2372.07" gradientTransform="matrix(1.21, -0.2, 0.16, 0.99, 1982.81, -2027.48)" xlink:href="#a"/><linearGradient id="f" x1="-1517.56" y1="2351.48" x2="-1403.07" y2="2351.48" gradientTransform="matrix(1.21, -0.2, 0.16, 0.99, 1982.81, -2027.48)" xlink:href="#a"/><linearGradient id="g" x1="280.14" y1="607.32" x2="462.72" y2="577.52" xlink:href="#a"/></defs><path d="M0,0V1220H1220V0ZM1004.77,894.43H215.23a434.14,434.14,0,0,1-41-184.77C174.23,469,369.33,273.88,610,273.88S1045.77,469,1045.77,709.66A434.14,434.14,0,0,1,1004.77,894.43Z" style="fill:#3a1e3a"/><g style="opacity:0.39"><line x1="1155.28" y1="610" x2="1095.45" y2="610" style="fill:none;stroke:#f2f2f2;stroke-linecap:round;stroke-miterlimit:10;stroke-width:7.69759997829428px"/><line x1="124.55" y1="610" x2="64.72" y2="610" style="fill:none;stroke:#f2f2f2;stroke-linecap:round;stroke-miterlimit:10;stroke-width:7.69759997829428px"/><line x1="995.57" y1="224.43" x2="953.26" y2="266.74" style="fill:none;stroke:#f2f2f2;stroke-linecap:round;stroke-miterlimit:10;stroke-width:7.69759997829428px"/><line x1="266.74" y1="953.26" x2="224.43" y2="995.57" style="fill:none;stroke:#f2f2f2;stroke-linecap:round;stroke-miterlimit:10;stroke-width:7.69759997829428px"/><line x1="995.57" y1="995.57" x2="953.26" y2="953.26" style="fill:none;stroke:#f2f2f2;stroke-linecap:round;stroke-miterlimit:10;stroke-width:7.69759997829428px"/><line x1="266.74" y1="266.74" x2="224.43" y2="224.43" style="fill:none;stroke:#f2f2f2;stroke-linecap:round;stroke-miterlimit:10;stroke-width:7.69759997829428px"/><line x1="1113.36" y1="819.65" x2="1058.13" y2="796.64" style="fill:none;stroke:#f2f2f2;stroke-linecap:round;stroke-miterlimit:10;stroke-width:7.69759997829428px"/><line x1="161.87" y1="423.36" x2="106.64" y2="400.35" style="fill:none;stroke:#f2f2f2;stroke-linecap:round;stroke-miterlimit:10;stroke-width:7.69759997829428px"/><line x1="1114.18" y1="402.31" x2="1058.85" y2="425.1" style="fill:none;stroke:#f2f2f2;stroke-linecap:round;stroke-miterlimit:10;stroke-width:7.69759997829428px"/><line x1="161.15" y1="794.9" x2="105.82" y2="817.69" style="fill:none;stroke:#f2f2f2;stroke-linecap:round;stroke-miterlimit:10;stroke-width:7.69759997829428px"/></g><path d="M610,296.88a412.39,412.39,0,0,1,412.77,412.78v.77H197.23v-.77A412.42,412.42,0,0,1,610,296.88" style="fill:none;stroke-miterlimit:10;stroke-width:8.86009550403627px;stroke:url(#a)"/><line x1="204.1" y1="791.43" x2="1016.1" y2="791.43" style="fill:none;stroke-miterlimit:10;stroke-width:8.86009550403627px;stroke:url(#b)"/><line x1="227.1" y1="871.04" x2="993.1" y2="871.04" style="fill:none;stroke-miterlimit:10;stroke-width:8.86009550403627px;stroke:url(#c)"/><path d="M411.56,381.69a321.23,321.23,0,0,1,62-5.76c165,0,282,146,282,310" style="fill:none;stroke-miterlimit:10;stroke-width:8.86009550403627px;stroke:url(#d)"/><path d="M704.86,451.62C824.6,426.93,915.6,567.93,930.6,685.93" style="fill:none;stroke-miterlimit:10;stroke-width:10.6837582584485px;stroke:url(#e)"/><path d="M552.6,687.93c6.88-91.06,42.94-170.93,97.33-211.22" style="fill:none;stroke-miterlimit:10;stroke-width:10.6837582584485px;stroke:url(#f)"/><path d="M268.15,517.26c20.37-14.53,43.91-22.83,68.2-22.83,95.75,0,134.75,116.48,134.75,192" style="fill:none;stroke-miterlimit:10;stroke-width:12.0862138478857px;stroke:url(#g)"/></svg>