<svg xmlns="http://www.w3.org/2000/svg" xmlns:xlink="http://www.w3.org/1999/xlink" width="1220" height="1220" viewBox="0 0 1220 1220"><defs><linearGradient id="a" x1="436.99" y1="633.42" x2="596.44" y2="633.42" gradientUnits="userSpaceOnUse"><stop offset="0" stop-color="#fff" stop-opacity="0.4"/><stop offset="1" stop-color="#fff" stop-opacity="0"/></linearGradient><linearGradient id="b" x1="615.87" y1="641.93" x2="943.67" y2="641.93" xlink:href="#a"/><linearGradient id="c" x1="796.15" y1="734.52" x2="943.85" y2="734.52" xlink:href="#a"/><linearGradient id="d" x1="-18989.36" y1="793.51" x2="-18924.69" y2="793.51" gradientTransform="matrix(-1, 0, 0, 1, -18200.42, 0)" xlink:href="#a"/><linearGradient id="e" x1="-18815.36" y1="790.91" x2="-18713.71" y2="790.91" gradientTransform="matrix(-1, 0, 0, 1, -18200.42, 0)" xlink:href="#a"/><linearGradient id="f" x1="-18642.36" y1="821.47" x2="-18475.36" y2="821.47" gradientTransform="matrix(-1, 0, 0, 1, -18200.42, 0)" xlink:href="#a"/></defs><path d="M0,0V1220H1220V0ZM957,710.42c-83,0-150.47,67.5-150.47,150.48V973.43h-393V860.9c0-83-67.5-150.48-150.47-150.48v-393A541,541,0,0,1,610,443,541,541,0,0,1,957,317.43Z" style="fill:#3a1e3a"/><g style="opacity:0.39"><line x1="1155.28" y1="610" x2="1095.45" y2="610" style="fill:none;stroke:#f2f2f2;stroke-linecap:round;stroke-miterlimit:10;stroke-width:7.69759997829428px"/><line x1="124.55" y1="610" x2="64.72" y2="610" style="fill:none;stroke:#f2f2f2;stroke-linecap:round;stroke-miterlimit:10;stroke-width:7.69759997829428px"/><line x1="995.57" y1="224.43" x2="953.26" y2="266.74" style="fill:none;stroke:#f2f2f2;stroke-linecap:round;stroke-miterlimit:10;stroke-width:7.69759997829428px"/><line x1="266.74" y1="953.26" x2="224.43" y2="995.57" style="fill:none;stroke:#f2f2f2;stroke-linecap:round;stroke-miterlimit:10;stroke-width:7.69759997829428px"/><line x1="995.57" y1="995.57" x2="953.26" y2="953.26" style="fill:none;stroke:#f2f2f2;stroke-linecap:round;stroke-miterlimit:10;stroke-width:7.69759997829428px"/><line x1="266.74" y1="266.74" x2="224.43" y2="224.43" style="fill:none;stroke:#f2f2f2;stroke-linecap:round;stroke-miterlimit:10;stroke-width:7.69759997829428px"/><line x1="1113.36" y1="819.65" x2="1058.13" y2="796.64" style="fill:none;stroke:#f2f2f2;stroke-linecap:round;stroke-miterlimit:10;stroke-width:7.69759997829428px"/><line x1="161.87" y1="423.36" x2="106.64" y2="400.35" style="fill:none;stroke:#f2f2f2;stroke-linecap:round;stroke-miterlimit:10;stroke-width:7.69759997829428px"/><line x1="1114.18" y1="402.31" x2="1058.85" y2="425.1" style="fill:none;stroke:#f2f2f2;stroke-linecap:round;stroke-miterlimit:10;stroke-width:7.69759997829428px"/><line x1="161.15" y1="794.9" x2="105.82" y2="817.69" style="fill:none;stroke:#f2f2f2;stroke-linecap:round;stroke-miterlimit:10;stroke-width:7.69759997829428px"/></g><path d="M592.7,489A519.7,519.7,0,0,0,442.27,780.88" style="fill:none;stroke-miterlimit:10;stroke-width:10.6837582584485px;stroke:url(#a)"/><path d="M621,774.14C658.48,628.62,787.79,520,943.46,513.72" style="fill:none;stroke-miterlimit:10;stroke-width:10.6837582584485px;stroke:url(#b)"/><path d="M800.94,784.09a173.43,173.43,0,0,1,142.51-96.18" style="fill:none;stroke-miterlimit:10;stroke-width:10.6837582584485px;stroke:url(#c)"/><path d="M729.05,629A518.83,518.83,0,0,1,783.6,861.32v99.11" style="fill:none;stroke-miterlimit:10;stroke-width:10.6837582584485px;stroke:url(#d)"/><path d="M609.6,960.43V861a346.36,346.36,0,0,0-92.39-236" style="fill:none;stroke-miterlimit:10;stroke-width:10.6837582584485px;stroke:url(#e)"/><path d="M436.6,960.43V860.79A173.38,173.38,0,0,0,275.31,687.84" style="fill:none;stroke-miterlimit:10;stroke-width:10.6837582584485px;stroke:url(#f)"/></svg>