<svg xmlns="http://www.w3.org/2000/svg" xmlns:xlink="http://www.w3.org/1999/xlink" width="1220" height="1220" viewBox="0 0 1220 1220"><defs><linearGradient id="a" x1="610" y1="249.43" x2="610" y2="371.43" gradientUnits="userSpaceOnUse"><stop offset="0" stop-color="#fff" stop-opacity="0"/><stop offset="1" stop-color="#fff" stop-opacity="0.4"/></linearGradient><linearGradient id="b" x1="700.61" y1="581.43" x2="700.61" y2="746.43" xlink:href="#a"/><linearGradient id="c" x1="770.6" y1="867.43" x2="770.6" y2="970.43" xlink:href="#a"/><linearGradient id="d" x1="449.6" y1="867.43" x2="449.6" y2="970.43" xlink:href="#a"/><linearGradient id="e" x1="610" y1="581.43" x2="610" y2="746.43" xlink:href="#a"/><linearGradient id="f" x1="519.39" y1="581.43" x2="519.39" y2="746.43" xlink:href="#a"/><linearGradient id="g" x1="389" y1="806.35" x2="831" y2="806.35" xlink:href="#a"/><linearGradient id="h" x1="489.61" y1="479.71" x2="730.39" y2="479.71" xlink:href="#a"/></defs><path d="M0,0V1220H1220V0ZM807.07,878.1V985.57H412.93V878.1a74.93,74.93,0,0,1,21.2-146.84h3.38V535.57A172.74,172.74,0,0,1,573.43,367V234.43h73.15V367A172.76,172.76,0,0,1,782.49,535.57V731.26h3.37A74.93,74.93,0,0,1,807.07,878.1Z" style="fill:#3a1e3a"/><g style="opacity:0.39"><line x1="1155.28" y1="610" x2="1095.45" y2="610" style="fill:none;stroke:#f2f2f2;stroke-linecap:round;stroke-miterlimit:10;stroke-width:7.69759997829428px"/><line x1="124.55" y1="610" x2="64.72" y2="610" style="fill:none;stroke:#f2f2f2;stroke-linecap:round;stroke-miterlimit:10;stroke-width:7.69759997829428px"/><line x1="995.57" y1="224.43" x2="953.26" y2="266.74" style="fill:none;stroke:#f2f2f2;stroke-linecap:round;stroke-miterlimit:10;stroke-width:7.69759997829428px"/><line x1="266.74" y1="953.26" x2="224.43" y2="995.57" style="fill:none;stroke:#f2f2f2;stroke-linecap:round;stroke-miterlimit:10;stroke-width:7.69759997829428px"/><line x1="995.57" y1="995.57" x2="953.26" y2="953.26" style="fill:none;stroke:#f2f2f2;stroke-linecap:round;stroke-miterlimit:10;stroke-width:7.69759997829428px"/><line x1="266.74" y1="266.74" x2="224.43" y2="224.43" style="fill:none;stroke:#f2f2f2;stroke-linecap:round;stroke-miterlimit:10;stroke-width:7.69759997829428px"/><line x1="1113.36" y1="819.65" x2="1058.13" y2="796.64" style="fill:none;stroke:#f2f2f2;stroke-linecap:round;stroke-miterlimit:10;stroke-width:7.69759997829428px"/><line x1="161.87" y1="423.36" x2="106.64" y2="400.35" style="fill:none;stroke:#f2f2f2;stroke-linecap:round;stroke-miterlimit:10;stroke-width:7.69759997829428px"/><line x1="1114.18" y1="402.31" x2="1058.85" y2="425.1" style="fill:none;stroke:#f2f2f2;stroke-linecap:round;stroke-miterlimit:10;stroke-width:7.69759997829428px"/><line x1="161.15" y1="794.9" x2="105.82" y2="817.69" style="fill:none;stroke:#f2f2f2;stroke-linecap:round;stroke-miterlimit:10;stroke-width:7.69759997829428px"/></g><line x1="610" y1="371.43" x2="610" y2="249.43" style="fill:none;stroke-miterlimit:10;stroke-width:12.0862138478857px;stroke:url(#a)"/><line x1="700.61" y1="746.43" x2="700.61" y2="581.43" style="fill:none;stroke-miterlimit:10;stroke-width:12.0862138478857px;stroke:url(#b)"/><line x1="770.6" y1="970.43" x2="770.6" y2="867.43" style="fill:none;stroke-miterlimit:10;stroke-width:12.0862138478857px;stroke:url(#c)"/><line x1="449.6" y1="970.43" x2="449.6" y2="867.43" style="fill:none;stroke-miterlimit:10;stroke-width:12.0862138478857px;stroke:url(#d)"/><line x1="610" y1="746.43" x2="610" y2="581.43" style="fill:none;stroke-miterlimit:10;stroke-width:12.0862138478857px;stroke:url(#e)"/><line x1="519.39" y1="746.43" x2="519.39" y2="581.43" style="fill:none;stroke-miterlimit:10;stroke-width:12.0862138478857px;stroke:url(#f)"/><line x1="389" y1="806.35" x2="831" y2="806.35" style="fill:none;stroke-miterlimit:10;stroke-width:12.0862138478857px;stroke:url(#g)"/><path d="M610,421.23A114.47,114.47,0,0,1,724.34,535.57v2.63H495.66v-2.63A114.47,114.47,0,0,1,610,421.23Z" style="fill:none;stroke-miterlimit:10;stroke-width:12.0862138478857px;stroke:url(#h)"/></svg>