<svg xmlns="http://www.w3.org/2000/svg" viewBox="0 0 322.66 99.61"><defs><style>.cls-1{opacity:0.3;}.cls-2{fill:#d5896b;}</style></defs><g id="Layer_2" data-name="Layer 2"><g id="Calque_1" data-name="Calque 1"><g class="cls-1"><rect class="cls-2" x="302.65" y="47.77" width="20.01" height="8.75" rx="4.37"/><rect class="cls-2" x="293.09" y="2.27" width="20.01" height="8.75" rx="4.37" transform="translate(22.94 122.51) rotate(-23.72)"/><rect class="cls-2" x="300.57" y="83.18" width="8.75" height="20.01" rx="4.37" transform="translate(107.47 343.55) rotate(-68.73)"/></g><g class="cls-1"><rect class="cls-2" y="47.77" width="20.01" height="8.75" rx="4.37"/><rect class="cls-2" x="15.19" y="-3.36" width="8.75" height="20.01" rx="4.37" transform="translate(5.61 21.88) rotate(-66.28)"/><rect class="cls-2" x="7.71" y="88.81" width="20.01" height="8.75" rx="4.37" transform="translate(-32.6 12.78) rotate(-21.27)"/></g><path class="cls-2" d="M42.53,26.8h8.41v28q0,3.49,1.41,4.81c.94.88,2.62,1.32,5,1.32H65.6v7.87H55.09q-6.37,0-9.46-2.94t-3.1-9.32Z"/><path class="cls-2" d="M72.45,23H80.8l-3.67,16.1H70.89Z"/><path class="cls-2" d="M87.23,35.27h8V68.79h-8ZM87.35,23H95.1v7.33H87.35Z"/><path class="cls-2" d="M103.57,35.27h6.48l1.15,3.6q3-4.14,8.77-4.14,6.06,0,8.47,5,3.54-5,10.69-5,6.8,0,9.73,3.39T151.81,48V68.79h-8.05V49q0-4-1.45-5.73a5.54,5.54,0,0,0-4.56-1.78,5.67,5.67,0,0,0-4.57,1.78q-1.5,1.77-1.5,5.73V68.79h-8.05V49q0-4-1.44-5.73a5.47,5.47,0,0,0-4.51-1.78A5.66,5.66,0,0,0,113,43.26q-1.47,1.8-1.47,5.82V68.79h-8Z"/><path class="cls-2" d="M159.62,35.27h6.48L167.31,39q3.24-4.26,9.37-4.26,6.72,0,9.55,3.36T189.05,48v8q0,6.56-2.79,9.92t-9.58,3.36q-5.84,0-9.07-3.79V81.1h-8Zm7.81,13.33v6.79a7.31,7.31,0,0,0,1.83,5.35,6.63,6.63,0,0,0,5,1.86q3.67,0,5.23-1.62T181,55.63V48.48q0-3.72-1.56-5.37c-1-1.1-2.78-1.66-5.23-1.66a6.69,6.69,0,0,0-5,1.84A7.19,7.19,0,0,0,167.43,48.6Z"/><path class="cls-2" d="M204.19,45.66h-8.05q0-10.94,13.76-10.93Q223,34.73,223,46V68.79h-6.31l-1.44-4.21a11.2,11.2,0,0,1-9.74,4.75q-5.16,0-7.63-2.55a9.17,9.17,0,0,1-2.46-6.64q0-4.45,2.64-6.76a20.22,20.22,0,0,1,7.27-3.76l9.61-3.06V45a3.42,3.42,0,0,0-1.17-2.85,6.65,6.65,0,0,0-4.05-.94C206,41.21,204.19,42.7,204.19,45.66Zm10.94,6.91L207.74,55q-4.22,1.38-4.21,4.39,0,3.78,4,3.78a7.85,7.85,0,0,0,5.19-2,6.26,6.26,0,0,0,2.38-5Z"/><path class="cls-2" d="M258.68,48.3h-7.87V46.56a5.12,5.12,0,0,0-1.29-3.9c-.86-.8-2.36-1.21-4.48-1.21-2.44,0-4.13.56-5.07,1.66s-1.42,2.91-1.42,5.43v7q0,3.74,1.39,5.38t5,1.65c2.16,0,3.68-.4,4.54-1.2a5.13,5.13,0,0,0,1.29-3.91V55.75h7.87v1.74q0,11.85-14.06,11.84-7.26,0-10.66-3.36t-3.4-10.22V48.36q0-6.84,3.4-10.24t10.72-3.39q14,0,14,11.83Z"/><path class="cls-2" d="M262.4,42.06V36.71l5.11-1.44L269,28h6.25v7.27h7.21v6.79H275.2v14q0,3.31,1.59,4.51t5.62,1.2v7.51q-8.6,0-11.9-3t-3.3-10.28v-14Z"/></g></g></svg>