<svg xmlns="http://www.w3.org/2000/svg" viewBox="0 0 418.66 99.61"><defs><style>.cls-1{opacity:0.4;}.cls-2{fill:#cd69a5;}</style></defs><g id="Layer_2" data-name="Layer 2"><g id="Calque_1" data-name="Calque 1"><g class="cls-1"><rect class="cls-2" x="398.65" y="47.77" width="20.01" height="8.75" rx="4.37"/><rect class="cls-2" x="389.09" y="2.27" width="20.01" height="8.75" rx="4.37" transform="translate(31.05 161.13) rotate(-23.72)"/><rect class="cls-2" x="396.57" y="83.18" width="8.75" height="20.01" rx="4.37" transform="translate(168.64 433) rotate(-68.73)"/></g><g class="cls-1"><rect class="cls-2" y="47.77" width="20.01" height="8.75" rx="4.37"/><rect class="cls-2" x="15.19" y="-3.36" width="8.75" height="20.01" rx="4.37" transform="matrix(0.4, -0.92, 0.92, 0.4, 5.61, 21.88)"/><rect class="cls-2" x="7.71" y="88.81" width="20.01" height="8.75" rx="4.37" transform="translate(-32.6 12.78) rotate(-21.27)"/></g><path class="cls-2" d="M38.54,26.8H47v28q0,3.49,1.41,4.81t5,1.32h8.23v7.87H51.09q-6.36,0-9.46-2.94t-3.09-9.32Z"/><path class="cls-2" d="M67.07,23H75l-.9,14.84H68Z"/><path class="cls-2" d="M82.63,35.27h8.05V68.79H82.63ZM82.75,23H90.5v7.33H82.75Z"/><path class="cls-2" d="M99,35.27h6.49l1.26,3.9q3.18-4.44,9.31-4.44,6.73,0,9.55,3.36T128.41,48V68.79h-8V48.48q0-3.72-1.56-5.37c-1-1.1-2.79-1.66-5.23-1.66a6.18,6.18,0,0,0-4.9,2A8.35,8.35,0,0,0,107,49.08V68.79H99Z"/><path class="cls-2" d="M150.21,45.84V45a3.86,3.86,0,0,0-.93-2.88,4.21,4.21,0,0,0-3-.91c-2.44,0-3.67,1-3.67,2.95a2.34,2.34,0,0,0,.76,1.83A9.41,9.41,0,0,0,146,47.46l5.23,2.16a14.54,14.54,0,0,1,5.46,3.76,8.8,8.8,0,0,1,1.93,5.92,9,9,0,0,1-3.28,7.36c-2.18,1.78-5.18,2.67-9,2.67q-6.37,0-9.1-2.58c-1.82-1.72-2.73-4.33-2.73-7.81V57.25h7.44v1.69c0,2.6,1.47,3.9,4.39,3.9a4.7,4.7,0,0,0,3.06-.93,3.19,3.19,0,0,0,1.15-2.61,3.27,3.27,0,0,0-.79-2.29,7.71,7.71,0,0,0-2.64-1.62l-6-2.46q-6.48-2.76-6.48-8.77a8.48,8.48,0,0,1,3-7c2-1.6,4.89-2.4,8.65-2.4,4,0,7,.88,8.77,2.64s2.7,4.31,2.7,7.63v.84Z"/><path class="cls-2" d="M165.11,35.27h6.49L172.8,39q3.24-4.26,9.37-4.26,6.74,0,9.56,3.36T194.55,48v8q0,6.56-2.79,9.92t-9.59,3.36q-5.82,0-9.07-3.79V81.1h-8Zm7.81,13.33v6.79a7.31,7.31,0,0,0,1.83,5.35,6.67,6.67,0,0,0,5,1.86c2.44,0,4.19-.54,5.23-1.62s1.56-2.86,1.56-5.35V48.48q0-3.72-1.56-5.37c-1-1.1-2.79-1.66-5.23-1.66a6.73,6.73,0,0,0-5,1.84A7.19,7.19,0,0,0,172.92,48.6Z"/><path class="cls-2" d="M202.12,35.27h8V68.79h-8ZM202.24,23H210v7.33h-7.75Z"/><path class="cls-2" d="M218.46,35.27H225l1.2,4.8a9.93,9.93,0,0,1,4.14-3.84,12.9,12.9,0,0,1,6.13-1.5v7.75c-3.52,0-6.07.63-7.63,1.89s-2.34,3.23-2.34,5.92v18.5h-8Z"/><path class="cls-2" d="M248.62,45.66h-8.05q0-10.94,13.75-10.93,13.1,0,13.1,11.29V68.79h-6.31l-1.44-4.21a11.18,11.18,0,0,1-9.73,4.75q-5.17,0-7.63-2.55a9.18,9.18,0,0,1-2.47-6.64c0-3,.89-5.22,2.65-6.76a20.06,20.06,0,0,1,7.27-3.76l9.61-3.06V45a3.42,3.42,0,0,0-1.17-2.85,6.67,6.67,0,0,0-4.06-.94C250.46,41.21,248.62,42.7,248.62,45.66Zm10.93,6.91L252.16,55q-4.2,1.38-4.2,4.39,0,3.78,4,3.78a7.9,7.9,0,0,0,5.2-2,6.25,6.25,0,0,0,2.37-5Z"/><path class="cls-2" d="M272.59,42.06V36.71l5.1-1.44L279.13,28h6.25v7.27h7.21v6.79h-7.21v14q0,3.31,1.59,4.51c1.06.8,2.94,1.2,5.62,1.2v7.51q-8.59,0-11.89-3t-3.31-10.28v-14Z"/><path class="cls-2" d="M298.6,35.27h8V68.79h-8ZM298.72,23h7.75v7.33h-7.75Z"/><path class="cls-2" d="M314.22,56V48.12q0-13.4,14.72-13.39t14.71,13.39V56q0,13.33-14.71,13.34T314.22,56Zm8-7.39v6.91q0,3.74,1.53,5.41t5.2,1.68q3.6,0,5.13-1.68t1.53-5.41V48.6q0-3.78-1.53-5.46c-1-1.12-2.73-1.69-5.13-1.69s-4.13.57-5.17,1.69S322.21,46.08,322.21,48.6Z"/><path class="cls-2" d="M351.16,35.27h6.49l1.26,3.9q3.19-4.44,9.31-4.44,6.73,0,9.56,3.36T380.6,48V68.79h-8.05V48.48q0-3.72-1.56-5.37c-1-1.1-2.79-1.66-5.23-1.66a6.16,6.16,0,0,0-4.89,2,8.3,8.3,0,0,0-1.72,5.67V68.79h-8Z"/></g></g></svg>