<svg xmlns="http://www.w3.org/2000/svg" viewBox="0 0 241.49 185.36"><defs><style>.cls-1{fill:#fff;}.cls-2{fill:#ff6d00;}</style></defs><g id="Layer_2" data-name="Layer 2"><g id="Calque_1" data-name="Calque 1"><path class="cls-1" d="M13.63,171.61A125.11,125.11,0,0,0,23,185.36H219.34a124.94,124.94,0,0,0,9.34-13.75Z"/><path class="cls-1" d="M8.41,161.53H234a125.68,125.68,0,0,0,5.27-13.18H3.09A126,126,0,0,0,8.41,161.53Z"/><path class="cls-2" d="M0,75.81H16.4q8,0,12.23,4.49t4.24,12.42V95q0,8.2-4.17,12.62t-12.3,4.42H9.57v11.2H0Zm9.57,27.57h5.12q4.51,0,6.56-2.11T23.3,95V92.72q0-4.14-2.05-6.18t-6.56-2H9.57Z"/><path class="cls-2" d="M39.7,71.47h9.16V89.26q3.48-4.49,10.25-4.48,7.65,0,10.86,3.8t3.21,11.2v23.49H64v-23c0-2.8-.59-4.83-1.78-6.07s-3.17-1.87-5.94-1.87a7,7,0,0,0-5.57,2.21q-2,2.2-2,6.41v22.27H39.7Z"/><path class="cls-2" d="M90.68,97.13H81.52q0-12.36,15.65-12.35,14.89,0,14.9,12.76v25.73h-7.18l-1.64-4.75q-3.82,5.36-11.07,5.36-5.88,0-8.68-2.88a10.33,10.33,0,0,1-2.8-7.51q0-5,3-7.63A22.65,22.65,0,0,1,92,101.61l10.93-3.46V96.38a3.85,3.85,0,0,0-1.33-3.22q-1.33-1.05-4.62-1Q90.68,92.11,90.68,97.13Zm12.43,7.81-8.4,2.78c-3.19,1-4.78,2.7-4.78,5q0,4.27,4.57,4.28a9,9,0,0,0,5.92-2.28,7.06,7.06,0,0,0,2.69-5.6Z"/><path class="cls-2" d="M137.42,97.34v-1a4.35,4.35,0,0,0-1.06-3.25,4.87,4.87,0,0,0-3.45-1q-4.17,0-4.17,3.32a2.67,2.67,0,0,0,.85,2.08,10.75,10.75,0,0,0,3,1.66l5.94,2.44a16.39,16.39,0,0,1,6.22,4.25,9.86,9.86,0,0,1,2.19,6.68,10.14,10.14,0,0,1-3.73,8.32q-3.72,3-10.21,3-7.24,0-10.36-2.92c-2.07-1.94-3.11-4.89-3.11-8.82v-1.91H128v1.91q0,4.41,5,4.41a5.37,5.37,0,0,0,3.48-1,3.58,3.58,0,0,0,1.3-3,3.66,3.66,0,0,0-.89-2.58,8.79,8.79,0,0,0-3-1.83L127,105.35q-7.38-3.13-7.38-9.92,0-5.22,3.42-7.94t9.84-2.71q6.9,0,10,3T146,96.38v1Z"/><path class="cls-2" d="M185.11,106.91H162.63v1.9c0,2.94.41,5,1.23,6.07s2.58,1.67,5.26,1.67c2.37,0,4-.36,4.75-1.09a6.56,6.56,0,0,0,1.61-4h9.16q-.15,6.65-3.76,9.54t-11.76,2.88q-8.26,0-11.92-3.66t-3.66-11.41V99.92q0-7.68,3.73-11.41t12.06-3.73q8.21,0,12,3.59t3.79,10.87Zm-22.48-6.52H176v-1.9q0-3.33-1.51-4.86t-5.12-1.52q-3.69,0-5.19,1.52t-1.51,4.86Z"/><path class="cls-2" d="M202.67,75.54h8.07A6.05,6.05,0,0,1,215,77a5.48,5.48,0,0,1,1.58,4.28v42h-9.16V84.44h-4.72Z"/><rect class="cls-1" x="115.21" width="11.91" height="27.26" rx="5.96"/><rect class="cls-1" x="216.48" y="52.8" width="27.26" height="11.91" rx="5.96" transform="translate(25.84 179.9) rotate(-44.99)"/><rect class="cls-1" x="169.52" y="20.69" width="27.26" height="11.91" rx="5.96" transform="translate(85.07 183.6) rotate(-66.28)"/><rect class="cls-1" x="6.26" y="45.13" width="11.91" height="27.26" rx="5.96" transform="translate(-37.97 25.86) rotate(-45.01)"/><rect class="cls-1" x="53.22" y="13.02" width="11.91" height="27.26" rx="5.96" transform="translate(-5.72 26.06) rotate(-23.72)"/></g></g></svg>