<svg xmlns="http://www.w3.org/2000/svg" viewBox="0 0 240.65 185.36"><defs><style>.cls-1{fill:#fff;}.cls-2{fill:#a8ca59;}</style></defs><g id="Layer_2" data-name="Layer 2"><g id="Calque_1" data-name="Calque 1"><path class="cls-1" d="M12.79,171.61a125.11,125.11,0,0,0,9.36,13.75H218.5a124.94,124.94,0,0,0,9.34-13.75Z"/><path class="cls-1" d="M7.57,161.53H233.12a123.54,123.54,0,0,0,5.27-13.18H2.26A123.78,123.78,0,0,0,7.57,161.53Z"/><path class="cls-2" d="M1.4,84.52H17.75q8,0,12.2,4.49t4.23,12.48v2.31q0,8.25-4.16,12.68t-12.27,4.43H10.94v11.24H1.4Zm9.54,27.67h5.11q4.5,0,6.54-2.12c1.37-1.4,2.05-3.52,2.05-6.33v-2.25q0-4.15-2.05-6.21t-6.54-2H10.94Z"/><path class="cls-2" d="M41,80.16h9.14V98q3.46-4.5,10.22-4.5,7.63,0,10.83,3.82t3.21,11.24v23.58H65.25v-23q0-4.23-1.77-6.1c-1.18-1.25-3.15-1.87-5.93-1.87A7,7,0,0,0,52,103.36c-1.29,1.48-1.94,3.62-1.94,6.44v22.35H41Z"/><path class="cls-2" d="M91.83,105.92H82.7q0-12.4,15.61-12.41,14.85,0,14.86,12.82v25.82H106l-1.64-4.77q-3.81,5.38-11,5.39c-3.9,0-6.79-1-8.65-2.9a10.4,10.4,0,0,1-2.8-7.53q0-5,3-7.67a22.94,22.94,0,0,1,8.25-4.26l10.9-3.47v-1.77a3.87,3.87,0,0,0-1.33-3.24c-.88-.7-2.41-1.06-4.6-1.06Q91.83,100.87,91.83,105.92Zm12.41,7.83-8.38,2.8q-4.78,1.56-4.78,5c0,2.86,1.53,4.3,4.57,4.3a8.9,8.9,0,0,0,5.9-2.29,7.09,7.09,0,0,0,2.69-5.62Z"/><path class="cls-2" d="M138.45,106.12v-1a4.36,4.36,0,0,0-1.06-3.27,4.78,4.78,0,0,0-3.44-1c-2.77,0-4.16,1.12-4.16,3.34a2.68,2.68,0,0,0,.86,2.08,10.55,10.55,0,0,0,3,1.67l5.93,2.45a16.43,16.43,0,0,1,6.2,4.26,10,10,0,0,1,2.18,6.72,10.23,10.23,0,0,1-3.71,8.35q-3.72,3-10.19,3-7.23,0-10.32-2.93T120.59,121v-1.91H129V121q0,4.42,5,4.43a5.33,5.33,0,0,0,3.48-1.06,3.61,3.61,0,0,0,1.29-3,3.65,3.65,0,0,0-.89-2.59,8.71,8.71,0,0,0-3-1.84l-6.82-2.8q-7.36-3.14-7.36-10c0-3.5,1.14-6.15,3.41-8s5.54-2.73,9.81-2.73q6.88,0,10,3t3.07,8.66v1Z"/><path class="cls-2" d="M186,115.73H163.6v1.91c0,3,.41,5,1.22,6.1s2.57,1.67,5.25,1.67c2.36,0,3.94-.37,4.74-1.09a6.69,6.69,0,0,0,1.6-4h9.13q-.14,6.67-3.75,9.57t-11.72,2.9q-8.25,0-11.89-3.68t-3.65-11.45v-8.93q0-7.69,3.72-11.45t12-3.75q8.17,0,12,3.62T186,108Zm-22.42-6.54h13.29v-1.91q0-3.34-1.5-4.87c-1-1-2.71-1.54-5.11-1.54s-4.18.51-5.18,1.54-1.5,2.64-1.5,4.87Z"/><path class="cls-2" d="M239.52,123.23v8.92H211.64a5,5,0,0,1-3.88-1.56,5.36,5.36,0,0,1-1.43-3.75,7,7,0,0,1,2.31-5l17.72-17.52a9.56,9.56,0,0,0,3.21-6.81A5,5,0,0,0,228,93.58a6.89,6.89,0,0,0-4.73-1.43q-4.15,0-6,2c-1.23,1.37-1.84,3.75-1.84,7.16h-9.47q0-8.58,3.92-13.26t13.32-4.66q8.25,0,12.23,3.71a12.65,12.65,0,0,1,4,9.71q0,7.37-7,14.11l-12.68,12.27Z"/><rect class="cls-1" x="114.37" width="11.91" height="27.26" rx="5.96"/><rect class="cls-1" x="215.64" y="52.8" width="27.26" height="11.91" rx="5.96" transform="translate(25.59 179.3) rotate(-44.99)"/><rect class="cls-1" x="168.68" y="20.69" width="27.26" height="11.91" rx="5.96" transform="translate(84.57 182.83) rotate(-66.28)"/><rect class="cls-1" x="5.43" y="45.13" width="11.91" height="27.26" rx="5.96" transform="translate(-38.22 25.26) rotate(-45.01)"/><rect class="cls-1" x="52.38" y="13.02" width="11.91" height="27.26" rx="5.96" transform="translate(-5.79 25.72) rotate(-23.72)"/></g></g></svg>