<svg xmlns="http://www.w3.org/2000/svg" viewBox="0 0 240.65 185.36"><defs><style>.cls-1{fill:#fff;}.cls-2{fill:#d5896b;}</style></defs><g id="Layer_2" data-name="Layer 2"><g id="Calque_1" data-name="Calque 1"><path class="cls-1" d="M12.79,171.61a125.11,125.11,0,0,0,9.36,13.75H218.5a124.94,124.94,0,0,0,9.34-13.75Z"/><path class="cls-1" d="M7.57,161.53H233.12a123.54,123.54,0,0,0,5.27-13.18H2.26A123.78,123.78,0,0,0,7.57,161.53Z"/><path class="cls-2" d="M3.1,84.52H19.46q8,0,12.2,4.49t4.22,12.48v2.31q0,8.25-4.15,12.68t-12.27,4.43H12.64v11.24H3.1Zm9.54,27.67h5.11q4.5,0,6.55-2.12c1.36-1.4,2-3.52,2-6.33v-2.25q0-4.15-2-6.21t-6.55-2H12.64Z"/><path class="cls-2" d="M42.7,80.16h9.13V98q3.48-4.5,10.22-4.5,7.64,0,10.84,3.82t3.2,11.24v23.58H67v-23q0-4.23-1.77-6.1t-5.93-1.87a7,7,0,0,0-5.56,2.21c-1.29,1.48-1.94,3.62-1.94,6.44v22.35H42.7Z"/><path class="cls-2" d="M93.54,105.92H84.41q0-12.4,15.6-12.41,14.86,0,14.86,12.82v25.82h-7.16l-1.63-4.77q-3.83,5.38-11,5.39c-3.91,0-6.79-1-8.66-2.9a10.4,10.4,0,0,1-2.79-7.53q0-5,3-7.67a22.89,22.89,0,0,1,8.24-4.26l10.91-3.47v-1.77a3.89,3.89,0,0,0-1.33-3.24c-.89-.7-2.42-1.06-4.6-1.06Q93.54,100.87,93.54,105.92Zm12.4,7.83-8.38,2.8q-4.77,1.56-4.77,5c0,2.86,1.52,4.3,4.57,4.3a8.88,8.88,0,0,0,5.89-2.29,7.09,7.09,0,0,0,2.69-5.62Z"/><path class="cls-2" d="M140.15,106.12v-1a4.4,4.4,0,0,0-1.05-3.27,4.8,4.8,0,0,0-3.44-1c-2.78,0-4.16,1.12-4.16,3.34a2.67,2.67,0,0,0,.85,2.08,10.79,10.79,0,0,0,3,1.67l5.92,2.45a16.55,16.55,0,0,1,6.21,4.26,10,10,0,0,1,2.18,6.72,10.2,10.2,0,0,1-3.72,8.35q-3.71,3-10.19,3-7.22,0-10.32-2.93T122.3,121v-1.91h8.45V121q0,4.42,5,4.43a5.3,5.3,0,0,0,3.48-1.06,3.61,3.61,0,0,0,1.3-3,3.65,3.65,0,0,0-.89-2.59,8.67,8.67,0,0,0-3-1.84l-6.82-2.8q-7.35-3.14-7.36-10c0-3.5,1.14-6.15,3.41-8s5.54-2.73,9.82-2.73q6.87,0,10,3t3.06,8.66v1Z"/><path class="cls-2" d="M187.72,115.73H165.3v1.91c0,3,.41,5,1.23,6.1s2.56,1.67,5.25,1.67c2.36,0,3.94-.37,4.73-1.09a6.62,6.62,0,0,0,1.6-4h9.14c-.1,4.45-1.34,7.64-3.75,9.57s-6.32,2.9-11.72,2.9-9.47-1.23-11.9-3.68-3.64-6.27-3.64-11.45v-8.93q0-7.69,3.71-11.45t12-3.75q8.18,0,12,3.62t3.78,10.9Zm-22.42-6.54h13.29v-1.91q0-3.34-1.5-4.87T172,100.87q-3.67,0-5.18,1.54t-1.5,4.87Z"/><path class="cls-2" d="M238.36,104v28.14h-9.07v-7H214.71a8.73,8.73,0,0,1-6.24-2,6.84,6.84,0,0,1-2.14-5.18,17.19,17.19,0,0,1,2-7.63l12.75-25.76h10.49l-14.92,29.91a3.08,3.08,0,0,0-.41,1.3c0,.55.38.82,1.16.82h11.85V104Z"/><rect class="cls-1" x="114.37" width="11.91" height="27.26" rx="5.96"/><rect class="cls-1" x="215.64" y="52.8" width="27.26" height="11.91" rx="5.96" transform="translate(25.59 179.3) rotate(-44.99)"/><rect class="cls-1" x="168.68" y="20.69" width="27.26" height="11.91" rx="5.96" transform="translate(84.57 182.83) rotate(-66.28)"/><rect class="cls-1" x="5.43" y="45.13" width="11.91" height="27.26" rx="5.96" transform="translate(-38.22 25.26) rotate(-45.01)"/><rect class="cls-1" x="52.38" y="13.02" width="11.91" height="27.26" rx="5.96" transform="translate(-5.79 25.72) rotate(-23.72)"/></g></g></svg>